<?xml version="1.0" encoding="utf-8"?>
<!-- Generator: Adobe Illustrator 16.0.3, SVG Export Plug-In . SVG Version: 6.00 Build 0)  -->
<!DOCTYPE svg PUBLIC "-//W3C//DTD SVG 1.1//EN" "http://www.w3.org/Graphics/SVG/1.1/DTD/svg11.dtd">
<svg version="1.1" id="Layer_1" xmlns="http://www.w3.org/2000/svg" xmlns:xlink="http://www.w3.org/1999/xlink" x="0px" y="0px"
	 width="760px" height="158.02px" viewBox="0 0 760 158.02" enable-background="new 0 0 760 158.02" xml:space="preserve">
<g>
	<g>
		<path fill="#8AB71B" d="M49.204,50.987c-1.44,1.119-3.494,2.453-6.16,4c-1.44,0.854-2.68,1.573-3.72,2.159
			c-1.04,0.588-1.96,1.067-2.76,1.44c-0.8,0.372-1.508,0.64-2.12,0.8c-0.614,0.16-1.214,0.24-1.8,0.24c-0.694,0-1.24-0.134-1.64-0.4
			c-0.4-0.268-0.72-0.6-0.96-1c-0.24-0.399-0.4-0.866-0.48-1.399s-0.12-1.04-0.12-1.521c0-0.853,0.093-1.933,0.28-3.24
			c0.186-1.306,0.44-2.706,0.76-4.199s0.692-3.053,1.12-4.681c0.426-1.626,0.853-3.212,1.28-4.76c0.96-3.68,2.106-7.546,3.44-11.6
			l-0.4-0.24c-0.48,0.693-1.24,1.8-2.28,3.32c-1.04,1.52-2.2,3.174-3.48,4.96c-1.28,1.787-2.588,3.587-3.92,5.399
			c-1.333,1.814-2.56,3.36-3.68,4.641c-2.348,2.773-4.388,5.04-6.12,6.8c-1.734,1.76-3.28,3.147-4.64,4.16
			c-1.36,1.014-2.587,1.707-3.68,2.08c-1.094,0.373-2.12,0.56-3.08,0.56c-1.388,0-2.36-0.426-2.92-1.28
			c-0.56-0.853-0.84-2.026-0.84-3.52c0-0.853,0.2-1.692,0.6-2.521c0.4-0.826,0.84-1.532,1.32-2.12c0.426-0.586,1-1.052,1.72-1.399
			c0.72-0.347,1.373-0.626,1.96-0.84c0.053,0.427,0.093,0.92,0.12,1.479c0.026,0.561,0.12,1.08,0.28,1.561
			c0.16,0.479,0.426,0.894,0.8,1.239c0.373,0.348,0.88,0.521,1.52,0.521c0.8,0,1.626-0.16,2.48-0.48c0.853-0.319,1.8-0.88,2.84-1.68
			s2.212-1.88,3.52-3.24c1.306-1.359,2.84-3.08,4.6-5.16c1.706-2.079,3.346-4.186,4.92-6.319c1.573-2.133,2.986-4.146,4.24-6.04
			c1.252-1.893,2.333-3.587,3.24-5.08c0.906-1.492,1.573-2.612,2-3.36c0.373-1.172,0.8-2.532,1.28-4.08
			c0.48-1.546,0.986-3.08,1.52-4.6c0.533-1.521,1.08-2.96,1.64-4.32c0.56-1.359,1.106-2.412,1.64-3.16
			c1.333-1.546,2.546-2.572,3.64-3.08c1.092-0.506,1.986-0.76,2.68-0.76c0.426,0,0.693,0.107,0.8,0.32
			c0.106,0.214,0.16,0.613,0.16,1.2c0,0.533-0.173,1.348-0.52,2.439c-0.347,1.094-0.787,2.294-1.32,3.601
			c-0.534,1.308-1.094,2.68-1.68,4.12c-0.587,1.439-1.147,2.773-1.68,4c-0.48,1.067-1.04,2.6-1.68,4.6s-1.32,4.214-2.04,6.64
			c-0.72,2.428-1.427,4.92-2.12,7.48c-0.693,2.56-1.32,4.934-1.88,7.12c-0.56,2.188-1.014,4.067-1.36,5.64
			c-0.348,1.574-0.52,2.548-0.52,2.92c0,0.32-0.027,0.708-0.08,1.16c-0.054,0.454-0.027,0.907,0.08,1.36
			c0.106,0.453,0.306,0.84,0.6,1.159c0.292,0.32,0.813,0.48,1.56,0.48c1.706,0,3.772-0.72,6.2-2.16c2.426-1.439,5.08-3.2,7.96-5.28
			l0.56,0.96C51.87,48.881,50.644,49.867,49.204,50.987z"/>
		<path fill="#8AB71B" d="M86.283,52.467c-1.84,1.414-3.72,2.76-5.64,4.04s-3.733,2.36-5.44,3.24
			c-1.708,0.88-3.067,1.319-4.08,1.319c-0.8,0-1.414-0.333-1.84-1c-0.427-0.667-0.64-1.507-0.64-2.52c0-0.532,0.04-1.173,0.12-1.92
			c0.08-0.746,0.172-1.48,0.28-2.2c0.106-0.72,0.226-1.412,0.36-2.08c0.132-0.666,0.252-1.212,0.36-1.64h-0.32
			c-2.4,2.987-4.948,5.348-7.64,7.08c-2.694,1.732-5.134,2.6-7.32,2.6c-2.028,0-3.36-0.64-4-1.92c-0.64-1.28-0.96-3.013-0.96-5.2
			c0-1.439,0.212-3.053,0.64-4.84c0.426-1.786,1.04-3.586,1.84-5.4c0.8-1.813,1.76-3.572,2.88-5.279
			c1.12-1.706,2.4-3.253,3.84-4.641c3.466-3.306,6.746-5.586,9.84-6.84c3.093-1.252,6.106-1.88,9.04-1.88c0.533,0,1.2,0.067,2,0.2
			c0.8,0.134,1.586,0.374,2.36,0.72c0.772,0.348,1.44,0.813,2,1.4s0.84,1.334,0.84,2.24c0,0.587-0.04,1.079-0.12,1.479
			s-0.228,0.76-0.44,1.08c-0.214,0.32-0.507,0.668-0.88,1.04c-0.374,0.374-0.828,0.8-1.36,1.28c-0.428,1.174-0.92,2.254-1.48,3.239
			c-0.56,0.988-1.16,2.334-1.8,4.04c-1.228,3.36-2.254,6.24-3.08,8.641c-0.827,2.399-1.24,3.867-1.24,4.399
			c0,1.174,0.146,1.935,0.44,2.28c0.292,0.348,0.652,0.521,1.08,0.521c0.96,0,2.012-0.253,3.16-0.761
			c1.146-0.506,2.333-1.16,3.56-1.96c1.227-0.8,2.48-1.692,3.76-2.68c1.28-0.986,2.532-1.933,3.76-2.84l0.72,0.96
			C89.655,49.787,88.123,51.055,86.283,52.467z M79.443,28.747c-0.107-0.373-0.348-0.721-0.72-1.04c-0.374-0.32-0.8-0.601-1.28-0.84
			c-0.48-0.24-0.96-0.413-1.44-0.521c-0.48-0.106-0.828-0.16-1.04-0.16c-1.388,0-2.694,0.16-3.92,0.48
			c-1.228,0.32-2.414,0.84-3.56,1.56c-1.147,0.721-2.28,1.668-3.4,2.84c-1.12,1.174-2.267,2.641-3.44,4.4
			c-0.64,0.96-1.24,2.107-1.8,3.44s-1.067,2.68-1.52,4.04c-0.454,1.359-0.8,2.667-1.04,3.92c-0.24,1.253-0.36,2.279-0.36,3.08
			c0,1.707,0.333,2.867,1,3.479c0.666,0.614,1.373,0.92,2.12,0.92c1.813,0,3.866-0.893,6.16-2.68c2.292-1.786,4.373-4.68,6.24-8.68
			c0.8-1.707,1.426-3.293,1.88-4.761c0.453-1.466,0.946-2.813,1.48-4.04c0.16-0.426,0.413-0.96,0.76-1.6
			c0.347-0.64,0.747-1.24,1.2-1.8c0.453-0.561,0.906-1.04,1.36-1.44C78.575,28.947,79.015,28.747,79.443,28.747z"/>
		<path fill="#8AB71B" d="M120.882,49.146c0,0.214-0.76,0.88-2.28,2s-3.468,2.32-5.84,3.601c-2.374,1.279-4.988,2.428-7.84,3.439
			c-2.854,1.013-5.614,1.521-8.28,1.521c-2.614,0-4.68-0.72-6.2-2.16s-2.28-3.84-2.28-7.2c0-1.439,0.226-3,0.68-4.68
			c0.453-1.68,1.106-3.4,1.96-5.16c0.853-1.76,1.906-3.52,3.16-5.28c1.252-1.76,2.652-3.439,4.2-5.04
			c1.386-1.439,2.853-2.706,4.4-3.8c1.546-1.093,3.052-2.026,4.52-2.8c1.466-0.772,2.813-1.347,4.04-1.72
			c1.226-0.373,2.24-0.561,3.04-0.561c0.906,0,1.732,0.147,2.48,0.44c0.746,0.294,1.12,1.16,1.12,2.6c0,0.748-0.188,1.76-0.56,3.04
			c-0.374,1.28-1.094,2.374-2.16,3.28c-0.908,0.747-1.748,1.24-2.52,1.479c-0.774,0.24-1.348,0.36-1.72,0.36
			c-0.267,0-0.48-0.16-0.64-0.48l0.8-1.76c0.426-0.96,0.667-1.666,0.72-2.12c0.052-0.452,0.08-0.813,0.08-1.08
			c0-0.586-0.12-1.012-0.36-1.279c-0.24-0.267-0.68-0.4-1.32-0.4c-1.708,0-3.428,0.654-5.16,1.96c-1.734,1.308-3.308,3-4.72,5.08
			c-1.414,2.08-2.574,4.414-3.48,7c-0.908,2.588-1.36,5.16-1.36,7.72c0,0.908,0.053,1.88,0.16,2.92
			c0.106,1.04,0.36,1.988,0.76,2.841c0.4,0.854,0.986,1.56,1.76,2.119c0.772,0.561,1.826,0.841,3.16,0.841
			c1.546,0,3.12-0.213,4.72-0.641c1.6-0.426,2.88-0.853,3.84-1.279c1.492-0.641,2.852-1.307,4.08-2
			c1.227-0.693,2.28-1.32,3.16-1.881c0.88-0.56,1.56-1.025,2.04-1.399c0.48-0.373,0.772-0.561,0.88-0.561
			c0.212,0,0.44,0.028,0.68,0.08C120.842,48.24,120.935,48.561,120.882,49.146z"/>
		<path fill="#8AB71B" d="M157.041,55.707c-1.6,1.12-3.214,2.134-4.84,3.04c-1.627,0.906-3.254,1.626-4.88,2.16
			c-1.628,0.532-3.16,0.8-4.6,0.8c-1.014,0-1.988-0.12-2.92-0.36c-0.935-0.24-1.814-0.693-2.641-1.359
			c-0.827-0.668-1.587-1.613-2.28-2.841c-0.693-1.226-1.279-2.826-1.76-4.8c-0.747-3.146-1.268-5.532-1.56-7.16
			c-0.294-1.626-0.574-2.92-0.84-3.88c-0.428,0.588-0.841,1.16-1.24,1.72c-0.4,0.561-0.813,1.348-1.24,2.36
			c-0.374,0.8-0.72,1.614-1.04,2.44c-0.32,0.827-0.613,1.56-0.88,2.199c-0.32,0.748-0.613,1.468-0.88,2.16
			c-0.48,1.228-0.867,2.147-1.16,2.761c-0.294,0.613-0.628,1.107-1,1.479c-0.428,0.428-1.107,0.867-2.04,1.32
			c-0.934,0.453-1.72,0.68-2.36,0.68s-1.08-0.08-1.32-0.24c-0.24-0.16-0.36-0.452-0.36-0.88c0-0.266,0.134-0.772,0.4-1.52
			c0.268-0.746,0.72-1.973,1.36-3.681c0.32-0.8,0.6-1.546,0.84-2.239c0.24-0.692,0.48-1.387,0.72-2.08
			c0.24-0.692,0.492-1.413,0.76-2.16c0.267-0.746,0.56-1.572,0.88-2.48c1.28-3.52,2.4-6.64,3.36-9.359
			c0.96-2.721,1.652-4.641,2.08-5.761c0.372-1.012,0.692-1.88,0.96-2.6c0.266-0.72,0.612-1.292,1.04-1.72
			c0.319-0.373,0.732-0.706,1.239-1c0.507-0.293,1.04-0.532,1.601-0.72c0.56-0.187,1.106-0.333,1.64-0.44
			c0.533-0.106,0.986-0.16,1.36-0.16c0.372,0,0.56,0.294,0.56,0.88c0,0.374-0.188,1.04-0.56,2c-0.374,0.96-0.748,1.868-1.12,2.721
			c-0.907,2.239-1.733,4.333-2.48,6.279c-0.747,1.947-1.413,3.774-2,5.48l0.4,0.08c0.96-1.013,1.84-1.96,2.64-2.84
			c0.801-0.881,1.641-1.761,2.521-2.641s1.853-1.786,2.92-2.72c1.066-0.933,2.32-1.986,3.76-3.16c1.066-0.853,2.187-1.626,3.36-2.32
			c1.173-0.692,2.346-1.279,3.52-1.76c1.173-0.479,2.307-0.84,3.4-1.08c1.093-0.24,2.066-0.359,2.92-0.359
			c0.213,0,0.48,0.014,0.8,0.04c0.32,0.027,0.627,0.107,0.92,0.239c0.293,0.134,0.547,0.334,0.761,0.601
			c0.212,0.268,0.319,0.64,0.319,1.12c0,0.907-0.6,2.134-1.8,3.68c-1.2,1.548-3.32,3.254-6.36,5.12l-0.479-0.721
			c1.013-0.746,1.706-1.626,2.08-2.64c0.372-1.013,0.56-1.786,0.56-2.32c0-0.746-0.533-1.119-1.6-1.119
			c-0.907,0-2.134,0.307-3.68,0.92c-1.548,0.613-3.2,1.613-4.961,3c-1.173,0.907-2.199,1.76-3.079,2.56
			c-0.881,0.8-1.614,1.521-2.2,2.16c-0.694,0.747-1.308,1.439-1.84,2.08h0.479c0.106,0,0.24-0.013,0.4-0.04
			c0.16-0.026,0.292-0.04,0.399-0.04c0.267,0,0.547,0.094,0.84,0.28c0.293,0.188,0.493,0.6,0.601,1.239
			c0.267,1.494,0.572,3.214,0.92,5.16c0.347,1.947,0.732,3.774,1.16,5.48c0.586,2.667,1.466,4.773,2.64,6.319
			c1.173,1.548,2.772,2.32,4.8,2.32c1.44,0,2.826-0.227,4.16-0.68c1.333-0.453,2.601-1.026,3.8-1.72
			c1.2-0.693,2.307-1.413,3.32-2.16c1.013-0.746,1.893-1.44,2.64-2.08l0.721,1.439C160.161,53.414,158.642,54.587,157.041,55.707z"
			/>
		<path fill="#8AB71B" d="M197.002,52.467c-1.841,1.414-3.721,2.76-5.641,4.04s-3.733,2.36-5.439,3.24
			c-1.708,0.88-3.068,1.319-4.08,1.319c-0.801,0-1.414-0.333-1.84-1c-0.428-0.667-0.641-1.507-0.641-2.52
			c0-0.532,0.04-1.173,0.12-1.92c0.08-0.746,0.173-1.48,0.28-2.2c0.106-0.72,0.226-1.412,0.359-2.08
			c0.133-0.666,0.253-1.212,0.36-1.64h-0.32c-2.399,2.987-4.947,5.348-7.64,7.08c-2.693,1.732-5.134,2.6-7.32,2.6
			c-2.027,0-3.359-0.64-4-1.92c-0.64-1.28-0.96-3.013-0.96-5.2c0-1.439,0.213-3.053,0.641-4.84c0.426-1.786,1.04-3.586,1.84-5.4
			c0.8-1.813,1.76-3.572,2.88-5.279c1.12-1.706,2.4-3.253,3.84-4.641c3.467-3.306,6.746-5.586,9.84-6.84
			c3.093-1.252,6.106-1.88,9.04-1.88c0.532,0,1.2,0.067,2,0.2c0.8,0.134,1.587,0.374,2.36,0.72c0.772,0.348,1.439,0.813,2,1.4
			c0.56,0.587,0.84,1.334,0.84,2.24c0,0.587-0.04,1.079-0.12,1.479s-0.228,0.76-0.439,1.08c-0.214,0.32-0.508,0.668-0.881,1.04
			c-0.373,0.374-0.827,0.8-1.359,1.28c-0.428,1.174-0.92,2.254-1.48,3.239c-0.56,0.988-1.16,2.334-1.8,4.04
			c-1.228,3.36-2.254,6.24-3.08,8.641c-0.827,2.399-1.24,3.867-1.24,4.399c0,1.174,0.146,1.935,0.44,2.28
			c0.292,0.348,0.652,0.521,1.08,0.521c0.96,0,2.013-0.253,3.16-0.761c1.146-0.506,2.332-1.16,3.56-1.96
			c1.227-0.8,2.48-1.692,3.76-2.68c1.28-0.986,2.533-1.933,3.761-2.84l0.72,0.96C200.374,49.787,198.842,51.055,197.002,52.467z
			 M190.161,28.747c-0.107-0.373-0.347-0.721-0.72-1.04c-0.374-0.32-0.8-0.601-1.28-0.84c-0.479-0.24-0.96-0.413-1.439-0.521
			c-0.48-0.106-0.828-0.16-1.04-0.16c-1.388,0-2.694,0.16-3.92,0.48c-1.228,0.32-2.414,0.84-3.561,1.56
			c-1.147,0.721-2.279,1.668-3.399,2.84c-1.12,1.174-2.268,2.641-3.44,4.4c-0.64,0.96-1.24,2.107-1.8,3.44s-1.067,2.68-1.521,4.04
			c-0.453,1.359-0.8,2.667-1.039,3.92c-0.24,1.253-0.36,2.279-0.36,3.08c0,1.707,0.332,2.867,1,3.479
			c0.666,0.614,1.372,0.92,2.12,0.92c1.813,0,3.866-0.893,6.16-2.68c2.292-1.786,4.372-4.68,6.239-8.68
			c0.801-1.707,1.427-3.293,1.88-4.761c0.453-1.466,0.946-2.813,1.48-4.04c0.16-0.426,0.412-0.96,0.76-1.6
			c0.347-0.64,0.746-1.24,1.2-1.8c0.452-0.561,0.906-1.04,1.36-1.44C189.294,28.947,189.734,28.747,190.161,28.747z"/>
		<path fill="#8AB71B" d="M237.361,1.066c0,0.801-0.294,1.868-0.88,3.2c-0.588,1.334-1.534,2.908-2.84,4.721
			c-1.308,1.813-3.04,3.854-5.2,6.119c-2.16,2.268-4.813,4.734-7.96,7.4c-1.601,1.388-3.294,2.827-5.08,4.32
			c-1.788,1.493-3.454,2.88-5,4.16c-0.428,0.96-0.8,1.894-1.12,2.8c-0.268,0.747-0.56,1.533-0.88,2.359
			c-0.32,0.828-0.561,1.48-0.72,1.96h0.239c1.013-1.492,2.173-2.8,3.48-3.92c1.306-1.12,2.612-2.04,3.92-2.76
			c1.307-0.72,2.56-1.252,3.76-1.6c1.2-0.347,2.2-0.521,3-0.521c2.612,0,4.373,0.694,5.28,2.08c0.906,1.388,1.36,3.174,1.36,5.36
			c0,1.12-0.2,2.428-0.601,3.92c-0.399,1.493-0.974,3.04-1.72,4.64c-0.748,1.601-1.694,3.188-2.84,4.76
			c-1.147,1.574-2.44,3-3.88,4.28c0.96,0,2.105-0.2,3.439-0.6c1.333-0.4,2.692-0.893,4.08-1.48c1.387-0.586,2.706-1.226,3.96-1.92
			c1.253-0.692,2.28-1.332,3.08-1.92l0.08,1.6c-0.96,0.641-2.08,1.308-3.36,2c-1.279,0.694-2.653,1.334-4.12,1.921
			s-2.987,1.079-4.56,1.479c-1.574,0.4-3.08,0.654-4.521,0.76c-0.587,0.534-1.279,1.094-2.079,1.681
			c-0.801,0.587-1.668,1.12-2.601,1.6c-0.934,0.48-1.907,0.866-2.92,1.16c-1.014,0.292-2.027,0.439-3.04,0.439
			c-1.707,0-3.067-0.319-4.08-0.96c-1.014-0.64-1.773-1.439-2.28-2.399s-0.827-2.026-0.96-3.2c-0.134-1.173-0.199-2.293-0.199-3.36
			c0-0.853,0.12-1.906,0.359-3.159c0.24-1.253,0.547-2.601,0.92-4.04c0.373-1.44,0.801-2.933,1.28-4.48
			c0.48-1.546,0.96-3.04,1.44-4.479c-0.694,0.373-1.04,0.213-1.04-0.48c0-0.372,0.292-0.746,0.88-1.12
			c0.212-0.212,0.506-0.399,0.88-0.56c0.64-1.652,1.386-3.44,2.24-5.36c0.853-1.92,1.72-3.786,2.6-5.6
			c0.88-1.813,1.732-3.507,2.561-5.08c0.826-1.573,1.586-2.866,2.279-3.88c3.893-5.707,7.48-9.801,10.76-12.28
			c3.28-2.48,6.146-3.72,8.601-3.72c1.013,0,1.8,0.134,2.36,0.399c0.56,0.268,0.96,0.614,1.199,1.04c0.24,0.428,0.373,0.88,0.4,1.36
			C237.348,0.187,237.361,0.641,237.361,1.066z M213.761,56.347c-2.188,0.107-3.854-0.32-5-1.28c-1.147-0.96-2.014-2.079-2.6-3.359
			l-0.24,0.08c-0.107,1.867,0.28,3.333,1.16,4.399c0.88,1.067,1.853,1.601,2.92,1.601c0.48,0,0.946-0.066,1.4-0.2
			c0.452-0.133,0.866-0.307,1.24-0.521C213.067,56.854,213.441,56.614,213.761,56.347z M222.562,39.307c0-2.346-0.334-3.96-1-4.84
			c-0.668-0.88-1.721-1.32-3.16-1.32c-0.907,0-1.92,0.254-3.04,0.761s-2.174,1.293-3.16,2.359c-0.987,1.067-1.827,2.414-2.52,4.04
			c-0.694,1.628-1.04,3.588-1.04,5.88c0,1.654,0.186,3.027,0.56,4.12c0.372,1.094,0.88,1.96,1.521,2.601
			c0.64,0.64,1.412,1.067,2.319,1.279c0.906,0.214,1.92,0.294,3.04,0.24c0.641-0.532,1.28-1.252,1.92-2.16
			c0.853-1.12,1.561-2.306,2.12-3.56c0.561-1.253,1.026-2.48,1.4-3.681c0.372-1.199,0.64-2.306,0.8-3.319
			C222.481,40.694,222.562,39.895,222.562,39.307z M231.921,3.627c0-1.066-0.174-1.84-0.52-2.32c-0.348-0.479-1.027-0.72-2.04-0.72
			c-1.174,0-2.468,0.613-3.88,1.84c-1.414,1.228-2.894,3-4.44,5.32c-1.547,2.319-3.16,5.188-4.84,8.6
			c-1.68,3.414-3.348,7.28-5,11.601c1.013-0.906,2.427-2.066,4.24-3.48c1.813-1.412,3.866-3.267,6.16-5.56
			c1.652-1.653,3.12-3.173,4.399-4.561c1.28-1.386,2.36-2.68,3.24-3.88s1.546-2.36,2-3.479
			C231.693,5.867,231.921,4.747,231.921,3.627z"/>
		<path fill="#8AB71B" d="M262.04,55.707c-3.228,1.547-6.84,2.319-10.84,2.319c-1.12,0-2-0.105-2.641-0.319
			c-2.507,1.332-5.147,2-7.92,2c-0.96,0-1.894-0.147-2.8-0.44c-0.907-0.294-1.72-0.786-2.439-1.479
			c-0.721-0.692-1.294-1.601-1.721-2.721c-0.428-1.119-0.64-2.479-0.64-4.079c0-1.493,0.133-2.881,0.399-4.16
			c0.267-1.28,0.641-2.721,1.12-4.32c0.373-1.28,0.813-2.546,1.32-3.8c0.506-1.253,1.026-2.427,1.56-3.521
			c0.533-1.092,1.08-2.08,1.641-2.96c0.56-0.88,1.08-1.56,1.56-2.04c0.373-0.372,0.853-0.706,1.44-1
			c0.586-0.292,1.252-0.439,2-0.439c0.532,0,0.92,0.08,1.16,0.24c0.239,0.159,0.439,0.319,0.6,0.479h0.24
			c0.853-0.8,1.732-1.586,2.64-2.36c0.906-0.772,1.88-1.466,2.92-2.08c1.04-0.612,2.173-1.119,3.4-1.52c1.227-0.4,2.64-0.6,4.24-0.6
			c2.026,0,3.72,0.653,5.08,1.96c1.359,1.308,2.04,3.533,2.04,6.68c0,1.92-0.374,4.027-1.12,6.32
			c-0.748,2.293-1.788,4.547-3.12,6.76c-1.334,2.214-2.88,4.28-4.641,6.2c-1.76,1.92-3.68,3.493-5.76,4.72
			c0.053,0.054,0.32,0.12,0.8,0.2c0.48,0.08,1.146,0.12,2,0.12c2.293,0,4.893-0.627,7.801-1.88c2.906-1.253,5.88-3,8.92-5.24
			l0.72,0.96C268.586,52.16,265.267,54.16,262.04,55.707z M241.64,53.227c-0.613-1.226-1.027-2.492-1.239-3.8
			c-0.214-1.307-0.28-2.572-0.2-3.8c0.08-1.227,0.172-2.267,0.279-3.12h-0.239c-0.16,0.48-0.36,1.147-0.601,2
			c-0.239,0.854-0.413,2.188-0.52,4c-0.107,1.653,0.013,2.987,0.359,4c0.347,1.014,0.787,1.8,1.32,2.36
			c0.532,0.56,1.08,0.934,1.64,1.12c0.561,0.188,0.973,0.279,1.24,0.279h0.8C243.2,55.467,242.252,54.454,241.64,53.227z
			 M260,34.187c0-1.92-0.4-3.506-1.2-4.76c-0.8-1.252-2.214-1.88-4.24-1.88c-0.587,0-1.453,0.16-2.6,0.479
			c-1.147,0.32-2.174,0.854-3.08,1.601c-0.534,0.428-1.12,1.067-1.76,1.92c-0.641,0.854-1.254,1.894-1.84,3.12
			c-0.588,1.228-1.107,2.653-1.561,4.28s-0.76,3.427-0.92,5.399c0,0.48,0.013,1.24,0.04,2.28c0.026,1.04,0.227,2.134,0.6,3.28
			c0.373,1.147,0.986,2.213,1.841,3.199c0.853,0.988,2.105,1.614,3.76,1.881c1.706-0.853,3.24-2.093,4.6-3.721
			c1.36-1.626,2.507-3.412,3.44-5.359c0.933-1.946,1.652-3.96,2.16-6.04C259.746,37.787,260,35.895,260,34.187z"/>
		<path fill="#8AB71B" d="M345.839,50.146c-0.8,0.561-1.653,1.12-2.56,1.681c-0.908,0.56-1.814,1.12-2.721,1.68
			c-0.907,0.56-1.68,1.054-2.319,1.48c-2.721,1.76-5.028,3.094-6.92,4c-1.895,0.906-3.24,1.359-4.04,1.359
			c-0.48,0-0.774-0.174-0.881-0.52c-0.107-0.348-0.159-0.734-0.159-1.16c0-0.427,0.105-1.12,0.319-2.08
			c0.213-0.96,0.493-2.053,0.84-3.28c0.347-1.226,0.721-2.532,1.12-3.92c0.4-1.386,0.786-2.72,1.16-4
			c0.48-1.546,0.946-3.04,1.4-4.479c0.452-1.44,0.853-2.772,1.2-4c0.346-1.227,0.64-2.307,0.88-3.24
			c0.239-0.933,0.386-1.666,0.439-2.2c0-0.267-0.014-0.492-0.04-0.68c-0.027-0.187-0.333-0.28-0.92-0.28
			c-0.319,0-0.894,0.294-1.72,0.88c-0.827,0.588-1.773,1.388-2.84,2.4c-1.067,1.014-2.228,2.188-3.48,3.52
			c-1.254,1.334-2.467,2.72-3.64,4.16c-1.494,1.813-2.68,3.44-3.561,4.88c-0.88,1.44-1.693,2.934-2.439,4.48
			c-0.748,1.6-1.4,2.867-1.96,3.8c-0.561,0.934-1.067,1.64-1.521,2.12c-0.453,0.479-0.88,0.8-1.279,0.96
			c-0.4,0.16-0.814,0.24-1.24,0.24c-0.534,0-0.84-0.213-0.92-0.641c-0.08-0.426-0.12-0.72-0.12-0.88c0-0.586,0.106-1.307,0.32-2.16
			c0.212-0.853,0.612-1.893,1.199-3.12c0.427-0.906,0.747-1.626,0.96-2.159s0.453-1.12,0.721-1.761l3.2-11.04
			c0.212-0.692,0.426-1.452,0.64-2.279c0.213-0.826,0.426-1.641,0.64-2.44c0.213-0.8,0.4-1.52,0.561-2.16
			c0.16-0.64,0.292-1.093,0.399-1.359c0.213-0.853,0.627-1.601,1.24-2.24c0.612-0.641,1.28-1.16,2-1.561
			c0.72-0.399,1.412-0.706,2.08-0.92c0.666-0.212,1.187-0.319,1.56-0.319s0.561,0.293,0.561,0.88
			c-0.054,0.427-0.28,1.239-0.68,2.439c-0.4,1.2-0.788,2.36-1.16,3.48c-0.48,1.493-0.88,2.747-1.2,3.76
			c-0.32,1.014-0.628,1.934-0.92,2.76c-0.294,0.828-0.561,1.614-0.8,2.36c-0.24,0.747-0.521,1.573-0.841,2.479h0.24
			c2.933-3.252,5.612-5.972,8.04-8.159c2.427-2.187,4.532-3.946,6.32-5.28c1.786-1.333,3.28-2.267,4.479-2.8
			c1.2-0.533,2.093-0.801,2.681-0.801c0.426,0,0.706,0.148,0.84,0.44c0.133,0.294,0.173,0.653,0.12,1.08
			c-0.107,1.388-0.574,3.428-1.4,6.12c-0.827,2.693-1.773,5.8-2.84,9.32c-0.16,0.64-0.44,1.587-0.84,2.84
			c-0.4,1.254-0.813,2.547-1.24,3.88c-0.428,1.334-0.8,2.547-1.12,3.64c-0.319,1.094-0.479,1.773-0.479,2.04
			c0,0.374-0.014,0.668-0.04,0.88c-0.027,0.214,0.226,0.32,0.76,0.32c0.586,0,1.372-0.213,2.36-0.64
			c0.986-0.427,2.052-0.96,3.199-1.601c1.146-0.64,2.373-1.372,3.681-2.2c1.306-0.826,2.572-1.64,3.8-2.439l0.72,0.96
			C347.251,49.095,346.639,49.587,345.839,50.146z"/>
		<path fill="#8AB71B" d="M379.518,29.387c0,2.508-0.533,5.08-1.6,7.72c-1.067,2.641-2.388,5.16-3.96,7.561
			c-1.573,2.399-3.268,4.573-5.08,6.52c-1.813,1.948-3.493,3.454-5.04,4.521c-1.388,0.96-2.92,1.854-4.6,2.68
			c-1.681,0.826-3.348,1.24-5,1.24c-1.067,0-1.8-0.214-2.2-0.64c-0.4-0.428-0.6-0.906-0.6-1.44c0-1.12,0.306-2.32,0.92-3.6
			c0.612-1.28,1.399-2.533,2.359-3.761c0.96-1.226,2.04-2.439,3.24-3.64s2.412-2.28,3.64-3.24c2.187-1.706,4.2-3.132,6.04-4.28
			c1.841-1.146,3.507-2.119,5-2.92c0.267-0.853,0.4-1.6,0.4-2.239c0-0.641,0-1.333,0-2.08c0-1.227-0.134-2.227-0.4-3
			c-0.268-0.772-0.627-1.387-1.08-1.84s-0.96-0.761-1.52-0.921c-0.56-0.159-1.16-0.239-1.8-0.239c-1.228,0-2.76,0.587-4.601,1.76
			c-1.84,1.174-3.96,3.04-6.359,5.6c-0.534,1.228-1.134,2.734-1.8,4.521c-0.668,1.787-1.388,3.76-2.16,5.92
			c-0.774,2.16-1.601,4.494-2.48,7c-0.88,2.508-1.773,5.067-2.68,7.68c-0.854,2.4-1.694,4.786-2.521,7.16
			c-0.827,2.373-1.6,4.64-2.319,6.8c-0.721,2.16-1.373,4.16-1.96,6s-1.066,3.427-1.44,4.761c-0.053,0.266-0.093,0.666-0.12,1.199
			c-0.026,0.533-0.093,1.066-0.2,1.601c-0.105,0.479-0.332,1.04-0.68,1.68c-0.346,0.64-0.973,1.333-1.88,2.08
			c-1.173,0.906-2.372,1.36-3.6,1.36c-0.427,0-0.801-0.16-1.12-0.48c-0.32-0.32-0.48-0.854-0.48-1.6c0-0.48,0.107-1.24,0.32-2.28
			c0.214-1.04,0.693-2.494,1.439-4.36c1.388-3.84,2.801-7.653,4.24-11.439c1.228-3.254,2.548-6.76,3.96-10.521
			c1.414-3.76,2.732-7.266,3.96-10.52c0.692-1.866,1.32-3.572,1.88-5.12c0.561-1.546,1.093-3.053,1.601-4.521
			c0.506-1.466,1.04-2.96,1.6-4.479c0.561-1.521,1.16-3.213,1.8-5.08c0.587-1.546,1.146-3.133,1.681-4.76
			c0.532-1.627,1.012-2.652,1.439-3.08c0.8-0.8,1.692-1.427,2.681-1.88c0.985-0.453,1.612-0.681,1.88-0.681
			c0.212,0,0.386,0.014,0.52,0.04c0.133,0.028,0.2,0.174,0.2,0.44c0,0.16-0.08,0.52-0.24,1.08c-0.16,0.56-0.359,1.254-0.6,2.08
			c-0.24,0.827-0.534,1.72-0.88,2.68c-0.348,0.96-0.681,1.867-1,2.72l0.399,0.08c0.96-0.96,2.066-1.906,3.32-2.84
			c1.253-0.933,2.532-1.772,3.84-2.52c1.307-0.747,2.572-1.347,3.8-1.801c1.227-0.452,2.32-0.68,3.28-0.68
			c2.24,0,3.893,0.588,4.96,1.76C378.984,24.32,379.518,26.4,379.518,29.387z M372.078,38.827c-0.428,0.16-1.027,0.439-1.8,0.84
			c-0.774,0.399-1.614,0.88-2.521,1.439c-0.907,0.561-1.854,1.2-2.84,1.92c-0.987,0.721-1.88,1.48-2.68,2.28
			c-0.694,0.694-1.388,1.414-2.08,2.16c-0.694,0.747-1.308,1.521-1.84,2.32c-0.534,0.8-0.974,1.6-1.32,2.399
			c-0.348,0.801-0.52,1.628-0.52,2.48c0,0.96,0.746,1.439,2.239,1.439c0.746,0,1.573-0.199,2.48-0.6c0.906-0.4,1.84-1.08,2.8-2.04
			c0.586-0.586,1.267-1.36,2.04-2.32c0.772-0.96,1.546-2.065,2.32-3.319c0.772-1.253,1.492-2.641,2.159-4.16
			C371.185,42.146,371.704,40.534,372.078,38.827z"/>
		<path fill="#8AB71B" d="M409.798,55.707c-3.228,1.547-6.84,2.319-10.84,2.319c-1.12,0-2-0.105-2.641-0.319
			c-2.507,1.332-5.147,2-7.92,2c-0.96,0-1.894-0.147-2.8-0.44c-0.907-0.294-1.72-0.786-2.439-1.479
			c-0.721-0.692-1.294-1.601-1.721-2.721c-0.428-1.119-0.64-2.479-0.64-4.079c0-1.493,0.133-2.881,0.399-4.16
			c0.267-1.28,0.641-2.721,1.12-4.32c0.373-1.28,0.813-2.546,1.32-3.8c0.506-1.253,1.026-2.427,1.56-3.521
			c0.533-1.092,1.08-2.08,1.641-2.96c0.56-0.88,1.08-1.56,1.56-2.04c0.373-0.372,0.853-0.706,1.44-1
			c0.586-0.292,1.252-0.439,2-0.439c0.532,0,0.92,0.08,1.16,0.24c0.239,0.159,0.439,0.319,0.6,0.479h0.24
			c0.853-0.8,1.732-1.586,2.64-2.36c0.906-0.772,1.88-1.466,2.92-2.08c1.04-0.612,2.173-1.119,3.4-1.52c1.227-0.4,2.64-0.6,4.24-0.6
			c2.026,0,3.72,0.653,5.08,1.96c1.359,1.308,2.04,3.533,2.04,6.68c0,1.92-0.374,4.027-1.12,6.32
			c-0.748,2.293-1.788,4.547-3.12,6.76c-1.334,2.214-2.88,4.28-4.641,6.2c-1.76,1.92-3.68,3.493-5.76,4.72
			c0.053,0.054,0.32,0.12,0.8,0.2c0.48,0.08,1.146,0.12,2,0.12c2.293,0,4.893-0.627,7.801-1.88c2.906-1.253,5.88-3,8.92-5.24
			l0.72,0.96C416.344,52.16,413.024,54.16,409.798,55.707z M389.397,53.227c-0.613-1.226-1.027-2.492-1.239-3.8
			c-0.214-1.307-0.28-2.572-0.2-3.8c0.08-1.227,0.172-2.267,0.279-3.12h-0.239c-0.16,0.48-0.36,1.147-0.601,2
			c-0.239,0.854-0.413,2.188-0.52,4c-0.107,1.653,0.013,2.987,0.359,4c0.347,1.014,0.787,1.8,1.32,2.36
			c0.532,0.56,1.08,0.934,1.64,1.12c0.561,0.188,0.973,0.279,1.24,0.279h0.8C390.958,55.467,390.01,54.454,389.397,53.227z
			 M407.758,34.187c0-1.92-0.4-3.506-1.2-4.76c-0.8-1.252-2.214-1.88-4.24-1.88c-0.587,0-1.453,0.16-2.6,0.479
			c-1.147,0.32-2.174,0.854-3.08,1.601c-0.534,0.428-1.12,1.067-1.76,1.92c-0.641,0.854-1.254,1.894-1.84,3.12
			c-0.588,1.228-1.107,2.653-1.561,4.28s-0.76,3.427-0.92,5.399c0,0.48,0.013,1.24,0.04,2.28c0.026,1.04,0.227,2.134,0.6,3.28
			c0.373,1.147,0.986,2.213,1.841,3.199c0.853,0.988,2.105,1.614,3.76,1.881c1.706-0.853,3.24-2.093,4.6-3.721
			c1.36-1.626,2.507-3.412,3.44-5.359c0.933-1.946,1.652-3.96,2.16-6.04C407.504,37.787,407.758,35.895,407.758,34.187z"/>
		<path fill="#8AB71B" d="M449.997,49.146c0,0.214-0.761,0.88-2.28,2c-1.521,1.12-3.468,2.32-5.84,3.601
			c-2.374,1.279-4.987,2.428-7.84,3.439c-2.854,1.013-5.614,1.521-8.28,1.521c-2.614,0-4.68-0.72-6.2-2.16
			c-1.52-1.44-2.28-3.84-2.28-7.2c0-1.439,0.227-3,0.681-4.68c0.452-1.68,1.105-3.4,1.96-5.16c0.853-1.76,1.906-3.52,3.16-5.28
			c1.252-1.76,2.652-3.439,4.199-5.04c1.387-1.439,2.853-2.706,4.4-3.8c1.546-1.093,3.053-2.026,4.52-2.8
			c1.467-0.772,2.813-1.347,4.04-1.72c1.227-0.373,2.24-0.561,3.04-0.561c0.906,0,1.732,0.147,2.48,0.44
			c0.746,0.294,1.12,1.16,1.12,2.6c0,0.748-0.188,1.76-0.561,3.04s-1.094,2.374-2.16,3.28c-0.907,0.747-1.747,1.24-2.52,1.479
			c-0.773,0.24-1.348,0.36-1.72,0.36c-0.268,0-0.48-0.16-0.641-0.48l0.801-1.76c0.426-0.96,0.666-1.666,0.72-2.12
			c0.053-0.452,0.08-0.813,0.08-1.08c0-0.586-0.12-1.012-0.36-1.279c-0.24-0.267-0.68-0.4-1.32-0.4c-1.707,0-3.427,0.654-5.159,1.96
			c-1.734,1.308-3.308,3-4.721,5.08s-2.573,4.414-3.479,7c-0.907,2.588-1.36,5.16-1.36,7.72c0,0.908,0.053,1.88,0.16,2.92
			c0.106,1.04,0.36,1.988,0.76,2.841c0.4,0.854,0.986,1.56,1.76,2.119c0.773,0.561,1.827,0.841,3.16,0.841
			c1.547,0,3.12-0.213,4.721-0.641c1.6-0.426,2.88-0.853,3.84-1.279c1.492-0.641,2.853-1.307,4.08-2
			c1.226-0.693,2.279-1.32,3.16-1.881c0.88-0.56,1.56-1.025,2.039-1.399c0.48-0.373,0.773-0.561,0.881-0.561
			c0.212,0,0.439,0.028,0.68,0.08C449.957,48.24,450.049,48.561,449.997,49.146z"/>
		<path fill="#8AB71B" d="M486.116,52.106c-1.733,1.068-3.72,2.294-5.96,3.681c-2.88,1.707-5.254,2.906-7.12,3.6
			c-1.867,0.692-3.253,1.04-4.159,1.04c-0.694,0-1.12-0.188-1.28-0.56c-0.16-0.374-0.24-0.774-0.24-1.2
			c0-0.532,0.106-1.293,0.32-2.28c0.212-0.986,0.492-2.08,0.84-3.28c0.346-1.199,0.72-2.466,1.12-3.8
			c0.399-1.332,0.786-2.64,1.16-3.92c0.266-0.96,0.52-1.826,0.76-2.6c0.24-0.772,0.439-1.453,0.6-2.04
			c0.213-0.641,0.4-1.227,0.561-1.76c-1.868,1.92-3.868,3.894-6,5.92c-1.814,1.707-3.868,3.627-6.16,5.76
			c-2.294,2.134-4.694,4.188-7.2,6.16c-1.067,0.854-1.974,1.427-2.72,1.72c-0.748,0.292-1.28,0.44-1.601,0.44
			c-1.067,0-1.6-0.747-1.6-2.24c0-0.373,0.026-0.772,0.08-1.2c0.053-0.427,0.173-0.96,0.36-1.6c0.186-0.641,0.439-1.427,0.76-2.36
			c0.319-0.933,0.772-2.12,1.359-3.561l4.32-10.96c0.8-2.025,1.467-3.8,2-5.319c0.532-1.521,1.013-2.732,1.44-3.641
			c0.426-0.906,0.946-1.68,1.56-2.319c0.612-0.641,1.253-1.16,1.92-1.561c0.666-0.399,1.307-0.692,1.92-0.88
			c0.612-0.187,1.106-0.28,1.48-0.28c0.372,0,0.56,0.294,0.56,0.881c-0.054,0.427-0.147,1.04-0.279,1.84
			c-0.134,0.8-0.494,1.894-1.08,3.279l-4.881,12.561c-0.159,0.479-0.399,1.107-0.72,1.88c-0.319,0.773-0.64,1.56-0.96,2.36
			c-0.32,0.8-0.587,1.507-0.8,2.12c-0.214,0.613-0.32,1-0.32,1.159c0,0.214,0.013,0.428,0.04,0.641
			c0.026,0.214,0.227,0.319,0.601,0.319c0.586,0,1.439-0.399,2.56-1.199c1.12-0.801,2.373-1.841,3.76-3.12
			c1.227-1.12,2.32-2.12,3.28-3s1.866-1.761,2.72-2.641c0.853-0.88,1.692-1.813,2.521-2.8c0.826-0.986,1.72-2.172,2.68-3.56
			c0.32-0.587,0.626-1.267,0.92-2.04c0.293-0.772,0.601-1.572,0.92-2.4c0.32-0.826,0.692-1.626,1.12-2.399
			c0.427-0.772,0.906-1.453,1.44-2.04c0.96-0.96,1.88-1.601,2.76-1.92c0.88-0.32,1.612-0.48,2.2-0.48c0.266,0,0.546,0.094,0.84,0.28
			c0.292,0.188,0.439,0.573,0.439,1.16c0,0.747-0.279,1.787-0.84,3.119c-0.56,1.334-1.613,3.068-3.16,5.2
			c-0.479,1.067-0.974,2.4-1.479,4c-0.508,1.601-1,3.174-1.48,4.721c-0.159,0.587-0.453,1.547-0.88,2.88s-0.84,2.693-1.239,4.08
			c-0.4,1.387-0.761,2.653-1.08,3.8c-0.32,1.147-0.48,1.827-0.48,2.04c0,0.907,0.293,1.359,0.88,1.359c1.013,0,2.08-0.199,3.2-0.6
			s2.293-0.92,3.521-1.56c1.226-0.641,2.466-1.36,3.72-2.16c1.252-0.801,2.492-1.601,3.72-2.4l0.72,0.96
			C489.169,50.135,487.849,51.041,486.116,52.106z"/>
		<path fill="#8AB71B" d="M544.436,50.026c-0.773,0.534-1.613,1.08-2.52,1.641c-0.908,0.56-1.814,1.107-2.721,1.64
			c-0.907,0.534-1.733,1.04-2.479,1.521c-2.987,1.813-5.468,3.054-7.44,3.72c-1.974,0.666-3.359,1-4.16,1
			c-0.64,0-1.027-0.254-1.159-0.76c-0.134-0.507-0.2-1-0.2-1.48c0-0.532,0.186-1.572,0.56-3.12c0.373-1.546,0.8-3.172,1.28-4.88
			c0.586-1.973,1.227-4.132,1.92-6.479l-0.24-0.08c-0.907,1.067-1.747,1.974-2.52,2.72c-0.774,0.747-1.641,1.534-2.601,2.36
			c-0.96,0.827-2.094,1.787-3.399,2.88c-1.308,1.094-2.948,2.468-4.92,4.12c-0.428,0.373-0.96,0.773-1.601,1.199
			c-0.64,0.428-1.294,0.814-1.96,1.16c-0.667,0.348-1.308,0.641-1.92,0.88c-0.613,0.24-1.08,0.36-1.399,0.36
			c-0.588,0-0.961-0.133-1.12-0.4c-0.16-0.266-0.24-0.666-0.24-1.199c0-0.96,0.32-2.507,0.96-4.641
			c0.64-2.132,1.546-5.199,2.72-9.199l1.12-3.841l-0.32-0.159c-0.213,0.267-0.587,0.76-1.119,1.479
			c-0.534,0.72-1.174,1.548-1.921,2.48c-0.747,0.934-1.533,1.907-2.359,2.92c-0.828,1.014-1.614,1.974-2.36,2.88
			c-1.707,2.027-3.228,3.64-4.56,4.84c-1.334,1.2-2.534,2.12-3.601,2.76c-1.067,0.641-2.014,1.067-2.84,1.28
			c-0.827,0.214-1.587,0.32-2.28,0.32c-1.228,0-2.054-0.413-2.479-1.24c-0.427-0.826-0.64-1.8-0.64-2.92
			c0-0.32,0.054-0.746,0.159-1.28c0.107-0.532,0.24-1.093,0.4-1.68s0.36-1.133,0.6-1.641c0.24-0.506,0.521-0.92,0.841-1.239
			c0.426-0.427,0.892-0.827,1.399-1.2c0.507-0.373,1.053-0.612,1.641-0.721c0,0.32,0,0.814,0,1.48c0,0.668,0.052,1.334,0.159,2
			c0.106,0.668,0.293,1.24,0.561,1.72c0.266,0.48,0.666,0.721,1.2,0.721c0.372,0,0.8-0.026,1.279-0.08
			c0.48-0.053,1.053-0.253,1.721-0.601c0.666-0.346,1.466-0.92,2.399-1.72c0.933-0.8,2.066-1.973,3.4-3.521
			c1.12-1.279,2.187-2.546,3.2-3.8c1.012-1.252,1.96-2.466,2.84-3.64c0.88-1.173,1.652-2.253,2.319-3.24
			c0.667-0.986,1.187-1.853,1.561-2.6c0.372-0.853,0.652-1.587,0.84-2.2c0.187-0.612,0.36-1.187,0.521-1.72
			c0.159-0.533,0.332-1.053,0.52-1.561c0.187-0.506,0.466-1.106,0.84-1.8c0.746-0.853,1.507-1.426,2.28-1.72
			c0.772-0.293,1.452-0.44,2.04-0.44c0.8,0,1.386,0.014,1.76,0.04c0.373,0.027,0.561,0.334,0.561,0.92
			c0,1.388-0.308,2.974-0.921,4.76c-0.613,1.788-1.399,3.614-2.359,5.48c-0.641,1.92-1.268,3.787-1.88,5.6
			c-0.614,1.814-1.134,3.428-1.561,4.841c-0.428,1.413-0.773,2.573-1.04,3.479c-0.268,0.907-0.399,1.44-0.399,1.6
			c0,0.268-0.014,0.521-0.04,0.761c-0.027,0.239,0.172,0.359,0.6,0.359c0.213,0,0.84-0.279,1.88-0.84
			c1.04-0.56,2.293-1.386,3.76-2.479c1.467-1.093,3.04-2.44,4.721-4.04c1.68-1.601,3.319-3.44,4.92-5.521
			c0.426-1.12,0.88-2.386,1.359-3.8c0.48-1.412,0.973-2.826,1.48-4.24c0.506-1.412,1.04-2.72,1.6-3.92
			c0.561-1.2,1.16-2.12,1.801-2.76c0.64-0.64,1.346-1.053,2.119-1.24c0.773-0.187,1.693-0.28,2.761-0.28
			c0.586,0,0.906,0.2,0.96,0.601c0.053,0.399,0.08,0.867,0.08,1.399c0,0.801-0.188,1.734-0.561,2.801
			c-0.373,1.067-0.827,2.147-1.359,3.239c-0.534,1.094-1.094,2.134-1.681,3.12c-0.587,0.988-1.094,1.801-1.52,2.44
			c-0.428,1.014-0.907,2.414-1.44,4.2c-0.533,1.787-1.067,3.573-1.6,5.359c-0.534,1.788-0.974,3.4-1.32,4.84
			c-0.348,1.44-0.52,2.32-0.52,2.641c0,0.533,0.012,1.014,0.04,1.439c0.026,0.428,0.492,0.641,1.399,0.641
			c0.587,0,1.387-0.213,2.4-0.641c1.013-0.426,2.133-0.986,3.359-1.68c1.227-0.692,2.507-1.452,3.841-2.28
			c1.332-0.826,2.612-1.64,3.84-2.439l0.72,0.96C545.862,49.041,545.208,49.494,544.436,50.026z"/>
		<path fill="#8AB71B" d="M573.796,55.707c-3.228,1.547-6.84,2.319-10.84,2.319c-1.12,0-2-0.105-2.641-0.319
			c-2.507,1.332-5.147,2-7.92,2c-0.96,0-1.894-0.147-2.8-0.44c-0.907-0.294-1.72-0.786-2.439-1.479
			c-0.721-0.692-1.294-1.601-1.721-2.721c-0.428-1.119-0.64-2.479-0.64-4.079c0-1.493,0.133-2.881,0.399-4.16
			c0.267-1.28,0.641-2.721,1.12-4.32c0.373-1.28,0.813-2.546,1.32-3.8c0.506-1.253,1.026-2.427,1.56-3.521
			c0.533-1.092,1.08-2.08,1.641-2.96c0.56-0.88,1.08-1.56,1.56-2.04c0.373-0.372,0.853-0.706,1.44-1
			c0.586-0.292,1.252-0.439,2-0.439c0.532,0,0.92,0.08,1.16,0.24c0.239,0.159,0.439,0.319,0.6,0.479h0.24
			c0.853-0.8,1.732-1.586,2.64-2.36c0.906-0.772,1.88-1.466,2.92-2.08c1.04-0.612,2.173-1.119,3.4-1.52c1.227-0.4,2.64-0.6,4.24-0.6
			c2.026,0,3.72,0.653,5.08,1.96c1.359,1.308,2.04,3.533,2.04,6.68c0,1.92-0.374,4.027-1.12,6.32
			c-0.748,2.293-1.788,4.547-3.12,6.76c-1.334,2.214-2.88,4.28-4.641,6.2c-1.76,1.92-3.68,3.493-5.76,4.72
			c0.053,0.054,0.32,0.12,0.8,0.2c0.48,0.08,1.146,0.12,2,0.12c2.293,0,4.893-0.627,7.801-1.88c2.906-1.253,5.88-3,8.92-5.24
			l0.72,0.96C580.342,52.16,577.022,54.16,573.796,55.707z M553.396,53.227c-0.613-1.226-1.027-2.492-1.239-3.8
			c-0.214-1.307-0.28-2.572-0.2-3.8c0.08-1.227,0.172-2.267,0.279-3.12h-0.239c-0.16,0.48-0.36,1.147-0.601,2
			c-0.239,0.854-0.413,2.188-0.52,4c-0.107,1.653,0.013,2.987,0.359,4c0.347,1.014,0.787,1.8,1.32,2.36
			c0.532,0.56,1.08,0.934,1.64,1.12c0.561,0.188,0.973,0.279,1.24,0.279h0.8C554.956,55.467,554.008,54.454,553.396,53.227z
			 M571.756,34.187c0-1.92-0.4-3.506-1.2-4.76c-0.8-1.252-2.214-1.88-4.24-1.88c-0.587,0-1.453,0.16-2.6,0.479
			c-1.147,0.32-2.174,0.854-3.08,1.601c-0.534,0.428-1.12,1.067-1.76,1.92c-0.641,0.854-1.254,1.894-1.84,3.12
			c-0.588,1.228-1.107,2.653-1.561,4.28s-0.76,3.427-0.92,5.399c0,0.48,0.013,1.24,0.04,2.28c0.026,1.04,0.227,2.134,0.6,3.28
			c0.373,1.147,0.986,2.213,1.841,3.199c0.853,0.988,2.105,1.614,3.76,1.881c1.706-0.853,3.24-2.093,4.6-3.721
			c1.36-1.626,2.507-3.412,3.44-5.359c0.933-1.946,1.652-3.96,2.16-6.04C571.502,37.787,571.756,35.895,571.756,34.187z"/>
	</g>
	<g>
		<path fill="#E80A60" d="M342.936,127.033c0,1.16-0.131,2.47-0.39,3.93c-0.261,1.461-0.61,2.97-1.051,4.53
			c-0.44,1.56-0.97,3.13-1.59,4.71s-1.311,3.07-2.07,4.47c-1.24,2.32-2.46,4.251-3.659,5.79c-1.2,1.54-2.351,2.76-3.45,3.66
			c-1.101,0.899-2.15,1.539-3.15,1.92c-1,0.38-1.94,0.569-2.819,0.569c-1.161,0-1.95-0.49-2.37-1.47s-0.63-2.229-0.63-3.75
			c0-1.08,0.149-2.28,0.449-3.6c0.301-1.32,0.67-2.59,1.11-3.811c0.439-1.22,0.879-2.34,1.32-3.359
			c0.439-1.021,0.819-1.771,1.14-2.25c1.399-2.28,2.7-4.1,3.9-5.46c1.199-1.359,2.139-2.04,2.819-2.04c0.44,0,0.721,0.13,0.84,0.39
			c0.12,0.261,0.181,0.75,0.181,1.47c0,0.801-0.23,1.761-0.69,2.88c-0.46,1.121-1.03,2.28-1.71,3.48
			c-0.681,1.2-1.41,2.38-2.189,3.54c-0.78,1.16-1.491,2.16-2.13,3c-0.041,0.4-0.081,0.78-0.12,1.14
			c-0.041,0.321-0.07,0.63-0.091,0.931c-0.021,0.3-0.029,0.53-0.029,0.689c0,0.72,0.009,1.36,0.029,1.92
			c0.021,0.561,0.091,1.041,0.211,1.44c0.119,0.4,0.319,0.7,0.6,0.899c0.279,0.201,0.68,0.301,1.2,0.301
			c0.439,0,0.93-0.1,1.47-0.301c0.54-0.199,1.119-0.619,1.74-1.26c0.619-0.64,1.31-1.55,2.069-2.729s1.561-2.75,2.4-4.71
			c0.52-1.2,0.95-2.47,1.29-3.811c0.34-1.34,0.609-2.64,0.81-3.899c0.2-1.261,0.34-2.41,0.421-3.45c0.079-1.04,0.119-1.84,0.119-2.4
			c0-2.84-0.21-5.22-0.63-7.14s-0.98-3.47-1.68-4.65c-0.7-1.179-1.49-2.029-2.37-2.55c-0.88-0.52-1.8-0.78-2.76-0.78
			c-0.521,0-1.021,0.021-1.5,0.061c-0.48,0.04-0.94,0.2-1.38,0.479c-0.641,0.4-1.05,0.75-1.23,1.05
			c-0.18,0.301-0.27,0.61-0.27,0.931s0.06,0.5,0.18,0.54s0.18,0.16,0.18,0.359c0,0.24-0.1,0.36-0.3,0.36
			c-0.16,0-0.359-0.15-0.6-0.45s-0.36-0.729-0.36-1.29c0-0.8,0.189-1.52,0.57-2.16c0.38-0.639,0.89-1.189,1.53-1.649
			c0.639-0.46,1.389-0.819,2.25-1.08c0.859-0.26,1.77-0.39,2.729-0.39c1.359,0,2.63,0.26,3.81,0.779c1.18,0.521,2.2,1.38,3.061,2.58
			c0.859,1.2,1.539,2.751,2.04,4.65C342.686,121.943,342.936,124.272,342.936,127.033z M330.995,134.173
			c-0.32,0-0.689,0.41-1.109,1.229c-0.42,0.82-0.831,1.751-1.23,2.79c-0.4,1.041-0.74,2.051-1.02,3.03
			c-0.28,0.98-0.441,1.631-0.48,1.95c0.32-0.319,0.66-0.77,1.021-1.35c0.359-0.58,0.72-1.19,1.08-1.83
			c0.359-0.64,0.68-1.29,0.96-1.95c0.279-0.66,0.499-1.25,0.659-1.771c0.16-0.56,0.32-1.05,0.48-1.47
			C331.515,134.383,331.395,134.173,330.995,134.173z"/>
		<path fill="#E80A60" d="M365.363,153.493c-2.421,1.16-5.13,1.739-8.13,1.739c-0.84,0-1.5-0.079-1.979-0.239
			c-1.881,0.999-3.861,1.5-5.94,1.5c-0.72,0-1.42-0.111-2.1-0.33c-0.681-0.221-1.29-0.59-1.83-1.11c-0.54-0.52-0.971-1.2-1.29-2.04
			c-0.321-0.84-0.48-1.86-0.48-3.06c0-1.12,0.1-2.16,0.3-3.12s0.48-2.04,0.841-3.24c0.279-0.96,0.609-1.91,0.989-2.85
			s0.77-1.82,1.17-2.641c0.399-0.819,0.811-1.56,1.23-2.22s0.81-1.17,1.17-1.53c0.279-0.279,0.64-0.529,1.08-0.75
			c0.439-0.219,0.939-0.33,1.5-0.33c0.399,0,0.689,0.061,0.87,0.181c0.18,0.12,0.33,0.239,0.45,0.359h0.18
			c0.64-0.6,1.299-1.189,1.979-1.77c0.68-0.579,1.41-1.1,2.19-1.561c0.78-0.459,1.629-0.84,2.55-1.14c0.92-0.3,1.98-0.45,3.18-0.45
			c1.521,0,2.79,0.49,3.811,1.47c1.02,0.981,1.53,2.65,1.53,5.011c0,1.439-0.28,3.021-0.841,4.739
			c-0.561,1.721-1.34,3.411-2.34,5.07c-1,1.66-2.16,3.21-3.479,4.65c-1.32,1.439-2.76,2.62-4.32,3.54
			c0.039,0.04,0.24,0.09,0.601,0.149c0.359,0.061,0.859,0.09,1.5,0.09c1.719,0,3.669-0.469,5.85-1.409
			c2.18-0.939,4.41-2.25,6.689-3.931l0.54,0.721C370.273,150.833,367.783,152.333,365.363,153.493z M350.063,151.633
			c-0.46-0.92-0.771-1.869-0.93-2.85c-0.161-0.98-0.21-1.93-0.15-2.851c0.06-0.92,0.13-1.699,0.21-2.34h-0.18
			c-0.12,0.36-0.271,0.86-0.45,1.5c-0.18,0.641-0.311,1.641-0.39,3c-0.081,1.24,0.009,2.24,0.27,3c0.26,0.761,0.59,1.35,0.99,1.77
			c0.399,0.421,0.81,0.701,1.229,0.841c0.42,0.141,0.729,0.21,0.931,0.21h0.6C351.233,153.313,350.522,152.554,350.063,151.633z
			 M363.833,137.353c0-1.439-0.3-2.63-0.899-3.569c-0.601-0.939-1.66-1.41-3.18-1.41c-0.441,0-1.091,0.12-1.95,0.359
			c-0.861,0.24-1.631,0.641-2.311,1.2c-0.4,0.32-0.84,0.801-1.319,1.44c-0.48,0.64-0.94,1.42-1.381,2.34
			c-0.44,0.921-0.83,1.99-1.17,3.21c-0.34,1.221-0.569,2.57-0.689,4.05c0,0.36,0.009,0.93,0.03,1.71
			c0.02,0.78,0.169,1.601,0.449,2.46c0.279,0.86,0.74,1.66,1.38,2.4s1.58,1.21,2.82,1.41c1.28-0.64,2.43-1.569,3.45-2.79
			c1.02-1.22,1.88-2.56,2.58-4.021c0.699-1.46,1.239-2.97,1.62-4.53C363.644,140.053,363.833,138.634,363.833,137.353z"/>
		<path fill="#E80A60" d="M469.261,147.133c-1.619,1.26-3.93,2.761-6.93,4.5c-1.62,0.96-3.015,1.771-4.185,2.43
			c-1.17,0.661-2.205,1.201-3.105,1.62c-0.899,0.419-1.695,0.72-2.385,0.9c-0.69,0.18-1.365,0.27-2.025,0.27
			c-0.78,0-1.395-0.15-1.845-0.45c-0.45-0.301-0.81-0.675-1.08-1.125c-0.27-0.449-0.45-0.974-0.54-1.574
			c-0.09-0.6-0.135-1.17-0.135-1.71c0-0.959,0.104-2.175,0.314-3.646c0.21-1.47,0.495-3.044,0.855-4.725
			c0.36-1.68,0.779-3.435,1.26-5.266c0.479-1.829,0.959-3.613,1.44-5.354c1.08-4.141,2.369-8.489,3.87-13.05l-0.45-0.271
			c-0.54,0.78-1.396,2.025-2.565,3.735s-2.475,3.57-3.915,5.58c-1.439,2.011-2.91,4.036-4.409,6.075
			c-1.501,2.04-2.881,3.779-4.141,5.22c-2.641,3.12-4.936,5.67-6.885,7.649c-1.95,1.98-3.69,3.541-5.22,4.681
			c-1.53,1.141-2.911,1.921-4.141,2.34c-1.23,0.42-2.385,0.63-3.465,0.63c-1.561,0-2.655-0.479-3.285-1.44
			c-0.63-0.959-0.944-2.279-0.944-3.96c0-0.959,0.225-1.903,0.675-2.835c0.45-0.929,0.944-1.724,1.484-2.385
			c0.479-0.659,1.125-1.184,1.936-1.575c0.81-0.39,1.544-0.704,2.205-0.944c0.059,0.48,0.104,1.034,0.135,1.665
			c0.029,0.63,0.135,1.215,0.315,1.755c0.18,0.54,0.479,1.005,0.899,1.395c0.419,0.392,0.99,0.585,1.71,0.585
			c0.9,0,1.83-0.18,2.79-0.54c0.959-0.359,2.025-0.989,3.195-1.89s2.489-2.115,3.96-3.646c1.47-1.529,3.195-3.465,5.175-5.805
			c1.92-2.34,3.765-4.709,5.535-7.11c1.769-2.398,3.359-4.664,4.77-6.795c1.409-2.129,2.624-4.034,3.646-5.715
			c1.02-1.679,1.769-2.938,2.25-3.779c0.419-1.319,0.9-2.85,1.439-4.591c0.54-1.739,1.11-3.465,1.711-5.175
			c0.599-1.71,1.215-3.33,1.845-4.859c0.63-1.53,1.244-2.715,1.845-3.556c1.499-1.739,2.864-2.894,4.095-3.465
			c1.229-0.569,2.235-0.854,3.016-0.854c0.479,0,0.778,0.12,0.899,0.359c0.12,0.24,0.181,0.69,0.181,1.351
			c0,0.6-0.196,1.516-0.585,2.744c-0.392,1.23-0.887,2.581-1.485,4.051c-0.601,1.471-1.23,3.015-1.89,4.635
			c-0.661,1.62-1.291,3.12-1.891,4.5c-0.54,1.201-1.17,2.925-1.89,5.175s-1.485,4.74-2.295,7.47
			c-0.811,2.731-1.606,5.535-2.385,8.415c-0.781,2.88-1.485,5.551-2.115,8.011c-0.63,2.461-1.141,4.575-1.53,6.345
			c-0.391,1.771-0.585,2.866-0.585,3.285c0,0.359-0.031,0.796-0.09,1.305c-0.061,0.511-0.031,1.021,0.09,1.53
			c0.119,0.51,0.345,0.944,0.675,1.305c0.329,0.36,0.914,0.54,1.755,0.54c1.92,0,4.244-0.81,6.976-2.43
			c2.729-1.62,5.715-3.601,8.955-5.94l0.63,1.08C472.261,144.764,470.881,145.873,469.261,147.133z"/>
		<path fill="#E80A60" d="M513.505,126.793c0,2.34-0.481,4.711-1.44,7.109c-0.96,2.401-2.221,4.696-3.78,6.886
			c-1.561,2.19-3.36,4.245-5.399,6.165c-2.041,1.921-4.141,3.586-6.3,4.995c-2.16,1.41-4.291,2.52-6.391,3.329
			c-2.101,0.811-4.021,1.216-5.76,1.216c-1.08,0-2.115-0.121-3.105-0.36c-0.989-0.24-1.89-0.72-2.699-1.44
			c-0.811-0.72-1.456-1.724-1.936-3.015c-0.48-1.289-0.72-2.984-0.72-5.085c0-2.759,0.495-5.954,1.485-9.585
			c0.989-3.63,2.114-7.185,3.375-10.665c1.26-3.479,2.488-6.615,3.689-9.405c1.199-2.79,2.01-4.725,2.43-5.805
			c1.319-3.479,2.354-6.149,3.105-8.01c0.75-1.859,1.35-3.254,1.8-4.186c0.45-0.93,0.84-1.604,1.17-2.024
			c0.329-0.419,0.766-0.9,1.306-1.44c0.899-1.02,2.069-1.904,3.51-2.655c1.439-0.749,2.669-1.125,3.689-1.125
			c0.36,0,0.54,0.271,0.54,0.811l-5.58,11.25c-0.72,1.5-1.561,3.315-2.52,5.445c-0.961,2.13-1.95,4.44-2.97,6.93
			c-1.021,2.49-2.025,5.085-3.016,7.785c-0.989,2.699-1.86,5.341-2.609,7.92c-0.751,2.58-1.366,5.025-1.846,7.335
			c-0.48,2.311-0.72,4.306-0.72,5.984c0,1.921,0.495,3.451,1.485,4.591s2.414,1.71,4.274,1.71c2.7,0,5.189-0.645,7.471-1.936
			c2.279-1.289,4.244-2.925,5.895-4.905c1.649-1.979,2.925-4.169,3.825-6.569c0.9-2.399,1.35-4.71,1.35-6.931
			c0-1.02-0.09-2.009-0.27-2.97c-0.18-0.959-0.495-1.829-0.945-2.609c-0.45-0.779-1.065-1.396-1.845-1.846
			c-0.78-0.45-1.8-0.675-3.061-0.675c-1.561,0-3.136,0.391-4.725,1.17c-1.591,0.78-3.075,1.771-4.455,2.97l-0.54-1.26
			c2.46-2.52,5.009-4.424,7.65-5.715c2.64-1.289,4.919-1.935,6.84-1.935c2.399,0,4.289,0.66,5.67,1.979
			C512.814,121.543,513.505,123.732,513.505,126.793z"/>
		<path fill="#E80A60" d="M563.696,101.232c0,1.261-0.42,2.521-1.26,3.78c-0.841,1.26-1.89,2.49-3.15,3.69
			c-1.26,1.2-2.625,2.34-4.095,3.42c-1.471,1.08-2.835,2.069-4.095,2.97s-2.311,1.71-3.15,2.43c-0.841,0.721-1.26,1.291-1.26,1.71
			c0,0.721,0.39,1.501,1.17,2.341c0.779,0.841,1.755,1.755,2.925,2.744c1.17,0.99,2.444,2.07,3.825,3.24
			c1.38,1.17,2.655,2.4,3.825,3.69c1.17,1.291,2.145,2.67,2.925,4.14c0.779,1.471,1.17,2.985,1.17,4.545
			c0,2.641-0.69,4.995-2.07,7.065c-1.381,2.069-3.226,3.811-5.534,5.22c-2.311,1.41-4.95,2.475-7.92,3.195
			c-2.971,0.72-6.075,1.08-9.315,1.08c-1.62,0-3.136-0.136-4.545-0.405c-1.41-0.271-2.7-0.6-3.87-0.99
			c-1.17-0.39-2.19-0.81-3.06-1.26c-0.871-0.45-1.546-0.824-2.025-1.125c-0.841,1.08-1.726,1.95-2.655,2.61
			c-0.931,0.659-1.995,0.989-3.194,0.989c-0.302,0-0.585-0.075-0.855-0.225c-0.27-0.15-0.405-0.376-0.405-0.675
			c0-0.36,0.075-0.811,0.226-1.351c0.148-0.54,0.314-1.109,0.495-1.71c0.18-0.599,0.374-1.184,0.585-1.755
			c0.209-0.569,0.374-1.004,0.495-1.305c-0.302-0.479-0.571-0.945-0.811-1.396c-0.24-0.449-0.36-1.184-0.36-2.205
			c0-0.778,0.149-1.379,0.45-1.8c0.3-0.419,0.645-0.72,1.035-0.899c0.39-0.181,0.779-0.271,1.17-0.271c0.39,0,0.675,0,0.855,0
			c1.56-4.8,3.119-9.54,4.68-14.22c0.659-1.98,1.38-4.064,2.16-6.255c0.779-2.189,1.575-4.365,2.385-6.525
			c0.811-2.16,1.62-4.26,2.43-6.3c0.811-2.039,1.604-3.929,2.386-5.67c1.02-1.499,1.979-2.61,2.88-3.33
			c0.899-0.72,1.71-1.229,2.43-1.53c0.84-0.3,1.62-0.419,2.34-0.359c-0.48,1.14-1.095,2.715-1.845,4.725
			c-0.751,2.011-1.575,4.275-2.475,6.795c-0.9,2.521-1.846,5.175-2.835,7.965c-0.99,2.79-1.936,5.535-2.835,8.235
			c-0.781,2.16-1.575,4.516-2.386,7.064c-0.81,2.552-1.545,4.905-2.205,7.065c-0.78,2.58-1.561,5.13-2.34,7.65
			c0.479,0.72,1.215,1.439,2.205,2.159c0.99,0.721,2.084,1.366,3.285,1.936c1.199,0.57,2.46,1.051,3.78,1.439
			c1.318,0.392,2.579,0.585,3.779,0.585c2.579,0,4.905-0.18,6.976-0.54c2.069-0.359,3.854-0.974,5.354-1.845
			c1.499-0.869,2.655-2.039,3.465-3.51c0.811-1.47,1.216-3.285,1.216-5.445c0-2.039-0.376-3.81-1.125-5.31
			c-0.751-1.499-1.651-2.835-2.7-4.005c-1.051-1.17-2.16-2.205-3.33-3.105c-1.17-0.899-2.205-1.739-3.105-2.52
			c-1.439-1.261-2.609-2.31-3.51-3.15c-0.899-0.84-1.35-1.829-1.35-2.97c0-0.84,0.225-1.575,0.675-2.205s0.99-1.199,1.62-1.71
			c0.63-0.509,1.273-0.959,1.935-1.351c0.66-0.389,1.229-0.733,1.71-1.034c2.88-1.92,5.279-3.81,7.2-5.67
			c1.92-1.859,2.88-4.051,2.88-6.57c0-2.819-0.81-4.845-2.43-6.075c-1.62-1.229-3.87-1.845-6.75-1.845
			c-3.78,0-7.65,0.735-11.61,2.205c-3.96,1.471-7.83,4.095-11.609,7.875c-0.721,0.72-1.201,1.426-1.44,2.114
			c-0.24,0.691-0.45,1.321-0.63,1.891c-0.18,0.57-0.391,1.035-0.63,1.395c-0.24,0.36-0.661,0.54-1.26,0.54
			c-0.661,0-1.246-0.074-1.756-0.225c-0.51-0.149-0.765-0.734-0.765-1.755c0-1.499,1.004-3.225,3.015-5.175
			c2.01-1.949,4.62-3.78,7.83-5.49c3.209-1.71,6.78-3.164,10.71-4.365c3.93-1.199,7.845-1.8,11.745-1.8c3.78,0,6.78,0.675,9,2.024
			C562.586,95.878,563.696,98.113,563.696,101.232z"/>
		<path fill="#E80A60" d="M621.026,107.713c0,1.8-0.136,3.841-0.405,6.12c-0.27,2.28-0.765,4.711-1.485,7.29
			c-0.72,2.58-1.726,5.28-3.015,8.1c-1.291,2.821-2.956,5.701-4.995,8.64c-4.14,5.94-8.716,10.651-13.725,14.131
			c-5.011,3.48-10.336,5.22-15.976,5.22c-2.28,0-4.229-0.45-5.85-1.351c-1.62-0.899-2.956-2.069-4.005-3.51
			c-1.051-1.439-1.831-3.06-2.34-4.859c-0.511-1.801-0.766-3.601-0.766-5.4c0-4.86,0.721-9.419,2.16-13.68
			c1.44-4.26,3.18-8.056,5.22-11.386c2.039-3.329,4.199-6.149,6.48-8.46c2.279-2.309,4.26-3.974,5.939-4.994
			c2.039-3.961,4.86-6.899,8.461-8.82c3.6-1.92,7.319-2.88,11.159-2.88c2.399,0,4.439,0.465,6.12,1.395
			c1.68,0.931,3.045,2.16,4.096,3.69c1.049,1.529,1.8,3.24,2.25,5.13C620.801,103.978,621.026,105.854,621.026,107.713z
			 M614.006,109.513c0-1.319-0.121-2.804-0.359-4.455c-0.241-1.649-0.721-3.195-1.44-4.635c-0.72-1.44-1.755-2.64-3.104-3.6
			c-1.351-0.96-3.137-1.44-5.355-1.44c-1.5,0-2.896,0.211-4.185,0.63c-1.291,0.421-2.431,0.976-3.421,1.665
			c-0.989,0.69-1.83,1.426-2.52,2.205c-0.69,0.78-1.215,1.53-1.575,2.25c1.62-1.02,3.435-1.859,5.445-2.521
			c2.01-0.659,3.704-0.989,5.085-0.989c1.26,0,2.174,0.075,2.745,0.225c0.569,0.15,0.854,0.526,0.854,1.125
			c0,0.481-0.211,0.72-0.63,0.72c-0.48,0-0.915-0.09-1.305-0.27c-0.391-0.18-0.945-0.271-1.665-0.271
			c-0.841,0-1.786,0.105-2.835,0.315c-1.051,0.211-2.115,0.526-3.195,0.945c-1.08,0.42-2.101,0.931-3.06,1.529
			c-0.961,0.601-1.8,1.261-2.521,1.98c-0.121,0.48-0.15,0.886-0.09,1.215c0.06,0.33,0.029,0.735-0.09,1.215
			c-0.18,0.601-0.556,0.99-1.125,1.17c-0.571,0.181-1.096,0.271-1.575,0.271c-0.42,0-0.675-0.21-0.765-0.63
			c-0.09-0.419-0.076-0.811,0.045-1.17c-1.141,1.26-2.355,2.744-3.646,4.455c-1.291,1.71-2.475,3.779-3.555,6.21
			c-1.08,2.43-1.979,5.265-2.7,8.505c-0.72,3.239-1.08,6.99-1.08,11.25c0,1.86,0.181,3.676,0.54,5.444
			c0.36,1.771,0.959,3.361,1.801,4.771c0.839,1.41,1.964,2.535,3.375,3.375c1.408,0.841,3.164,1.26,5.265,1.26
			c3.24,0,6.284-0.99,9.135-2.97c2.85-1.98,5.564-4.771,8.146-8.37c1.499-2.039,2.819-4.379,3.96-7.021
			c1.139-2.639,2.114-5.368,2.925-8.189c0.81-2.819,1.425-5.625,1.845-8.415C613.795,114.508,614.006,111.913,614.006,109.513z"/>
		<path fill="#E80A60" d="M672.722,101.232c0,1.261-0.42,2.521-1.26,3.78c-0.841,1.26-1.89,2.49-3.15,3.69
			c-1.26,1.2-2.625,2.34-4.095,3.42c-1.471,1.08-2.835,2.069-4.095,2.97s-2.311,1.71-3.15,2.43c-0.841,0.721-1.26,1.291-1.26,1.71
			c0,0.721,0.39,1.501,1.17,2.341c0.779,0.841,1.755,1.755,2.925,2.744c1.17,0.99,2.444,2.07,3.825,3.24
			c1.38,1.17,2.655,2.4,3.825,3.69c1.17,1.291,2.145,2.67,2.925,4.14c0.779,1.471,1.17,2.985,1.17,4.545
			c0,2.641-0.69,4.995-2.07,7.065c-1.381,2.069-3.226,3.811-5.534,5.22c-2.311,1.41-4.95,2.475-7.92,3.195
			c-2.971,0.72-6.075,1.08-9.315,1.08c-1.62,0-3.136-0.136-4.545-0.405c-1.41-0.271-2.7-0.6-3.87-0.99
			c-1.17-0.39-2.19-0.81-3.06-1.26c-0.871-0.45-1.546-0.824-2.025-1.125c-0.841,1.08-1.726,1.95-2.655,2.61
			c-0.931,0.659-1.995,0.989-3.194,0.989c-0.302,0-0.585-0.075-0.855-0.225c-0.27-0.15-0.405-0.376-0.405-0.675
			c0-0.36,0.075-0.811,0.226-1.351c0.148-0.54,0.314-1.109,0.495-1.71c0.18-0.599,0.374-1.184,0.585-1.755
			c0.209-0.569,0.374-1.004,0.495-1.305c-0.302-0.479-0.571-0.945-0.811-1.396c-0.24-0.449-0.36-1.184-0.36-2.205
			c0-0.778,0.149-1.379,0.45-1.8c0.3-0.419,0.645-0.72,1.035-0.899c0.39-0.181,0.779-0.271,1.17-0.271c0.39,0,0.675,0,0.855,0
			c1.56-4.8,3.119-9.54,4.68-14.22c0.659-1.98,1.38-4.064,2.16-6.255c0.779-2.189,1.575-4.365,2.385-6.525
			c0.811-2.16,1.62-4.26,2.43-6.3c0.811-2.039,1.604-3.929,2.386-5.67c1.02-1.499,1.979-2.61,2.88-3.33
			c0.899-0.72,1.71-1.229,2.43-1.53c0.84-0.3,1.62-0.419,2.34-0.359c-0.48,1.14-1.095,2.715-1.845,4.725
			c-0.751,2.011-1.575,4.275-2.475,6.795c-0.9,2.521-1.846,5.175-2.835,7.965c-0.99,2.79-1.936,5.535-2.835,8.235
			c-0.781,2.16-1.575,4.516-2.386,7.064c-0.81,2.552-1.545,4.905-2.205,7.065c-0.78,2.58-1.561,5.13-2.34,7.65
			c0.479,0.72,1.215,1.439,2.205,2.159c0.99,0.721,2.084,1.366,3.285,1.936c1.199,0.57,2.46,1.051,3.78,1.439
			c1.318,0.392,2.579,0.585,3.779,0.585c2.579,0,4.905-0.18,6.976-0.54c2.069-0.359,3.854-0.974,5.354-1.845
			c1.499-0.869,2.655-2.039,3.465-3.51c0.811-1.47,1.216-3.285,1.216-5.445c0-2.039-0.376-3.81-1.125-5.31
			c-0.751-1.499-1.651-2.835-2.7-4.005c-1.051-1.17-2.16-2.205-3.33-3.105c-1.17-0.899-2.205-1.739-3.105-2.52
			c-1.439-1.261-2.609-2.31-3.51-3.15c-0.899-0.84-1.35-1.829-1.35-2.97c0-0.84,0.225-1.575,0.675-2.205s0.99-1.199,1.62-1.71
			c0.63-0.509,1.273-0.959,1.935-1.351c0.66-0.389,1.229-0.733,1.71-1.034c2.88-1.92,5.279-3.81,7.2-5.67
			c1.92-1.859,2.88-4.051,2.88-6.57c0-2.819-0.81-4.845-2.43-6.075c-1.62-1.229-3.87-1.845-6.75-1.845
			c-3.78,0-7.65,0.735-11.61,2.205c-3.96,1.471-7.83,4.095-11.609,7.875c-0.721,0.72-1.201,1.426-1.44,2.114
			c-0.24,0.691-0.45,1.321-0.63,1.891c-0.18,0.57-0.391,1.035-0.63,1.395c-0.24,0.36-0.661,0.54-1.26,0.54
			c-0.661,0-1.246-0.074-1.756-0.225c-0.51-0.149-0.765-0.734-0.765-1.755c0-1.499,1.004-3.225,3.015-5.175
			c2.01-1.949,4.62-3.78,7.83-5.49c3.209-1.71,6.78-3.164,10.71-4.365c3.93-1.199,7.845-1.8,11.745-1.8c3.78,0,6.78,0.675,9,2.024
			C671.611,95.878,672.722,98.113,672.722,101.232z"/>
		<path fill="#E80A60" d="M729.367,94.573c0,0.66-0.48,2.385-1.44,5.175s-2.19,6.495-3.689,11.114
			c-0.421,1.201-0.886,2.581-1.396,4.141c-0.51,1.561-1.034,3.181-1.574,4.859c-0.54,1.681-1.08,3.406-1.62,5.176
			c-0.54,1.771-1.051,3.465-1.53,5.085c0.72,0.061,1.784,0.09,3.195,0.09c1.409,0,2.624,0.061,3.645,0.18
			c-0.54,1.08-1.471,1.86-2.79,2.34c-1.32,0.481-2.97,0.811-4.95,0.99c-0.48,1.681-0.931,3.301-1.35,4.86
			c-0.36,1.381-0.751,2.82-1.17,4.319c-0.421,1.501-0.78,2.851-1.08,4.051c-0.661,2.461-1.426,4.155-2.295,5.085
			c-0.87,0.931-1.905,1.395-3.105,1.395c-0.72,0-1.41-0.435-2.069-1.305c-0.661-0.869-1.336-1.92-2.025-3.15
			c-0.69-1.229-1.395-2.504-2.115-3.825c-0.72-1.318-1.471-2.398-2.25-3.239c-1.921-2.1-3.734-3.465-5.444-4.096
			c-1.71-0.63-3.076-1.004-4.096-1.125c-0.42,0.661-1.05,1.636-1.89,2.926c-0.841,1.291-1.755,2.715-2.745,4.274
			c-0.99,1.562-2.04,3.15-3.149,4.771c-1.111,1.62-2.146,3.091-3.105,4.41c-0.96,1.32-1.831,2.415-2.61,3.284
			c-0.78,0.869-1.32,1.335-1.619,1.396c-0.842-0.121-1.351-0.256-1.53-0.405c-0.18-0.15-0.271-0.675-0.271-1.575
			c0-0.659,0.435-1.813,1.306-3.465c0.869-1.649,1.89-3.449,3.06-5.399c1.17-1.949,2.37-3.9,3.601-5.851
			c1.229-1.949,2.234-3.584,3.015-4.905c-0.72-0.059-1.426-0.014-2.115,0.136c-0.69,0.15-1.726,0.225-3.104,0.225
			c-1.562,0-2.521-0.225-2.881-0.675c-0.359-0.45-0.539-1.125-0.539-2.025c0-1.379,0.63-2.34,1.89-2.88s2.849-0.84,4.77-0.899
			c0.9,0,1.891-0.015,2.971-0.046c1.08-0.029,2.159-0.014,3.239,0.046c2.341-3.061,5.04-6.27,8.101-9.631
			c3.06-3.359,6.255-6.659,9.585-9.899s6.705-6.33,10.125-9.271c3.42-2.938,6.66-5.52,9.72-7.739c0.12-0.06,0.271-0.12,0.45-0.181
			c0.36-0.119,0.779-0.18,1.26-0.18C728.827,93.133,729.367,93.613,729.367,94.573z M712.987,105.553
			c-3.541,3.12-7.276,6.811-11.205,11.07c-3.931,4.261-7.636,8.79-11.115,13.59h0.63c1.859-2.16,3.93-4.56,6.21-7.2
			c1.92-2.219,4.215-4.814,6.886-7.785c2.669-2.97,5.594-6.165,8.774-9.585L712.987,105.553z M720.638,100.243
			c-0.9,0.78-2.205,2.011-3.915,3.689c-1.71,1.681-3.69,3.796-5.94,6.345c-2.25,2.552-4.74,5.521-7.47,8.91
			c-2.731,3.391-5.566,7.155-8.505,11.295c2.459-0.119,5.175-0.135,8.145-0.045s5.685,0.076,8.146-0.045
			c0.839-2.7,1.874-5.909,3.104-9.63c1.229-3.72,2.444-7.439,3.646-11.16c1.079-3.299,1.813-5.58,2.204-6.84
			C720.441,101.503,720.638,100.663,720.638,100.243z M710.287,134.442c-1.201,0-2.16,0.016-2.88,0.045
			c-0.72,0.031-1.395,0.046-2.025,0.046c-0.63,0-1.336,0-2.114,0c-0.781,0-1.831-0.06-3.15-0.181c1.08,0.721,2.129,1.471,3.15,2.25
			c0.839,0.661,1.724,1.426,2.654,2.295c0.93,0.871,1.695,1.755,2.295,2.655c0.12-0.239,0.21-0.419,0.271-0.54
			c0.059-0.119,0.149-0.374,0.27-0.765c0.12-0.39,0.284-1.02,0.495-1.891C709.462,137.488,709.807,136.184,710.287,134.442z"/>
		<path fill="#E80A60" d="M736.847,151.453c-0.181,1.439-0.751,2.745-1.71,3.915c-0.961,1.17-2.371,1.755-4.23,1.755
			c-1.26,0-2.115-0.256-2.564-0.766c-0.45-0.51-0.585-1.515-0.405-3.015c0.3-1.92,0.885-3.42,1.755-4.5
			c0.869-1.08,2.385-1.62,4.545-1.62c1.319,0,2.129,0.36,2.43,1.08C736.966,149.022,737.026,150.073,736.847,151.453z
			 M758.717,91.513c-0.601,1.32-1.201,2.671-1.801,4.05c-0.48,1.201-1.005,2.461-1.574,3.78c-0.571,1.32-1.066,2.551-1.485,3.69
			c-0.481,1.26-0.886,2.34-1.215,3.239c-0.331,0.9-0.646,1.786-0.945,2.655c-0.301,0.87-0.63,1.771-0.99,2.7
			c-0.359,0.931-0.78,2.024-1.26,3.285c-2.281,6.18-4.335,11.295-6.165,15.345c-1.831,4.05-3.255,6.945-4.274,8.685
			c-1.08,1.861-2.131,2.79-3.15,2.79c-1.08,0-1.561-0.479-1.44-1.439c0-0.239,0.3-1.229,0.9-2.97c0.599-1.74,1.35-3.885,2.25-6.436
			c0.9-2.55,1.904-5.369,3.015-8.46c1.109-3.09,2.205-6.089,3.285-9c1.08-2.909,2.055-5.58,2.925-8.01
			c0.869-2.431,1.544-4.305,2.025-5.625c0.84-2.279,1.544-3.975,2.115-5.085c0.569-1.109,1.125-1.904,1.665-2.385
			c0.359-0.3,0.704-0.57,1.035-0.811c0.328-0.239,0.944-0.45,1.845-0.63c0.359-0.06,0.765-0.09,1.215-0.09s0.945-0.029,1.485-0.09
			C758.415,90.703,758.596,90.973,758.717,91.513z"/>
	</g>
</g>
</svg>
