<?xml version="1.0" encoding="utf-8"?>
<!-- Generator: Adobe Illustrator 16.0.3, SVG Export Plug-In . SVG Version: 6.00 Build 0)  -->
<!DOCTYPE svg PUBLIC "-//W3C//DTD SVG 1.1//EN" "http://www.w3.org/Graphics/SVG/1.1/DTD/svg11.dtd">
<svg version="1.1" id="Layer_1" xmlns="http://www.w3.org/2000/svg" xmlns:xlink="http://www.w3.org/1999/xlink" x="0px" y="0px"
	 width="128px" height="128px" viewBox="0 0 128 128" enable-background="new 0 0 128 128" xml:space="preserve">
<path fill="#444953" d="M128,25c0-13.807-11.193-25-25.002-25H25.002C11.194,0,0,11.193,0,25v78c0,13.807,11.194,25,25.002,25
	h77.996C116.807,128,128,116.807,128,103V25z"/>
<g>
	<g>
		<defs>
			<path id="SVGID_1_" d="M128,25c0-13.807-11.193-25-25.002-25H25.002C11.194,0,0,11.193,0,25v78c0,13.807,11.194,25,25.002,25
				h77.996C116.807,128,128,116.807,128,103V25z"/>
		</defs>
		<clipPath id="SVGID_2_">
			<use xlink:href="#SVGID_1_"  overflow="visible"/>
		</clipPath>
		<path clip-path="url(#SVGID_2_)" fill="#353A42" enable-background="new    " d="M111.268,92H108V77.036
			c0-0.027,0.18-0.06,0.206-0.087c0.044-0.041,0.147-0.082,0.188-0.125c0.043-0.041,0.117-0.082,0.155-0.125
			c0.046-0.041,0.103-0.082,0.142-0.125c0.045-0.041,0.094-0.082,0.134-0.125c0.044-0.041,0.089-0.082,0.129-0.125
			c0.044-0.041,0.087-0.082,0.127-0.125c0.044-0.041,0.086-0.082,0.126-0.125c0.044-0.041,0.085-0.082,0.125-0.125
			c0.043-0.04,0.085-0.081,0.125-0.124c0.044-0.041,0.086-0.082,0.127-0.126c0.043-0.041,0.084-0.082,0.125-0.125
			c0.043-0.041,0.084-0.082,0.125-0.125c0.043-0.041,0.084-0.082,0.125-0.125c0.043-0.041,0.084-0.082,0.125-0.125
			c0.043-0.041,0.084-0.082,0.125-0.125c0.043-0.041,0.084-0.082,0.125-0.125c0.043-0.041,0.084-0.082,0.125-0.125
			c0.043-0.04,0.084-0.081,0.124-0.124c0.044-0.041,0.085-0.083,0.126-0.126c0.043-0.041,0.085-0.082,0.125-0.125
			c0.043-0.041,0.085-0.082,0.125-0.125c0.043-0.041,0.085-0.082,0.125-0.125c0.043-0.041,0.085-0.082,0.125-0.125
			c0.043-0.041,0.085-0.082,0.125-0.125c0.043-0.041,0.085-0.082,0.125-0.125c0.043-0.041,0.085-0.082,0.125-0.125
			c0.043-0.041,0.085-0.082,0.125-0.125c0.043-0.041,0.085-0.082,0.125-0.125c0.043-0.04,0.085-0.082,0.125-0.125
			c0.043-0.041,0.085-0.082,0.125-0.125c0.043-0.041,0.085-0.082,0.125-0.125c0.043-0.041,0.085-0.082,0.125-0.125
			c0.043-0.041,0.085-0.082,0.125-0.125c0.043-0.041,0.085-0.082,0.125-0.125c0.043-0.041,0.085-0.082,0.125-0.125
			c0.043-0.041,0.085-0.082,0.125-0.125c0.043-0.041,0.085-0.082,0.125-0.125c0.488-0.457,0.8-1.104,0.8-1.824
			c0-1.376-1.114-2.5-2.491-2.5H88V21H40L0,61v1h-1v1h-1v1h-1v1h-1v22.557c-0.042,0.039-0.081,0.078-0.119,0.119
			c-0.043,0.041-0.084,0.082-0.125,0.125c-0.043,0.041-0.084,0.081-0.125,0.125c-0.043,0.04-0.085,0.082-0.126,0.125
			c-0.043,0.041-0.084,0.082-0.125,0.125c-0.043,0.041-0.084,0.082-0.125,0.125c-0.043,0.041-0.084,0.082-0.125,0.125
			c-0.043,0.041-0.084,0.082-0.125,0.125c-0.043,0.041-0.084,0.082-0.125,0.125c-0.043,0.041-0.084,0.082-0.125,0.125
			c-0.043,0.041-0.084,0.082-0.125,0.125c-0.043,0.041-0.084,0.082-0.125,0.125c-0.043,0.04-0.085,0.082-0.125,0.125
			c-0.043,0.041-0.084,0.082-0.125,0.125c-0.043,0.041-0.084,0.082-0.125,0.125c-0.043,0.041-0.084,0.082-0.125,0.125
			c-0.043,0.041-0.084,0.082-0.125,0.125c-0.043,0.041-0.084,0.082-0.125,0.125c-0.043,0.041-0.084,0.082-0.125,0.125
			c-0.043,0.041-0.084,0.082-0.125,0.125c-0.043,0.041-0.084,0.082-0.125,0.125c-0.043,0.041-0.084,0.082-0.125,0.125
			c-0.043,0.041-0.084,0.082-0.125,0.125c-0.043,0.041-0.084,0.082-0.125,0.125c-0.043,0.041-0.084,0.082-0.125,0.125
			c-0.043,0.041-0.084,0.082-0.125,0.125c-0.043,0.041-0.084,0.082-0.125,0.125c-0.043,0.041-0.084,0.082-0.125,0.125
			c-0.043,0.041-0.084,0.082-0.125,0.125c-0.043,0.041-0.084,0.082-0.125,0.125c-0.043,0.041-0.084,0.082-0.125,0.125
			c-0.043,0.041-0.084,0.082-0.125,0.125c-0.043,0.041-0.084,0.082-0.125,0.125c-0.043,0.041-0.084,0.082-0.125,0.125
			c-0.043,0.041-0.084,0.082-0.125,0.125c-0.043,0.041-0.084,0.082-0.125,0.125c-0.043,0.041-0.084,0.082-0.125,0.125
			c-0.043,0.041-0.084,0.082-0.125,0.125c-0.043,0.041-0.084,0.082-0.125,0.125c-0.043,0.041-0.084,0.082-0.125,0.125
			c-0.043,0.041-0.084,0.082-0.125,0.125c-0.043,0.041-0.084,0.082-0.125,0.125c-0.043,0.041-0.084,0.082-0.125,0.125
			c-0.043,0.041-0.084,0.081-0.125,0.125c-0.043,0.04-0.085,0.082-0.126,0.125c-0.043,0.041-0.084,0.082-0.125,0.125
			c-0.043,0.041-0.084,0.082-0.125,0.125c-0.043,0.041-0.084,0.082-0.125,0.125c-0.043,0.041-0.084,0.082-0.125,0.125
			c-0.043,0.041-0.084,0.082-0.125,0.125c-0.043,0.041-0.084,0.082-0.125,0.125c-0.043,0.041-0.084,0.082-0.125,0.125
			c-0.043,0.041-0.084,0.082-0.125,0.125c-0.043,0.04-0.085,0.082-0.125,0.125c-0.043,0.041-0.085,0.082-0.125,0.125
			c-0.043,0.041-0.085,0.082-0.125,0.125c-0.043,0.041-0.085,0.082-0.125,0.125c-0.043,0.041-0.085,0.082-0.125,0.125
			c-0.043,0.041-0.085,0.082-0.125,0.125c-0.043,0.041-0.085,0.082-0.125,0.125c-0.043,0.041-0.085,0.082-0.125,0.125
			c-0.043,0.041-0.085,0.082-0.125,0.125c-0.043,0.041-0.085,0.082-0.125,0.125c-0.043,0.041-0.084,0.082-0.125,0.125
			c-0.043,0.041-0.084,0.082-0.125,0.125c-0.043,0.041-0.084,0.082-0.125,0.125c-0.043,0.041-0.084,0.082-0.125,0.125
			c-0.043,0.041-0.084,0.082-0.125,0.125c-0.043,0.041-0.084,0.082-0.125,0.125c-0.043,0.041-0.084,0.082-0.125,0.125
			c-0.043,0.041-0.084,0.082-0.125,0.125c-0.043,0.041-0.084,0.082-0.125,0.125c-0.043,0.041-0.084,0.082-0.125,0.125
			c-0.043,0.041-0.084,0.082-0.125,0.125c-0.043,0.041-0.084,0.082-0.125,0.125c-0.043,0.041-0.084,0.082-0.125,0.125
			c-0.165,0.154-0.308,0.33-0.426,0.524c-0.025,0.007-0.049,0.013-0.074,0.038c-0.043,0.041-0.084,0.051-0.125,0.094
			c-0.043,0.041-0.084,0.066-0.125,0.109c-0.043,0.041-0.084,0.074-0.125,0.117c-0.043,0.041-0.084,0.078-0.125,0.121
			c-0.043,0.041-0.084,0.078-0.125,0.122c-0.043,0.04-0.085,0.081-0.126,0.124c-0.043,0.041-0.084,0.081-0.125,0.124
			c-0.043,0.041-0.084,0.082-0.125,0.125c-0.043,0.041-0.084,0.082-0.125,0.125c-0.043,0.041-0.084,0.082-0.125,0.125
			c-0.043,0.041-0.084,0.082-0.125,0.125c-0.043,0.041-0.084,0.082-0.125,0.125c-0.043,0.041-0.084,0.082-0.125,0.125
			c-0.043,0.041-0.084,0.082-0.125,0.125c-0.043,0.04-0.085,0.082-0.125,0.125c-0.043,0.041-0.084,0.082-0.125,0.125
			c-0.043,0.041-0.084,0.082-0.125,0.125c-0.043,0.041-0.084,0.082-0.125,0.125c-0.043,0.041-0.084,0.082-0.125,0.125
			c-0.043,0.041-0.084,0.082-0.125,0.125c-0.043,0.041-0.084,0.082-0.125,0.125c-0.043,0.041-0.084,0.082-0.125,0.125
			c-0.043,0.041-0.084,0.082-0.125,0.125c-0.043,0.041-0.084,0.082-0.125,0.125c-0.043,0.041-0.084,0.082-0.125,0.125
			c-0.043,0.041-0.084,0.082-0.125,0.125c-0.043,0.041-0.084,0.082-0.125,0.125c-0.043,0.041-0.084,0.082-0.125,0.125
			c-0.043,0.041-0.084,0.082-0.125,0.125c-0.043,0.041-0.084,0.082-0.125,0.125c-0.043,0.041-0.084,0.082-0.125,0.125
			c-0.043,0.041-0.084,0.082-0.125,0.125c-0.043,0.041-0.084,0.082-0.125,0.125c-0.043,0.041-0.084,0.082-0.125,0.125
			c-0.043,0.041-0.084,0.082-0.125,0.125c-0.043,0.041-0.084,0.082-0.125,0.125c-0.043,0.041-0.084,0.082-0.125,0.125
			c-0.043,0.041-0.084,0.082-0.125,0.125c-0.043,0.041-0.084,0.082-0.125,0.125c-0.043,0.041-0.084,0.082-0.125,0.125
			c-0.043,0.041-0.084,0.082-0.125,0.125c-0.043,0.041-0.084,0.082-0.125,0.125c-0.043,0.041-0.084,0.082-0.125,0.125
			c-0.043,0.041-0.084,0.082-0.125,0.125c-0.043,0.041-0.084,0.082-0.125,0.125c-0.043,0.041-0.084,0.081-0.125,0.125
			c-0.043,0.04-0.085,0.082-0.126,0.125c-0.043,0.041-0.084,0.082-0.125,0.125c-0.043,0.041-0.084,0.082-0.125,0.125
			c-0.043,0.041-0.084,0.082-0.125,0.125c-0.043,0.041-0.084,0.082-0.125,0.125c-0.043,0.041-0.084,0.082-0.125,0.125
			c-0.043,0.041-0.084,0.082-0.125,0.125c-0.043,0.041-0.084,0.082-0.125,0.125c-0.043,0.041-0.084,0.082-0.125,0.125
			c-0.043,0.04-0.085,0.082-0.125,0.125c-0.043,0.041-0.085,0.082-0.125,0.125c-0.043,0.041-0.085,0.082-0.125,0.125
			c-0.043,0.041-0.085,0.082-0.125,0.125c-0.043,0.041-0.085,0.082-0.125,0.125c-0.043,0.041-0.085,0.082-0.125,0.125
			c-0.043,0.041-0.085,0.082-0.125,0.125c-0.043,0.041-0.085,0.082-0.125,0.125c-0.043,0.041-0.085,0.082-0.125,0.125
			c-0.043,0.041-0.085,0.082-0.125,0.125c-0.043,0.041-0.084,0.082-0.125,0.125c-0.043,0.041-0.084,0.082-0.125,0.125
			c-0.043,0.041-0.084,0.082-0.125,0.125c-0.043,0.041-0.084,0.082-0.125,0.125c-0.043,0.041-0.084,0.082-0.125,0.125
			c-0.043,0.041-0.084,0.082-0.125,0.125c-0.043,0.041-0.084,0.082-0.125,0.125c-0.043,0.041-0.084,0.082-0.125,0.125
			c-0.043,0.041-0.084,0.082-0.125,0.125c-0.043,0.041-0.084,0.082-0.125,0.125c-0.043,0.041-0.084,0.082-0.125,0.125
			c-0.043,0.041-0.084,0.082-0.125,0.125c-0.043,0.041-0.084,0.082-0.125,0.125c-0.043,0.041-0.084,0.082-0.125,0.125
			c-0.043,0.041-0.084,0.082-0.125,0.125c-0.043,0.041-0.084,0.082-0.125,0.125c-0.043,0.041-0.084,0.082-0.125,0.125
			c-0.043,0.041-0.084,0.082-0.125,0.125c-0.043,0.041-0.084,0.082-0.125,0.125c-0.043,0.041-0.084,0.082-0.125,0.125
			c-0.043,0.041-0.084,0.082-0.125,0.125c-0.043,0.041-0.084,0.081-0.125,0.125c-0.043,0.04-0.085,0.082-0.126,0.125
			c-0.043,0.041-0.084,0.082-0.125,0.125c-0.043,0.041-0.084,0.082-0.125,0.125c-0.043,0.041-0.084,0.082-0.125,0.125
			c-0.043,0.041-0.084,0.082-0.125,0.125c-0.043,0.041-0.084,0.082-0.125,0.125c-0.043,0.041-0.084,0.082-0.125,0.125
			c-0.043,0.041-0.084,0.082-0.125,0.125c-0.043,0.04-0.085,0.082-0.125,0.125c-0.043,0.041-0.084,0.082-0.125,0.125
			c-0.043,0.041-0.084,0.082-0.125,0.125c-0.043,0.041-0.084,0.082-0.125,0.125c-0.043,0.041-0.084,0.082-0.125,0.125
			c-0.043,0.041-0.084,0.082-0.125,0.125c-0.043,0.041-0.084,0.082-0.125,0.125c-0.043,0.041-0.084,0.082-0.125,0.125
			c-0.043,0.041-0.084,0.082-0.125,0.125c-0.043,0.041-0.084,0.082-0.125,0.125c-0.043,0.041-0.084,0.082-0.125,0.125
			c-0.043,0.041-0.084,0.082-0.125,0.125c-0.043,0.041-0.084,0.082-0.125,0.125c-0.043,0.041-0.084,0.082-0.125,0.125
			c-0.043,0.041-0.084,0.082-0.125,0.125c-0.043,0.041-0.084,0.082-0.125,0.125c-0.043,0.041-0.084,0.082-0.125,0.125
			c-0.043,0.041-0.084,0.082-0.125,0.125c-0.043,0.041-0.084,0.082-0.125,0.125c-0.043,0.041-0.084,0.082-0.125,0.125
			c-0.043,0.041-0.084,0.082-0.125,0.125c-0.043,0.041-0.084,0.082-0.125,0.125c-0.043,0.041-0.084,0.082-0.125,0.125
			c-0.043,0.041-0.084,0.082-0.125,0.125c-0.489,0.457-0.8,1.229-0.8,1.949c0,1.376,1.116,2.625,2.492,2.625H-24v14.312
			c0,0.037-0.205,0.075-0.242,0.114c-0.043,0.041-0.149,0.082-0.189,0.125c-0.043,0.041-0.117,0.082-0.157,0.125
			c-0.043,0.041-0.101,0.082-0.141,0.125c-0.043,0.041-0.092,0.081-0.132,0.125c-0.043,0.04-0.09,0.082-0.13,0.125
			c-0.043,0.041-0.086,0.082-0.127,0.125c-0.043,0.041-0.085,0.082-0.126,0.125c-0.043,0.041-0.085,0.082-0.125,0.125
			c-0.043,0.041-0.084,0.082-0.125,0.125c-0.043,0.041-0.085,0.082-0.125,0.125c-0.043,0.041-0.084,0.082-0.125,0.125
			c-0.043,0.041-0.084,0.082-0.125,0.125c-0.043,0.04-0.085,0.082-0.125,0.125c-0.043,0.041-0.084,0.082-0.125,0.125
			c-0.043,0.041-0.084,0.082-0.125,0.125c-0.043,0.041-0.084,0.082-0.125,0.125c-0.043,0.041-0.084,0.082-0.125,0.125
			c-0.043,0.041-0.084,0.082-0.125,0.125c-0.043,0.041-0.084,0.082-0.125,0.125c-0.043,0.041-0.084,0.082-0.125,0.125
			c-0.043,0.041-0.084,0.082-0.125,0.125c-0.043,0.041-0.084,0.082-0.125,0.125c-0.043,0.041-0.084,0.082-0.125,0.125
			c-0.043,0.041-0.084,0.082-0.125,0.125c-0.043,0.041-0.084,0.082-0.125,0.125c-0.043,0.041-0.084,0.082-0.125,0.125
			c-0.043,0.041-0.084,0.082-0.125,0.125c-0.043,0.041-0.084,0.082-0.125,0.125c-0.043,0.041-0.084,0.082-0.125,0.125
			c-0.043,0.041-0.084,0.082-0.125,0.125c-0.043,0.041-0.084,0.082-0.125,0.125c-0.043,0.041-0.084,0.082-0.125,0.125
			c-0.043,0.041-0.084,0.082-0.125,0.125c-0.043,0.041-0.084,0.082-0.125,0.125c-0.043,0.041-0.084,0.082-0.125,0.125
			c-0.043,0.041-0.084,0.082-0.125,0.125c-0.489,0.457-0.8,0.979-0.8,1.699c0,1.377,1.116,2.375,2.492,2.375h94.693
			c0.719,0,1.361-0.187,1.816-0.676c0.043-0.041,0.085-0.021,0.125-0.063c0.043-0.039,0.084-0.05,0.124-0.093
			c0.044-0.041,0.086-0.065,0.126-0.11c0.043-0.039,0.085-0.074,0.125-0.117c0.043-0.039,0.085-0.078,0.125-0.121
			c0.043-0.039,0.085-0.079,0.125-0.123c0.043-0.039,0.085-0.08,0.125-0.123c0.043-0.04,0.085-0.081,0.125-0.124
			c0.043-0.041,0.085-0.082,0.125-0.125c0.043-0.04,0.085-0.082,0.125-0.125c0.043-0.04,0.085-0.082,0.125-0.125
			c0.043-0.04,0.085-0.081,0.125-0.125c0.043-0.04,0.085-0.081,0.125-0.125c0.044-0.04,0.085-0.081,0.125-0.125
			c0.044-0.04,0.085-0.081,0.125-0.125c0.044-0.04,0.085-0.081,0.125-0.125c0.044-0.04,0.085-0.081,0.125-0.125
			c0.044-0.04,0.085-0.081,0.125-0.125c0.044-0.04,0.085-0.081,0.125-0.125c0.044-0.04,0.085-0.081,0.125-0.125
			c0.044-0.04,0.085-0.081,0.125-0.125c0.044-0.04,0.085-0.081,0.125-0.125c0.044-0.04,0.085-0.081,0.125-0.125
			c0.044-0.04,0.085-0.081,0.125-0.125c0.044-0.04,0.085-0.081,0.125-0.125c0.044-0.04,0.085-0.081,0.125-0.125
			c0.044-0.04,0.085-0.081,0.125-0.125c0.044-0.04,0.085-0.081,0.125-0.125c0.044-0.04,0.085-0.081,0.125-0.125
			c0.044-0.04,0.085-0.081,0.125-0.125c0.044-0.04,0.085-0.081,0.125-0.125c0.044-0.04,0.085-0.081,0.125-0.125
			c0.044-0.04,0.085-0.081,0.125-0.125c0.044-0.04,0.085-0.081,0.125-0.125c0.044-0.04,0.085-0.081,0.125-0.125
			c0.044-0.04,0.085-0.081,0.125-0.125c0.044-0.04,0.085-0.081,0.125-0.125c0.044-0.04,0.085-0.081,0.125-0.125
			c0.044-0.04,0.085-0.081,0.125-0.125c0.044-0.04,0.085-0.081,0.125-0.125c0.044-0.04,0.085-0.081,0.125-0.125
			c0.044-0.04,0.085-0.081,0.125-0.125c0.044-0.04,0.085-0.081,0.125-0.125c0.044-0.04,0.085-0.081,0.125-0.125
			c0.044-0.04,0.085-0.081,0.125-0.125c0.044-0.04,0.085-0.081,0.125-0.125c0.044-0.04,0.085-0.081,0.125-0.125
			c0.044-0.04,0.085-0.081,0.125-0.125c0.044-0.04,0.085-0.081,0.125-0.125c0.044-0.04,0.085-0.081,0.125-0.125
			c0.044-0.04,0.085-0.081,0.125-0.125c0.044-0.04,0.085-0.081,0.125-0.125c0.044-0.04,0.085-0.081,0.125-0.125
			c0.044-0.04,0.085-0.081,0.125-0.125c0.044-0.04,0.085-0.081,0.125-0.125c0.044-0.04,0.085-0.081,0.125-0.125
			c0.044-0.04,0.085-0.081,0.125-0.125c0.044-0.04,0.085-0.081,0.125-0.125c0.044-0.04,0.085-0.081,0.125-0.125
			c0.044-0.04,0.085-0.081,0.125-0.125c0.044-0.04,0.085-0.081,0.125-0.125c0.044-0.04,0.085-0.081,0.125-0.125
			c0.044-0.04,0.085-0.081,0.125-0.125c0.044-0.04,0.085-0.081,0.125-0.125c0.044-0.04,0.085-0.081,0.125-0.125
			c0.044-0.04,0.085-0.081,0.125-0.125c0.044-0.04,0.085-0.081,0.125-0.125c0.044-0.04,0.085-0.081,0.125-0.125
			c0.044-0.04,0.085-0.081,0.125-0.125c0.044-0.04,0.085-0.081,0.125-0.125c0.044-0.04,0.085-0.081,0.125-0.125
			c0.044-0.04,0.085-0.081,0.125-0.125c0.044-0.04,0.085-0.081,0.125-0.125c0.043-0.04,0.084-0.081,0.124-0.124
			c0.044-0.04,0.086-0.082,0.127-0.126c0.043-0.041,0.085-0.082,0.125-0.125c0.043-0.041,0.085-0.082,0.125-0.125
			c0.043-0.041,0.085-0.082,0.125-0.125c0.043-0.041,0.085-0.082,0.125-0.125c0.043-0.041,0.085-0.082,0.125-0.125
			c0.043-0.041,0.085-0.082,0.125-0.125c0.043-0.041,0.085-0.082,0.125-0.125c0.043-0.04,0.084-0.081,0.124-0.124
			c0.044-0.041,0.086-0.082,0.126-0.126c0.044-0.04,0.085-0.082,0.125-0.125c0.044-0.04,0.085-0.082,0.125-0.125
			c0.044-0.04,0.085-0.082,0.125-0.125c0.044-0.04,0.085-0.082,0.125-0.125c0.044-0.04,0.085-0.082,0.125-0.125
			c0.044-0.04,0.085-0.082,0.125-0.125c0.044-0.04,0.085-0.082,0.125-0.125c0.044-0.04,0.085-0.082,0.125-0.125
			c0.044-0.04,0.085-0.082,0.125-0.125c0.044-0.04,0.085-0.082,0.125-0.125c0.043-0.04,0.085-0.081,0.125-0.125
			c0.043-0.04,0.085-0.081,0.125-0.125c0.044-0.04,0.085-0.081,0.125-0.125c0.044-0.04,0.085-0.081,0.125-0.125
			c0.044-0.04,0.085-0.081,0.125-0.125c0.044-0.04,0.085-0.081,0.125-0.125c0.044-0.04,0.085-0.081,0.125-0.125
			c0.044-0.04,0.085-0.081,0.125-0.125c0.044-0.04,0.085-0.081,0.125-0.125c0.044-0.04,0.085-0.081,0.125-0.125
			c0.044-0.04,0.085-0.081,0.125-0.125c0.044-0.04,0.085-0.081,0.125-0.125c0.044-0.04,0.085-0.081,0.125-0.125
			c0.044-0.04,0.085-0.081,0.125-0.125c0.044-0.04,0.085-0.081,0.125-0.125c0.044-0.04,0.085-0.081,0.125-0.125
			c0.044-0.04,0.085-0.081,0.125-0.125c0.044-0.04,0.085-0.081,0.125-0.125c0.044-0.04,0.085-0.081,0.125-0.125
			c0.044-0.04,0.085-0.081,0.125-0.125c0.044-0.04,0.085-0.081,0.125-0.125c0.044-0.04,0.085-0.081,0.125-0.125
			c0.044-0.04,0.085-0.081,0.125-0.125c0.044-0.04,0.085-0.081,0.125-0.125c0.044-0.04,0.085-0.081,0.125-0.125
			c0.044-0.04,0.085-0.081,0.125-0.125c0.044-0.04,0.085-0.081,0.125-0.125c0.024-0.023,0.044-0.054,0.067-0.078
			c0.063-0.056,0.125-0.11,0.183-0.172c0.044-0.04,0.085-0.081,0.125-0.125c0.044-0.04,0.085-0.081,0.125-0.125
			c0.044-0.04,0.085-0.081,0.125-0.125c0.044-0.04,0.085-0.081,0.125-0.125c0.044-0.04,0.085-0.081,0.125-0.125
			c0.044-0.04,0.085-0.081,0.125-0.125c0.044-0.04,0.085-0.081,0.125-0.125c0.044-0.04,0.085-0.081,0.125-0.125
			c0.044-0.04,0.085-0.081,0.125-0.125c0.044-0.04,0.085-0.081,0.125-0.125c0.044-0.04,0.085-0.081,0.125-0.125
			c0.044-0.04,0.085-0.081,0.125-0.125c0.044-0.04,0.085-0.081,0.125-0.125c0.044-0.04,0.085-0.081,0.125-0.125
			c0.044-0.04,0.085-0.081,0.125-0.125c0.044-0.04,0.085-0.081,0.125-0.125c0.044-0.04,0.085-0.081,0.125-0.125
			c0.044-0.04,0.085-0.081,0.125-0.125c0.044-0.04,0.085-0.081,0.125-0.125c0.044-0.04,0.085-0.081,0.125-0.125
			c0.044-0.04,0.085-0.081,0.125-0.125c0.044-0.04,0.085-0.081,0.125-0.125c0.044-0.04,0.085-0.081,0.125-0.125
			c0.044-0.04,0.085-0.081,0.125-0.125c0.044-0.04,0.085-0.081,0.125-0.125c0.044-0.04,0.085-0.081,0.125-0.125
			c0.044-0.04,0.085-0.081,0.125-0.125c0.044-0.04,0.085-0.081,0.125-0.125c0.044-0.04,0.085-0.081,0.125-0.125
			c0.044-0.04,0.085-0.081,0.125-0.125c0.044-0.04,0.085-0.081,0.125-0.125c0.044-0.04,0.085-0.081,0.125-0.125
			c0.044-0.04,0.085-0.081,0.125-0.125c0.043-0.04,0.084-0.081,0.124-0.124c0.044-0.04,0.086-0.082,0.127-0.126
			c0.043-0.041,0.085-0.082,0.125-0.125c0.043-0.041,0.085-0.082,0.125-0.125c0.043-0.041,0.085-0.082,0.125-0.125
			c0.043-0.041,0.085-0.082,0.125-0.125c0.043-0.041,0.085-0.082,0.125-0.125c0.043-0.041,0.085-0.082,0.125-0.125
			c0.043-0.041,0.085-0.082,0.125-0.125c0.043-0.04,0.084-0.081,0.124-0.124c0.044-0.041,0.086-0.082,0.126-0.126
			c0.043-0.04,0.085-0.082,0.125-0.125c0.043-0.04,0.085-0.082,0.125-0.125c0.043-0.04,0.085-0.082,0.125-0.125
			c0.043-0.04,0.085-0.082,0.125-0.125c0.043-0.04,0.085-0.082,0.125-0.125c0.043-0.04,0.085-0.082,0.125-0.125
			c0.043-0.04,0.085-0.082,0.125-0.125c0.043-0.04,0.085-0.082,0.125-0.125c0.043-0.04,0.085-0.081,0.125-0.125
			c0.043-0.04,0.085-0.081,0.125-0.125c0.044-0.04,0.085-0.081,0.125-0.125c0.044-0.04,0.085-0.081,0.125-0.125
			c0.044-0.04,0.085-0.081,0.125-0.125c0.044-0.04,0.085-0.081,0.125-0.125c0.044-0.04,0.085-0.081,0.125-0.125
			c0.044-0.04,0.085-0.081,0.125-0.125c0.044-0.04,0.085-0.081,0.125-0.125c0.044-0.04,0.085-0.081,0.125-0.125
			c0.044-0.04,0.085-0.081,0.125-0.125c0.044-0.04,0.085-0.081,0.125-0.125c0.044-0.04,0.085-0.081,0.125-0.125
			c0.044-0.04,0.085-0.081,0.125-0.125c0.044-0.04,0.085-0.081,0.125-0.125c0.044-0.04,0.085-0.081,0.125-0.125
			c0.044-0.04,0.085-0.081,0.125-0.125c0.044-0.04,0.085-0.081,0.125-0.125c0.044-0.04,0.085-0.081,0.125-0.125
			c0.044-0.04,0.085-0.081,0.125-0.125c0.044-0.04,0.085-0.081,0.125-0.125c0.044-0.04,0.085-0.081,0.125-0.125
			c0.044-0.04,0.085-0.081,0.125-0.125c0.044-0.04,0.085-0.081,0.125-0.125c0.044-0.04,0.085-0.081,0.125-0.125
			c0.044-0.04,0.085-0.081,0.125-0.125c0.044-0.04,0.085-0.081,0.125-0.125c0.044-0.04,0.085-0.081,0.125-0.125
			c0.044-0.04,0.085-0.081,0.125-0.125c0.044-0.04,0.085-0.081,0.125-0.125c0.044-0.04,0.085-0.081,0.125-0.125
			c0.044-0.04,0.085-0.081,0.125-0.125c0.044-0.04,0.085-0.081,0.125-0.125c0.044-0.04,0.085-0.081,0.125-0.125
			c0.044-0.04,0.085-0.081,0.125-0.125c0.044-0.04,0.085-0.081,0.125-0.125c0.044-0.04,0.085-0.081,0.125-0.125
			c0.044-0.04,0.085-0.081,0.125-0.125c0.044-0.04,0.085-0.081,0.125-0.125c0.044-0.04,0.085-0.081,0.125-0.125
			c0.044-0.04,0.085-0.081,0.125-0.125c0.044-0.04,0.085-0.081,0.125-0.125c0.044-0.04,0.085-0.081,0.125-0.125
			c0.044-0.04,0.085-0.081,0.125-0.125c0.044-0.04,0.085-0.081,0.125-0.125c0.044-0.04,0.085-0.081,0.125-0.125
			c0.044-0.04,0.085-0.081,0.125-0.125c0.044-0.04,0.085-0.081,0.125-0.125c0.044-0.04,0.085-0.081,0.125-0.125
			c0.044-0.04,0.085-0.081,0.125-0.125c0.044-0.04,0.085-0.081,0.125-0.125c0.044-0.04,0.085-0.081,0.125-0.125
			c0.044-0.04,0.085-0.081,0.125-0.125c0.044-0.04,0.085-0.081,0.125-0.125c0.044-0.04,0.085-0.081,0.125-0.125
			c0.044-0.04,0.085-0.081,0.125-0.125c0.044-0.04,0.085-0.081,0.125-0.125c0.044-0.04,0.085-0.081,0.125-0.125
			c0.044-0.04,0.085-0.081,0.125-0.125c0.044-0.04,0.085-0.081,0.125-0.125c0.044-0.04,0.085-0.081,0.125-0.125
			c0.044-0.04,0.085-0.081,0.125-0.125c0.043-0.04,0.084-0.081,0.124-0.124c0.044-0.04,0.086-0.082,0.127-0.126
			c0.043-0.041,0.085-0.082,0.125-0.125c0.043-0.041,0.085-0.082,0.125-0.125c0.043-0.041,0.085-0.082,0.125-0.125
			c0.043-0.041,0.085-0.082,0.125-0.125c0.043-0.041,0.085-0.082,0.125-0.125c0.043-0.041,0.085-0.082,0.125-0.125
			c0.043-0.041,0.085-0.082,0.125-0.125c0.043-0.04,0.084-0.081,0.124-0.124c0.044-0.041,0.086-0.082,0.126-0.126
			c0.044-0.04,0.085-0.082,0.125-0.125c0.044-0.04,0.085-0.082,0.125-0.125c0.044-0.04,0.085-0.082,0.125-0.125
			c0.044-0.04,0.085-0.082,0.125-0.125c0.044-0.04,0.085-0.082,0.125-0.125c0.044-0.04,0.085-0.082,0.125-0.125
			c0.044-0.04,0.085-0.082,0.125-0.125c0.044-0.04,0.085-0.082,0.125-0.125c0.044-0.04,0.085-0.082,0.125-0.125
			c0.044-0.04,0.085-0.082,0.125-0.125c0.043-0.04,0.085-0.081,0.125-0.125c0.043-0.04,0.085-0.081,0.125-0.125
			c0.044-0.04,0.085-0.081,0.125-0.125c0.044-0.04,0.085-0.081,0.125-0.125c0.044-0.04,0.085-0.081,0.125-0.125
			c0.044-0.04,0.085-0.081,0.125-0.125c0.044-0.04,0.085-0.081,0.125-0.125c0.044-0.04,0.085-0.081,0.125-0.125
			c0.044-0.04,0.085-0.081,0.125-0.125c0.044-0.04,0.085-0.081,0.125-0.125c0.044-0.04,0.085-0.081,0.125-0.125
			c0.044-0.04,0.085-0.081,0.125-0.125c0.044-0.04,0.085-0.081,0.125-0.125c0.044-0.04,0.085-0.081,0.125-0.125
			c0.044-0.04,0.085-0.081,0.125-0.125c0.044-0.04,0.085-0.081,0.125-0.125c0.044-0.04,0.085-0.081,0.125-0.125
			c0.044-0.04,0.085-0.081,0.125-0.125c0.044-0.04,0.085-0.081,0.125-0.125c0.044-0.04,0.085-0.081,0.125-0.125
			c0.044-0.04,0.085-0.081,0.125-0.125c0.044-0.04,0.085-0.081,0.125-0.125c0.044-0.04,0.085-0.081,0.125-0.125
			c0.044-0.04,0.085-0.081,0.125-0.125c0.044-0.04,0.085-0.081,0.125-0.125c0.044-0.04,0.085-0.081,0.125-0.125
			c0.044-0.04,0.085-0.081,0.125-0.125c0.044-0.04,0.085-0.081,0.125-0.125c0.044-0.04,0.085-0.081,0.125-0.125
			c0.044-0.04,0.085-0.081,0.125-0.125c0.044-0.04,0.085-0.081,0.125-0.125c0.044-0.04,0.085-0.081,0.125-0.125
			c0.044-0.04,0.085-0.081,0.125-0.125c0.044-0.04,0.085-0.081,0.125-0.125c0.044-0.04,0.085-0.081,0.125-0.125
			c0.044-0.04,0.085-0.081,0.125-0.125c0.044-0.04,0.085-0.081,0.125-0.125c0.044-0.04,0.085-0.081,0.125-0.125
			c0.044-0.04,0.085-0.081,0.125-0.125c0.044-0.04,0.085-0.081,0.125-0.125c0.044-0.04,0.085-0.081,0.125-0.125
			c0.044-0.04,0.085-0.081,0.125-0.125c0.044-0.04,0.085-0.081,0.125-0.125c0.044-0.04,0.085-0.081,0.125-0.125
			c0.044-0.04,0.085-0.081,0.125-0.125c0.044-0.04,0.085-0.081,0.125-0.125c0.044-0.04,0.085-0.081,0.125-0.125
			c0.044-0.04,0.085-0.081,0.125-0.125c0.044-0.04,0.085-0.081,0.125-0.125c0.044-0.04,0.085-0.081,0.125-0.125
			c0.044-0.04,0.085-0.081,0.125-0.125c0.044-0.04,0.085-0.081,0.125-0.125c0.044-0.04,0.085-0.081,0.125-0.125
			c0.044-0.04,0.085-0.081,0.125-0.125c0.044-0.04,0.085-0.081,0.125-0.125c0.044-0.04,0.085-0.081,0.125-0.125
			c0.044-0.04,0.085-0.081,0.125-0.125c0.044-0.04,0.085-0.081,0.125-0.125c0.044-0.04,0.085-0.081,0.125-0.125
			c0.044-0.04,0.085-0.081,0.125-0.125c0.044-0.04,0.085-0.081,0.125-0.125c0.044-0.04,0.085-0.081,0.125-0.125
			c0.043-0.04,0.084-0.081,0.124-0.124c0.044-0.04,0.086-0.082,0.127-0.126c0.043-0.041,0.085-0.082,0.125-0.125
			c0.043-0.041,0.085-0.082,0.125-0.125c0.043-0.041,0.085-0.082,0.125-0.125c0.043-0.041,0.085-0.082,0.125-0.125
			c0.043-0.041,0.085-0.082,0.125-0.125c0.043-0.041,0.085-0.082,0.125-0.125c0.043-0.041,0.085-0.082,0.125-0.125
			c0.043-0.04,0.084-0.081,0.124-0.124c0.044-0.041,0.086-0.082,0.126-0.126c0.043-0.04,0.085-0.082,0.125-0.125
			c0.043-0.04,0.085-0.082,0.125-0.125c0.043-0.04,0.085-0.082,0.125-0.125c0.043-0.04,0.085-0.082,0.125-0.125
			c0.043-0.04,0.085-0.082,0.125-0.125c0.043-0.04,0.085-0.082,0.125-0.125c0.043-0.04,0.085-0.082,0.125-0.125
			c0.043-0.04,0.085-0.082,0.125-0.125c0.043-0.04,0.085-0.081,0.125-0.125c0.043-0.04,0.085-0.081,0.125-0.125
			c0.044-0.04,0.085-0.081,0.125-0.125c0.044-0.04,0.085-0.081,0.125-0.125c0.044-0.04,0.085-0.081,0.125-0.125
			c0.044-0.04,0.085-0.081,0.125-0.125c0.044-0.04,0.085-0.081,0.125-0.125c0.044-0.04,0.085-0.081,0.125-0.125
			c0.044-0.04,0.085-0.081,0.125-0.125c0.044-0.04,0.085-0.081,0.125-0.125c0.489-0.457,0.801-0.854,0.801-1.574
			C113.759,92.874,112.645,92,111.268,92z"/>
	</g>
</g>
<path fill="#FFFFFF" d="M111.268,92H108V73h3.268c1.377,0,2.491-1.124,2.491-2.5s-1.114-2.5-2.491-2.5H88V21H40v47H16.574
	c-1.376,0-2.491,1.124-2.491,2.5s1.115,2.5,2.491,2.5H19v19h-2.426c-1.376,0-2.491,1.124-2.491,2.5c0,1.377,1.115,2.5,2.491,2.5
	h94.693c1.375,0,2.49-1.123,2.49-2.5C113.759,93.124,112.645,92,111.268,92z M103,92h-9V73h9V92z M52,73h9v19h-9V73z M47,92h-9V73h9
	V92z M66,73h9v19h-9V73z M80,73h9v19h-9V73z M86,68H65V24h21V68z M42,24h21v44H42V24z M24,73h9v19h-9V73z"/>
</svg>
