<?xml version="1.0" encoding="utf-8"?>
<!-- Generator: Adobe Illustrator 16.0.3, SVG Export Plug-In . SVG Version: 6.00 Build 0)  -->
<!DOCTYPE svg PUBLIC "-//W3C//DTD SVG 1.1//EN" "http://www.w3.org/Graphics/SVG/1.1/DTD/svg11.dtd">
<svg version="1.1" id="Layer_1" xmlns="http://www.w3.org/2000/svg" xmlns:xlink="http://www.w3.org/1999/xlink" x="0px" y="0px"
	 width="128px" height="128px" viewBox="0 0 128 128" enable-background="new 0 0 128 128" xml:space="preserve">
<path fill="#444953" class="bg" d="M128,25c0-13.807-11.193-25-25.002-25H25.002C11.194,0,0,11.193,0,25v78c0,13.807,11.194,25,25.002,25
	h77.996C116.807,128,128,116.807,128,103V25z"/>
<g enable-background="new    ">
	<g>
		<defs>
			<path id="SVGID_1_" d="M128,25c0-13.807-11.193-25-25.002-25H25.002C11.194,0,0,11.193,0,25v78c0,13.807,11.194,25,25.002,25
				h77.996C116.807,128,128,116.807,128,103V25z"/>
		</defs>
		<clipPath id="SVGID_2_">
			<use xlink:href="#SVGID_1_"  overflow="visible"/>
		</clipPath>
		<path clip-path="url(#SVGID_2_)" fill="#353A42" class="shadow" d="M109.752,50.571c-0.148-0.667-0.807-1.089-1.477-0.941
			c-8.412,1.86-16.539,3.209-24.383,4.079c0.01-0.012,0.015-0.026,0.022-0.038c0.026-0.025,0.063-0.035,0.089-0.063
			c0.018-0.019,0.021-0.042,0.036-0.062c0.026-0.025,0.063-0.035,0.089-0.063c0.018-0.019,0.021-0.042,0.036-0.062
			c0.026-0.025,0.063-0.035,0.089-0.063c0.018-0.019,0.021-0.042,0.036-0.062c0.026-0.025,0.063-0.035,0.089-0.063
			c0.018-0.019,0.021-0.042,0.036-0.062c0.026-0.025,0.063-0.035,0.089-0.063c0.018-0.019,0.021-0.042,0.036-0.062
			c0.026-0.025,0.063-0.035,0.089-0.063c0.018-0.019,0.021-0.042,0.036-0.062c0.026-0.025,0.063-0.035,0.089-0.063
			c0.018-0.019,0.021-0.042,0.036-0.062c0.026-0.025,0.063-0.035,0.089-0.063c0.018-0.019,0.021-0.042,0.036-0.062
			c0.026-0.025,0.063-0.035,0.089-0.063c0.018-0.019,0.021-0.042,0.036-0.062c0.026-0.025,0.063-0.035,0.089-0.063
			c0.018-0.019,0.021-0.042,0.036-0.062c0.026-0.025,0.063-0.035,0.089-0.063c0.018-0.019,0.021-0.042,0.036-0.062
			c0.026-0.025,0.063-0.035,0.089-0.063c0.018-0.019,0.021-0.042,0.036-0.062c0.026-0.025,0.063-0.035,0.089-0.063
			c0.018-0.019,0.021-0.042,0.036-0.062c0.026-0.025,0.063-0.035,0.089-0.063c0.018-0.019,0.021-0.042,0.036-0.062
			c0.026-0.025,0.063-0.035,0.089-0.063c0.018-0.019,0.021-0.042,0.036-0.062c0.026-0.025,0.063-0.035,0.089-0.063
			c0.018-0.019,0.021-0.042,0.036-0.062c0.026-0.025,0.063-0.035,0.089-0.063c0.018-0.019,0.021-0.042,0.036-0.062
			c0.026-0.025,0.063-0.035,0.089-0.063c0.018-0.019,0.021-0.042,0.036-0.062c0.026-0.025,0.063-0.035,0.089-0.063
			c0.018-0.019,0.021-0.042,0.036-0.062c0.026-0.025,0.063-0.035,0.089-0.063c0.018-0.019,0.021-0.042,0.036-0.062
			c0.026-0.025,0.063-0.035,0.089-0.063c0.018-0.019,0.021-0.042,0.036-0.062c0.026-0.025,0.063-0.035,0.089-0.063
			c0.018-0.019,0.021-0.042,0.036-0.062c0.026-0.025,0.063-0.035,0.089-0.063c0.018-0.019,0.021-0.042,0.036-0.062
			c0.026-0.025,0.063-0.035,0.089-0.063c0.018-0.019,0.021-0.042,0.036-0.062c0.026-0.025,0.063-0.035,0.089-0.063
			c0.018-0.019,0.021-0.042,0.036-0.062c0.026-0.025,0.063-0.035,0.089-0.063c0.018-0.019,0.021-0.042,0.036-0.062
			c0.026-0.025,0.063-0.035,0.089-0.063c0.018-0.019,0.021-0.042,0.036-0.062c0.026-0.025,0.063-0.035,0.089-0.063
			c0.018-0.019,0.021-0.042,0.036-0.062c0.026-0.025,0.063-0.035,0.089-0.063c0.018-0.019,0.021-0.042,0.036-0.062
			c0.026-0.025,0.063-0.035,0.089-0.063c0.018-0.019,0.021-0.042,0.036-0.062c0.026-0.025,0.063-0.035,0.089-0.063
			c0.018-0.019,0.021-0.042,0.036-0.062c0.026-0.025,0.063-0.035,0.089-0.063c0.018-0.019,0.021-0.042,0.036-0.062
			c0.026-0.025,0.063-0.035,0.089-0.063c0.018-0.019,0.021-0.042,0.036-0.062c0.026-0.025,0.063-0.035,0.089-0.063
			c0.018-0.019,0.021-0.042,0.036-0.062c0.026-0.025,0.063-0.035,0.089-0.063c0.018-0.019,0.021-0.042,0.036-0.062
			c0.026-0.025,0.063-0.035,0.089-0.063c0.018-0.019,0.021-0.042,0.036-0.062c0.026-0.025,0.063-0.035,0.089-0.063
			c0.018-0.019,0.021-0.042,0.036-0.062c0.026-0.025,0.063-0.035,0.089-0.063c0.018-0.019,0.021-0.042,0.036-0.062
			c0.026-0.025,0.063-0.035,0.089-0.063c0.018-0.019,0.021-0.042,0.036-0.062c0.026-0.025,0.063-0.035,0.089-0.063
			c0.018-0.019,0.021-0.042,0.036-0.062c0.026-0.025,0.063-0.035,0.089-0.063c0.018-0.019,0.021-0.042,0.036-0.062
			c0.026-0.025,0.063-0.035,0.089-0.063c0.018-0.019,0.021-0.042,0.036-0.062c0.026-0.025,0.063-0.035,0.089-0.063
			c0.018-0.019,0.021-0.042,0.036-0.062c0.026-0.025,0.063-0.035,0.089-0.063c0.018-0.019,0.021-0.042,0.036-0.062
			c0.026-0.025,0.063-0.035,0.089-0.063c0.018-0.018,0.021-0.042,0.036-0.061c0.026-0.025,0.063-0.036,0.09-0.064
			c0.017-0.019,0.021-0.042,0.036-0.062c0.027-0.025,0.063-0.035,0.089-0.063c0.017-0.019,0.021-0.042,0.036-0.062
			c0.027-0.025,0.063-0.035,0.089-0.063c0.017-0.019,0.021-0.042,0.036-0.062c0.027-0.025,0.063-0.035,0.089-0.063
			c0.017-0.019,0.021-0.042,0.036-0.062c0.027-0.025,0.063-0.035,0.089-0.063c0.017-0.019,0.021-0.042,0.036-0.062
			c0.027-0.025,0.063-0.035,0.089-0.063c0.017-0.019,0.021-0.042,0.036-0.062c0.027-0.025,0.063-0.035,0.089-0.063
			c0.017-0.019,0.021-0.042,0.036-0.062c0.027-0.025,0.063-0.035,0.089-0.063c0.017-0.019,0.021-0.042,0.036-0.062
			c0.027-0.025,0.063-0.035,0.089-0.063c0.017-0.019,0.021-0.042,0.036-0.062c0.027-0.025,0.063-0.035,0.089-0.063
			c0.017-0.019,0.021-0.042,0.036-0.062c0.027-0.025,0.063-0.035,0.089-0.063c0.017-0.019,0.021-0.042,0.036-0.062
			c0.027-0.025,0.063-0.035,0.089-0.063c0.017-0.019,0.021-0.042,0.036-0.062c0.027-0.025,0.063-0.035,0.089-0.063
			c0.017-0.019,0.021-0.042,0.036-0.062c0.027-0.025,0.063-0.035,0.089-0.063c0.017-0.019,0.021-0.042,0.036-0.062
			c0.027-0.025,0.063-0.035,0.089-0.063c0.017-0.019,0.021-0.042,0.036-0.062c0.027-0.025,0.063-0.035,0.089-0.063
			c0.017-0.019,0.021-0.042,0.036-0.062c0.027-0.025,0.063-0.035,0.089-0.063c0.017-0.019,0.021-0.042,0.036-0.062
			c0.027-0.025,0.063-0.035,0.089-0.063c0.017-0.019,0.021-0.042,0.036-0.062c0.027-0.025,0.063-0.035,0.089-0.063
			c0.017-0.019,0.021-0.042,0.036-0.062c0.027-0.025,0.063-0.035,0.089-0.063c0.017-0.019,0.021-0.042,0.036-0.062
			c0.027-0.025,0.063-0.035,0.089-0.063c0.017-0.019,0.021-0.042,0.036-0.062c0.027-0.025,0.063-0.035,0.089-0.063
			c0.458-0.507,0.42-1.289-0.087-1.748c-3.732-3.38-2.408-5.224-0.213-8.278c2.145-2.982,5.08-7.067,0.342-12.875
			c-0.434-0.53-1.212-0.608-1.742-0.176c-0.035,0.03-0.054,0.071-0.084,0.104c-0.014,0.009-0.029,0.011-0.041,0.021
			c-0.035,0.03-0.054,0.071-0.084,0.104c-0.014,0.009-0.029,0.011-0.041,0.021c-0.035,0.03-0.054,0.071-0.084,0.104
			c-0.014,0.009-0.029,0.011-0.041,0.021c-0.035,0.03-0.054,0.072-0.086,0.104c-0.012,0.009-0.027,0.011-0.039,0.021
			c-0.035,0.03-0.054,0.072-0.086,0.104c-0.012,0.009-0.027,0.011-0.039,0.021c-0.035,0.03-0.054,0.072-0.086,0.104
			c-0.012,0.009-0.027,0.011-0.039,0.021c-0.035,0.029-0.053,0.071-0.084,0.104c-0.014,0.009-0.029,0.011-0.041,0.021
			c-0.037,0.03-0.055,0.071-0.086,0.104c-0.013,0.009-0.027,0.011-0.039,0.021c-0.037,0.03-0.055,0.071-0.086,0.104
			c-0.013,0.009-0.027,0.011-0.039,0.021c-0.037,0.03-0.055,0.071-0.086,0.104c-0.013,0.009-0.027,0.011-0.039,0.021
			c-0.037,0.03-0.055,0.071-0.086,0.104c-0.013,0.009-0.027,0.011-0.039,0.021c-0.037,0.03-0.055,0.071-0.086,0.104
			c-0.013,0.009-0.027,0.011-0.039,0.021c-0.037,0.03-0.055,0.071-0.086,0.104c-0.013,0.009-0.027,0.011-0.039,0.021
			c-0.037,0.03-0.055,0.071-0.086,0.104c-0.013,0.009-0.027,0.011-0.039,0.021c-0.037,0.03-0.055,0.071-0.086,0.104
			c-0.013,0.009-0.027,0.011-0.039,0.021c-0.037,0.03-0.055,0.071-0.086,0.104c-0.013,0.009-0.027,0.011-0.039,0.021
			c-0.037,0.03-0.055,0.071-0.086,0.104c-0.013,0.009-0.027,0.011-0.039,0.021c-0.037,0.03-0.055,0.071-0.086,0.104
			c-0.013,0.009-0.027,0.011-0.039,0.021c-0.037,0.03-0.055,0.071-0.086,0.104c-0.013,0.009-0.027,0.011-0.039,0.021
			c-0.037,0.03-0.055,0.071-0.086,0.104c-0.013,0.009-0.027,0.011-0.039,0.021c-0.037,0.03-0.055,0.071-0.086,0.104
			c-0.013,0.009-0.027,0.011-0.039,0.021c-0.037,0.03-0.055,0.071-0.086,0.104c-0.013,0.009-0.027,0.011-0.039,0.021
			c-0.037,0.03-0.055,0.071-0.086,0.104c-0.013,0.009-0.027,0.011-0.039,0.021c-0.037,0.03-0.055,0.071-0.086,0.104
			c-0.013,0.009-0.027,0.011-0.039,0.021c-0.037,0.03-0.055,0.071-0.086,0.104c-0.013,0.009-0.027,0.011-0.039,0.021
			c-0.037,0.03-0.055,0.071-0.086,0.104c-0.013,0.009-0.027,0.011-0.039,0.021c-0.037,0.03-0.055,0.071-0.086,0.104
			c-0.013,0.009-0.027,0.011-0.039,0.021c-0.037,0.03-0.055,0.071-0.086,0.104c-0.013,0.009-0.027,0.011-0.039,0.021
			c-0.037,0.03-0.055,0.071-0.086,0.104c-0.013,0.009-0.027,0.011-0.039,0.021c-0.037,0.03-0.055,0.071-0.086,0.104
			c-0.013,0.009-0.027,0.011-0.039,0.021c-0.037,0.03-0.055,0.071-0.086,0.104c-0.013,0.009-0.027,0.011-0.039,0.021
			c-0.037,0.03-0.055,0.071-0.086,0.104c-0.013,0.009-0.027,0.011-0.039,0.021c-0.037,0.03-0.055,0.071-0.086,0.104
			c-0.013,0.009-0.027,0.011-0.039,0.021c-0.037,0.03-0.055,0.071-0.086,0.104c-0.013,0.009-0.027,0.011-0.039,0.021
			c-0.037,0.03-0.055,0.071-0.086,0.104c-0.013,0.009-0.027,0.011-0.039,0.021c-0.037,0.03-0.055,0.071-0.086,0.104
			c-0.013,0.009-0.027,0.011-0.039,0.021c-0.037,0.03-0.055,0.071-0.086,0.104c-0.013,0.009-0.027,0.011-0.039,0.021
			c-0.037,0.03-0.055,0.071-0.086,0.104c-0.013,0.009-0.027,0.011-0.039,0.021c-0.037,0.03-0.055,0.071-0.086,0.104
			c-0.013,0.009-0.027,0.011-0.039,0.021c-0.037,0.03-0.055,0.071-0.086,0.104c-0.011,0.008-0.023,0.01-0.035,0.019
			c-0.262-1.461-0.984-3.061-2.422-4.821c-0.433-0.53-1.212-0.608-1.74-0.176c-0.037,0.03-0.055,0.072-0.086,0.104
			c-0.013,0.01-0.027,0.011-0.039,0.021c-0.037,0.03-0.055,0.072-0.086,0.104c-0.013,0.01-0.027,0.011-0.039,0.021
			c-0.037,0.03-0.055,0.072-0.086,0.104c-0.013,0.01-0.027,0.011-0.039,0.021c-0.037,0.03-0.055,0.072-0.086,0.104
			c-0.013,0.01-0.027,0.011-0.039,0.021c-0.037,0.03-0.055,0.072-0.086,0.104c-0.013,0.01-0.027,0.011-0.039,0.021
			c-0.037,0.03-0.055,0.072-0.086,0.104c-0.013,0.01-0.027,0.011-0.039,0.021c-0.037,0.03-0.055,0.072-0.086,0.104
			c-0.013,0.01-0.027,0.011-0.039,0.021c-0.037,0.03-0.055,0.072-0.086,0.104c-0.013,0.01-0.027,0.011-0.039,0.021
			c-0.037,0.03-0.055,0.072-0.086,0.104c-0.013,0.01-0.027,0.011-0.039,0.021c-0.037,0.03-0.055,0.072-0.086,0.104
			c-0.013,0.01-0.027,0.011-0.039,0.021c-0.037,0.03-0.055,0.072-0.086,0.104c-0.013,0.01-0.027,0.011-0.039,0.021
			c-0.037,0.03-0.055,0.072-0.086,0.104c-0.013,0.01-0.027,0.011-0.039,0.021c-0.037,0.03-0.055,0.072-0.086,0.104
			c-0.013,0.009-0.027,0.011-0.039,0.021c-0.037,0.03-0.055,0.072-0.086,0.104c-0.013,0.009-0.027,0.011-0.039,0.021
			c-0.037,0.03-0.055,0.072-0.086,0.104c-0.013,0.009-0.027,0.011-0.039,0.021c-0.037,0.03-0.055,0.072-0.086,0.104
			c-0.013,0.009-0.027,0.011-0.039,0.021c-0.037,0.029-0.055,0.071-0.086,0.104c-0.013,0.01-0.027,0.011-0.041,0.021
			c-0.035,0.03-0.054,0.072-0.086,0.104c-0.012,0.009-0.026,0.011-0.039,0.021c-0.035,0.03-0.054,0.072-0.086,0.104
			c-0.012,0.009-0.026,0.011-0.039,0.021c-0.035,0.03-0.054,0.072-0.086,0.104c-0.012,0.009-0.026,0.011-0.039,0.021
			c-0.035,0.03-0.054,0.072-0.086,0.104c-0.012,0.01-0.026,0.011-0.039,0.021c-0.035,0.03-0.054,0.072-0.086,0.104
			c-0.012,0.01-0.026,0.011-0.039,0.021c-0.035,0.03-0.054,0.072-0.086,0.104c-0.012,0.01-0.026,0.011-0.039,0.021
			c-0.035,0.03-0.054,0.072-0.086,0.104c-0.012,0.01-0.026,0.011-0.039,0.021c-0.035,0.03-0.054,0.072-0.086,0.104
			c-0.012,0.01-0.026,0.011-0.039,0.021c-0.035,0.03-0.054,0.072-0.086,0.104c-0.012,0.01-0.026,0.011-0.039,0.021
			c-0.035,0.03-0.054,0.072-0.086,0.104c-0.012,0.01-0.026,0.011-0.039,0.021c-0.035,0.03-0.054,0.072-0.086,0.104
			c-0.012,0.01-0.026,0.011-0.039,0.021c-0.035,0.03-0.054,0.072-0.086,0.104c-0.012,0.01-0.026,0.011-0.039,0.021
			c-0.035,0.03-0.054,0.072-0.086,0.104c-0.012,0.01-0.026,0.011-0.039,0.021c-0.035,0.03-0.054,0.072-0.086,0.104
			c-0.012,0.01-0.026,0.011-0.039,0.021c-0.035,0.03-0.054,0.072-0.086,0.104c-0.012,0.01-0.026,0.011-0.039,0.021
			c-0.035,0.03-0.054,0.072-0.086,0.104c-0.012,0.01-0.026,0.011-0.039,0.021c-0.035,0.03-0.054,0.072-0.086,0.104
			c-0.012,0.01-0.026,0.011-0.039,0.021c-0.035,0.03-0.054,0.072-0.086,0.104c-0.012,0.01-0.026,0.011-0.039,0.021
			c-0.035,0.03-0.054,0.072-0.086,0.104c-0.012,0.01-0.026,0.011-0.039,0.021c-0.035,0.03-0.054,0.072-0.086,0.104
			c-0.012,0.01-0.026,0.011-0.039,0.021c-0.035,0.03-0.054,0.072-0.086,0.104c-0.012,0.01-0.026,0.011-0.039,0.021
			c-0.035,0.03-0.054,0.072-0.086,0.104c-0.012,0.01-0.026,0.011-0.039,0.021c-0.035,0.03-0.054,0.072-0.086,0.104
			c-0.011,0.009-0.023,0.01-0.035,0.019c-0.262-1.461-0.984-3.061-2.422-4.822c-0.432-0.53-1.211-0.608-1.74-0.176
			c-0.036,0.03-0.055,0.072-0.086,0.104c-0.012,0.01-0.027,0.011-0.039,0.021c-0.036,0.03-0.055,0.072-0.086,0.104
			c-0.012,0.01-0.027,0.011-0.039,0.021c-0.036,0.03-0.055,0.072-0.086,0.104c-0.012,0.01-0.027,0.011-0.039,0.021
			c-0.036,0.03-0.055,0.072-0.086,0.104c-0.012,0.01-0.027,0.011-0.039,0.021c-0.036,0.03-0.055,0.072-0.086,0.104
			c-0.012,0.01-0.027,0.011-0.039,0.021c-0.036,0.03-0.055,0.072-0.086,0.104c-0.012,0.01-0.027,0.011-0.039,0.021
			c-0.036,0.03-0.055,0.072-0.086,0.104c-0.012,0.01-0.027,0.011-0.039,0.021c-0.036,0.03-0.055,0.072-0.086,0.104
			c-0.012,0.01-0.027,0.011-0.039,0.021c-0.036,0.03-0.055,0.072-0.086,0.104c-0.012,0.01-0.027,0.011-0.039,0.021
			c-0.036,0.03-0.055,0.072-0.086,0.104c-0.012,0.01-0.027,0.011-0.039,0.021c-0.036,0.03-0.055,0.072-0.086,0.104
			c-0.012,0.01-0.027,0.011-0.039,0.021c-0.036,0.03-0.055,0.072-0.086,0.104c-0.012,0.01-0.027,0.011-0.039,0.021
			c-0.036,0.03-0.055,0.072-0.086,0.104c-0.012,0.01-0.027,0.011-0.039,0.021c-0.036,0.03-0.055,0.072-0.086,0.104
			c-0.012,0.01-0.027,0.011-0.039,0.021c-0.036,0.03-0.055,0.072-0.086,0.104c-0.012,0.01-0.027,0.011-0.039,0.021
			c-0.036,0.03-0.055,0.072-0.086,0.104c-0.012,0.01-0.027,0.011-0.039,0.021c-0.036,0.03-0.055,0.072-0.086,0.104
			c-0.012,0.01-0.027,0.011-0.039,0.021c-0.036,0.03-0.055,0.072-0.086,0.104c-0.012,0.01-0.027,0.011-0.039,0.021
			c-0.036,0.03-0.055,0.072-0.086,0.104c-0.012,0.01-0.027,0.011-0.039,0.021c-0.036,0.03-0.055,0.072-0.086,0.104
			c-0.012,0.01-0.027,0.011-0.039,0.021c-0.036,0.03-0.055,0.072-0.086,0.104c-0.012,0.01-0.027,0.011-0.039,0.021
			c-0.036,0.03-0.055,0.072-0.086,0.104c-0.012,0.009-0.027,0.011-0.039,0.021c-0.036,0.03-0.055,0.072-0.086,0.104
			c-0.012,0.009-0.027,0.011-0.039,0.021c-0.036,0.03-0.055,0.072-0.086,0.104c-0.012,0.009-0.027,0.011-0.039,0.021
			c-0.036,0.029-0.053,0.071-0.086,0.104c-0.012,0.01-0.027,0.011-0.041,0.021c-0.035,0.03-0.053,0.072-0.086,0.104
			c-0.012,0.01-0.026,0.011-0.039,0.021c-0.035,0.03-0.053,0.072-0.086,0.104c-0.012,0.01-0.026,0.011-0.039,0.021
			c-0.035,0.03-0.053,0.072-0.086,0.104c-0.012,0.01-0.026,0.011-0.039,0.021c-0.035,0.03-0.053,0.072-0.086,0.104
			c-0.012,0.01-0.026,0.011-0.039,0.021c-0.035,0.03-0.053,0.072-0.086,0.104c-0.012,0.01-0.026,0.011-0.039,0.021
			c-0.035,0.03-0.053,0.072-0.086,0.104c-0.012,0.01-0.026,0.011-0.039,0.021c-0.035,0.03-0.053,0.072-0.086,0.104
			c-0.012,0.01-0.026,0.011-0.039,0.021c-0.035,0.03-0.053,0.072-0.086,0.104c-0.012,0.01-0.026,0.011-0.039,0.021
			c-0.035,0.03-0.053,0.072-0.086,0.104c-0.012,0.01-0.026,0.011-0.039,0.021c-0.035,0.03-0.053,0.072-0.086,0.104
			c-0.012,0.01-0.026,0.011-0.039,0.021c-0.035,0.03-0.053,0.072-0.086,0.104c-0.012,0.01-0.026,0.011-0.039,0.021
			c-0.035,0.03-0.053,0.072-0.086,0.104c-0.012,0.01-0.026,0.011-0.039,0.021c-0.035,0.03-0.053,0.072-0.086,0.104
			c-0.012,0.01-0.026,0.011-0.039,0.021c-0.035,0.03-0.053,0.072-0.086,0.104c-0.012,0.01-0.026,0.011-0.039,0.021
			c-0.035,0.03-0.053,0.072-0.086,0.104c-0.012,0.01-0.026,0.011-0.039,0.021c-0.035,0.03-0.053,0.072-0.086,0.104
			c-0.012,0.01-0.026,0.011-0.039,0.021c-0.035,0.03-0.053,0.072-0.086,0.104c-0.012,0.01-0.026,0.011-0.039,0.021
			c-0.035,0.03-0.053,0.072-0.086,0.104c-0.012,0.01-0.026,0.011-0.039,0.021c-0.035,0.03-0.053,0.072-0.086,0.104
			c-0.012,0.01-0.026,0.011-0.039,0.021c-0.035,0.03-0.053,0.072-0.086,0.104c-0.012,0.01-0.026,0.011-0.039,0.021
			c-0.035,0.03-0.053,0.072-0.086,0.104c-0.012,0.01-0.026,0.011-0.039,0.021c-0.035,0.03-0.053,0.072-0.086,0.104
			c-0.012,0.01-0.026,0.011-0.039,0.021c-0.035,0.03-0.053,0.072-0.086,0.104c-0.012,0.01-0.026,0.011-0.039,0.021
			c-0.035,0.03-0.053,0.072-0.086,0.104c-0.012,0.01-0.026,0.011-0.039,0.021c-0.035,0.03-0.053,0.072-0.086,0.104
			c-0.012,0.01-0.026,0.011-0.039,0.021c-0.035,0.03-0.053,0.072-0.086,0.104c-0.012,0.01-0.026,0.011-0.039,0.021
			c-0.035,0.03-0.053,0.072-0.086,0.104c-0.012,0.01-0.026,0.011-0.039,0.021c-0.035,0.03-0.053,0.072-0.086,0.104
			c-0.012,0.01-0.026,0.011-0.039,0.021c-0.035,0.03-0.053,0.072-0.086,0.104c-0.012,0.01-0.026,0.011-0.039,0.021
			c-0.035,0.03-0.053,0.072-0.086,0.104c-0.012,0.01-0.026,0.011-0.039,0.021c-0.035,0.03-0.053,0.072-0.086,0.104
			c-0.012,0.01-0.026,0.011-0.039,0.021c-0.035,0.03-0.053,0.072-0.086,0.104c-0.012,0.01-0.026,0.011-0.039,0.021
			c-0.035,0.03-0.053,0.072-0.086,0.104c-0.012,0.01-0.026,0.011-0.039,0.021c-0.035,0.03-0.053,0.072-0.084,0.104
			c-0.012,0.01-0.028,0.011-0.041,0.021c-0.035,0.03-0.053,0.072-0.084,0.104c-0.012,0.01-0.028,0.011-0.041,0.021
			c-0.035,0.03-0.053,0.072-0.084,0.104c-0.012,0.01-0.028,0.011-0.041,0.021c-0.035,0.03-0.053,0.072-0.084,0.104
			c-0.012,0.01-0.028,0.011-0.041,0.021c-0.036,0.03-0.054,0.072-0.085,0.104c-0.012,0.01-0.028,0.011-0.04,0.021
			c-0.036,0.03-0.054,0.072-0.085,0.104c-0.012,0.01-0.028,0.011-0.04,0.021c-0.036,0.03-0.054,0.072-0.085,0.104
			c-0.012,0.01-0.028,0.011-0.04,0.021c-0.036,0.03-0.054,0.072-0.085,0.104c-0.012,0.01-0.028,0.011-0.04,0.021
			c-0.036,0.03-0.054,0.072-0.085,0.104c-0.012,0.01-0.028,0.011-0.04,0.021c-0.036,0.03-0.054,0.072-0.085,0.104
			c-0.012,0.01-0.028,0.011-0.04,0.021c-0.036,0.03-0.054,0.072-0.085,0.104c-0.012,0.01-0.028,0.011-0.04,0.021
			c-0.036,0.03-0.054,0.072-0.085,0.104c-0.012,0.01-0.028,0.011-0.04,0.021c-0.036,0.03-0.054,0.072-0.085,0.104
			c-0.012,0.01-0.028,0.011-0.04,0.021c-0.036,0.03-0.054,0.072-0.085,0.104c-0.012,0.01-0.028,0.011-0.04,0.021
			c-0.036,0.03-0.054,0.072-0.085,0.104c-0.012,0.01-0.028,0.011-0.04,0.021c-0.036,0.03-0.054,0.072-0.085,0.104
			c-0.012,0.01-0.028,0.011-0.04,0.021c-0.036,0.03-0.054,0.072-0.085,0.104c-0.012,0.01-0.028,0.011-0.04,0.021
			c-0.036,0.03-0.054,0.072-0.085,0.104c-0.012,0.01-0.028,0.011-0.04,0.021c-0.036,0.03-0.054,0.072-0.085,0.104
			c-0.012,0.01-0.028,0.011-0.04,0.021c-0.036,0.03-0.054,0.072-0.085,0.104c-0.012,0.01-0.028,0.011-0.04,0.021
			c-0.036,0.03-0.054,0.072-0.085,0.104c-0.012,0.01-0.028,0.011-0.04,0.021c-0.036,0.03-0.054,0.072-0.085,0.104
			c-0.012,0.01-0.028,0.011-0.04,0.021c-0.036,0.03-0.054,0.072-0.085,0.104c-0.012,0.01-0.028,0.011-0.04,0.021
			c-0.036,0.03-0.054,0.072-0.085,0.104c-0.012,0.01-0.028,0.011-0.04,0.021c-0.036,0.03-0.054,0.072-0.085,0.104
			c-0.012,0.01-0.028,0.011-0.04,0.021c-0.036,0.03-0.054,0.072-0.085,0.104c-0.012,0.01-0.028,0.011-0.04,0.021
			c-0.036,0.03-0.054,0.072-0.085,0.104c-0.012,0.01-0.028,0.011-0.04,0.021c-0.036,0.03-0.054,0.072-0.085,0.104
			c-0.012,0.01-0.028,0.011-0.04,0.021c-0.036,0.03-0.054,0.072-0.085,0.104c-0.012,0.01-0.028,0.011-0.04,0.021
			c-0.036,0.03-0.054,0.072-0.085,0.104c-0.012,0.01-0.028,0.011-0.04,0.021c-0.036,0.03-0.054,0.072-0.085,0.104
			c-0.012,0.01-0.028,0.011-0.04,0.021c-0.036,0.03-0.054,0.072-0.085,0.104c-0.012,0.01-0.028,0.011-0.04,0.021
			c-0.036,0.03-0.054,0.072-0.085,0.104c-0.012,0.01-0.028,0.011-0.04,0.021c-0.036,0.03-0.054,0.072-0.085,0.104
			c-0.012,0.01-0.028,0.011-0.04,0.021c-0.036,0.03-0.054,0.072-0.085,0.104c-0.012,0.01-0.028,0.011-0.04,0.021
			c-0.036,0.03-0.054,0.072-0.085,0.104c-0.012,0.01-0.028,0.011-0.04,0.021c-0.036,0.03-0.054,0.072-0.085,0.104
			c-0.012,0.01-0.028,0.011-0.04,0.021c-0.036,0.03-0.054,0.072-0.085,0.104c-0.012,0.01-0.028,0.011-0.04,0.021
			c-0.036,0.03-0.054,0.072-0.085,0.104c-0.012,0.01-0.028,0.011-0.04,0.021c-0.036,0.03-0.054,0.072-0.085,0.104
			c-0.012,0.01-0.028,0.011-0.04,0.021c-0.036,0.03-0.054,0.072-0.085,0.104c-0.012,0.01-0.028,0.011-0.04,0.021
			c-0.036,0.03-0.054,0.072-0.085,0.104c-0.012,0.01-0.028,0.011-0.04,0.021c-0.036,0.03-0.054,0.072-0.085,0.104
			c-0.012,0.01-0.028,0.011-0.04,0.021c-0.036,0.03-0.054,0.072-0.085,0.104c-0.012,0.01-0.028,0.011-0.04,0.021
			c-0.036,0.03-0.054,0.072-0.085,0.104c-0.012,0.01-0.028,0.011-0.04,0.021c-0.037,0.03-0.054,0.072-0.086,0.104
			c-0.012,0.009-0.027,0.011-0.039,0.021c-0.037,0.03-0.054,0.072-0.086,0.104c-0.012,0.009-0.027,0.011-0.039,0.021
			c-0.037,0.03-0.054,0.072-0.086,0.104c-0.012,0.009-0.027,0.011-0.039,0.021c-0.036,0.029-0.053,0.071-0.085,0.104
			c-0.013,0.01-0.028,0.011-0.041,0.021c-0.036,0.03-0.054,0.072-0.085,0.104c-0.012,0.01-0.028,0.011-0.04,0.021
			c-0.036,0.03-0.054,0.072-0.085,0.104c-0.012,0.01-0.028,0.011-0.04,0.021c-0.036,0.03-0.054,0.072-0.085,0.104
			c-0.012,0.01-0.028,0.011-0.04,0.021c-0.036,0.03-0.054,0.072-0.085,0.104c-0.012,0.01-0.028,0.011-0.04,0.021
			c-0.036,0.03-0.054,0.072-0.085,0.104c-0.012,0.01-0.028,0.011-0.04,0.021c-0.036,0.03-0.054,0.072-0.085,0.104
			c-0.012,0.01-0.028,0.011-0.04,0.021c-0.036,0.03-0.054,0.072-0.085,0.104c-0.012,0.01-0.028,0.011-0.04,0.021
			c-0.036,0.03-0.054,0.072-0.085,0.104c-0.012,0.01-0.028,0.011-0.04,0.021c-0.036,0.03-0.054,0.072-0.085,0.104
			c-0.012,0.01-0.028,0.011-0.04,0.021c-0.036,0.03-0.054,0.072-0.085,0.104c-0.012,0.01-0.028,0.011-0.04,0.021
			c-0.036,0.03-0.054,0.072-0.085,0.104c-0.012,0.01-0.028,0.011-0.04,0.021c-0.036,0.03-0.054,0.072-0.085,0.104
			c-0.012,0.01-0.028,0.011-0.04,0.021c-0.036,0.03-0.054,0.072-0.085,0.104c-0.012,0.01-0.028,0.011-0.04,0.021
			c-0.036,0.03-0.054,0.072-0.085,0.104c-0.012,0.01-0.028,0.011-0.04,0.021c-0.036,0.03-0.054,0.072-0.085,0.104
			c-0.012,0.01-0.028,0.011-0.04,0.021c-0.036,0.03-0.054,0.072-0.085,0.104c-0.012,0.01-0.028,0.011-0.04,0.021
			c-0.036,0.03-0.054,0.072-0.085,0.104c-0.012,0.01-0.028,0.011-0.04,0.021c-0.036,0.03-0.054,0.072-0.085,0.104
			c-0.012,0.01-0.028,0.011-0.04,0.021c-0.036,0.03-0.054,0.072-0.085,0.104c-0.012,0.01-0.028,0.011-0.04,0.021
			c-0.036,0.03-0.054,0.072-0.085,0.104c-0.012,0.01-0.028,0.011-0.04,0.021c-0.036,0.03-0.054,0.072-0.085,0.104
			c-0.012,0.01-0.028,0.011-0.04,0.021c-0.036,0.03-0.054,0.072-0.085,0.104c-0.012,0.01-0.028,0.011-0.04,0.021
			c-0.036,0.03-0.054,0.072-0.085,0.104c-0.012,0.01-0.028,0.011-0.04,0.021c-0.036,0.03-0.054,0.072-0.085,0.104
			c-0.012,0.01-0.028,0.011-0.04,0.021c-0.036,0.03-0.054,0.072-0.085,0.104c-0.012,0.01-0.028,0.011-0.04,0.021
			c-0.036,0.03-0.054,0.072-0.085,0.104c-0.012,0.01-0.028,0.011-0.04,0.021c-0.036,0.03-0.054,0.072-0.085,0.104
			c-0.012,0.01-0.028,0.011-0.04,0.021c-0.036,0.03-0.054,0.072-0.085,0.104c-0.012,0.01-0.028,0.011-0.04,0.021
			c-0.036,0.03-0.054,0.072-0.085,0.104c-0.012,0.01-0.028,0.011-0.04,0.021c-0.036,0.03-0.054,0.072-0.085,0.104
			c-0.012,0.01-0.028,0.011-0.04,0.021c-0.036,0.03-0.054,0.072-0.085,0.104c-0.012,0.01-0.028,0.011-0.04,0.021
			c-0.036,0.03-0.054,0.072-0.085,0.104c-0.012,0.01-0.028,0.011-0.04,0.021c-0.036,0.03-0.054,0.072-0.085,0.104
			c-0.012,0.01-0.028,0.011-0.04,0.021c-0.036,0.03-0.054,0.072-0.085,0.104c-0.012,0.01-0.028,0.011-0.04,0.021
			c-0.036,0.03-0.054,0.072-0.085,0.104c-0.012,0.01-0.028,0.011-0.04,0.021c-0.036,0.03-0.054,0.072-0.085,0.104
			c-0.012,0.01-0.028,0.011-0.04,0.021c-0.036,0.03-0.054,0.072-0.085,0.104c-0.012,0.01-0.028,0.011-0.04,0.021
			c-0.036,0.03-0.054,0.072-0.085,0.104c-0.012,0.01-0.028,0.011-0.04,0.021c-0.036,0.03-0.054,0.072-0.085,0.104
			c-0.012,0.01-0.028,0.011-0.04,0.021c-0.036,0.03-0.054,0.072-0.085,0.104c-0.012,0.01-0.028,0.011-0.04,0.021
			c-0.036,0.03-0.054,0.072-0.085,0.104c-0.012,0.01-0.028,0.011-0.04,0.021c-0.036,0.03-0.054,0.072-0.085,0.104
			c-0.012,0.01-0.028,0.011-0.04,0.021c-0.036,0.03-0.054,0.072-0.085,0.104c-0.012,0.01-0.028,0.011-0.04,0.021
			c-0.036,0.03-0.054,0.072-0.085,0.104c-0.012,0.01-0.028,0.011-0.04,0.021c-0.036,0.03-0.054,0.072-0.085,0.104
			c-0.012,0.01-0.028,0.011-0.04,0.021c-0.036,0.03-0.054,0.072-0.085,0.104c-0.012,0.01-0.028,0.011-0.04,0.021
			c-0.036,0.03-0.054,0.072-0.085,0.104c-0.012,0.01-0.028,0.011-0.04,0.021c-0.036,0.03-0.054,0.072-0.085,0.104
			c-0.012,0.01-0.028,0.011-0.04,0.021c-0.036,0.03-0.054,0.072-0.085,0.104c-0.012,0.01-0.028,0.011-0.04,0.021
			c-0.036,0.03-0.054,0.072-0.085,0.104c-0.012,0.01-0.028,0.011-0.04,0.021c-0.036,0.03-0.054,0.072-0.085,0.104
			c-0.012,0.01-0.028,0.011-0.04,0.021c-0.036,0.03-0.054,0.072-0.085,0.104c-0.012,0.01-0.028,0.011-0.04,0.021
			c-0.036,0.03-0.054,0.072-0.085,0.104c-0.012,0.01-0.028,0.011-0.04,0.021c-0.036,0.03-0.054,0.072-0.085,0.104
			c-0.012,0.01-0.028,0.011-0.04,0.021c-0.036,0.03-0.054,0.072-0.085,0.104c-0.012,0.01-0.028,0.011-0.04,0.021
			c-0.036,0.03-0.054,0.072-0.085,0.104c-0.012,0.01-0.028,0.011-0.04,0.021c-0.036,0.03-0.054,0.072-0.085,0.104
			c-0.012,0.01-0.028,0.011-0.04,0.021c-0.036,0.03-0.054,0.072-0.085,0.104c-0.012,0.01-0.028,0.011-0.04,0.021
			c-0.036,0.03-0.054,0.072-0.085,0.104c-0.012,0.01-0.028,0.011-0.04,0.021c-0.036,0.03-0.054,0.072-0.085,0.104
			c-0.012,0.01-0.028,0.011-0.04,0.021c-0.036,0.03-0.054,0.072-0.085,0.104c-0.012,0.01-0.028,0.011-0.04,0.021
			c-0.036,0.03-0.054,0.072-0.085,0.104c-0.012,0.01-0.028,0.011-0.04,0.021c-0.036,0.03-0.054,0.072-0.085,0.104
			c-0.012,0.01-0.028,0.011-0.04,0.021c-0.036,0.03-0.054,0.072-0.085,0.104c-0.012,0.01-0.028,0.011-0.04,0.021
			c-0.036,0.03-0.054,0.072-0.085,0.104c-0.012,0.01-0.028,0.011-0.04,0.021c-0.036,0.03-0.054,0.072-0.085,0.104
			c-0.012,0.01-0.028,0.011-0.04,0.021c-0.036,0.03-0.054,0.072-0.085,0.104c-0.012,0.01-0.028,0.011-0.04,0.021
			c-0.036,0.03-0.054,0.072-0.085,0.104c-0.012,0.01-0.028,0.011-0.04,0.021c-0.036,0.03-0.054,0.072-0.085,0.104
			c-0.012,0.01-0.028,0.011-0.04,0.021c-0.036,0.03-0.054,0.072-0.085,0.104c-0.012,0.01-0.028,0.011-0.04,0.021
			c-0.036,0.03-0.054,0.072-0.085,0.104c-0.012,0.01-0.028,0.011-0.04,0.021c-0.036,0.03-0.054,0.072-0.085,0.104
			c-0.012,0.01-0.028,0.011-0.04,0.021c-0.036,0.03-0.054,0.072-0.085,0.104c-0.012,0.01-0.028,0.011-0.04,0.021
			c-0.036,0.03-0.054,0.072-0.085,0.104c-0.012,0.01-0.028,0.011-0.04,0.021c-0.036,0.03-0.054,0.072-0.085,0.104
			c-0.012,0.01-0.028,0.011-0.04,0.021c-0.036,0.03-0.054,0.072-0.085,0.104c-0.012,0.01-0.028,0.011-0.04,0.021
			c-0.036,0.03-0.054,0.072-0.085,0.104c-0.012,0.01-0.028,0.011-0.04,0.021c-0.037,0.03-0.054,0.072-0.086,0.104
			c-0.012,0.009-0.027,0.011-0.039,0.021c-0.037,0.03-0.054,0.072-0.086,0.104c-0.012,0.009-0.027,0.011-0.039,0.021
			c-0.037,0.03-0.054,0.072-0.086,0.104c-0.012,0.009-0.027,0.011-0.039,0.021c-0.037,0.03-0.054,0.072-0.086,0.104
			c-0.012,0.009-0.027,0.011-0.039,0.021c-0.036,0.029-0.053,0.071-0.085,0.104c-0.013,0.01-0.028,0.011-0.041,0.021
			c-0.036,0.03-0.054,0.072-0.085,0.104c-0.012,0.01-0.028,0.011-0.04,0.021c-0.036,0.03-0.054,0.072-0.085,0.104
			c-0.012,0.01-0.028,0.011-0.04,0.021c-0.036,0.03-0.054,0.072-0.085,0.104c-0.012,0.01-0.028,0.011-0.04,0.021
			c-0.036,0.03-0.054,0.072-0.085,0.104c-0.012,0.01-0.028,0.011-0.04,0.021c-0.036,0.03-0.054,0.072-0.085,0.104
			c-0.012,0.01-0.028,0.011-0.04,0.021c-0.036,0.03-0.054,0.072-0.085,0.104c-0.012,0.01-0.028,0.011-0.04,0.021
			c-0.036,0.03-0.054,0.072-0.085,0.104c-0.012,0.01-0.028,0.011-0.04,0.021c-0.036,0.03-0.054,0.072-0.085,0.104
			c-0.012,0.01-0.028,0.011-0.04,0.021c-0.036,0.03-0.054,0.072-0.085,0.104c-0.012,0.01-0.028,0.011-0.04,0.021
			c-0.036,0.03-0.054,0.072-0.085,0.104c-0.012,0.01-0.028,0.011-0.04,0.021c-0.036,0.03-0.054,0.072-0.085,0.104
			c-0.012,0.01-0.028,0.011-0.04,0.021c-0.036,0.03-0.054,0.072-0.085,0.104c-0.012,0.01-0.028,0.011-0.04,0.021
			c-0.036,0.03-0.054,0.072-0.085,0.104c-0.012,0.01-0.028,0.011-0.04,0.021c-0.036,0.03-0.054,0.072-0.085,0.104
			c-0.012,0.01-0.028,0.011-0.04,0.021c-0.036,0.03-0.054,0.072-0.085,0.104c-0.012,0.01-0.028,0.011-0.04,0.021
			c-0.036,0.03-0.054,0.072-0.085,0.104c-0.012,0.01-0.028,0.011-0.04,0.021c-0.036,0.03-0.054,0.072-0.085,0.104
			c-0.012,0.01-0.028,0.011-0.04,0.021c-0.036,0.03-0.054,0.071-0.085,0.104c-0.012,0.009-0.027,0.011-0.04,0.021
			c-0.036,0.03-0.054,0.071-0.085,0.104c-0.012,0.009-0.027,0.011-0.04,0.021c-0.036,0.03-0.054,0.071-0.085,0.104
			c-0.012,0.009-0.027,0.011-0.04,0.021c-0.036,0.03-0.054,0.071-0.085,0.104c-0.012,0.009-0.027,0.011-0.04,0.021
			c-0.036,0.03-0.054,0.071-0.085,0.104c-0.012,0.009-0.027,0.011-0.04,0.021c-0.036,0.03-0.054,0.071-0.085,0.104
			c-0.012,0.009-0.027,0.011-0.04,0.021c-0.036,0.03-0.054,0.071-0.085,0.104c-0.012,0.009-0.027,0.011-0.04,0.021
			c-0.036,0.03-0.054,0.071-0.085,0.104c-0.012,0.009-0.027,0.011-0.04,0.021c-0.036,0.03-0.054,0.071-0.085,0.104
			c-0.012,0.009-0.027,0.011-0.04,0.021c-0.036,0.03-0.054,0.071-0.085,0.104c-0.012,0.009-0.027,0.011-0.04,0.021
			c-0.036,0.03-0.054,0.071-0.085,0.104c-0.012,0.009-0.027,0.011-0.04,0.021c-0.036,0.03-0.054,0.071-0.085,0.104
			c-0.012,0.009-0.027,0.011-0.04,0.021c-0.036,0.03-0.054,0.071-0.085,0.104c-0.012,0.009-0.027,0.011-0.04,0.021
			c-0.036,0.03-0.054,0.071-0.085,0.104c-0.012,0.009-0.027,0.011-0.04,0.021c-0.036,0.03-0.054,0.071-0.085,0.104
			c-0.012,0.009-0.027,0.011-0.04,0.021c-0.036,0.03-0.054,0.071-0.085,0.104c-0.012,0.009-0.027,0.011-0.04,0.021
			c-0.036,0.03-0.054,0.071-0.085,0.104c-0.012,0.009-0.027,0.011-0.04,0.021c-0.036,0.03-0.054,0.071-0.085,0.104
			c-0.012,0.009-0.027,0.011-0.04,0.021c-0.036,0.03-0.054,0.071-0.085,0.104c-0.012,0.009-0.027,0.011-0.04,0.021
			c-0.036,0.03-0.054,0.071-0.085,0.104c-0.012,0.009-0.027,0.011-0.04,0.021c-0.036,0.03-0.054,0.071-0.085,0.104
			c-0.012,0.009-0.027,0.011-0.04,0.021c-0.036,0.03-0.054,0.071-0.085,0.104c-0.012,0.009-0.027,0.011-0.04,0.021
			c-0.036,0.03-0.054,0.071-0.085,0.104c-0.012,0.009-0.027,0.011-0.04,0.021c-0.036,0.03-0.054,0.071-0.085,0.104
			c-0.012,0.009-0.027,0.011-0.04,0.021c-0.036,0.03-0.054,0.071-0.085,0.104c-0.012,0.009-0.027,0.011-0.04,0.021
			c-0.036,0.03-0.054,0.071-0.085,0.104c-0.012,0.009-0.027,0.011-0.04,0.021c-0.036,0.03-0.054,0.071-0.085,0.104
			c-0.012,0.009-0.027,0.011-0.04,0.021c-0.036,0.03-0.054,0.071-0.085,0.104c-0.012,0.009-0.027,0.011-0.04,0.021
			c-0.036,0.03-0.054,0.071-0.085,0.104c-0.012,0.009-0.027,0.011-0.04,0.021c-0.036,0.03-0.054,0.071-0.085,0.104
			c-0.012,0.009-0.027,0.011-0.04,0.021c-0.036,0.03-0.054,0.071-0.085,0.104c-0.012,0.009-0.027,0.011-0.04,0.021
			c-0.036,0.03-0.054,0.071-0.085,0.104c-0.012,0.009-0.027,0.011-0.04,0.021c-0.036,0.03-0.054,0.071-0.085,0.104
			c-0.012,0.009-0.027,0.011-0.04,0.021c-0.036,0.03-0.054,0.071-0.085,0.104c-0.012,0.009-0.027,0.011-0.04,0.021
			c-0.036,0.03-0.054,0.071-0.085,0.104c-0.012,0.009-0.027,0.011-0.04,0.021c-0.036,0.03-0.054,0.071-0.085,0.104
			c-0.012,0.009-0.027,0.011-0.04,0.021c-0.036,0.03-0.054,0.071-0.085,0.104c-0.012,0.009-0.027,0.011-0.04,0.021
			c-0.036,0.03-0.054,0.071-0.085,0.104c-0.012,0.009-0.027,0.011-0.04,0.021c-0.036,0.03-0.054,0.071-0.085,0.104
			c-0.012,0.009-0.027,0.011-0.04,0.021c-0.036,0.03-0.054,0.071-0.085,0.104c-0.012,0.009-0.027,0.011-0.04,0.021
			c-0.034,0.028-0.126,0.067-0.157,0.097c-2.299-0.371-4.088-0.805-6.754-1.295L36.403,50l0,0l0,0l1-1l0,0l0,0l4-4l0,0l0,0l1-1
			c0,0,0.001-0.354,0.002-0.441c0.013-0.836,0.035-2.306-1.041-3.399c-0.849-0.861-2.188-1.385-4.078-1.481
			c0.005-0.005,0.007-0.042,0.012-0.047c0.048-0.037,0.084-0.097,0.125-0.141c0.048-0.037,0.084-0.089,0.125-0.133
			c0.048-0.037,0.084-0.085,0.125-0.129c0.048-0.037,0.084-0.083,0.125-0.127c0.048-0.037,0.084-0.082,0.125-0.126
			c0.048-0.037,0.084-0.082,0.125-0.125c0.048-0.037,0.084-0.082,0.125-0.125c0.048-0.037,0.084-0.081,0.125-0.125
			c0.048-0.037,0.084-0.081,0.125-0.125c0.048-0.037,0.084-0.081,0.125-0.125c0.048-0.037,0.084-0.081,0.125-0.125
			c0.048-0.037,0.084-0.081,0.125-0.125c0.048-0.037,0.084-0.081,0.125-0.125c0.048-0.037,0.084-0.081,0.125-0.125
			c0.048-0.037,0.084-0.081,0.125-0.125c0.048-0.037,0.084-0.081,0.125-0.125c0.048-0.037,0.084-0.081,0.125-0.125
			c0.048-0.037,0.084-0.081,0.125-0.125c0.048-0.037,0.084-0.081,0.125-0.125c0.252-0.196,0.418-0.61,0.418-0.976
			c0-0.684-0.554-1.25-1.238-1.25H35.14c-0.387,0-0.718,0.278-0.945,0.524c-0.047,0.037-0.084,0.144-0.125,0.188
			c-0.047,0.037-0.084,0.112-0.125,0.156c-0.047,0.037-0.084,0.097-0.125,0.141c-0.047,0.037-0.084,0.089-0.125,0.133
			c-0.047,0.037-0.084,0.085-0.125,0.129c-0.047,0.037-0.084,0.083-0.125,0.127c-0.047,0.037-0.084,0.082-0.125,0.126
			c-0.047,0.037-0.084,0.082-0.125,0.125c-0.047,0.037-0.084,0.082-0.125,0.125c-0.047,0.037-0.084,0.081-0.125,0.125
			c-0.047,0.037-0.084,0.081-0.125,0.125c-0.047,0.037-0.084,0.081-0.125,0.125c-0.047,0.037-0.084,0.081-0.125,0.125
			c-0.047,0.037-0.084,0.081-0.125,0.125c-0.047,0.037-0.084,0.081-0.125,0.125c-0.047,0.037-0.084,0.081-0.125,0.125
			c-0.047,0.037-0.084,0.081-0.125,0.125c-0.047,0.037-0.084,0.081-0.125,0.125c-0.047,0.037-0.084,0.081-0.125,0.125
			c-0.047,0.037-0.084,0.081-0.125,0.125c-0.047,0.037-0.084,0.081-0.125,0.125c-0.047,0.037-0.084,0.081-0.125,0.125
			c-0.047,0.037-0.084,0.081-0.125,0.125c-0.047,0.037-0.084,0.081-0.125,0.125c-0.047,0.037-0.084,0.081-0.125,0.125
			c-0.048,0.037-0.085,0.082-0.125,0.125c-0.047,0.037-0.084,0.081-0.125,0.125c-0.047,0.037-0.084,0.081-0.125,0.125
			c-0.047,0.037-0.084,0.081-0.125,0.125c-0.047,0.037-0.084,0.081-0.125,0.125c-0.048,0.037-0.084,0.081-0.125,0.125
			c-0.048,0.037-0.084,0.081-0.125,0.125c-0.048,0.037-0.084,0.081-0.125,0.125c-0.048,0.037-0.084,0.081-0.125,0.125
			c-0.048,0.037-0.084,0.081-0.125,0.125c-0.047,0.037-0.084,0.081-0.125,0.125c-0.048,0.037-0.084,0.081-0.125,0.125
			c-0.048,0.037-0.084,0.081-0.125,0.125c-0.048,0.037-0.084,0.081-0.125,0.125c-0.048,0.037-0.084,0.081-0.125,0.125
			c-0.048,0.037-0.084,0.081-0.125,0.125c-0.048,0.037-0.084,0.081-0.125,0.125c-0.048,0.037-0.084,0.081-0.125,0.125
			c-0.048,0.037-0.084,0.081-0.125,0.125c-0.048,0.037-0.084,0.081-0.125,0.125c-0.048,0.037-0.084,0.081-0.125,0.125
			c-0.048,0.037-0.084,0.081-0.125,0.125c-0.048,0.037-0.084,0.081-0.125,0.125c-0.048,0.037-0.084,0.081-0.125,0.125
			c-0.048,0.037-0.084,0.081-0.125,0.125c-0.048,0.037-0.084,0.081-0.125,0.125c-0.048,0.037-0.084,0.081-0.125,0.125
			c-0.048,0.037-0.084,0.081-0.125,0.125c-0.048,0.037-0.084,0.081-0.125,0.125c-0.048,0.037-0.084,0.081-0.125,0.125
			c-0.048,0.037-0.084,0.081-0.125,0.125c-0.048,0.037-0.084,0.081-0.125,0.125c-0.048,0.037-0.084,0.081-0.125,0.125
			c-0.048,0.037-0.084,0.081-0.125,0.125c-0.048,0.037-0.084,0.081-0.125,0.125c-0.048,0.037-0.084,0.081-0.125,0.125
			c-0.048,0.037-0.084,0.081-0.125,0.125c-0.048,0.037-0.084,0.081-0.125,0.125c-0.048,0.037-0.084,0.081-0.125,0.125
			c-0.048,0.037-0.084,0.081-0.125,0.125c-0.047,0.037-0.084,0.081-0.125,0.125c-0.048,0.037-0.085,0.082-0.125,0.125
			c-0.047,0.037-0.084,0.081-0.125,0.125c-0.047,0.037-0.084,0.081-0.125,0.125c-0.047,0.037-0.084,0.081-0.125,0.125
			c-0.047,0.037-0.084,0.081-0.125,0.125c-0.047,0.037-0.084,0.081-0.125,0.125c-0.047,0.037-0.084,0.081-0.125,0.125
			c-0.047,0.037-0.084,0.081-0.125,0.125c-0.047,0.037-0.084,0.081-0.125,0.125c-0.047,0.037-0.084,0.081-0.125,0.125
			c-0.047,0.037-0.084,0.081-0.125,0.125c-0.047,0.037-0.084,0.081-0.125,0.125c-0.047,0.037-0.084,0.081-0.125,0.125
			c-0.047,0.037-0.084,0.081-0.125,0.125c-0.047,0.037-0.084,0.081-0.125,0.125c-0.047,0.037-0.084,0.081-0.125,0.125
			c-0.047,0.037-0.084,0.081-0.125,0.125c-0.047,0.037-0.084,0.081-0.125,0.125c-0.047,0.037-0.084,0.081-0.125,0.125
			c-0.047,0.037-0.084,0.081-0.125,0.125c-0.047,0.037-0.084,0.081-0.125,0.125c-0.047,0.037-0.084,0.081-0.125,0.125
			c-0.047,0.037-0.084,0.081-0.125,0.125c-0.047,0.037-0.084,0.081-0.125,0.125c-0.047,0.037-0.084,0.081-0.125,0.125
			c-0.047,0.037-0.084,0.081-0.125,0.125c-0.047,0.037-0.084,0.081-0.125,0.125c-0.047,0.037-0.084,0.081-0.125,0.125
			c-0.047,0.037-0.084,0.081-0.125,0.125c-0.047,0.037-0.084,0.081-0.125,0.125c-0.047,0.037-0.084,0.081-0.125,0.125
			c-0.047,0.037-0.084,0.081-0.125,0.125c-0.047,0.037-0.084,0.081-0.125,0.125c-0.047,0.037-0.084,0.081-0.125,0.125
			c-0.047,0.037-0.084,0.081-0.125,0.125c-0.047,0.037-0.084,0.081-0.125,0.125c-0.047,0.037-0.084,0.081-0.125,0.125
			c-0.047,0.037-0.084,0.081-0.125,0.125c-0.047,0.037-0.084,0.081-0.125,0.125c-0.047,0.037-0.084,0.081-0.125,0.125
			c-0.048,0.037-0.085,0.082-0.125,0.125c-0.047,0.037-0.084,0.081-0.125,0.125c-0.047,0.037-0.084,0.081-0.125,0.125
			c-0.047,0.037-0.084,0.081-0.125,0.125c-0.047,0.037-0.084,0.081-0.125,0.125c-0.047,0.037-0.084,0.081-0.125,0.125
			c-0.048,0.037-0.084,0.081-0.125,0.125c-0.048,0.037-0.084,0.081-0.125,0.125c-0.048,0.037-0.084,0.081-0.125,0.125
			c-0.048,0.037-0.084,0.081-0.125,0.125c-0.048,0.037-0.084,0.081-0.125,0.125c-0.047,0.037-0.084,0.081-0.125,0.125
			c-0.048,0.037-0.084,0.081-0.125,0.125c-0.048,0.037-0.084,0.081-0.125,0.125c-0.048,0.037-0.084,0.081-0.125,0.125
			c-0.048,0.037-0.084,0.081-0.125,0.125c-0.048,0.037-0.084,0.081-0.125,0.125c-0.048,0.037-0.084,0.081-0.125,0.125
			c-0.048,0.037-0.084,0.081-0.125,0.125c-0.048,0.037-0.084,0.081-0.125,0.125c-0.048,0.037-0.084,0.081-0.125,0.125
			c-0.048,0.037-0.084,0.081-0.125,0.125c-0.048,0.037-0.084,0.081-0.125,0.125c-0.048,0.037-0.084,0.081-0.125,0.125
			c-0.048,0.037-0.084,0.081-0.125,0.125c-0.048,0.037-0.084,0.081-0.125,0.125c-0.048,0.037-0.084,0.081-0.125,0.125
			c-0.048,0.037-0.084,0.081-0.125,0.125c-0.048,0.037-0.084,0.081-0.125,0.125c-0.048,0.037-0.084,0.081-0.125,0.125
			c-0.048,0.037-0.084,0.081-0.125,0.125c-0.048,0.037-0.084,0.081-0.125,0.125c-0.048,0.037-0.084,0.081-0.125,0.125
			c-0.048,0.037-0.084,0.081-0.125,0.125c-0.048,0.037-0.084,0.081-0.125,0.125c-0.048,0.037-0.084,0.081-0.125,0.125
			c-0.048,0.037-0.084,0.081-0.125,0.125c-0.048,0.037-0.084,0.081-0.125,0.125c-0.048,0.037-0.084,0.081-0.125,0.125
			c-0.048,0.037-0.084,0.081-0.125,0.125c-0.048,0.037-0.084,0.081-0.125,0.125c-0.047,0.037-0.084,0.081-0.125,0.125
			c-0.048,0.037-0.085,0.082-0.125,0.125c-0.047,0.037-0.084,0.081-0.125,0.125c-0.047,0.037-0.084,0.081-0.125,0.125
			c-0.047,0.037-0.084,0.081-0.125,0.125c-0.047,0.037-0.084,0.081-0.125,0.125c-0.047,0.037-0.084,0.081-0.125,0.125
			c-0.047,0.037-0.084,0.081-0.125,0.125c-0.047,0.037-0.084,0.081-0.125,0.125c-0.047,0.037-0.084,0.081-0.125,0.125
			c-0.047,0.037-0.084,0.081-0.125,0.125c-0.047,0.037-0.084,0.081-0.125,0.125c-0.047,0.037-0.084,0.081-0.125,0.125
			c-0.047,0.037-0.084,0.081-0.125,0.125c-0.047,0.037-0.084,0.081-0.125,0.125c-0.047,0.037-0.084,0.081-0.125,0.125
			c-0.047,0.037-0.084,0.081-0.125,0.125c-0.047,0.037-0.084,0.081-0.125,0.125c-0.047,0.037-0.084,0.081-0.125,0.125
			c-0.047,0.037-0.084,0.081-0.125,0.125c-0.047,0.037-0.084,0.081-0.125,0.125c-0.047,0.037-0.084,0.081-0.125,0.125
			c-0.047,0.037-0.084,0.081-0.125,0.125c-0.047,0.037-0.084,0.081-0.125,0.125c-0.047,0.037-0.084,0.081-0.125,0.125
			c-0.047,0.037-0.084,0.081-0.125,0.125c-0.047,0.037-0.084,0.081-0.125,0.125c-0.047,0.037-0.084,0.081-0.125,0.125
			c-0.047,0.037-0.084,0.081-0.125,0.125c-0.047,0.037-0.084,0.081-0.125,0.125c-0.047,0.037-0.084,0.081-0.125,0.125
			c-0.047,0.037-0.084,0.081-0.125,0.125c-0.047,0.037-0.084,0.081-0.125,0.125c-0.047,0.037-0.084,0.081-0.125,0.125
			c-0.047,0.037-0.084,0.081-0.125,0.125c-0.047,0.037-0.084,0.081-0.125,0.125c-0.047,0.037-0.084,0.081-0.125,0.125
			c-0.047,0.037-0.084,0.081-0.125,0.125c-0.047,0.037-0.084,0.081-0.125,0.125c-0.047,0.037-0.084,0.081-0.125,0.125
			c-0.047,0.037-0.084,0.081-0.125,0.125c-0.048,0.037-0.085,0.082-0.125,0.125c-0.047,0.037-0.084,0.081-0.125,0.125
			c-0.047,0.037-0.084,0.081-0.125,0.125c-0.047,0.037-0.084,0.081-0.125,0.125c-0.047,0.037-0.084,0.081-0.125,0.125
			c-0.047,0.037-0.084,0.081-0.125,0.125c-0.048,0.037-0.084,0.081-0.125,0.125c-0.048,0.037-0.084,0.081-0.125,0.125
			c-0.048,0.037-0.084,0.081-0.125,0.125c-0.048,0.037-0.084,0.081-0.125,0.125c-0.047,0.037-0.084,0.081-0.125,0.125
			c-0.048,0.037-0.084,0.081-0.125,0.125c-0.048,0.037-0.084,0.081-0.125,0.125c-0.048,0.037-0.084,0.081-0.125,0.125
			c-0.048,0.037-0.084,0.081-0.125,0.125c-0.048,0.037-0.084,0.081-0.125,0.125c-0.048,0.037-0.084,0.081-0.125,0.125
			c-0.048,0.037-0.084,0.081-0.125,0.125c-0.048,0.037-0.084,0.081-0.125,0.125c-0.048,0.037-0.084,0.081-0.125,0.125
			c-0.048,0.037-0.084,0.081-0.125,0.125c-0.048,0.037-0.084,0.081-0.125,0.125c-0.048,0.037-0.084,0.081-0.125,0.125
			c-0.048,0.037-0.084,0.081-0.125,0.125c-0.048,0.037-0.084,0.081-0.125,0.125c-0.048,0.037-0.084,0.081-0.125,0.125
			c-0.048,0.037-0.084,0.081-0.125,0.125c-0.048,0.037-0.084,0.081-0.125,0.125c-0.048,0.037-0.084,0.081-0.125,0.125
			c-0.048,0.037-0.084,0.081-0.125,0.125c-0.048,0.037-0.084,0.081-0.125,0.125c-0.048,0.037-0.084,0.081-0.125,0.125
			c-0.048,0.037-0.084,0.081-0.125,0.125c-0.048,0.037-0.084,0.081-0.125,0.125c-0.048,0.037-0.084,0.081-0.125,0.125
			c-0.048,0.037-0.084,0.081-0.125,0.125c-0.048,0.037-0.084,0.081-0.125,0.125c-0.048,0.037-0.084,0.081-0.125,0.125
			c-0.048,0.037-0.084,0.081-0.125,0.125c-0.048,0.037-0.084,0.081-0.125,0.125c-0.048,0.037-0.084,0.081-0.125,0.125
			c-0.047,0.037-0.084,0.081-0.125,0.125c-0.048,0.037-0.085,0.082-0.125,0.125c-0.047,0.037-0.084,0.081-0.125,0.125
			c-0.047,0.037-0.084,0.081-0.125,0.125c-0.047,0.037-0.084,0.081-0.125,0.125c-0.047,0.037-0.084,0.081-0.125,0.125
			c-0.047,0.037-0.084,0.081-0.125,0.125c-0.047,0.037-0.084,0.081-0.125,0.125c-0.047,0.037-0.084,0.081-0.125,0.125
			c-0.047,0.037-0.084,0.081-0.125,0.125c-0.047,0.037-0.084,0.082-0.125,0.125c-0.047,0.037-0.084,0.082-0.125,0.125
			c-0.047,0.037-0.084,0.082-0.125,0.125c-0.047,0.037-0.084,0.082-0.125,0.125c-0.047,0.037-0.084,0.082-0.125,0.125
			c-0.047,0.037-0.084,0.082-0.125,0.125c-0.047,0.037-0.084,0.082-0.125,0.125c-0.047,0.037-0.084,0.082-0.125,0.125
			c-0.047,0.037-0.084,0.082-0.125,0.125c-0.047,0.037-0.084,0.082-0.125,0.125c-0.047,0.037-0.084,0.082-0.125,0.125
			c-0.047,0.037-0.084,0.082-0.125,0.125c-0.047,0.037-0.084,0.082-0.125,0.125c-0.047,0.037-0.084,0.082-0.125,0.125
			c-0.047,0.037-0.084,0.082-0.125,0.125c-0.047,0.037-0.084,0.082-0.125,0.125c-0.047,0.037-0.084,0.082-0.125,0.125
			c-0.047,0.037-0.084,0.082-0.125,0.125c-0.047,0.037-0.084,0.082-0.125,0.125c-0.047,0.037-0.084,0.082-0.125,0.125
			c-0.047,0.037-0.084,0.082-0.125,0.125c-0.047,0.037-0.084,0.082-0.125,0.125c-0.047,0.037-0.084,0.082-0.125,0.125
			c-0.047,0.037-0.084,0.082-0.125,0.125c-0.047,0.037-0.084,0.082-0.125,0.125c-0.047,0.037-0.084,0.082-0.125,0.125
			c-0.047,0.037-0.084,0.082-0.125,0.125c-0.047,0.037-0.084,0.082-0.125,0.125c-0.047,0.037-0.084,0.082-0.125,0.125
			c-0.047,0.037-0.084,0.082-0.125,0.125c-0.047,0.037-0.084,0.082-0.125,0.125C0.397,68.436,0.36,68.48,0.32,68.523
			c-0.047,0.037-0.084,0.082-0.125,0.125c-0.047,0.037-0.084,0.082-0.125,0.125c-0.047,0.037-0.084,0.082-0.125,0.125
			c-0.047,0.037-0.084,0.082-0.125,0.125c-0.047,0.037-0.084,0.082-0.125,0.125c-0.048,0.037-0.084,0.082-0.125,0.125
			c-0.048,0.037-0.084,0.082-0.125,0.125c-0.048,0.037-0.084,0.082-0.125,0.125c-0.048,0.037-0.084,0.082-0.125,0.125
			c-0.047,0.037-0.084,0.082-0.125,0.125c-0.048,0.037-0.084,0.082-0.125,0.125c-0.048,0.037-0.084,0.082-0.125,0.125
			c-0.048,0.037-0.084,0.082-0.125,0.125c-0.048,0.037-0.084,0.082-0.125,0.125c-0.048,0.037-0.084,0.082-0.125,0.125
			c-0.048,0.037-0.084,0.082-0.125,0.125c-0.048,0.037-0.084,0.082-0.125,0.125c-0.048,0.037-0.084,0.082-0.125,0.125
			c-0.048,0.037-0.084,0.082-0.125,0.125c-0.048,0.037-0.084,0.082-0.125,0.125c-0.048,0.037-0.084,0.082-0.125,0.125
			c-0.048,0.037-0.084,0.082-0.125,0.125c-0.048,0.037-0.084,0.082-0.125,0.125c-0.048,0.037-0.084,0.082-0.125,0.125
			c-0.048,0.037-0.084,0.082-0.125,0.125c-0.048,0.037-0.084,0.082-0.125,0.125c-0.048,0.037-0.084,0.082-0.125,0.125
			c-0.048,0.037-0.084,0.082-0.125,0.125c-0.048,0.037-0.084,0.082-0.125,0.125c-0.048,0.037-0.084,0.082-0.125,0.125
			c-0.048,0.037-0.084,0.082-0.125,0.125c-0.048,0.037-0.084,0.082-0.125,0.125c-0.048,0.037-0.084,0.082-0.125,0.125
			c-0.048,0.037-0.084,0.082-0.125,0.125c-0.048,0.037-0.084,0.082-0.125,0.125c-0.048,0.037-0.084,0.082-0.125,0.125
			c-0.048,0.037-0.084,0.082-0.125,0.125c-0.048,0.037-0.084,0.082-0.125,0.125c-0.048,0.037-0.084,0.082-0.125,0.125
			c-0.047,0.037-0.084,0.082-0.125,0.125c-0.048,0.037-0.085,0.082-0.125,0.125c-0.047,0.037-0.084,0.082-0.125,0.125
			c-0.047,0.037-0.084,0.082-0.125,0.125c-0.047,0.037-0.084,0.082-0.125,0.125c-0.047,0.037-0.084,0.082-0.125,0.125
			c-0.047,0.037-0.084,0.082-0.125,0.125c-0.047,0.037-0.084,0.082-0.125,0.125c-0.047,0.037-0.084,0.082-0.125,0.125
			c-0.047,0.037-0.084,0.082-0.125,0.125c-0.047,0.037-0.084,0.082-0.125,0.125c-0.047,0.037-0.084,0.082-0.125,0.125
			c-0.047,0.037-0.084,0.082-0.125,0.125c-0.047,0.037-0.084,0.082-0.125,0.125c-0.047,0.037-0.084,0.082-0.125,0.125
			c-0.047,0.037-0.084,0.082-0.125,0.125c-0.047,0.037-0.084,0.082-0.125,0.125c-0.047,0.037-0.084,0.082-0.125,0.125
			c-0.047,0.037-0.084,0.082-0.125,0.125c-0.047,0.037-0.084,0.082-0.125,0.125c-0.047,0.037-0.084,0.082-0.125,0.125
			c-0.047,0.037-0.084,0.082-0.125,0.125c-0.047,0.037-0.084,0.082-0.125,0.125c-0.047,0.037-0.084,0.082-0.125,0.125
			c-0.047,0.037-0.084,0.082-0.125,0.125c-0.047,0.037-0.084,0.082-0.125,0.125c-0.047,0.037-0.084,0.082-0.125,0.125
			c-0.047,0.037-0.084,0.082-0.125,0.125c-0.047,0.037-0.084,0.082-0.125,0.125c-0.047,0.037-0.084,0.082-0.125,0.125
			c-0.047,0.037-0.084,0.082-0.125,0.125c-0.047,0.037-0.084,0.082-0.125,0.125c-0.047,0.037-0.084,0.082-0.125,0.125
			c-0.047,0.037-0.084,0.082-0.125,0.125c-0.047,0.037-0.084,0.082-0.125,0.125c-0.047,0.037-0.084,0.082-0.125,0.125
			c-0.047,0.037-0.084,0.082-0.125,0.125c-0.047,0.037-0.084,0.082-0.125,0.125c-0.047,0.037-0.084,0.082-0.125,0.125
			c-0.252,0.197-0.418,0.484-0.418,0.852c0,0.007,0.004,0.012,0.004,0.02c-0.013,0.014-0.02,0.032-0.032,0.047
			c-0.045,0.039-0.086,0.08-0.125,0.125c-0.045,0.039-0.086,0.08-0.125,0.125c-0.045,0.039-0.086,0.08-0.125,0.125
			c-0.045,0.039-0.086,0.08-0.125,0.125c-0.045,0.039-0.086,0.08-0.125,0.125c-0.045,0.039-0.085,0.08-0.125,0.125
			c-0.045,0.039-0.085,0.08-0.125,0.125c-0.045,0.039-0.085,0.08-0.125,0.125c-0.045,0.039-0.085,0.08-0.125,0.125
			c-0.045,0.039-0.086,0.08-0.125,0.125c-0.045,0.039-0.085,0.08-0.125,0.125c-0.045,0.039-0.085,0.08-0.125,0.125
			c-0.045,0.039-0.085,0.08-0.125,0.125c-0.045,0.039-0.085,0.08-0.125,0.125c-0.045,0.039-0.085,0.08-0.125,0.125
			c-0.045,0.039-0.085,0.08-0.125,0.125c-0.045,0.039-0.085,0.08-0.125,0.125c-0.045,0.039-0.085,0.08-0.125,0.125
			c-0.045,0.039-0.085,0.08-0.125,0.125c-0.045,0.039-0.085,0.08-0.125,0.125c-0.045,0.039-0.085,0.08-0.125,0.125
			c-0.045,0.039-0.085,0.08-0.125,0.125c-0.045,0.039-0.085,0.08-0.125,0.125c-0.045,0.039-0.085,0.08-0.125,0.125
			c-0.045,0.039-0.085,0.08-0.125,0.125c-0.045,0.039-0.085,0.08-0.125,0.125c-0.045,0.039-0.085,0.08-0.125,0.125
			c-0.045,0.039-0.085,0.08-0.125,0.125c-0.045,0.039-0.085,0.08-0.125,0.125c-0.045,0.039-0.085,0.08-0.125,0.125
			c-0.045,0.039-0.085,0.08-0.125,0.125c-0.045,0.039-0.085,0.08-0.125,0.125c-0.045,0.039-0.085,0.08-0.125,0.125
			c-0.045,0.039-0.085,0.08-0.125,0.125c-0.045,0.039-0.085,0.08-0.125,0.125c-0.045,0.039-0.085,0.08-0.125,0.125
			c-0.045,0.039-0.085,0.08-0.125,0.125c-0.045,0.039-0.085,0.08-0.125,0.125c-0.045,0.039-0.085,0.08-0.125,0.125
			c-0.045,0.039-0.085,0.08-0.125,0.125c-0.045,0.039-0.085,0.08-0.125,0.125c-0.045,0.039-0.086,0.08-0.125,0.125
			c-0.045,0.039-0.086,0.08-0.125,0.125c-0.045,0.039-0.086,0.08-0.125,0.125c-0.045,0.039-0.086,0.08-0.125,0.125
			c-0.045,0.039-0.086,0.08-0.125,0.125c-0.045,0.039-0.086,0.08-0.125,0.125c-0.045,0.039-0.086,0.08-0.125,0.125
			c-0.045,0.039-0.086,0.08-0.125,0.125c-0.045,0.039-0.086,0.08-0.125,0.125c-0.045,0.039-0.086,0.08-0.125,0.125
			c-0.045,0.039-0.085,0.08-0.125,0.125c-0.045,0.039-0.085,0.08-0.125,0.125c-0.045,0.039-0.085,0.08-0.125,0.125
			c-0.045,0.039-0.085,0.08-0.125,0.125c-0.045,0.039-0.085,0.08-0.125,0.125c-0.045,0.039-0.085,0.08-0.125,0.125
			c-0.045,0.039-0.085,0.08-0.125,0.125c-0.045,0.039-0.085,0.08-0.125,0.125c-0.045,0.039-0.085,0.08-0.125,0.125
			c-0.045,0.039-0.085,0.08-0.125,0.125c-0.045,0.039-0.085,0.08-0.125,0.125c-0.045,0.039-0.085,0.08-0.125,0.125
			c-0.045,0.039-0.085,0.08-0.125,0.125c-0.045,0.039-0.085,0.08-0.125,0.125c-0.045,0.039-0.085,0.08-0.125,0.125
			c-0.045,0.039-0.085,0.08-0.125,0.125c-0.045,0.039-0.085,0.08-0.125,0.125c-0.045,0.039-0.085,0.08-0.125,0.125
			c-0.045,0.039-0.085,0.08-0.125,0.125c-0.045,0.039-0.085,0.08-0.125,0.125c-0.045,0.039-0.085,0.08-0.125,0.125
			c-0.045,0.039-0.085,0.08-0.125,0.125c-0.045,0.039-0.085,0.08-0.125,0.125c-0.045,0.039-0.085,0.08-0.125,0.125
			c-0.045,0.039-0.085,0.08-0.125,0.125c-0.045,0.039-0.085,0.08-0.125,0.125c-0.045,0.039-0.085,0.08-0.125,0.125
			c-0.045,0.039-0.085,0.08-0.125,0.125c-0.045,0.039-0.085,0.08-0.125,0.125c-0.045,0.039-0.085,0.08-0.125,0.125
			c-0.045,0.039-0.085,0.08-0.125,0.125c-0.045,0.039-0.086,0.08-0.125,0.125c-0.045,0.039-0.086,0.08-0.125,0.125
			c-0.045,0.039-0.086,0.08-0.125,0.125c-0.045,0.039-0.086,0.08-0.125,0.125c-0.045,0.039-0.086,0.08-0.125,0.125
			c-0.045,0.039-0.085,0.08-0.125,0.125c-0.045,0.039-0.085,0.08-0.125,0.125c-0.045,0.039-0.085,0.08-0.125,0.125
			c-0.045,0.039-0.085,0.08-0.125,0.125c-0.045,0.039-0.086,0.08-0.125,0.125c-0.045,0.039-0.085,0.08-0.125,0.125
			c-0.045,0.039-0.085,0.08-0.125,0.125c-0.045,0.039-0.085,0.08-0.125,0.125c-0.045,0.039-0.085,0.08-0.125,0.125
			c-0.045,0.039-0.085,0.08-0.125,0.125c-0.045,0.039-0.085,0.08-0.125,0.125c-0.045,0.039-0.085,0.08-0.125,0.125
			c-0.045,0.039-0.085,0.08-0.125,0.125c-0.045,0.039-0.085,0.08-0.125,0.125c-0.045,0.039-0.085,0.08-0.125,0.125
			c-0.045,0.039-0.085,0.08-0.125,0.125c-0.045,0.039-0.085,0.08-0.125,0.125c-0.045,0.039-0.085,0.08-0.125,0.125
			c-0.045,0.039-0.085,0.08-0.125,0.125c-0.045,0.039-0.085,0.08-0.125,0.125c-0.045,0.039-0.085,0.08-0.125,0.125
			c-0.045,0.039-0.085,0.08-0.125,0.125c-0.045,0.039-0.085,0.08-0.125,0.125c-0.045,0.039-0.085,0.08-0.125,0.125
			c-0.045,0.039-0.085,0.08-0.125,0.125c-0.045,0.039-0.085,0.08-0.125,0.125c-0.045,0.039-0.085,0.08-0.125,0.125
			c-0.045,0.039-0.085,0.08-0.125,0.125c-0.045,0.039-0.085,0.08-0.125,0.125c-0.045,0.039-0.085,0.08-0.125,0.125
			c-0.045,0.039-0.085,0.08-0.125,0.125c-0.045,0.039-0.085,0.08-0.125,0.125c-0.045,0.039-0.085,0.08-0.125,0.125
			c-0.045,0.039-0.085,0.08-0.125,0.125c-0.045,0.039-0.085,0.08-0.125,0.125c-0.045,0.039-0.086,0.08-0.125,0.125
			c-0.264,0.23-0.439,0.685-0.439,1.06c0,0.685,0.555,1.375,1.238,1.375h8.168c0.028,0.026,0.057,0.058,0.087,0.087
			c-0.098-0.02-0.205-0.041-0.299-0.061c0.065,0.064,0.115,0.117,0.174,0.18c-0.098-0.02-0.205-0.038-0.299-0.059
			c0.065,0.065,0.115,0.119,0.174,0.183c-0.098-0.021-0.205-0.038-0.299-0.058c0.065,0.064,0.115,0.119,0.174,0.182
			c-0.098-0.02-0.205-0.037-0.299-0.057c0.065,0.064,0.115,0.119,0.174,0.182c-0.098-0.02-0.205-0.037-0.299-0.057
			c0.065,0.064,0.115,0.119,0.174,0.182c-0.098-0.02-0.205-0.037-0.299-0.057c0.065,0.064,0.115,0.119,0.174,0.182
			c-0.098-0.02-0.205-0.037-0.299-0.057c0.065,0.064,0.115,0.119,0.174,0.182c-0.098-0.02-0.205-0.037-0.299-0.057
			c0.065,0.064,0.115,0.119,0.174,0.182c-0.098-0.02-0.205-0.037-0.299-0.057c0.065,0.064,0.115,0.119,0.174,0.182
			c-0.098-0.02-0.205-0.037-0.299-0.057c0.065,0.064,0.115,0.119,0.174,0.182c-0.098-0.02-0.205-0.037-0.299-0.057
			c0.065,0.064,0.115,0.119,0.174,0.182c-0.098-0.02-0.205-0.037-0.299-0.057c0.065,0.064,0.115,0.119,0.174,0.182
			c-0.098-0.02-0.205-0.037-0.299-0.057c0.065,0.064,0.115,0.119,0.174,0.182c-0.098-0.02-0.205-0.037-0.299-0.057
			c0.065,0.064,0.115,0.119,0.174,0.182c-0.098-0.02-0.205-0.037-0.299-0.057c0.065,0.064,0.115,0.119,0.174,0.182
			c-0.098-0.02-0.205-0.037-0.299-0.057c0.065,0.064,0.115,0.119,0.174,0.182c-0.098-0.02-0.205-0.037-0.299-0.057
			c0.065,0.064,0.115,0.119,0.174,0.182c-0.098-0.02-0.205-0.037-0.299-0.057c0.065,0.064,0.115,0.119,0.174,0.182
			c-0.098-0.02-0.205-0.037-0.299-0.057c0.065,0.064,0.115,0.119,0.174,0.182c-0.098-0.02-0.205-0.037-0.299-0.057
			c0.065,0.064,0.115,0.119,0.174,0.182c-0.098-0.02-0.205-0.037-0.299-0.057c0.065,0.064,0.115,0.119,0.174,0.182
			c-0.098-0.02-0.205-0.037-0.299-0.057c0.065,0.064,0.115,0.119,0.174,0.182c-0.098-0.02-0.205-0.037-0.299-0.057
			c0.065,0.064,0.115,0.119,0.174,0.182c-0.098-0.02-0.205-0.037-0.299-0.057c0.065,0.064,0.115,0.119,0.174,0.182
			c-0.098-0.02-0.205-0.037-0.299-0.057c0.065,0.064,0.115,0.119,0.174,0.182c-0.098-0.02-0.205-0.037-0.299-0.057
			c0.065,0.064,0.115,0.119,0.174,0.182c-0.098-0.02-0.205-0.037-0.299-0.057c0.065,0.064,0.115,0.119,0.174,0.182
			c-0.098-0.02-0.205-0.037-0.299-0.057c0.065,0.064,0.115,0.119,0.174,0.182c-0.098-0.02-0.205-0.037-0.299-0.057
			c0.065,0.064,0.115,0.119,0.174,0.182c-0.098-0.02-0.205-0.037-0.299-0.057c0.065,0.064,0.115,0.119,0.174,0.182
			c-0.098-0.02-0.205-0.037-0.299-0.057c0.065,0.064,0.115,0.119,0.174,0.182c-0.098-0.02-0.205-0.037-0.299-0.057
			c0.065,0.064,0.115,0.119,0.174,0.182c-0.098-0.02-0.205-0.037-0.3-0.057c0.065,0.064,0.115,0.119,0.174,0.182
			c-0.098-0.02-0.076-0.037-0.17-0.057c1.305,1.306,1.497,1.732,1.497,2.641s0,14.386,0,19.143c0,1.504,0.276,2.969,1.308,4.006
			c-0.008,0.008-0.079,0.018-0.087,0.024c-0.043,0.042-0.117,0.084-0.157,0.125c-0.043,0.042-0.101,0.084-0.141,0.125
			c-0.043,0.042-0.093,0.084-0.133,0.125c-0.043,0.042-0.089,0.084-0.129,0.125c-0.043,0.042-0.087,0.083-0.127,0.125
			c-0.043,0.042-0.086,0.083-0.126,0.125c-0.044,0.042-0.086,0.083-0.125,0.125c-0.044,0.042-0.085,0.083-0.125,0.125
			c-0.044,0.042-0.086,0.083-0.125,0.125c-0.044,0.042-0.085,0.083-0.125,0.125c-0.044,0.042-0.085,0.083-0.125,0.125
			c-0.044,0.042-0.085,0.083-0.125,0.125c-0.044,0.042-0.085,0.083-0.125,0.125c-0.044,0.042-0.085,0.083-0.125,0.125
			c-0.044,0.042-0.085,0.083-0.125,0.125c-0.043,0.041-0.084,0.082-0.124,0.123c-0.044,0.043-0.086,0.085-0.127,0.127
			c-0.043,0.042-0.085,0.084-0.125,0.125c-0.043,0.042-0.085,0.084-0.125,0.125c-0.043,0.042-0.085,0.084-0.125,0.125
			c-0.043,0.042-0.085,0.084-0.125,0.125c-0.043,0.042-0.085,0.084-0.125,0.125c-0.043,0.042-0.085,0.084-0.125,0.125
			c-0.043,0.042-0.085,0.084-0.125,0.125c-0.043,0.042-0.085,0.084-0.125,0.125c-0.043,0.042-0.085,0.084-0.125,0.125
			c-0.043,0.042-0.085,0.084-0.125,0.125c-0.043,0.042-0.085,0.084-0.125,0.125c-0.043,0.042-0.085,0.084-0.125,0.125
			c-0.456,0.437-0.728,0.89-0.728,1.322c0,1.655,0.928,2.905,1.641,3.62c-0.033,0.031-0.062,0.063-0.09,0.095
			c-0.045,0.042-0.087,0.083-0.125,0.125c-0.045,0.042-0.087,0.083-0.125,0.125c-0.045,0.042-0.087,0.083-0.125,0.125
			c-0.045,0.042-0.087,0.083-0.125,0.125c-0.045,0.042-0.087,0.083-0.125,0.125c-0.045,0.042-0.087,0.083-0.125,0.125
			c-0.045,0.042-0.087,0.083-0.125,0.125c-0.045,0.042-0.087,0.083-0.125,0.125c-0.045,0.042-0.087,0.083-0.125,0.125
			c-0.045,0.042-0.087,0.083-0.125,0.125c-0.045,0.042-0.087,0.083-0.125,0.125c-0.045,0.042-0.087,0.083-0.125,0.125
			c-0.045,0.042-0.087,0.083-0.125,0.125c-0.045,0.042-0.087,0.083-0.125,0.125c-0.045,0.042-0.087,0.083-0.125,0.125
			c-0.045,0.042-0.087,0.083-0.125,0.125c-0.147,0.134-0.262,0.271-0.316,0.408c-0.734,1.848,2.292,4.598,4.564,2.042
			c0.042-0.042,0.084-0.078,0.125-0.125c0.042-0.042,0.084-0.078,0.125-0.125c0.042-0.042,0.084-0.078,0.125-0.125
			c0.042-0.042,0.084-0.078,0.125-0.125c0.042-0.042,0.084-0.078,0.125-0.125c0.042-0.042,0.084-0.078,0.125-0.125
			c0.042-0.042,0.084-0.078,0.125-0.125c0.042-0.042,0.084-0.078,0.125-0.125c0.042-0.042,0.084-0.078,0.125-0.125
			c0.042-0.042,0.084-0.078,0.125-0.125c0.042-0.042,0.084-0.078,0.125-0.125c0.042-0.042,0.084-0.078,0.125-0.125
			c0.042-0.042,0.084-0.078,0.125-0.125c0.042-0.042,0.084-0.078,0.125-0.125c0.042-0.042,0.084-0.078,0.125-0.125
			c0.042-0.042,0.084-0.078,0.125-0.125c0.042-0.042,0.083-0.077,0.125-0.124c0.042-0.043,0.084-0.079,0.126-0.126
			c0.042-0.042,0.084-0.078,0.125-0.125c0.042-0.042,0.084-0.078,0.125-0.125c0.042-0.042,0.084-0.078,0.125-0.125
			c0.042-0.042,0.084-0.078,0.125-0.125c0.042-0.042,0.084-0.078,0.125-0.125c0.042-0.042,0.084-0.078,0.125-0.125
			c0.042-0.042,0.084-0.078,0.125-0.125c0.042-0.042,0.084-0.078,0.125-0.125c0.042-0.042,0.084-0.078,0.125-0.125
			c0.042-0.042,0.084-0.078,0.125-0.125c0.042-0.042,0.084-0.078,0.125-0.125c0.042-0.042,0.084-0.078,0.125-0.125
			c0.042-0.042,0.084-0.078,0.125-0.125c0.042-0.042,0.084-0.078,0.125-0.125c0.042-0.042,0.084-0.078,0.125-0.125
			c0.042-0.042,0.084-0.078,0.125-0.125c0.042-0.042,0.083-0.078,0.125-0.124c0.042-0.043,0.084-0.079,0.125-0.126
			c0.042-0.042,0.084-0.078,0.125-0.125c0.042-0.042,0.084-0.078,0.125-0.125c0.042-0.042,0.084-0.078,0.125-0.125
			c0.042-0.042,0.084-0.078,0.125-0.125c0.042-0.042,0.084-0.078,0.125-0.125c0.042-0.042,0.084-0.078,0.125-0.125
			c0.042-0.042,0.084-0.078,0.125-0.125c0.042-0.042,0.084-0.078,0.125-0.125c0.042-0.042,0.084-0.078,0.125-0.125
			c0.042-0.042,0.084-0.078,0.125-0.125c0.042-0.042,0.084-0.078,0.125-0.125c0.042-0.042,0.084-0.078,0.125-0.125
			c0.042-0.042,0.084-0.078,0.125-0.125c0.042-0.042,0.084-0.078,0.125-0.125c0.042-0.042,0.084-0.078,0.125-0.125
			c0.042-0.042,0.084-0.078,0.125-0.125c0.042-0.042,0.084-0.078,0.125-0.125c0.042-0.042,0.084-0.078,0.125-0.125
			c0.042-0.042,0.084-0.078,0.125-0.125c0.042-0.042,0.084-0.078,0.125-0.125c0.042-0.042,0.084-0.078,0.125-0.125
			c0.042-0.042,0.083-0.077,0.125-0.124c0.042-0.043,0.084-0.079,0.126-0.126c0.042-0.042,0.084-0.078,0.125-0.125
			c0.042-0.042,0.084-0.078,0.125-0.125c0.042-0.042,0.084-0.078,0.125-0.125c0.042-0.042,0.084-0.078,0.125-0.125
			c0.042-0.042,0.084-0.078,0.125-0.125c0.042-0.042,0.084-0.078,0.125-0.125c0.042-0.042,0.084-0.078,0.125-0.125
			c0.042-0.042,0.084-0.078,0.125-0.125c0.042-0.042,0.084-0.078,0.125-0.125c0.042-0.042,0.084-0.078,0.125-0.125
			c0.042-0.042,0.084-0.078,0.125-0.125c0.042-0.042,0.084-0.078,0.125-0.125c0.042-0.042,0.084-0.078,0.125-0.125
			c0.02-0.021,0.041-0.034,0.061-0.057c2.874-0.231,4.745-0.795,5.872-2.018c2.346,0,23.57,0,23.57,0s21.225,0,23.57,0
			c1.613,1.75,4.846,2.164,10.314,2.164c2.357,0,4.011,0.338,4.011,1.762c0,1.299,0,5.043,0,5.766c1,3.043,3.504,2.76,4.652,1.613
			c0.044-0.039,0.021-0.084,0.063-0.125c0.044-0.039,0.051-0.084,0.093-0.125c0.044-0.039,0.067-0.084,0.109-0.125
			c0.044-0.039,0.075-0.084,0.117-0.125c0.044-0.039,0.079-0.084,0.121-0.125c0.044-0.039,0.081-0.084,0.123-0.125
			c0.044-0.039,0.082-0.084,0.124-0.125c0.044-0.039,0.083-0.084,0.125-0.125c0.044-0.039,0.083-0.082,0.125-0.125
			c0.044-0.039,0.083-0.082,0.125-0.125c0.044-0.039,0.083-0.082,0.125-0.125c0.044-0.039,0.083-0.082,0.125-0.125
			c0.044-0.039,0.083-0.082,0.125-0.125c0.044-0.039,0.083-0.082,0.125-0.125c0.044-0.039,0.083-0.082,0.125-0.125
			c0.044-0.039,0.083-0.082,0.125-0.125c0.044-0.039,0.083-0.082,0.125-0.125c0.044-0.039,0.083-0.082,0.125-0.125
			c0.044-0.039,0.083-0.082,0.125-0.125c0.044-0.039,0.083-0.082,0.125-0.125c0.045-0.039,0.084-0.082,0.125-0.125
			c0.045-0.039,0.084-0.082,0.125-0.125c0.045-0.039,0.084-0.082,0.125-0.125c0.045-0.039,0.084-0.082,0.125-0.125
			c0.045-0.039,0.084-0.082,0.125-0.125c0.045-0.039,0.084-0.082,0.125-0.125c0.045-0.039,0.084-0.082,0.125-0.125
			c0.045-0.039,0.084-0.082,0.125-0.125c0.045-0.039,0.084-0.082,0.125-0.125c0.045-0.039,0.084-0.082,0.125-0.125
			c0.045-0.039,0.084-0.082,0.125-0.125c0.045-0.039,0.084-0.082,0.125-0.125c0.045-0.039,0.084-0.082,0.125-0.125
			c0.045-0.039,0.084-0.082,0.125-0.125c0.045-0.039,0.084-0.082,0.125-0.125c0.045-0.039,0.084-0.082,0.125-0.125
			c0.045-0.039,0.084-0.082,0.125-0.125c0.045-0.039,0.084-0.082,0.125-0.125c0.045-0.039,0.084-0.082,0.125-0.125
			c0.045-0.039,0.084-0.082,0.125-0.125c0.045-0.039,0.083-0.082,0.124-0.123c0.045-0.041,0.084-0.084,0.127-0.127
			c0.045-0.039,0.083-0.082,0.125-0.125c0.045-0.039,0.083-0.082,0.125-0.125c0.045-0.039,0.083-0.082,0.125-0.125
			c0.045-0.039,0.083-0.082,0.125-0.125c0.045-0.039,0.083-0.082,0.125-0.125c0.044-0.039,0.083-0.082,0.124-0.125
			c0.045-0.039,0.084-0.082,0.126-0.125c0.045-0.039,0.083-0.084,0.125-0.125c0.045-0.039,0.083-0.084,0.125-0.125
			c0.045-0.039,0.083-0.084,0.125-0.125c0.045-0.039,0.083-0.084,0.125-0.125c0.045-0.039,0.083-0.084,0.125-0.125
			c0.045-0.039,0.083-0.084,0.125-0.125c0.045-0.039,0.083-0.084,0.125-0.125c0.045-0.039,0.083-0.084,0.125-0.125
			c0.045-0.039,0.083-0.084,0.125-0.125c0.045-0.039,0.083-0.084,0.125-0.125c0.045-0.039,0.083-0.084,0.125-0.125
			c0.045-0.039,0.083-0.084,0.125-0.125c0.045-0.039,0.083-0.084,0.125-0.125c0.045-0.039,0.083-0.084,0.125-0.125
			c0.045-0.039,0.083-0.084,0.125-0.125c0.045-0.039,0.083-0.084,0.125-0.125c0.045-0.039,0.083-0.084,0.125-0.125
			c0.045-0.039,0.083-0.084,0.125-0.125c0.045-0.039,0.083-0.084,0.125-0.125c0.045-0.039,0.083-0.084,0.125-0.125
			c0.045-0.039,0.083-0.084,0.125-0.125c0.045-0.039,0.083-0.084,0.125-0.125c0.045-0.039,0.083-0.084,0.125-0.125
			c0.045-0.039,0.083-0.082,0.125-0.125c0.045-0.039,0.083-0.082,0.125-0.125c0.045-0.039,0.084-0.084,0.125-0.125
			c0.045-0.039,0.084-0.084,0.125-0.125c0.045-0.039,0.084-0.084,0.125-0.125c0.045-0.039,0.084-0.084,0.125-0.125
			c0.045-0.039,0.084-0.084,0.125-0.125c0.045-0.039,0.084-0.084,0.125-0.125c0.045-0.039,0.084-0.084,0.125-0.125
			c0.045-0.039,0.084-0.084,0.125-0.125c0.045-0.039,0.084-0.084,0.125-0.125c0.045-0.039,0.084-0.084,0.125-0.125
			c0.045-0.039,0.084-0.084,0.125-0.125c0.045-0.039,0.084-0.084,0.125-0.125c0.045-0.039,0.084-0.084,0.125-0.125
			c0.045-0.039,0.084-0.084,0.125-0.125c0.045-0.039,0.084-0.084,0.125-0.125c0.045-0.039,0.084-0.084,0.125-0.125
			c0.045-0.039,0.083-0.082,0.125-0.125c0.045-0.039,0.084-0.082,0.125-0.125c0.045-0.039,0.084-0.082,0.125-0.125
			c0.045-0.039,0.084-0.082,0.125-0.125c0.045-0.039,0.084-0.082,0.125-0.125c0.045-0.039,0.084-0.082,0.125-0.125
			c0.045-0.039,0.084-0.082,0.125-0.125c0.045-0.039,0.084-0.082,0.125-0.125c0.045-0.039,0.084-0.082,0.125-0.125
			c0.045-0.039,0.084-0.082,0.125-0.125c0.045-0.039,0.084-0.082,0.125-0.125c0.045-0.039,0.084-0.082,0.125-0.125
			c0.045-0.039,0.084-0.082,0.125-0.125c0.045-0.039,0.084-0.082,0.125-0.125c0.045-0.039,0.084-0.082,0.125-0.125
			c0.045-0.039,0.084-0.082,0.125-0.125c0.045-0.039,0.084-0.082,0.125-0.125c0.045-0.039,0.084-0.082,0.125-0.125
			c0.045-0.039,0.084-0.082,0.125-0.125c0.045-0.039,0.084-0.082,0.125-0.125c0.045-0.039,0.084-0.082,0.125-0.125
			c0.045-0.039,0.084-0.082,0.125-0.125c0.045-0.039,0.084-0.082,0.125-0.125c0.045-0.039,0.084-0.082,0.125-0.125
			c0.045-0.039,0.084-0.082,0.125-0.125c0.045-0.039,0.084-0.082,0.125-0.125c0.045-0.039,0.084-0.082,0.125-0.125
			c0.045-0.039,0.084-0.082,0.125-0.125c0.045-0.039,0.084-0.082,0.125-0.125c0.045-0.039,0.084-0.082,0.125-0.125
			c0.045-0.039,0.084-0.082,0.125-0.125c0.045-0.039,0.083-0.082,0.124-0.123c0.046-0.041,0.085-0.084,0.127-0.127
			c0.045-0.039,0.083-0.082,0.125-0.125c0.045-0.039,0.083-0.082,0.125-0.125c0.045-0.039,0.083-0.082,0.125-0.125
			c0.045-0.039,0.083-0.082,0.125-0.125c0.045-0.039,0.083-0.082,0.125-0.125c0.044-0.039,0.083-0.082,0.124-0.125
			c0.045-0.039,0.084-0.082,0.126-0.125c0.045-0.039,0.083-0.084,0.125-0.125c0.045-0.039,0.083-0.084,0.125-0.125
			c0.045-0.039,0.083-0.084,0.125-0.125c0.045-0.039,0.083-0.084,0.125-0.125c0.045-0.039,0.083-0.084,0.125-0.125
			c0.045-0.039,0.083-0.084,0.125-0.125c0.045-0.039,0.083-0.084,0.125-0.125c0.045-0.039,0.083-0.084,0.125-0.125
			c0.045-0.039,0.083-0.084,0.125-0.125c0.045-0.039,0.083-0.084,0.125-0.125c0.045-0.039,0.083-0.084,0.125-0.125
			c0.045-0.039,0.083-0.084,0.125-0.125c0.045-0.039,0.083-0.084,0.125-0.125c0.045-0.039,0.083-0.084,0.125-0.125
			c0.045-0.039,0.083-0.084,0.125-0.125c0.045-0.039,0.083-0.084,0.125-0.125c0.045-0.039,0.083-0.084,0.125-0.125
			c0.045-0.039,0.083-0.084,0.125-0.125c0.045-0.039,0.083-0.084,0.125-0.125c0.045-0.039,0.083-0.084,0.125-0.125
			c0.045-0.039,0.083-0.084,0.125-0.125c0.045-0.039,0.083-0.084,0.125-0.125c0.045-0.039,0.083-0.084,0.125-0.125
			c0.045-0.039,0.083-0.082,0.125-0.125c0.044-0.039,0.083-0.082,0.125-0.125c0.045-0.039,0.084-0.084,0.125-0.125
			c0.045-0.039,0.084-0.084,0.125-0.125c0.045-0.039,0.084-0.084,0.125-0.125c0.045-0.039,0.084-0.084,0.125-0.125
			c0.045-0.039,0.084-0.084,0.125-0.125c0.045-0.039,0.084-0.084,0.125-0.125c0.045-0.039,0.084-0.084,0.125-0.125
			c0.045-0.039,0.084-0.084,0.125-0.125c0.045-0.039,0.084-0.084,0.125-0.125c0.045-0.039,0.084-0.084,0.125-0.125
			c0.045-0.039,0.084-0.084,0.125-0.125c0.045-0.039,0.084-0.084,0.125-0.125c0.045-0.039,0.084-0.084,0.125-0.125
			c0.045-0.039,0.084-0.084,0.125-0.125c0.045-0.039,0.084-0.084,0.125-0.125c0.045-0.039,0.084-0.084,0.125-0.125
			c0.045-0.039,0.083-0.082,0.125-0.125c0.045-0.039,0.083-0.082,0.125-0.125c0.045-0.039,0.084-0.082,0.125-0.125
			c0.045-0.039,0.084-0.082,0.125-0.125c0.045-0.039,0.084-0.082,0.125-0.125c0.045-0.039,0.084-0.082,0.125-0.125
			c0.045-0.039,0.084-0.082,0.125-0.125c0.045-0.039,0.084-0.082,0.125-0.125c0.045-0.039,0.084-0.082,0.125-0.125
			c0.045-0.039,0.084-0.082,0.125-0.125c0.045-0.039,0.084-0.082,0.125-0.125c0.045-0.039,0.084-0.082,0.125-0.125
			c0.045-0.039,0.084-0.082,0.125-0.125c0.045-0.039,0.084-0.082,0.125-0.125c0.045-0.039,0.084-0.082,0.125-0.125
			c0.045-0.039,0.084-0.082,0.125-0.125c0.045-0.039,0.084-0.082,0.125-0.125c0.045-0.039,0.084-0.082,0.125-0.125
			c0.045-0.039,0.084-0.082,0.125-0.125c0.045-0.039,0.084-0.082,0.125-0.125c0.045-0.039,0.084-0.082,0.125-0.125
			c0.045-0.039,0.084-0.082,0.125-0.125c0.045-0.039,0.084-0.082,0.125-0.125c0.045-0.039,0.084-0.082,0.125-0.125
			c0.045-0.039,0.084-0.082,0.125-0.125c0.045-0.039,0.084-0.082,0.125-0.125c0.045-0.039,0.084-0.082,0.125-0.125
			c0.045-0.039,0.084-0.082,0.125-0.125c0.045-0.039,0.084-0.082,0.125-0.125c0.045-0.039,0.084-0.082,0.125-0.125
			c0.045-0.039,0.084-0.082,0.125-0.125c0.045-0.039,0.084-0.082,0.125-0.125c0.045-0.039,0.084-0.082,0.125-0.125
			c0.045-0.039,0.083-0.082,0.124-0.123c0.045-0.041,0.084-0.084,0.127-0.127c0.045-0.039,0.083-0.082,0.125-0.125
			c0.045-0.039,0.083-0.082,0.125-0.125c0.045-0.039,0.083-0.082,0.125-0.125c0.045-0.039,0.083-0.082,0.125-0.125
			c0.044-0.039,0.083-0.082,0.124-0.125c0.045-0.039,0.084-0.082,0.126-0.125c0.045-0.039,0.083-0.084,0.125-0.125
			c0.045-0.039,0.083-0.084,0.125-0.125c0.045-0.039,0.083-0.084,0.125-0.125c0.045-0.039,0.083-0.084,0.125-0.125
			c0.045-0.039,0.083-0.084,0.125-0.125c0.045-0.039,0.083-0.084,0.125-0.125c0.045-0.039,0.083-0.084,0.125-0.125
			c0.045-0.039,0.083-0.084,0.125-0.125c0.045-0.039,0.083-0.084,0.125-0.125c0.045-0.039,0.083-0.084,0.125-0.125
			c0.045-0.039,0.083-0.084,0.125-0.125c0.045-0.039,0.083-0.084,0.125-0.125c0.045-0.039,0.083-0.084,0.125-0.125
			c0.045-0.039,0.083-0.084,0.125-0.125c0.045-0.039,0.083-0.084,0.125-0.125c0.045-0.039,0.083-0.084,0.125-0.125
			c0.045-0.039,0.083-0.084,0.125-0.125c0.045-0.039,0.083-0.084,0.125-0.125c0.045-0.039,0.083-0.084,0.125-0.125
			c0.045-0.039,0.083-0.084,0.125-0.125c0.045-0.039,0.083-0.084,0.125-0.125c0.045-0.039,0.083-0.084,0.125-0.125
			c0.045-0.039,0.083-0.084,0.125-0.125c0.045-0.039,0.083-0.084,0.125-0.125c0.045-0.039,0.083-0.082,0.125-0.125
			c0.045-0.039,0.083-0.082,0.125-0.125c0.045-0.039,0.084-0.084,0.125-0.125c0.045-0.039,0.084-0.084,0.125-0.125
			c0.045-0.039,0.084-0.084,0.125-0.125c0.045-0.039,0.084-0.084,0.125-0.125c0.045-0.039,0.084-0.084,0.125-0.125
			c0.045-0.039,0.084-0.084,0.125-0.125c0.045-0.039,0.084-0.084,0.125-0.125c0.045-0.039,0.084-0.084,0.125-0.125
			c0.045-0.039,0.084-0.084,0.125-0.125c0.045-0.039,0.084-0.084,0.125-0.125c0.045-0.039,0.084-0.084,0.125-0.125
			c0.045-0.039,0.084-0.084,0.125-0.125c0.045-0.039,0.084-0.084,0.125-0.125c0.045-0.039,0.084-0.084,0.125-0.125
			c0.045-0.039,0.084-0.084,0.125-0.125c0.045-0.039,0.084-0.084,0.125-0.125c0.045-0.039,0.083-0.082,0.125-0.125
			c0.045-0.039,0.084-0.082,0.125-0.125c0.045-0.039,0.084-0.082,0.125-0.125c0.045-0.039,0.084-0.082,0.125-0.125
			c0.045-0.039,0.084-0.082,0.125-0.125c0.045-0.039,0.084-0.082,0.125-0.125c0.045-0.039,0.084-0.082,0.125-0.125
			c0.045-0.039,0.084-0.082,0.125-0.125c0.045-0.039,0.084-0.082,0.125-0.125c0.045-0.039,0.084-0.082,0.125-0.125
			c0.045-0.039,0.084-0.082,0.125-0.125c0.045-0.039,0.084-0.082,0.125-0.125c0.045-0.039,0.084-0.082,0.125-0.125
			c0.045-0.039,0.084-0.082,0.125-0.125c0.045-0.039,0.084-0.082,0.125-0.125c0.045-0.039,0.084-0.082,0.125-0.125
			c0.045-0.039,0.084-0.082,0.125-0.125c0.045-0.039,0.084-0.082,0.125-0.125c0.045-0.039,0.084-0.082,0.125-0.125
			c0.045-0.039,0.084-0.082,0.125-0.125c0.045-0.039,0.084-0.082,0.125-0.125c0.045-0.039,0.084-0.082,0.125-0.125
			c0.045-0.039,0.084-0.082,0.125-0.125c0.045-0.039,0.084-0.082,0.125-0.125c0.045-0.039,0.084-0.082,0.125-0.125
			c0.045-0.039,0.084-0.082,0.125-0.125c0.045-0.039,0.084-0.082,0.125-0.125c0.045-0.039,0.084-0.082,0.125-0.125
			c0.045-0.039,0.084-0.082,0.125-0.125c0.045-0.039,0.084-0.082,0.125-0.125c0.045-0.039,0.084-0.082,0.125-0.125
			c0.045-0.039,0.083-0.082,0.124-0.123c0.046-0.041,0.085-0.084,0.127-0.127c0.045-0.039,0.083-0.082,0.125-0.125
			c0.045-0.039,0.083-0.082,0.125-0.125c0.045-0.039,0.083-0.082,0.125-0.125c0.045-0.039,0.083-0.082,0.125-0.125
			c0.045-0.039,0.083-0.082,0.125-0.125c0.044-0.039,0.083-0.082,0.124-0.125c0.045-0.039,0.084-0.082,0.126-0.125
			c0.045-0.039,0.083-0.084,0.125-0.125c0.045-0.039,0.083-0.084,0.125-0.125c0.045-0.039,0.083-0.084,0.125-0.125
			c0.045-0.039,0.083-0.084,0.125-0.125c0.045-0.039,0.083-0.084,0.125-0.125c0.045-0.039,0.083-0.084,0.125-0.125
			c0.045-0.039,0.083-0.084,0.125-0.125c0.045-0.039,0.083-0.084,0.125-0.125c0.045-0.039,0.083-0.084,0.125-0.125
			c0.045-0.039,0.083-0.084,0.125-0.125c0.045-0.039,0.083-0.084,0.125-0.125c0.045-0.039,0.083-0.084,0.125-0.125
			c0.045-0.039,0.083-0.084,0.125-0.125c0.045-0.039,0.083-0.084,0.125-0.125c0.045-0.039,0.083-0.084,0.125-0.125
			c0.045-0.039,0.083-0.084,0.125-0.125c0.045-0.039,0.083-0.084,0.125-0.125c0.045-0.039,0.083-0.084,0.125-0.125
			c0.045-0.039,0.083-0.084,0.125-0.125c0.045-0.039,0.083-0.084,0.125-0.125c0.045-0.039,0.083-0.084,0.125-0.125
			c0.045-0.039,0.083-0.084,0.125-0.125c0.045-0.039,0.083-0.084,0.125-0.125c0.045-0.039,0.083-0.082,0.125-0.125
			c0.044-0.039,0.083-0.082,0.125-0.125c0.045-0.039,0.084-0.084,0.125-0.125c0.045-0.039,0.084-0.084,0.125-0.125
			c0.045-0.039,0.084-0.084,0.125-0.125c0.045-0.039,0.084-0.084,0.125-0.125c0.045-0.039,0.084-0.084,0.125-0.125
			c0.045-0.039,0.084-0.084,0.125-0.125c0.045-0.039,0.084-0.084,0.125-0.125c0.045-0.039,0.084-0.084,0.125-0.125
			c0.045-0.039,0.084-0.084,0.125-0.125c0.045-0.039,0.084-0.084,0.125-0.125c0.045-0.039,0.084-0.084,0.125-0.125
			c0.045-0.039,0.084-0.084,0.125-0.125c0.045-0.039,0.084-0.084,0.125-0.125c0.045-0.039,0.084-0.084,0.125-0.125
			c0.045-0.039,0.084-0.084,0.125-0.125c0.045-0.039,0.084-0.084,0.125-0.125c0.045-0.039,0.083-0.082,0.125-0.125
			c0.045-0.039,0.083-0.082,0.125-0.125c0.045-0.039,0.084-0.082,0.125-0.125c0.045-0.039,0.084-0.082,0.125-0.125
			c0.045-0.039,0.084-0.082,0.125-0.125c0.045-0.039,0.084-0.082,0.125-0.125c0.045-0.039,0.084-0.082,0.125-0.125
			c0.045-0.039,0.084-0.082,0.125-0.125c0.045-0.039,0.084-0.082,0.125-0.125c0.045-0.039,0.084-0.082,0.125-0.125
			c0.045-0.039,0.084-0.082,0.125-0.125c0.045-0.039,0.084-0.082,0.125-0.125c0.045-0.039,0.084-0.082,0.125-0.125
			c0.045-0.039,0.084-0.082,0.125-0.125c0.72-0.636,1.104-1.601,0.786-2.397c-0.329-0.831-2.668-1.634-3.137-1.788
			c0-0.001,0.002-0.002,0.002-0.003c0.041-0.04,0.084-0.082,0.125-0.125c0.041-0.04,0.084-0.082,0.125-0.125
			c0.041-0.04,0.084-0.082,0.125-0.125c0.041-0.04,0.084-0.082,0.125-0.125c0.041-0.04,0.084-0.082,0.125-0.125
			c0.723-0.699,1.729-1.981,1.729-3.707c0-1.418-2.865-3.074-5.809-3.505c0.027-0.025,0.045-0.059,0.072-0.084
			c0.043-0.041,0.084-0.084,0.125-0.125c0.043-0.041,0.084-0.084,0.125-0.125c0.043-0.041,0.084-0.084,0.125-0.125
			c0.043-0.041,0.084-0.084,0.125-0.125c0.043-0.041,0.084-0.084,0.125-0.125c0.043-0.041,0.084-0.084,0.125-0.125
			c0.043-0.041,0.084-0.084,0.125-0.125c0.043-0.041,0.084-0.084,0.125-0.125c0.043-0.041,0.084-0.084,0.125-0.125
			c0.043-0.041-0.043-0.084-0.002-0.125c1.139-1.041,1.452-2.571,1.452-4.139c0-4.758,0-18.236,0-19.144
			c0-0.908,0.179-1.335,1.481-2.641c-0.348,0.07-0.656,0.14-1.047,0.208c0.05-0.035,0.113-0.084,0.156-0.125
			c0.049-0.035,0.098-0.084,0.143-0.125c0.049-0.035,0.089-0.084,0.133-0.125c0.049-0.035,0.085-0.084,0.129-0.125
			c0.049-0.035,0.083-0.084,0.127-0.125c0.049-0.035,0.082-0.084,0.126-0.125c0.05-0.035,0.081-0.084,0.125-0.125
			c0.05-0.035,0.082-0.084,0.126-0.125c0.049-0.035,0.081-0.084,0.125-0.125c0.049-0.035,0.081-0.084,0.125-0.125
			c0.049-0.035,0.081-0.084,0.125-0.125c0.049-0.035,0.081-0.084,0.125-0.125c0.049-0.035,0.081-0.084,0.125-0.125
			c0.049-0.035,0.081-0.084,0.125-0.125c0.049-0.035,0.081-0.084,0.125-0.125c0.049-0.035,0.081-0.084,0.125-0.125
			c0.049-0.035,0.081-0.084,0.125-0.125c0.049-0.035,0.081-0.084,0.125-0.125c0.049-0.035,0.081-0.084,0.125-0.125
			c0.049-0.035,0.081-0.084,0.125-0.125c0.049-0.035,0.081-0.084,0.125-0.125c0.049-0.035,0.081-0.084,0.125-0.125
			c0.049-0.035,0.081-0.084,0.125-0.125c0.049-0.035,0.081-0.084,0.125-0.125c0.049-0.035,0.081-0.084,0.125-0.125
			c0.049-0.035,0.081-0.084,0.125-0.125c0.049-0.035,0.081-0.084,0.125-0.125c0.049-0.035,0.081-0.084,0.125-0.125
			c0.049-0.035,0.081-0.084,0.125-0.125c0.049-0.035,0.081-0.084,0.125-0.125c0.049-0.035,0.081-0.084,0.125-0.125
			c0.049-0.035,0.081-0.084,0.125-0.125c0.049-0.035,0.081-0.084,0.125-0.125c0.049-0.035,0.081-0.084,0.125-0.125
			c0.049-0.035,0.081-0.084,0.125-0.125c0.049-0.035,0.081-0.084,0.125-0.125c0.049-0.035,0.081-0.084,0.125-0.125
			c0.049-0.035,0.081-0.084,0.125-0.125c0.049-0.035,0.081-0.084,0.125-0.125c0.049-0.035,0.081-0.084,0.125-0.125
			c0.049-0.035,0.081-0.084,0.125-0.125c0.049-0.035,0.081-0.084,0.125-0.125c0.049-0.035,0.081-0.084,0.125-0.125
			c0.049-0.035,0.081-0.084,0.125-0.125c0.049-0.035,0.081-0.084,0.125-0.125c0.049-0.035,0.081-0.084,0.125-0.125
			C109.648,51.577,109.863,51.076,109.752,50.571z"/>
	</g>
</g>
<g>
	<path fill="#FFFFFF" d="M90.508,45.443c0.237,0.214,0.534,0.32,0.83,0.32c0.337,0,0.674-0.137,0.918-0.407
		c0.458-0.507,0.42-1.289-0.087-1.748c-3.733-3.38-2.407-5.224-0.213-8.278c2.146-2.982,5.08-7.067,0.342-12.875
		c-0.435-0.53-1.212-0.608-1.741-0.176c-0.529,0.432-0.608,1.211-0.177,1.741c3.539,4.339,1.699,6.9-0.435,9.866
		C87.803,36.868,85.135,40.58,90.508,45.443z"/>
	<path fill="#FFFFFF" d="M81.348,45.443c0.237,0.214,0.534,0.32,0.83,0.32c0.338,0,0.674-0.137,0.918-0.407
		c0.459-0.507,0.42-1.289-0.086-1.748c-3.734-3.38-2.408-5.224-0.213-8.278c2.145-2.982,5.08-7.067,0.342-12.875
		c-0.434-0.53-1.213-0.608-1.742-0.176c-0.529,0.432-0.608,1.211-0.176,1.741c3.539,4.339,1.698,6.9-0.434,9.866
		C78.643,36.868,75.975,40.58,81.348,45.443z"/>
	<path fill="#FFFFFF" d="M72.188,45.443c0.236,0.214,0.533,0.32,0.83,0.32c0.338,0,0.674-0.137,0.918-0.407
		c0.459-0.507,0.42-1.289-0.088-1.748c-3.731-3.38-2.406-5.224-0.211-8.278c2.143-2.982,5.079-7.067,0.34-12.875
		c-0.432-0.53-1.211-0.608-1.74-0.176c-0.53,0.432-0.608,1.211-0.178,1.741c3.541,4.339,1.699,6.9-0.433,9.866
		C69.482,36.868,66.814,40.58,72.188,45.443z"/>
	<path fill="#FFFFFF" d="M35.142,37h3.713c0.684,0,1.238-0.816,1.238-1.5S39.539,34,38.855,34h-3.713
		c-0.684,0-1.238,0.816-1.238,1.5S34.458,37,35.142,37z"/>
	<path fill="#FFFFFF" d="M109.752,50.571c-0.148-0.667-0.807-1.089-1.477-0.941c-28.91,6.393-54.553,6.934-76.242,1.618
		c-0.008-0.22-0.019-0.442-0.031-0.696c-0.112-2.408-0.302-6.502,1.505-8.395c0.707-0.741,1.687-1.106,2.997-1.106
		c2.085,0,2.836,0.436,3.098,0.702c0.324,0.33,0.341,1.04,0.33,1.764C39.929,43.618,39.928,44,39.928,44h2.476
		c0,0,0.001-0.354,0.002-0.441c0.013-0.836,0.035-2.306-1.041-3.399c-0.962-0.977-2.552-1.502-4.862-1.502
		c-1.994,0-3.605,0.615-4.788,1.854c-2.526,2.647-2.32,7.59-2.188,10.398C29.031,50.798,28.716,51,28.458,51h-9.16
		c-0.684,0-1.238,0.316-1.238,1s0.554,1,1.238,1h9.146c0.226,0,1.116,0.21,1.976,0.43c3.98,1.015,12.264,3.111,25.32,3.764
		c2.58,0.129,5.201,0.186,7.866,0.186c14.024,0,29.192-1.789,45.205-5.33C109.479,51.902,109.898,51.238,109.752,50.571z"/>
	<path fill="#FFFFFF" d="M103.717,92.465c0,0,2.443-1.619,2.443-4.307c0-1.645-3.98-3.613-7.342-3.613
		c3.22-0.496,4.182-2.889,4.182-5.363c0-4.758,0-18.236,0-19.144c0-0.908,0.178-1.335,1.482-2.641
		c-10.617,2.146-40.679,3.218-40.679,3.218s-30.337-1.073-40.955-3.218C24.153,58.703,24,59.13,24,60.038c0,0.908,0,14.386,0,19.144
		c0,2.476,1.321,4.867,4.54,5.363c-3.361,0-7.106,1.969-7.106,3.613c0,2.688,2.506,4.307,2.506,4.307s-2.935,0.893-3.302,1.816
		C19.802,96.385,24,99.664,26,94.941c0-0.724,0-4.467,0-5.767c0-1.424,1.636-1.887,3.993-1.887c5.467,0,8.682-0.289,10.295-2.289
		c2.346,0,23.571,0,23.571,0s21.224,0,23.569,0c1.612,2,4.471,2.289,9.938,2.289c2.357,0,3.635,0.463,3.635,1.887
		c0,1.3,0,5.043,0,5.767c3,4.723,6.525,1.442,5.689-0.66C106.322,93.357,103.717,92.465,103.717,92.465z"/>
</g>
</svg>
