<?xml version="1.0" encoding="utf-8"?>
<!-- Generator: Adobe Illustrator 16.0.3, SVG Export Plug-In . SVG Version: 6.00 Build 0)  -->
<!DOCTYPE svg PUBLIC "-//W3C//DTD SVG 1.1//EN" "http://www.w3.org/Graphics/SVG/1.1/DTD/svg11.dtd">
<svg version="1.1" id="Layer_1" xmlns="http://www.w3.org/2000/svg" xmlns:xlink="http://www.w3.org/1999/xlink" x="0px" y="0px"
	 width="128px" height="128px" viewBox="0 0 128 128" enable-background="new 0 0 128 128" xml:space="preserve">
<path fill="#444953" class="bg" d="M128,25c0-13.807-11.193-25-25-25H25C11.193,0,0,11.193,0,25v78c0,13.807,11.193,25,25,25h78
	c13.807,0,25-11.193,25-25V25z"/>
<g>
	<g>
		<defs>
			<path id="SVGID_1_" d="M128,25c0-13.807-11.193-25-25-25H25C11.193,0,0,11.193,0,25v78c0,13.807,11.193,25,25,25h78
				c13.807,0,25-11.193,25-25V25z"/>
		</defs>
		<clipPath id="SVGID_2_">
			<use xlink:href="#SVGID_1_"  overflow="visible"/>
		</clipPath>
		<path clip-path="url(#SVGID_2_)" fill="#353A42" class="shadow" enable-background="new    " d="M104.37,62c-0.353,0-1.146,0-3.37,0l4-4
			c0,0,0-20.274,0-22.156c-11-5.957-24.195-11.287-41-11.287c-16.805,0-31,5.33-41,11.287c0,0.014,0,0.039,0,0.054
			c0,0.024,0,0.047,0,0.071c0,0.014,0,0.039,0,0.054c0,0.024,0.041,0.047,0,0.071c0,0.014,0,0.039,0,0.054
			c-0.041,0.024,0,0.047,0,0.071c0,0.014,0,0.039,0,0.054c0,0.024,0,0.047,0,0.071c0,0.014,0,0.039,0,0.054c0,0.024,0,0.047,0,0.071
			c0,0.014,0,0.039,0,0.054c0,0.024,0,0.047-1,0.071l-29,29l0,0l0,0l-1,1l0,0l0,0l-1,1l0,0l0,0l-1,1l0,0l0,0l-1,1l0,0l0,0l-1,1l0,0
			l0,0l-1,1l0,0l0,0l-1,1l0,0l0,0l-1,1l0,0l0,0l-1,1l0,0l0,0l-1,1l0,0l0,0l-1,1l0,0l0,0l-1,1l0,0l0,0l-1,1l0,0l0,0l-1,1
			C-21,81.477-21,102-21,102h1.553c-0.031,0.025-0.063,0.049-0.093,0.081c-0.041,0.042-0.085,0.073-0.125,0.117
			c-0.041,0.042-0.085,0.077-0.125,0.12c-0.041,0.043-0.085,0.08-0.125,0.123c-0.041,0.043-0.085,0.082-0.125,0.125
			c-0.041,0.041-0.085,0.082-0.125,0.125c-0.041,0.041-0.085,0.08-0.125,0.123c-0.041,0.043-0.085,0.082-0.125,0.125
			c-0.041,0.043-0.085,0.082-0.125,0.125c-0.041,0.043-0.085,0.082-0.125,0.125c-0.041,0.043-0.085,0.082-0.125,0.125
			c-0.041,0.043-0.085,0.082-0.125,0.125c-0.041,0.043-0.085,0.082-0.125,0.125c-0.041,0.043-0.085,0.082-0.125,0.125
			c-0.041,0.043-0.085,0.082-0.125,0.125c-0.041,0.043-0.085,0.082-0.125,0.125c-0.041,0.043-0.085,0.082-0.125,0.125
			c-0.041,0.043-0.085,0.082-0.125,0.125c-0.041,0.043-0.085,0.082-0.125,0.125c-0.041,0.043-0.085,0.082-0.125,0.125
			c-0.041,0.043-0.085,0.082-0.125,0.125c-0.041,0.043-0.085,0.082-0.125,0.125c-0.041,0.043-0.085,0.082-0.125,0.125
			c-0.041,0.043-0.085,0.082-0.125,0.125c-0.041,0.043-0.085,0.082-0.125,0.125c-0.041,0.043-0.085,0.082-0.125,0.125
			c-0.041,0.043-0.085,0.082-0.125,0.125c-0.041,0.043-0.085,0.082-0.125,0.125c-0.041,0.043-0.085,0.082-0.125,0.125
			c-0.041,0.043-0.085,0.082-0.125,0.125c-0.041,0.043-0.085,0.082-0.125,0.125c-0.041,0.043-0.085,0.082-0.125,0.125
			c-0.041,0.043-0.085,0.082-0.125,0.125c-0.041,0.043-0.085,0.082-0.125,0.125c-0.041,0.043-0.085,0.082-0.125,0.125
			c-0.041,0.043-0.085,0.082-0.125,0.125c-0.041,0.043-0.085,0.082-0.125,0.125c-0.041,0.043-0.085,0.082-0.125,0.125
			c-0.041,0.043-0.085,0.082-0.125,0.125c-0.041,0.043-0.085,0.082-0.125,0.125c-0.041,0.043-0.085,0.082-0.125,0.125
			c-0.041,0.043-0.085,0.082-0.125,0.125c-0.041,0.043-0.085,0.082-0.125,0.125c-0.041,0.043-0.085,0.082-0.125,0.125
			c-0.041,0.043-0.085,0.082-0.125,0.125c-0.041,0.043-0.085,0.082-0.125,0.125c-0.041,0.043-0.085,0.082-0.125,0.125
			c-0.041,0.043-0.085,0.082-0.125,0.125c-0.041,0.043-0.085,0.082-0.125,0.125c-0.041,0.043-0.085,0.082-0.125,0.125
			c-0.041,0.043-0.085,0.082-0.125,0.125c-0.041,0.043-0.085,0.082-0.125,0.125c-0.041,0.043-0.085,0.082-0.125,0.125
			c-1.198,1.227-1.96,2.736-1.96,4.186c0,2.037,0,8.25,0,8.25h3v1h-1v1h-1v1h-1v7h7v8h8v-1h1v-1h1v-1h1v-1h1v-1h1v-1h1v-1h1v-1h0.75
			H-5h59v8h7h1v-1h1v-1h1v-1h1v-1h1v-1h1v-1h1v-1h1v-1h1v-1h1v-1h1v-1h1l32-32v-1l7-7v-7h-4l4-4c0,0,0-5.963,0-8
			C112,65.786,108.367,62,104.37,62z M22,37.094v-0.071C22,37.047,22.041,37.07,22,37.094z"/>
	</g>
</g>
<polygon fill="#FFFFFF" points="16,88 23,88 23,96 30,96 30,88 97,88 97,96 105,96 105,88 112,88 112,81 16,81 "/>
<path fill="#FFFFFF" d="M104.37,62c-3.292,0-77.597,0-80.889,0C19.483,62,16,65.786,16,69c0,2.037,0,8,0,8h96c0,0,0-5.963,0-8
	C112,65.786,108.367,62,104.37,62z"/>
<path fill="#FFFFFF" d="M64,24.558c-16.805,0-31,5.33-41,11.287C23,37.726,23,58,23,58h5.654c0,0,0.234-7,6.191-7
	c5.252,0,17.484,0,21.085,0c5.957,0,6.036,7,6.036,7h3.918c0,0,0.079-7,6.035-7c3.603,0,15.834,0,21.085,0c5.957,0,6.191,7,6.191,7
	H105c0,0,0-20.274,0-22.156C94,29.887,80.805,24.558,64,24.558z M66,49h-4V33h-0.211l-3.742,1.789l-0.754-3.407L62.514,29H66V49z"/>
</svg>
