<?xml version="1.0" encoding="utf-8"?>
<!-- Generator: Adobe Illustrator 16.0.3, SVG Export Plug-In . SVG Version: 6.00 Build 0)  -->
<!DOCTYPE svg PUBLIC "-//W3C//DTD SVG 1.1//EN" "http://www.w3.org/Graphics/SVG/1.1/DTD/svg11.dtd">
<svg version="1.1" id="Layer_1" xmlns="http://www.w3.org/2000/svg" xmlns:xlink="http://www.w3.org/1999/xlink" x="0px" y="0px"
	 width="128px" height="128px" viewBox="0 0 128 128" enable-background="new 0 0 128 128" xml:space="preserve">
<path fill="#444953" class="bg" d="M0,103c0,13.807,11.193,25,25,25h78c13.807,0,25-11.193,25-25V25c0-13.807-11.193-25-25-25H25
	C11.193,0,0,11.193,0,25V103z"/>
<g>
	<defs>
		<path id="SVGID_1_" d="M128,25c0-13.807-11.193-25-25-25H25C11.193,0,0,11.193,0,25v78c0,13.807,11.193,25,25,25h78
			c13.807,0,25-11.193,25-25V25z"/>
	</defs>
	<clipPath id="SVGID_2_">
		<use xlink:href="#SVGID_1_"  overflow="visible"/>
	</clipPath>
	<path clip-path="url(#SVGID_2_)" fill="#353A42" class="shadow" d="M104.449,62c-0.357,0-1.21,0-3.449,0l4-4c0,0,0-20.341,0-22.223
		C94,29.82,80.805,24.49,64,24.49c-16.805,0-31,5.33-41,11.287c0,0.016,0,0.035,0,0.053c0,0.024,0.25,0.048,0,0.072
		c0,0.016,0,0.035,0,0.053c0,0.024,0.041,0.048,0,0.072c0,0.016,0,0.035,0,0.053c-0.041,0.024,0,0.048,0,0.072
		c0,0.016,0,0.035,0,0.053c0,0.024,0,0.048,0,0.072c0,0.016,0,0.035,0,0.053c0,0.024,0,0.048-1,0.072l-22,22
		c0,0.016,0,0.035,0,0.053c0,0.024,1,0.048,0,0.072c0,0.016,0,0.035,0,0.053c0,0.024,0,0.048,0,0.072c0,0.016,0,0.035,0,0.053
		c0,0.024,0,0.048,0,0.072c0,0.016,0,0.035,0,0.053c0,0.024,0.25,0.048,0,0.072c0,0.016,0,0.035,0,0.053
		c0,0.024,0.041,0.048,0,0.072c0,0.016,0,0.035,0,0.053c-0.041,0.024,0,0.048,0,0.072c0,0.016,0,0.035,0,0.053
		c0,0.024,0,0.048,0,0.072c0,0.016,0,0.035,0,0.053c0,0.024,0,0.048-1,0.072c0,0.016,0,0.035,0,0.053c0,0.024,1,0.048,0,0.072
		c0,0.016,0,0.035,0,0.053c0,0.024,0,0.048,0,0.072c0,0.016,0,0.035,0,0.053c0,0.024,0,0.048,0,0.072c0,0.016,0,0.035,0,0.053
		c0,0.024,0.25,0.048,0,0.072c0,0.016,0,0.035,0,0.053c0,0.024,0.041,0.048,0,0.072c0,0.016,0,0.035,0,0.053
		c-0.041,0.024,0,0.048,0,0.072c0,0.016,0,0.035,0,0.053c0,0.024,0,0.048,0,0.072c0,0.016,0,0.035,0,0.053c0,0.024,0,0.048-1,0.072
		c0,0.016,0,0.035,0,0.053c0,0.024,1,0.048,0,0.072c0,0.016,0,0.035,0,0.053c0,0.024,0,0.048,0,0.072c0,0.016,0,0.035,0,0.053
		c0,0.024,0,0.048,0,0.072c0,0.016,0,0.035,0,0.053c0,0.024,0.25,0.048,0,0.072c0,0.016,0,0.035,0,0.053
		c0,0.024,0.041,0.048,0,0.072c0,0.016,0,0.035,0,0.053c-0.041,0.024,0,0.048,0,0.072c0,0.016,0,0.035,0,0.053
		c0,0.024,0,0.048,0,0.072c0,0.016,0,0.035,0,0.053c0,0.024,0,0.048-1,0.072c0,0.016,0,0.035,0,0.053c0,0.024,1,0.048,0,0.072
		c0,0.016,0,0.035,0,0.053c0,0.024,0,0.048,0,0.072c0,0.016,0,0.035,0,0.053c0,0.024,0,0.048,0,0.072c0,0.016,0,0.035,0,0.053
		c0,0.024,0.25,0.048,0,0.072c0,0.016,0,0.035,0,0.053c0,0.024,0.041,0.048,0,0.072c0,0.016,0,0.035,0,0.053
		c-0.041,0.024,0,0.048,0,0.072c0,0.016,0,0.035,0,0.053c0,0.024,0,0.048,0,0.072c0,0.016,0,0.035,0,0.053c0,0.024,0,0.048-1,0.072
		c0,0.016,0,0.035,0,0.053c0,0.024,1,0.048,0,0.072c0,0.016,0,0.035,0,0.053c0,0.024,0,0.048,0,0.072c0,0.016,0,0.035,0,0.053
		c0,0.024,0,0.048,0,0.072c0,0.016,0,0.035,0,0.053c0,0.024,0.25,0.048,0,0.072c0,0.016,0,0.035,0,0.053
		c0,0.024,0.041,0.048,0,0.072c0,0.016,0,0.035,0,0.053c-0.041,0.024,0,0.048,0,0.072c0,0.016,0,0.035,0,0.053
		c0,0.024,0,0.048,0,0.072c0,0.016,0,0.035,0,0.053c0,0.024,0,0.048-1,0.072c0,0.016,0,0.035,0,0.053c0,0.024,1,0.048,0,0.072
		c0,0.016,0,0.035,0,0.053c0,0.024,0,0.048,0,0.072c0,0.016,0,0.035,0,0.053c0,0.024,0,0.048,0,0.072c0,0.016,0,0.035,0,0.053
		c0,0.024,0.25,0.048,0,0.072c0,0.016,0,0.035,0,0.053c0,0.024,0.041,0.048,0,0.072c0,0.016,0,0.035,0,0.053
		c-0.041,0.024,0,0.048,0,0.072c0,0.016,0,0.035,0,0.053c0,0.024,0,0.048,0,0.072c0,0.016,0,0.035,0,0.053c0,0.024,0,0.048-1,0.072
		c0,0.016,0,0.035,0,0.053c0,0.024,1,0.048,0,0.072c0,0.016,0,0.035,0,0.053c0,0.023,0,0.048,0,0.072c0,0.016,0,0.035,0,0.053
		c0,0.023,0,0.048,0,0.072c0,0.016,0,0.035,0,0.053c0,0.023,0.25,0.048,0,0.072c0,0.016,0,0.035,0,0.053
		c0,0.023,0.041,0.048,0,0.072c0,0.016,0,0.035,0,0.053c-0.041,0.023,0,0.049,0,0.072c0,0.016,0,0.035,0,0.053
		c0,0.023,0,0.049,0,0.072c0,0.016,0,0.035,0,0.053c0,0.023,0,0.049-1,0.072c0,0.016,0,0.035,0,0.053c0,0.023,1,0.049,0,0.072
		c0,0.016,0,0.035,0,0.053c0,0.023,0,0.049,0,0.072c0,0.016,0,0.035,0,0.053c0,0.023,0,0.049,0,0.072c0,0.016,0,0.035,0,0.053
		c0,0.023,0.25,0.049,0,0.072c0,0.016,0,0.035,0,0.053c0,0.023,0.041,0.049,0,0.072c0,0.016,0,0.035,0,0.053
		c-0.041,0.023,0,0.049,0,0.072c0,0.016,0,0.035,0,0.053c0,0.023,0,0.049,0,0.072c0,0.016,0,0.035,0,0.054c0,0.022,0,0.048-1,0.071
		c0,0.016,0,0.035,0,0.054c0,0.022,1,0.048,0,0.071c0,0.016,0,0.035,0,0.054c0,0.022,0,0.048,0,0.071c0,0.016,0,0.035,0,0.054
		c0,0.022,0,0.048,0,0.071c0,0.016,0,0.035,0,0.054c0,0.022,0.25,0.048,0,0.071c0,0.016,0,0.035,0,0.054
		c0,0.022,0.041,0.048,0,0.071c0,0.016,0,0.035,0,0.054c-0.041,0.022,0,0.048,0,0.071c0,0.016,0,0.035,0,0.054
		c0,0.022,0,0.048,0,0.071c0,0.016,0,0.035,0,0.054c0,0.022,0,0.048-1,0.071c0,0.016,0,0.035,0,0.054c0,0.022,1,0.048,0,0.071
		c0,0.016,0,0.035,0,0.054c0,0.022,0,0.048,0,0.071c0,0.016,0,0.035,0,0.054c0,0.022,0,0.048,0,0.071c0,0.016,0,0.035,0,0.054
		c0,0.022,0.25,0.048,0,0.071c0,0.016,0,0.035,0,0.054c0,0.022,0.041,0.048,0,0.071c0,0.016,0,0.035,0,0.054
		c-0.041,0.022,0,0.048,0,0.071c0,0.016,0,0.035,0,0.054c0,0.022,0,0.048,0,0.071c0,0.016,0,0.035,0,0.054c0,0.022,0,0.048-1,0.071
		c0,0.016,0,0.035,0,0.054c0,0.022,1,0.048,0,0.071c0,0.016,0,0.035,0,0.054c0,0.022,0,0.048,0,0.071c0,0.016,0,0.035,0,0.054
		c0,0.022,0,0.048,0,0.071c0,0.016,0,0.035,0,0.054c0,0.022,0.25,0.048,0,0.071c0,0.01,0,0.022,0,0.035c0,0.07,0,0.143,0,0.215
		c0,0.016,0,0.035,0,0.054c0,0.022,0,0.048,0,0.071c0,0.016,0,0.035,0,0.054c0,0.022,0,0.048-1,0.071c0,0.016,0,0.035,0,0.054
		c0,0.022,1,0.048,0,0.071c0,0.016,0,0.035,0,0.054c0,0.022,0,0.048,0,0.071c0,0.016,0,0.035,0,0.054c0,0.022,0,0.048,0,0.071
		c0,0.016,0,0.035,0,0.054c0,0.022,0.25,0.048,0,0.071c0,0.016,0,0.035,0,0.054c0,0.022,0.041,0.048,0,0.071
		c0,0.016,0,0.035,0,0.054c-0.041,0.022,0,0.048,0,0.071c0,0.016,0,0.035,0,0.054c0,0.022,0,0.048,0,0.071c0,0.016,0,0.035,0,0.054
		c0,0.022,0,0.048-1,0.071c0,0.016,0,0.035,0,0.054c0,0.022,1,0.048,0,0.071c0,0.016,0,0.035,0,0.054c0,0.022,0,0.048,0,0.071
		c0,0.016,0,0.035,0,0.054c0,0.022,0,0.048,0,0.071c0,0.016,0,0.035,0,0.054c0,0.022,0.25,0.048,0,0.071c0,0.016,0,0.035,0,0.054
		c0,0.022,0.041,0.048,0,0.071c0,0.016,0,0.035,0,0.054c-0.041,0.022,0,0.048,0,0.071c0,0.016,0,0.035,0,0.054
		c0,0.022,0,0.048,0,0.071c0,0.016,0,0.035,0,0.054c0,0.022,0,0.048-1,0.071c0,0.016,0,0.035,0,0.054c0,0.022,1,0.048,0,0.071
		c0,0.016,0,0.035,0,0.054c0,0.022,0,0.048,0,0.071c0,0.016,0,0.035,0,0.054c0,0.022,0,0.048,0,0.071c0,0.016,0,0.035,0,0.054
		c0,0.022,0.25,0.048,0,0.071c0,0.016,0,0.035,0,0.054c0,0.022,0.041,0.048,0,0.071c0,0.016,0,0.035,0,0.054
		c-0.041,0.022,0,0.048,0,0.071c0,0.016,0,0.035,0,0.054c0,0.022,0,0.048,0,0.071c0,0.016,0,0.035,0,0.054c0,0.022,0,0.048-1,0.071
		c0,0.016,0,0.035,0,0.054c0,0.022,1,0.048,0,0.071c0,0.016,0,0.035,0,0.054c0,0.022,0,0.048,0,0.071c0,0.016,0,0.035,0,0.054
		c0,0.022,0,0.048,0,0.071c0,0.016,0,0.035,0,0.054c0,0.022,0.25,0.048,0,0.071c0,0.016,0,0.035,0,0.054
		c0,0.022,0.041,0.048,0,0.071c0,0.016,0,0.035,0,0.054c-0.041,0.022,0,0.048,0,0.071c0,0.016,0,0.035,0,0.054
		c0,0.022,0,0.048,0,0.071c0,0.016,0,0.035,0,0.054c0,0.022,0,0.048-1,0.071c0,0.016,0,0.035,0,0.054c0,0.022,1,0.048,0,0.071
		c0,0.016,0,0.035,0,0.054c0,0.022,0,0.048,0,0.071c0,0.016,0,0.035,0,0.054c0,0.022,0,0.048,0,0.071c0,0.016,0,0.035,0,0.054
		c0,0.022,0.25,0.048,0,0.071c0,0.016,0,0.035,0,0.054c0,0.022,0.041,0.048,0,0.071c0,0.016,0,0.035,0,0.054
		c-0.041,0.022,0,0.048,0,0.071c0,0.016,0,0.035,0,0.054c0,0.022,0,0.048,0,0.071c0,0.016,0,0.035,0,0.054c0,0.022,0,0.048-1,0.071
		c0,0.016,0,0.035,0,0.054c0,0.022,1,0.048,0,0.071c0,0.016,0,0.035,0,0.054c0,0.022,0,0.048,0,0.071c0,0.016,0,0.035,0,0.054
		c0,0.022,0,0.048,0,0.071c0,0.016,0,0.035,0,0.054c0,0.022,0.25,0.048,0,0.071c0,0.016,0,0.035,0,0.054
		c0,0.022,0.041,0.048,0,0.071c0,0.016,0,0.035,0,0.054c-0.041,0.022,0,0.048,0,0.071c0,0.016,0,0.035,0,0.054
		c0,0.022,0,0.048,0,0.071c0,0.016,0,0.035,0,0.054c0,0.022,0,0.048-1,0.071c0,0.016,0,0.035,0,0.054c0,0.022,1,0.048,0,0.071
		c0,0.016,0,0.035,0,0.054c0,0.022,0,0.048,0,0.071c0,0.016,0,0.035,0,0.054c0,0.022,0,0.048,0,0.071c0,0.016,0,0.035,0,0.054
		c0,0.022,0.25,0.048,0,0.071c0,0.016,0,0.035,0,0.054c0,0.022,0.041,0.048,0,0.071c0,0.016,0,0.035,0,0.054
		c-0.041,0.022,0,0.048,0,0.071c0,0.016,0,0.035,0,0.054c0,0.022,0,0.048,0,0.071c0,0.016,0,0.035,0,0.054c0,0.022,0,0.048-1,0.071
		c0,0.016,0,0.035,0,0.054c0,0.022,1,0.048,0,0.071c0,0.016,0,0.035,0,0.054c0,0.022,0,0.048,0,0.071c0,0.016,0,0.035,0,0.054
		c0,0.022,0,0.048,0,0.071c0,0.016,0,0.035,0,0.054c0,0.022,0.25,0.048,0,0.071c0,0.016,0,0.035,0,0.054
		c0,0.022,0.041,0.048,0,0.071c0,0.016,0,0.035,0,0.054c-0.041,0.022,0,0.048,0,0.071c0,0.016,0,0.035,0,0.054
		c0,0.022,0,0.048,0,0.071c0,0.016,0,0.035,0,0.054c0,0.022,0,0.048-1,0.071c0,0.016,0,0.035,0,0.054c0,0.022,1,0.048,0,0.071
		c0,0.016,0,0.035,0,0.054c0,0.022,0,0.048,0,0.071c0,0.016,0,0.035,0,0.054c0,0.022,0,0.048,0,0.071c0,0.016,0,0.035,0,0.054
		c0,0.022,0.25,0.048,0,0.071c0,0.016,0,0.035,0,0.054c0,0.022,0.041,0.048,0,0.071c0,0.016,0,0.035,0,0.054
		c-0.041,0.022,0,0.048,0,0.071c0,0.016,0,0.035,0,0.054c0,0.022,0,0.048,0,0.071c0,0.016,0,0.035,0,0.054c0,0.022,0,0.048-1,0.071
		c0,0.016,0,0.035,0,0.054c0,0.022,1,0.048,0,0.071c0,0.016,0,0.035,0,0.054c0,0.022,0,0.048,0,0.071c0,0.016,0,0.035,0,0.054
		c0,0.022,0,0.048,0,0.071c0,0.016,0,0.035,0,0.054c0,0.022,0.25,0.048,0,0.071c0,0.016,0,0.035,0,0.054
		c0,0.022,0.041,0.048,0,0.071c0,0.016,0,0.035,0,0.054c-0.041,0.022,0,0.048,0,0.071c0,0.016,0,0.035,0,0.054
		c0,0.022,0,0.048,0,0.071c0,0.016,0,0.035,0,0.054c0,0.022,0,0.048-1,0.071c0,0.016,0,0.035,0,0.054c0,0.022,1,0.048,0,0.071
		C-21,81.408-21,102-21,102h1.538c-0.014,0.012-0.029,0.022-0.042,0.037c-0.041,0.042-0.084,0.074-0.125,0.117
		c-0.041,0.041-0.084,0.078-0.125,0.121c-0.041,0.041-0.084,0.08-0.125,0.123c-0.041,0.041-0.084,0.082-0.125,0.125
		c-0.041,0.041-0.084,0.082-0.125,0.123c-0.041,0.043-0.084,0.082-0.125,0.125c-0.041,0.041-0.084,0.082-0.125,0.125
		c-0.041,0.041-0.084,0.082-0.125,0.125c-0.041,0.041-0.084,0.082-0.125,0.125c-0.041,0.041-0.084,0.082-0.125,0.125
		c-0.041,0.041-0.084,0.082-0.125,0.125c-0.041,0.041-0.084,0.082-0.125,0.125c-0.041,0.041-0.084,0.082-0.125,0.125
		c-0.041,0.041-0.084,0.082-0.125,0.125c-0.041,0.041-0.084,0.082-0.125,0.125c-0.041,0.041-0.084,0.082-0.125,0.125
		c-0.041,0.041-0.084,0.082-0.125,0.125c-0.041,0.041-0.084,0.082-0.125,0.125c-0.041,0.041-0.084,0.082-0.125,0.125
		c-0.041,0.041-0.084,0.082-0.125,0.125c-0.041,0.041-0.084,0.082-0.125,0.125c-0.041,0.041-0.084,0.082-0.125,0.125
		c-0.041,0.041-0.084,0.082-0.125,0.125c-0.041,0.041-0.084,0.082-0.125,0.125c-0.041,0.041-0.084,0.082-0.125,0.125
		c-0.041,0.041-0.084,0.082-0.125,0.125c-0.041,0.041-0.084,0.082-0.125,0.125c-0.041,0.041-0.084,0.082-0.125,0.125
		c-0.041,0.041-0.084,0.082-0.125,0.125c-0.041,0.041-0.084,0.082-0.125,0.125c-0.041,0.041-0.084,0.082-0.125,0.125
		c-0.041,0.041-0.084,0.082-0.125,0.125c-0.041,0.041-0.084,0.082-0.125,0.125c-0.041,0.041-0.084,0.082-0.125,0.125
		c-0.041,0.041-0.084,0.082-0.125,0.125c-0.041,0.041-0.084,0.082-0.125,0.125c-0.041,0.041-0.084,0.082-0.125,0.125
		c-0.041,0.041-0.084,0.082-0.125,0.125c-0.041,0.041-0.084,0.082-0.125,0.125c-0.041,0.041-0.084,0.082-0.125,0.125
		c-0.041,0.041-0.084,0.082-0.125,0.125c-0.041,0.041-0.084,0.082-0.125,0.125c-0.041,0.041-0.084,0.082-0.125,0.125
		c-0.041,0.041-0.084,0.082-0.125,0.125c-0.041,0.041-0.084,0.082-0.125,0.125c-0.041,0.041-0.084,0.082-0.125,0.125
		c-0.041,0.041-0.084,0.082-0.125,0.125c-0.041,0.041-0.084,0.082-0.125,0.125c-0.041,0.041-0.084,0.082-0.125,0.125
		c-0.041,0.041-0.084,0.082-0.125,0.125c-0.041,0.041-0.084,0.082-0.125,0.125c-0.041,0.041-0.084,0.082-0.125,0.125
		c-1.217,1.211-1.994,2.711-1.994,4.16c0,2.039,0,8.317,0,8.317h3v1h-1v1h-1v1h-1v7h7v8h8v-1h1v-1h1v-1h1v-1h1v-1h1v-1h1v-1h1v-1
		h0.75H54v8h7h1v-1h1v-1h1v-1h1v-1h1v-1h1v-1h1v-1h1v-1h1v-1h1v-1h1v-1h1l32-32h-1l0,0h1v-1v-1h0.166v0.834L112,87.999v-7h-3.999
		L112,77c0,0,0-6.029,0-8.066C112,65.719,108.447,62,104.449,62z M22,37.027v-0.072C22,36.979,22.041,37.003,22,37.027z M22,36.902
		V36.83C22,36.854,22.25,36.878,22,36.902z M22,36.527v-0.072C22,36.479,23,36.503,22,36.527z"/>
</g>
<polygon fill="#FFFFFF" points="16,88 23,88 23,96 30,96 30,88 97,88 97,96 105,96 105,88 112,88 112,81 16,81 "/>
<path fill="#FFFFFF" d="M104.449,62c-3.292,0-77.598,0-80.889,0C19.563,62,16,65.719,16,68.934C16,70.971,16,77,16,77h96
	c0,0,0-6.029,0-8.066C112,65.719,108.447,62,104.449,62z"/>
<path fill="#FFFFFF" d="M64,24.49c-16.805,0-31,5.33-41,11.287C23,37.659,23,58,23,58h5.733c0,0,0.235-7,6.192-7
	c5.251,0,17.483,0,21.084,0c5.957,0,6.035,7,6.035,7h3.92c0,0,0.078-7,6.035-7c3.601,0,15.832,0,21.084,0c5.957,0,6.192,7,6.192,7
	H105c0,0,0-20.341,0-22.223C94,29.82,80.805,24.49,64,24.49z M70,48H57v-3.089l2.527-2.102c4.008-3.587,6.042-5.633,6.069-7.764
	c0-1.485-0.818-2.662-2.92-2.662c-1.569,0-2.918,0.785-3.871,1.485l-1.192-3.027c1.346-1.037,3.51-1.877,5.948-1.877
	c4.147,0,6.394,2.41,6.394,5.717c0,3.055-2.398,5.493-5.063,7.848L63,43.93V44h7V48z"/>
</svg>
