<?xml version="1.0" encoding="utf-8"?>
<!-- Generator: Adobe Illustrator 16.0.3, SVG Export Plug-In . SVG Version: 6.00 Build 0)  -->
<!DOCTYPE svg PUBLIC "-//W3C//DTD SVG 1.1//EN" "http://www.w3.org/Graphics/SVG/1.1/DTD/svg11.dtd">
<svg version="1.1" id="Layer_1" xmlns="http://www.w3.org/2000/svg" xmlns:xlink="http://www.w3.org/1999/xlink" x="0px" y="0px"
	 width="128px" height="128px" viewBox="0 0 128 128" enable-background="new 0 0 128 128" xml:space="preserve">
<path fill="#444953" class="bg" d="M128,25c0-13.807-11.182-25-24.99-25H25.002C11.194,0,0,11.193,0,25v78c0,13.807,11.194,25,25.002,25h78.007
	c13.809,0,24.99-11.193,24.99-25V25z"/>
<g>
	<defs>
		<path id="SVGID_1_" d="M128,25c0-13.807-11.182-25-24.99-25H25.002C11.194,0,0,11.193,0,25v78c0,13.807,11.194,25,25.002,25
			h78.007c13.809,0,24.99-11.193,24.99-25V25z"/>
	</defs>
	<clipPath id="SVGID_2_">
		<use xlink:href="#SVGID_1_"  overflow="visible"/>
	</clipPath>
	<path clip-path="url(#SVGID_2_)" fill="#353A42" class="shadow" d="M92.767,61.128c1.813-1.71,3.024-4.132,3.024-6.815
		c0-5.169-4.167-9.375-9.337-9.375c-2.547,0-4.839,1.024-6.528,2.677c-0.043,0.041-0.074,0.084-0.116,0.125
		c-0.043,0.041-0.079,0.084-0.121,0.125c-0.043,0.041-0.081,0.084-0.123,0.125c-0.043,0.041-0.082,0.084-0.124,0.125
		c-0.043,0.041-0.083,0.084-0.125,0.125c-0.043,0.041-0.082,0.084-0.124,0.125c-0.043,0.041-0.083,0.084-0.125,0.125
		c-0.043,0.041-0.083,0.084-0.125,0.125c-0.043,0.041-0.083,0.084-0.125,0.125c-0.043,0.041-0.083,0.084-0.125,0.125
		c-0.043,0.041-0.083,0.084-0.125,0.125c-0.043,0.041-0.083,0.084-0.125,0.125c-0.043,0.041-0.083,0.084-0.125,0.125
		c-0.043,0.041-0.083,0.084-0.125,0.125c-0.043,0.041-0.083,0.083-0.125,0.125c-0.043,0.041-0.083,0.084-0.125,0.125
		c-0.043,0.041-0.083,0.084-0.125,0.125c-0.043,0.041-0.083,0.084-0.125,0.125c-0.043,0.041-0.083,0.084-0.125,0.125
		c-0.043,0.041-0.083,0.084-0.125,0.125c-0.019,0.017,0.06,0.035,0.042,0.053C76.518,48.217,75,46.652,73,45.759
		c0,0,0-0.001,0-0.002c0-0.04-0.01-0.081,0.029-0.125c0.045-0.04,0.039-0.081,0.078-0.125c0.044-0.04,0.062-0.081,0.101-0.125
		c0.044-0.04,0.074-0.081,0.113-0.125c0.044-0.04,0.08-0.081,0.119-0.125c0.044-0.04,0.083-0.081,0.122-0.125
		c0.044-0.04,0.085-0.081,0.124-0.125c0.044-0.04,0.085-0.081,0.124-0.125c0.044-0.04,0.085-0.081,0.124-0.125
		c0.044-0.04,0.086-0.081,0.125-0.125c0.044-0.04,0.086-0.081,0.125-0.125c0.044-0.04,0.086-0.081,0.125-0.125
		c0.044-0.04,0.086-0.081,0.125-0.125c0.044-0.04,0.085-0.081,0.125-0.124c0.044-0.04,0.086-0.082,0.126-0.126
		c0.044-0.04,0.085-0.081,0.125-0.125c0.044-0.04,0.085-0.081,0.125-0.125c0.044-0.04,0.085-0.081,0.125-0.125
		c0.044-0.04,0.085-0.081,0.125-0.125c0.044-0.04,0.085-0.081,0.125-0.125c0.044-0.04,0.085-0.081,0.125-0.125
		c0.044-0.04,0.085-0.081,0.125-0.125c0.044-0.04,0.085-0.081,0.125-0.125c0.044-0.04,0.085-0.081,0.125-0.125
		c0.044-0.04,0.085-0.081,0.125-0.125c0.044-0.04,0.085-0.081,0.125-0.125c0.044-0.04,0.085-0.081,0.125-0.125
		c0.044-0.04,0.085-0.081,0.125-0.125c0.044-0.04,0.085-0.081,0.125-0.125c0.044-0.04,0.085-0.081,0.125-0.125
		c0.044-0.04,0.085-0.081,0.125-0.125c0.044-0.04,0.085-0.081,0.125-0.125c0.044-0.04,0.085-0.081,0.125-0.125
		c0.044-0.04,0.085-0.081,0.125-0.125c0.044-0.04,0.085-0.081,0.125-0.125c0.044-0.04,0.085-0.081,0.125-0.125
		c0.044-0.04,0.085-0.081,0.125-0.125c0.044-0.04,0.085-0.081,0.125-0.125c0.044-0.04,0.085-0.081,0.125-0.125
		c0.044-0.04,0.085-0.081,0.125-0.125c0.044-0.04,0.085-0.081,0.125-0.125c0.044-0.04,0.085-0.081,0.125-0.125
		c0.044-0.04,0.085-0.081,0.125-0.125c0.044-0.04,0.085-0.081,0.125-0.125c0.044-0.04,0.085-0.081,0.125-0.125
		c0.044-0.04,0.085-0.081,0.125-0.125c0.044-0.04,0.085-0.081,0.125-0.125c0.043-0.04,0.084-0.081,0.124-0.124
		c0.044-0.041,0.086-0.082,0.126-0.126c0.044-0.04,0.086-0.082,0.125-0.125c0.044-0.04,0.086-0.082,0.125-0.125
		c0.044-0.04,0.086-0.082,0.125-0.125c0.044-0.04,0.086-0.082,0.125-0.125c0.044-0.04,0.086-0.082,0.125-0.125
		c0.044-0.04,0.085-0.081,0.125-0.124c0.044-0.04,0.086-0.082,0.126-0.126c0.044-0.04,0.085-0.081,0.125-0.125
		c0.044-0.04,0.085-0.081,0.125-0.125c0.044-0.04,0.085-0.081,0.125-0.125c0.044-0.04,0.085-0.081,0.125-0.125
		c0.044-0.04,0.085-0.081,0.125-0.125c0.044-0.04,0.085-0.081,0.125-0.125c0.043-0.04,0.085-0.081,0.124-0.125
		c0.044-0.04,0.086-0.082,0.126-0.125c0.044-0.04,0.085-0.081,0.125-0.125c0.044-0.04,0.085-0.081,0.125-0.125
		c0.044-0.04,0.085-0.081,0.125-0.125c0.044-0.04,0.085-0.081,0.125-0.125c0.044-0.04,0.085-0.081,0.125-0.125
		c0.044-0.04,0.085-0.081,0.125-0.125c0.044-0.04,0.085-0.081,0.125-0.125c0.044-0.04,0.085-0.081,0.125-0.125
		c0.044-0.04,0.085-0.081,0.125-0.125c0.044-0.04,0.085-0.081,0.125-0.125c0.044-0.04,0.085-0.081,0.125-0.125
		c0.044-0.04,0.085-0.081,0.125-0.125c0.044-0.04,0.085-0.081,0.125-0.125c0.044-0.04,0.085-0.081,0.125-0.125
		c0.044-0.04,0.085-0.081,0.125-0.125c0.044-0.04,0.085-0.081,0.125-0.125c0.044-0.04,0.085-0.081,0.125-0.125
		c0.044-0.04,0.085-0.081,0.125-0.125c0.044-0.04,0.085-0.081,0.125-0.125c0.044-0.04,0.085-0.081,0.125-0.125
		c0.044-0.04,0.085-0.081,0.125-0.125c0.044-0.04,0.085-0.081,0.125-0.125c0.044-0.04,0.085-0.081,0.125-0.125
		c0.044-0.04,0.085-0.081,0.125-0.125c0.043-0.04,0.084-0.081,0.124-0.124c0.044-0.041,0.086-0.082,0.126-0.126
		c0.044-0.04,0.086-0.082,0.125-0.125c0.044-0.04,0.086-0.082,0.125-0.125c0.044-0.04,0.086-0.082,0.125-0.125
		c0.044-0.04,0.086-0.082,0.125-0.125c0.044-0.04,0.086-0.082,0.125-0.125c0.044-0.04,0.086-0.082,0.125-0.125
		c0.044-0.04,0.086-0.082,0.125-0.125c0.044-0.04,0.086-0.082,0.125-0.125c0.044-0.04,0.086-0.082,0.125-0.125
		c0.044-0.04,0.086-0.082,0.125-0.125c0.044-0.04,0.086-0.082,0.125-0.125c0.044-0.04,0.086-0.082,0.125-0.125
		c0.044-0.04,0.086-0.082,0.125-0.125c0.044-0.04,0.085-0.081,0.125-0.125c0.044-0.04,0.085-0.082,0.125-0.125
		c0.044-0.04,0.086-0.081,0.125-0.125c0.044-0.04,0.086-0.081,0.125-0.125c0.044-0.04,0.086-0.081,0.125-0.125
		c0.044-0.04,0.086-0.081,0.125-0.125c0.044-0.04,0.086-0.081,0.125-0.125c0.044-0.04,0.086-0.081,0.125-0.125
		c0.044-0.04,0.086-0.081,0.125-0.125c0.044-0.04,0.086-0.081,0.125-0.125c0.044-0.04,0.086-0.081,0.125-0.125
		c0.044-0.04,0.086-0.081,0.125-0.125c0.044-0.04,0.086-0.081,0.125-0.125c0.044-0.04,0.086-0.081,0.125-0.125
		c0.044-0.04,0.086-0.081,0.125-0.125c0.044-0.04,0.086-0.081,0.125-0.125c0.044-0.04,0.086-0.081,0.125-0.125
		c0.044-0.04,0.086-0.081,0.125-0.125c0.044-0.04,0.086-0.081,0.125-0.125c0.044-0.04,0.086-0.081,0.125-0.125
		c0.044-0.04,0.086-0.081,0.125-0.125c0.044-0.04,0.086-0.081,0.125-0.125c0.044-0.04,0.086-0.081,0.125-0.125
		c0.044-0.04,0.086-0.081,0.125-0.125c0.044-0.04,0.086-0.081,0.125-0.125c0.044-0.04,0.086-0.081,0.125-0.125
		c0.044-0.04,0.086-0.081,0.125-0.125c0.044-0.04,0.086-0.081,0.125-0.125c0.044-0.04,0.086-0.081,0.125-0.125
		c0.044-0.04,0.086-0.081,0.125-0.125c0.044-0.04,0.086-0.081,0.125-0.125c0.044-0.04,0.086-0.081,0.125-0.125
		c0.044-0.04,0.086-0.081,0.125-0.125c0.044-0.04,0.086-0.081,0.125-0.125c0.044-0.04,0.086-0.081,0.125-0.125
		c0.044-0.04,0.086-0.081,0.125-0.125c0.044-0.04,0.086-0.081,0.125-0.125c0.044-0.04,0.086-0.081,0.125-0.125
		c0.044-0.04,0.086-0.081,0.125-0.125c0.044-0.04,0.086-0.081,0.125-0.125c0.044-0.04,0.086-0.081,0.125-0.125
		c0.044-0.04,0.086-0.081,0.125-0.125c0.044-0.04,0.086-0.081,0.125-0.125c0.044-0.04,0.086-0.081,0.125-0.125
		c0.044-0.04,0.086-0.081,0.125-0.125c0.044-0.04,0.086-0.081,0.125-0.125c0.044-0.04,0.086-0.081,0.125-0.125
		c0.044-0.04,0.086-0.081,0.125-0.125c0.044-0.04,0.086-0.081,0.125-0.125c0.044-0.04,0.086-0.081,0.125-0.125
		c0.044-0.04,0.086-0.081,0.125-0.125c0.044-0.04,0.086-0.081,0.125-0.125c0.044-0.04,0.086-0.081,0.125-0.125
		c0.044-0.04,0.086-0.081,0.125-0.125c0.044-0.04,0.086-0.081,0.125-0.125c0.044-0.04,0.086-0.081,0.125-0.125
		c0.044-0.04,0.086-0.081,0.125-0.125c0.044-0.04,0.086-0.081,0.125-0.125c0.044-0.04,0.086-0.081,0.125-0.125
		c0.044-0.04,0.086-0.081,0.125-0.125c0.044-0.04,0.086-0.081,0.125-0.125c0.377-0.343,0.618-0.833,0.618-1.382
		c0-1.036-0.84-1.875-1.875-1.875H44.55c-2.721,0-5.027,0.88-6.633,2.398c-0.044,0.04-0.082,0.084-0.125,0.125
		c-0.044,0.04-0.082,0.084-0.125,0.125c-0.044,0.04-0.082,0.084-0.125,0.125c-0.044,0.04-0.082,0.084-0.125,0.125
		c-0.044,0.04-0.082,0.084-0.125,0.125c-0.043,0.04-0.082,0.084-0.124,0.124c-0.044,0.04-0.083,0.085-0.126,0.126
		c-0.044,0.04-0.082,0.084-0.125,0.125c-0.044,0.04-0.083,0.084-0.125,0.125c-0.044,0.04-0.082,0.084-0.125,0.125
		c-0.044,0.04-0.082,0.084-0.125,0.125c-0.044,0.04-0.082,0.084-0.125,0.125c-0.044,0.04-0.082,0.084-0.125,0.125
		c-0.044,0.04-0.082,0.084-0.125,0.125c-0.044,0.04-0.082,0.084-0.125,0.125c-0.044,0.04-0.082,0.084-0.125,0.125
		c-0.043,0.039-0.082,0.083-0.124,0.124c-0.044,0.04-0.083,0.085-0.126,0.126c-0.044,0.04-0.082,0.084-0.125,0.125
		c-0.044,0.04-0.082,0.084-0.125,0.125c-0.044,0.04-0.082,0.084-0.125,0.125c-0.044,0.04-0.082,0.084-0.125,0.125
		c-0.044,0.04-0.082,0.084-0.125,0.125c-0.044,0.04-0.082,0.084-0.125,0.125c-0.044,0.04-0.082,0.084-0.125,0.125
		c-0.044,0.04-0.082,0.084-0.125,0.125c-0.044,0.04-0.082,0.084-0.125,0.125c-0.044,0.04-0.082,0.084-0.125,0.125
		c-0.044,0.04-0.082,0.084-0.125,0.125c-0.044,0.04-0.082,0.084-0.125,0.125c-0.044,0.04-0.082,0.084-0.125,0.125
		c-0.044,0.04-0.082,0.084-0.125,0.125c-0.044,0.04-0.082,0.084-0.125,0.125c-0.044,0.04-0.082,0.084-0.125,0.125
		c-0.044,0.04-0.082,0.084-0.125,0.125c-0.044,0.04-0.082,0.084-0.125,0.125c-0.044,0.04-0.082,0.084-0.125,0.125
		c-0.044,0.04-0.082,0.084-0.125,0.125c-0.044,0.04-0.082,0.084-0.125,0.125c-0.044,0.04-0.082,0.084-0.125,0.125
		c-0.044,0.04-0.082,0.084-0.125,0.125c-0.044,0.04-0.082,0.084-0.125,0.125c-0.044,0.04-0.082,0.084-0.125,0.125
		c-0.044,0.04-0.082,0.084-0.125,0.125c-0.044,0.04-0.082,0.084-0.125,0.125c-0.044,0.04-0.082,0.084-0.125,0.125
		c-0.043,0.04-0.082,0.084-0.124,0.124c-0.044,0.04-0.083,0.085-0.126,0.126c-0.044,0.04-0.082,0.084-0.125,0.125
		c-0.044,0.04-0.082,0.084-0.125,0.125c-0.044,0.04-0.082,0.084-0.125,0.125c-0.044,0.04-0.082,0.084-0.125,0.125
		c-0.044,0.04-0.082,0.084-0.125,0.125c-0.044,0.04-0.082,0.084-0.125,0.125c-0.044,0.04-0.082,0.084-0.125,0.125
		c-0.044,0.04-0.082,0.084-0.125,0.125c-0.044,0.04-0.082,0.084-0.125,0.125c-0.044,0.04-0.082,0.084-0.125,0.125
		c-0.043,0.039-0.082,0.083-0.124,0.124c-0.044,0.04-0.083,0.085-0.126,0.126c-0.044,0.04-0.082,0.084-0.125,0.125
		c-0.044,0.04-0.082,0.084-0.125,0.125c-0.044,0.04-0.082,0.084-0.125,0.125c-0.044,0.04-0.082,0.084-0.125,0.125
		c-0.044,0.04-0.082,0.084-0.125,0.125c-0.044,0.04-0.082,0.084-0.125,0.125c-0.044,0.04-0.082,0.084-0.125,0.125
		c-0.044,0.04-0.082,0.084-0.125,0.125c-0.044,0.04-0.082,0.084-0.125,0.125c-0.044,0.04-0.082,0.084-0.125,0.125
		c-0.044,0.04-0.082,0.084-0.125,0.125c-0.044,0.04-0.082,0.084-0.125,0.125c-0.044,0.04-0.082,0.084-0.125,0.125
		c-0.044,0.04-0.082,0.084-0.125,0.125c-0.044,0.04-0.082,0.084-0.125,0.125c-0.044,0.04-0.082,0.084-0.125,0.125
		c-0.044,0.04-0.082,0.084-0.125,0.125c-0.044,0.04-0.082,0.084-0.125,0.125c-0.044,0.04-0.082,0.084-0.125,0.125
		c-0.044,0.04-0.082,0.084-0.125,0.125c-0.044,0.04-0.082,0.084-0.125,0.125c-0.044,0.04-0.082,0.084-0.125,0.125
		c-0.044,0.04-0.082,0.084-0.125,0.125c-0.044,0.04-0.082,0.084-0.125,0.125c-0.044,0.04-0.082,0.084-0.125,0.125
		c-0.044,0.04-0.082,0.084-0.125,0.125c-0.044,0.04-0.082,0.084-0.125,0.125c-0.044,0.04-0.082,0.084-0.125,0.125
		c-0.043,0.039-0.082,0.083-0.124,0.124c-0.044,0.04-0.083,0.085-0.126,0.126c-0.044,0.04-0.082,0.084-0.125,0.125
		c-0.044,0.04-0.082,0.084-0.125,0.125c-0.044,0.04-0.082,0.084-0.125,0.125c-0.044,0.04-0.082,0.084-0.125,0.125
		c-0.044,0.04-0.082,0.084-0.125,0.125c-0.044,0.04-0.082,0.084-0.125,0.125c-0.044,0.04-0.082,0.084-0.125,0.125
		c-0.044,0.04-0.082,0.084-0.125,0.125c-0.043,0.039-0.082,0.083-0.124,0.124c-0.044,0.04-0.083,0.085-0.126,0.126
		c-0.044,0.04-0.082,0.084-0.125,0.125c-0.044,0.04-0.082,0.084-0.125,0.125c-0.044,0.04-0.082,0.084-0.125,0.125
		c-0.044,0.04-0.082,0.084-0.125,0.125c-0.044,0.04-0.082,0.084-0.125,0.125c-0.044,0.04-0.082,0.084-0.125,0.125
		c-0.044,0.04-0.082,0.084-0.125,0.125c-0.044,0.04-0.082,0.084-0.125,0.125c-0.044,0.04-0.082,0.084-0.125,0.125
		c-0.044,0.04-0.082,0.084-0.125,0.125c-0.044,0.04-0.082,0.084-0.125,0.125c-0.044,0.04-0.082,0.084-0.125,0.125
		c-0.044,0.04-0.082,0.084-0.125,0.125c-0.044,0.04-0.082,0.084-0.125,0.125c-0.044,0.04-0.082,0.084-0.125,0.125
		c-0.044,0.04-0.082,0.084-0.125,0.125c-0.044,0.04-0.082,0.084-0.125,0.125c-0.044,0.04-0.082,0.084-0.125,0.125
		c-0.044,0.04-0.082,0.084-0.125,0.125c-0.044,0.04-0.082,0.084-0.125,0.125c-0.044,0.04-0.082,0.084-0.125,0.125
		c-0.044,0.04-0.082,0.084-0.125,0.125c-0.044,0.04-0.082,0.084-0.125,0.125c-0.044,0.04-0.082,0.084-0.125,0.125
		c-0.044,0.04-0.082,0.084-0.125,0.125c-0.044,0.04-0.082,0.084-0.125,0.125c-0.044,0.04-0.082,0.084-0.125,0.125
		c-0.044,0.04-0.082,0.084-0.125,0.125c-0.043,0.04-0.082,0.084-0.124,0.124c-0.044,0.04-0.083,0.085-0.126,0.126
		c-0.044,0.04-0.082,0.084-0.125,0.125c-0.044,0.04-0.082,0.084-0.125,0.125c-0.044,0.04-0.082,0.084-0.125,0.125
		c-0.044,0.04-0.082,0.084-0.125,0.125c-0.044,0.04-0.082,0.084-0.125,0.125c-0.044,0.04-0.082,0.084-0.125,0.125
		c-0.044,0.04-0.082,0.084-0.125,0.125c-0.044,0.04-0.082,0.084-0.125,0.125c-0.044,0.04-0.082,0.084-0.125,0.125
		c-0.043,0.039-0.082,0.083-0.124,0.124c-0.044,0.04-0.083,0.085-0.126,0.126c-0.044,0.04-0.082,0.084-0.125,0.125
		c-0.044,0.04-0.082,0.084-0.125,0.125c-0.044,0.04-0.082,0.084-0.125,0.125c-0.044,0.04-0.082,0.084-0.125,0.125
		c-0.044,0.04-0.082,0.084-0.125,0.125c-0.044,0.04-0.082,0.084-0.125,0.125c-0.044,0.04-0.082,0.084-0.125,0.125
		c-0.044,0.04-0.082,0.084-0.125,0.125c-0.044,0.04-0.082,0.084-0.125,0.125c-0.044,0.04-0.082,0.084-0.125,0.125
		c-0.044,0.04-0.082,0.084-0.125,0.125c-0.044,0.04-0.082,0.084-0.125,0.125c-0.044,0.04-0.082,0.084-0.125,0.125
		c-0.044,0.04-0.082,0.084-0.125,0.125c-0.044,0.04-0.082,0.084-0.125,0.125c-0.044,0.04-0.082,0.084-0.125,0.125
		c-0.044,0.04-0.082,0.084-0.125,0.125c-0.044,0.04-0.082,0.084-0.125,0.125c-0.044,0.04-0.082,0.084-0.125,0.125
		c-0.044,0.04-0.082,0.084-0.125,0.125c-0.044,0.04-0.082,0.084-0.125,0.125c-0.044,0.04-0.082,0.084-0.125,0.125
		c-0.044,0.04-0.082,0.084-0.125,0.125c-0.044,0.04-0.082,0.084-0.125,0.125c-0.044,0.04-0.082,0.084-0.125,0.125
		c-0.044,0.04-0.082,0.084-0.125,0.125c-0.044,0.04-0.082,0.084-0.125,0.125c-0.044,0.04-0.082,0.084-0.125,0.125
		c-0.043,0.04-0.082,0.084-0.124,0.124c-0.044,0.04-0.083,0.085-0.125,0.125c-0.044,0.04-0.083,0.084-0.125,0.125
		c-0.044,0.04-0.082,0.084-0.125,0.125c-0.044,0.04-0.082,0.084-0.125,0.125c-0.044,0.04-0.082,0.084-0.125,0.125
		c-0.044,0.04-0.082,0.084-0.125,0.125c-0.044,0.04-0.082,0.084-0.125,0.125c-0.044,0.04-0.082,0.084-0.125,0.125
		c-0.044,0.04-0.082,0.084-0.125,0.125c-0.044,0.04-0.082,0.084-0.125,0.125c-0.043,0.039-0.082,0.083-0.124,0.124
		c-0.044,0.04-0.083,0.085-0.126,0.126c-0.044,0.04-0.082,0.084-0.125,0.125c-0.044,0.04-0.082,0.084-0.125,0.125
		c-0.044,0.04-0.082,0.084-0.125,0.125c-0.044,0.04-0.082,0.084-0.125,0.125c-0.044,0.04-0.082,0.084-0.125,0.125
		c-0.044,0.04-0.082,0.084-0.125,0.125c-0.044,0.04-0.082,0.084-0.125,0.125c-0.044,0.04-0.082,0.084-0.125,0.125
		c-0.044,0.04-0.082,0.084-0.125,0.125c-0.044,0.04-0.082,0.084-0.125,0.125c-0.044,0.04-0.082,0.084-0.125,0.125
		c-0.044,0.04-0.082,0.084-0.125,0.125c-0.044,0.04-0.082,0.084-0.125,0.125c-0.044,0.04-0.082,0.084-0.125,0.125
		c-0.044,0.04-0.082,0.084-0.125,0.125c-0.044,0.04-0.082,0.084-0.125,0.125c-0.044,0.04-0.082,0.084-0.125,0.125
		c-0.044,0.04-0.082,0.084-0.125,0.125c-0.044,0.04-0.082,0.084-0.125,0.125c-0.044,0.04-0.082,0.084-0.125,0.125
		c-0.044,0.04-0.082,0.084-0.125,0.125c-0.044,0.04-0.082,0.084-0.125,0.125c-0.044,0.04-0.082,0.084-0.125,0.125
		c-0.044,0.04-0.082,0.084-0.125,0.125c-0.044,0.04-0.082,0.084-0.125,0.125c-0.044,0.04-0.082,0.084-0.125,0.125
		c-0.044,0.04-0.082,0.084-0.125,0.125c-0.044,0.04-0.082,0.084-0.125,0.125c-0.043,0.04-0.082,0.084-0.124,0.124
		c-0.044,0.04-0.083,0.085-0.126,0.126c-0.044,0.04-0.082,0.084-0.125,0.125c-0.044,0.04-0.082,0.084-0.125,0.125
		c-0.044,0.04-0.082,0.084-0.125,0.125c-0.044,0.04-0.082,0.084-0.125,0.125c-0.044,0.04-0.082,0.084-0.125,0.125
		c-0.044,0.04-0.082,0.084-0.125,0.125c-0.044,0.04-0.082,0.084-0.125,0.125c-0.044,0.04-0.082,0.084-0.125,0.125
		c-0.044,0.04-0.082,0.084-0.125,0.125c-0.043,0.039-0.082,0.083-0.124,0.124c-0.044,0.04-0.083,0.085-0.126,0.126
		c-0.044,0.04-0.082,0.084-0.125,0.125c-0.044,0.04-0.082,0.084-0.125,0.125c-0.044,0.04-0.082,0.084-0.125,0.125
		c-0.044,0.04-0.082,0.084-0.125,0.125c-0.044,0.04-0.082,0.084-0.125,0.125c-0.044,0.04-0.082,0.084-0.125,0.125
		c-0.044,0.04-0.082,0.084-0.125,0.125c-0.044,0.04-0.082,0.084-0.125,0.125c-0.044,0.04-0.082,0.084-0.125,0.125
		c-0.044,0.04-0.082,0.084-0.125,0.125c-0.044,0.04-0.082,0.084-0.125,0.125c-0.044,0.04-0.082,0.084-0.125,0.125
		c-0.044,0.04-0.082,0.084-0.125,0.125c-0.044,0.04-0.082,0.084-0.125,0.125c-0.044,0.04-0.082,0.084-0.125,0.125
		c-0.044,0.04-0.082,0.084-0.125,0.125c-0.044,0.04-0.082,0.084-0.125,0.125c-0.044,0.04-0.082,0.084-0.125,0.125
		c-0.044,0.04-0.082,0.084-0.125,0.125c-0.044,0.04-0.082,0.084-0.125,0.125c-0.044,0.04-0.082,0.084-0.125,0.125
		c-0.044,0.04-0.082,0.084-0.125,0.125c-0.044,0.04-0.082,0.084-0.125,0.125c-0.044,0.04-0.082,0.084-0.125,0.125
		c-0.044,0.04-0.082,0.084-0.125,0.125c-0.044,0.04-0.082,0.084-0.125,0.125c-0.044,0.04-0.082,0.084-0.125,0.125
		c-0.044,0.04-0.082,0.084-0.125,0.125c-0.043,0.04-0.082,0.084-0.124,0.124c-0.044,0.04-0.083,0.085-0.125,0.125
		c-0.044,0.04-0.083,0.084-0.125,0.125c-0.044,0.04-0.082,0.084-0.125,0.125c-0.044,0.04-0.082,0.084-0.125,0.125
		c-0.044,0.04-0.082,0.084-0.125,0.125c-0.044,0.04-0.082,0.084-0.125,0.125c-0.044,0.04-0.082,0.084-0.125,0.125
		c-0.044,0.04-0.082,0.084-0.125,0.125c-0.044,0.04-0.082,0.084-0.125,0.125c-0.044,0.04-0.082,0.084-0.125,0.125
		c-0.043,0.039-0.082,0.083-0.124,0.124c-0.044,0.04-0.083,0.085-0.126,0.126c-0.044,0.04-0.082,0.084-0.125,0.125
		c-0.044,0.04-0.082,0.084-0.125,0.125c-0.044,0.04-0.082,0.084-0.125,0.125c-0.044,0.04-0.082,0.084-0.125,0.125
		c-0.044,0.04-0.082,0.084-0.125,0.125c-0.044,0.04-0.082,0.084-0.125,0.125c-0.044,0.04-0.082,0.084-0.125,0.125
		c-0.044,0.04-0.082,0.084-0.125,0.125c-0.044,0.04-0.082,0.084-0.125,0.125c-0.044,0.04-0.082,0.084-0.125,0.125
		c-0.044,0.04-0.082,0.084-0.125,0.125c-0.044,0.04-0.082,0.084-0.125,0.125c-0.044,0.04-0.082,0.084-0.125,0.125
		c-0.044,0.04-0.082,0.084-0.125,0.125c-0.044,0.04-0.082,0.084-0.125,0.125c-0.044,0.04-0.082,0.084-0.125,0.125
		c-0.044,0.04-0.082,0.084-0.125,0.125c-0.044,0.04-0.082,0.084-0.125,0.125c-0.044,0.04-0.082,0.084-0.125,0.125
		c-0.044,0.04-0.082,0.084-0.125,0.125c-0.044,0.04-0.082,0.084-0.125,0.125c-0.044,0.04-0.082,0.084-0.125,0.125
		c-0.044,0.04-0.082,0.084-0.125,0.125c-0.044,0.04-0.082,0.084-0.125,0.125c-0.044,0.04-0.082,0.084-0.125,0.125
		c-0.044,0.04-0.082,0.084-0.125,0.125c-0.044,0.04-0.082,0.084-0.125,0.125c-0.044,0.04-0.082,0.084-0.125,0.125
		c-0.043,0.04-0.082,0.084-0.124,0.124c-0.044,0.04-0.083,0.085-0.126,0.126c-0.044,0.04-0.082,0.084-0.125,0.125
		c-0.044,0.04-0.082,0.084-0.125,0.125c-0.044,0.04-0.082,0.084-0.125,0.125c-0.044,0.04-0.082,0.084-0.125,0.125
		c-0.044,0.04-0.082,0.084-0.125,0.125c-0.044,0.04-0.082,0.084-0.125,0.125c-0.044,0.04-0.082,0.084-0.125,0.125
		c-0.044,0.04-0.082,0.084-0.125,0.125c-0.044,0.04-0.082,0.084-0.125,0.125c-0.043,0.039-0.082,0.083-0.124,0.124
		c-0.044,0.04-0.083,0.085-0.126,0.126c-0.044,0.04-0.082,0.084-0.125,0.125c-0.044,0.04-0.082,0.084-0.125,0.125
		c-0.044,0.04-0.082,0.084-0.125,0.125c-0.044,0.04-0.082,0.084-0.125,0.125c-0.044,0.04-0.082,0.084-0.125,0.125
		c-0.044,0.04-0.082,0.084-0.125,0.125c-0.044,0.04-0.082,0.084-0.125,0.125c-0.044,0.04-0.082,0.084-0.125,0.125
		c-0.044,0.04-0.082,0.084-0.125,0.125c-0.044,0.04-0.082,0.084-0.125,0.125c-0.044,0.04-0.082,0.084-0.125,0.125
		c-0.043,0.04-0.082,0.084-0.124,0.124c-0.044,0.04-0.083,0.085-0.126,0.126c-0.044,0.04-0.332,0.084-0.375,0.125
		C-3.813,65.72-5,67.783-5,70.25v27.357c0,0.036,0.177,0.075,0.139,0.112c-0.042,0.041,0.042,0.083,0,0.125
		c-0.042,0.041-0.021,0.083-0.063,0.125c-0.042,0.041-0.052,0.083-0.094,0.125c-0.042,0.041-0.067,0.083-0.109,0.125
		c-0.042,0.041-0.075,0.083-0.117,0.125c-0.042,0.041-0.079,0.083-0.121,0.125c-0.042,0.04-0.081,0.083-0.122,0.124
		c-0.043,0.041-0.083,0.084-0.125,0.126c-0.043,0.041-0.083,0.083-0.125,0.125c-0.043,0.041-0.083,0.083-0.125,0.125
		c-0.043,0.041-0.083,0.083-0.125,0.125c-0.043,0.041-0.083,0.083-0.125,0.125c-0.043,0.041-0.083,0.083-0.125,0.125
		c-0.043,0.041-0.083,0.083-0.125,0.125c-0.043,0.041-0.083,0.083-0.125,0.125c-0.043,0.041-0.083,0.083-0.125,0.125
		c-0.043,0.041-0.083,0.083-0.125,0.125c-0.043,0.041-0.083,0.083-0.125,0.125c-0.043,0.041-0.083,0.083-0.125,0.125
		c-0.043,0.041-0.083,0.083-0.125,0.125c-0.043,0.041-0.083,0.083-0.125,0.125c-0.043,0.041-0.083,0.083-0.125,0.125
		c-0.043,0.041-0.083,0.083-0.125,0.125c-0.043,0.041-0.083,0.083-0.125,0.125c-0.043,0.041-0.083,0.083-0.125,0.125
		c-0.043,0.041-0.083,0.083-0.125,0.125c-0.043,0.041-0.083,0.083-0.125,0.125c-0.042,0.04-0.083,0.083-0.125,0.125
		c-0.043,0.041-0.083,0.083-0.125,0.125c-0.043,0.041-0.083,0.083-0.125,0.125c-0.043,0.041-0.083,0.083-0.125,0.125
		c-0.043,0.041-0.083,0.083-0.125,0.125c-0.043,0.041-0.083,0.083-0.125,0.125c-0.042,0.04-0.083,0.083-0.124,0.124
		c-0.043,0.041-0.084,0.084-0.126,0.126c-0.042,0.041-0.083,0.083-0.125,0.125c-0.042,0.041-0.083,0.083-0.125,0.125
		c-0.042,0.041-0.083,0.083-0.125,0.125c-0.042,0.041-0.083,0.083-0.125,0.125c-0.042,0.041-0.083,0.083-0.125,0.125
		c-0.042,0.041-0.083,0.083-0.125,0.125c-0.042,0.041-0.083,0.083-0.125,0.125c-0.042,0.041-0.083,0.083-0.125,0.125
		c-0.042,0.041-0.083,0.083-0.125,0.125c-0.042,0.041-0.333,0.083-0.375,0.125c-1.394,1.329-2.514,3.188-2.514,5.28v16.25
		c0,4.143,3.903,8.125,8.045,8.125H-1v4h9l0,0l0,0l0,0l0,0l0,0l0,0l0,0l0,0v-1h1l0,0l0,0l0,0l0,0l0,0l0,0l0,0l0,0l0,0l0,0l0,0l0,0
		l0,0l0,0v-1h1l0,0l0,0l0,0l0,0l0,0l0,0l0,0l0,0l0,0l0,0l0,0l0,0l0,0l0,0v-1h1l0,0l0,0l0,0l0,0l0,0l0,0l0,0l0,0l0,0l0,0l0,0l0,0l0,0
		l0,0v-1h1l0,0l0,0l0,0l0,0l0,0l0,0l0,0l0,0l0,0l0,0l0,0l0,0l0,0h0.501H40v4h9l0,0l0,0l0,0l0,0l0,0l0,0l0,0l0,0v-1l0,0l0,0l0,0l0,0
		l0,0l0,0h1l0,0l0,0l0,0l0,0l0,0l0,0l0,0l0,0v-1l0,0l0,0l0,0l0,0l0,0l0,0h1l0,0l0,0l0,0l0,0l0,0l0,0l0,0l0,0v-1l0,0l0,0l0,0l0,0l0,0
		l0,0h1l0,0l0,0l0,0l0,0l0,0l0,0l0,0l0,0v-1l0,0l0,0l0,0l0,0l0,0l0,0h1l0,0l0,0l0,0l0,0l0,0l0,0l0,0l0,0v-0.511
		c2-0.057,3.814-0.926,5.119-2.293c0.042-0.042,0.085-0.082,0.126-0.125c0.042-0.042,0.085-0.082,0.125-0.125
		c0.042-0.042,0.084-0.082,0.125-0.125c0.042-0.042,0.085-0.082,0.125-0.125c0.042-0.042,0.084-0.082,0.125-0.125
		c0.042-0.042,0.084-0.082,0.125-0.125c0.042-0.042,0.084-0.082,0.125-0.125c0.042-0.042,0.084-0.082,0.125-0.125
		c0.042-0.042,0.084-0.082,0.125-0.125c0.042-0.042,0.084-0.082,0.125-0.125c0.042-0.042,0.084-0.082,0.125-0.125
		c0.042-0.042,0.084-0.082,0.125-0.125c0.042-0.042,0.084-0.082,0.125-0.125c0.042-0.042,0.084-0.082,0.125-0.125
		c0.042-0.041,0.084-0.082,0.124-0.124c0.042-0.042,0.085-0.083,0.126-0.126c0.042-0.042,0.084-0.082,0.125-0.125
		c0.042-0.042,0.084-0.082,0.125-0.125c0.042-0.042,0.084-0.082,0.125-0.125c0.042-0.042,0.084-0.082,0.125-0.125
		c0.042-0.042,0.084-0.082,0.125-0.125c0.042-0.042,0.084-0.082,0.125-0.125c0.042-0.042,0.084-0.082,0.125-0.125
		c0.042-0.042,0.084-0.082,0.125-0.125c0.042-0.042,0.084-0.082,0.125-0.125c0.042-0.042,0.084-0.082,0.125-0.125
		c0.042-0.042,0.084-0.082,0.125-0.125c0.042-0.042,0.084-0.082,0.125-0.125c0.042-0.042,0.084-0.082,0.125-0.125
		c0.041-0.041,0.083-0.081,0.124-0.124c0.042-0.042,0.085-0.083,0.126-0.126c0.042-0.042,0.084-0.082,0.125-0.125
		c0.042-0.042,0.084-0.082,0.125-0.125c0.042-0.042,0.084-0.082,0.125-0.125c0.042-0.042,0.084-0.082,0.125-0.125
		c0.042-0.042,0.084-0.082,0.125-0.125c0.042-0.042,0.085-0.083,0.126-0.126c0.041-0.042,0.083-0.082,0.124-0.124
		c0.042-0.042,0.084-0.082,0.125-0.125c0.042-0.042,0.084-0.082,0.125-0.125c0.042-0.042,0.084-0.082,0.125-0.125
		c0.042-0.042,0.084-0.082,0.125-0.125c0.042-0.042,0.084-0.082,0.125-0.125c0.042-0.042,0.084-0.082,0.125-0.125
		c0.042-0.042,0.084-0.082,0.125-0.125c0.042-0.042,0.084-0.082,0.125-0.125c0.042-0.042,0.084-0.082,0.125-0.125
		c0.042-0.042,0.084-0.082,0.125-0.125c0.042-0.041,0.084-0.082,0.125-0.125c0.042-0.042,0.084-0.082,0.125-0.125
		c0.042-0.042,0.084-0.082,0.125-0.125c0.042-0.042,0.084-0.082,0.125-0.125c0.042-0.042,0.084-0.082,0.125-0.125
		c0.042-0.042,0.084-0.082,0.125-0.125c0.042-0.042,0.084-0.082,0.125-0.125c0.042-0.041,0.083-0.082,0.124-0.124
		c0.042-0.042,0.085-0.083,0.126-0.126c0.042-0.042,0.085-0.082,0.125-0.125c0.042-0.042,0.085-0.082,0.125-0.125
		c0.042-0.042,0.085-0.082,0.125-0.125c0.042-0.042,0.085-0.082,0.125-0.125c0.042-0.042,0.085-0.082,0.125-0.125
		c0.042-0.042,0.085-0.082,0.125-0.125c0.042-0.042,0.085-0.082,0.125-0.125c0.042-0.042,0.085-0.082,0.125-0.125
		c0.042-0.042,0.085-0.082,0.125-0.125c0.042-0.042,0.085-0.082,0.125-0.125c0.042-0.042,0.085-0.082,0.125-0.125
		c0.042-0.042,0.085-0.082,0.125-0.125c0.041-0.041,0.083-0.08,0.123-0.122c0.043-0.043,0.086-0.084,0.128-0.128
		c0.042-0.042,0.084-0.082,0.125-0.125c0.042-0.042,0.084-0.082,0.125-0.125c0.042-0.042,0.084-0.082,0.125-0.125
		c0.042-0.042,0.084-0.082,0.125-0.125c0.042-0.042,0.084-0.082,0.125-0.125c0.042-0.042,0.084-0.082,0.125-0.125
		c0.042-0.042,0.084-0.082,0.125-0.125c0.042-0.042,0.084-0.082,0.125-0.125c0.042-0.042,0.084-0.082,0.125-0.125
		c0.042-0.042,0.084-0.082,0.125-0.125c0.042-0.042,0.084-0.082,0.125-0.125c0.042-0.042,0.084-0.082,0.125-0.125
		c0.042-0.042,0.084-0.082,0.125-0.125c0.042-0.042,0.084-0.082,0.125-0.125c0.042-0.042,0.084-0.082,0.125-0.125
		c0.042-0.042,0.084-0.082,0.125-0.125c0.042-0.042,0.084-0.082,0.125-0.125c0.042-0.042,0.084-0.082,0.125-0.125
		c0.042-0.042,0.084-0.082,0.125-0.125c0.042-0.042,0.084-0.082,0.125-0.125c0.042-0.042,0.084-0.082,0.125-0.125
		c0.042-0.042,0.084-0.082,0.125-0.125c0.042-0.042,0.084-0.082,0.125-0.125c0.042-0.042,0.084-0.082,0.125-0.125
		c0.042-0.042,0.084-0.082,0.125-0.125c0.041-0.041,0.083-0.081,0.123-0.123c0.042-0.042,0.086-0.083,0.128-0.127
		c0.041-0.042,0.084-0.082,0.125-0.125c0.041-0.042,0.084-0.082,0.125-0.125c0.041-0.042,0.084-0.082,0.125-0.125
		c0.041-0.042,0.084-0.082,0.125-0.125c0.041-0.042,0.084-0.082,0.125-0.125c0.041-0.042,0.084-0.082,0.125-0.125
		c0.041-0.042,0.084-0.082,0.125-0.125c0.041-0.042,0.084-0.082,0.125-0.125c0.041-0.042,0.084-0.082,0.125-0.125
		c0.041-0.042,0.084-0.082,0.125-0.125c0.041-0.042,0.084-0.082,0.125-0.125c0.041-0.042,0.084-0.082,0.125-0.125
		c0.041-0.042,0.084-0.082,0.125-0.125c0.04-0.041,0.082-0.08,0.122-0.122c0.043-0.043,0.086-0.084,0.128-0.128
		c0.042-0.042,0.084-0.082,0.125-0.125c0.042-0.042,0.084-0.082,0.125-0.125c0.042-0.042,0.084-0.082,0.125-0.125
		c0.042-0.042,0.084-0.082,0.125-0.125c0.042-0.042,0.084-0.082,0.125-0.125c0.042-0.042,0.084-0.082,0.125-0.125
		c0.042-0.042,0.084-0.082,0.125-0.125c0.042-0.042,0.084-0.082,0.125-0.125c0.042-0.042,0.084-0.082,0.125-0.125
		c0.042-0.042,0.084-0.082,0.125-0.125c0.042-0.042,0.084-0.082,0.125-0.125c0.042-0.042,0.084-0.082,0.125-0.125
		c0.042-0.042,0.084-0.082,0.125-0.125c0.042-0.042,0.084-0.082,0.125-0.125c0.042-0.042,0.084-0.082,0.125-0.125
		c0.042-0.042,0.084-0.082,0.125-0.125c0.042-0.042,0.084-0.082,0.125-0.125c0.042-0.042,0.084-0.082,0.125-0.125
		c0.042-0.042,0.084-0.082,0.125-0.125c0.042-0.042,0.084-0.082,0.125-0.125c0.042-0.042,0.084-0.082,0.125-0.125
		c0.042-0.042,0.084-0.082,0.125-0.125c0.042-0.042,0.084-0.082,0.125-0.125c0.042-0.042,0.084-0.082,0.125-0.125
		c0.042-0.042,0.084-0.082,0.125-0.125c0.042-0.042,0.084-0.082,0.125-0.125c0.042-0.042,0.084-0.082,0.125-0.125
		c0.042-0.042,0.084-0.082,0.125-0.125c0.042-0.042,0.084-0.082,0.125-0.125c0.042-0.042,0.084-0.082,0.125-0.125
		c0.042-0.042,0.084-0.082,0.125-0.125c0.042-0.042,0.084-0.082,0.125-0.125c0.042-0.042,0.084-0.082,0.125-0.125
		c0.042-0.042,0.084-0.082,0.125-0.125c0.042-0.042,0.084-0.082,0.125-0.125c0.042-0.042,0.084-0.082,0.125-0.125
		c0.042-0.042,0.084-0.082,0.125-0.125c0.042-0.042,0.084-0.082,0.125-0.125c0.042-0.042,0.084-0.082,0.125-0.125
		c0.042-0.042,0.084-0.082,0.125-0.125c0.042-0.042,0.084-0.082,0.125-0.125c0.042-0.042,0.084-0.082,0.125-0.125
		c0.042-0.042,0.084-0.082,0.125-0.125c0.042-0.042,0.084-0.082,0.125-0.125c0.042-0.042,0.084-0.082,0.125-0.125
		c0.042-0.042,0.084-0.082,0.125-0.125c0.042-0.042,0.084-0.082,0.125-0.125c0.042-0.042,0.084-0.082,0.125-0.125
		c0.042-0.042,0.084-0.082,0.125-0.125c0.042-0.042,0.084-0.082,0.125-0.125c0.042-0.042,0.084-0.082,0.125-0.125
		c0.042-0.042,0.084-0.082,0.125-0.125c0.042-0.042,0.084-0.082,0.125-0.125c0.042-0.042,0.084-0.082,0.125-0.125
		c0.042-0.042,0.084-0.082,0.125-0.125c0.042-0.042,0.084-0.082,0.125-0.125c0.042-0.042,0.084-0.082,0.125-0.125
		c0.042-0.042,0.084-0.082,0.125-0.125c0.042-0.042,0.084-0.082,0.125-0.125c0.042-0.042,0.084-0.082,0.125-0.125
		c0.042-0.042,0.084-0.082,0.125-0.125c0.042-0.042,0.084-0.082,0.125-0.125c0.042-0.042,0.084-0.082,0.125-0.125
		c0.042-0.042,0.084-0.082,0.125-0.125c0.042-0.042,0.084-0.082,0.125-0.125c0.042-0.042,0.084-0.082,0.125-0.125
		c0.042-0.042,0.084-0.082,0.125-0.125c0.042-0.042,0.084-0.082,0.125-0.125c0.042-0.042,0.084-0.082,0.125-0.125
		c0.042-0.042,0.084-0.082,0.125-0.125c0.042-0.042,0.084-0.082,0.125-0.125c0.042-0.042,0.084-0.082,0.125-0.125
		c0.042-0.042,0.084-0.082,0.125-0.125c0.042-0.042,0.084-0.082,0.125-0.125c0.042-0.042,0.084-0.082,0.125-0.125
		c0.042-0.042,0.084-0.082,0.125-0.125c0.042-0.042,0.084-0.082,0.125-0.125c0.042-0.042,0.084-0.082,0.125-0.125
		c0.042-0.042,0.084-0.082,0.125-0.125c0.042-0.042,0.084-0.082,0.125-0.125c0.042-0.042,0.084-0.082,0.125-0.125
		c0.042-0.042,0.084-0.082,0.125-0.125c0.042-0.042,0.084-0.082,0.125-0.125c0.042-0.042,0.084-0.082,0.125-0.125
		c0.042-0.042,0.084-0.082,0.125-0.125c0.042-0.042,0.084-0.082,0.125-0.125c0.042-0.042,0.084-0.082,0.125-0.125
		c0.042-0.042,0.084-0.082,0.125-0.125c0.042-0.042,0.084-0.082,0.125-0.125c0.042-0.042,0.084-0.082,0.125-0.125
		c0.042-0.042,0.084-0.082,0.125-0.125c0.042-0.042,0.084-0.082,0.125-0.125c0.042-0.042,0.084-0.082,0.125-0.125
		c0.042-0.042,0.084-0.082,0.125-0.125c0.042-0.042,0.084-0.082,0.125-0.125c0.042-0.042,0.084-0.082,0.125-0.125
		c0.042-0.042,0.084-0.082,0.125-0.125c0.042-0.042,0.084-0.082,0.125-0.125c0.042-0.042,0.084-0.082,0.124-0.124
		c0.042-0.042,0.085-0.083,0.126-0.126c0.042-0.042,0.084-0.082,0.125-0.125c0.042-0.042,0.084-0.082,0.125-0.125
		c0.042-0.042,0.084-0.082,0.125-0.125c0.042-0.042,0.084-0.082,0.125-0.125c0.042-0.042,0.084-0.082,0.125-0.125
		c0.042-0.042,0.084-0.082,0.125-0.125c0.041-0.041,0.083-0.081,0.123-0.123c0.043-0.042,0.086-0.083,0.127-0.127
		c0.042-0.042,0.085-0.082,0.125-0.125c0.042-0.042,0.085-0.082,0.125-0.125c0.042-0.042,0.085-0.082,0.125-0.125
		c0.042-0.042,0.085-0.082,0.125-0.125c0.042-0.042,0.085-0.082,0.125-0.125c0.042-0.042,0.085-0.082,0.125-0.125
		c0.042-0.042,0.085-0.082,0.125-0.125c0.042-0.042,0.085-0.082,0.125-0.125c0.042-0.042,0.085-0.082,0.125-0.125
		c0.042-0.042,0.085-0.082,0.125-0.125c0.042-0.042,0.085-0.082,0.125-0.125c0.042-0.042,0.085-0.082,0.125-0.125
		c0.041-0.041,0.083-0.08,0.123-0.122c0.043-0.043,0.086-0.084,0.128-0.128c0.042-0.042,0.084-0.082,0.125-0.125
		c0.042-0.042,0.084-0.082,0.125-0.125c0.042-0.042,0.084-0.082,0.125-0.125c0.042-0.042,0.084-0.082,0.125-0.125
		c0.042-0.042,0.084-0.082,0.125-0.125c0.042-0.042,0.084-0.082,0.125-0.125c0.042-0.042,0.084-0.082,0.125-0.125
		c0.042-0.042,0.084-0.082,0.125-0.125c0.042-0.042,0.084-0.082,0.125-0.125c0.042-0.042,0.084-0.082,0.125-0.125
		c0.042-0.042,0.084-0.082,0.125-0.125c0.042-0.042,0.084-0.082,0.125-0.125c0.042-0.042,0.084-0.082,0.125-0.125
		c0.042-0.042,0.084-0.082,0.125-0.125c0.042-0.042,0.084-0.082,0.125-0.125c0.042-0.042,0.084-0.082,0.125-0.125
		c0.042-0.042,0.084-0.082,0.125-0.125c0.042-0.042,0.084-0.082,0.124-0.124c0.042-0.042,0.085-0.083,0.126-0.126
		c0.042-0.042,0.084-0.082,0.125-0.125c0.042-0.042,0.084-0.082,0.125-0.125c0.042-0.042,0.084-0.082,0.125-0.125
		c0.042-0.042,0.084-0.082,0.125-0.125c0.042-0.042,0.084-0.082,0.125-0.125c0.042-0.042,0.084-0.082,0.125-0.125
		c0.041-0.041,0.083-0.081,0.123-0.123c0.043-0.042,0.086-0.083,0.128-0.127c0.041-0.042,0.084-0.082,0.125-0.125
		c0.041-0.042,0.084-0.082,0.125-0.125c0.041-0.042,0.084-0.082,0.125-0.125c0.041-0.042,0.084-0.082,0.125-0.125
		c0.041-0.042,0.084-0.082,0.125-0.125c0.041-0.042,0.084-0.082,0.125-0.125c0.041-0.042,0.084-0.082,0.125-0.125
		c0.041-0.042,0.084-0.082,0.125-0.125c0.041-0.042,0.084-0.082,0.125-0.125c0.041-0.042,0.084-0.082,0.125-0.125
		c0.041-0.042,0.084-0.082,0.125-0.125c0.041-0.042,0.084-0.082,0.125-0.125c0.04-0.041,0.082-0.08,0.122-0.122
		c0.043-0.043,0.086-0.084,0.128-0.128c0.042-0.042,0.084-0.082,0.125-0.125c0.042-0.042,0.084-0.082,0.125-0.125
		c0.042-0.042,0.084-0.082,0.125-0.125c0.042-0.042,0.084-0.082,0.125-0.125c0.042-0.042,0.084-0.082,0.125-0.125
		c0.042-0.042,0.084-0.082,0.125-0.125c0.042-0.042,0.084-0.082,0.125-0.125c0.042-0.042,0.084-0.082,0.125-0.125
		c0.042-0.042,0.084-0.082,0.125-0.125c0.042-0.042,0.084-0.082,0.125-0.125c0.042-0.042,0.084-0.082,0.125-0.125
		c0.042-0.042,0.084-0.082,0.125-0.125c0.042-0.042,0.084-0.082,0.125-0.125c0.042-0.042,0.084-0.082,0.125-0.125
		c0.042-0.042,0.084-0.082,0.125-0.125c0.042-0.042,0.084-0.082,0.125-0.125c0.042-0.042,0.084-0.082,0.125-0.125
		c0.042-0.042,0.084-0.082,0.125-0.125c0.042-0.042,0.084-0.082,0.125-0.125c0.042-0.042,0.084-0.082,0.125-0.125
		c0.042-0.042,0.084-0.082,0.125-0.125c0.042-0.042,0.084-0.082,0.125-0.125c0.042-0.042,0.084-0.082,0.125-0.125
		c0.042-0.042,0.084-0.082,0.125-0.125c0.042-0.042,0.084-0.082,0.125-0.125c0.042-0.042,0.084-0.082,0.125-0.125
		c0.042-0.042,0.084-0.082,0.125-0.125c0.042-0.042,0.084-0.082,0.125-0.125c0.042-0.042,0.084-0.082,0.125-0.125
		c0.042-0.042,0.084-0.082,0.125-0.125c0.042-0.042,0.084-0.082,0.125-0.125c0.042-0.042,0.084-0.082,0.125-0.125
		c0.042-0.042,0.084-0.082,0.125-0.125c0.042-0.042,0.084-0.082,0.125-0.125c0.042-0.042,0.084-0.082,0.125-0.125
		c0.042-0.042,0.084-0.082,0.125-0.125c0.042-0.042,0.084-0.082,0.125-0.125c0.042-0.042,0.084-0.082,0.125-0.125
		c0.042-0.042,0.084-0.082,0.125-0.125c0.042-0.042,0.084-0.082,0.125-0.125c0.042-0.042,0.084-0.082,0.125-0.125
		c0.042-0.042,0.084-0.082,0.125-0.125c0.042-0.042-0.046-0.082-0.005-0.125c1.395-1.396,2.13-3.333,2.13-5.446v-16.25
		C100,64.521,96.856,61.189,92.767,61.128z"/>
</g>
<g>
	<path fill="#FFFFFF" d="M67.994,55.21c0.244,0.244,0.564,0.366,0.885,0.366c0.319,0,0.64-0.122,0.884-0.366
		c0.488-0.488,0.488-1.28,0-1.768L67.11,50.79c-0.487-0.488-1.28-0.488-1.768,0c-0.488,0.488-0.488,1.28,0,1.768L67.994,55.21z"/>
	<path fill="#FFFFFF" d="M86.563,55.576c0.318,0,0.639-0.122,0.883-0.366l2.652-2.652c0.488-0.488,0.488-1.28,0-1.768
		c-0.488-0.488-1.28-0.488-1.768,0l-2.652,2.652c-0.488,0.488-0.488,1.28,0,1.768C85.922,55.454,86.242,55.576,86.563,55.576z"/>
	<path fill="#FFFFFF" d="M92.767,61.128c1.813-1.71,3.024-4.132,3.024-6.815c0-5.169-4.167-9.375-9.337-9.375
		c-3.986,0-7.379,2.501-8.732,6.015c-1.354-3.514-4.755-6.015-8.741-6.015c-5.17,0-9.371,4.143-9.371,9.313
		c0,2.682,1.139,5.75,2.949,6.75H39V30.25c0-2.81,2.36-4.25,5.55-4.25h47.504c1.035,0,1.875-0.964,1.875-2s-0.84-2-1.875-2H44.55
		C39.251,22,35,25.319,35,30.25V61h0.049C30.907,61,27,64.483,27,68.625v16.25C27,89.018,30.907,93,35.049,93H39v4h9v-4h32v4h8v-4
		h4.805c4.143,0,7.195-3.982,7.195-8.125v-16.25C100,64.521,96.856,61.189,92.767,61.128z M86.492,48.688
		c3.105,0,5.625,2.519,5.625,5.625s-2.52,5.625-5.625,5.625c-3.107,0-5.626-2.519-5.626-5.625S83.385,48.688,86.492,48.688z
		 M68.99,48.688c3.106,0,5.625,2.519,5.625,5.625s-2.519,5.625-5.625,5.625c-3.107,0-5.626-2.519-5.626-5.625
		S65.883,48.688,68.99,48.688z M77.74,57.547C78.25,58.868,79.049,60,80.061,61h-4.639C76.433,60,77.232,58.868,77.74,57.547z
		 M51,85.625c0,1.035-0.964,1.875-2,1.875s-2-0.84-2-1.875v-17.5c0-1.035,0.964-1.875,2-1.875s2,0.84,2,1.875V85.625z M79,85.625
		c0,1.035-0.965,1.875-2,1.875c-1.036,0-2-0.84-2-1.875v-17.5c0-1.035,0.964-1.875,2-1.875c1.035,0,2,0.84,2,1.875V85.625z"/>
</g>
</svg>
