<?xml version="1.0" encoding="utf-8"?>
<!-- Generator: Adobe Illustrator 16.0.3, SVG Export Plug-In . SVG Version: 6.00 Build 0)  -->
<!DOCTYPE svg PUBLIC "-//W3C//DTD SVG 1.1//EN" "http://www.w3.org/Graphics/SVG/1.1/DTD/svg11.dtd">
<svg version="1.1" id="Layer_1" xmlns="http://www.w3.org/2000/svg" xmlns:xlink="http://www.w3.org/1999/xlink" x="0px" y="0px"
	 width="128px" height="128px" viewBox="0 0 128 128" enable-background="new 0 0 128 128" xml:space="preserve">
<path fill="#444953" d="M128,25c0-13.807-11.193-25-25-25H25C11.193,0,0,11.193,0,25v78c0,13.807,11.193,25,25,25h78
	c13.807,0,25-11.193,25-25V25z"/>
<g>
	<defs>
		<path id="SVGID_1_" d="M128,25c0-13.807-11.193-25-25-25H25C11.193,0,0,11.193,0,25v78c0,13.807,11.193,25,25,25h78
			c13.807,0,25-11.193,25-25V25z"/>
	</defs>
	<clipPath id="SVGID_2_">
		<use xlink:href="#SVGID_1_"  overflow="visible"/>
	</clipPath>
	<path clip-path="url(#SVGID_2_)" fill="#353A42" d="M95.383,66.305c-0.955,0-4.723,0.031-7.214,0.031
		c0-2.678-4.234-5.262-4.234-5.262l-0.11,0.134c-0.003-0.002-0.015-0.009-0.015-0.009l-0.11,0.134
		c-0.003-0.002-0.015-0.009-0.015-0.009l-0.11,0.134c-0.003-0.002-0.015-0.009-0.015-0.009l-0.11,0.134
		c-0.003-0.002-0.015-0.009-0.015-0.009l-0.11,0.134c-0.003-0.002-0.015-0.009-0.015-0.009l-0.11,0.134
		c-0.003-0.002-0.015-0.009-0.015-0.009l-0.11,0.134c-0.003-0.002-0.015-0.009-0.015-0.009l-0.11,0.134
		c-0.003-0.002-0.015-0.009-0.015-0.009l-0.11,0.134c-0.003-0.002-0.015-0.009-0.015-0.009l-0.11,0.134
		c-0.003-0.002-0.015-0.009-0.015-0.009l-0.11,0.134c-0.003-0.002-0.015-0.009-0.015-0.009l-0.11,0.134
		c-0.003-0.002-0.015-0.009-0.015-0.009l-0.11,0.134c-0.003-0.002-0.015-0.009-0.015-0.009l-0.11,0.134
		c-0.003-0.002-0.015-0.009-0.015-0.009l-0.11,0.134c-0.003-0.002-0.015-0.009-0.015-0.009l-0.11,0.134
		c-0.003-0.002-0.015-0.009-0.015-0.009l-0.11,0.134c-0.003-0.002-0.015-0.009-0.015-0.009l-0.11,0.134
		c-0.003-0.002-0.015-0.009-0.015-0.009l-0.11,0.134c-0.003-0.002-0.015-0.009-0.015-0.009l-0.11,0.134
		c-0.003-0.002-0.015-0.009-0.015-0.009l-0.11,0.134c-0.003-0.002-0.015-0.009-0.015-0.009l-0.11,0.134
		c-0.003-0.002-0.015-0.009-0.015-0.009l-0.11,0.134c-0.003-0.002-0.015-0.009-0.015-0.009l-0.11,0.134
		c-0.003-0.002-0.015-0.009-0.015-0.009l-0.11,0.134c-0.003-0.002-0.015-0.009-0.015-0.009l-0.11,0.134
		c-0.003-0.002-0.015-0.009-0.015-0.009l-0.11,0.134c-0.003-0.002-0.015-0.009-0.015-0.009l-0.11,0.134
		c-0.003-0.002-0.015-0.009-0.015-0.009l-0.11,0.134c-0.003-0.002-0.015-0.009-0.015-0.009l-0.11,0.134
		c-0.003-0.002-0.015-0.009-0.015-0.009l-0.11,0.134c-0.003-0.002-0.015-0.009-0.015-0.009l-0.11,0.134
		c-0.003-0.002-0.015-0.009-0.015-0.009l-0.11,0.134c-0.003-0.002-0.015-0.009-0.015-0.009l-0.11,0.134
		c-0.003-0.002-0.015-0.009-0.015-0.009l-0.11,0.134c-0.003-0.002-0.015-0.009-0.015-0.009l-0.11,0.134
		c-0.003-0.002-0.015-0.009-0.015-0.009l-0.11,0.134c-0.003-0.002-0.015-0.009-0.015-0.009l-0.11,0.134
		c-0.003-0.002-0.015-0.009-0.015-0.009l-0.11,0.134c-0.003-0.002-0.015-0.009-0.015-0.009l-0.11,0.134
		c-0.003-0.002-0.015-0.009-0.015-0.009l-0.11,0.134c-0.003-0.002-0.015-0.009-0.015-0.009l-0.11,0.134
		c-0.003-0.002-0.015-0.009-0.015-0.009l-0.11,0.134c-0.003-0.002-0.015-0.009-0.015-0.009l-0.11,0.134
		c-0.003-0.002-0.015-0.009-0.015-0.009l-0.11,0.134c-0.003-0.002-0.015-0.009-0.015-0.009l-0.11,0.134
		c-0.003-0.002-0.015-0.009-0.015-0.009l-0.11,0.134c-0.003-0.002-0.015-0.009-0.015-0.009l-0.11,0.134
		c-0.003-0.002-0.015-0.009-0.015-0.009l-0.11,0.134c-0.003-0.002-0.015-0.009-0.015-0.009l-0.11,0.134
		c-0.003-0.002-0.015-0.009-0.015-0.009l-0.11,0.134c-0.003-0.002-0.015-0.009-0.015-0.009l-0.11,0.134
		c-0.003-0.002-0.015-0.009-0.015-0.009l-0.11,0.134c-0.003-0.002-0.015-0.009-0.015-0.009l-0.11,0.134
		c-0.003-0.002-0.015-0.009-0.015-0.009l-0.11,0.134c-0.003-0.002-0.015-0.009-0.015-0.009l-0.11,0.134
		c-0.003-0.002-0.015-0.009-0.015-0.009l-0.11,0.134c-0.003-0.002-0.015-0.009-0.015-0.009l-0.11,0.134
		c-0.003-0.002-0.015-0.009-0.015-0.009l-0.11,0.134c-0.003-0.002-0.015-0.009-0.015-0.009l-0.11,0.134
		c-0.003-0.002-0.015-0.009-0.015-0.009l-0.11,0.134c-0.003-0.002-0.015-0.009-0.015-0.009l-0.11,0.134
		c-0.003-0.002-0.015-0.009-0.015-0.009l-0.11,0.134c-0.003-0.002-0.015-0.009-0.015-0.009l-0.11,0.134
		c-0.003-0.002-0.015-0.009-0.015-0.009l-0.11,0.134c-0.003-0.002-0.015-0.009-0.015-0.009l-0.11,0.134
		c-0.003-0.002-0.015-0.009-0.015-0.009l-0.11,0.134c-0.003-0.002-0.015-0.009-0.015-0.009l-0.11,0.134
		c-0.003-0.002-0.015-0.009-0.015-0.009l-0.11,0.134c-0.003-0.002-0.015-0.009-0.015-0.009l-0.11,0.134
		c-0.003-0.002-0.015-0.009-0.015-0.009l-0.11,0.134c-0.003-0.002-0.015-0.009-0.015-0.009l-0.11,0.134
		c-0.003-0.002-0.015-0.009-0.015-0.009l-0.11,0.134c-0.003-0.002-0.015-0.009-0.015-0.009l-0.11,0.134
		c-0.003-0.002-0.015-0.009-0.015-0.009l-0.11,0.134c-0.003-0.002-0.015-0.009-0.015-0.009l-0.11,0.134
		c-0.003-0.002-0.015-0.009-0.015-0.009l-0.11,0.134c-0.003-0.002-0.015-0.009-0.015-0.009l-0.11,0.134
		c-0.003-0.002-0.015-0.009-0.015-0.009l-0.11,0.134c-0.003-0.002-0.015-0.009-0.015-0.009l-0.11,0.134
		c-0.003-0.002-0.015-0.009-0.015-0.009l-0.11,0.134c-0.003-0.002-0.015-0.009-0.015-0.009l-0.11,0.134
		c-0.003-0.002-0.015-0.009-0.015-0.009l-0.11,0.134c-0.003-0.002-0.015-0.009-0.015-0.009l-0.11,0.134
		c-0.003-0.002-0.015-0.009-0.015-0.009l-0.11,0.134c-0.003-0.002-0.015-0.009-0.015-0.009l-0.11,0.134
		c-0.003-0.002-0.015-0.009-0.015-0.009l-0.11,0.134c-0.003-0.002-0.015-0.009-0.015-0.009l-0.11,0.134
		c-0.003-0.002-0.015-0.009-0.015-0.009l-0.11,0.134c-0.003-0.002-0.015-0.009-0.015-0.009l-0.11,0.134
		c-0.003-0.002-0.015-0.009-0.015-0.009l-0.11,0.134c-0.003-0.002-0.015-0.009-0.015-0.009l-0.11,0.134
		c-0.003-0.002-0.015-0.009-0.015-0.009l-0.11,0.134c-0.003-0.002-0.015-0.009-0.015-0.009l-0.11,0.134
		c-0.003-0.002-0.015-0.009-0.015-0.009l-0.11,0.134c-0.003-0.002-0.015-0.009-0.015-0.009l-0.11,0.134
		c-0.003-0.002-0.015-0.009-0.015-0.009l-0.11,0.134c-0.003-0.002-0.015-0.009-0.015-0.009l-0.11,0.134
		c-0.003-0.002-0.015-0.009-0.015-0.009l-0.11,0.134c-0.003-0.002-0.015-0.009-0.015-0.009l-0.064,0.078
		c-1.53,0.232-3.073,0.402-4.548,0.511c0.014-0.015,0.028-0.031,0.043-0.047c0.004-0.002,0.011-0.003,0.016-0.005
		c0.033-0.037,0.074-0.081,0.109-0.12c0.004-0.002,0.011-0.003,0.016-0.005c0.033-0.037,0.074-0.081,0.109-0.12
		c0.004-0.002,0.011-0.003,0.016-0.005c0.033-0.037,0.074-0.081,0.109-0.12c0.004-0.002,0.011-0.003,0.016-0.005
		c0.033-0.037,0.074-0.081,0.109-0.12c0.004-0.002,0.011-0.003,0.016-0.005c0.033-0.037,0.074-0.081,0.109-0.12
		c0.004-0.002,0.011-0.003,0.016-0.005c0.033-0.037,0.074-0.081,0.109-0.12c0.004-0.002,0.011-0.003,0.016-0.005
		c0.033-0.037,0.074-0.081,0.109-0.12c0.004-0.002,0.011-0.003,0.016-0.005c0.033-0.037,0.074-0.081,0.109-0.12
		c0.004-0.002,0.011-0.003,0.016-0.005c0.033-0.037,0.074-0.081,0.109-0.12c0.004-0.002,0.011-0.003,0.016-0.005
		c0.033-0.037,0.074-0.081,0.109-0.12c0.004-0.002,0.011-0.003,0.016-0.005c0.033-0.037,0.074-0.081,0.109-0.12
		c0.004-0.002,0.011-0.003,0.016-0.005c0.033-0.037,0.074-0.081,0.109-0.12c0.004-0.002,0.011-0.003,0.016-0.005
		c0.033-0.037,0.074-0.081,0.109-0.12c0.004-0.002,0.011-0.003,0.016-0.005c0.033-0.037,0.074-0.081,0.109-0.12
		c0.004-0.002,0.011-0.003,0.016-0.005c0.033-0.037,0.074-0.081,0.109-0.12c0.004-0.002,0.011-0.003,0.016-0.005
		c0.033-0.037,0.074-0.081,0.109-0.12c0.004-0.002,0.011-0.003,0.016-0.005c0.033-0.037,0.074-0.081,0.109-0.12
		c0.004-0.002,0.011-0.003,0.016-0.005c0.033-0.037,0.074-0.081,0.109-0.12c0.004-0.002,0.011-0.003,0.016-0.005
		c0.033-0.037,0.074-0.081,0.109-0.12c0.004-0.002,0.011-0.003,0.016-0.005c0.033-0.037,0.074-0.081,0.109-0.12
		c0.004-0.002,0.011-0.003,0.016-0.005c0.033-0.037,0.074-0.081,0.109-0.12c0.004-0.002,0.011-0.003,0.016-0.005
		c0.033-0.037,0.074-0.081,0.109-0.12c0.004-0.002,0.011-0.003,0.016-0.005c0.033-0.037,0.074-0.081,0.109-0.12
		c0.004-0.002,0.011-0.003,0.016-0.005c0.033-0.037,0.074-0.081,0.109-0.12c0.004-0.002,0.011-0.003,0.016-0.005
		c0.033-0.037,0.074-0.081,0.109-0.12c0.004-0.002,0.011-0.003,0.016-0.005c0.033-0.037,0.074-0.081,0.109-0.12
		c0.004-0.002,0.011-0.003,0.016-0.005c0.033-0.037,0.074-0.081,0.109-0.12c0.004-0.002,0.011-0.003,0.016-0.005
		c0.033-0.037,0.074-0.081,0.109-0.12c0.004-0.002,0.011-0.003,0.016-0.005c0.033-0.037,0.074-0.081,0.109-0.12
		c0.004-0.002,0.011-0.003,0.016-0.005c0.033-0.037,0.074-0.081,0.109-0.12c0.004-0.002,0.011-0.003,0.016-0.005
		c0.033-0.037,0.074-0.081,0.109-0.12c0.004-0.002,0.011-0.003,0.016-0.005c0.033-0.037,0.074-0.081,0.109-0.12
		c0.004-0.002,0.011-0.003,0.016-0.005c0.033-0.037,0.074-0.081,0.109-0.12c0.004-0.002,0.011-0.003,0.016-0.005
		c0.033-0.037,0.074-0.081,0.109-0.12c0.004-0.002,0.011-0.003,0.016-0.005c0.033-0.037,0.074-0.081,0.109-0.12
		c0.004-0.002,0.011-0.003,0.016-0.005c0.033-0.037,0.074-0.081,0.109-0.12c0.004-0.002,0.011-0.003,0.016-0.005
		c0.033-0.037,0.074-0.081,0.109-0.12c0.004-0.002,0.011-0.003,0.016-0.005c0.033-0.037,0.074-0.081,0.109-0.12
		c0.004-0.002,0.011-0.003,0.016-0.005c0.033-0.037,0.074-0.081,0.109-0.12c0.004-0.002,0.011-0.003,0.016-0.005
		c0.033-0.037,0.074-0.081,0.109-0.12c0.004-0.002,0.011-0.003,0.016-0.005c0.033-0.037,0.074-0.081,0.109-0.12
		c0.004-0.002,0.011-0.003,0.016-0.005c0.033-0.037,0.074-0.081,0.109-0.12c0.004-0.002,0.011-0.003,0.016-0.005
		c0.033-0.037,0.074-0.081,0.109-0.12c0.004-0.002,0.011-0.003,0.016-0.005c0.033-0.037,0.074-0.081,0.109-0.12
		c0.004-0.002,0.011-0.003,0.016-0.005c0.033-0.037,0.074-0.081,0.109-0.12c0.004-0.002,0.011-0.003,0.016-0.005
		c0.033-0.037,0.074-0.081,0.109-0.12c0.004-0.002,0.011-0.003,0.016-0.005c0.033-0.037,0.074-0.081,0.109-0.12
		c0.004-0.002,0.011-0.003,0.016-0.005c0.033-0.037,0.074-0.081,0.109-0.12c0.004-0.002,0.011-0.003,0.016-0.005
		c0.646-0.711,1.667-1.835,2.918-3.208c0.025-0.025,0.052-0.052,0.076-0.077c0.041-0.042,0.085-0.084,0.125-0.125
		c0.041-0.042,0.085-0.084,0.125-0.125c0.041-0.042,0.085-0.084,0.125-0.125c0.041-0.042,0.085-0.084,0.125-0.125
		c0.041-0.042,0.085-0.084,0.125-0.125c0.041-0.042,0.085-0.084,0.125-0.125c0.041-0.042,0.085-0.084,0.125-0.125
		c0.041-0.042,0.085-0.084,0.125-0.125c0.041-0.042,0.085-0.084,0.125-0.125c0.041-0.042,0.085-0.084,0.125-0.125
		c0.041-0.042,0.085-0.084,0.125-0.125c0.041-0.042,0.085-0.084,0.125-0.125c0.041-0.042,0.085-0.084,0.125-0.125
		c0.041-0.042,0.085-0.084,0.125-0.125c0.041-0.042,0.085-0.084,0.125-0.125c0.041-0.042,0.085-0.084,0.125-0.125
		c0.041-0.042,0.085-0.084,0.125-0.125c0.041-0.042,0.085-0.084,0.125-0.125c0.041-0.042,0.085-0.084,0.125-0.125
		c0.041-0.042,0.085-0.084,0.125-0.125c0.041-0.042,0.085-0.084,0.125-0.125c0.041-0.042,0.085-0.084,0.125-0.125
		c0.041-0.042,0.085-0.084,0.125-0.125c0.041-0.042,0.085-0.084,0.125-0.125c0.041-0.042,0.085-0.084,0.125-0.125
		c0.041-0.042,0.085-0.084,0.125-0.125c0.041-0.042,0.085-0.084,0.125-0.125c0.041-0.042,0.085-0.084,0.125-0.125
		c0.041-0.042,0.085-0.084,0.125-0.125c0.041-0.042,0.085-0.084,0.125-0.125c0.041-0.042,0.085-0.084,0.125-0.125
		c0.041-0.042,0.085-0.084,0.125-0.125c0.041-0.042,0.085-0.084,0.125-0.125c0.041-0.042,0.085-0.084,0.125-0.125
		c0.041-0.042,0.085-0.084,0.125-0.125c0.041-0.042,0.085-0.084,0.125-0.125c0.041-0.042,0.085-0.084,0.125-0.125
		c0.041-0.042,0.085-0.084,0.125-0.125c0.041-0.042,0.085-0.084,0.125-0.125c0.041-0.042,0.085-0.084,0.125-0.125
		c0.041-0.042,0.085-0.084,0.125-0.125c0.041-0.042,0.085-0.084,0.125-0.125c0.041-0.042,0.085-0.084,0.125-0.125
		c0.041-0.042,0.085-0.084,0.125-0.125c0.041-0.042,0.085-0.084,0.125-0.125c0.041-0.042,0.085-0.084,0.125-0.125
		c0.041-0.042,0.085-0.084,0.125-0.125c0.041-0.042,0.085-0.084,0.125-0.125c0.041-0.042,0.085-0.084,0.125-0.125
		c0.041-0.042,0.085-0.084,0.125-0.125c0.041-0.042,0.085-0.084,0.125-0.125c0.049-0.049,0.099-0.099,0.145-0.147
		c0.033-0.034,0.073-0.069,0.105-0.103c0.041-0.042,0.085-0.084,0.125-0.125c0.041-0.042,0.085-0.084,0.125-0.125
		c0.041-0.042,0.085-0.084,0.125-0.125c0.041-0.042,0.085-0.084,0.125-0.125c0.041-0.042,0.085-0.084,0.125-0.125
		c0.041-0.042,0.085-0.084,0.125-0.125c0.041-0.042,0.085-0.084,0.125-0.125c0.041-0.042,0.085-0.084,0.125-0.125
		c0.041-0.042,0.085-0.084,0.125-0.125c0.041-0.042,0.085-0.084,0.125-0.125c0.041-0.042,0.085-0.084,0.125-0.125
		c0.041-0.042,0.085-0.084,0.125-0.125c0.041-0.042,0.085-0.084,0.125-0.125c0.041-0.042,0.085-0.084,0.125-0.125
		c0.041-0.042,0.085-0.084,0.125-0.125c0.041-0.042,0.085-0.084,0.125-0.125c0.041-0.042,0.085-0.084,0.125-0.125
		c0.041-0.042,0.085-0.084,0.125-0.125c0.041-0.042,0.085-0.084,0.125-0.125c0.041-0.042,0.085-0.084,0.125-0.125
		c0.041-0.042,0.085-0.084,0.125-0.125c0.041-0.042,0.085-0.084,0.125-0.125c0.041-0.042,0.085-0.084,0.125-0.125
		c0.041-0.042,0.085-0.084,0.125-0.125c0.041-0.042,0.085-0.084,0.125-0.125c0.041-0.042,0.085-0.084,0.125-0.125
		c0.041-0.042,0.085-0.084,0.125-0.125c0.041-0.042,0.085-0.084,0.125-0.125c0.041-0.042,0.085-0.084,0.125-0.125
		c0.041-0.042,0.085-0.084,0.125-0.125c0.041-0.042,0.085-0.084,0.125-0.125c0.041-0.042,0.085-0.084,0.125-0.125
		c0.041-0.042,0.085-0.084,0.125-0.125c0.041-0.042,0.085-0.084,0.125-0.125c0.041-0.042,0.085-0.084,0.125-0.125
		c0.041-0.042,0.085-0.084,0.125-0.125c0.041-0.042,0.085-0.084,0.125-0.125c0.041-0.042,0.085-0.084,0.125-0.125
		c0.041-0.042,0.085-0.084,0.125-0.125c0.041-0.042,0.085-0.084,0.125-0.125c0.041-0.042,0.085-0.084,0.125-0.125
		c0.041-0.042,0.085-0.084,0.125-0.125c0.041-0.042,0.085-0.084,0.125-0.125c0.041-0.042,0.085-0.084,0.125-0.125
		c0.041-0.042,0.085-0.084,0.125-0.125c0.041-0.042,0.085-0.084,0.125-0.125c0.041-0.042,0.085-0.084,0.125-0.125
		c0.041-0.042,0.085-0.084,0.125-0.125c0.041-0.042,0.085-0.084,0.125-0.125c0.041-0.042,0.085-0.084,0.125-0.125
		c0.041-0.042,0.085-0.084,0.125-0.125c0.041-0.042,0.085-0.084,0.125-0.125c0.041-0.042,0.085-0.084,0.125-0.125
		c0.041-0.042,0.085-0.084,0.125-0.125c0.041-0.042,0.085-0.084,0.125-0.125c0.041-0.042,0.085-0.084,0.125-0.125
		c0.041-0.042,0.085-0.084,0.125-0.125c0.041-0.042,0.085-0.084,0.125-0.125c0.041-0.042,0.085-0.084,0.125-0.125
		c0.041-0.042,0.085-0.084,0.125-0.125c0.041-0.042,0.085-0.084,0.125-0.125c0.041-0.042,0.085-0.084,0.125-0.125
		c0.041-0.042,0.085-0.084,0.125-0.125c0.041-0.042,0.085-0.084,0.125-0.125c0.041-0.042,0.085-0.084,0.125-0.125
		c0.041-0.042,0.085-0.084,0.125-0.125c0.041-0.042,0.085-0.084,0.125-0.125c0.041-0.042,0.085-0.084,0.125-0.125
		c0.041-0.042,0.085-0.084,0.125-0.125c0.041-0.042,0.085-0.084,0.125-0.125c0.041-0.042,0.085-0.084,0.125-0.125
		c0.041-0.042,0.085-0.084,0.125-0.125c0.041-0.042,0.085-0.084,0.125-0.125c0.041-0.042,0.085-0.084,0.125-0.125
		c0.041-0.042,0.085-0.084,0.125-0.125c0.041-0.042,0.085-0.084,0.125-0.125c0.041-0.042,0.085-0.084,0.125-0.125
		c0.041-0.042,0.085-0.084,0.125-0.125c0.041-0.042,0.085-0.084,0.125-0.125c0.041-0.042,0.085-0.084,0.125-0.125
		c0.041-0.042,0.085-0.084,0.125-0.125c0.041-0.042,0.085-0.084,0.125-0.125c0.041-0.042,0.085-0.084,0.125-0.125
		c0.041-0.042,0.085-0.084,0.125-0.125c0.041-0.042,0.085-0.084,0.125-0.125c0.041-0.042,0.085-0.084,0.125-0.125
		c0.041-0.042,0.085-0.084,0.125-0.125c0.041-0.042,0.085-0.084,0.125-0.125c0.041-0.042,0.085-0.084,0.125-0.125
		c0.041-0.042,0.085-0.084,0.125-0.125c0.041-0.042,0.085-0.084,0.125-0.125c0.041-0.042,0.085-0.084,0.125-0.125
		c0.041-0.042,0.085-0.084,0.125-0.125c0.041-0.042,0.085-0.084,0.125-0.125c0.041-0.042,0.085-0.084,0.125-0.125
		c0.041-0.042,0.085-0.084,0.125-0.125c0.041-0.042,0.085-0.084,0.125-0.125c0.041-0.042,0.085-0.084,0.125-0.125
		c0.041-0.042,0.085-0.084,0.125-0.125c0.041-0.042,0.085-0.084,0.125-0.125c0.041-0.042,0.085-0.084,0.125-0.125
		c0.041-0.042,0.085-0.084,0.125-0.125c0.041-0.042,0.085-0.084,0.125-0.125c0.041-0.042,0.085-0.084,0.125-0.125
		c0.041-0.042,0.085-0.084,0.125-0.125c0.041-0.042,0.085-0.084,0.125-0.125c0.041-0.042,0.085-0.084,0.125-0.125
		c0.041-0.042,0.085-0.084,0.125-0.125c0.041-0.042,0.085-0.084,0.125-0.125c0.041-0.042,0.085-0.084,0.125-0.125
		c0.041-0.042,0.085-0.084,0.125-0.125c0.041-0.042,0.085-0.084,0.125-0.125c0.041-0.042,0.085-0.084,0.125-0.125
		c0.041-0.042,0.085-0.084,0.125-0.125c0.041-0.042,0.085-0.084,0.125-0.125c0.041-0.042,0.085-0.084,0.125-0.125
		c0.041-0.042,0.085-0.084,0.125-0.125c0.041-0.042,0.085-0.084,0.125-0.125c1.285-1.292,1.652-2.427,1.426-4.13
		c-0.347-2.615-1.538-4.303-7.301-3.518C91.461,35.717,91.417,36,91.377,36c0,0-0.001,0-0.002,0c-0.039,0-0.083,0-0.123,0
		c0,0-0.001,0-0.002,0c-0.039,0-0.083,0-0.123,0c0,0-0.001,0-0.002,0c-0.039,0-0.083,0-0.123,0c0,0-0.001,0-0.002,0
		c-0.039,0-0.083,0-0.123,0c0,0-0.001,0-0.002,0c-0.039,0-0.083,0-0.123,0c0,0-0.001,0-0.002,0c-0.039,0-0.083,0-0.123,0
		c0,0-0.001,0-0.002,0c-0.039,0-0.083,0-0.123,0c0,0-0.001,0-0.002,0L69.137,57.024c-1.222-0.107-5.636-0.427-10.851,0.003
		c0.009-0.01,0.012,0.006,0.02-0.005c0.027-0.024,0.063-0.021,0.088-0.049c0.017-0.019,0.021-0.034,0.037-0.054
		c0.027-0.025,0.063-0.032,0.088-0.061c0.017-0.019,0.021-0.04,0.037-0.06c0.027-0.025,0.063-0.034,0.088-0.062
		c0.017-0.019,0.021-0.042,0.037-0.062c0.027-0.025,0.063-0.035,0.088-0.063c0.017-0.019,0.021-0.042,0.037-0.062
		c0.027-0.025,0.063-0.035,0.088-0.063c0.017-0.019,0.021-0.042,0.037-0.062c0.027-0.025,0.063-0.035,0.088-0.063
		c0.017-0.019,0.021-0.042,0.037-0.062c0.027-0.025,0.063-0.035,0.088-0.063c0.017-0.019,0.021-0.042,0.037-0.062
		c0.027-0.025,0.063-0.035,0.088-0.063c0.017-0.019,0.021-0.042,0.037-0.062c0.027-0.025,0.063-0.035,0.088-0.063
		c0.017-0.019,0.021-0.042,0.037-0.062c0.027-0.025,0.063-0.035,0.088-0.063c0.017-0.019,0.021-0.042,0.037-0.062
		c0.027-0.025,0.063-0.035,0.088-0.063c0.017-0.019,0.021-0.042,0.037-0.062c0.027-0.025,0.063-0.035,0.088-0.063
		c0.017-0.019,0.021-0.042,0.037-0.062c0.027-0.025,0.063-0.035,0.088-0.063c0.017-0.019,0.021-0.042,0.037-0.062
		c0.027-0.025,0.063-0.035,0.088-0.063c0.017-0.019,0.021-0.042,0.037-0.062c0.027-0.025,0.063-0.035,0.088-0.063
		c0.017-0.019,0.021-0.042,0.037-0.062c0.027-0.025,0.063-0.035,0.088-0.063c0.017-0.019,0.021-0.042,0.037-0.062
		c0.027-0.025,0.063-0.035,0.088-0.063c0.017-0.019,0.021-0.042,0.037-0.062c0.027-0.025,0.063-0.035,0.088-0.063
		c0.017-0.019,0.021-0.042,0.037-0.062c0.027-0.025,0.063-0.035,0.088-0.063c0.017-0.019,0.021-0.042,0.037-0.062
		c0.027-0.025,0.063-0.035,0.088-0.063c0.017-0.019,0.021-0.042,0.037-0.062c0.027-0.025,0.063-0.035,0.088-0.063
		c0.017-0.019,0.021-0.042,0.037-0.062c0.027-0.025,0.063-0.035,0.088-0.063c0.017-0.019,0.021-0.042,0.037-0.062
		c0.027-0.025,0.063-0.035,0.088-0.063c0.017-0.019,0.021-0.042,0.037-0.062c0.027-0.025,0.063-0.035,0.088-0.063
		c0.017-0.019,0.021-0.042,0.037-0.062c0.027-0.025,0.063-0.035,0.088-0.063c0.017-0.019,0.021-0.042,0.037-0.062
		c0.027-0.025,0.063-0.035,0.088-0.063c0.017-0.019,0.021-0.042,0.037-0.062c0.027-0.025,0.063-0.035,0.088-0.063
		c0.017-0.019,0.021-0.042,0.037-0.062c0.027-0.025,0.063-0.035,0.088-0.063c0.017-0.019,0.021-0.042,0.037-0.062
		c0.027-0.025,0.063-0.035,0.088-0.063c0.017-0.019,0.021-0.042,0.037-0.062c0.027-0.025,0.063-0.035,0.088-0.063
		c0.017-0.019,0.021-0.042,0.037-0.062c0.027-0.025,0.063-0.035,0.088-0.063c0.017-0.019,0.021-0.042,0.037-0.062
		c0.027-0.025,0.063-0.035,0.088-0.063c0.017-0.019,0.021-0.042,0.037-0.062c0.027-0.025,0.063-0.035,0.088-0.063
		c0.017-0.019,0.021-0.042,0.037-0.062c0.027-0.025,0.063-0.035,0.088-0.063c0.017-0.019,0.021-0.042,0.037-0.062
		c0.027-0.025,0.063-0.035,0.088-0.063c0.017-0.019,0.021-0.042,0.037-0.062c0.027-0.025,0.063-0.035,0.088-0.063
		c0.017-0.019,0.021-0.042,0.037-0.062c0.027-0.025,0.063-0.035,0.088-0.063c0.017-0.019,0.021-0.042,0.037-0.062
		c0.027-0.025,0.063-0.035,0.088-0.063c0.017-0.019,0.021-0.042,0.037-0.062c0.027-0.025,0.063-0.035,0.088-0.063
		c0.017-0.019,0.021-0.042,0.037-0.062c0.027-0.025,0.063-0.035,0.088-0.063c0.017-0.019,0.021-0.042,0.037-0.062
		c0.027-0.025,0.063-0.035,0.088-0.063c0.017-0.019,0.021-0.042,0.037-0.062c0.027-0.025,0.063-0.035,0.088-0.063
		c0.017-0.019,0.021-0.042,0.037-0.062c0.027-0.025,0.063-0.035,0.088-0.063c0.017-0.019,0.021-0.042,0.037-0.062
		c0.027-0.025,0.063-0.035,0.088-0.063c0.017-0.019,0.021-0.042,0.037-0.062c0.027-0.025,0.063-0.035,0.088-0.063
		c0.017-0.019,0.021-0.042,0.037-0.062c0.027-0.025,0.063-0.035,0.088-0.063c0.017-0.019,0.021-0.042,0.037-0.062
		c0.027-0.025,0.063-0.035,0.088-0.063c0.017-0.019,0.021-0.042,0.037-0.062c0.027-0.025,0.063-0.035,0.088-0.063
		c0.017-0.019,0.021-0.042,0.037-0.062c0.027-0.025,0.063-0.035,0.088-0.063c0.017-0.019,0.021-0.042,0.037-0.062
		c0.027-0.025,0.063-0.035,0.088-0.063c0.017-0.019,0.021-0.042,0.037-0.062c0.027-0.025,0.063-0.035,0.088-0.063
		c0.017-0.019,0.021-0.042,0.037-0.062c0.027-0.025,0.063-0.035,0.088-0.063c0.017-0.019,0.021-0.042,0.037-0.062
		c0.027-0.025,0.063-0.035,0.088-0.063c0.017-0.019,0.021-0.042,0.037-0.062c0.027-0.025,0.063-0.035,0.088-0.063
		c0.017-0.019,0.021-0.042,0.036-0.062c0.027-0.025,0.063-0.035,0.089-0.063c0.017-0.019,0.021-0.042,0.036-0.062
		c0.027-0.025,0.063-0.035,0.089-0.063c0.017-0.019,0.021-0.042,0.036-0.062c0.027-0.025,0.063-0.035,0.089-0.063
		c0.017-0.019,0.021-0.042,0.036-0.062c0.027-0.025,0.063-0.035,0.089-0.063c0.017-0.019,0.021-0.042,0.036-0.062
		c0.027-0.025,0.063-0.035,0.089-0.063c0.017-0.019,0.021-0.042,0.036-0.062c0.027-0.025,0.063-0.035,0.089-0.063
		c0.017-0.019,0.021-0.042,0.036-0.062c0.027-0.025,0.063-0.035,0.089-0.063c0.017-0.019,0.021-0.042,0.036-0.062
		c0.027-0.025,0.063-0.035,0.089-0.063c0.017-0.019,0.021-0.042,0.036-0.062c0.027-0.025,0.063-0.035,0.089-0.063
		c0.017-0.019,0.021-0.042,0.036-0.062c0.027-0.025,0.063-0.035,0.089-0.063c0.017-0.019,0.021-0.042,0.036-0.062
		c0.027-0.025,0.063-0.035,0.089-0.063c0.017-0.019,0.021-0.042,0.036-0.062c0.027-0.025,0.063-0.035,0.089-0.063
		c0.017-0.019,0.021-0.042,0.036-0.062c0.027-0.025,0.063-0.035,0.089-0.063c0.017-0.019,0.021-0.042,0.036-0.062
		c0.027-0.025,0.063-0.035,0.089-0.063c0.017-0.019,0.021-0.042,0.036-0.062c0.027-0.025,0.063-0.035,0.089-0.063
		c0.017-0.019,0.021-0.042,0.036-0.062c0.027-0.025,0.063-0.035,0.089-0.063c0.017-0.019,0.021-0.042,0.036-0.062
		c0.027-0.025,0.063-0.035,0.089-0.063c0.017-0.019,0.021-0.042,0.036-0.062c0.027-0.025,0.063-0.035,0.089-0.063
		c0.017-0.019,0.021-0.042,0.036-0.062c0.027-0.025,0.063-0.035,0.089-0.063c0.017-0.019,0.021-0.042,0.036-0.062
		c0.027-0.025,0.063-0.035,0.089-0.063c0.017-0.019,0.021-0.042,0.036-0.062c0.027-0.025,0.063-0.035,0.089-0.063
		c0.017-0.019,0.021-0.042,0.036-0.062c0.027-0.025,0.063-0.035,0.089-0.063c0.017-0.019,0.021-0.042,0.036-0.062
		c0.027-0.025,0.063-0.035,0.089-0.063c0.017-0.019,0.021-0.042,0.036-0.062c0.027-0.025,0.063-0.035,0.089-0.063
		c0.017-0.019,0.021-0.042,0.036-0.062c0.027-0.025,0.063-0.035,0.089-0.063c0.017-0.019,0.021-0.042,0.036-0.062
		c0.027-0.025,0.063-0.035,0.089-0.063c0.017-0.019,0.021-0.042,0.036-0.062c0.027-0.025,0.063-0.035,0.089-0.063
		c0.017-0.019,0.021-0.042,0.036-0.062c0.027-0.025,0.063-0.035,0.089-0.063c0.017-0.019,0.021-0.042,0.036-0.062
		c0.027-0.025,0.063-0.035,0.089-0.063c0.017-0.019,0.021-0.042,0.036-0.062c0.027-0.025,0.063-0.035,0.089-0.063
		c0.017-0.019,0.021-0.042,0.036-0.062c0.027-0.025,0.063-0.035,0.089-0.063c0.017-0.019,0.021-0.042,0.036-0.062
		c0.027-0.025,0.063-0.035,0.089-0.063c0.017-0.019,0.021-0.042,0.036-0.062c0.027-0.025,0.063-0.035,0.089-0.063
		c0.017-0.019,0.021-0.042,0.036-0.062c0.027-0.025,0.063-0.035,0.089-0.063c0.017-0.019,0.021-0.042,0.036-0.062
		c0.027-0.025,0.063-0.035,0.089-0.063c0.017-0.019,0.021-0.042,0.036-0.062c0.027-0.025,0.063-0.035,0.089-0.063
		c0.017-0.019,0.021-0.042,0.036-0.062c0.027-0.025,0.063-0.035,0.089-0.063c0.017-0.019,0.021-0.042,0.036-0.062
		c0.027-0.025,0.063-0.035,0.089-0.063c0.017-0.019,0.021-0.042,0.036-0.062c0.027-0.025,0.063-0.035,0.089-0.063
		c0.017-0.019,0.021-0.042,0.036-0.062c0.027-0.025,0.063-0.035,0.089-0.063c0.017-0.019,0.021-0.042,0.036-0.062
		c0.027-0.025,0.063-0.035,0.089-0.063c0.457-0.505,0.418-1.285-0.086-1.742c-3.72-3.367-2.399-5.204-0.213-8.248
		c2.137-2.972,5.063-7.041,0.34-12.828c-0.431-0.528-1.207-0.606-1.734-0.176c-0.036,0.03-0.054,0.071-0.086,0.104
		c-0.012,0.009-0.027,0.011-0.039,0.021c-0.036,0.03-0.054,0.071-0.086,0.104c-0.012,0.009-0.027,0.011-0.039,0.021
		c-0.036,0.03-0.054,0.071-0.086,0.104c-0.012,0.009-0.027,0.011-0.039,0.021c-0.036,0.03-0.054,0.071-0.086,0.104
		c-0.012,0.009-0.027,0.011-0.039,0.021c-0.036,0.03-0.054,0.071-0.086,0.104c-0.012,0.009-0.027,0.011-0.039,0.021
		c-0.036,0.03-0.054,0.071-0.086,0.104c-0.012,0.009-0.027,0.011-0.039,0.021c-0.036,0.03-0.054,0.071-0.086,0.104
		c-0.012,0.009-0.027,0.011-0.039,0.021c-0.036,0.03-0.054,0.071-0.086,0.104c-0.012,0.009-0.027,0.011-0.039,0.021
		c-0.036,0.03-0.054,0.071-0.086,0.104c-0.012,0.009-0.027,0.011-0.039,0.021c-0.036,0.03-0.054,0.071-0.086,0.104
		c-0.012,0.009-0.027,0.011-0.039,0.021c-0.036,0.03-0.054,0.071-0.086,0.104c-0.012,0.009-0.027,0.011-0.039,0.021
		c-0.036,0.03-0.054,0.071-0.086,0.104c-0.012,0.009-0.027,0.011-0.039,0.021c-0.036,0.03-0.054,0.071-0.086,0.104
		c-0.012,0.009-0.027,0.011-0.039,0.021c-0.036,0.03-0.054,0.071-0.086,0.104c-0.012,0.009-0.027,0.011-0.039,0.021
		c-0.036,0.03-0.054,0.071-0.086,0.104c-0.012,0.009-0.027,0.011-0.039,0.021c-0.036,0.03-0.054,0.071-0.086,0.104
		c-0.012,0.009-0.027,0.011-0.039,0.021c-0.036,0.03-0.054,0.071-0.086,0.104c-0.012,0.009-0.027,0.011-0.039,0.021
		c-0.036,0.03-0.054,0.071-0.086,0.104c-0.012,0.009-0.027,0.011-0.039,0.021c-0.036,0.03-0.054,0.071-0.086,0.104
		c-0.012,0.009-0.027,0.011-0.039,0.021c-0.036,0.03-0.054,0.071-0.086,0.104c-0.012,0.009-0.027,0.011-0.039,0.021
		c-0.036,0.03-0.054,0.071-0.086,0.104c-0.012,0.009-0.027,0.011-0.039,0.021c-0.036,0.03-0.054,0.071-0.086,0.104
		c-0.012,0.009-0.027,0.011-0.039,0.021c-0.036,0.03-0.054,0.071-0.086,0.104c-0.012,0.009-0.027,0.011-0.039,0.021
		c-0.036,0.03-0.054,0.071-0.085,0.104c-0.013,0.009-0.028,0.011-0.04,0.021c-0.036,0.03-0.054,0.071-0.086,0.104
		c-0.012,0.009-0.027,0.011-0.039,0.021c-0.036,0.03-0.054,0.071-0.086,0.104c-0.012,0.009-0.027,0.011-0.039,0.021
		c-0.036,0.03-0.054,0.071-0.086,0.104c-0.012,0.009-0.027,0.011-0.039,0.021c-0.036,0.029-0.053,0.071-0.085,0.104
		c-0.013,0.01-0.028,0.012-0.041,0.021c-0.036,0.03-0.053,0.071-0.085,0.104c-0.012,0.009-0.027,0.011-0.04,0.021
		c-0.036,0.03-0.053,0.071-0.085,0.104c-0.012,0.009-0.027,0.011-0.04,0.021c-0.036,0.03-0.053,0.071-0.085,0.104
		c-0.012,0.009-0.027,0.011-0.04,0.021c-0.036,0.03-0.053,0.071-0.085,0.104c-0.012,0.009-0.027,0.011-0.04,0.021
		c-0.036,0.03-0.053,0.071-0.085,0.104c-0.012,0.009-0.027,0.011-0.04,0.021c-0.036,0.03-0.053,0.071-0.085,0.104
		c-0.012,0.009-0.027,0.011-0.04,0.021c-0.036,0.03-0.053,0.071-0.085,0.104c-0.012,0.009-0.027,0.011-0.04,0.021
		c-0.036,0.03-0.053,0.071-0.085,0.104c-0.012,0.009-0.027,0.011-0.04,0.021c-0.036,0.03-0.053,0.071-0.085,0.104
		c-0.012,0.009-0.027,0.011-0.04,0.021c-0.036,0.03-0.053,0.071-0.085,0.104c-0.012,0.009-0.027,0.011-0.04,0.021
		c-0.036,0.03-0.053,0.071-0.085,0.104c-0.012,0.009-0.027,0.011-0.04,0.021c-0.036,0.03-0.053,0.071-0.085,0.104
		c-0.005,0.004-0.01,0.004-0.015,0.008c-0.26-1.458-0.981-3.055-2.415-4.812c-0.431-0.528-1.207-0.606-1.735-0.176
		c-0.036,0.03-0.054,0.071-0.085,0.104c-0.012,0.009-0.027,0.011-0.04,0.021c-0.036,0.03-0.054,0.071-0.085,0.104
		c-0.012,0.009-0.027,0.011-0.04,0.021c-0.036,0.03-0.054,0.071-0.085,0.104c-0.012,0.009-0.027,0.011-0.04,0.021
		c-0.036,0.03-0.054,0.071-0.085,0.104c-0.012,0.009-0.027,0.011-0.04,0.021c-0.036,0.03-0.054,0.071-0.085,0.104
		c-0.012,0.009-0.027,0.011-0.04,0.021c-0.036,0.03-0.054,0.071-0.085,0.104c-0.012,0.009-0.027,0.011-0.04,0.021
		c-0.036,0.03-0.054,0.071-0.085,0.104c-0.012,0.009-0.027,0.011-0.04,0.021c-0.036,0.03-0.054,0.071-0.085,0.104
		c-0.012,0.009-0.027,0.011-0.04,0.021c-0.036,0.03-0.054,0.071-0.085,0.104c-0.012,0.009-0.027,0.011-0.04,0.021
		c-0.036,0.03-0.054,0.071-0.085,0.104c-0.012,0.009-0.027,0.011-0.04,0.021c-0.036,0.03-0.054,0.071-0.085,0.104
		c-0.012,0.009-0.027,0.011-0.04,0.021c-0.036,0.03-0.054,0.071-0.085,0.104c-0.012,0.009-0.027,0.011-0.04,0.021
		c-0.036,0.03-0.054,0.071-0.085,0.104c-0.012,0.009-0.027,0.011-0.04,0.021c-0.036,0.03-0.054,0.071-0.085,0.104
		c-0.012,0.009-0.027,0.011-0.04,0.021c-0.036,0.03-0.054,0.071-0.085,0.104c-0.012,0.009-0.027,0.011-0.04,0.021
		c-0.036,0.03-0.054,0.071-0.085,0.104c-0.012,0.009-0.027,0.011-0.04,0.021c-0.036,0.03-0.054,0.071-0.085,0.104
		c-0.012,0.009-0.027,0.011-0.04,0.021c-0.036,0.03-0.054,0.071-0.085,0.104c-0.012,0.009-0.027,0.011-0.04,0.021
		c-0.036,0.03-0.054,0.071-0.085,0.104c-0.012,0.009-0.027,0.011-0.04,0.021c-0.036,0.03-0.054,0.071-0.085,0.104
		c-0.012,0.009-0.027,0.011-0.04,0.021c-0.036,0.03-0.054,0.071-0.085,0.104c-0.012,0.009-0.027,0.011-0.04,0.021
		c-0.036,0.03-0.054,0.071-0.085,0.104c-0.012,0.009-0.027,0.011-0.04,0.021c-0.036,0.03-0.054,0.071-0.085,0.104
		c-0.012,0.009-0.027,0.011-0.04,0.021c-0.036,0.03-0.054,0.071-0.085,0.104c-0.012,0.009-0.027,0.011-0.04,0.021
		c-0.036,0.03-0.054,0.071-0.085,0.104c-0.012,0.009-0.027,0.011-0.04,0.021c-0.036,0.03-0.054,0.071-0.085,0.104
		c-0.012,0.009-0.027,0.011-0.04,0.021c-0.036,0.03-0.054,0.071-0.085,0.104c-0.012,0.009-0.027,0.011-0.04,0.021
		c-0.036,0.03-0.054,0.071-0.085,0.104c-0.012,0.009-0.027,0.011-0.04,0.021c-0.036,0.03-0.054,0.071-0.085,0.104
		c-0.012,0.009-0.027,0.011-0.04,0.021c-0.036,0.03-0.054,0.071-0.085,0.104c-0.012,0.009-0.027,0.011-0.04,0.021
		c-0.036,0.03-0.054,0.071-0.085,0.104c-0.012,0.009-0.027,0.011-0.04,0.021c-0.036,0.03-0.054,0.071-0.085,0.104
		c-0.012,0.009-0.027,0.011-0.04,0.021c-0.036,0.03-0.054,0.071-0.085,0.104c-0.012,0.009-0.027,0.011-0.04,0.021
		c-0.036,0.03-0.054,0.071-0.085,0.104c-0.012,0.009-0.027,0.011-0.04,0.021c-0.036,0.03-0.054,0.071-0.085,0.104
		c-0.012,0.009-0.027,0.011-0.04,0.021c-0.036,0.03-0.054,0.071-0.085,0.104c-0.012,0.009-0.027,0.011-0.04,0.021
		c-0.036,0.03-0.054,0.071-0.085,0.104c-0.012,0.009-0.027,0.011-0.04,0.021c-0.036,0.03-0.054,0.071-0.085,0.104
		c-0.012,0.009-0.027,0.011-0.04,0.021c-0.036,0.03-0.054,0.071-0.085,0.104c-0.012,0.009-0.027,0.011-0.04,0.021
		c-0.036,0.03-0.054,0.071-0.085,0.104c-0.005,0.004-0.011,0.004-0.015,0.008c-0.26-1.458-0.981-3.055-2.415-4.812
		c-0.43-0.528-1.208-0.606-1.735-0.176c-0.036,0.03-0.054,0.071-0.085,0.104c-0.012,0.009-0.027,0.011-0.04,0.021
		c-0.036,0.03-0.054,0.071-0.085,0.104c-0.012,0.009-0.027,0.011-0.04,0.021c-0.036,0.03-0.054,0.071-0.085,0.104
		c-0.012,0.009-0.027,0.011-0.04,0.021c-0.036,0.03-0.054,0.071-0.085,0.104c-0.012,0.009-0.027,0.011-0.04,0.021
		c-0.036,0.03-0.054,0.071-0.085,0.104c-0.012,0.009-0.027,0.011-0.04,0.021c-0.036,0.03-0.054,0.071-0.085,0.104
		c-0.012,0.009-0.027,0.011-0.04,0.021c-0.036,0.03-0.054,0.071-0.085,0.104c-0.012,0.009-0.027,0.011-0.04,0.021
		c-0.036,0.03-0.054,0.071-0.085,0.104c-0.012,0.009-0.027,0.011-0.04,0.021c-0.036,0.03-0.054,0.071-0.085,0.104
		c-0.012,0.009-0.027,0.011-0.04,0.021c-0.036,0.03-0.054,0.071-0.085,0.104c-0.012,0.009-0.027,0.011-0.04,0.021
		c-0.036,0.03-0.054,0.071-0.085,0.104c-0.012,0.009-0.027,0.011-0.04,0.021c-0.036,0.03-0.054,0.071-0.085,0.104
		c-0.012,0.009-0.027,0.011-0.04,0.021c-0.036,0.03-0.054,0.071-0.085,0.104c-0.012,0.009-0.027,0.011-0.04,0.021
		c-0.036,0.03-0.054,0.071-0.085,0.104c-0.012,0.009-0.027,0.011-0.04,0.021c-0.036,0.03-0.054,0.071-0.085,0.104
		c-0.012,0.009-0.027,0.011-0.04,0.021c-0.036,0.03-0.054,0.071-0.085,0.104c-0.012,0.009-0.027,0.011-0.04,0.021
		c-0.036,0.03-0.054,0.071-0.085,0.104c-0.012,0.009-0.027,0.011-0.04,0.021c-0.036,0.03-0.054,0.071-0.085,0.104
		c-0.012,0.009-0.027,0.011-0.04,0.021c-0.036,0.03-0.054,0.071-0.085,0.104c-0.012,0.009-0.027,0.011-0.04,0.021
		c-0.036,0.03-0.054,0.071-0.085,0.104c-0.012,0.009-0.027,0.011-0.04,0.021c-0.036,0.03-0.054,0.071-0.085,0.104
		c-0.012,0.009-0.027,0.011-0.04,0.021c-0.036,0.03-0.054,0.071-0.085,0.104c-0.012,0.009-0.027,0.011-0.04,0.021
		c-0.036,0.03-0.054,0.071-0.085,0.104c-0.012,0.009-0.027,0.011-0.04,0.021c-0.036,0.03-0.054,0.071-0.085,0.104
		c-0.012,0.009-0.027,0.011-0.04,0.021c-0.036,0.03-0.054,0.071-0.085,0.104c-0.012,0.009-0.027,0.011-0.04,0.021
		c-0.036,0.03-0.054,0.071-0.085,0.104c-0.012,0.009-0.027,0.011-0.04,0.021c-0.036,0.03-0.054,0.071-0.085,0.104
		c-0.012,0.009-0.027,0.011-0.04,0.021c-0.036,0.03-0.054,0.071-0.085,0.104c-0.012,0.009-0.027,0.011-0.04,0.021
		c-0.036,0.03-0.054,0.071-0.085,0.104c-0.012,0.009-0.027,0.011-0.04,0.021c-0.036,0.03-0.054,0.071-0.085,0.104
		c-0.012,0.009-0.027,0.011-0.04,0.021c-0.036,0.03-0.054,0.071-0.085,0.104c-0.012,0.009-0.027,0.011-0.04,0.021
		c-0.036,0.03-0.054,0.071-0.085,0.104c-0.012,0.009-0.027,0.011-0.04,0.021c-0.036,0.03-0.054,0.071-0.085,0.104
		c-0.012,0.009-0.027,0.011-0.04,0.021c-0.036,0.03-0.054,0.071-0.085,0.104c-0.012,0.009-0.027,0.011-0.04,0.021
		c-0.036,0.03-0.054,0.071-0.085,0.104c-0.012,0.009-0.027,0.011-0.04,0.021c-0.036,0.03-0.054,0.071-0.085,0.104
		c-0.012,0.009-0.027,0.011-0.04,0.021c-0.036,0.03-0.054,0.071-0.085,0.104c-0.012,0.009-0.027,0.011-0.04,0.021
		c-0.036,0.03-0.054,0.071-0.085,0.104c-0.012,0.009-0.027,0.011-0.04,0.021c-0.036,0.03-0.054,0.071-0.085,0.104
		c-0.012,0.009-0.027,0.011-0.04,0.021c-0.036,0.03-0.054,0.071-0.085,0.104c-0.012,0.009-0.027,0.011-0.04,0.021
		c-0.036,0.03-0.054,0.071-0.085,0.104c-0.012,0.009-0.027,0.011-0.04,0.021c-0.036,0.03-0.054,0.071-0.085,0.104
		c-0.012,0.009-0.027,0.011-0.04,0.021c-0.036,0.03-0.054,0.071-0.085,0.104c-0.012,0.009-0.027,0.011-0.04,0.021
		c-0.036,0.03-0.054,0.071-0.085,0.104c-0.012,0.009-0.027,0.011-0.04,0.021c-0.036,0.03-0.054,0.071-0.085,0.104
		c-0.012,0.009-0.027,0.011-0.04,0.021c-0.036,0.03-0.054,0.071-0.085,0.104c-0.012,0.009-0.027,0.011-0.04,0.021
		c-0.036,0.03-0.054,0.071-0.085,0.104c-0.012,0.009-0.027,0.011-0.04,0.021c-0.036,0.03-0.054,0.071-0.085,0.104
		c-0.012,0.009-0.027,0.011-0.04,0.021c-0.036,0.03-0.054,0.071-0.085,0.104c-0.012,0.009-0.027,0.011-0.04,0.021
		c-0.036,0.03-0.054,0.071-0.085,0.104c-0.012,0.009-0.027,0.011-0.04,0.021c-0.036,0.03-0.054,0.071-0.085,0.104
		c-0.012,0.009-0.027,0.011-0.04,0.021c-0.036,0.03-0.054,0.071-0.085,0.104c-0.012,0.009-0.027,0.011-0.04,0.021
		c-0.036,0.03-0.054,0.071-0.085,0.104c-0.012,0.009-0.027,0.011-0.04,0.021c-0.036,0.03-0.054,0.071-0.085,0.104
		c-0.012,0.009-0.027,0.011-0.04,0.021c-0.036,0.03-0.054,0.071-0.085,0.104c-0.012,0.009-0.027,0.011-0.04,0.021
		c-0.036,0.03-0.054,0.071-0.085,0.104c-0.012,0.009-0.027,0.011-0.04,0.021c-0.036,0.03-0.054,0.071-0.085,0.104
		c-0.012,0.009-0.027,0.011-0.04,0.021c-0.036,0.03-0.054,0.071-0.085,0.104c-0.012,0.009-0.027,0.011-0.04,0.021
		c-0.036,0.03-0.054,0.071-0.085,0.104c-0.012,0.009-0.027,0.011-0.04,0.021c-0.036,0.03-0.054,0.071-0.085,0.104
		c-0.012,0.009-0.027,0.011-0.04,0.021c-0.036,0.03-0.054,0.071-0.085,0.104c-0.012,0.009-0.027,0.011-0.04,0.021
		c-0.036,0.03-0.054,0.071-0.085,0.104c-0.012,0.009-0.027,0.011-0.04,0.021c-0.036,0.03-0.054,0.071-0.085,0.104
		c-0.012,0.009-0.027,0.011-0.04,0.021c-0.036,0.03-0.054,0.071-0.085,0.104c-0.012,0.009-0.027,0.011-0.04,0.021
		c-0.036,0.03-0.054,0.071-0.085,0.104c-0.012,0.009-0.027,0.011-0.04,0.021c-0.036,0.03-0.054,0.071-0.085,0.104
		c-0.012,0.009-0.027,0.011-0.04,0.021c-0.036,0.03-0.054,0.071-0.085,0.104c-0.012,0.009-0.027,0.011-0.04,0.021
		c-0.036,0.03-0.054,0.071-0.085,0.104c-0.012,0.009-0.027,0.011-0.04,0.021c-0.036,0.03-0.054,0.071-0.085,0.104
		c-0.012,0.009-0.027,0.011-0.04,0.021c-0.036,0.03-0.054,0.071-0.085,0.104c-0.012,0.009-0.027,0.011-0.04,0.021
		c-0.036,0.03-0.054,0.071-0.085,0.104c-0.012,0.009-0.027,0.011-0.04,0.021c-0.036,0.03-0.054,0.071-0.085,0.104
		c-0.012,0.009-0.027,0.011-0.04,0.021c-0.036,0.03-0.054,0.071-0.085,0.104c-0.012,0.009-0.027,0.011-0.04,0.021
		c-0.036,0.03-0.054,0.071-0.085,0.104c-0.012,0.009-0.027,0.011-0.04,0.021c-0.036,0.03-0.054,0.071-0.085,0.104
		c-0.012,0.009-0.027,0.011-0.04,0.021c-0.036,0.03-0.054,0.071-0.085,0.104c-0.012,0.009-0.027,0.011-0.04,0.021
		c-0.036,0.03-0.054,0.071-0.085,0.104c-0.012,0.009-0.027,0.011-0.04,0.021c-0.036,0.03-0.054,0.071-0.085,0.104
		c-0.012,0.009-0.027,0.011-0.04,0.021c-0.036,0.03-0.054,0.071-0.085,0.104c-0.012,0.009-0.027,0.011-0.04,0.021
		c-0.036,0.03-0.054,0.071-0.085,0.104c-0.012,0.009-0.027,0.011-0.04,0.021c-0.036,0.03-0.054,0.071-0.085,0.104
		c-0.012,0.009-0.027,0.011-0.04,0.021c-0.036,0.03-0.054,0.071-0.085,0.104c-0.012,0.009-0.027,0.011-0.04,0.021
		c-0.036,0.03-0.054,0.071-0.085,0.104c-0.012,0.009-0.027,0.011-0.04,0.021c-0.036,0.03-0.054,0.071-0.085,0.104
		c-0.012,0.009-0.027,0.011-0.04,0.021c-0.036,0.03-0.054,0.071-0.085,0.104c-0.012,0.009-0.027,0.011-0.04,0.021
		c-0.036,0.03-0.054,0.071-0.085,0.104c-0.012,0.009-0.027,0.011-0.04,0.021c-0.036,0.03-0.054,0.071-0.085,0.104
		c-0.012,0.009-0.027,0.011-0.04,0.021c-0.036,0.03-0.054,0.071-0.085,0.104c-0.012,0.009-0.027,0.011-0.04,0.021
		c-0.036,0.03-0.054,0.071-0.085,0.104c-0.012,0.009-0.027,0.011-0.04,0.021c-0.036,0.03-0.054,0.071-0.085,0.104
		c-0.012,0.009-0.027,0.011-0.04,0.021c-0.036,0.03-0.054,0.071-0.085,0.104c-0.012,0.009-0.027,0.011-0.04,0.021
		c-0.036,0.03-0.054,0.071-0.085,0.104c-0.012,0.009-0.027,0.011-0.04,0.021c-0.036,0.03-0.054,0.071-0.085,0.104
		c-0.012,0.009-0.027,0.011-0.04,0.021c-0.036,0.03-0.054,0.071-0.085,0.104c-0.012,0.009-0.027,0.011-0.04,0.021
		c-0.036,0.03-0.054,0.071-0.085,0.104c-0.012,0.009-0.027,0.011-0.04,0.021c-0.036,0.03-0.054,0.071-0.085,0.104
		c-0.012,0.009-0.027,0.011-0.04,0.021c-0.036,0.03-0.054,0.071-0.085,0.104c-0.012,0.009-0.027,0.011-0.04,0.021
		c-0.036,0.03-0.054,0.071-0.085,0.104c-0.012,0.009-0.027,0.011-0.04,0.021c-0.036,0.03-0.054,0.071-0.085,0.104
		c-0.012,0.009-0.027,0.011-0.04,0.021c-0.036,0.03-0.054,0.071-0.085,0.104c-0.012,0.009-0.027,0.011-0.04,0.021
		c-0.036,0.03-0.054,0.071-0.085,0.104c-0.012,0.009-0.027,0.011-0.04,0.021c-0.036,0.03-0.054,0.071-0.085,0.104
		c-0.012,0.009-0.027,0.011-0.04,0.021c-0.036,0.03-0.054,0.071-0.085,0.104c-0.012,0.009-0.027,0.011-0.04,0.021
		c-0.036,0.03-0.054,0.071-0.085,0.104c-0.012,0.009-0.027,0.011-0.04,0.021c-0.036,0.03-0.054,0.071-0.085,0.104
		c-0.012,0.009-0.027,0.011-0.04,0.021c-0.036,0.03-0.054,0.071-0.085,0.104c-0.012,0.009-0.027,0.011-0.04,0.021
		c-0.036,0.03-0.054,0.071-0.085,0.104c-0.012,0.009-0.027,0.011-0.04,0.021c-0.036,0.03-0.054,0.071-0.085,0.104
		c-0.012,0.009-0.027,0.011-0.04,0.021c-0.036,0.03-0.054,0.071-0.085,0.104c-0.012,0.009-0.027,0.011-0.04,0.021
		c-0.036,0.03-0.054,0.071-0.085,0.104c-0.012,0.009-0.027,0.011-0.04,0.021c-0.036,0.03-0.054,0.071-0.085,0.104
		c-0.012,0.009-0.027,0.011-0.04,0.021c-0.036,0.03-0.054,0.071-0.085,0.104c-0.012,0.009-0.027,0.011-0.04,0.021
		c-0.036,0.03-0.054,0.071-0.085,0.104c-0.012,0.009-0.027,0.011-0.04,0.021c-0.036,0.03-0.054,0.071-0.085,0.104
		c-0.012,0.009-0.027,0.011-0.04,0.021c-0.036,0.03-0.054,0.071-0.085,0.104c-0.012,0.009-0.027,0.011-0.04,0.021
		c-0.036,0.03-0.054,0.071-0.085,0.104c-0.012,0.009-0.027,0.011-0.04,0.021c-0.036,0.03-0.054,0.071-0.085,0.104
		c-0.012,0.009-0.027,0.011-0.04,0.021c-0.036,0.03-0.054,0.071-0.085,0.104c-0.012,0.009-0.027,0.011-0.04,0.021
		c-0.036,0.03-0.054,0.071-0.085,0.104c-0.012,0.009-0.027,0.011-0.04,0.021c-0.036,0.03-0.054,0.071-0.085,0.104
		c-0.012,0.009-0.027,0.011-0.04,0.021c-0.036,0.03-0.054,0.071-0.085,0.104c-0.012,0.009-0.027,0.011-0.04,0.021
		c-0.036,0.03-0.054,0.071-0.085,0.104c-0.012,0.009-0.027,0.011-0.04,0.021c-0.036,0.03-0.054,0.071-0.085,0.104
		c-0.012,0.009-0.027,0.011-0.04,0.021c-0.036,0.03-0.054,0.071-0.085,0.104c-0.012,0.009-0.027,0.011-0.04,0.021
		c-0.036,0.03-0.054,0.071-0.085,0.104c-0.012,0.009-0.027,0.011-0.04,0.021c-0.036,0.03-0.054,0.071-0.085,0.104
		c-0.012,0.009-0.027,0.011-0.04,0.021c-0.036,0.03-0.054,0.071-0.085,0.104c-0.012,0.009-0.027,0.011-0.04,0.021
		c-0.036,0.03-0.054,0.071-0.085,0.104c-0.012,0.009-0.027,0.011-0.04,0.021c-0.036,0.03-0.054,0.071-0.085,0.104
		c-0.012,0.009-0.027,0.011-0.04,0.021c-0.036,0.03-0.054,0.071-0.085,0.104c-0.012,0.009-0.027,0.011-0.04,0.021
		c-0.036,0.03-0.054,0.071-0.085,0.104c-0.012,0.009-0.027,0.011-0.04,0.021c-0.036,0.03-0.054,0.071-0.085,0.104
		c-0.012,0.009-0.027,0.011-0.04,0.021c-0.036,0.03-0.054,0.071-0.085,0.104c-0.012,0.009-0.027,0.011-0.04,0.021
		c-0.036,0.03-0.054,0.071-0.085,0.104c-0.012,0.009-0.027,0.011-0.04,0.021c-0.036,0.03-0.054,0.071-0.085,0.104
		c-0.012,0.009-0.027,0.011-0.04,0.021c-0.036,0.03-0.054,0.071-0.085,0.104c-0.012,0.009-0.027,0.011-0.04,0.021
		c-0.036,0.03-0.054,0.071-0.085,0.104c-0.012,0.009-0.027,0.011-0.04,0.021c-0.036,0.03-0.054,0.071-0.085,0.104
		c-0.012,0.009-0.027,0.011-0.04,0.021c-0.036,0.03-0.054,0.071-0.085,0.104c-0.012,0.009-0.027,0.011-0.04,0.021
		c-0.036,0.03-0.054,0.071-0.085,0.104c-0.012,0.009-0.027,0.011-0.04,0.021c-0.036,0.03-0.054,0.071-0.085,0.104
		c-0.012,0.009-0.027,0.011-0.04,0.021c-0.036,0.03-0.054,0.071-0.085,0.104c-0.012,0.009-0.027,0.011-0.04,0.021
		c-0.036,0.03-0.054,0.071-0.085,0.104c-0.012,0.009-0.027,0.011-0.04,0.021c-0.036,0.03-0.054,0.071-0.085,0.104
		c-0.012,0.009-0.027,0.011-0.04,0.021c-0.036,0.03-0.054,0.071-0.085,0.104c-0.012,0.009-0.027,0.011-0.04,0.021
		c-0.036,0.03-0.054,0.071-0.085,0.104c-0.012,0.009-0.027,0.011-0.04,0.021c-0.036,0.03-0.054,0.071-0.085,0.104
		c-0.012,0.009-0.027,0.011-0.04,0.021c-0.036,0.03-0.054,0.071-0.085,0.104c-0.012,0.009-0.027,0.011-0.04,0.021
		c-0.036,0.03-0.054,0.071-0.085,0.104c-0.012,0.009-0.027,0.011-0.04,0.021c-0.036,0.03-0.054,0.071-0.085,0.104
		c-0.012,0.009-0.027,0.011-0.04,0.021c-0.036,0.03-0.054,0.071-0.085,0.104c-0.012,0.009-0.027,0.011-0.04,0.021
		c-0.036,0.03-0.054,0.071-0.085,0.104c-0.012,0.009-0.027,0.011-0.04,0.021c-0.036,0.03-0.054,0.071-0.085,0.104
		c-0.012,0.009-0.027,0.011-0.04,0.021c-0.036,0.03-0.054,0.071-0.085,0.104c-0.012,0.009-0.027,0.011-0.04,0.021
		c-0.036,0.03-0.054,0.071-0.085,0.104c-0.012,0.009-0.027,0.011-0.04,0.021c-0.036,0.03-0.054,0.071-0.085,0.104
		c-0.012,0.009-0.027,0.011-0.04,0.021c-0.036,0.03-0.054,0.071-0.085,0.104c-0.012,0.009-0.027,0.011-0.04,0.021
		c-0.036,0.03-0.054,0.071-0.085,0.104c-0.012,0.009-0.027,0.011-0.04,0.021c-0.036,0.03-0.054,0.071-0.085,0.104
		c-0.012,0.009-0.027,0.011-0.04,0.021c-0.036,0.03-0.054,0.071-0.085,0.104c-0.012,0.009-0.027,0.011-0.04,0.021
		c-0.036,0.03-0.054,0.071-0.085,0.104c-0.012,0.009-0.027,0.011-0.04,0.021c-0.036,0.03-0.054,0.071-0.085,0.104
		c-0.012,0.009-0.027,0.011-0.04,0.021c-0.036,0.03-0.054,0.071-0.085,0.104c-0.012,0.009-0.027,0.011-0.04,0.021
		c-0.036,0.03-0.054,0.071-0.085,0.104c-0.012,0.009-0.027,0.011-0.04,0.021c-0.036,0.03-0.054,0.071-0.085,0.104
		c-0.012,0.009-0.027,0.011-0.04,0.021c-0.036,0.03-0.054,0.071-0.085,0.104c-0.012,0.009-0.027,0.011-0.04,0.021
		c-0.036,0.03-0.054,0.071-0.085,0.104c-0.012,0.009-0.027,0.011-0.04,0.021c-0.036,0.03-0.054,0.071-0.085,0.104
		c-0.012,0.009-0.027,0.011-0.04,0.021c-0.036,0.03-0.054,0.071-0.085,0.104c-0.012,0.009-0.027,0.011-0.04,0.021
		c-0.036,0.03-0.054,0.071-0.085,0.104c-0.012,0.009-0.027,0.011-0.04,0.021c-0.036,0.03-0.054,0.071-0.085,0.104
		c-0.012,0.009-0.027,0.011-0.04,0.021c-0.036,0.03-0.054,0.071-0.085,0.104c-0.012,0.009-0.027,0.011-0.04,0.021
		c-0.036,0.03-0.054,0.071-0.085,0.104c-0.012,0.009-0.027,0.011-0.04,0.021c-0.036,0.03-0.054,0.071-0.085,0.104
		c-0.012,0.009-0.027,0.011-0.04,0.021c-0.036,0.03-0.054,0.071-0.085,0.104c-0.012,0.009-0.027,0.011-0.04,0.021
		c-0.036,0.03-0.054,0.071-0.085,0.104c-0.012,0.009-0.027,0.011-0.04,0.021c-0.036,0.03-0.054,0.071-0.085,0.104
		c-0.012,0.009-0.027,0.011-0.04,0.021c-0.036,0.03-0.054,0.071-0.085,0.104c-0.012,0.009-0.027,0.011-0.04,0.021
		c-0.036,0.03-0.054,0.071-0.085,0.104c-0.012,0.009-0.027,0.011-0.04,0.021c-0.036,0.03-0.054,0.071-0.085,0.104
		c-0.012,0.009-0.027,0.011-0.04,0.021c-0.036,0.03-0.054,0.071-0.085,0.104c-0.012,0.009-0.027,0.011-0.04,0.021
		c-0.036,0.03-0.054,0.071-0.085,0.104c-0.012,0.009-0.027,0.011-0.04,0.021c-0.036,0.03-0.054,0.071-0.085,0.104
		c-0.012,0.009-0.027,0.011-0.04,0.021c-0.036,0.03-0.054,0.071-0.085,0.104c-0.012,0.009-0.027,0.011-0.04,0.021
		c-0.036,0.03-0.054,0.071-0.085,0.104c-0.012,0.009-0.027,0.011-0.04,0.021c-0.036,0.03-0.054,0.071-0.085,0.104
		c-0.012,0.009-0.027,0.011-0.04,0.021c-0.036,0.03-0.054,0.071-0.085,0.104c-0.012,0.009-0.027,0.011-0.04,0.021
		c-0.036,0.03-0.054,0.071-0.085,0.104c-0.012,0.009-0.027,0.011-0.04,0.021c-0.036,0.03-0.054,0.071-0.085,0.104
		c-0.012,0.009-0.027,0.011-0.04,0.021c-0.036,0.03-0.054,0.071-0.085,0.104c-0.012,0.009-0.027,0.011-0.04,0.021
		c-0.036,0.03-0.054,0.071-0.085,0.104c-0.012,0.009-0.027,0.011-0.04,0.021c-0.036,0.03-0.054,0.071-0.085,0.104
		c-0.012,0.009-0.027,0.011-0.04,0.021c-0.036,0.03-0.054,0.071-0.085,0.104c-0.012,0.009-0.027,0.011-0.04,0.021
		c-0.036,0.03-0.054,0.071-0.085,0.104c-0.012,0.009-0.027,0.011-0.04,0.021c-0.036,0.03-0.054,0.071-0.085,0.104
		c-0.012,0.009-0.027,0.011-0.04,0.021c-0.036,0.03-0.054,0.071-0.085,0.104c-0.012,0.009-0.027,0.011-0.04,0.021
		c-0.036,0.03-0.054,0.071-0.085,0.104c-0.012,0.009-0.027,0.011-0.04,0.021c-0.036,0.03-0.054,0.071-0.085,0.104
		c-0.012,0.009-0.027,0.011-0.04,0.021c-0.036,0.03-0.054,0.071-0.085,0.104c-0.012,0.009-0.027,0.011-0.04,0.021
		c-0.036,0.03-0.054,0.071-0.085,0.104c-0.012,0.009-0.027,0.011-0.04,0.021c-0.036,0.03-0.054,0.071-0.085,0.104
		c-0.012,0.009-0.027,0.011-0.04,0.021c-0.036,0.03-0.054,0.071-0.085,0.104c-0.012,0.009-0.027,0.011-0.04,0.021
		c-0.036,0.03-0.054,0.071-0.085,0.104c-0.012,0.009-0.027,0.011-0.04,0.021c-0.036,0.03-0.054,0.071-0.085,0.104
		c-0.012,0.009-0.027,0.011-0.04,0.021c-0.036,0.03-0.054,0.071-0.085,0.104c-0.012,0.009-0.027,0.011-0.04,0.021
		c-0.036,0.03-0.054,0.071-0.085,0.104c-0.012,0.009-0.027,0.011-0.04,0.021c-0.036,0.03-0.054,0.071-0.085,0.104
		c-0.012,0.009-0.027,0.011-0.04,0.021c-0.036,0.03-0.054,0.071-0.085,0.104c-0.012,0.009-0.027,0.011-0.04,0.021
		c-0.036,0.03-0.054,0.071-0.085,0.104c-0.012,0.009-0.027,0.011-0.04,0.021c-0.036,0.03-0.054,0.071-0.085,0.104
		c-0.012,0.009-0.027,0.011-0.04,0.021c-0.036,0.03-0.054,0.071-0.085,0.104c-0.012,0.009-0.027,0.011-0.04,0.021
		c-0.036,0.03-0.054,0.071-0.085,0.104c-0.012,0.009-0.027,0.011-0.04,0.021c-0.036,0.03-0.054,0.071-0.085,0.104
		c-0.012,0.009-0.027,0.011-0.04,0.021c-0.036,0.03-0.054,0.071-0.085,0.104c-0.012,0.009-0.027,0.011-0.04,0.021
		c-0.036,0.03-0.054,0.071-0.085,0.104c-0.012,0.009-0.027,0.011-0.04,0.021c-0.036,0.03-0.054,0.071-0.085,0.104
		c-0.012,0.009-0.027,0.011-0.04,0.021c-0.036,0.03-0.054,0.071-0.085,0.104c-0.012,0.009-0.027,0.011-0.04,0.021
		c-0.036,0.03-0.054,0.071-0.085,0.104c-0.012,0.009-0.027,0.011-0.04,0.021c-0.036,0.03-0.054,0.071-0.085,0.104
		c-0.012,0.009-0.027,0.011-0.04,0.021c-0.036,0.03-0.054,0.071-0.085,0.104c-0.012,0.009-0.027,0.011-0.04,0.021
		c-0.036,0.03-0.054,0.071-0.085,0.104c-0.012,0.009-0.027,0.011-0.04,0.021c-0.036,0.03-0.054,0.071-0.085,0.104
		c-0.012,0.009-0.027,0.011-0.04,0.021c-0.036,0.03-0.054,0.071-0.085,0.104c-0.012,0.009-0.027,0.011-0.04,0.021
		c-0.036,0.03-0.054,0.071-0.085,0.104c-0.012,0.009-0.027,0.011-0.04,0.021c-0.036,0.03-0.054,0.071-0.085,0.104
		c-0.012,0.009-0.027,0.011-0.04,0.021c-0.036,0.03-0.054,0.071-0.085,0.104c-0.012,0.009-0.027,0.011-0.04,0.021
		c-0.036,0.03-0.054,0.071-0.085,0.104c-0.012,0.009-0.027,0.011-0.04,0.021c-0.036,0.03-0.054,0.071-0.085,0.104
		c-0.012,0.009-0.027,0.011-0.04,0.021c-0.036,0.03-0.054,0.071-0.085,0.104c-0.012,0.009-0.027,0.011-0.04,0.021
		c-0.036,0.03-0.054,0.071-0.085,0.104c-0.012,0.009-0.027,0.011-0.04,0.021c-0.036,0.03-0.054,0.071-0.085,0.104
		c-0.012,0.009-0.027,0.011-0.04,0.021c-0.036,0.03-0.054,0.071-0.085,0.104c-0.012,0.009-0.027,0.011-0.04,0.021
		c-0.036,0.03-0.054,0.071-0.085,0.104c-0.012,0.009-0.027,0.011-0.04,0.021c-0.036,0.03-0.054,0.071-0.085,0.104
		c-0.012,0.009-0.027,0.011-0.04,0.021c-0.036,0.03-0.054,0.071-0.085,0.104c-0.012,0.009-0.027,0.011-0.04,0.021
		c-0.036,0.03-0.054,0.071-0.085,0.104c-0.012,0.009-0.027,0.011-0.04,0.021c-0.036,0.03-0.054,0.071-0.085,0.104
		c-0.012,0.009-0.027,0.011-0.04,0.021c-0.036,0.03-0.054,0.071-0.085,0.104c-0.012,0.009-0.027,0.011-0.04,0.021
		c-0.036,0.03-0.054,0.071-0.085,0.104c-0.012,0.009-0.027,0.011-0.04,0.021c-0.036,0.03-0.054,0.071-0.085,0.104
		c-0.012,0.009-0.027,0.011-0.04,0.021c-0.036,0.03-0.054,0.071-0.085,0.104c-0.012,0.009-0.027,0.011-0.04,0.021
		c-0.036,0.03-0.054,0.071-0.085,0.104c-0.012,0.009-0.027,0.011-0.04,0.021c-0.036,0.03-0.054,0.071-0.085,0.104
		c-0.012,0.009-0.027,0.011-0.04,0.021c-0.036,0.03-0.054,0.071-0.085,0.104c-0.012,0.009-0.027,0.011-0.04,0.021
		c-0.036,0.03-0.054,0.071-0.085,0.104c-0.012,0.009-0.027,0.011-0.04,0.021c-0.036,0.03-0.054,0.071-0.085,0.104
		c-0.012,0.009-0.027,0.011-0.04,0.021c-0.036,0.03-0.054,0.071-0.085,0.104c-0.012,0.009-0.027,0.011-0.04,0.021
		c-0.036,0.03-0.054,0.071-0.085,0.104c-0.012,0.009-0.027,0.011-0.04,0.021c-0.036,0.03-0.054,0.071-0.085,0.104
		c-0.012,0.009-0.027,0.011-0.04,0.021c-0.036,0.03-0.054,0.071-0.085,0.104c-0.012,0.009-0.027,0.011-0.04,0.021
		c-0.036,0.03-0.054,0.071-0.085,0.104c-0.012,0.009-0.027,0.011-0.04,0.021c-0.036,0.03-0.054,0.071-0.085,0.104
		c-0.012,0.009-0.027,0.011-0.04,0.021c-0.036,0.03-0.054,0.071-0.085,0.104c-0.012,0.009-0.027,0.011-0.04,0.021
		c-0.036,0.03-0.054,0.071-0.085,0.104c-0.012,0.009-0.027,0.011-0.04,0.021c-0.036,0.03-0.054,0.071-0.085,0.104
		c-0.012,0.009-0.027,0.011-0.04,0.021c-0.036,0.03-0.054,0.071-0.085,0.104c-0.012,0.009-0.027,0.011-0.04,0.021
		c-0.036,0.03-0.054,0.071-0.085,0.104c-0.012,0.009-0.027,0.011-0.04,0.021c-0.036,0.03-0.054,0.071-0.085,0.104
		c-0.012,0.009-0.027,0.011-0.04,0.021c-0.036,0.03-0.054,0.071-0.085,0.104c-0.012,0.009-0.027,0.011-0.04,0.021
		c-0.036,0.03-0.054,0.071-0.085,0.104c-0.012,0.009-0.027,0.011-0.04,0.021c-0.036,0.03-0.054,0.071-0.085,0.104
		c-0.012,0.009-0.027,0.011-0.04,0.021c-0.036,0.03-0.054,0.071-0.085,0.104c-0.012,0.009-0.027,0.011-0.04,0.021
		c-0.036,0.03-0.054,0.071-0.085,0.104c-0.012,0.009-0.027,0.011-0.04,0.021c-0.036,0.03-0.054,0.071-0.085,0.104
		c-0.012,0.009-0.027,0.011-0.04,0.021c-0.036,0.03-0.054,0.071-0.085,0.104c-0.012,0.009-0.027,0.011-0.04,0.021
		c-0.036,0.03-0.054,0.071-0.085,0.104c-0.012,0.009-0.027,0.011-0.04,0.021c-0.036,0.03-0.054,0.071-0.085,0.104
		c-0.012,0.009-0.027,0.011-0.04,0.021c-0.036,0.03-0.054,0.071-0.085,0.104c-0.012,0.009-0.027,0.011-0.04,0.021
		c-0.036,0.03-0.054,0.071-0.085,0.104c-0.012,0.009-0.027,0.011-0.04,0.021c-0.036,0.03-0.054,0.071-0.085,0.104
		c-0.012,0.009-0.027,0.011-0.04,0.021c-0.036,0.03-0.054,0.071-0.085,0.104c-0.012,0.009-0.027,0.011-0.04,0.021
		c-0.036,0.03-0.054,0.071-0.085,0.104c-0.012,0.009-0.027,0.011-0.04,0.021c-0.036,0.03-0.054,0.071-0.085,0.104
		c-0.012,0.009-0.027,0.011-0.04,0.021c-0.036,0.03-0.054,0.071-0.085,0.104c-0.012,0.009-0.027,0.011-0.04,0.021
		c-0.036,0.03-0.054,0.071-0.085,0.104c-0.012,0.009-0.027,0.011-0.04,0.021c-0.036,0.03-0.054,0.071-0.085,0.104
		c-0.012,0.009-0.027,0.011-0.04,0.021c-0.036,0.03-0.054,0.071-0.085,0.104c-0.012,0.009-0.027,0.011-0.04,0.021
		c-0.036,0.03-0.054,0.071-0.085,0.104c-0.012,0.009-0.027,0.011-0.04,0.021c-0.036,0.03-0.054,0.071-0.085,0.104
		c-0.012,0.009-0.027,0.011-0.04,0.021c-0.036,0.03-0.054,0.071-0.085,0.104c-0.012,0.009-0.027,0.011-0.04,0.021
		c-0.036,0.03-0.054,0.071-0.085,0.104c-0.012,0.009-0.027,0.011-0.04,0.021c-0.036,0.03-0.054,0.071-0.085,0.104
		c-0.012,0.009-0.027,0.011-0.04,0.021c-0.036,0.03-0.054,0.071-0.085,0.104c-0.012,0.009-0.027,0.011-0.04,0.021
		c-0.036,0.03-0.054,0.071-0.085,0.104c-0.012,0.009-0.027,0.011-0.04,0.021c-0.036,0.03-0.054,0.071-0.085,0.104
		c-0.012,0.009-0.027,0.011-0.04,0.021c-0.036,0.03-0.054,0.071-0.085,0.104c-0.012,0.009-0.027,0.011-0.04,0.021
		c-0.036,0.03-0.054,0.071-0.085,0.104c-0.012,0.009-0.027,0.011-0.04,0.021c-0.036,0.03-0.054,0.071-0.085,0.104
		c-0.012,0.009-0.027,0.011-0.04,0.021c-0.036,0.03-0.054,0.071-0.085,0.104c-0.012,0.009-0.027,0.011-0.04,0.021
		c-0.036,0.03-0.054,0.071-0.085,0.104c-0.012,0.009-0.027,0.011-0.04,0.021c-0.036,0.03-0.054,0.071-0.085,0.104
		c-0.012,0.009-0.027,0.011-0.04,0.021c-0.036,0.03-0.054,0.071-0.085,0.104c-0.012,0.009-0.027,0.011-0.04,0.021
		c-0.036,0.03-0.054,0.071-0.085,0.104c-0.012,0.009-0.027,0.011-0.04,0.021c-0.036,0.03-0.054,0.071-0.085,0.104
		c-0.012,0.009-0.027,0.011-0.04,0.021c-0.036,0.03-0.054,0.071-0.085,0.104c-0.012,0.009-0.027,0.011-0.04,0.021
		c-0.036,0.03-0.054,0.071-0.085,0.104c-0.012,0.009-0.027,0.011-0.04,0.021c-0.036,0.03-0.054,0.071-0.085,0.104
		c-0.012,0.009-0.027,0.011-0.04,0.021c-0.036,0.03-0.054,0.071-0.085,0.104c-0.012,0.009-0.027,0.011-0.04,0.021
		c-0.036,0.03-0.054,0.071-0.085,0.104c-0.012,0.009-0.027,0.011-0.04,0.021c-0.036,0.03-0.054,0.071-0.085,0.104
		c-0.012,0.009-0.027,0.011-0.04,0.021c-0.036,0.03-0.054,0.071-0.085,0.104c-0.012,0.009-0.027,0.011-0.04,0.021
		c-0.036,0.03-0.054,0.071-0.085,0.104c-0.012,0.009-0.027,0.011-0.04,0.021c-0.036,0.03-0.054,0.071-0.085,0.104
		c-0.012,0.009-0.027,0.011-0.04,0.021c-0.036,0.03-0.054,0.071-0.085,0.104c-0.012,0.009-0.027,0.011-0.04,0.021
		c-0.036,0.03-0.054,0.071-0.085,0.104c-0.012,0.009-0.027,0.011-0.04,0.021c-0.036,0.03-0.054,0.071-0.085,0.104
		c-0.012,0.009-0.027,0.011-0.04,0.021c-0.036,0.03-0.054,0.071-0.085,0.104c-0.012,0.009-0.027,0.011-0.04,0.021
		c-0.036,0.03-0.054,0.071-0.085,0.104c-0.012,0.009-0.027,0.011-0.04,0.021c-0.036,0.03-0.054,0.071-0.085,0.104
		c-0.012,0.009-0.027,0.011-0.04,0.021c-0.036,0.03-0.054,0.071-0.085,0.104c-0.012,0.009-0.027,0.011-0.04,0.021
		c-0.036,0.03-0.054,0.071-0.085,0.104c-0.012,0.009-0.027,0.011-0.04,0.021c-0.036,0.03-0.054,0.071-0.085,0.104
		c-0.012,0.009-0.027,0.011-0.04,0.021c-0.036,0.03-0.054,0.071-0.085,0.104c-0.012,0.009-0.027,0.011-0.04,0.021
		c-0.036,0.03-0.054,0.071-0.085,0.104c-0.012,0.009-0.027,0.011-0.04,0.021c-0.036,0.03-0.054,0.071-0.085,0.104
		c-0.012,0.009-0.027,0.011-0.04,0.021c-0.036,0.03-0.054,0.071-0.085,0.104c-0.012,0.009-0.027,0.011-0.04,0.021
		c-0.036,0.03-0.054,0.071-0.085,0.104c-0.012,0.009-0.027,0.011-0.04,0.021c-0.036,0.03-0.054,0.071-0.085,0.104
		c-0.012,0.009-0.027,0.011-0.04,0.021c-0.036,0.03-0.054,0.071-0.085,0.104c-0.012,0.009-0.027,0.011-0.04,0.021
		c-0.036,0.03-0.054,0.071-0.085,0.104c-0.012,0.009-0.027,0.011-0.04,0.021c-0.036,0.03-0.054,0.071-0.085,0.104
		c-0.012,0.009-0.027,0.011-0.04,0.021c-0.036,0.03-0.054,0.071-0.085,0.104c-0.012,0.009-0.027,0.011-0.04,0.021
		c-0.036,0.03-0.054,0.071-0.085,0.104c-0.012,0.009-0.027,0.011-0.04,0.021c-0.036,0.03-0.054,0.071-0.085,0.104
		c-0.012,0.009-0.027,0.011-0.04,0.021c-0.036,0.03-0.054,0.071-0.085,0.104c-0.012,0.009-0.027,0.011-0.04,0.021
		c-0.036,0.03-0.054,0.071-0.085,0.104c-0.012,0.009-0.027,0.011-0.04,0.021c-0.036,0.03-0.054,0.071-0.085,0.104
		c-0.012,0.009-0.027,0.011-0.04,0.021c-0.036,0.03-0.054,0.071-0.085,0.104c-0.012,0.009-0.027,0.011-0.04,0.021
		c-0.036,0.03-0.054,0.071-0.085,0.104c-0.012,0.009-0.027,0.011-0.04,0.021c-0.036,0.03-0.054,0.071-0.085,0.104
		c-0.012,0.009-0.027,0.011-0.04,0.021c-0.036,0.03-0.054,0.071-0.085,0.104c-0.012,0.009-0.027,0.011-0.04,0.021
		c-0.036,0.03-0.054,0.071-0.085,0.104c-0.012,0.009-0.027,0.011-0.04,0.021c-0.036,0.03-0.054,0.071-0.085,0.104
		c-0.012,0.009-0.027,0.011-0.04,0.021c-0.036,0.03-0.054,0.071-0.085,0.104c-0.012,0.009-0.027,0.011-0.04,0.021
		c-0.036,0.03-0.054,0.071-0.085,0.104c-0.012,0.009-0.027,0.011-0.04,0.021c-0.036,0.03-0.054,0.071-0.085,0.104
		c-0.012,0.009-0.027,0.011-0.04,0.021c-0.036,0.03-0.054,0.071-0.085,0.104c-0.012,0.009-0.027,0.011-0.04,0.021
		c-0.036,0.03-0.054,0.071-0.085,0.104c-0.012,0.009-0.027,0.011-0.04,0.021c-0.036,0.03-0.054,0.071-0.085,0.104
		c-0.012,0.009-0.027,0.011-0.04,0.021c-0.036,0.03-0.054,0.071-0.085,0.104c-0.012,0.009-0.027,0.011-0.04,0.021
		c-0.036,0.03-0.054,0.071-0.085,0.104c-0.012,0.009-0.027,0.011-0.04,0.021c-0.036,0.03-0.054,0.071-0.085,0.104
		c-0.012,0.009-0.027,0.011-0.04,0.021c-0.036,0.029-0.054,0.071-0.085,0.104c-0.012,0.009-0.027,0.011-0.04,0.021
		c-0.036,0.029-0.054,0.071-0.085,0.104c-0.012,0.009-0.027,0.011-0.04,0.021c-0.036,0.029-0.054,0.071-0.085,0.104
		c-0.012,0.009-0.027,0.011-0.04,0.021c-0.036,0.029-0.054,0.071-0.085,0.104c-0.012,0.009-0.027,0.011-0.04,0.021
		c-0.036,0.029-0.054,0.071-0.085,0.104c-0.012,0.009-0.027,0.011-0.04,0.021c-0.036,0.029-0.054,0.071-0.085,0.104
		c-0.012,0.009-0.027,0.011-0.04,0.021c-0.036,0.029-0.054,0.071-0.085,0.104c-0.012,0.009-0.027,0.011-0.04,0.021
		c-0.036,0.029-0.054,0.071-0.085,0.104c-0.012,0.009-0.027,0.011-0.04,0.021c-0.036,0.029-0.054,0.071-0.085,0.104
		c-0.012,0.009-0.027,0.011-0.04,0.021c-0.036,0.029-0.054,0.071-0.085,0.104c-0.012,0.009-0.027,0.011-0.04,0.021
		c-0.036,0.029-0.054,0.071-0.085,0.104c-0.012,0.009-0.027,0.011-0.04,0.021c-0.036,0.029-0.054,0.071-0.085,0.104
		c-0.012,0.009-0.027,0.011-0.04,0.021c-0.036,0.029-0.054,0.071-0.085,0.104c-0.012,0.009-0.027,0.011-0.04,0.021
		c-0.036,0.029-0.054,0.071-0.085,0.104c-0.012,0.009-0.027,0.011-0.04,0.021c-0.036,0.029-0.054,0.071-0.085,0.104
		c-0.012,0.009-0.027,0.011-0.04,0.021c-0.036,0.029-0.054,0.071-0.085,0.104c-0.012,0.009-0.027,0.011-0.04,0.021
		c-0.036,0.029-0.054,0.071-0.085,0.104c-0.012,0.009-0.027,0.011-0.04,0.021c-0.036,0.029-0.054,0.071-0.085,0.104
		c-0.012,0.009-0.027,0.011-0.04,0.021c-0.036,0.029-0.054,0.071-0.085,0.104c-0.012,0.009-0.027,0.011-0.04,0.021
		c-0.036,0.029-0.054,0.071-0.085,0.104c-0.012,0.009-0.027,0.011-0.04,0.021c-0.036,0.029-0.054,0.071-0.085,0.104
		c-0.012,0.009-0.027,0.011-0.04,0.021c-0.036,0.029-0.054,0.071-0.085,0.104c-0.012,0.009-0.027,0.011-0.04,0.021
		c-0.036,0.029-0.054,0.071-0.085,0.104c-0.012,0.009-0.027,0.011-0.04,0.021c-0.036,0.029-0.054,0.071-0.085,0.104
		c-0.012,0.009-0.027,0.011-0.04,0.021c-0.036,0.029-0.054,0.071-0.085,0.104c-0.012,0.009-0.027,0.011-0.04,0.021
		c-0.036,0.029-0.054,0.071-0.085,0.104c-0.012,0.009-0.027,0.011-0.04,0.021c-0.036,0.029-0.054,0.071-0.085,0.104
		c-0.012,0.009-0.027,0.011-0.04,0.021c-0.036,0.029-0.054,0.071-0.085,0.104c-0.012,0.009-0.027,0.011-0.04,0.021
		c-0.036,0.029-0.054,0.071-0.085,0.104c-0.012,0.009-0.027,0.011-0.04,0.021c-0.036,0.029-0.054,0.071-0.085,0.104
		c-0.012,0.009-0.027,0.011-0.04,0.021c-0.036,0.029-0.054,0.071-0.085,0.104c-0.012,0.009-0.027,0.011-0.04,0.021
		c-0.036,0.029-0.054,0.071-0.085,0.104c-0.012,0.009-0.027,0.011-0.04,0.021c-0.036,0.029-0.054,0.071-0.085,0.104
		c-0.012,0.009-0.027,0.011-0.04,0.021c-0.036,0.029-0.054,0.071-0.085,0.104c-0.012,0.009-0.027,0.011-0.04,0.021
		c-0.036,0.029-0.054,0.071-0.085,0.104c-0.012,0.009-0.027,0.011-0.04,0.021c-0.036,0.029-0.054,0.071-0.085,0.104
		c-0.012,0.009-0.027,0.011-0.04,0.021c-0.036,0.029-0.054,0.071-0.085,0.104c-0.012,0.009-0.027,0.011-0.04,0.021
		c-0.036,0.029-0.054,0.071-0.085,0.104c-0.012,0.009-0.027,0.011-0.04,0.021c-0.036,0.029-0.054,0.071-0.085,0.104
		c-0.012,0.009-0.027,0.011-0.04,0.021c-0.036,0.029-0.054,0.071-0.085,0.104c-0.012,0.009-0.027,0.011-0.04,0.021
		c-0.036,0.029-0.054,0.071-0.085,0.104c-0.012,0.009-0.027,0.011-0.04,0.021c-0.036,0.029-0.054,0.071-0.085,0.104
		c-0.012,0.009-0.027,0.011-0.04,0.021c-0.036,0.029-0.054,0.071-0.085,0.104c-0.012,0.009-0.027,0.011-0.04,0.021
		c-0.036,0.029-0.054,0.071-0.085,0.104c-0.012,0.009-0.027,0.011-0.04,0.021c-0.036,0.029-0.054,0.071-0.085,0.104
		c-0.012,0.009-0.027,0.011-0.04,0.021c-0.036,0.029-0.054,0.071-0.085,0.104c-0.012,0.009-0.027,0.011-0.04,0.021
		c-0.036,0.029-0.054,0.071-0.085,0.104c-0.012,0.009-0.027,0.011-0.04,0.021c-0.036,0.029-0.054,0.071-0.085,0.104
		c-0.012,0.009-0.027,0.011-0.04,0.021c-0.036,0.029-0.054,0.071-0.085,0.104c-0.012,0.009-0.027,0.011-0.04,0.021
		c-0.036,0.029-0.054,0.071-0.085,0.104c-0.012,0.009-0.027,0.011-0.04,0.021c-0.036,0.029-0.054,0.071-0.085,0.104
		c-0.012,0.009-0.027,0.011-0.04,0.021c-0.036,0.029-0.054,0.071-0.085,0.104c-0.012,0.009-0.027,0.011-0.04,0.021
		c-0.036,0.029-0.054,0.071-0.085,0.104c-0.012,0.009-0.027,0.011-0.04,0.021c-0.036,0.029-0.054,0.071-0.085,0.104
		c-0.012,0.009-0.027,0.011-0.04,0.021c-0.036,0.029-0.054,0.071-0.085,0.104c-0.012,0.009-0.027,0.011-0.04,0.021
		c-0.036,0.029-0.054,0.071-0.085,0.104c-0.012,0.009-0.027,0.011-0.04,0.021c-0.036,0.029-0.054,0.071-0.085,0.104
		c-0.012,0.009-0.027,0.011-0.04,0.021c-0.036,0.029-0.054,0.071-0.085,0.104c-0.012,0.009-0.027,0.011-0.04,0.021
		c-0.036,0.029-0.054,0.071-0.085,0.104c-0.012,0.009-0.027,0.011-0.04,0.021c-0.036,0.029-0.054,0.071-0.085,0.104
		c-0.012,0.009-0.027,0.011-0.04,0.021c-0.036,0.029-0.054,0.071-0.085,0.104c-0.012,0.009-0.027,0.011-0.04,0.021
		c-0.036,0.029-0.054,0.071-0.085,0.104c-0.012,0.009-0.027,0.011-0.04,0.021c-0.036,0.029-0.054,0.071-0.085,0.104
		c-0.012,0.009-0.027,0.011-0.04,0.021c-0.036,0.029-0.054,0.071-0.085,0.104c-0.012,0.009-0.027,0.011-0.04,0.021
		c-0.036,0.029-0.054,0.071-0.085,0.104c-0.012,0.009-0.027,0.011-0.04,0.021c-0.036,0.029-0.054,0.071-0.085,0.104
		c-0.012,0.009-0.027,0.011-0.04,0.021c-0.036,0.029-0.054,0.071-0.085,0.104c-0.012,0.009-0.027,0.011-0.04,0.021
		c-0.036,0.029-0.054,0.071-0.085,0.104c-0.012,0.009-0.027,0.011-0.04,0.021c-0.036,0.029-0.054,0.071-0.085,0.104
		c-0.012,0.009-0.027,0.011-0.04,0.021c-0.036,0.029-0.054,0.071-0.085,0.104c-0.012,0.009-0.027,0.011-0.04,0.021
		c-0.036,0.029-0.054,0.071-0.085,0.104c-0.012,0.009-0.027,0.011-0.04,0.021c-0.036,0.029-0.054,0.071-0.085,0.104
		c-0.012,0.009-0.027,0.011-0.04,0.021c-0.036,0.029-0.054,0.071-0.085,0.104c-0.012,0.009-0.027,0.011-0.04,0.021
		c-0.036,0.029-0.054,0.071-0.085,0.104c-0.012,0.009-0.027,0.011-0.04,0.021c-0.036,0.029-0.054,0.071-0.085,0.104
		c-0.012,0.009-0.027,0.011-0.04,0.021c-0.036,0.029-0.054,0.071-0.085,0.104c-0.012,0.009-0.027,0.011-0.04,0.021
		c-0.036,0.029-0.054,0.071-0.085,0.104c-0.012,0.009-0.027,0.011-0.04,0.021c-0.036,0.029-0.054,0.071-0.085,0.104
		c-0.012,0.009-0.027,0.011-0.04,0.021c-0.528,0.431-0.606,1.207-0.176,1.735c3.527,4.322,1.693,6.875-0.431,9.829
		c-2.136,2.972-4.793,6.669,0.559,11.515c0.236,0.215,0.532,0.32,0.827,0.32c0.336,0,0.671-0.137,0.915-0.406
		c0.017-0.019,0.021-0.042,0.037-0.062c0.027-0.025,0.063-0.035,0.088-0.063c0.017-0.019,0.021-0.042,0.037-0.062
		c0.027-0.025,0.063-0.035,0.088-0.063c0.017-0.019,0.021-0.042,0.037-0.062c0.027-0.025,0.063-0.035,0.088-0.063
		c0.017-0.019,0.021-0.042,0.037-0.062c0.027-0.025,0.063-0.035,0.088-0.063c0.017-0.019,0.021-0.042,0.037-0.062
		c0.027-0.025,0.063-0.035,0.088-0.063c0.017-0.019,0.021-0.042,0.037-0.062c0.027-0.025,0.063-0.035,0.088-0.063
		c0.017-0.019,0.021-0.042,0.037-0.062c0.027-0.025,0.063-0.035,0.088-0.063c0.017-0.019,0.021-0.042,0.037-0.062
		c0.027-0.025,0.063-0.035,0.088-0.063c0.017-0.019,0.021-0.042,0.037-0.062c0.027-0.025,0.063-0.035,0.088-0.063
		c0.017-0.019,0.021-0.042,0.037-0.062c0.027-0.025,0.063-0.035,0.088-0.063c0.017-0.019,0.021-0.042,0.037-0.062
		c0.027-0.025,0.063-0.035,0.088-0.063c0.017-0.019,0.021-0.042,0.037-0.062c0.027-0.025,0.063-0.035,0.088-0.063
		c0.017-0.019,0.021-0.042,0.037-0.062c0.027-0.025,0.063-0.035,0.088-0.063c0.017-0.019,0.021-0.042,0.037-0.062
		c0.027-0.025,0.063-0.035,0.088-0.063c0.017-0.019,0.021-0.042,0.037-0.062c0.027-0.025,0.063-0.035,0.088-0.063
		c0.017-0.019,0.021-0.042,0.037-0.062c0.027-0.025,0.063-0.035,0.088-0.063c0.017-0.019,0.021-0.042,0.037-0.062
		c0.027-0.025,0.063-0.035,0.088-0.063c0.017-0.019,0.021-0.042,0.037-0.062c0.027-0.025,0.063-0.035,0.088-0.063
		c0.017-0.019,0.021-0.042,0.037-0.062c0.027-0.025,0.063-0.035,0.088-0.063c0.017-0.019,0.021-0.042,0.037-0.062
		c0.027-0.025,0.063-0.035,0.088-0.063c0.017-0.019,0.021-0.042,0.037-0.062c0.027-0.025,0.063-0.035,0.088-0.063
		c0.017-0.019,0.021-0.042,0.037-0.062c0.027-0.025,0.063-0.035,0.088-0.063c0.017-0.019,0.021-0.042,0.037-0.062
		c0.027-0.025,0.063-0.035,0.088-0.063c0.017-0.019,0.021-0.042,0.037-0.062c0.027-0.025,0.063-0.035,0.088-0.063
		c0.017-0.019,0.021-0.042,0.037-0.062c0.027-0.025,0.063-0.035,0.088-0.063c0.017-0.019,0.021-0.042,0.037-0.062
		c0.027-0.025,0.063-0.035,0.088-0.063c0.017-0.019,0.021-0.042,0.037-0.062c0.027-0.025,0.063-0.035,0.088-0.063
		c0.017-0.019,0.021-0.042,0.037-0.062c0.027-0.025,0.063-0.035,0.088-0.063c0.017-0.019,0.021-0.042,0.037-0.062
		c0.027-0.025,0.063-0.035,0.088-0.063c0.017-0.019,0.021-0.042,0.037-0.062c0.027-0.025,0.063-0.035,0.088-0.063
		c0.017-0.019,0.021-0.042,0.037-0.062c0.027-0.025,0.063-0.035,0.088-0.063c0.017-0.019,0.021-0.042,0.037-0.062
		c0.027-0.025,0.063-0.035,0.088-0.063c0.017-0.019,0.021-0.042,0.037-0.062c0.027-0.025,0.063-0.035,0.088-0.063
		c0.017-0.019,0.021-0.042,0.037-0.062c0.027-0.025,0.063-0.035,0.088-0.063c0.017-0.019,0.021-0.042,0.037-0.062
		c0.027-0.025,0.063-0.035,0.088-0.063c0.009-0.01,0.011-0.022,0.02-0.033c0.026,0.113,0.061,0.228,0.095,0.343
		c-0.016,0.015-0.034,0.035-0.05,0.052c-0.04,0.039-0.079,0.078-0.125,0.125c-0.04,0.039-0.079,0.078-0.125,0.125
		c-0.04,0.039-0.079,0.078-0.125,0.125c-0.04,0.039-0.079,0.078-0.125,0.125c-0.04,0.039-0.079,0.078-0.125,0.125
		c-0.04,0.039-0.079,0.078-0.125,0.125c-0.04,0.039-0.079,0.078-0.125,0.125c-0.04,0.039-0.079,0.078-0.125,0.125
		c-0.04,0.039-0.079,0.078-0.125,0.125c-0.04,0.039-0.079,0.078-0.125,0.125c-0.04,0.039-0.079,0.078-0.125,0.125
		c-0.04,0.039-0.079,0.078-0.125,0.125c-0.04,0.039-0.079,0.078-0.125,0.125c-0.04,0.039-0.079,0.078-0.125,0.125
		c-0.04,0.039-0.079,0.078-0.125,0.125c-0.04,0.039-0.079,0.078-0.125,0.125c-0.04,0.039-0.079,0.078-0.125,0.125
		c-0.04,0.039-0.079,0.078-0.125,0.125c-0.04,0.039-0.079,0.078-0.125,0.125c-0.04,0.039-0.079,0.078-0.125,0.125
		c-0.04,0.039-0.079,0.078-0.125,0.125c-0.04,0.039-0.079,0.078-0.125,0.125c-0.04,0.039-0.079,0.078-0.125,0.125
		c-0.04,0.039-0.079,0.078-0.125,0.125c-0.04,0.039-0.079,0.078-0.125,0.125c-0.04,0.039-0.079,0.078-0.125,0.125
		c-0.04,0.039-0.079,0.078-0.125,0.125c-0.04,0.039-0.079,0.078-0.125,0.125c-0.04,0.039-0.079,0.078-0.125,0.125
		c-0.04,0.039-0.079,0.078-0.125,0.125c-0.04,0.039-0.079,0.078-0.125,0.125c-0.04,0.039-0.079,0.078-0.125,0.125
		c-0.04,0.039-0.079,0.078-0.125,0.125c-0.04,0.039-0.079,0.078-0.125,0.125c-0.04,0.039-0.079,0.078-0.125,0.125
		c-0.04,0.039-0.079,0.078-0.125,0.125c-0.04,0.039-0.079,0.078-0.125,0.125c-0.04,0.039-0.079,0.078-0.125,0.125
		c-0.04,0.039-0.079,0.078-0.125,0.125c-0.04,0.039-0.079,0.078-0.125,0.125c-0.04,0.039-0.079,0.078-0.125,0.125
		c-0.04,0.039-0.079,0.078-0.125,0.125c-0.04,0.039-0.079,0.078-0.125,0.125c-0.04,0.039-0.079,0.078-0.125,0.125
		c-0.04,0.039-0.079,0.078-0.125,0.125c-0.044,0.043-0.089,0.089-0.14,0.141c-0.036,0.036-0.07,0.068-0.11,0.109
		c-0.04,0.039-0.079,0.078-0.125,0.125c-0.04,0.039-0.079,0.078-0.125,0.125c-0.04,0.039-0.079,0.078-0.125,0.125
		c-0.04,0.039-0.079,0.078-0.125,0.125c-0.04,0.039-0.079,0.078-0.125,0.125c-0.04,0.039-0.079,0.078-0.125,0.125
		c-0.04,0.039-0.079,0.078-0.125,0.125c-0.04,0.039-0.079,0.078-0.125,0.125c-0.04,0.039-0.079,0.078-0.125,0.125
		c-0.04,0.039-0.079,0.078-0.125,0.125c-0.04,0.039-0.079,0.078-0.125,0.125c-0.04,0.039-0.079,0.078-0.125,0.125
		c-0.04,0.039-0.079,0.078-0.125,0.125c-0.04,0.039-0.079,0.078-0.125,0.125c-0.04,0.039-0.079,0.078-0.125,0.125
		c-0.04,0.039-0.079,0.078-0.125,0.125c-0.04,0.039-0.079,0.078-0.125,0.125c-0.04,0.039-0.079,0.078-0.125,0.125
		c-0.04,0.039-0.079,0.078-0.125,0.125c-0.04,0.039-0.079,0.078-0.125,0.125c-0.04,0.039-0.079,0.078-0.125,0.125
		c-0.04,0.039-0.079,0.078-0.125,0.125c-0.04,0.039-0.079,0.078-0.125,0.125c-0.04,0.039-0.079,0.078-0.125,0.125
		c-0.04,0.039-0.079,0.078-0.125,0.125c-0.04,0.039-0.079,0.078-0.125,0.125c-0.04,0.039-0.079,0.078-0.125,0.125
		c-0.04,0.039-0.079,0.078-0.125,0.125c-0.04,0.039-0.079,0.078-0.125,0.125c-0.04,0.039-0.079,0.078-0.125,0.125
		c-0.04,0.039-0.079,0.078-0.125,0.125c-0.04,0.039-0.079,0.078-0.125,0.125c-0.04,0.039-0.079,0.078-0.125,0.125
		c-0.04,0.039-0.079,0.078-0.125,0.125c-0.04,0.039-0.079,0.078-0.125,0.125c-0.04,0.039-0.079,0.078-0.125,0.125
		c-0.04,0.039-0.079,0.078-0.125,0.125c-0.04,0.039-0.079,0.078-0.125,0.125c-0.04,0.039-0.079,0.078-0.125,0.125
		c-0.04,0.039-0.079,0.078-0.125,0.125c-0.04,0.039-0.079,0.078-0.125,0.125c-0.04,0.039-0.079,0.078-0.125,0.125
		c-0.04,0.039-0.079,0.078-0.125,0.125c-0.04,0.039-0.079,0.078-0.125,0.125c-0.04,0.039-0.079,0.078-0.125,0.125
		c-0.04,0.039-0.079,0.078-0.125,0.125c-0.04,0.039-0.079,0.078-0.125,0.125c-0.04,0.039-0.079,0.078-0.125,0.125
		c-0.04,0.039-0.079,0.078-0.125,0.125c-0.04,0.039-0.079,0.078-0.125,0.125c-0.04,0.039-0.079,0.078-0.125,0.125
		c-0.04,0.039-0.079,0.078-0.125,0.125c-0.04,0.039-0.079,0.078-0.125,0.125c-0.04,0.039-0.079,0.078-0.125,0.125
		c-0.04,0.039-0.079,0.078-0.125,0.125c-0.04,0.039-0.079,0.078-0.125,0.125c-0.04,0.039-0.079,0.078-0.125,0.125
		c-0.04,0.039-0.079,0.078-0.125,0.125c-0.04,0.039-0.079,0.078-0.125,0.125c-0.04,0.039-0.079,0.078-0.125,0.125
		c-0.04,0.039-0.079,0.078-0.125,0.125c-0.04,0.039-0.079,0.078-0.125,0.125c-0.04,0.039-0.079,0.078-0.125,0.125
		c-0.04,0.039-0.079,0.078-0.125,0.125c-0.04,0.039-0.079,0.078-0.125,0.125c-0.04,0.039-0.079,0.078-0.125,0.125
		c-0.04,0.039-0.079,0.078-0.125,0.125c-0.04,0.039-0.079,0.078-0.125,0.125c-0.04,0.039-0.079,0.078-0.125,0.125
		c-0.04,0.039-0.079,0.078-0.125,0.125c-0.04,0.039-0.079,0.078-0.125,0.125c-0.04,0.039-0.079,0.078-0.125,0.125
		c-0.04,0.039-0.079,0.078-0.125,0.125c-0.04,0.039-0.079,0.078-0.125,0.125c-0.04,0.039-0.079,0.078-0.125,0.125
		c-0.04,0.039-0.079,0.078-0.125,0.125c-0.04,0.039-0.079,0.078-0.125,0.125c-0.04,0.039-0.079,0.078-0.125,0.125
		c-0.04,0.039-0.079,0.078-0.125,0.125c-0.04,0.039-0.079,0.078-0.125,0.125c-0.04,0.039-0.079,0.078-0.125,0.125
		c-0.04,0.039-0.079,0.078-0.125,0.125c-0.04,0.039-0.079,0.078-0.125,0.125c-0.04,0.039-0.079,0.078-0.125,0.125
		c-0.04,0.039-0.079,0.078-0.125,0.125c-0.04,0.039-0.079,0.078-0.125,0.125c-0.04,0.039-0.079,0.078-0.125,0.125
		c-0.04,0.039-0.079,0.078-0.125,0.125c-0.04,0.039-0.079,0.078-0.125,0.125c-0.04,0.039-0.079,0.078-0.125,0.125
		c-0.04,0.039-0.079,0.078-0.125,0.125c-0.04,0.039-0.079,0.078-0.125,0.125c-0.04,0.039-0.079,0.078-0.125,0.125
		c-0.04,0.039-0.079,0.078-0.125,0.125c-0.04,0.039-0.079,0.078-0.125,0.125c-0.04,0.039-0.079,0.078-0.125,0.125
		c-0.04,0.039-0.079,0.078-0.125,0.125c-0.04,0.039-0.079,0.078-0.125,0.125c-0.04,0.039-0.079,0.078-0.125,0.125
		c-0.04,0.039-0.079,0.078-0.125,0.125c-0.04,0.039-0.079,0.078-0.125,0.125c-0.04,0.039-0.079,0.078-0.125,0.125
		c-0.04,0.039-0.079,0.078-0.125,0.125c-0.04,0.039-0.079,0.078-0.125,0.125c-0.04,0.039-0.079,0.078-0.125,0.125
		c-0.04,0.039-0.079,0.078-0.125,0.125c-0.04,0.039-0.079,0.078-0.125,0.125c-0.04,0.039-0.079,0.078-0.125,0.125
		c-0.04,0.039-0.079,0.078-0.125,0.125c-0.04,0.039-0.079,0.078-0.125,0.125c-0.04,0.039-0.079,0.078-0.125,0.125
		c-0.04,0.039-0.079,0.078-0.125,0.125c-0.04,0.039-0.079,0.078-0.125,0.125c-0.04,0.039-0.079,0.078-0.125,0.125
		c-0.04,0.039-0.079,0.078-0.125,0.125c-0.04,0.039-0.079,0.078-0.125,0.125c-0.04,0.039-0.079,0.078-0.125,0.125
		c-0.04,0.039-0.079,0.078-0.125,0.125c-0.04,0.039-0.079,0.078-0.125,0.125c-0.04,0.039-0.079,0.078-0.125,0.125
		c-0.04,0.039-0.079,0.078-0.125,0.125c-0.04,0.039-0.079,0.078-0.125,0.125c-0.04,0.039-0.079,0.078-0.125,0.125
		c-0.04,0.039-0.079,0.078-0.125,0.125c-0.04,0.039-0.079,0.078-0.125,0.125c-0.04,0.039-0.079,0.078-0.125,0.125
		c-0.04,0.039-0.079,0.078-0.125,0.125c-0.04,0.039-0.079,0.078-0.125,0.125c-0.04,0.039-0.079,0.078-0.125,0.125
		c-0.04,0.039-0.079,0.078-0.125,0.125c-0.04,0.039-0.079,0.078-0.125,0.125c-0.04,0.039-0.079,0.078-0.125,0.125
		c-0.04,0.039-0.079,0.078-0.125,0.125c-0.04,0.039-0.079,0.078-0.125,0.125c-0.04,0.039-0.079,0.078-0.125,0.125
		c-0.04,0.039-0.079,0.078-0.125,0.125c-0.04,0.039-0.079,0.078-0.125,0.125c-0.04,0.039-0.079,0.078-0.125,0.125
		c-0.04,0.039-0.079,0.078-0.125,0.125c-0.04,0.039-0.079,0.078-0.125,0.125c-0.04,0.039-0.079,0.078-0.125,0.125
		c-0.04,0.039-0.079,0.078-0.125,0.125c-0.04,0.039-0.079,0.078-0.125,0.125c-0.04,0.039-0.079,0.078-0.125,0.125
		c-0.04,0.039-0.079,0.078-0.125,0.125c-0.04,0.039-0.079,0.078-0.125,0.125c-0.04,0.039-0.079,0.078-0.125,0.125
		c-0.04,0.039-0.079,0.078-0.125,0.125c-0.04,0.039-0.079,0.078-0.125,0.125c-0.04,0.039-0.079,0.078-0.125,0.125
		c-0.04,0.039-0.079,0.078-0.125,0.125c-0.04,0.039-0.079,0.078-0.125,0.125c-0.04,0.039-0.079,0.078-0.125,0.125
		c-0.04,0.039-0.079,0.078-0.125,0.125c-0.04,0.039-0.079,0.078-0.125,0.125c-0.04,0.039-0.079,0.078-0.125,0.125
		c-0.979,0.951-3.683,4.177-0.422,8.34c1.275,0.77,7.182,3.154,8.926,3.85c3.072,16.243,17.187,18.6,24.459,18.6
		c4.924,0,11.797-1.348,17.167-6.709c0.042-0.041,0.083-0.083,0.125-0.125c0.042-0.041,0.083-0.083,0.125-0.125
		c0.042-0.041,0.083-0.083,0.125-0.125c0.042-0.041,0.083-0.083,0.125-0.125c0.042-0.041,0.083-0.083,0.125-0.125
		c0.042-0.041,0.083-0.083,0.125-0.125c0.042-0.041,0.083-0.083,0.125-0.125c0.042-0.041,0.083-0.083,0.125-0.125
		c0.042-0.041,0.083-0.083,0.125-0.125c0.042-0.041,0.083-0.083,0.125-0.125c0.042-0.041,0.083-0.083,0.125-0.125
		c0.042-0.041,0.083-0.083,0.125-0.125c0.042-0.041,0.083-0.083,0.125-0.125c0.042-0.041,0.083-0.083,0.125-0.125
		c0.042-0.041,0.083-0.083,0.125-0.125c0.042-0.041,0.083-0.083,0.125-0.125c0.042-0.041,0.083-0.083,0.125-0.125
		c0.042-0.041,0.083-0.083,0.125-0.125c0.042-0.041,0.083-0.083,0.125-0.125c0.042-0.041,0.083-0.083,0.125-0.125
		c0.042-0.041,0.083-0.083,0.125-0.125c0.042-0.041,0.083-0.083,0.125-0.125c0.042-0.041,0.083-0.083,0.125-0.125
		c0.042-0.041,0.083-0.083,0.125-0.125c0.042-0.041,0.083-0.083,0.125-0.125c0.042-0.041,0.083-0.083,0.125-0.125
		c0.042-0.041,0.083-0.083,0.125-0.125c0.042-0.041,0.083-0.083,0.125-0.125c0.042-0.041,0.083-0.083,0.125-0.125
		c0.042-0.041,0.083-0.083,0.125-0.125c0.042-0.041,0.083-0.083,0.125-0.125c0.042-0.041,0.083-0.083,0.125-0.125
		c0.042-0.041,0.083-0.083,0.125-0.125c0.042-0.041,0.083-0.083,0.125-0.125c0.042-0.041,0.083-0.083,0.125-0.125
		c0.042-0.041,0.083-0.083,0.125-0.125c0.042-0.041,0.083-0.083,0.125-0.125c0.042-0.041,0.083-0.083,0.125-0.125
		c0.042-0.041,0.083-0.083,0.125-0.125c0.042-0.041,0.083-0.083,0.125-0.125c0.042-0.041,0.083-0.083,0.125-0.125
		c0.042-0.041,0.083-0.083,0.125-0.125c0.042-0.041,0.083-0.083,0.125-0.125c0.042-0.041,0.083-0.083,0.125-0.125
		c0.042-0.041,0.083-0.083,0.125-0.125c0.042-0.041,0.083-0.083,0.125-0.125c0.042-0.041,0.083-0.083,0.125-0.125
		c0.042-0.041,0.083-0.083,0.125-0.125c0.042-0.041,0.083-0.083,0.125-0.125c0.042-0.041,0.083-0.083,0.125-0.125
		c0.042-0.041,0.083-0.083,0.125-0.125c0.042-0.041,0.083-0.083,0.125-0.125c0.042-0.041,0.083-0.083,0.125-0.125
		c0.042-0.041,0.083-0.083,0.125-0.125c0.042-0.041,0.083-0.083,0.125-0.125c0.042-0.041,0.083-0.083,0.125-0.125
		c0.042-0.041,0.083-0.083,0.125-0.125c0.042-0.041,0.083-0.083,0.125-0.125c0.042-0.041,0.083-0.083,0.125-0.125
		c0.042-0.041,0.083-0.083,0.125-0.125c0.042-0.041,0.083-0.083,0.125-0.125c0.042-0.041,0.083-0.083,0.125-0.125
		c0.042-0.041,0.083-0.083,0.125-0.125c0.042-0.041,0.083-0.083,0.125-0.125c0.042-0.041,0.083-0.083,0.125-0.125
		c0.042-0.041,0.083-0.083,0.125-0.125c0.042-0.041,0.083-0.083,0.125-0.125c0.042-0.041,0.083-0.083,0.125-0.125
		c0.042-0.041,0.083-0.083,0.125-0.125c0.042-0.041,0.083-0.083,0.125-0.125c0.042-0.041,0.083-0.083,0.125-0.125
		c0.042-0.041,0.083-0.083,0.125-0.125c0.042-0.041,0.083-0.083,0.125-0.125c0.042-0.041,0.083-0.083,0.125-0.125
		c0.042-0.041,0.083-0.083,0.125-0.125c0.042-0.041,0.083-0.083,0.125-0.125c0.042-0.041,0.083-0.083,0.125-0.125
		c0.042-0.041,0.083-0.083,0.125-0.125c0.042-0.041,0.083-0.083,0.125-0.125c0.042-0.041,0.083-0.083,0.125-0.125
		c0.042-0.041,0.083-0.083,0.125-0.125c0.042-0.041,0.083-0.083,0.125-0.125c0.042-0.041,0.083-0.083,0.125-0.125
		c0.042-0.041,0.083-0.083,0.125-0.125c0.042-0.041,0.083-0.083,0.125-0.125c0.042-0.041,0.083-0.083,0.125-0.125
		c0.042-0.041,0.083-0.083,0.125-0.125c0.042-0.041,0.083-0.083,0.125-0.125c0.042-0.041,0.083-0.083,0.125-0.125
		c0.042-0.041,0.083-0.083,0.125-0.125c0.042-0.041,0.083-0.083,0.125-0.125c0.042-0.041,0.083-0.083,0.125-0.125
		c0.042-0.041,0.083-0.083,0.125-0.125c0.042-0.041,0.083-0.083,0.125-0.125c0.042-0.041,0.083-0.083,0.125-0.125
		c0.042-0.041,0.083-0.083,0.125-0.125c0.042-0.041,0.083-0.083,0.125-0.125c0.042-0.041,0.083-0.083,0.125-0.125
		c0.042-0.041,0.083-0.083,0.125-0.125c0.042-0.041,0.083-0.083,0.125-0.125c0.042-0.041,0.083-0.083,0.125-0.125
		c0.042-0.041,0.083-0.083,0.125-0.125c0.042-0.041,0.083-0.083,0.125-0.125c0.042-0.041,0.083-0.083,0.125-0.125
		c0.042-0.041,0.083-0.083,0.125-0.125c0.042-0.041,0.083-0.083,0.125-0.125c0.042-0.041,0.083-0.083,0.125-0.125
		c0.042-0.041,0.083-0.083,0.125-0.125c0.042-0.041,0.083-0.083,0.125-0.125c0.042-0.041,0.083-0.083,0.125-0.125
		c0.042-0.041,0.083-0.083,0.125-0.125c0.042-0.041,0.083-0.083,0.125-0.125c0.042-0.041,0.083-0.083,0.125-0.125
		c0.042-0.041,0.083-0.083,0.125-0.125c0.042-0.041,0.083-0.083,0.125-0.125c0.042-0.041,0.083-0.083,0.125-0.125
		c0.042-0.041,0.083-0.083,0.125-0.125c0.042-0.041,0.083-0.083,0.125-0.125c0.042-0.041,0.083-0.083,0.125-0.125
		c0.042-0.041,0.083-0.083,0.125-0.125c0.042-0.041,0.083-0.083,0.125-0.125c0.042-0.041,0.083-0.083,0.125-0.125
		c0.042-0.041,0.083-0.083,0.125-0.125c0.042-0.041,0.083-0.083,0.125-0.125c0.042-0.041,0.083-0.083,0.125-0.125
		c0.042-0.041,0.083-0.083,0.125-0.125c0.042-0.041,0.083-0.083,0.125-0.125c0.042-0.041,0.083-0.083,0.125-0.125
		c0.042-0.041,0.083-0.083,0.125-0.125c0.042-0.041,0.083-0.083,0.125-0.125c0.042-0.041,0.083-0.083,0.125-0.125
		c0.042-0.041,0.083-0.083,0.125-0.125c0.042-0.041,0.083-0.083,0.125-0.125c0.042-0.041,0.083-0.083,0.125-0.125
		c0.042-0.041,0.083-0.083,0.125-0.125c0.042-0.041,0.083-0.083,0.125-0.125c0.042-0.041,0.083-0.083,0.125-0.125
		c0.042-0.041,0.083-0.083,0.125-0.125c0.042-0.041,0.083-0.083,0.125-0.125c0.042-0.041,0.083-0.083,0.125-0.125
		c0.042-0.041,0.083-0.083,0.125-0.125c0.042-0.041,0.083-0.083,0.125-0.125c0.042-0.041,0.083-0.083,0.125-0.125
		c0.042-0.041,0.083-0.083,0.125-0.125c0.042-0.041,0.083-0.083,0.125-0.125c0.042-0.041,0.083-0.083,0.125-0.125
		c0.042-0.041,0.083-0.083,0.125-0.125c0.042-0.041,0.083-0.083,0.125-0.125c0.042-0.041,0.083-0.083,0.125-0.125
		c0.042-0.041,0.083-0.083,0.125-0.125c0.042-0.041,0.083-0.083,0.125-0.125c0.042-0.041,0.083-0.083,0.125-0.125
		c0.042-0.041,0.083-0.083,0.125-0.125c0.042-0.041,0.083-0.083,0.125-0.125c0.042-0.041,0.083-0.083,0.125-0.125
		c0.042-0.041,0.083-0.083,0.125-0.125c0.023-0.022,0.045-0.049,0.068-0.071c0.061-0.06,0.122-0.118,0.182-0.179
		c0.042-0.041,0.083-0.083,0.125-0.125c0.042-0.041,0.083-0.083,0.125-0.125c0.042-0.041,0.083-0.083,0.125-0.125
		c0.042-0.041,0.083-0.083,0.125-0.125c0.042-0.041,0.083-0.083,0.125-0.125c0.042-0.041,0.083-0.083,0.125-0.125
		c0.042-0.041,0.083-0.083,0.125-0.125c0.042-0.041,0.083-0.083,0.125-0.125c0.042-0.041,0.083-0.083,0.125-0.125
		c0.042-0.041,0.083-0.083,0.125-0.125c0.042-0.041,0.083-0.083,0.125-0.125c0.042-0.041,0.083-0.083,0.125-0.125
		c0.042-0.041,0.083-0.083,0.125-0.125c0.042-0.041,0.083-0.083,0.125-0.125c0.042-0.041,0.083-0.083,0.125-0.125
		c0.042-0.041,0.083-0.083,0.125-0.125c0.042-0.041,0.083-0.083,0.125-0.125c0.042-0.041,0.083-0.083,0.125-0.125
		c0.042-0.041,0.083-0.083,0.125-0.125c0.042-0.041,0.083-0.083,0.125-0.125c0.042-0.041,0.083-0.083,0.125-0.125
		c0.042-0.041,0.083-0.083,0.125-0.125c0.042-0.041,0.083-0.083,0.125-0.125c0.042-0.041,0.083-0.083,0.125-0.125
		c0.042-0.041,0.083-0.083,0.125-0.125c0.042-0.041,0.083-0.083,0.125-0.125c0.042-0.041,0.083-0.083,0.125-0.125
		c0.042-0.041,0.083-0.083,0.125-0.125c0.042-0.041,0.083-0.083,0.125-0.125c0.042-0.041,0.083-0.083,0.125-0.125
		c0.042-0.041,0.083-0.083,0.125-0.125c0.042-0.041,0.083-0.083,0.125-0.125c0.042-0.041,0.083-0.083,0.125-0.125
		c0.042-0.041,0.083-0.083,0.125-0.125c0.042-0.041,0.083-0.083,0.125-0.125c0.042-0.041,0.083-0.083,0.125-0.125
		c0.042-0.041,0.083-0.083,0.125-0.125c0.042-0.041,0.083-0.083,0.125-0.125c0.042-0.041,0.083-0.083,0.125-0.125
		c0.042-0.041,0.083-0.083,0.125-0.125c0.042-0.041,0.083-0.083,0.125-0.125c0.042-0.041,0.083-0.083,0.125-0.125
		c0.042-0.041,0.083-0.083,0.125-0.125c0.042-0.041,0.083-0.083,0.125-0.125c0.042-0.041,0.083-0.083,0.125-0.125
		c0.042-0.041,0.083-0.083,0.125-0.125c0.042-0.041,0.083-0.083,0.125-0.125c0.042-0.041,0.083-0.083,0.125-0.125
		c0.042-0.041,0.083-0.083,0.125-0.125c0.042-0.041,0.083-0.083,0.125-0.125c0.042-0.041,0.083-0.083,0.125-0.125
		c0.042-0.041,0.083-0.083,0.125-0.125c0.042-0.041,0.083-0.083,0.125-0.125c0.042-0.041,0.083-0.083,0.125-0.125
		c0.042-0.041,0.083-0.083,0.125-0.125c0.042-0.041,0.083-0.083,0.125-0.125c0.042-0.041,0.083-0.083,0.125-0.125
		c0.042-0.041,0.083-0.083,0.125-0.125c0.042-0.041,0.083-0.083,0.125-0.125c0.042-0.041,0.083-0.083,0.125-0.125
		c0.042-0.041,0.083-0.083,0.125-0.125c0.042-0.041,0.083-0.083,0.125-0.125c0.042-0.041,0.083-0.083,0.125-0.125
		c0.042-0.041,0.083-0.083,0.125-0.125c0.042-0.041,0.083-0.083,0.125-0.125c0.042-0.041,0.083-0.083,0.125-0.125
		c0.042-0.041,0.083-0.083,0.125-0.125c0.042-0.041,0.083-0.083,0.125-0.125c0.042-0.041,0.083-0.083,0.125-0.125
		c0.042-0.041,0.083-0.083,0.125-0.125c0.042-0.041,0.083-0.083,0.125-0.125c0.042-0.041,0.083-0.083,0.125-0.125
		c0.042-0.041,0.083-0.083,0.125-0.125c0.042-0.041,0.083-0.083,0.125-0.125c0.042-0.041,0.083-0.083,0.125-0.125
		c0.042-0.041,0.083-0.083,0.125-0.125c0.042-0.041,0.083-0.083,0.125-0.125c0.042-0.041,0.083-0.083,0.125-0.125
		c0.042-0.041,0.083-0.083,0.125-0.125c0.042-0.041,0.083-0.083,0.125-0.125c0.042-0.041,0.083-0.083,0.125-0.125
		c0.042-0.041,0.083-0.083,0.125-0.125c0.042-0.041,0.083-0.083,0.125-0.125c0.042-0.041,0.083-0.083,0.125-0.125
		c0.042-0.041,0.083-0.083,0.125-0.125c0.042-0.041,0.083-0.083,0.125-0.125c0.042-0.041,0.083-0.083,0.125-0.125
		c0.042-0.041,0.083-0.083,0.125-0.125c0.042-0.041,0.083-0.083,0.125-0.125c0.042-0.041,0.083-0.083,0.125-0.125
		c0.042-0.041,0.083-0.083,0.125-0.125c0.042-0.041,0.083-0.083,0.125-0.125c0.042-0.041,0.083-0.083,0.125-0.125
		c0.042-0.041,0.083-0.083,0.125-0.125c0.042-0.041,0.083-0.083,0.125-0.125c0.042-0.041,0.083-0.083,0.125-0.125
		c0.042-0.041,0.083-0.083,0.125-0.125c0.042-0.041,0.083-0.083,0.125-0.125c0.042-0.041,0.083-0.083,0.125-0.125
		c0.042-0.041,0.083-0.083,0.125-0.125c0.042-0.041,0.083-0.083,0.125-0.125c0.042-0.041,0.083-0.083,0.125-0.125
		c0.042-0.041,0.083-0.083,0.125-0.125c0.042-0.041,0.083-0.083,0.125-0.125c0.042-0.041,0.083-0.083,0.125-0.125
		c0.042-0.041,0.083-0.083,0.125-0.125c0.042-0.041,0.083-0.083,0.125-0.125c0.042-0.041,0.083-0.083,0.125-0.125
		c0.042-0.041,0.083-0.083,0.125-0.125c0.042-0.041,0.083-0.083,0.125-0.125c0.042-0.041,0.083-0.083,0.125-0.125
		c0.042-0.041,0.083-0.083,0.125-0.125c0.042-0.041,0.083-0.083,0.125-0.125c0.042-0.041,0.083-0.083,0.125-0.125
		c0.042-0.04,0.082-0.082,0.123-0.122c0.043-0.042,0.085-0.085,0.128-0.128c0.042-0.041,0.083-0.083,0.125-0.125
		c0.042-0.041,0.083-0.083,0.125-0.125c0.042-0.041,0.083-0.083,0.125-0.125c0.042-0.041,0.083-0.083,0.125-0.125
		c0.042-0.041,0.083-0.083,0.125-0.125c0.042-0.041,0.083-0.083,0.125-0.125c0.042-0.041,0.083-0.083,0.125-0.125
		c0.042-0.041,0.083-0.083,0.125-0.125c0.042-0.041,0.083-0.083,0.125-0.125c0.042-0.041,0.083-0.083,0.125-0.125
		c0.042-0.041,0.083-0.083,0.125-0.125c0.042-0.041,0.083-0.083,0.125-0.125c0.042-0.041,0.083-0.083,0.125-0.125
		c0.042-0.041,0.083-0.083,0.125-0.125c0.042-0.041,0.083-0.083,0.125-0.125c0.042-0.041,0.083-0.083,0.125-0.125
		c0.042-0.041,0.083-0.083,0.125-0.125c0.042-0.041,0.083-0.083,0.125-0.125c0.042-0.041,0.083-0.083,0.125-0.125
		c0.042-0.041,0.083-0.083,0.125-0.125c0.042-0.041,0.083-0.083,0.125-0.125c0.042-0.041,0.083-0.083,0.125-0.125
		c0.042-0.041,0.083-0.083,0.125-0.125c0.042-0.041,0.083-0.083,0.125-0.125c0.042-0.041,0.083-0.083,0.125-0.125
		c0.068-0.067,0.136-0.138,0.204-0.207c0.015-0.015,0.03-0.027,0.046-0.043c0.042-0.041,0.083-0.083,0.125-0.125
		c0.042-0.041,0.083-0.083,0.125-0.125c0.042-0.041,0.083-0.083,0.125-0.125c0.042-0.041,0.083-0.083,0.125-0.125
		c0.042-0.041,0.083-0.083,0.125-0.125c0.042-0.041,0.083-0.083,0.125-0.125c0.042-0.041,0.083-0.083,0.125-0.125
		c0.042-0.041,0.083-0.083,0.125-0.125c0.042-0.041,0.083-0.083,0.125-0.125c0.042-0.041,0.083-0.083,0.125-0.125
		c0.042-0.041,0.083-0.083,0.125-0.125c0.042-0.041,0.083-0.083,0.125-0.125c0.042-0.041,0.083-0.083,0.125-0.125
		c0.042-0.041,0.083-0.083,0.125-0.125c0.042-0.041,0.083-0.083,0.125-0.125c0.042-0.041,0.083-0.083,0.125-0.125
		c0.042-0.041,0.083-0.083,0.125-0.125c0.042-0.041,0.083-0.083,0.125-0.125c0.042-0.041,0.083-0.083,0.125-0.125
		c0.042-0.041,0.083-0.083,0.125-0.125c0.042-0.041,0.083-0.083,0.125-0.125c0.042-0.041,0.083-0.083,0.125-0.125
		c0.042-0.041,0.083-0.083,0.125-0.125c0.042-0.041,0.083-0.083,0.125-0.125c0.042-0.041,0.083-0.083,0.125-0.125
		c0.042-0.041,0.083-0.083,0.125-0.125c0.042-0.041,0.083-0.083,0.125-0.125c0.042-0.041,0.083-0.083,0.125-0.125
		c0.042-0.041,0.083-0.083,0.125-0.125c0.042-0.041,0.083-0.083,0.125-0.125c0.042-0.041,0.083-0.083,0.125-0.125
		c0.042-0.041,0.083-0.083,0.125-0.125c0.042-0.041,0.083-0.083,0.125-0.125c0.042-0.041,0.083-0.083,0.125-0.125
		c0.042-0.041,0.083-0.083,0.125-0.125c0.042-0.041,0.083-0.083,0.125-0.125c0.042-0.041,0.083-0.083,0.125-0.125
		c0.042-0.041,0.083-0.083,0.125-0.125c0.042-0.041,0.083-0.083,0.125-0.125c0.042-0.041,0.083-0.083,0.125-0.125
		c0.042-0.041,0.083-0.083,0.125-0.125c0.042-0.041,0.083-0.083,0.125-0.125c0.042-0.041,0.083-0.083,0.125-0.125
		c0.042-0.041,0.083-0.083,0.125-0.125c0.042-0.041,0.083-0.083,0.125-0.125c0.042-0.041,0.083-0.083,0.125-0.125
		c0.042-0.041,0.083-0.083,0.125-0.125c0.042-0.041,0.083-0.083,0.125-0.125c0.042-0.041,0.083-0.083,0.125-0.125
		c0.042-0.041,0.083-0.083,0.125-0.125c0.042-0.041,0.083-0.083,0.125-0.125c0.042-0.041,0.083-0.083,0.125-0.125
		c0.042-0.041,0.083-0.083,0.125-0.125c0.042-0.041,0.083-0.083,0.125-0.125c0.042-0.041,0.083-0.083,0.125-0.125
		c0.042-0.041,0.083-0.083,0.125-0.125c0.042-0.041,0.083-0.083,0.125-0.125c0.042-0.041,0.083-0.083,0.125-0.125
		c0.042-0.041,0.083-0.083,0.125-0.125c0.042-0.041,0.083-0.083,0.125-0.125c0.042-0.041,0.083-0.083,0.125-0.125
		c0.042-0.041,0.083-0.083,0.125-0.125c0.042-0.041,0.083-0.083,0.125-0.125c0.042-0.041,0.083-0.083,0.125-0.125
		c0.042-0.041,0.083-0.083,0.125-0.125c0.042-0.041,0.083-0.083,0.125-0.125c0.042-0.041,0.083-0.083,0.125-0.125
		c0.042-0.041,0.083-0.083,0.125-0.125c0.042-0.041,0.083-0.083,0.125-0.125c0.042-0.041,0.083-0.083,0.125-0.125
		c0.042-0.041,0.083-0.083,0.125-0.125c0.042-0.041,0.083-0.083,0.125-0.125c0.042-0.041,0.083-0.083,0.125-0.125
		c0.042-0.041,0.083-0.083,0.125-0.125c0.042-0.041,0.083-0.083,0.125-0.125c0.042-0.041,0.083-0.083,0.125-0.125
		c0.042-0.041,0.083-0.083,0.125-0.125c0.042-0.041,0.083-0.083,0.125-0.125c0.042-0.041,0.083-0.083,0.125-0.125
		c0.042-0.041,0.083-0.083,0.125-0.125c0.042-0.041,0.083-0.083,0.125-0.125c0.042-0.041,0.083-0.083,0.125-0.125
		c0.042-0.041,0.083-0.083,0.125-0.125c0.042-0.041,0.083-0.083,0.125-0.125c0.042-0.041,0.083-0.083,0.125-0.125
		c0.042-0.041,0.083-0.083,0.125-0.125c0.042-0.041,0.083-0.083,0.125-0.125c0.042-0.041,0.083-0.083,0.125-0.125
		c0.042-0.041,0.083-0.083,0.125-0.125c0.042-0.041,0.083-0.083,0.125-0.125c0.042-0.041,0.083-0.083,0.125-0.125
		c0.042-0.041,0.083-0.083,0.125-0.125c0.042-0.041,0.083-0.083,0.125-0.125c0.042-0.041,0.083-0.083,0.125-0.125
		c0.042-0.041,0.083-0.083,0.125-0.125c0.042-0.041,0.083-0.083,0.125-0.125c0.042-0.041,0.083-0.083,0.125-0.125
		c0.042-0.041,0.083-0.083,0.125-0.125c0.042-0.041,0.083-0.083,0.125-0.125c0.042-0.041,0.083-0.083,0.125-0.125
		c0.042-0.041,0.083-0.083,0.125-0.125c0.042-0.041,0.083-0.083,0.125-0.125c0.042-0.041,0.083-0.083,0.125-0.125
		c0.042-0.041,0.083-0.083,0.125-0.125c0.042-0.041,0.083-0.083,0.125-0.125c0.042-0.041,0.083-0.083,0.125-0.125
		c0.042-0.041,0.083-0.083,0.125-0.125c0.042-0.041,0.083-0.083,0.125-0.125c0.042-0.041,0.083-0.083,0.125-0.125
		c0.042-0.041,0.083-0.083,0.125-0.125c0.042-0.041,0.083-0.083,0.125-0.125c0.042-0.041,0.083-0.083,0.125-0.125
		c0.042-0.041,0.083-0.083,0.125-0.125c0.042-0.041,0.083-0.083,0.125-0.125c0.042-0.041,0.083-0.083,0.125-0.125
		c0.042-0.041,0.083-0.083,0.125-0.125c0.042-0.041,0.083-0.083,0.125-0.125c0.042-0.041,0.083-0.083,0.125-0.125
		c1.234-1.213,2.389-2.639,3.428-4.302c0.016-0.017,0.028-0.034,0.044-0.051c0.01-0.005,0.017-0.008,0.026-0.013
		c0.037-0.037,0.063-0.075,0.099-0.112c0.01-0.005,0.017-0.008,0.026-0.013c0.037-0.037,0.063-0.075,0.099-0.112
		c0.01-0.005,0.017-0.008,0.026-0.013c0.037-0.037,0.063-0.075,0.099-0.112c0.01-0.005,0.017-0.008,0.026-0.013
		c0.037-0.037,0.063-0.075,0.099-0.112c0.01-0.005,0.017-0.008,0.026-0.013c0.037-0.037,0.063-0.075,0.099-0.112
		c0.01-0.005,0.017-0.008,0.026-0.013c0.037-0.037,0.063-0.075,0.099-0.112c0.01-0.005,0.017-0.008,0.026-0.013
		c0.037-0.037,0.063-0.075,0.099-0.112c0.01-0.005,0.017-0.008,0.026-0.013c0.037-0.037,0.063-0.075,0.099-0.112
		c0.01-0.005,0.017-0.008,0.026-0.013c0.037-0.037,0.063-0.075,0.099-0.112c0.01-0.005,0.017-0.008,0.026-0.013
		c0.037-0.037,0.063-0.075,0.099-0.112c0.01-0.005,0.017-0.008,0.026-0.013c0.037-0.037,0.063-0.075,0.099-0.112
		c0.01-0.005,0.017-0.008,0.026-0.013c0.037-0.037,0.063-0.075,0.099-0.112c0.01-0.005,0.017-0.008,0.026-0.013
		c0.037-0.037,0.063-0.075,0.099-0.112c0.01-0.005,0.017-0.008,0.026-0.013c0.037-0.037,0.063-0.075,0.099-0.112
		c0.01-0.005,0.017-0.008,0.026-0.013c0.037-0.037,0.063-0.075,0.099-0.112c0.01-0.005,0.017-0.008,0.026-0.013
		c0.037-0.037,0.063-0.075,0.099-0.112c0.01-0.005,0.017-0.008,0.026-0.013c0.037-0.037,0.063-0.075,0.099-0.112
		c0.01-0.005,0.017-0.008,0.026-0.013c0.037-0.037,0.063-0.075,0.099-0.112c0.01-0.005,0.017-0.008,0.026-0.013
		c0.037-0.037,0.063-0.075,0.099-0.112c0.01-0.005,0.017-0.008,0.026-0.013c0.037-0.037,0.063-0.075,0.099-0.112
		c0.01-0.005,0.017-0.008,0.026-0.013c0.037-0.037,0.063-0.075,0.099-0.112c0.01-0.005,0.017-0.008,0.026-0.013
		c0.037-0.037,0.063-0.075,0.099-0.112c0.01-0.005,0.017-0.008,0.026-0.013c0.037-0.037,0.063-0.075,0.099-0.112
		c0.01-0.005,0.017-0.008,0.026-0.013c0.037-0.037,0.063-0.075,0.099-0.112c0.01-0.005,0.017-0.008,0.026-0.013
		c0.037-0.037,0.063-0.075,0.099-0.112c0.01-0.005,0.017-0.008,0.026-0.013c0.037-0.037,0.063-0.075,0.099-0.112
		c0.01-0.005,0.017-0.008,0.026-0.013c0.037-0.037,0.063-0.075,0.099-0.112c0.01-0.005,0.017-0.008,0.026-0.013
		c0.037-0.037,0.063-0.075,0.099-0.112c0.01-0.005,0.017-0.008,0.026-0.013c0.037-0.037,0.063-0.075,0.099-0.112
		c0.01-0.005,0.017-0.008,0.026-0.013c0.037-0.037,0.063-0.075,0.099-0.112c0.01-0.005,0.017-0.008,0.026-0.013
		c0.037-0.037,0.063-0.075,0.099-0.112c0.01-0.005,0.017-0.008,0.026-0.013c0.037-0.037,0.063-0.075,0.099-0.112
		c0.01-0.005,0.017-0.008,0.026-0.013c0.037-0.037,0.063-0.075,0.099-0.112c0.01-0.005,0.017-0.008,0.026-0.013
		c0.037-0.037,0.063-0.075,0.099-0.112c0.01-0.005,0.017-0.008,0.026-0.013c0.037-0.037,0.063-0.075,0.099-0.112
		c0.01-0.005,0.017-0.008,0.026-0.013c0.037-0.037,0.063-0.075,0.099-0.112c0.01-0.005,0.017-0.008,0.026-0.013
		c0.037-0.037,0.063-0.075,0.099-0.112c0.01-0.005,0.017-0.008,0.026-0.013c0.037-0.037,0.063-0.075,0.099-0.112
		c0.01-0.005,0.017-0.008,0.026-0.013c0.037-0.037,0.063-0.075,0.099-0.112c0.01-0.005,0.017-0.008,0.026-0.013
		c0.037-0.037,0.063-0.075,0.099-0.112c0.01-0.005,0.017-0.008,0.026-0.013c0.037-0.037,0.063-0.075,0.099-0.112
		c0.01-0.005,0.017-0.008,0.026-0.013c0.037-0.037,0.063-0.075,0.099-0.112c0.01-0.005,0.017-0.008,0.026-0.013
		c0.037-0.037,0.063-0.075,0.099-0.112c0.01-0.005,0.017-0.008,0.026-0.013c0.037-0.037,0.063-0.075,0.099-0.112
		c0.01-0.005,0.017-0.008,0.026-0.013c0.037-0.037,0.063-0.075,0.099-0.112c0.01-0.005,0.017-0.008,0.026-0.013
		c0.037-0.037,0.063-0.075,0.099-0.112c0.01-0.005,0.017-0.008,0.026-0.013c0.037-0.037,0.063-0.075,0.099-0.112
		c0.01-0.005,0.017-0.008,0.026-0.013c0.037-0.037,0.063-0.075,0.099-0.112c0.01-0.005,0.017-0.008,0.026-0.013
		c0.037-0.037,0.063-0.075,0.099-0.112c0.01-0.005,0.017-0.008,0.026-0.013c0.037-0.037,0.063-0.075,0.099-0.112
		c0.01-0.005,0.017-0.008,0.026-0.013c0.037-0.037,0.063-0.075,0.099-0.112c0.01-0.005,0.017-0.008,0.026-0.013
		c0.037-0.037,0.063-0.075,0.099-0.112c0.01-0.005,0.017-0.008,0.026-0.013c0.037-0.037,0.063-0.075,0.099-0.112
		c0.01-0.005,0.017-0.008,0.026-0.013c0.037-0.037,0.063-0.075,0.099-0.112c0.01-0.005,0.017-0.008,0.026-0.013
		c0.037-0.037,0.063-0.075,0.099-0.112c0.01-0.005,0.017-0.008,0.026-0.013c0.037-0.037,0.063-0.075,0.099-0.112
		c0.01-0.005,0.017-0.008,0.026-0.013c0.037-0.037,0.063-0.075,0.099-0.112c0.01-0.005,0.017-0.008,0.026-0.013
		c0.037-0.037,0.063-0.075,0.099-0.112c0.01-0.005,0.017-0.008,0.026-0.013c0.037-0.037,0.063-0.075,0.099-0.112
		c0.01-0.005,0.017-0.008,0.026-0.013c0.037-0.037,0.063-0.075,0.099-0.112c0.01-0.005,0.017-0.008,0.026-0.013
		c0.037-0.037,0.063-0.075,0.099-0.112c0.01-0.005,0.017-0.008,0.026-0.013c0.037-0.037,0.063-0.075,0.099-0.112
		c0.01-0.005,0.017-0.008,0.026-0.013c0.037-0.037,0.063-0.075,0.099-0.112c0.01-0.005,0.017-0.008,0.026-0.013
		c0.037-0.037,0.063-0.075,0.099-0.112c0.01-0.005,0.017-0.008,0.026-0.013c0.037-0.037,0.063-0.075,0.099-0.112
		c0.01-0.005,0.017-0.008,0.026-0.013c0.037-0.037,0.063-0.075,0.099-0.112c0.01-0.005,0.017-0.008,0.026-0.013
		c0.037-0.037,0.063-0.075,0.099-0.112c0.01-0.005,0.017-0.008,0.026-0.013c0.037-0.037,0.063-0.075,0.099-0.112
		c0.01-0.005,0.017-0.008,0.026-0.013c0.037-0.037,0.063-0.075,0.099-0.112c0.01-0.005,0.017-0.008,0.026-0.013
		c0.037-0.037,0.063-0.075,0.099-0.112c0.01-0.005,0.017-0.008,0.026-0.013c0.037-0.037,0.063-0.075,0.099-0.112
		c0.01-0.005,0.017-0.008,0.026-0.013c0.037-0.037,0.063-0.075,0.099-0.112c0.01-0.005,0.017-0.008,0.026-0.013
		c0.037-0.037,0.063-0.075,0.099-0.112c0.01-0.005,0.017-0.008,0.026-0.013c0.037-0.037,0.063-0.075,0.099-0.112
		c0.01-0.005,0.017-0.008,0.026-0.013c0.037-0.037,0.063-0.075,0.099-0.112c0.01-0.005,0.017-0.008,0.026-0.013
		c0.037-0.037,0.063-0.075,0.099-0.112c0.01-0.005,0.017-0.008,0.026-0.013c0.037-0.037,0.063-0.075,0.099-0.112
		c0.01-0.005,0.017-0.008,0.026-0.013c0.037-0.037,0.063-0.075,0.099-0.112c0.01-0.005,0.017-0.008,0.026-0.013
		c0.037-0.037,0.063-0.075,0.099-0.112c0.01-0.005,0.017-0.008,0.026-0.013c0.037-0.037,0.063-0.075,0.099-0.112
		c0.01-0.005,0.017-0.008,0.026-0.013c0.037-0.037,0.063-0.075,0.099-0.112c0.01-0.005,0.017-0.008,0.026-0.013
		c0.037-0.037,0.063-0.075,0.099-0.112c0.01-0.005,0.017-0.008,0.026-0.013c0.037-0.037,0.063-0.075,0.099-0.112
		c0.01-0.005,0.017-0.008,0.026-0.013c0.037-0.037,0.063-0.075,0.099-0.112c0.01-0.005,0.017-0.008,0.026-0.013
		c0.037-0.037,0.063-0.075,0.099-0.112c0.01-0.005,0.017-0.008,0.026-0.013c0.037-0.037,0.063-0.075,0.099-0.112
		c0.01-0.005,0.017-0.008,0.026-0.013c0.037-0.037,0.063-0.075,0.099-0.112c0.01-0.005,0.017-0.008,0.026-0.013
		c0.037-0.037,0.063-0.075,0.099-0.112c0.01-0.005,0.017-0.008,0.026-0.013c0.037-0.037,0.063-0.075,0.099-0.112
		c0.01-0.005,0.017-0.008,0.026-0.013c0.037-0.037,0.063-0.075,0.099-0.112c0.01-0.005,0.017-0.008,0.026-0.013
		c0.037-0.037,0.063-0.075,0.099-0.112c0.01-0.005,0.017-0.008,0.026-0.013c0.037-0.037,0.063-0.075,0.099-0.112
		c0.01-0.005,0.017-0.008,0.026-0.013C99.979,70.923,96.375,66.51,95.383,66.305z"/>
</g>
<g>
	<path fill="#FFFFFF" d="M68.402,45.325c0.236,0.214,0.532,0.319,0.828,0.319c0.336,0,0.671-0.137,0.914-0.406
		c0.457-0.505,0.418-1.285-0.086-1.742c-3.72-3.367-2.399-5.204-0.213-8.248c2.137-2.972,5.063-7.041,0.34-12.828
		c-0.431-0.528-1.207-0.606-1.734-0.176s-0.607,1.207-0.176,1.735c3.527,4.323,1.692,6.875-0.432,9.83
		C65.709,36.781,63.051,40.479,68.402,45.325z"/>
	<path fill="#FFFFFF" d="M59.277,45.325c0.236,0.214,0.532,0.319,0.827,0.319c0.336,0,0.671-0.137,0.915-0.406
		c0.457-0.505,0.419-1.285-0.086-1.742c-3.719-3.367-2.399-5.204-0.212-8.248c2.136-2.972,5.061-7.041,0.339-12.828
		c-0.431-0.528-1.207-0.606-1.735-0.176s-0.607,1.207-0.176,1.735c3.527,4.323,1.693,6.875-0.431,9.83
		C56.583,36.781,53.925,40.479,59.277,45.325z"/>
	<path fill="#FFFFFF" d="M50.152,45.325c0.236,0.214,0.532,0.319,0.827,0.319c0.336,0,0.671-0.137,0.915-0.406
		c0.457-0.505,0.418-1.285-0.087-1.742c-3.719-3.367-2.399-5.204-0.211-8.248c2.136-2.972,5.061-7.041,0.339-12.828
		c-0.43-0.528-1.208-0.606-1.735-0.176c-0.528,0.431-0.606,1.207-0.176,1.735c3.527,4.323,1.693,6.875-0.431,9.83
		C47.458,36.781,44.8,40.479,50.152,45.325z"/>
	<path fill="#FFFFFF" d="M95.383,66.305c-0.955,0-4.723,0.031-7.214,0.031c0-2.678-4.234-5.262-4.234-5.262l-3.611,4.39
		c0,0,4.192,2.325,2.272,4.245c-2.875,2.875-12.828,4.473-19.197,4.473c-6.894,0-19.411-2.476-19.411-5.666
		c0-6.168,22.5-6.197,22.5-6.197l2.995-5.147c0,0-23.659-2.792-30.882,8.853c-1.77,0.158-7.317,0.28-7.317,0.28
		s-4.65,3.652-0.748,8.635c1.275,0.77,7.182,3.154,8.926,3.85c3.072,16.243,17.187,18.6,24.459,18.6
		c7.468,0,19.422-3.094,23.812-18.6c1.953-1.158,4.11-1.773,8.229-3.85C99.979,70.923,96.375,66.51,95.383,66.305z"/>
	<path fill="#FFFFFF" d="M73.006,67.986c3.279-3.612,16.232-17.873,19.927-21.276c4.887-3.321,6.261-4.562,5.868-7.514
		c-0.347-2.615-1.538-4.5-7.301-3.715c-5.152,5.232-19.786,20.225-23.476,32.069C68.813,68.671,71.842,68.443,73.006,67.986z"/>
</g>
</svg>
