<?xml version="1.0" encoding="utf-8"?>
<!-- Generator: Adobe Illustrator 16.0.3, SVG Export Plug-In . SVG Version: 6.00 Build 0)  -->
<!DOCTYPE svg PUBLIC "-//W3C//DTD SVG 1.1//EN" "http://www.w3.org/Graphics/SVG/1.1/DTD/svg11.dtd">
<svg version="1.1" id="Layer_1" xmlns="http://www.w3.org/2000/svg" xmlns:xlink="http://www.w3.org/1999/xlink" x="0px" y="0px"
	 width="128px" height="128px" viewBox="0 0 128 128" enable-background="new 0 0 128 128" xml:space="preserve">
<path fill="#444953" class="bg" d="M128,25c0-13.807-11.193-25-25-25H25C11.193,0,0,11.193,0,25v78c0,13.807,11.193,25,25,25h78
	c13.807,0,25-11.193,25-25V25z"/>
<g>
	<g>
		<defs>
			<path id="SVGID_1_" d="M128,25c0-13.807-11.193-25-25-25H25C11.193,0,0,11.193,0,25v78c0,13.807,11.193,25,25,25h78
				c13.807,0,25-11.193,25-25V25z"/>
		</defs>
		<clipPath id="SVGID_2_">
			<use xlink:href="#SVGID_1_"  overflow="visible"/>
		</clipPath>
		<path clip-path="url(#SVGID_2_)" fill="#353A42" class="shadow" enable-background="new    " d="M89.723,49.264
			c0.021-0.035,0.039-0.07,0.061-0.104c0.021-0.008,0.043-0.012,0.064-0.021c0.021-0.035,0.039-0.07,0.061-0.104
			c0.021-0.008,0.043-0.012,0.064-0.021c0.021-0.035,0.039-0.07,0.061-0.104c0.021-0.008,0.043-0.012,0.064-0.021
			c0.021-0.035,0.039-0.07,0.061-0.104c0.021-0.008,0.043-0.012,0.064-0.021c0.021-0.035,0.039-0.07,0.061-0.104
			c0.021-0.008,0.043-0.012,0.064-0.021c0.021-0.035,0.039-0.07,0.061-0.104c0.021-0.008,0.043-0.012,0.064-0.021
			c0.021-0.035,0.039-0.07,0.061-0.104c0.021-0.008,0.043-0.012,0.064-0.021c0.021-0.035,0.039-0.07,0.061-0.104
			c0.021-0.008,0.043-0.012,0.064-0.021c0.021-0.035,0.039-0.07,0.061-0.104c0.021-0.008,0.043-0.012,0.064-0.021
			c0.021-0.035,0.039-0.07,0.061-0.104c0.021-0.008,0.043-0.012,0.064-0.021c0.021-0.035,0.039-0.07,0.061-0.104
			c0.021-0.008,0.043-0.012,0.064-0.021c0.021-0.035,0.039-0.07,0.061-0.104c0.021-0.008,0.043-0.012,0.064-0.021
			c0.021-0.035,0.039-0.07,0.061-0.104c0.021-0.008,0.043-0.012,0.064-0.021c0.021-0.035,0.039-0.07,0.061-0.104
			c0.021-0.008,0.043-0.012,0.064-0.021c0.021-0.035,0.039-0.07,0.061-0.104c0.021-0.008,0.043-0.012,0.064-0.021
			c0.021-0.035,0.039-0.07,0.061-0.104c0.021-0.008,0.043-0.012,0.064-0.021c0.021-0.035,0.039-0.07,0.061-0.104
			c0.021-0.008,0.043-0.012,0.064-0.021c1.489-2.582,2.688-4.656,5.375-9.311c2.547-4.413-5.418-10.887-8.279-12.54
			c-2.697-1.558-11.371-4.894-14.489-1.571c-0.043,0.041-0.085,0.082-0.125,0.125c-0.043,0.041-0.085,0.082-0.125,0.125
			c-0.043,0.041-0.085,0.082-0.125,0.125c-0.043,0.041-0.085,0.082-0.125,0.125c-0.043,0.041-0.085,0.082-0.125,0.125
			c-0.043,0.041-0.085,0.082-0.125,0.125c-0.043,0.041-0.085,0.082-0.125,0.125c-0.043,0.041-0.085,0.082-0.125,0.125
			c-0.043,0.041-0.085,0.082-0.125,0.125c-0.043,0.041-0.085,0.082-0.125,0.125c-0.043,0.041-0.085,0.082-0.125,0.125
			c-0.043,0.041-0.085,0.082-0.125,0.125c-0.043,0.041-0.085,0.082-0.125,0.125c-0.043,0.041-0.085,0.082-0.125,0.125
			c-0.043,0.041-0.085,0.082-0.125,0.125c-0.043,0.041-0.085,0.082-0.125,0.125c-0.043,0.041-0.085,0.082-0.125,0.125
			c-0.043,0.041-0.085,0.082-0.125,0.125c-0.043,0.041-0.085,0.082-0.125,0.125c-0.043,0.041-0.085,0.082-0.125,0.125
			c-0.043,0.041-0.085,0.082-0.125,0.125c-0.043,0.041-0.085,0.082-0.125,0.125c-0.043,0.041-0.085,0.082-0.125,0.125
			c-0.043,0.041-0.085,0.082-0.125,0.125c-0.043,0.041-0.085,0.082-0.125,0.125c-0.043,0.041-0.085,0.082-0.125,0.125
			c-0.043,0.041-0.085,0.082-0.125,0.125c-0.043,0.041-0.085,0.082-0.125,0.125c-0.043,0.041-0.085,0.082-0.125,0.125
			c-0.043,0.041-0.085,0.082-0.125,0.125c-0.043,0.041-0.085,0.082-0.125,0.125c-0.043,0.041-0.085,0.082-0.125,0.125
			c-0.043,0.041-0.085,0.082-0.125,0.125c-0.043,0.041-0.085,0.082-0.125,0.125c-0.043,0.041-0.085,0.082-0.125,0.125
			c-0.043,0.041-0.085,0.082-0.125,0.125c-0.043,0.041-0.085,0.082-0.125,0.125c-0.043,0.041-0.085,0.082-0.125,0.125
			c-0.043,0.041-0.085,0.082-0.125,0.125c-0.043,0.041-0.085,0.082-0.125,0.125c-0.043,0.041-0.085,0.082-0.125,0.125
			c-0.043,0.041-0.085,0.082-0.125,0.125c-0.043,0.041-0.085,0.082-0.125,0.125c-0.043,0.041-0.085,0.082-0.125,0.125
			c-0.043,0.041-0.085,0.082-0.125,0.125c-0.043,0.041-0.085,0.082-0.125,0.125c-0.043,0.041-0.085,0.082-0.125,0.125
			c-0.043,0.041-0.085,0.082-0.125,0.125c-0.043,0.041-0.085,0.082-0.125,0.125c-0.043,0.041-0.085,0.082-0.125,0.125
			c-0.043,0.041-0.085,0.082-0.125,0.125c-0.043,0.041-0.085,0.082-0.125,0.125c-0.043,0.041-0.085,0.082-0.125,0.125
			c-0.043,0.041-0.085,0.082-0.125,0.125c-0.043,0.041-0.085,0.082-0.125,0.125c-0.043,0.041-0.085,0.082-0.125,0.125
			c-0.043,0.041-0.085,0.082-0.125,0.125c-0.043,0.041-0.085,0.082-0.125,0.125c-0.043,0.041-0.085,0.082-0.125,0.125
			c-0.043,0.041-0.085,0.082-0.125,0.125c-0.043,0.041-0.085,0.082-0.125,0.125c-0.043,0.041-0.085,0.082-0.125,0.125
			c-0.043,0.041-0.085,0.082-0.125,0.125c-0.043,0.041-0.085,0.082-0.125,0.125c-0.043,0.041-0.085,0.082-0.125,0.125
			c-0.043,0.041-0.085,0.082-0.125,0.125c-0.043,0.041-0.085,0.082-0.125,0.125c-0.043,0.041-0.085,0.082-0.125,0.125
			c-0.043,0.041-0.085,0.082-0.125,0.125c-0.043,0.041-0.085,0.082-0.125,0.125c-0.043,0.041-0.085,0.082-0.125,0.125
			c-0.043,0.041-0.085,0.082-0.125,0.125c-0.043,0.041-0.085,0.082-0.125,0.125c-0.043,0.041-0.085,0.082-0.125,0.125
			c-0.043,0.041-0.085,0.082-0.125,0.125c-0.043,0.041-0.084,0.082-0.125,0.125c-0.042,0.041-0.084,0.082-0.125,0.125
			c-0.042,0.041-0.084,0.082-0.125,0.125c-0.042,0.041-0.084,0.082-0.125,0.125c-0.042,0.041-0.084,0.082-0.125,0.125
			c-0.042,0.041-0.084,0.082-0.125,0.125c-0.042,0.041-0.084,0.082-0.125,0.125c-0.042,0.041-0.084,0.082-0.125,0.125
			c-0.042,0.041-0.084,0.082-0.125,0.125c-0.042,0.041-0.084,0.082-0.125,0.125c-0.042,0.041-0.084,0.082-0.125,0.125
			c-0.042,0.041-0.084,0.082-0.125,0.125c-0.042,0.041-0.084,0.082-0.125,0.125c-0.042,0.041-0.084,0.082-0.125,0.125
			c-0.042,0.041-0.084,0.082-0.125,0.125c-0.042,0.041-0.084,0.082-0.125,0.125c-0.042,0.041-0.084,0.082-0.125,0.125
			c-0.042,0.041-0.084,0.082-0.125,0.125c-0.042,0.041-0.084,0.082-0.125,0.125c-0.042,0.041-0.084,0.082-0.125,0.125
			c-0.042,0.041-0.084,0.082-0.125,0.125c-0.042,0.041-0.084,0.082-0.125,0.125c-0.042,0.041-0.084,0.082-0.125,0.125
			c-0.042,0.041-0.084,0.082-0.125,0.125c-0.042,0.041-0.084,0.082-0.125,0.125c-0.042,0.041-0.084,0.082-0.125,0.125
			c-0.042,0.041-0.084,0.082-0.125,0.125c-0.042,0.041-0.084,0.082-0.125,0.125c-0.042,0.041-0.084,0.082-0.125,0.125
			c-0.042,0.041-0.084,0.082-0.125,0.125c-0.042,0.041-0.084,0.082-0.125,0.125c-0.042,0.041-0.084,0.082-0.125,0.125
			c-0.042,0.041-0.084,0.082-0.125,0.125c-0.042,0.041-0.084,0.082-0.125,0.125c-0.042,0.041-0.084,0.082-0.125,0.125
			c-0.042,0.041-0.084,0.082-0.125,0.125c-0.042,0.041-0.084,0.082-0.125,0.125c-0.042,0.041-0.084,0.082-0.125,0.125
			c-0.042,0.041-0.084,0.082-0.125,0.125c-0.042,0.041-0.084,0.082-0.125,0.125c-0.042,0.041-0.084,0.082-0.125,0.125
			c-0.042,0.041-0.084,0.082-0.125,0.125c-0.042,0.041-0.084,0.082-0.125,0.125c-0.042,0.041-0.084,0.082-0.125,0.125
			c-0.042,0.041-0.084,0.082-0.125,0.125c-0.042,0.041-0.084,0.082-0.125,0.125c-0.042,0.041-0.084,0.082-0.125,0.125
			c-0.042,0.041-0.084,0.082-0.125,0.125c-0.042,0.041-0.084,0.082-0.125,0.125c-0.042,0.041-0.084,0.082-0.125,0.125
			c-0.042,0.041-0.084,0.082-0.125,0.125c-0.042,0.041-0.084,0.082-0.125,0.125c-0.042,0.041-0.084,0.082-0.125,0.125
			c-0.042,0.041-0.084,0.082-0.125,0.125c-0.042,0.041-0.084,0.082-0.125,0.125c-0.042,0.041-0.084,0.082-0.125,0.125
			c-0.042,0.041-0.084,0.082-0.125,0.125c-0.042,0.041-0.084,0.082-0.125,0.125c-0.042,0.041-0.084,0.082-0.125,0.125
			c-0.042,0.041-0.084,0.082-0.125,0.125c-0.042,0.041-0.084,0.082-0.125,0.125c-0.042,0.041-0.084,0.082-0.125,0.125
			c-0.042,0.041-0.084,0.082-0.125,0.125c-0.042,0.041-0.084,0.082-0.125,0.125c-0.042,0.041-0.084,0.082-0.125,0.125
			c-0.042,0.041-0.084,0.082-0.125,0.125c-0.042,0.041-0.084,0.082-0.125,0.125c-0.042,0.041-0.084,0.082-0.125,0.125
			c-0.042,0.041-0.084,0.082-0.125,0.125c-0.042,0.041-0.084,0.082-0.125,0.125c-0.042,0.041-0.084,0.082-0.125,0.125
			c-0.042,0.041-0.084,0.082-0.125,0.125c-0.042,0.041-0.084,0.082-0.125,0.125c-0.042,0.041-0.084,0.082-0.125,0.125
			c-0.042,0.041-0.084,0.082-0.125,0.125c-0.042,0.041-0.084,0.082-0.125,0.125c-0.042,0.041-0.084,0.082-0.125,0.125
			c-0.042,0.041-0.084,0.082-0.125,0.125c-0.03,0.029-0.057,0.063-0.086,0.094c-0.055,0.052-0.112,0.101-0.164,0.156
			c-0.042,0.041-0.084,0.082-0.125,0.125c-0.042,0.041-0.084,0.082-0.125,0.125c-0.042,0.041-0.084,0.082-0.125,0.125
			c-0.042,0.041-0.084,0.082-0.125,0.125c-0.042,0.041-0.084,0.082-0.125,0.125c-0.042,0.041-0.084,0.082-0.125,0.125
			c-0.042,0.041-0.084,0.082-0.125,0.125c-0.042,0.041-0.084,0.082-0.125,0.125c-0.042,0.041-0.084,0.082-0.125,0.125
			c-0.042,0.041-0.084,0.082-0.125,0.125c-0.042,0.041-0.084,0.082-0.125,0.125c-0.042,0.041-0.084,0.082-0.125,0.125
			c-0.042,0.041-0.084,0.082-0.125,0.125c-0.042,0.041-0.084,0.082-0.125,0.125c-0.042,0.041-0.084,0.082-0.125,0.125
			c-0.042,0.041-0.084,0.082-0.125,0.125c-0.042,0.041-0.084,0.082-0.125,0.125c-0.042,0.041-0.084,0.082-0.125,0.125
			c-0.042,0.041-0.084,0.082-0.125,0.125c-0.042,0.041-0.084,0.082-0.125,0.125c-0.042,0.041-0.084,0.082-0.125,0.125
			c-0.042,0.041-0.084,0.082-0.125,0.125c-0.042,0.041-0.084,0.082-0.125,0.125c-0.042,0.041-0.084,0.082-0.125,0.125
			c-0.042,0.041-0.084,0.082-0.125,0.125c-0.042,0.041-0.084,0.082-0.125,0.125c-0.042,0.041-0.084,0.082-0.125,0.125
			c-0.042,0.041-0.084,0.082-0.125,0.125c-0.042,0.041-0.084,0.082-0.125,0.125c-0.042,0.041-0.084,0.082-0.125,0.125
			c-0.042,0.041-0.084,0.082-0.125,0.125c-0.042,0.041-0.084,0.082-0.125,0.125c-0.042,0.041-0.084,0.082-0.125,0.125
			c-0.042,0.041-0.084,0.082-0.125,0.125c-0.042,0.041-0.084,0.082-0.125,0.125c-0.042,0.041-0.084,0.082-0.125,0.125
			c-0.042,0.041-0.084,0.082-0.125,0.125c-0.042,0.041-0.084,0.082-0.125,0.125c-0.042,0.041-0.084,0.082-0.125,0.125
			c-0.042,0.041-0.084,0.082-0.125,0.125c-0.042,0.041-0.084,0.082-0.125,0.125c-0.042,0.041-0.084,0.082-0.125,0.125
			c-0.042,0.041-0.084,0.082-0.125,0.125c-0.042,0.041-0.084,0.082-0.125,0.125c-0.042,0.041-0.084,0.082-0.125,0.125
			c-0.042,0.041-0.084,0.082-0.125,0.125c-0.042,0.041-0.084,0.082-0.125,0.125c-0.042,0.041-0.084,0.082-0.125,0.125
			c-0.042,0.041-0.084,0.082-0.125,0.125c-0.042,0.041-0.084,0.082-0.125,0.125c-0.042,0.041-0.084,0.082-0.125,0.125
			c-0.042,0.041-0.084,0.082-0.125,0.125c-0.042,0.041-0.084,0.082-0.125,0.125c-0.042,0.041-0.084,0.082-0.125,0.125
			c-0.042,0.041-0.084,0.082-0.125,0.125c-0.042,0.041-0.084,0.082-0.125,0.125c-0.042,0.041-0.084,0.082-0.125,0.125
			c-0.042,0.041-0.084,0.082-0.125,0.125c-0.042,0.041-0.084,0.082-0.125,0.125c-0.042,0.041-0.084,0.082-0.125,0.125
			c-0.042,0.041-0.084,0.082-0.125,0.125c-0.042,0.041-0.084,0.082-0.125,0.125c-0.042,0.041-0.084,0.082-0.125,0.125
			c-0.042,0.041-0.084,0.082-0.125,0.125c-0.042,0.041-0.084,0.082-0.125,0.125c-0.042,0.041-0.084,0.082-0.125,0.125
			c-0.042,0.041-0.084,0.082-0.125,0.125c-0.042,0.041-0.084,0.082-0.125,0.125c-0.042,0.041-0.084,0.082-0.125,0.125
			c-0.042,0.041-0.084,0.082-0.125,0.125c-0.042,0.041-0.084,0.082-0.125,0.125c-0.042,0.041-0.084,0.082-0.125,0.125
			c-0.042,0.041-0.084,0.082-0.125,0.125c-0.042,0.041-0.084,0.082-0.125,0.125c-0.042,0.041-0.084,0.082-0.125,0.125
			c-0.042,0.041-0.084,0.082-0.125,0.125c-0.042,0.041-0.084,0.082-0.125,0.125c-0.042,0.041-0.084,0.082-0.125,0.125
			c-0.042,0.041-0.084,0.082-0.125,0.125c-0.042,0.041-0.084,0.082-0.125,0.125c-0.042,0.041-0.084,0.082-0.125,0.125
			c-0.042,0.041-0.084,0.082-0.125,0.125c-0.042,0.041-0.084,0.082-0.125,0.125c-0.042,0.041-0.084,0.082-0.125,0.125
			c-0.042,0.041-0.084,0.082-0.125,0.125c-0.042,0.041-0.084,0.082-0.125,0.125c-0.042,0.041-0.084,0.082-0.125,0.125
			c-0.042,0.041-0.084,0.082-0.125,0.125c-0.042,0.041-0.084,0.082-0.125,0.125c-0.042,0.041-0.084,0.082-0.125,0.125
			c-0.042,0.041-0.084,0.082-0.125,0.125c-0.042,0.041-0.084,0.082-0.125,0.125c-0.042,0.041-0.084,0.082-0.125,0.125
			c-0.042,0.041-0.084,0.082-0.125,0.125c-0.042,0.041-0.084,0.082-0.125,0.125c-0.042,0.041-0.084,0.082-0.125,0.125
			c-0.042,0.041-0.084,0.082-0.125,0.125c-0.042,0.041-0.084,0.082-0.125,0.125c-0.042,0.041-0.084,0.082-0.125,0.125
			c-0.042,0.041-0.084,0.082-0.125,0.125c-0.042,0.041-0.084,0.082-0.125,0.125c-0.042,0.041-0.084,0.082-0.125,0.125
			c-0.042,0.041-0.084,0.082-0.125,0.125c-0.042,0.041-0.084,0.082-0.125,0.125c-0.042,0.041-0.084,0.082-0.125,0.125
			c-0.042,0.041-0.084,0.082-0.125,0.125c-0.042,0.041-0.084,0.082-0.125,0.125c-0.042,0.041-0.084,0.082-0.125,0.125
			c-0.042,0.041-0.084,0.082-0.125,0.125c-0.042,0.041-0.084,0.082-0.125,0.125c-0.042,0.041-0.084,0.082-0.125,0.125
			c-0.042,0.041-0.084,0.082-0.125,0.125c-0.042,0.041-0.084,0.082-0.125,0.125c-0.042,0.041-0.084,0.082-0.125,0.125
			c-0.042,0.041-0.084,0.082-0.125,0.125c-0.042,0.041-0.084,0.082-0.125,0.125c-0.042,0.041-0.084,0.082-0.125,0.125
			c-0.042,0.041-0.084,0.082-0.125,0.125c-0.042,0.041-0.084,0.082-0.125,0.125c-0.042,0.041-0.084,0.082-0.125,0.125
			c-0.042,0.041-0.084,0.082-0.125,0.125c-0.042,0.041-0.084,0.082-0.125,0.125c-0.042,0.041-0.084,0.082-0.125,0.125
			c-0.042,0.041-0.084,0.082-0.125,0.125c-0.042,0.041-0.084,0.082-0.125,0.125c-0.042,0.041-0.084,0.082-0.125,0.125
			c-0.042,0.041-0.084,0.082-0.125,0.125c-0.042,0.041-0.084,0.082-0.125,0.125c-0.042,0.041-0.084,0.082-0.125,0.125
			c-0.042,0.041-0.084,0.082-0.125,0.125c-0.042,0.041-0.084,0.082-0.125,0.125c-0.042,0.041-0.084,0.082-0.125,0.125
			c-0.042,0.041-0.084,0.082-0.125,0.125c-0.042,0.041-0.084,0.082-0.125,0.125c-0.042,0.041-0.084,0.082-0.125,0.125
			c-0.042,0.041-0.084,0.082-0.125,0.125c-0.042,0.041-0.084,0.082-0.125,0.125c-0.042,0.041-0.084,0.082-0.125,0.125
			c-0.042,0.041-0.084,0.082-0.125,0.125c-0.042,0.041-0.084,0.082-0.125,0.125c-0.042,0.041-0.084,0.082-0.125,0.125
			c-0.042,0.041-0.084,0.082-0.125,0.125c-0.042,0.041-0.084,0.082-0.125,0.125c-0.042,0.041-0.084,0.082-0.125,0.125
			c-0.042,0.041-0.084,0.082-0.125,0.125c-0.042,0.041-0.084,0.082-0.125,0.125c-0.042,0.041-0.084,0.082-0.125,0.125
			c-0.042,0.041-0.084,0.082-0.125,0.125c-0.042,0.041-0.084,0.082-0.125,0.125c-0.042,0.041-0.084,0.082-0.125,0.125
			c-0.042,0.041-0.084,0.082-0.125,0.125c-0.042,0.041-0.084,0.082-0.125,0.125c-0.042,0.041-0.084,0.082-0.125,0.125
			c-0.042,0.041-0.084,0.082-0.125,0.125c-0.042,0.041-0.084,0.082-0.125,0.125c-0.042,0.041-0.084,0.082-0.125,0.125
			c-0.042,0.041-0.084,0.082-0.125,0.125c-0.042,0.041-0.084,0.082-0.125,0.125c-0.042,0.041-0.084,0.082-0.125,0.125
			c-0.042,0.041-0.084,0.082-0.125,0.125c-0.042,0.041-0.084,0.082-0.125,0.125c-0.042,0.041-0.084,0.082-0.125,0.125
			c-0.042,0.041-0.084,0.082-0.125,0.125c-0.042,0.041-0.084,0.082-0.125,0.125c-0.042,0.041-0.084,0.082-0.125,0.125
			c-0.042,0.041-0.084,0.082-0.125,0.125c-0.042,0.041-0.084,0.082-0.125,0.125c-0.042,0.041-0.084,0.082-0.125,0.125
			c-0.043,0.041-0.085,0.083-0.126,0.126c-0.042,0.041-0.084,0.082-0.124,0.124c-0.042,0.041-0.084,0.082-0.125,0.125
			c-0.042,0.041-0.084,0.082-0.125,0.125c-0.042,0.041-0.084,0.082-0.125,0.125c-0.042,0.041-0.084,0.082-0.125,0.125
			c-0.042,0.041-0.084,0.082-0.125,0.125c-0.042,0.041-0.084,0.082-0.125,0.125c-0.042,0.041-0.084,0.082-0.125,0.125
			c-0.042,0.041-0.084,0.082-0.125,0.125c-0.042,0.041-0.084,0.082-0.125,0.125c-0.042,0.041-0.084,0.082-0.125,0.125
			c-0.042,0.041-0.084,0.082-0.125,0.125c-0.042,0.041-0.084,0.082-0.125,0.125c-0.042,0.041-0.084,0.082-0.125,0.125
			c-0.042,0.041-0.084,0.082-0.125,0.125c-0.042,0.041-0.084,0.082-0.125,0.125c-0.042,0.041-0.084,0.082-0.125,0.125
			c-0.042,0.041-0.084,0.082-0.125,0.125c-0.042,0.041-0.084,0.082-0.125,0.125c-0.042,0.041-0.084,0.082-0.125,0.125
			c-0.042,0.041-0.084,0.082-0.125,0.125c-0.042,0.041-0.084,0.082-0.125,0.125c-0.042,0.041-0.084,0.082-0.125,0.125
			c-0.042,0.041-0.084,0.082-0.125,0.125c-0.042,0.041-0.084,0.082-0.125,0.125c-0.042,0.041-0.084,0.082-0.125,0.125
			c-0.042,0.041-0.084,0.082-0.125,0.125c-0.042,0.041-0.084,0.082-0.125,0.125c-0.042,0.041-0.084,0.082-0.125,0.125
			c-0.042,0.041-0.084,0.082-0.125,0.125c-0.042,0.041-0.084,0.082-0.125,0.125c-0.042,0.041-0.084,0.082-0.125,0.125
			c-0.042,0.041-0.084,0.082-0.125,0.125c-0.042,0.041-0.084,0.082-0.125,0.125c-0.042,0.041-0.084,0.082-0.125,0.125
			c-0.042,0.041-0.084,0.082-0.125,0.125c-0.042,0.041-0.084,0.082-0.125,0.125c-0.042,0.041-0.084,0.082-0.125,0.125
			c-0.042,0.041-0.084,0.082-0.125,0.125c-0.042,0.041-0.084,0.082-0.125,0.125c-0.042,0.041-0.084,0.082-0.125,0.125
			c-0.042,0.041-0.084,0.082-0.125,0.125c-0.042,0.041-0.084,0.082-0.125,0.125c-0.042,0.041-0.084,0.082-0.125,0.125
			c-0.042,0.041-0.084,0.082-0.125,0.125c-0.042,0.041-0.084,0.082-0.125,0.125c-0.042,0.041-0.084,0.082-0.125,0.125
			c-0.042,0.041-0.084,0.082-0.125,0.125c-0.042,0.041-0.084,0.082-0.125,0.125c-0.042,0.041-0.084,0.082-0.125,0.125
			c-0.042,0.041-0.084,0.082-0.125,0.125c-0.042,0.041-0.084,0.082-0.125,0.125c-0.042,0.041-0.084,0.082-0.125,0.125
			c-0.042,0.041-0.084,0.082-0.125,0.125c-0.042,0.041-0.084,0.082-0.125,0.125c-0.042,0.041-0.084,0.082-0.125,0.125
			c-0.042,0.041-0.084,0.082-0.125,0.125c-0.042,0.041-0.084,0.082-0.125,0.125c-0.042,0.041-0.084,0.082-0.125,0.125
			c-0.042,0.041-0.084,0.082-0.125,0.125c-0.042,0.041-0.084,0.082-0.125,0.125c-0.042,0.041-0.084,0.082-0.125,0.125
			c-0.042,0.041-0.084,0.082-0.125,0.125c-0.042,0.041-0.084,0.082-0.125,0.125c-0.042,0.041-0.084,0.082-0.125,0.125
			c-0.042,0.041-0.084,0.082-0.125,0.125c-0.042,0.041-0.084,0.082-0.125,0.125c-0.042,0.041-0.084,0.082-0.125,0.125
			c-0.042,0.041-0.084,0.082-0.125,0.125c-0.042,0.041-0.084,0.082-0.125,0.125c-0.042,0.041-0.084,0.082-0.125,0.125
			c-0.042,0.041-0.084,0.082-0.125,0.125c-0.042,0.041-0.084,0.082-0.125,0.125c-0.042,0.041-0.084,0.082-0.125,0.125
			c-0.042,0.041-0.084,0.082-0.125,0.125c-0.042,0.041-0.084,0.082-0.125,0.125c-0.042,0.041-0.084,0.082-0.125,0.125
			c-0.042,0.041-0.084,0.082-0.125,0.125c-0.042,0.041-0.084,0.082-0.125,0.125c-0.042,0.041-0.084,0.082-0.125,0.125
			c-0.042,0.041-0.084,0.082-0.125,0.125c-0.042,0.041-0.084,0.082-0.125,0.125c-0.042,0.041-0.084,0.082-0.125,0.125
			c-0.042,0.041-0.084,0.082-0.125,0.125c-0.042,0.041-0.084,0.082-0.125,0.125c-0.042,0.041-0.084,0.082-0.125,0.125
			c-0.042,0.041-0.084,0.082-0.125,0.125c-0.042,0.041-0.084,0.082-0.125,0.125c-0.042,0.041-0.084,0.082-0.125,0.125
			c-0.042,0.041-0.084,0.082-0.125,0.125c-0.042,0.041-0.084,0.082-0.125,0.125c-0.042,0.041-0.084,0.082-0.125,0.125
			c-0.042,0.041-0.084,0.082-0.125,0.125c-0.042,0.041-0.084,0.082-0.125,0.125c-0.042,0.041-0.084,0.082-0.125,0.125
			c-0.042,0.041-0.084,0.082-0.125,0.125c-0.042,0.041-0.084,0.082-0.125,0.125c-0.042,0.041-0.084,0.082-0.125,0.125
			c-0.042,0.041-0.084,0.082-0.125,0.125c-0.042,0.041-0.084,0.082-0.125,0.125c-0.042,0.041-0.084,0.082-0.125,0.125
			c-0.042,0.041-0.084,0.082-0.125,0.125c-0.042,0.041-0.084,0.082-0.125,0.125c-0.042,0.041-0.084,0.082-0.125,0.125
			c-0.042,0.041-0.084,0.082-0.125,0.125c-0.042,0.041-0.084,0.082-0.125,0.125c-0.042,0.041-0.084,0.082-0.125,0.125
			c-0.042,0.041-0.084,0.082-0.125,0.125c-0.042,0.041-0.084,0.082-0.125,0.125c-0.042,0.041-0.084,0.082-0.125,0.125
			c-0.042,0.041-0.084,0.082-0.125,0.125c-0.042,0.041-0.084,0.082-0.125,0.125c-0.042,0.041-0.084,0.082-0.125,0.125
			c-0.042,0.041-0.084,0.082-0.125,0.125c-0.042,0.041-0.084,0.082-0.125,0.125c-0.042,0.041-0.084,0.082-0.125,0.125
			c-0.042,0.041-0.084,0.082-0.125,0.125c-0.042,0.041-0.084,0.082-0.125,0.125c-0.042,0.041-0.084,0.082-0.125,0.125
			c-0.042,0.041-0.084,0.082-0.125,0.125c-0.042,0.041-0.084,0.082-0.125,0.125c-0.042,0.041-0.084,0.082-0.125,0.125
			c-0.042,0.041-0.084,0.082-0.125,0.125c-0.042,0.041-0.084,0.082-0.125,0.125c-0.042,0.041-0.084,0.082-0.125,0.125
			c-0.042,0.041-0.084,0.082-0.125,0.125c-0.042,0.041-0.084,0.082-0.125,0.125c-0.042,0.041-0.084,0.082-0.125,0.125
			c-0.042,0.041-0.084,0.082-0.125,0.125c-0.042,0.041-0.084,0.082-0.125,0.125c-0.042,0.041-0.084,0.082-0.125,0.125
			c-0.042,0.041-0.084,0.082-0.125,0.125c-0.042,0.041-0.084,0.082-0.125,0.125c-0.042,0.041-0.084,0.082-0.125,0.125
			c-0.042,0.041-0.084,0.082-0.125,0.125c-0.042,0.041-0.084,0.082-0.125,0.125c-0.042,0.041-0.084,0.082-0.125,0.125
			c-0.042,0.041-0.084,0.082-0.125,0.125c-0.042,0.041-0.084,0.082-0.125,0.125c-0.042,0.041-0.084,0.082-0.125,0.125
			c-0.042,0.041-0.084,0.082-0.125,0.125c-0.042,0.041-0.084,0.082-0.125,0.125c-0.042,0.041-0.084,0.082-0.125,0.125
			c-0.042,0.041-0.084,0.082-0.125,0.125c-0.042,0.041-0.084,0.082-0.125,0.125c-0.042,0.041-0.084,0.082-0.125,0.125
			c-0.042,0.041-0.084,0.082-0.125,0.125c-0.042,0.041-0.084,0.082-0.125,0.125c-0.042,0.041-0.084,0.082-0.125,0.125
			c-0.042,0.041-0.084,0.082-0.125,0.125c-0.042,0.041-0.084,0.082-0.125,0.125c-0.058,0.057-0.111,0.118-0.166,0.18
			c-0.026,0.025-0.059,0.043-0.084,0.07c-0.042,0.041-0.084,0.082-0.125,0.125c-0.042,0.041-0.084,0.082-0.125,0.125
			c-0.042,0.041-0.084,0.082-0.125,0.125c-0.042,0.041-0.084,0.082-0.125,0.125c-0.042,0.041-0.084,0.082-0.125,0.125
			c-0.042,0.041-0.084,0.082-0.125,0.125c-0.042,0.041-0.084,0.082-0.125,0.125c-0.042,0.041-0.084,0.082-0.125,0.125
			c-0.042,0.041-0.084,0.082-0.125,0.125c-0.042,0.041-0.084,0.082-0.125,0.125c-0.042,0.041-0.084,0.082-0.125,0.125
			c-0.042,0.041-0.084,0.082-0.125,0.125c-0.042,0.041-0.084,0.082-0.125,0.125c-0.042,0.041-0.084,0.082-0.125,0.125
			c-0.042,0.041-0.084,0.082-0.125,0.125c-0.042,0.041-0.084,0.082-0.125,0.125c-0.042,0.041-0.084,0.082-0.125,0.125
			c-0.042,0.041-0.084,0.082-0.125,0.125c-0.042,0.041-0.084,0.082-0.125,0.125c-0.042,0.041-0.084,0.082-0.125,0.125
			c-0.042,0.041-0.084,0.082-0.125,0.125c-0.042,0.041-0.084,0.082-0.125,0.125c-0.042,0.041-0.084,0.082-0.125,0.125
			c-0.042,0.041-0.084,0.082-0.125,0.125c-0.042,0.041-0.084,0.082-0.125,0.125c-0.042,0.041-0.084,0.082-0.125,0.125
			c-0.042,0.041-0.084,0.082-0.125,0.125c-0.042,0.041-0.084,0.082-0.125,0.125c-0.042,0.041-0.084,0.082-0.125,0.125
			c-0.042,0.041-0.084,0.082-0.125,0.125c-0.042,0.041-0.084,0.082-0.125,0.125c-0.042,0.041-0.084,0.082-0.125,0.125
			c-0.042,0.041-0.084,0.082-0.125,0.125c-0.042,0.041-0.084,0.082-0.125,0.125c-0.042,0.041-0.084,0.082-0.125,0.125
			c-0.042,0.041-0.084,0.082-0.125,0.125c-0.042,0.041-0.084,0.082-0.125,0.125c-0.042,0.041-0.084,0.082-0.125,0.125
			c-0.042,0.041-0.084,0.082-0.125,0.125c-0.042,0.041-0.084,0.082-0.125,0.125c-0.042,0.041-0.084,0.082-0.125,0.125
			c-0.042,0.041-0.084,0.082-0.125,0.125c-0.042,0.041-0.084,0.082-0.125,0.125c-0.042,0.041-0.084,0.082-0.125,0.125
			c-0.042,0.041-0.084,0.082-0.125,0.125c-0.042,0.041-0.084,0.082-0.125,0.125c-0.042,0.041-0.084,0.082-0.125,0.125
			c-0.042,0.041-0.084,0.082-0.125,0.125c-0.042,0.041-0.084,0.082-0.125,0.125c-0.042,0.041-0.084,0.082-0.125,0.125
			c-0.042,0.041-0.084,0.082-0.125,0.125c-0.042,0.041-0.084,0.082-0.125,0.125c-0.042,0.041-0.084,0.082-0.125,0.125
			c-0.042,0.041-0.084,0.082-0.125,0.125c-0.042,0.041-0.084,0.082-0.125,0.125c-0.042,0.041-0.084,0.082-0.125,0.125
			c-0.042,0.041-0.084,0.082-0.125,0.125c-0.042,0.041-0.084,0.082-0.125,0.125c-0.042,0.041-0.084,0.082-0.125,0.125
			c-0.042,0.041-0.084,0.082-0.125,0.125c-0.042,0.041-0.084,0.082-0.125,0.125c-0.042,0.041-0.084,0.082-0.125,0.125
			c-0.042,0.041-0.084,0.082-0.125,0.125c-0.042,0.041-0.084,0.082-0.125,0.125c-0.042,0.041-0.084,0.082-0.125,0.125
			c-0.042,0.041-0.084,0.082-0.125,0.125c-0.042,0.041-0.084,0.082-0.125,0.125c-0.042,0.041-0.084,0.082-0.125,0.125
			c-0.042,0.041-0.084,0.082-0.125,0.125c-0.042,0.041-0.084,0.082-0.125,0.125c-0.042,0.041-0.084,0.082-0.125,0.125
			c-0.042,0.041-0.084,0.082-0.125,0.125c-0.042,0.041-0.084,0.082-0.125,0.125c-0.042,0.041-0.084,0.082-0.125,0.125
			c-0.042,0.041-0.084,0.082-0.125,0.125c-0.042,0.041-0.084,0.082-0.125,0.125c-0.042,0.041-0.084,0.082-0.125,0.125
			c-0.042,0.041-0.084,0.082-0.125,0.125c-0.042,0.041-0.084,0.082-0.125,0.125c-0.042,0.041-0.084,0.082-0.125,0.125
			c-0.042,0.041-0.084,0.082-0.125,0.125c-0.042,0.041-0.084,0.082-0.125,0.125c-0.042,0.041-0.084,0.082-0.125,0.125
			c-0.042,0.041-0.084,0.082-0.125,0.125c-0.042,0.041-0.084,0.082-0.125,0.125c-0.042,0.041-0.084,0.082-0.125,0.125
			c-0.042,0.041-0.084,0.082-0.125,0.125c-0.042,0.041-0.084,0.082-0.125,0.125c-0.042,0.041-0.084,0.082-0.125,0.125
			c-0.042,0.041-0.084,0.082-0.125,0.125c-0.042,0.041-0.084,0.082-0.125,0.125c-0.042,0.041-0.084,0.082-0.125,0.125
			c-0.042,0.041-0.084,0.082-0.125,0.125c-0.042,0.041-0.084,0.082-0.125,0.125c-0.042,0.041-0.084,0.082-0.125,0.125
			c-0.042,0.041-0.084,0.082-0.125,0.125c-0.042,0.041-0.084,0.082-0.125,0.125c-0.042,0.041-0.084,0.082-0.125,0.125
			c-0.042,0.041-0.084,0.082-0.125,0.125c-0.042,0.041-0.084,0.082-0.125,0.125c-0.042,0.041-0.084,0.082-0.125,0.125
			c-0.042,0.041-0.084,0.082-0.125,0.125c-0.042,0.041-0.084,0.082-0.125,0.125c-0.042,0.041-0.084,0.082-0.125,0.125
			c-0.042,0.041-0.084,0.082-0.125,0.125c-0.042,0.041-0.084,0.082-0.125,0.125c-0.042,0.041-0.084,0.082-0.125,0.125
			c-0.042,0.041-0.084,0.082-0.125,0.125c-0.042,0.041-0.084,0.082-0.125,0.125c-0.042,0.041-0.084,0.082-0.125,0.125
			c-0.042,0.041-0.084,0.082-0.125,0.125c-0.042,0.041-0.084,0.082-0.125,0.125c-0.042,0.041-0.084,0.082-0.125,0.125
			c-0.042,0.041-0.084,0.082-0.125,0.125c-0.042,0.041-0.084,0.082-0.125,0.125c-0.042,0.041-0.084,0.082-0.125,0.125
			c-0.042,0.041-0.084,0.082-0.125,0.125c-0.042,0.041-0.084,0.082-0.125,0.125c-0.042,0.041-0.084,0.082-0.125,0.125
			c-0.042,0.041-0.084,0.082-0.125,0.125c-0.042,0.041-0.084,0.082-0.125,0.125c-0.042,0.041-0.084,0.082-0.125,0.125
			c-0.042,0.041-0.084,0.082-0.125,0.125c-0.042,0.041-0.084,0.082-0.125,0.125c-0.042,0.041-0.084,0.082-0.125,0.125
			c-0.042,0.041-0.084,0.082-0.125,0.125c-0.042,0.041-0.084,0.082-0.125,0.125c-0.042,0.041-0.084,0.082-0.125,0.125
			c-0.042,0.041-0.084,0.082-0.125,0.125c-0.042,0.041-0.084,0.082-0.125,0.125c-0.042,0.041-0.084,0.082-0.125,0.125
			c-0.042,0.041-0.084,0.082-0.125,0.125c-0.042,0.041-0.084,0.082-0.125,0.125c-0.042,0.041-0.084,0.082-0.125,0.125
			c-0.042,0.041-0.084,0.082-0.125,0.125c-0.042,0.041-0.084,0.082-0.125,0.125c-0.042,0.041-0.084,0.082-0.125,0.125
			c-0.042,0.041-0.084,0.082-0.125,0.125c-0.042,0.041-0.084,0.082-0.125,0.125c-0.042,0.041-0.084,0.082-0.125,0.125
			c-0.042,0.041-0.084,0.082-0.125,0.125c-0.042,0.041-0.084,0.082-0.125,0.125c-0.042,0.041-0.084,0.082-0.125,0.125
			c-0.042,0.041-0.084,0.082-0.125,0.125c-0.042,0.041-0.084,0.082-0.125,0.125c-0.042,0.041-0.084,0.082-0.125,0.125
			c-0.042,0.041-0.084,0.082-0.125,0.125c-0.042,0.041-0.084,0.082-0.125,0.125c-0.042,0.041-0.084,0.082-0.125,0.125
			c-0.042,0.041-0.084,0.082-0.125,0.125c-0.042,0.041-0.084,0.082-0.125,0.125c-0.042,0.041-0.084,0.082-0.125,0.125
			c-0.042,0.041-0.084,0.082-0.125,0.125c-0.042,0.041-0.084,0.082-0.125,0.125c-0.042,0.041-0.084,0.082-0.125,0.125
			c-0.042,0.041-0.084,0.082-0.125,0.125c-0.042,0.041-0.084,0.082-0.125,0.125c-0.042,0.041-0.084,0.082-0.125,0.125
			c-0.042,0.041-0.084,0.082-0.125,0.125c-0.042,0.041-0.084,0.082-0.125,0.125c-0.042,0.041-0.084,0.082-0.125,0.125
			c-0.042,0.041-0.084,0.082-0.125,0.125c-0.042,0.041-0.084,0.082-0.125,0.125c-0.042,0.041-0.084,0.082-0.125,0.125
			c-0.042,0.041-0.084,0.082-0.125,0.125c-0.042,0.041-0.084,0.082-0.125,0.125c-0.042,0.041-0.084,0.082-0.125,0.125
			c-0.042,0.041-0.084,0.082-0.125,0.125c-0.042,0.041-0.084,0.082-0.125,0.125c-0.042,0.041-0.084,0.082-0.125,0.125
			c-0.042,0.041-0.084,0.082-0.125,0.125c-0.042,0.041-0.084,0.082-0.125,0.125c-0.042,0.041-0.084,0.082-0.125,0.125
			c-0.042,0.041-0.084,0.082-0.125,0.125c-0.042,0.041-0.084,0.082-0.125,0.125c-0.042,0.041-0.084,0.082-0.125,0.125
			c-0.042,0.041-0.084,0.082-0.125,0.125c-0.042,0.041-0.084,0.082-0.125,0.125c-0.042,0.041-0.084,0.082-0.125,0.125
			c-0.042,0.041-0.084,0.082-0.125,0.125c-0.042,0.041-0.084,0.082-0.125,0.125c-0.042,0.041-0.084,0.082-0.125,0.125
			c-0.042,0.041-0.084,0.082-0.125,0.125c-0.042,0.041-0.084,0.082-0.125,0.125c-0.042,0.041-0.084,0.082-0.125,0.125
			c-0.042,0.041-0.084,0.082-0.125,0.125c-0.042,0.041-0.084,0.082-0.125,0.125c-0.042,0.041-0.084,0.082-0.125,0.125
			c-0.042,0.041-0.084,0.082-0.125,0.125c-0.042,0.041-0.084,0.082-0.125,0.125c-0.042,0.041-0.084,0.082-0.125,0.125
			c-0.042,0.041-0.084,0.082-0.125,0.125c-0.042,0.041-0.084,0.082-0.125,0.125c-0.042,0.041-0.084,0.082-0.125,0.125
			c-0.042,0.041-0.084,0.082-0.125,0.125c-0.042,0.041-0.084,0.082-0.125,0.125c-0.042,0.041-0.084,0.082-0.125,0.125
			c-0.042,0.041-0.084,0.082-0.125,0.125c-0.042,0.041-0.084,0.082-0.125,0.125c-0.042,0.041-0.084,0.082-0.125,0.125
			c-0.042,0.041-0.084,0.082-0.125,0.125c-0.042,0.041-0.084,0.082-0.125,0.125c-0.042,0.041-0.084,0.082-0.125,0.125
			c-0.042,0.041-0.084,0.082-0.125,0.125c-0.042,0.041-0.084,0.082-0.125,0.125c-0.042,0.041-0.084,0.082-0.125,0.125
			c-0.042,0.041-0.084,0.082-0.125,0.125c-0.042,0.041-0.084,0.082-0.125,0.125c-0.042,0.041-0.084,0.082-0.125,0.125
			c-0.042,0.041-0.084,0.082-0.125,0.125c-0.042,0.041-0.084,0.082-0.125,0.125c-0.042,0.041-0.084,0.082-0.125,0.125
			c-0.042,0.041-0.084,0.082-0.125,0.125c-0.042,0.041-0.084,0.082-0.125,0.125c-0.042,0.041-0.084,0.082-0.125,0.125
			c-0.042,0.041-0.084,0.082-0.125,0.125c-0.042,0.041-0.084,0.082-0.125,0.125c-0.042,0.041-0.084,0.082-0.125,0.125
			c-0.042,0.041-0.084,0.082-0.125,0.125c-0.042,0.041-0.084,0.082-0.125,0.125c-0.042,0.041-0.084,0.082-0.125,0.125
			c-0.042,0.041-0.084,0.082-0.125,0.125c-0.24,0.232-0.457,0.491-0.634,0.797c-0.638,1.105-1.19,2.063-1.684,2.918l-0.026,0.006
			l-0.063,0.108l-0.063,0.017l-0.063,0.108l-0.063,0.017l-0.063,0.108l-0.063,0.017l-0.063,0.108l-0.063,0.017l-0.063,0.108
			l-0.063,0.017l-0.063,0.108l-0.063,0.017l-0.063,0.108l-0.063,0.017l-0.063,0.108l-0.063,0.017l-0.063,0.108l-0.063,0.017
			l-0.063,0.108l-0.063,0.017l-0.063,0.108l-0.063,0.017l-0.063,0.108l-0.063,0.017l-0.063,0.108l-0.063,0.017l-0.063,0.108
			l-0.063,0.017l-0.063,0.108l-0.063,0.017l-0.063,0.108l-0.063,0.017l-0.063,0.108l-0.063,0.017l-0.063,0.108l-0.063,0.017
			l-0.063,0.108l-0.063,0.017l-0.063,0.108l-0.063,0.017l-0.063,0.108l-0.063,0.017l-0.063,0.108l-0.063,0.017l-0.063,0.108
			l-0.063,0.017l-0.063,0.108l-0.063,0.017l-0.063,0.108l-0.063,0.017l-0.063,0.108l-0.063,0.017l-0.063,0.108l-0.063,0.017
			l-0.063,0.108l-0.063,0.017l-0.063,0.108l-0.063,0.017l-0.063,0.108l-0.063,0.017l-0.063,0.108l-0.063,0.017l-0.063,0.108
			l-0.063,0.017l-0.063,0.108l-0.063,0.017l-0.063,0.108l-0.063,0.017l-0.063,0.108l-0.063,0.017l-0.063,0.108l-0.063,0.017
			l-0.063,0.108l-0.063,0.017l-0.063,0.108l-0.063,0.017l-0.063,0.108l-0.063,0.017l-0.063,0.108l-0.063,0.017l-0.063,0.108
			l-0.063,0.017l-0.063,0.108l-0.063,0.017l-0.063,0.108l-0.063,0.017l-0.063,0.108l-0.063,0.017l-0.063,0.108l-0.063,0.017
			l-0.063,0.108l-0.063,0.017l-0.063,0.108l-0.063,0.017l-0.063,0.108l-0.063,0.017l-0.063,0.108l-0.063,0.017l-0.063,0.108
			l-0.063,0.017l-0.063,0.108l-0.063,0.017l-6.775,11.735l1.507,4.354c-0.012,0.02-0.026,0.045-0.041,0.068l-0.018-0.06
			c0,0-0.04,0.067-0.107,0.185l-0.018-0.06c0,0-0.04,0.067-0.107,0.185l-0.018-0.06c0,0-0.04,0.067-0.107,0.185l-0.018-0.06
			c0,0-0.04,0.067-0.107,0.185l-0.018-0.06c0,0-0.04,0.067-0.107,0.185l-0.018-0.06c0,0-0.04,0.067-0.107,0.185l-0.018-0.06
			c0,0-0.04,0.067-0.107,0.185l-0.018-0.06c0,0-0.04,0.067-0.107,0.185l-0.018-0.06c0,0-0.04,0.067-0.107,0.185l-0.018-0.06
			c0,0-6.72,11.639-8.624,14.937c-1.176,2.036-1.848,3.2-0.059,6.82c0.279,0.161,0.698,0.402,1.212,0.699
			c-0.125-0.016-0.208-0.03-0.235-0.036c0.081,0.017,0.123,0.03,0.123,0.03s0.11,0.058,0.295,0.16
			c-0.307-0.021-0.497-0.057-0.543-0.065c0.081,0.017,0.123,0.03,0.123,0.03s0.11,0.058,0.295,0.16
			c-0.307-0.021-0.497-0.057-0.543-0.065c0.081,0.017,0.123,0.03,0.123,0.03s0.11,0.058,0.295,0.16
			c-0.307-0.021-0.497-0.057-0.543-0.065c0.081,0.017,0.123,0.03,0.123,0.03s0.11,0.058,0.295,0.16
			c-0.307-0.021-0.497-0.057-0.543-0.065c0.081,0.017,0.123,0.03,0.123,0.03s0.11,0.058,0.295,0.16
			c-0.307-0.021-0.497-0.057-0.543-0.065c0.081,0.017,0.123,0.03,0.123,0.03s0.11,0.058,0.295,0.16
			c-0.307-0.021-0.497-0.057-0.543-0.065c0.081,0.017,0.123,0.03,0.123,0.03s0.11,0.058,0.295,0.16
			c-0.307-0.021-0.497-0.057-0.543-0.065c0.081,0.017,0.123,0.03,0.123,0.03s0.11,0.058,0.295,0.16
			c-0.307-0.021-0.497-0.057-0.543-0.065c0.081,0.017,0.123,0.03,0.123,0.03s0.11,0.058,0.295,0.16
			c-0.307-0.021-0.497-0.057-0.543-0.065c0.081,0.017,0.123,0.03,0.123,0.03s0.11,0.058,0.295,0.16
			c-0.307-0.021-0.497-0.057-0.543-0.065c0.081,0.017,0.123,0.03,0.123,0.03s0.11,0.058,0.295,0.16
			c-0.307-0.021-0.497-0.057-0.543-0.065c0.081,0.017,0.123,0.03,0.123,0.03s0.11,0.058,0.295,0.16
			c-0.307-0.021-0.497-0.057-0.543-0.065c0.081,0.017,0.123,0.03,0.123,0.03s0.11,0.058,0.295,0.16
			c-0.307-0.021-0.497-0.057-0.543-0.065c0.081,0.017,0.123,0.03,0.123,0.03s0.11,0.058,0.295,0.16
			c-0.307-0.021-0.497-0.057-0.543-0.065c0.081,0.017,0.123,0.03,0.123,0.03s0.11,0.058,0.295,0.16
			c-0.307-0.021-0.497-0.057-0.543-0.065c0.081,0.017,0.123,0.03,0.123,0.03s0.11,0.058,0.295,0.16
			c-0.307-0.021-0.497-0.057-0.543-0.065c0.081,0.017,0.123,0.03,0.123,0.03s0.11,0.058,0.295,0.16
			c-0.307-0.021-0.497-0.057-0.543-0.065c0.081,0.017,0.123,0.03,0.123,0.03s0.11,0.058,0.294,0.16
			c-0.306-0.021-0.496-0.057-0.542-0.065c0.081,0.017,0.123,0.03,0.123,0.03s0.11,0.058,0.294,0.16
			c-0.306-0.021-0.496-0.057-0.542-0.065c0.081,0.017,0.123,0.03,0.123,0.03s0.11,0.058,0.294,0.16
			c-0.306-0.021-0.496-0.057-0.542-0.065c0.081,0.017,0.123,0.03,0.123,0.03s0.11,0.058,0.295,0.16
			c-0.307-0.021-0.497-0.057-0.542-0.065c0.081,0.017,0.123,0.03,0.123,0.03s0.11,0.058,0.295,0.16
			c-0.307-0.021-0.497-0.057-0.542-0.065c0.081,0.017,0.123,0.03,0.123,0.03s0.11,0.058,0.295,0.16
			c-0.307-0.021-0.497-0.057-0.542-0.065c0.081,0.017,0.123,0.03,0.123,0.03s0.11,0.058,0.295,0.16
			c-0.307-0.021-0.497-0.057-0.542-0.065c0.081,0.017,0.123,0.03,0.123,0.03s0.11,0.058,0.295,0.16
			c-0.307-0.021-0.497-0.057-0.542-0.065c0.081,0.017,0.123,0.03,0.123,0.03s0.11,0.058,0.295,0.16
			c-0.307-0.021-0.497-0.057-0.542-0.065c0.081,0.017,0.123,0.03,0.123,0.03s0.11,0.058,0.295,0.16
			c-0.307-0.021-0.497-0.057-0.542-0.065c0.081,0.017,0.123,0.03,0.123,0.03s0.11,0.058,0.295,0.16
			c-0.307-0.021-0.497-0.057-0.542-0.065c0.081,0.017,0.123,0.03,0.123,0.03s0.11,0.058,0.295,0.16
			c-0.307-0.021-0.497-0.057-0.542-0.065c0.081,0.017,0.123,0.03,0.123,0.03s0.11,0.058,0.295,0.16
			c-0.307-0.021-0.497-0.057-0.542-0.065c0.081,0.017,0.123,0.03,0.123,0.03s0.11,0.058,0.295,0.16
			c-0.307-0.021-0.497-0.057-0.542-0.065c0.081,0.017,0.123,0.03,0.123,0.03s0.11,0.058,0.295,0.16
			c-0.307-0.021-0.497-0.057-0.542-0.065c0.081,0.017,0.123,0.03,0.123,0.03s0.11,0.058,0.295,0.16
			c-0.307-0.021-0.497-0.057-0.542-0.065c0.081,0.017,0.123,0.03,0.123,0.03s0.11,0.058,0.295,0.16
			c-0.307-0.021-0.497-0.057-0.542-0.065c0.081,0.017,0.123,0.03,0.123,0.03s0.11,0.058,0.295,0.16
			c-0.307-0.021-0.497-0.057-0.542-0.065c0.081,0.017,0.123,0.03,0.123,0.03s0.11,0.058,0.295,0.16
			c-0.307-0.021-0.497-0.057-0.542-0.065c0.081,0.017,0.123,0.03,0.123,0.03s0.11,0.058,0.295,0.16
			c-0.307-0.021-0.497-0.057-0.542-0.065c0.081,0.017,0.123,0.03,0.123,0.03s0.11,0.058,0.295,0.16
			c-0.307-0.021-0.497-0.057-0.542-0.065c0.081,0.017,0.123,0.03,0.123,0.03s0.11,0.058,0.295,0.16
			c-0.307-0.021-0.497-0.057-0.542-0.065c0.081,0.017,0.123,0.03,0.123,0.03s0.11,0.058,0.295,0.16
			c-0.307-0.021-0.497-0.057-0.542-0.065c0.081,0.017,0.123,0.03,0.123,0.03s0.11,0.058,0.295,0.16
			c-0.307-0.021-0.497-0.057-0.542-0.065c0.081,0.017,0.123,0.03,0.123,0.03s0.11,0.058,0.295,0.16
			c-0.307-0.021-0.497-0.057-0.542-0.065c0.081,0.017,0.123,0.03,0.123,0.03s0.11,0.058,0.295,0.16
			c-0.307-0.021-0.497-0.057-0.542-0.065c0.081,0.017,0.123,0.03,0.123,0.03s0.11,0.058,0.295,0.16
			c-0.307-0.021-0.497-0.057-0.542-0.065c0.081,0.017,0.123,0.03,0.123,0.03s0.11,0.058,0.295,0.16
			c-0.307-0.021-0.497-0.057-0.542-0.065c0.081,0.017,0.123,0.03,0.123,0.03s0.11,0.058,0.295,0.16
			c-0.307-0.021-0.497-0.057-0.542-0.065c0.081,0.017,0.123,0.03,0.123,0.03s0.11,0.058,0.295,0.16
			c-0.307-0.021-0.497-0.057-0.542-0.065c0.081,0.017,0.123,0.03,0.123,0.03s0.11,0.058,0.295,0.16
			c-0.307-0.021-0.497-0.057-0.542-0.065c0.081,0.017,0.123,0.03,0.123,0.03s0.11,0.058,0.295,0.16
			c-0.307-0.021-0.497-0.057-0.542-0.065c0.081,0.017,0.123,0.03,0.123,0.03s0.11,0.058,0.295,0.16
			c-0.307-0.021-0.497-0.057-0.542-0.065c0.081,0.017,0.123,0.03,0.123,0.03s0.11,0.058,0.295,0.16
			c-0.307-0.021-0.497-0.057-0.542-0.065c0.081,0.017,0.123,0.03,0.123,0.03s0.11,0.058,0.295,0.16
			c-0.307-0.021-0.497-0.057-0.542-0.065c0.081,0.017,0.123,0.03,0.123,0.03s0.11,0.058,0.295,0.16
			c-0.307-0.021-0.497-0.057-0.542-0.065c0.081,0.017,0.123,0.03,0.123,0.03s0.11,0.058,0.295,0.16
			c-0.307-0.021-0.497-0.057-0.542-0.065c0.081,0.017,0.123,0.03,0.123,0.03s0.11,0.058,0.295,0.16
			c-0.307-0.021-0.497-0.057-0.542-0.065c0.081,0.017,0.123,0.03,0.123,0.03s0.11,0.058,0.295,0.16
			c-0.307-0.021-0.497-0.057-0.542-0.065c0.081,0.017,0.123,0.03,0.123,0.03s0.11,0.058,0.295,0.16
			c-0.307-0.021-0.497-0.057-0.542-0.065c0.081,0.017,0.123,0.03,0.123,0.03s0.11,0.058,0.295,0.16
			c-0.307-0.021-0.497-0.057-0.542-0.065c0.081,0.017,0.123,0.03,0.123,0.03s0.11,0.058,0.295,0.16
			c-0.307-0.021-0.497-0.057-0.542-0.065c0.081,0.017,0.123,0.03,0.123,0.03s0.11,0.058,0.295,0.16
			c-0.307-0.021-0.497-0.057-0.542-0.065c0.081,0.017,0.123,0.03,0.123,0.03s0.11,0.058,0.295,0.16
			c-0.307-0.021-0.497-0.057-0.542-0.065c0.081,0.017,0.123,0.03,0.123,0.03s0.11,0.058,0.295,0.16
			c-0.307-0.021-0.497-0.057-0.542-0.065c0.081,0.017,0.123,0.03,0.123,0.03s0.11,0.058,0.295,0.16
			c-0.307-0.021-0.497-0.057-0.542-0.065c0.081,0.017,0.123,0.03,0.123,0.03s0.11,0.058,0.295,0.16
			c-0.307-0.021-0.497-0.057-0.542-0.065c0.081,0.017,0.123,0.03,0.123,0.03s0.11,0.058,0.295,0.16
			c-0.307-0.021-0.497-0.057-0.542-0.065c0.081,0.017,0.123,0.03,0.123,0.03s0.11,0.058,0.295,0.16
			c-0.307-0.021-0.497-0.057-0.542-0.065c0.081,0.017,0.123,0.03,0.123,0.03s0.11,0.058,0.295,0.16
			c-0.307-0.021-0.497-0.057-0.542-0.065c0.081,0.017,0.123,0.03,0.123,0.03s0.11,0.058,0.295,0.16
			c-0.307-0.021-0.497-0.057-0.542-0.065c0.081,0.017,0.123,0.03,0.123,0.03s0.11,0.058,0.295,0.16
			c-0.307-0.021-0.497-0.057-0.542-0.065c0.081,0.017,0.123,0.03,0.123,0.03s0.11,0.058,0.295,0.16
			c-0.307-0.021-0.497-0.057-0.542-0.065c0.081,0.017,0.123,0.03,0.123,0.03s0.11,0.058,0.295,0.16
			c-0.307-0.021-0.497-0.057-0.542-0.065c0.081,0.017,0.123,0.03,0.123,0.03s0.11,0.058,0.295,0.16
			c-0.307-0.021-0.497-0.057-0.542-0.065c0.081,0.017,0.123,0.03,0.123,0.03s0.11,0.058,0.295,0.16
			c-0.307-0.021-0.497-0.057-0.542-0.065c0.081,0.017,0.123,0.03,0.123,0.03s0.11,0.058,0.295,0.16
			c-0.307-0.021-0.497-0.057-0.542-0.065c0.081,0.017,0.123,0.03,0.123,0.03s0.11,0.058,0.295,0.16
			c-0.307-0.021-0.497-0.057-0.542-0.065c0.081,0.017,0.123,0.03,0.123,0.03s0.11,0.058,0.295,0.16
			c-0.307-0.021-0.497-0.057-0.542-0.065c0.081,0.017,0.123,0.03,0.123,0.03s0.11,0.058,0.295,0.16
			c-0.307-0.021-0.497-0.057-0.542-0.065c0.081,0.017,0.123,0.03,0.123,0.03s0.11,0.058,0.295,0.16
			c-0.307-0.021-0.497-0.057-0.542-0.065c0.081,0.017,0.123,0.03,0.123,0.03s0.11,0.058,0.295,0.16
			c-0.307-0.021-0.497-0.057-0.542-0.065c0.081,0.017,0.123,0.03,0.123,0.03s0.11,0.058,0.295,0.16
			c-0.307-0.021-0.497-0.057-0.542-0.065c0.081,0.017,0.123,0.03,0.123,0.03s0.11,0.058,0.295,0.16
			c-0.307-0.021-0.497-0.057-0.542-0.065c0.081,0.017,0.123,0.03,0.123,0.03s0.11,0.058,0.295,0.16
			c-0.307-0.021-0.497-0.057-0.542-0.065c0.081,0.017,0.123,0.03,0.123,0.03s0.11,0.058,0.295,0.16
			c-0.307-0.021-0.497-0.057-0.542-0.065c0.081,0.017,0.123,0.03,0.123,0.03s0.11,0.058,0.295,0.16
			c-0.307-0.021-0.497-0.057-0.542-0.065c0.081,0.017,0.123,0.03,0.123,0.03s0.11,0.058,0.295,0.16
			c-0.307-0.021-0.497-0.057-0.542-0.065c0.081,0.017,0.123,0.03,0.123,0.03s0.11,0.058,0.295,0.16
			c-0.307-0.021-0.497-0.057-0.542-0.065c0.081,0.017,0.123,0.03,0.123,0.03s0.11,0.058,0.295,0.16
			c-0.307-0.021-0.497-0.057-0.542-0.065c0.081,0.017,0.123,0.03,0.123,0.03s0.11,0.058,0.295,0.16
			c-0.307-0.021-0.497-0.057-0.542-0.065c0.081,0.017,0.123,0.03,0.123,0.03s0.11,0.058,0.295,0.16
			c-0.307-0.021-0.497-0.057-0.542-0.065c0.081,0.017,0.123,0.03,0.123,0.03s0.11,0.058,0.295,0.16
			c-0.307-0.021-0.497-0.057-0.542-0.065c0.081,0.017,0.123,0.03,0.123,0.03s0.11,0.058,0.295,0.16
			c-0.307-0.021-0.497-0.057-0.542-0.065c0.081,0.017,0.123,0.03,0.123,0.03s0.11,0.058,0.295,0.16
			c-0.307-0.021-0.497-0.057-0.542-0.065c0.081,0.017,0.123,0.03,0.123,0.03s0.11,0.058,0.295,0.16
			c-0.307-0.021-0.497-0.057-0.542-0.065c0.081,0.017,0.123,0.03,0.123,0.03s0.11,0.058,0.295,0.16
			c-0.307-0.021-0.497-0.057-0.542-0.065c0.081,0.017,0.123,0.03,0.123,0.03s0.11,0.058,0.295,0.16
			c-0.307-0.021-0.497-0.057-0.542-0.065c0.081,0.017,0.123,0.03,0.123,0.03s0.11,0.058,0.295,0.16
			c-0.307-0.021-0.497-0.057-0.542-0.065c0.081,0.017,0.123,0.03,0.123,0.03s0.11,0.058,0.295,0.16
			c-0.307-0.021-0.497-0.057-0.542-0.065c0.081,0.017,0.123,0.03,0.123,0.03s0.11,0.058,0.295,0.16
			c-0.307-0.021-0.497-0.057-0.542-0.065c0.081,0.017,0.123,0.03,0.123,0.03s0.11,0.058,0.295,0.16
			c-0.307-0.021-0.497-0.057-0.542-0.065c0.081,0.017,0.123,0.03,0.123,0.03s0.11,0.058,0.295,0.16
			c-0.307-0.021-0.497-0.057-0.542-0.065c0.081,0.017,0.123,0.03,0.123,0.03s0.11,0.058,0.295,0.16
			c-0.307-0.021-0.497-0.057-0.542-0.065c0.081,0.017,0.123,0.03,0.123,0.03s0.11,0.058,0.295,0.16
			c-0.307-0.021-0.497-0.057-0.542-0.065c0.081,0.017,0.123,0.03,0.123,0.03s0.11,0.058,0.295,0.16
			c-0.307-0.021-0.497-0.057-0.542-0.065c0.081,0.017,0.123,0.03,0.123,0.03s0.11,0.058,0.295,0.16
			c-0.307-0.021-0.497-0.057-0.542-0.065c0.081,0.017,0.123,0.03,0.123,0.03s0.11,0.058,0.295,0.16
			c-0.307-0.021-0.497-0.057-0.542-0.065c0.081,0.017,0.123,0.03,0.123,0.03s0.11,0.058,0.295,0.16
			c-0.307-0.021-0.497-0.057-0.542-0.065c0.081,0.017,0.123,0.03,0.123,0.03s0.11,0.058,0.295,0.16
			c-0.307-0.021-0.497-0.057-0.542-0.065c0.081,0.017,0.123,0.03,0.123,0.03s2.457,1.3,4.431,2.828l-0.115,0.045
			c0.021,0.007,0.064,0.018,0.12,0.029l-0.245,0.096c0.021,0.007,0.064,0.018,0.12,0.029l-0.245,0.096
			c0.021,0.007,0.064,0.018,0.12,0.029l-0.245,0.096c0.021,0.007,0.064,0.018,0.12,0.029l-0.245,0.096
			c0.021,0.007,0.064,0.018,0.12,0.029l-0.245,0.096c0.021,0.007,0.064,0.018,0.12,0.029l-0.245,0.096
			c0.021,0.007,0.064,0.018,0.12,0.029l-0.245,0.096c0.021,0.007,0.064,0.018,0.12,0.029l-0.245,0.096
			c0.021,0.007,0.064,0.018,0.12,0.029l-0.245,0.096c0.021,0.007,0.064,0.018,0.12,0.029l-0.245,0.096
			c0.021,0.007,0.064,0.018,0.12,0.029l-0.245,0.096c0.021,0.007,0.064,0.018,0.12,0.029l-0.245,0.096
			c0.021,0.007,0.064,0.018,0.12,0.029l-0.245,0.096c0.021,0.007,0.064,0.018,0.12,0.029l-0.245,0.096
			c0.021,0.007,0.064,0.018,0.12,0.029l-0.245,0.096c0.021,0.007,0.064,0.018,0.12,0.029l-0.245,0.096
			c0.021,0.007,0.064,0.018,0.12,0.029l-0.245,0.096c0.021,0.007,0.064,0.018,0.12,0.029l-0.245,0.096
			c0.021,0.007,0.064,0.018,0.12,0.029l-0.245,0.096c0.021,0.007,0.064,0.018,0.12,0.029l-0.245,0.096
			c0.021,0.007,0.064,0.018,0.12,0.029l-0.245,0.096c0.021,0.007,0.064,0.018,0.12,0.029l-0.245,0.096
			c0.021,0.007,0.064,0.018,0.12,0.029l-0.245,0.096c0.021,0.007,0.064,0.018,0.12,0.029l-0.245,0.096
			c0.021,0.007,0.064,0.018,0.12,0.029l-0.245,0.096c0.021,0.007,0.064,0.018,0.12,0.029l-0.245,0.096
			c0.021,0.007,0.064,0.018,0.12,0.029l-0.245,0.096c0.021,0.007,0.064,0.018,0.12,0.029l-0.245,0.096
			c0.021,0.007,0.064,0.018,0.12,0.029l-0.245,0.096c0.021,0.007,0.064,0.018,0.12,0.029l-0.245,0.096
			c0.021,0.007,0.064,0.018,0.12,0.029l-0.245,0.096c0.021,0.007,0.064,0.018,0.12,0.029l-0.245,0.096
			c0.021,0.007,0.064,0.018,0.12,0.029l-0.245,0.096c0.021,0.007,0.064,0.018,0.12,0.029l-0.245,0.096
			c0.021,0.007,0.064,0.018,0.12,0.029l-0.245,0.096c0.021,0.007,0.064,0.018,0.12,0.029l-0.245,0.096
			c0.021,0.007,0.064,0.018,0.12,0.029l-0.245,0.096c0.021,0.007,0.064,0.018,0.12,0.029l-0.245,0.096
			c0.021,0.007,0.064,0.018,0.12,0.029l-0.245,0.096c0.021,0.007,0.064,0.018,0.12,0.029l-0.245,0.096
			c0.021,0.007,0.064,0.018,0.12,0.029l-0.245,0.096c0.021,0.007,0.064,0.018,0.12,0.029l-0.245,0.096
			c0.021,0.007,0.064,0.018,0.12,0.029l-0.245,0.096c0.021,0.007,0.064,0.018,0.12,0.029l-0.245,0.096
			c0.021,0.007,0.064,0.018,0.12,0.029l-0.245,0.096c0.021,0.007,0.064,0.018,0.12,0.029l-0.245,0.096
			c0.021,0.007,0.064,0.018,0.12,0.029l-0.245,0.096c0.021,0.007,0.064,0.018,0.12,0.029l-0.245,0.096
			c0.021,0.007,0.064,0.018,0.12,0.029l-0.245,0.096c0.021,0.007,0.064,0.018,0.12,0.029l-0.245,0.096
			c0.021,0.007,0.064,0.018,0.12,0.029l-0.245,0.096c0.021,0.007,0.064,0.018,0.12,0.029l-0.245,0.096
			c0.021,0.007,0.064,0.018,0.12,0.029l-0.245,0.096c0.021,0.007,0.064,0.018,0.12,0.029l-0.245,0.096
			c0.021,0.007,0.064,0.018,0.12,0.029l-0.245,0.096c0.513,0.136,10.506,2.576,20.562-7.532c0.042-0.041,0.083-0.083,0.125-0.125
			c0.042-0.041,0.083-0.083,0.125-0.125c0.042-0.041,0.083-0.083,0.125-0.125c0.042-0.041,0.083-0.083,0.125-0.125
			c0.042-0.041,0.083-0.083,0.125-0.125c0.042-0.041,0.083-0.083,0.125-0.125c0.042-0.041,0.083-0.083,0.125-0.125
			c0.042-0.041,0.083-0.083,0.125-0.125c0.042-0.041,0.083-0.083,0.125-0.125c0.042-0.041,0.083-0.083,0.125-0.125
			c0.042-0.041,0.083-0.083,0.125-0.125c0.042-0.041,0.083-0.083,0.125-0.125c0.042-0.041,0.083-0.083,0.125-0.125
			c0.042-0.041,0.083-0.083,0.125-0.125c0.042-0.041,0.083-0.083,0.125-0.125c0.042-0.041,0.083-0.083,0.125-0.125
			c0.042-0.041,0.083-0.083,0.125-0.125c0.042-0.041,0.083-0.083,0.125-0.125c0.042-0.041,0.083-0.083,0.125-0.125
			c0.042-0.041,0.083-0.083,0.125-0.125c0.042-0.041,0.083-0.083,0.125-0.125c0.042-0.041,0.083-0.083,0.125-0.125
			c0.042-0.041,0.083-0.083,0.125-0.125c0.042-0.041,0.083-0.083,0.125-0.125c0.042-0.041,0.083-0.083,0.125-0.125
			c0.042-0.041,0.083-0.083,0.125-0.125c0.042-0.041,0.083-0.083,0.125-0.125c0.042-0.041,0.083-0.083,0.125-0.125
			c0.042-0.041,0.083-0.083,0.125-0.125c0.042-0.041,0.083-0.083,0.125-0.125c0.042-0.041,0.083-0.083,0.125-0.125
			c0.042-0.041,0.083-0.083,0.125-0.125c0.042-0.041,0.083-0.083,0.125-0.125c0.042-0.041,0.083-0.083,0.125-0.125
			c0.042-0.041,0.083-0.083,0.125-0.125c0.042-0.041,0.083-0.083,0.125-0.125c0.042-0.041,0.083-0.083,0.125-0.125
			c0.042-0.041,0.083-0.083,0.125-0.125c0.042-0.041,0.083-0.083,0.125-0.125c0.042-0.041,0.083-0.083,0.125-0.125
			c0.042-0.041,0.083-0.083,0.125-0.125c0.042-0.041,0.083-0.083,0.125-0.125c0.042-0.041,0.083-0.083,0.125-0.125
			c0.042-0.041,0.083-0.083,0.125-0.125c0.042-0.041,0.083-0.083,0.125-0.125c0.042-0.041,0.083-0.083,0.125-0.125
			c0.042-0.041,0.083-0.083,0.125-0.125c0.042-0.041,0.083-0.083,0.125-0.125c0.042-0.041,0.083-0.083,0.125-0.125
			c0.042-0.041,0.083-0.083,0.125-0.125c0.042-0.041,0.083-0.083,0.125-0.125c0.042-0.041,0.083-0.083,0.125-0.125
			c0.042-0.041,0.083-0.083,0.125-0.125c0.042-0.041,0.083-0.083,0.125-0.125c0.042-0.041,0.083-0.083,0.125-0.125
			c0.042-0.041,0.083-0.083,0.125-0.125c0.042-0.041,0.083-0.083,0.125-0.125c0.042-0.041,0.083-0.083,0.125-0.125
			c0.042-0.041,0.083-0.083,0.125-0.125c0.042-0.041,0.083-0.083,0.125-0.125c0.042-0.041,0.083-0.083,0.125-0.125
			c0.042-0.041,0.083-0.083,0.125-0.125c0.042-0.041,0.083-0.083,0.125-0.125c0.042-0.041,0.083-0.083,0.125-0.125
			c0.042-0.041,0.083-0.083,0.125-0.125c0.035-0.034,0.069-0.067,0.104-0.103c1.047,0.604,1.878,1.084,2.339,1.351
			c2.563-0.165,3.766-0.698,4.606-1.587c0.042-0.041,0.085-0.082,0.125-0.125c0.042-0.041,0.085-0.082,0.125-0.125
			c0.042-0.041,0.085-0.082,0.125-0.125c0.042-0.041,0.085-0.082,0.125-0.125c0.042-0.041,0.085-0.082,0.125-0.125
			c0.042-0.041,0.085-0.082,0.125-0.125c0.042-0.041,0.085-0.082,0.125-0.125c0.042-0.041,0.085-0.082,0.125-0.125
			c0.042-0.041,0.085-0.082,0.125-0.125c0.042-0.041,0.085-0.082,0.125-0.125c0.042-0.041,0.085-0.082,0.125-0.125
			c0.042-0.041,0.085-0.082,0.125-0.125c0.042-0.041,0.085-0.082,0.125-0.125c0.042-0.041,0.085-0.082,0.125-0.125
			c0.042-0.041,0.085-0.082,0.125-0.125c0.042-0.041,0.085-0.082,0.125-0.125c0.042-0.041,0.085-0.082,0.125-0.125
			c0.042-0.041,0.085-0.082,0.125-0.125c0.042-0.041,0.085-0.082,0.125-0.125c0.042-0.041,0.085-0.082,0.125-0.125
			c0.042-0.041,0.085-0.082,0.125-0.125c0.042-0.041,0.085-0.082,0.125-0.125c0.042-0.041,0.085-0.082,0.125-0.125
			c0.042-0.041,0.085-0.082,0.125-0.125c0.042-0.041,0.085-0.082,0.125-0.125c0.042-0.041,0.085-0.082,0.125-0.125
			c0.042-0.041,0.085-0.082,0.125-0.125c0.042-0.041,0.085-0.082,0.125-0.125c0.042-0.041,0.085-0.082,0.125-0.125
			c0.042-0.041,0.085-0.082,0.125-0.125c0.042-0.041,0.085-0.082,0.125-0.125c0.042-0.041,0.085-0.082,0.125-0.125
			c0.042-0.041,0.085-0.082,0.125-0.125c0.042-0.041,0.085-0.082,0.125-0.125c0.042-0.041,0.085-0.082,0.125-0.125
			c0.042-0.041,0.085-0.082,0.125-0.125c0.042-0.041,0.085-0.082,0.125-0.125c0.042-0.041,0.085-0.082,0.125-0.125
			c0.042-0.041,0.085-0.082,0.125-0.125c0.042-0.041,0.085-0.082,0.125-0.125c0.042-0.041,0.085-0.082,0.125-0.125
			c0.042-0.041,0.085-0.082,0.125-0.125c0.042-0.041,0.085-0.082,0.125-0.125c0.042-0.041,0.085-0.082,0.125-0.125
			c0.042-0.041,0.085-0.082,0.125-0.125c0.042-0.041,0.085-0.082,0.125-0.125c0.042-0.041,0.085-0.082,0.125-0.125
			c0.042-0.041,0.085-0.082,0.125-0.125c0.042-0.041,0.085-0.082,0.125-0.125c0.042-0.041,0.085-0.082,0.125-0.125
			c0.042-0.041,0.085-0.082,0.125-0.125c0.042-0.041,0.085-0.082,0.125-0.125c0.042-0.041,0.085-0.082,0.125-0.125
			c0.042-0.041,0.085-0.082,0.125-0.125c0.042-0.041,0.085-0.082,0.125-0.125c0.042-0.041,0.085-0.082,0.125-0.125
			c0.042-0.041,0.085-0.082,0.125-0.125c0.042-0.041,0.085-0.082,0.125-0.125c0.042-0.041,0.085-0.082,0.125-0.125
			c0.042-0.041,0.085-0.082,0.125-0.125c0.042-0.041,0.085-0.082,0.125-0.125c0.042-0.041,0.085-0.082,0.125-0.125
			c0.042-0.041,0.085-0.082,0.125-0.125c0.042-0.041,0.085-0.082,0.125-0.125c0.042-0.041,0.085-0.082,0.125-0.125
			c0.042-0.041,0.085-0.082,0.125-0.125c0.042-0.041,0.085-0.082,0.125-0.125c0.042-0.041,0.085-0.082,0.125-0.125
			c0.042-0.041,0.085-0.082,0.125-0.125c0.042-0.041,0.085-0.082,0.125-0.125c0.042-0.041,0.085-0.082,0.125-0.125
			c0.042-0.041,0.085-0.082,0.125-0.125c0.042-0.041,0.085-0.082,0.125-0.125c0.042-0.041,0.085-0.082,0.125-0.125
			c0.042-0.041,0.085-0.082,0.125-0.125c0.042-0.041,0.085-0.082,0.125-0.125c0.042-0.041,0.085-0.082,0.125-0.125
			c0.042-0.041,0.085-0.082,0.125-0.125c0.042-0.041,0.085-0.082,0.125-0.125c0.042-0.041,0.085-0.082,0.125-0.125
			c0.042-0.041,0.085-0.082,0.125-0.125c0.042-0.041,0.085-0.082,0.125-0.125c0.042-0.041,0.085-0.082,0.125-0.125
			c0.042-0.041,0.085-0.082,0.125-0.125c0.042-0.041,0.085-0.082,0.125-0.125c0.042-0.041,0.085-0.082,0.125-0.125
			c0.042-0.041,0.085-0.082,0.125-0.125c0.042-0.041,0.085-0.082,0.125-0.125c0.042-0.041,0.085-0.082,0.125-0.125
			c0.042-0.041,0.085-0.082,0.125-0.125c0.042-0.041,0.085-0.082,0.125-0.125c0.042-0.041,0.085-0.082,0.125-0.125
			c0.042-0.041,0.085-0.082,0.125-0.125c0.042-0.041,0.085-0.082,0.125-0.125c0.042-0.041,0.085-0.082,0.125-0.125
			c0.042-0.041,0.085-0.082,0.125-0.125c0.042-0.041,0.085-0.082,0.125-0.125c0.042-0.041,0.085-0.082,0.125-0.125
			c0.042-0.041,0.085-0.082,0.125-0.125c0.042-0.041,0.085-0.082,0.125-0.125c0.042-0.041,0.085-0.082,0.125-0.125
			c0.042-0.041,0.085-0.082,0.125-0.125c0.042-0.041,0.085-0.082,0.125-0.125c0.042-0.041,0.085-0.082,0.125-0.125
			c0.042-0.041,0.085-0.082,0.125-0.125c0.042-0.041,0.085-0.082,0.125-0.125c0.042-0.041,0.085-0.082,0.125-0.125
			c0.042-0.041,0.085-0.082,0.125-0.125c0.042-0.041,0.085-0.082,0.125-0.125c0.042-0.041,0.085-0.082,0.125-0.125
			c0.042-0.041,0.085-0.082,0.125-0.125c0.042-0.041,0.085-0.082,0.125-0.125c0.042-0.041,0.085-0.082,0.125-0.125
			c0.042-0.041,0.085-0.082,0.125-0.125c0.042-0.041,0.085-0.082,0.125-0.125c0.042-0.041,0.085-0.082,0.125-0.125
			c0.042-0.041,0.085-0.082,0.125-0.125c0.042-0.041,0.085-0.082,0.125-0.125c0.042-0.041,0.085-0.082,0.125-0.125
			c0.042-0.041,0.085-0.082,0.125-0.125c0.042-0.041,0.085-0.082,0.125-0.125c0.042-0.041,0.085-0.082,0.125-0.125
			c0.042-0.041,0.085-0.082,0.125-0.125c0.042-0.041,0.085-0.082,0.125-0.125c0.042-0.041,0.085-0.082,0.125-0.125
			c0.042-0.041,0.085-0.082,0.125-0.125c0.042-0.041,0.085-0.082,0.125-0.125c0.042-0.041,0.085-0.082,0.125-0.125
			c0.042-0.041,0.085-0.082,0.125-0.125c0.042-0.041,0.085-0.082,0.125-0.125c0.042-0.041,0.085-0.082,0.125-0.125
			c0.042-0.041,0.085-0.082,0.125-0.125c0.042-0.041,0.085-0.082,0.125-0.125c0.042-0.041,0.085-0.082,0.125-0.125
			c0.042-0.041,0.085-0.082,0.125-0.125c0.042-0.041,0.085-0.082,0.125-0.125c0.042-0.041,0.085-0.082,0.125-0.125
			c0.042-0.041,0.085-0.082,0.125-0.125c0.042-0.041,0.085-0.082,0.125-0.125c0.042-0.041,0.085-0.082,0.125-0.125
			c0.042-0.041,0.085-0.082,0.125-0.125c0.042-0.041,0.085-0.082,0.125-0.125c0.042-0.041,0.085-0.082,0.125-0.125
			c0.042-0.041,0.085-0.082,0.125-0.125c0.042-0.041,0.085-0.082,0.125-0.125c0.042-0.041,0.085-0.082,0.125-0.125
			c0.042-0.041,0.085-0.082,0.125-0.125c0.042-0.041,0.085-0.082,0.125-0.125c0.042-0.041,0.085-0.082,0.125-0.125
			c0.042-0.041,0.085-0.082,0.125-0.125c0.042-0.041,0.085-0.082,0.125-0.125c0.042-0.041,0.085-0.082,0.125-0.125
			c0.042-0.041,0.085-0.082,0.125-0.125c0.042-0.041,0.085-0.082,0.125-0.125c0.042-0.041,0.085-0.082,0.125-0.125
			c0.042-0.041,0.085-0.082,0.125-0.125c0.042-0.041,0.085-0.082,0.125-0.125c0.042-0.041,0.085-0.082,0.125-0.125
			c0.042-0.041,0.085-0.082,0.125-0.125c0.042-0.041,0.085-0.082,0.125-0.125c0.042-0.041,0.085-0.082,0.125-0.125
			c0.042-0.041,0.085-0.082,0.125-0.125c0.042-0.041,0.085-0.082,0.125-0.125c0.042-0.041,0.085-0.082,0.125-0.125
			c0.042-0.041,0.085-0.082,0.125-0.125c0.042-0.041,0.085-0.082,0.125-0.125c0.042-0.041,0.085-0.082,0.125-0.125
			c0.042-0.041,0.085-0.082,0.125-0.125c0.042-0.041,0.085-0.082,0.125-0.125c0.042-0.041,0.085-0.082,0.125-0.125
			c0.042-0.041,0.085-0.082,0.125-0.125c0.042-0.041,0.085-0.082,0.125-0.125c0.042-0.041,0.085-0.082,0.125-0.125
			c0.042-0.041,0.085-0.082,0.125-0.125c0.042-0.041,0.085-0.082,0.125-0.125c0.042-0.041,0.085-0.082,0.125-0.125
			c0.042-0.041,0.085-0.082,0.125-0.125c0.042-0.041,0.085-0.082,0.125-0.125c0.042-0.041,0.085-0.082,0.125-0.125
			c0.042-0.041,0.085-0.082,0.125-0.125c0.042-0.041,0.085-0.082,0.125-0.125c0.042-0.041,0.085-0.082,0.125-0.125
			c0.042-0.041,0.085-0.082,0.125-0.125c0.042-0.041,0.085-0.082,0.125-0.125c0.042-0.041,0.085-0.082,0.125-0.125
			c0.042-0.041,0.085-0.082,0.125-0.125c0.042-0.041,0.085-0.082,0.125-0.125c0.042-0.041,0.085-0.082,0.125-0.125
			c0.042-0.041,0.085-0.082,0.125-0.125c0.042-0.041,0.085-0.082,0.125-0.125c0.042-0.041,0.085-0.082,0.125-0.125
			c0.042-0.041,0.085-0.082,0.125-0.125c0.042-0.041,0.085-0.082,0.125-0.125c0.042-0.041,0.085-0.082,0.125-0.125
			c0.042-0.041,0.085-0.082,0.125-0.125c0.042-0.041,0.085-0.082,0.125-0.125c0.042-0.041,0.085-0.082,0.125-0.125
			c0.042-0.041,0.085-0.082,0.125-0.125c0.042-0.041,0.085-0.082,0.125-0.125c0.042-0.041,0.085-0.082,0.125-0.125
			c0.042-0.041,0.085-0.082,0.125-0.125c0.042-0.041,0.085-0.082,0.125-0.125c0.042-0.041,0.085-0.082,0.125-0.125
			c0.042-0.041,0.085-0.082,0.125-0.125c0.042-0.041,0.085-0.082,0.125-0.125c0.042-0.041,0.085-0.082,0.125-0.125
			c0.042-0.041,0.085-0.082,0.125-0.125c0.042-0.041,0.085-0.082,0.125-0.125c0.042-0.041,0.085-0.082,0.125-0.125
			c0.042-0.041,0.085-0.082,0.125-0.125c0.042-0.041,0.085-0.082,0.125-0.125c0.042-0.041,0.085-0.082,0.125-0.125
			c0.042-0.041,0.085-0.082,0.125-0.125c0.042-0.041,0.085-0.082,0.125-0.125c0.042-0.041,0.085-0.082,0.125-0.125
			c0.042-0.041,0.085-0.082,0.125-0.125c0.042-0.041,0.085-0.082,0.125-0.125c0.042-0.041,0.085-0.082,0.125-0.125
			c0.042-0.041,0.085-0.082,0.125-0.125c0.042-0.041,0.085-0.082,0.125-0.125c0.042-0.041,0.085-0.082,0.125-0.125
			c0.042-0.041,0.085-0.082,0.125-0.125c0.014-0.014,0.025-0.029,0.039-0.043c0.073-0.067,0.144-0.137,0.211-0.207
			c0.042-0.041,0.085-0.082,0.125-0.125c0.042-0.041,0.085-0.082,0.125-0.125c0.042-0.041,0.085-0.082,0.125-0.125
			c0.042-0.041,0.085-0.082,0.125-0.125c0.042-0.041,0.085-0.082,0.125-0.125c0.042-0.041,0.085-0.082,0.125-0.125
			c0.042-0.041,0.085-0.082,0.125-0.125c0.042-0.041,0.085-0.082,0.125-0.125c0.042-0.041,0.085-0.082,0.125-0.125
			c0.042-0.041,0.085-0.082,0.125-0.125c0.042-0.041,0.085-0.082,0.125-0.125c0.042-0.041,0.085-0.082,0.125-0.125
			c0.042-0.041,0.085-0.082,0.125-0.125c0.042-0.041,0.085-0.082,0.125-0.125c0.042-0.041,0.085-0.082,0.125-0.125
			c0.042-0.041,0.085-0.082,0.125-0.125c0.042-0.041,0.085-0.082,0.125-0.125c0.042-0.041,0.085-0.082,0.125-0.125
			c0.042-0.041,0.085-0.082,0.125-0.125c0.042-0.041,0.085-0.082,0.125-0.125c0.042-0.041,0.085-0.082,0.125-0.125
			c0.042-0.041,0.085-0.082,0.125-0.125c0.042-0.041,0.085-0.082,0.125-0.125c0.042-0.041,0.085-0.082,0.125-0.125
			c0.042-0.041,0.085-0.082,0.125-0.125c0.042-0.041,0.085-0.082,0.125-0.125c0.042-0.041,0.085-0.082,0.125-0.125
			c0.042-0.041,0.085-0.082,0.125-0.125c0.042-0.041,0.085-0.082,0.125-0.125c0.042-0.041,0.085-0.082,0.125-0.125
			c0.042-0.041,0.085-0.082,0.125-0.125c0.042-0.041,0.085-0.082,0.125-0.125c0.042-0.041,0.085-0.082,0.125-0.125
			c0.042-0.041,0.085-0.082,0.125-0.125c0.042-0.041,0.085-0.082,0.125-0.125c0.042-0.041,0.085-0.082,0.125-0.125
			c0.042-0.041,0.085-0.082,0.125-0.125c0.042-0.041,0.085-0.082,0.125-0.125c0.042-0.041,0.085-0.082,0.125-0.125
			c0.042-0.041,0.085-0.082,0.125-0.125c0.042-0.041,0.085-0.082,0.125-0.125c0.042-0.041,0.085-0.082,0.125-0.125
			c0.042-0.041,0.085-0.082,0.125-0.125c0.042-0.041,0.085-0.082,0.125-0.125c0.042-0.041,0.085-0.082,0.125-0.125
			c0.042-0.041,0.085-0.082,0.125-0.125c0.042-0.041,0.085-0.082,0.125-0.125c0.042-0.041,0.085-0.082,0.125-0.125
			c0.042-0.041,0.085-0.082,0.125-0.125c0.042-0.041,0.085-0.082,0.125-0.125c0.042-0.041,0.085-0.082,0.125-0.125
			c0.042-0.041,0.085-0.082,0.125-0.125c0.042-0.041,0.085-0.082,0.125-0.125c0.042-0.041,0.085-0.082,0.125-0.125
			c0.042-0.041,0.085-0.082,0.125-0.125c0.042-0.041,0.085-0.082,0.125-0.125c0.042-0.041,0.085-0.082,0.125-0.125
			c0.042-0.041,0.085-0.082,0.125-0.125c0.042-0.041,0.085-0.082,0.125-0.125c0.042-0.041,0.085-0.082,0.125-0.125
			c0.042-0.041,0.085-0.082,0.125-0.125c0.042-0.041,0.085-0.082,0.125-0.125c0.042-0.041,0.085-0.082,0.125-0.125
			c0.042-0.041,0.085-0.082,0.125-0.125c0.042-0.041,0.085-0.082,0.125-0.125c0.042-0.041,0.085-0.082,0.125-0.125
			c0.042-0.041,0.085-0.082,0.125-0.125c0.042-0.041,0.085-0.082,0.125-0.125c0.042-0.041,0.085-0.082,0.125-0.125
			c0.042-0.041,0.085-0.082,0.125-0.125c0.042-0.041,0.085-0.082,0.125-0.125c0.042-0.041,0.085-0.082,0.125-0.125
			c0.042-0.041,0.085-0.082,0.125-0.125c0.042-0.041,0.085-0.082,0.125-0.125c0.042-0.041,0.085-0.082,0.125-0.125
			c0.042-0.041,0.085-0.082,0.125-0.125c0.042-0.041,0.085-0.082,0.125-0.125c0.042-0.041,0.085-0.082,0.125-0.125
			c0.042-0.041,0.085-0.082,0.125-0.125c0.042-0.041,0.085-0.082,0.125-0.125c0.042-0.041,0.085-0.082,0.125-0.125
			c0.042-0.041,0.085-0.082,0.125-0.125c0.042-0.041,0.085-0.082,0.125-0.125c0.042-0.041,0.085-0.082,0.125-0.125
			c0.042-0.041,0.085-0.082,0.125-0.125c0.042-0.041,0.085-0.082,0.125-0.125c0.042-0.041,0.085-0.082,0.125-0.125
			c0.042-0.041,0.085-0.082,0.125-0.125c0.042-0.041,0.085-0.082,0.125-0.125c0.042-0.041,0.085-0.082,0.125-0.125
			c0.042-0.041,0.085-0.082,0.125-0.125c0.042-0.041,0.085-0.082,0.125-0.125c0.042-0.041,0.085-0.082,0.125-0.125
			c0.042-0.041,0.085-0.082,0.125-0.125c0.042-0.041,0.085-0.082,0.125-0.125c0.042-0.041,0.085-0.082,0.125-0.125
			c0.042-0.041,0.085-0.082,0.125-0.125c0.042-0.041,0.085-0.082,0.125-0.125c0.042-0.041,0.085-0.082,0.125-0.125
			c0.042-0.041,0.085-0.082,0.125-0.125c0.042-0.041,0.085-0.082,0.125-0.125c0.042-0.041,0.085-0.082,0.125-0.125
			c0.042-0.041,0.085-0.082,0.125-0.125c0.042-0.041,0.085-0.082,0.125-0.125c0.042-0.041,0.085-0.082,0.125-0.125
			c0.042-0.041,0.085-0.082,0.125-0.125c0.042-0.041,0.085-0.082,0.125-0.125c0.042-0.041,0.085-0.082,0.125-0.125
			c0.042-0.041,0.085-0.082,0.125-0.125c0.042-0.041,0.085-0.082,0.125-0.125c0.042-0.041,0.085-0.082,0.125-0.125
			c0.042-0.041,0.085-0.082,0.125-0.125c0.042-0.041,0.085-0.082,0.125-0.125c0.042-0.041,0.085-0.082,0.125-0.125
			c0.042-0.041,0.085-0.082,0.125-0.125c0.042-0.041,0.085-0.082,0.125-0.125c0.042-0.041,0.085-0.082,0.125-0.125
			c0.042-0.041,0.085-0.082,0.125-0.125c0.042-0.041,0.085-0.082,0.125-0.125c0.042-0.041,0.085-0.082,0.125-0.125
			c0.042-0.041,0.085-0.082,0.125-0.125c0.042-0.041,0.085-0.082,0.125-0.125c0.042-0.041,0.085-0.082,0.125-0.125
			c0.042-0.041,0.085-0.082,0.125-0.125c0.042-0.041,0.085-0.082,0.125-0.125c0.042-0.041,0.085-0.082,0.125-0.125
			c0.042-0.041,0.085-0.082,0.125-0.125c0.042-0.041,0.085-0.082,0.125-0.125c0.042-0.041,0.085-0.082,0.125-0.125
			c0.042-0.041,0.085-0.082,0.125-0.125c0.042-0.041,0.085-0.082,0.125-0.125c0.042-0.041,0.085-0.082,0.125-0.125
			c0.042-0.041,0.085-0.082,0.125-0.125c0.042-0.041,0.085-0.082,0.125-0.125c0.042-0.041,0.085-0.082,0.125-0.125
			c0.042-0.041,0.085-0.082,0.125-0.125c0.042-0.041,0.085-0.082,0.125-0.125c0.042-0.041,0.085-0.082,0.125-0.125
			c0.042-0.041,0.085-0.082,0.125-0.125c0.042-0.041,0.085-0.082,0.125-0.125c0.042-0.041,0.085-0.082,0.125-0.125
			c0.042-0.041,0.085-0.082,0.125-0.125c0.042-0.041,0.085-0.082,0.125-0.125c0.042-0.041,0.085-0.082,0.125-0.125
			c0.042-0.041,0.085-0.082,0.125-0.125c0.042-0.041,0.085-0.082,0.125-0.125c0.042-0.041,0.085-0.082,0.125-0.125
			c0.042-0.041,0.085-0.082,0.125-0.125c0.042-0.041,0.085-0.082,0.125-0.125c0.042-0.041,0.085-0.082,0.125-0.125
			c0.042-0.041,0.085-0.082,0.125-0.125c0.042-0.041,0.085-0.082,0.125-0.125c0.042-0.041,0.085-0.082,0.125-0.125
			c0.042-0.041,0.085-0.082,0.125-0.125c0.042-0.041,0.085-0.082,0.125-0.125c0.042-0.041,0.085-0.082,0.125-0.125
			c0.042-0.041,0.085-0.082,0.125-0.125c0.042-0.041,0.085-0.082,0.125-0.125c0.042-0.041,0.085-0.082,0.125-0.125
			c0.042-0.041,0.085-0.082,0.125-0.125c0.042-0.041,0.085-0.082,0.125-0.125c0.042-0.041,0.085-0.082,0.125-0.125
			c0.042-0.041,0.085-0.082,0.125-0.125c0.042-0.041,0.085-0.082,0.125-0.125c0.042-0.041,0.085-0.082,0.125-0.125
			c0.042-0.041,0.085-0.082,0.125-0.125c0.042-0.041,0.085-0.082,0.125-0.125c0.042-0.041,0.085-0.082,0.125-0.125
			c0.042-0.041,0.085-0.082,0.125-0.125c0.042-0.041,0.085-0.082,0.125-0.125c0.042-0.041,0.085-0.082,0.125-0.125
			c0.042-0.041,0.085-0.082,0.125-0.125c0.042-0.041,0.085-0.082,0.125-0.125c0.042-0.041,0.085-0.082,0.125-0.125
			c0.042-0.041,0.085-0.082,0.125-0.125c0.042-0.041,0.085-0.082,0.125-0.125c0.042-0.041,0.085-0.082,0.125-0.125
			c0.042-0.041,0.085-0.082,0.125-0.125c0.042-0.041,0.085-0.082,0.125-0.125c0.042-0.041,0.085-0.082,0.125-0.125
			c0.042-0.041,0.085-0.082,0.125-0.125c0.042-0.041,0.085-0.082,0.125-0.125c0.042-0.041,0.085-0.082,0.125-0.125
			c0.042-0.041,0.085-0.082,0.125-0.125c0.042-0.041,0.085-0.082,0.125-0.125c0.042-0.041,0.085-0.082,0.125-0.125
			c0.042-0.041,0.085-0.082,0.125-0.125c0.042-0.041,0.085-0.082,0.125-0.125c0.042-0.041,0.085-0.082,0.125-0.125
			c0.042-0.041,0.085-0.082,0.125-0.125c0.042-0.041,0.085-0.082,0.125-0.125c0.042-0.041,0.085-0.082,0.125-0.125
			c0.042-0.041,0.085-0.082,0.125-0.125c0.042-0.041,0.085-0.082,0.125-0.125c0.042-0.041,0.085-0.082,0.125-0.125
			c0.042-0.041,0.085-0.082,0.125-0.125c0.042-0.041,0.085-0.082,0.125-0.125c0.042-0.041,0.085-0.082,0.125-0.125
			c0.042-0.041,0.085-0.082,0.125-0.125c0.042-0.041,0.085-0.082,0.125-0.125c0.042-0.041,0.085-0.082,0.125-0.125
			c0.042-0.041,0.085-0.082,0.125-0.125c0.042-0.041,0.085-0.082,0.125-0.125c0.042-0.041,0.085-0.082,0.125-0.125
			c0.042-0.041,0.085-0.082,0.125-0.125c0.042-0.041,0.085-0.082,0.125-0.125c0.042-0.041,0.085-0.082,0.125-0.125
			c0.042-0.041,0.085-0.082,0.125-0.125c0.042-0.041,0.085-0.082,0.125-0.125c0.042-0.041,0.085-0.082,0.125-0.125
			c0.042-0.041,0.085-0.082,0.125-0.125c0.042-0.041,0.085-0.082,0.125-0.125c0.042-0.041,0.085-0.082,0.125-0.125
			c0.042-0.041,0.085-0.082,0.125-0.125c0.042-0.041,0.085-0.082,0.125-0.125c0.042-0.041,0.085-0.082,0.125-0.125
			c0.042-0.041,0.085-0.082,0.125-0.125c0.042-0.041,0.085-0.082,0.125-0.125c0.042-0.041,0.085-0.082,0.125-0.125
			c0.042-0.041,0.085-0.082,0.125-0.125c0.042-0.041,0.085-0.082,0.125-0.125c0.042-0.041,0.085-0.082,0.125-0.125
			c0.042-0.041,0.085-0.082,0.125-0.125c0.042-0.041,0.085-0.082,0.125-0.125c0.042-0.041,0.085-0.082,0.125-0.125
			c0.042-0.041,0.085-0.082,0.125-0.125c0.042-0.041,0.085-0.082,0.125-0.125c0.042-0.041,0.085-0.082,0.125-0.125
			c0.042-0.041,0.085-0.082,0.125-0.125c0.042-0.041,0.085-0.082,0.125-0.125c0.042-0.041,0.085-0.082,0.125-0.125
			c0.042-0.041,0.085-0.082,0.125-0.125c0.042-0.041,0.085-0.082,0.125-0.125c0.042-0.041,0.085-0.082,0.125-0.125
			c0.042-0.041,0.085-0.082,0.125-0.125c0.042-0.041,0.085-0.082,0.125-0.125c0.042-0.041,0.085-0.082,0.125-0.125
			c0.042-0.041,0.085-0.082,0.125-0.125c0.042-0.041,0.085-0.082,0.125-0.125c0.042-0.041,0.085-0.082,0.125-0.125
			c0.042-0.041,0.085-0.082,0.125-0.125c0.042-0.041,0.085-0.082,0.125-0.125c0.042-0.041,0.085-0.082,0.125-0.125
			c0.042-0.041,0.085-0.082,0.125-0.125c0.042-0.041,0.085-0.082,0.125-0.125c0.042-0.041,0.085-0.082,0.125-0.125
			c0.042-0.041,0.085-0.082,0.125-0.125c0.042-0.041,0.085-0.082,0.125-0.125c0.042-0.041,0.085-0.082,0.125-0.125
			c0.042-0.041,0.085-0.082,0.125-0.125c0.042-0.041,0.085-0.082,0.125-0.125c0.042-0.041,0.085-0.082,0.125-0.125
			c0.042-0.041,0.085-0.082,0.125-0.125c0.042-0.041,0.085-0.082,0.125-0.125c0.042-0.041,0.085-0.082,0.125-0.125
			c0.042-0.041,0.085-0.082,0.125-0.125c0.042-0.041,0.085-0.082,0.125-0.125c0.042-0.041,0.085-0.082,0.125-0.125
			c0.042-0.041,0.085-0.082,0.125-0.125c0.042-0.041,0.085-0.082,0.125-0.125c0.042-0.041,0.085-0.082,0.125-0.125
			c0.042-0.041,0.085-0.082,0.125-0.125c0.042-0.041,0.085-0.082,0.125-0.125c0.042-0.041,0.085-0.082,0.125-0.125
			c0.042-0.041,0.085-0.082,0.125-0.125c0.042-0.041,0.085-0.082,0.125-0.125c0.042-0.041,0.085-0.082,0.125-0.125
			c0.042-0.041,0.085-0.082,0.125-0.125c0.042-0.041,0.085-0.082,0.125-0.125c0.042-0.041,0.085-0.082,0.125-0.125
			c0.042-0.041,0.085-0.082,0.125-0.125c0.042-0.041,0.085-0.082,0.125-0.125c0.042-0.041,0.085-0.082,0.125-0.125
			c0.042-0.041,0.085-0.082,0.125-0.125c0.042-0.041,0.085-0.082,0.125-0.125c0.042-0.041,0.085-0.082,0.125-0.125
			c0.042-0.041,0.085-0.082,0.125-0.125c0.042-0.041,0.085-0.082,0.125-0.125c0.042-0.041,0.085-0.082,0.125-0.125
			c0.042-0.041,0.085-0.082,0.125-0.125c0.042-0.041,0.085-0.082,0.125-0.125c0.042-0.041,0.085-0.082,0.125-0.125
			c0.042-0.041,0.085-0.082,0.125-0.125c0.042-0.041,0.085-0.082,0.125-0.125c0.042-0.041,0.085-0.082,0.125-0.125
			c0.042-0.041,0.085-0.082,0.125-0.125c0.042-0.041,0.085-0.082,0.125-0.125c0.042-0.041,0.085-0.082,0.125-0.125
			c0.042-0.041,0.085-0.082,0.125-0.125c0.042-0.041,0.085-0.082,0.125-0.125c0.042-0.041,0.085-0.082,0.125-0.125
			c0.042-0.041,0.085-0.082,0.125-0.125c0.042-0.041,0.085-0.082,0.125-0.125c0.042-0.041,0.085-0.082,0.125-0.125
			c0.042-0.041,0.085-0.082,0.125-0.125c0.042-0.041,0.085-0.082,0.125-0.125c0.042-0.041,0.085-0.082,0.125-0.125
			c0.042-0.041,0.085-0.082,0.125-0.125c0.042-0.041,0.085-0.082,0.125-0.125c0.042-0.041,0.085-0.082,0.125-0.125
			c0.042-0.041,0.085-0.082,0.125-0.125c0.042-0.041,0.085-0.082,0.125-0.125c0.042-0.041,0.085-0.082,0.125-0.125
			c0.042-0.041,0.085-0.082,0.125-0.125c0.042-0.041,0.085-0.082,0.125-0.125c0.042-0.041,0.085-0.082,0.125-0.125
			c0.042-0.041,0.085-0.082,0.125-0.125c0.042-0.041,0.085-0.082,0.125-0.125c0.042-0.041,0.085-0.082,0.125-0.125
			c0.042-0.041,0.085-0.082,0.125-0.125c0.042-0.041,0.085-0.082,0.125-0.125c0.042-0.041,0.085-0.082,0.125-0.125
			c0.042-0.041,0.085-0.082,0.125-0.125c0.042-0.041,0.085-0.082,0.125-0.125c0.042-0.041,0.085-0.082,0.125-0.125
			c0.042-0.041,0.085-0.082,0.125-0.125c0.042-0.041,0.085-0.082,0.125-0.125c0.042-0.041,0.085-0.082,0.125-0.125
			c0.042-0.041,0.085-0.082,0.125-0.125c0.042-0.041,0.085-0.082,0.125-0.125c0.057-0.057,0.113-0.112,0.167-0.172
			c0.027-0.026,0.057-0.051,0.083-0.078c0.042-0.041,0.085-0.082,0.125-0.125c0.042-0.041,0.085-0.082,0.125-0.125
			c0.042-0.041,0.085-0.082,0.125-0.125c0.042-0.041,0.085-0.082,0.125-0.125c0.042-0.041,0.085-0.082,0.125-0.125
			c0.042-0.041,0.085-0.082,0.125-0.125c0.042-0.041,0.085-0.082,0.125-0.125c0.042-0.041,0.085-0.082,0.125-0.125
			c0.042-0.041,0.085-0.082,0.125-0.125c0.042-0.041,0.085-0.082,0.125-0.125c0.042-0.041,0.085-0.082,0.125-0.125
			c0.042-0.041,0.085-0.082,0.125-0.125c0.042-0.041,0.085-0.082,0.125-0.125c0.042-0.041,0.085-0.082,0.125-0.125
			c0.042-0.041,0.085-0.082,0.125-0.125c0.042-0.041,0.085-0.082,0.125-0.125c0.042-0.041,0.085-0.082,0.125-0.125
			c0.042-0.041,0.085-0.082,0.125-0.125c0.042-0.041,0.085-0.082,0.125-0.125c0.042-0.041,0.085-0.082,0.125-0.125
			c0.042-0.041,0.085-0.082,0.125-0.125c0.042-0.041,0.085-0.082,0.125-0.125c0.042-0.041,0.085-0.082,0.125-0.125
			c0.042-0.041,0.085-0.082,0.125-0.125c0.042-0.041,0.085-0.082,0.125-0.125c0.042-0.041,0.085-0.082,0.125-0.125
			c0.042-0.041,0.085-0.082,0.125-0.125c0.042-0.041,0.085-0.082,0.125-0.125c0.042-0.041,0.085-0.082,0.125-0.125
			c0.042-0.041,0.085-0.082,0.125-0.125c0.042-0.041,0.085-0.082,0.125-0.125c0.042-0.041,0.085-0.082,0.125-0.125
			c0.042-0.041,0.085-0.082,0.125-0.125c0.042-0.041,0.085-0.082,0.125-0.125c0.042-0.041,0.085-0.082,0.125-0.125
			c0.042-0.041,0.085-0.082,0.125-0.125c0.042-0.041,0.085-0.082,0.125-0.125c0.042-0.041,0.085-0.082,0.125-0.125
			c0.042-0.041,0.085-0.082,0.125-0.125c0.042-0.041,0.085-0.082,0.125-0.125c0.042-0.041,0.085-0.082,0.125-0.125
			c0.042-0.041,0.085-0.082,0.125-0.125c0.042-0.041,0.085-0.082,0.125-0.125c0.042-0.041,0.085-0.082,0.125-0.125
			c0.042-0.041,0.085-0.082,0.125-0.125c0.042-0.041,0.085-0.082,0.125-0.125c0.042-0.041,0.085-0.082,0.125-0.125
			c0.042-0.041,0.085-0.082,0.125-0.125c0.042-0.041,0.085-0.082,0.125-0.125c0.042-0.041,0.085-0.082,0.125-0.125
			c0.042-0.041,0.085-0.082,0.125-0.125c0.042-0.041,0.085-0.082,0.125-0.125c0.042-0.041,0.085-0.082,0.125-0.125
			c0.042-0.041,0.085-0.082,0.125-0.125c0.042-0.041,0.085-0.082,0.125-0.125c0.042-0.041,0.085-0.082,0.125-0.125
			c0.042-0.041,0.085-0.082,0.125-0.125c0.042-0.041,0.085-0.082,0.125-0.125c0.042-0.041,0.085-0.082,0.125-0.125
			c0.042-0.041,0.085-0.082,0.125-0.125c0.042-0.041,0.085-0.082,0.125-0.125c0.042-0.041,0.085-0.082,0.125-0.125
			c0.042-0.041,0.085-0.082,0.125-0.125c0.042-0.041,0.085-0.082,0.125-0.125c0.042-0.041,0.085-0.082,0.125-0.125
			c0.042-0.041,0.085-0.082,0.125-0.125c0.042-0.041,0.085-0.082,0.125-0.125c0.042-0.041,0.085-0.082,0.125-0.125
			c0.042-0.041,0.085-0.082,0.125-0.125c0.042-0.041,0.085-0.082,0.125-0.125c0.042-0.041,0.085-0.082,0.125-0.125
			c0.042-0.041,0.085-0.082,0.125-0.125c0.042-0.041,0.085-0.082,0.125-0.125c0.042-0.041,0.085-0.082,0.125-0.125
			c0.042-0.041,0.085-0.082,0.125-0.125c0.042-0.041,0.085-0.082,0.125-0.125c0.042-0.041,0.085-0.082,0.125-0.125
			c0.042-0.041,0.085-0.082,0.125-0.125c0.042-0.041,0.085-0.082,0.125-0.125c0.042-0.041,0.085-0.082,0.125-0.125
			c0.042-0.041,0.085-0.082,0.125-0.125c0.042-0.041,0.085-0.082,0.125-0.125c0.042-0.041,0.085-0.082,0.125-0.125
			c0.042-0.041,0.085-0.082,0.125-0.125c0.042-0.041,0.085-0.082,0.125-0.125c0.042-0.041,0.085-0.082,0.125-0.125
			c0.042-0.041,0.085-0.082,0.125-0.125c0.042-0.041,0.085-0.082,0.125-0.125c0.042-0.041,0.085-0.082,0.125-0.125
			c0.042-0.041,0.085-0.082,0.125-0.125c0.042-0.041,0.085-0.082,0.125-0.125c0.042-0.041,0.085-0.082,0.125-0.125
			c0.042-0.041,0.085-0.082,0.125-0.125c0.042-0.041,0.085-0.082,0.125-0.125c0.042-0.041,0.085-0.082,0.125-0.125
			c0.042-0.041,0.085-0.082,0.125-0.125c0.042-0.041,0.085-0.082,0.125-0.125c0.042-0.041,0.085-0.082,0.125-0.125
			c0.042-0.041,0.085-0.082,0.125-0.125c0.042-0.041,0.085-0.082,0.125-0.125c0.042-0.041,0.085-0.082,0.125-0.125
			c0.042-0.041,0.084-0.082,0.125-0.125c0.042-0.041,0.084-0.082,0.125-0.125c0.042-0.041,0.084-0.082,0.125-0.125
			c0.042-0.041,0.084-0.082,0.125-0.125c0.042-0.041,0.084-0.082,0.125-0.125c0.042-0.041,0.084-0.082,0.125-0.125
			c0.042-0.041,0.084-0.082,0.125-0.125c0.042-0.041,0.084-0.082,0.125-0.125c0.042-0.041,0.084-0.082,0.125-0.125
			c0.042-0.041,0.084-0.082,0.125-0.125c0.042-0.041,0.084-0.082,0.125-0.125c0.042-0.041,0.084-0.082,0.125-0.125
			c0.042-0.041,0.084-0.082,0.125-0.125c0.042-0.041,0.084-0.082,0.125-0.125c0.042-0.041,0.084-0.082,0.125-0.125
			c0.042-0.041,0.084-0.082,0.125-0.125c0.042-0.041,0.084-0.082,0.125-0.125c0.042-0.041,0.084-0.082,0.125-0.125
			c0.042-0.041,0.084-0.082,0.125-0.125c0.042-0.041,0.084-0.082,0.125-0.125c0.042-0.041,0.084-0.082,0.125-0.125
			c0.042-0.041,0.084-0.082,0.125-0.125c0.042-0.041,0.084-0.082,0.125-0.125c0.042-0.041,0.084-0.082,0.125-0.125
			c0.042-0.041,0.084-0.082,0.125-0.125c0.042-0.041,0.084-0.082,0.125-0.125c0.042-0.041,0.084-0.082,0.125-0.125
			c0.042-0.041,0.084-0.082,0.125-0.125c0.042-0.041,0.084-0.082,0.125-0.125c0.042-0.041,0.084-0.082,0.125-0.125
			c0.042-0.041,0.084-0.082,0.125-0.125c0.042-0.041,0.084-0.082,0.125-0.125c0.042-0.041,0.084-0.082,0.125-0.125
			c0.042-0.041,0.084-0.082,0.125-0.125c0.042-0.041,0.084-0.082,0.125-0.125c0.042-0.041,0.084-0.082,0.125-0.125
			c0.042-0.041,0.084-0.082,0.125-0.125c0.042-0.041,0.084-0.082,0.125-0.125c0.042-0.041,0.084-0.082,0.125-0.125
			c0.042-0.041,0.084-0.082,0.125-0.125c0.042-0.041,0.084-0.082,0.125-0.125c0.042-0.041,0.084-0.082,0.125-0.125
			c0.042-0.041,0.084-0.082,0.125-0.125c0.042-0.041,0.084-0.082,0.125-0.125c0.042-0.041,0.084-0.082,0.125-0.125
			c0.042-0.041,0.084-0.082,0.125-0.125c0.042-0.041,0.084-0.082,0.125-0.125c0.042-0.041,0.084-0.082,0.125-0.125
			c0.042-0.041,0.084-0.082,0.125-0.125c0.042-0.041,0.084-0.082,0.125-0.125c0.042-0.041,0.084-0.082,0.125-0.125
			c0.042-0.041,0.084-0.082,0.125-0.125c0.544-0.53,0.933-1.43,1.396-2.231C73.893,76.66,76.201,73,78.18,69h0.006l0.065,0.119
			l0.06,0.104l0.065-0.056l0.06,0.019l0.065-0.1l0.06-0.004l0.065-0.109l0.06-0.011l0.065-0.112l0.06-0.011l0.065-0.112l0.06-0.013
			l0.065-0.112l0.06-0.013l0.065-0.112l0.06-0.013l0.065-0.112l0.06-0.013l0.065-0.112l0.06-0.013l0.065-0.112l0.06-0.013
			l0.065-0.112l0.06-0.013l0.065-0.112l0.06-0.013l0.065-0.112l0.06-0.013l0.065-0.112l0.06-0.013l0.065-0.112l0.06-0.013
			l0.065-0.112l0.06-0.013l0.065-0.112l0.06-0.013l0.065-0.112l0.06-0.013l0.065-0.112l0.06-0.013l0.065-0.112l0.06-0.013
			l0.065-0.112l0.06-0.013l0.065-0.112l0.06-0.013l0.065-0.112l0.06-0.013l0.065-0.112l0.06-0.013l0.065-0.112l0.06-0.013
			l0.065-0.112l0.06-0.013l0.065-0.112l0.06-0.013l0.065-0.112l0.06-0.013l0.065-0.112l0.06-0.013l0.065-0.112l0.06-0.013
			l0.065-0.112l0.06-0.013l0.065-0.112l0.06-0.013l0.065-0.112l0.06-0.013l0.065-0.112l0.06-0.013l0.065-0.114l0.06-0.011
			l0.065-0.114l0.06-0.011l0.065-0.114l0.06-0.011l0.065-0.114l0.06-0.011l0.065-0.114l0.06-0.011l0.065-0.114l0.06-0.011
			l0.065-0.114l0.06-0.011l0.065-0.114l0.06-0.011l0.065-0.114l0.06-0.011l0.065-0.114l0.06-0.011l0.065-0.114l0.06-0.011
			l0.065-0.114l0.06-0.011l0.065-0.114l0.06-0.011l0.065-0.114l0.06-0.011l0.065-0.114l0.06-0.011l0.065-0.114l0.06-0.011
			l0.065-0.114l0.06-0.011l0.065-0.114l0.06-0.011l0.065-0.114l0.06-0.011l0.065-0.114l0.06-0.011l0.065-0.114l0.06-0.011
			l0.065-0.114l0.06-0.011l0.065-0.114l0.06-0.011l0.065-0.114l0.06-0.011l0.065-0.114l0.06-0.011l0.065-0.114l0.06-0.011
			l0.065-0.114l0.06-0.011l0.065-0.114l0.06-0.011l0.065-0.114l0.06-0.011l0.065-0.114l0.06-0.011l0.065-0.114l0.06-0.011
			l6.775-11.736l-0.738-2.754c0,0-0.033,0.074-0.104,0.197l-0.021-0.072c0,0-0.033,0.074-0.104,0.197l-0.021-0.072
			c0,0-0.033,0.074-0.104,0.197l-0.021-0.072c0,0-0.033,0.074-0.104,0.197l-0.021-0.072c0,0-0.033,0.074-0.104,0.197l-0.021-0.072
			c0,0-0.033,0.074-0.104,0.197l-0.021-0.072c0,0-0.033,0.074-0.104,0.197l-0.021-0.072c0,0-0.033,0.074-0.104,0.197l-0.021-0.072
			c0,0-0.033,0.074-0.104,0.197l-0.021-0.072c0,0-0.033,0.074-0.104,0.197l-0.021-0.072c0,0-0.033,0.074-0.104,0.197l-0.021-0.072
			c0,0-0.033,0.074-0.104,0.197l-0.021-0.072c0,0-0.033,0.074-0.104,0.197l-0.021-0.072c0,0-0.033,0.074-0.104,0.197l-0.021-0.072
			c0,0-0.033,0.074-0.104,0.197l-0.021-0.072c0,0-0.033,0.074-0.104,0.197l-0.021-0.072c0,0-0.033,0.074-0.104,0.197l-0.021-0.072
			c0,0-0.023,0.053-0.072,0.138c-0.014,0.009-0.027,0.017-0.041,0.025l-0.012-0.039c0,0-0.012,0.025-0.031,0.064
			c-0.178,0.104-0.362,0.205-0.563,0.298c0.011-0.018,0.021-0.035,0.03-0.053C89.68,49.276,89.7,49.272,89.723,49.264z"/>
	</g>
</g>
<g>
	<path fill="#FFFFFF" d="M61.419,57.505l-2.012-6.593c0,0-6.72,11.639-8.624,14.936c-1.176,2.037-1.848,3.201-0.059,6.821
		c0.658,0.38,2.06,1.188,3.783,2.185c-7.746,13.416-15.84,11.924-16.182,11.854c0.081,0.018,0.123,0.029,0.123,0.029
		s7.243,3.822,6.843,6.072l-9.401,3.678c0.629,0.164,15.563,3.815,27.347-16.594c1.724,0.994,3.125,1.803,3.783,2.184
		c4.028-0.26,4.701-1.424,5.877-3.461c1.903-3.297,8.625-14.937,8.625-14.937l-6.717,1.554L61.419,57.505z"/>
	<path fill="#FFFFFF" d="M92.473,46.725c0,0-3.352,7.375-16.018,0.192c-12.553-7.376-7.842-13.968-7.842-13.968l-2.754,0.738
		l-6.775,11.736l3.635,10.504l12.802,7.392l10.914-2.104l6.775-11.736L92.473,46.725z"/>
	<path fill="#FFFFFF" d="M77.52,45.074c0,0,6.91,4.84,14.328,2.064c1.489-2.582,2.688-4.656,5.375-9.311
		c2.547-4.413-5.418-10.887-8.279-12.54c-2.86-1.652-12.45-5.313-14.998-0.9c-2.688,4.656-3.885,6.729-5.377,9.311
		C69.874,41.511,77.52,45.074,77.52,45.074z M86.363,26.641c0.484,0.152,0.955,0.353,1.436,0.63
		c0.459,0.266,0.854,0.554,1.215,0.883c15.488,14.226-3.867,7.745-3.867,7.745s2.406-4.17,3.414-5.917
		c0.813-1.406-1.129-2.075-1.129-2.075s-1.551-1.348-2.361,0.059c-1.01,1.746-3.416,5.917-3.416,5.917S66.395,20.388,86.363,26.641z
		"/>
</g>
</svg>
