<?xml version="1.0" encoding="utf-8"?>
<!-- Generator: Adobe Illustrator 16.0.3, SVG Export Plug-In . SVG Version: 6.00 Build 0)  -->
<!DOCTYPE svg PUBLIC "-//W3C//DTD SVG 1.1//EN" "http://www.w3.org/Graphics/SVG/1.1/DTD/svg11.dtd">
<svg version="1.1" id="Layer_1" xmlns="http://www.w3.org/2000/svg" xmlns:xlink="http://www.w3.org/1999/xlink" x="0px" y="0px"
	 width="128px" height="128px" viewBox="0 0 128 128" enable-background="new 0 0 128 128" xml:space="preserve">
<path fill="#444953" class="bg" d="M128,25c0-13.807-11.193-25-25-25H25C11.193,0,0,11.193,0,25v78c0,13.807,11.193,25,25,25h78
	c13.807,0,25-11.193,25-25V25z"/>
<g>
	<defs>
		<path id="SVGID_1_" d="M128,25c0-13.807-11.193-25-25-25H25C11.193,0,0,11.193,0,25v78c0,13.807,11.193,25,25,25h78
			c13.807,0,25-11.193,25-25V25z"/>
	</defs>
	<clipPath id="SVGID_2_">
		<use xlink:href="#SVGID_1_"  overflow="visible"/>
	</clipPath>
	<path clip-path="url(#SVGID_2_)" fill="#353A42" class="shadow" d="M113,72.221c0-1.089-0.632-2.221-1.721-2.221H85.728
		c0.031-0.022,0.063-0.038,0.095-0.071c0.041-0.042,0.084-0.065,0.125-0.109c0.041-0.042,0.084-0.073,0.125-0.117
		c0.041-0.042,0.084-0.077,0.125-0.121c0.041-0.042,0.084-0.079,0.125-0.123c0.041-0.042,0.084-0.08,0.125-0.124
		c0.041-0.042,0.084-0.08,0.125-0.125c0.041-0.041,0.084-0.08,0.125-0.124c0.041-0.042,0.084-0.081,0.125-0.125
		c0.041-0.042,0.084-0.081,0.125-0.125c0.041-0.042,0.084-0.081,0.125-0.125c0.041-0.042,0.084-0.081,0.125-0.125
		c0.041-0.042,0.084-0.081,0.125-0.125c0.041-0.042,0.084-0.081,0.125-0.125c0.041-0.042,0.084-0.081,0.125-0.125
		c0.041-0.042,0.084-0.081,0.125-0.125c0.041-0.042,0.084-0.081,0.125-0.125c0.041-0.042,0.084-0.081,0.125-0.125
		c0.041-0.042,0.084-0.081,0.125-0.125c0.041-0.042,0.084-0.081,0.125-0.125c0.041-0.042,0.084-0.081,0.125-0.125
		c0.041-0.042,0.084-0.081,0.125-0.125c0.041-0.042,0.084-0.081,0.125-0.125c0.041-0.042,0.084-0.081,0.125-0.125
		c0.041-0.042,0.084-0.081,0.125-0.125c0.041-0.042,0.084-0.081,0.125-0.125c0.041-0.042,0.084-0.081,0.125-0.125
		c0.041-0.042,0.084-0.081,0.125-0.125c0.041-0.042,0.084-0.081,0.125-0.125c0.041-0.042,0.084-0.081,0.125-0.125
		c0.041-0.042,0.084-0.081,0.125-0.125c0.041-0.042,0.084-0.081,0.125-0.125c0.041-0.042,0.084-0.081,0.125-0.125
		c0.041-0.042,0.084-0.081,0.125-0.125c0.041-0.042,0.084-0.081,0.125-0.125c0.041-0.042,0.085-0.082,0.125-0.126
		c0.041-0.042,0.084-0.08,0.125-0.124c0.041-0.042,0.084-0.081,0.125-0.125c0.041-0.042,0.084-0.081,0.125-0.125
		c0.041-0.042,0.084-0.081,0.125-0.125c0.041-0.042,0.084-0.081,0.125-0.125c0.041-0.042,0.084-0.081,0.125-0.125
		c0.041-0.042,0.084-0.081,0.125-0.125c0.041-0.042,0.083-0.08,0.123-0.124c0.042-0.042,0.086-0.082,0.126-0.126
		c0.042-0.042,0.085-0.081,0.125-0.125c0.042-0.042,0.085-0.081,0.125-0.125c0.042-0.042,0.085-0.081,0.125-0.125
		c0.042-0.042,0.085-0.081,0.125-0.125c0.042-0.042,0.085-0.081,0.125-0.125c0.042-0.042,0.085-0.081,0.125-0.125
		c0.042-0.042,0.085-0.081,0.125-0.125c0.042-0.042,0.085-0.081,0.125-0.125c0.042-0.042,0.085-0.081,0.125-0.125
		c0.042-0.042,0.085-0.081,0.125-0.125c0.042-0.042,0.085-0.081,0.125-0.125c0.042-0.042,0.085-0.081,0.125-0.125
		c0.042-0.042,0.085-0.081,0.125-0.125c0.042-0.042,0.085-0.081,0.125-0.125c0.042-0.042,0.085-0.081,0.125-0.125
		c0.042-0.042,0.085-0.081,0.125-0.125c0.042-0.042,0.085-0.081,0.125-0.125c0.042-0.042,0.085-0.081,0.125-0.125
		c0.042-0.042,0.085-0.081,0.125-0.125c0.042-0.042,0.085-0.081,0.125-0.125c0.042-0.042,0.085-0.081,0.125-0.125
		c0.042-0.042,0.085-0.081,0.125-0.125c0.042-0.042,0.085-0.081,0.125-0.125c0.042-0.042,0.085-0.081,0.125-0.125
		c0.042-0.042,0.085-0.081,0.125-0.125c0.042-0.042,0.085-0.081,0.125-0.125c0.042-0.042,0.085-0.081,0.125-0.125
		c0.042-0.042,0.085-0.081,0.125-0.125c0.042-0.042,0.085-0.081,0.125-0.125c0.042-0.042,0.085-0.081,0.125-0.125
		c0.042-0.042,0.085-0.081,0.125-0.125c0.042-0.042,0.085-0.081,0.125-0.125c0.042-0.042,0.085-0.081,0.125-0.125
		c0.042-0.042,0.085-0.081,0.125-0.125c0.042-0.042,0.085-0.081,0.125-0.125c0.042-0.042,0.085-0.081,0.125-0.125
		c0.042-0.042,0.085-0.081,0.125-0.125c0.042-0.042,0.085-0.081,0.125-0.125c0.042-0.042,0.085-0.081,0.125-0.125
		c0.042-0.042,0.085-0.081,0.125-0.125c0.042-0.042,0.085-0.081,0.125-0.125c0.042-0.042,0.085-0.081,0.125-0.125
		c0.042-0.042,0.085-0.081,0.125-0.125c0.042-0.042,0.085-0.081,0.125-0.125c0.042-0.042,0.085-0.081,0.125-0.125
		c0.042-0.042,0.085-0.081,0.125-0.125c0.042-0.042,0.085-0.081,0.125-0.125c0.042-0.042,0.085-0.081,0.125-0.125
		c0.042-0.042,0.085-0.081,0.125-0.125c0.042-0.042,0.085-0.081,0.125-0.125c0.042-0.042,0.085-0.081,0.125-0.125
		c0.042-0.042,0.085-0.081,0.125-0.125c0.042-0.042,0.085-0.081,0.125-0.125c0.042-0.042,0.085-0.081,0.125-0.125
		c0.042-0.042,0.085-0.081,0.125-0.125c0.042-0.042,0.085-0.081,0.125-0.125c0.042-0.042,0.085-0.081,0.125-0.125
		c0.042-0.042,0.085-0.081,0.125-0.125c0.042-0.042,0.085-0.081,0.125-0.125c0.042-0.042,0.085-0.081,0.125-0.125
		c0.042-0.042,0.085-0.081,0.125-0.125c0.042-0.042,0.085-0.081,0.125-0.125c0.042-0.042,0.085-0.081,0.125-0.125
		c0.042-0.042,0.085-0.081,0.125-0.125c0.042-0.042,0.085-0.081,0.125-0.125c0.042-0.042,0.085-0.081,0.125-0.125
		c0.042-0.042,0.085-0.081,0.125-0.125c0.042-0.042,0.085-0.081,0.125-0.125c0.042-0.042,0.085-0.081,0.125-0.125
		c0.042-0.042,0.085-0.081,0.125-0.125c0.042-0.042,0.085-0.081,0.125-0.125c0.042-0.042,0.085-0.081,0.125-0.125
		c0.042-0.042,0.085-0.081,0.125-0.125c0.042-0.042,0.085-0.081,0.125-0.125c0.042-0.042,0.085-0.081,0.125-0.125
		c0.042-0.042,0.085-0.081,0.125-0.125c0.042-0.042,0.085-0.081,0.125-0.125c0.042-0.042,0.085-0.081,0.125-0.125
		c0.042-0.042,0.085-0.081,0.125-0.125c0.042-0.042,0.085-0.081,0.125-0.125c0.042-0.042,0.085-0.081,0.125-0.125
		c0.042-0.042,0.085-0.081,0.125-0.125c0.042-0.042,0.085-0.081,0.125-0.125c0.042-0.042,0.085-0.081,0.125-0.125
		c0.042-0.042,0.085-0.081,0.125-0.125c0.042-0.042,0.085-0.081,0.125-0.125c0.042-0.042,0.085-0.081,0.125-0.125
		c0.042-0.042,0.085-0.081,0.125-0.125c0.042-0.042,0.085-0.081,0.125-0.125c0.042-0.042,0.085-0.081,0.125-0.125
		c0.042-0.042,0.085-0.081,0.125-0.125c0.042-0.042,0.085-0.081,0.125-0.125c0.98-0.994,1.673-2.489,1.673-4.577
		c0-2.142-0.785-3.605-2.034-4.534c-1.143-0.857-2.571-1.285-4.873-1.285c-1.356,0-2.587,0.089-3.587,0.268l-4.523,3.691L90.785,43
		h-2.891l-4.109,3.688L82.682,43h-2.939l-3.157,2.415c-0.341-0.633-0.795-1.155-1.347-1.565c-1.143-0.857-2.459-1.285-4.762-1.285
		c-1.356,0-3.477,0.089-3.477,0.268l-6.989,6.157c0.01-0.101,0.022-0.2,0.022-0.302c0-9.794-7.922-17.732-17.717-17.732
		c-4.929,0-9.377,2.013-12.591,5.259c-0.042,0.042-0.08,0.083-0.121,0.125c-0.042,0.042-0.082,0.083-0.123,0.125
		c-0.042,0.042-0.083,0.083-0.124,0.125c-0.042,0.042-0.083,0.083-0.125,0.125c-0.042,0.042-0.083,0.083-0.125,0.125
		c-0.042,0.042-0.083,0.083-0.125,0.125c-0.042,0.042-0.083,0.083-0.125,0.125c-0.042,0.042-0.083,0.083-0.125,0.125
		c-0.042,0.042-0.083,0.083-0.125,0.125c-0.042,0.042-0.083,0.083-0.125,0.125c-0.042,0.042-0.083,0.083-0.125,0.125
		c-0.042,0.042-0.083,0.083-0.125,0.125c-0.042,0.042-0.083,0.083-0.125,0.125c-0.042,0.042-0.083,0.083-0.125,0.125
		c-0.042,0.042-0.083,0.083-0.125,0.125c-0.042,0.042-0.083,0.083-0.125,0.125c-0.042,0.042-0.083,0.083-0.125,0.125
		c-0.042,0.042-0.083,0.083-0.125,0.125c-0.042,0.042-0.083,0.083-0.125,0.125c-0.042,0.042-0.083,0.083-0.125,0.125
		c-0.042,0.042-0.083,0.083-0.125,0.125c-0.042,0.042-0.083,0.083-0.125,0.125c-0.042,0.042-0.083,0.083-0.125,0.125
		c-0.042,0.042-0.083,0.083-0.125,0.125c-0.042,0.042-0.083,0.083-0.125,0.125c-0.042,0.042-0.083,0.083-0.125,0.125
		c-0.042,0.042-0.083,0.083-0.125,0.125c-0.042,0.042-0.083,0.083-0.125,0.125c-0.042,0.042-0.083,0.083-0.125,0.125
		c-0.042,0.042-0.083,0.083-0.125,0.125c-0.042,0.042-0.083,0.083-0.125,0.125c-0.042,0.042-0.083,0.083-0.125,0.125
		c-0.042,0.042-0.083,0.083-0.125,0.125c-0.042,0.042-0.083,0.083-0.125,0.125c-0.042,0.042-0.083,0.083-0.125,0.125
		c-0.042,0.042-0.083,0.083-0.125,0.125c-0.042,0.042-0.083,0.083-0.125,0.125c-0.042,0.042-0.083,0.083-0.125,0.125
		c-0.042,0.042-0.083,0.083-0.125,0.125c-0.042,0.042-0.083,0.083-0.125,0.125c-0.042,0.042-0.083,0.083-0.125,0.125
		c-0.042,0.042-0.083,0.083-0.125,0.125c-0.042,0.042-0.083,0.083-0.125,0.125c-0.042,0.042-0.083,0.083-0.125,0.125
		c-0.042,0.042-0.083,0.083-0.125,0.125c-0.042,0.042-0.083,0.083-0.125,0.125c-0.042,0.042-0.083,0.083-0.125,0.125
		c-0.042,0.042-0.083,0.083-0.125,0.125c-0.042,0.042-0.083,0.083-0.125,0.125c-0.042,0.042-0.083,0.083-0.125,0.125
		c-0.042,0.042-0.083,0.083-0.125,0.125c-0.042,0.042-0.083,0.083-0.125,0.125c-0.042,0.042-0.083,0.083-0.125,0.125
		c-0.042,0.042-0.083,0.083-0.125,0.125c-0.042,0.042-0.083,0.083-0.125,0.125c-0.042,0.042-0.083,0.083-0.125,0.125
		c-0.042,0.042-0.083,0.083-0.125,0.125c-0.042,0.042-0.083,0.083-0.125,0.125c-0.042,0.042-0.083,0.083-0.125,0.125
		c-0.042,0.042-0.083,0.083-0.125,0.125c-0.042,0.042-0.083,0.083-0.125,0.125c-0.042,0.042-0.083,0.083-0.125,0.125
		c-0.042,0.042-0.083,0.083-0.125,0.125c-0.042,0.042-0.083,0.083-0.125,0.125c-0.042,0.042-0.083,0.083-0.125,0.125
		c-0.042,0.042-0.083,0.083-0.125,0.125c-0.042,0.042-0.083,0.083-0.125,0.125c-0.042,0.042-0.083,0.083-0.125,0.125
		c-0.042,0.042-0.083,0.083-0.125,0.125c-0.042,0.042-0.083,0.083-0.125,0.125c-0.042,0.042-0.083,0.083-0.125,0.125
		c-0.042,0.042-0.083,0.083-0.125,0.125c-0.042,0.042-0.083,0.083-0.125,0.125c-0.042,0.042-0.083,0.083-0.125,0.125
		c-0.042,0.042-0.083,0.083-0.125,0.125c-0.042,0.042-0.083,0.083-0.125,0.125c-0.042,0.042-0.083,0.083-0.125,0.125
		c-0.042,0.042-0.083,0.083-0.125,0.125c-0.042,0.042-0.083,0.083-0.125,0.125c-0.042,0.042-0.083,0.083-0.125,0.125
		c-0.042,0.042-0.083,0.083-0.125,0.125c-0.042,0.042-0.083,0.083-0.125,0.125c-0.042,0.042-0.083,0.083-0.125,0.125
		c-0.042,0.042-0.083,0.083-0.125,0.125c-0.042,0.042-0.083,0.083-0.125,0.125c-0.042,0.042-0.083,0.083-0.125,0.125
		c-0.042,0.042-0.083,0.083-0.125,0.125c-0.042,0.042-0.083,0.083-0.125,0.125c-0.042,0.042-0.083,0.083-0.125,0.125
		c-0.042,0.042-0.083,0.083-0.125,0.125c-0.042,0.042-0.083,0.083-0.125,0.125c-0.042,0.042-0.083,0.083-0.125,0.125
		c-0.042,0.042-0.083,0.083-0.125,0.125c-0.042,0.042-0.083,0.083-0.125,0.125c-0.042,0.042-0.083,0.083-0.125,0.125
		c-0.042,0.042-0.083,0.083-0.125,0.125c-0.042,0.042-0.083,0.083-0.125,0.125c-0.042,0.042-0.083,0.083-0.125,0.125
		c-0.042,0.042-0.083,0.083-0.125,0.125c-0.042,0.042-0.083,0.083-0.125,0.125c-0.042,0.042-0.083,0.083-0.125,0.125
		c-0.042,0.042-0.083,0.083-0.125,0.125c-0.042,0.042-0.083,0.083-0.125,0.125c-0.042,0.042-0.083,0.083-0.125,0.125
		c-0.042,0.042-0.083,0.083-0.125,0.125c-0.042,0.042-0.083,0.083-0.125,0.125c-0.042,0.042-0.083,0.083-0.125,0.125
		c-0.042,0.042-0.083,0.083-0.125,0.125c-0.042,0.042-0.083,0.083-0.125,0.125c-0.042,0.042-0.083,0.083-0.125,0.125
		c-0.042,0.042-0.083,0.083-0.125,0.125c-0.042,0.042-0.083,0.083-0.125,0.125c-0.042,0.042-0.083,0.083-0.125,0.125
		c-0.042,0.042-0.083,0.083-0.125,0.125c-0.042,0.042-0.083,0.083-0.125,0.125c-0.042,0.042-0.083,0.083-0.125,0.125
		c-0.042,0.042-0.083,0.083-0.125,0.125c-0.042,0.042-0.083,0.083-0.125,0.125c-0.042,0.042-0.083,0.083-0.125,0.125
		c-0.042,0.042-0.083,0.083-0.125,0.125c-0.042,0.042-0.083,0.083-0.125,0.125c-0.042,0.042-0.083,0.083-0.125,0.125
		c-0.042,0.042-0.083,0.083-0.125,0.125c-0.042,0.042-0.083,0.083-0.125,0.125c-0.042,0.042-0.083,0.083-0.125,0.125
		c-0.042,0.042-0.083,0.083-0.125,0.125c-0.042,0.042-0.083,0.083-0.125,0.125c-0.042,0.042-0.083,0.083-0.125,0.125
		c-0.042,0.042-0.083,0.083-0.125,0.125c-0.042,0.042-0.083,0.083-0.125,0.125c-0.042,0.041-0.083,0.083-0.125,0.125
		s-0.083,0.083-0.125,0.125c-0.042,0.042-0.083,0.083-0.125,0.125c-0.042,0.042-0.083,0.083-0.125,0.125
		c-0.042,0.042-0.083,0.083-0.125,0.125c-0.042,0.042-0.083,0.083-0.125,0.125c-0.042,0.042-0.083,0.083-0.125,0.125
		c-0.042,0.042-0.083,0.083-0.125,0.125c-0.042,0.042-0.083,0.083-0.125,0.125c-0.042,0.042-0.083,0.083-0.125,0.125
		c-0.042,0.042-0.083,0.083-0.125,0.125c-0.042,0.042-0.083,0.083-0.125,0.125c-0.042,0.042-0.083,0.083-0.125,0.125
		c-0.042,0.042-0.083,0.083-0.125,0.125c-0.042,0.042-0.083,0.083-0.125,0.125c-0.042,0.042-0.083,0.083-0.125,0.125
		c-0.042,0.042-0.083,0.083-0.125,0.125c-0.042,0.042-0.083,0.083-0.125,0.125c-0.042,0.042-0.083,0.083-0.125,0.125
		c-0.042,0.042-0.083,0.083-0.125,0.125c-0.042,0.042-0.083,0.083-0.125,0.125c-0.042,0.042-0.083,0.083-0.125,0.125
		c-0.042,0.042-0.083,0.083-0.125,0.125c-0.042,0.042-0.083,0.083-0.125,0.125c-0.042,0.042-0.083,0.083-0.125,0.125
		c-0.042,0.042-0.083,0.083-0.125,0.125c-0.042,0.042-0.083,0.083-0.125,0.125c-0.042,0.042-0.083,0.083-0.125,0.125
		c-0.042,0.042-0.083,0.083-0.125,0.125c-0.042,0.042-0.083,0.083-0.125,0.125c-0.042,0.042-0.083,0.083-0.125,0.125
		c-0.042,0.042-0.083,0.083-0.125,0.125c-0.042,0.042-0.083,0.083-0.125,0.125c-0.042,0.042-0.083,0.083-0.125,0.125
		c-0.042,0.042-0.083,0.083-0.125,0.125c-0.042,0.042-0.083,0.083-0.125,0.125c-0.042,0.042-0.083,0.083-0.125,0.125
		c-0.042,0.042-0.083,0.083-0.125,0.125c-0.042,0.042-0.083,0.083-0.125,0.125c-0.042,0.042-0.083,0.083-0.125,0.125
		c-0.042,0.042-0.083,0.083-0.125,0.125c-0.042,0.042-0.083,0.083-0.125,0.125c-0.042,0.042-0.083,0.083-0.125,0.125
		c-0.042,0.042-0.083,0.083-0.125,0.125c-0.042,0.042-0.083,0.083-0.125,0.125c-0.042,0.042-0.083,0.083-0.125,0.125
		c-0.042,0.042-0.083,0.083-0.125,0.125c-0.042,0.042-0.083,0.083-0.125,0.125c-0.042,0.042-0.083,0.083-0.125,0.125
		c-0.042,0.042-0.083,0.083-0.125,0.125c-0.042,0.042-0.083,0.083-0.125,0.125c-0.042,0.042-0.083,0.083-0.125,0.125
		c-0.042,0.042-0.083,0.083-0.125,0.125c-0.042,0.042-0.083,0.083-0.125,0.125c-0.042,0.042-0.083,0.083-0.125,0.125
		c-0.042,0.042-0.083,0.083-0.125,0.125c-0.042,0.042-0.083,0.083-0.125,0.125c-0.042,0.042-0.083,0.083-0.125,0.125
		c-0.042,0.042-0.083,0.083-0.125,0.125c-0.042,0.042-0.083,0.083-0.125,0.125c-0.042,0.042-0.083,0.083-0.125,0.125
		c-0.042,0.042-0.083,0.083-0.125,0.125c-0.042,0.042-0.083,0.083-0.125,0.125c-0.042,0.042-0.083,0.083-0.125,0.125
		c-0.042,0.042-0.083,0.083-0.125,0.125c-0.042,0.042-0.083,0.083-0.125,0.125c-0.042,0.042-0.083,0.083-0.125,0.125
		c-0.042,0.042-0.083,0.083-0.125,0.125c-0.042,0.042-0.083,0.083-0.125,0.125c-0.042,0.042-0.083,0.083-0.125,0.125
		c-0.042,0.042-0.083,0.083-0.125,0.125c-0.042,0.042-0.083,0.083-0.125,0.125c-0.042,0.042-0.083,0.083-0.125,0.125
		c-0.042,0.042-0.083,0.083-0.125,0.125c-0.042,0.042-0.083,0.083-0.125,0.125c-0.042,0.042-0.083,0.083-0.125,0.125
		c-0.042,0.042-0.083,0.083-0.125,0.125c-0.042,0.042-0.083,0.083-0.125,0.125c-0.042,0.042-0.083,0.083-0.125,0.125
		c-0.042,0.042-0.083,0.083-0.125,0.125c-0.042,0.042-0.083,0.083-0.125,0.125c-0.042,0.042-0.083,0.083-0.125,0.125
		c-0.042,0.042-0.083,0.083-0.125,0.125c-0.042,0.042-0.083,0.083-0.125,0.125c-0.042,0.042-0.083,0.083-0.125,0.125
		c-0.042,0.042-0.083,0.083-0.125,0.125c-0.042,0.042-0.083,0.083-0.125,0.125c-0.042,0.042-0.083,0.083-0.125,0.125
		c-0.042,0.042-0.083,0.083-0.125,0.125c-0.042,0.042-0.083,0.083-0.125,0.125c-0.042,0.042-0.083,0.083-0.125,0.125
		c-0.042,0.042-0.083,0.083-0.125,0.125c-0.042,0.042-0.083,0.083-0.125,0.125c-0.042,0.042-0.083,0.083-0.125,0.125
		c-0.042,0.042-0.083,0.083-0.125,0.125c-0.042,0.042-0.083,0.083-0.125,0.125c-0.042,0.042-0.083,0.083-0.125,0.125
		c-0.042,0.042-0.083,0.083-0.125,0.125c-0.042,0.042-0.083,0.083-0.125,0.125c-0.042,0.042-0.083,0.083-0.125,0.125
		c-0.042,0.042-0.083,0.083-0.125,0.125c-0.042,0.041-0.083,0.083-0.125,0.125c-0.042,0.041-0.083,0.083-0.125,0.125
		c-0.042,0.041-0.083,0.083-0.125,0.125c-0.042,0.041-0.083,0.083-0.125,0.125c-0.042,0.041-0.083,0.083-0.125,0.125
		c-0.042,0.041-0.083,0.083-0.125,0.125c-0.042,0.041-0.083,0.083-0.125,0.125c-0.042,0.041-0.083,0.083-0.125,0.125
		c-0.042,0.041-0.083,0.083-0.125,0.125c-0.042,0.041-0.083,0.083-0.125,0.125c-0.042,0.041-0.083,0.083-0.125,0.125
		c-0.042,0.041-0.083,0.083-0.125,0.125c-0.042,0.041-0.083,0.083-0.125,0.125c-0.042,0.041-0.083,0.083-0.125,0.125
		c-0.042,0.041-0.083,0.083-0.125,0.125c-0.042,0.041-0.083,0.083-0.125,0.125c-0.042,0.041-0.083,0.083-0.125,0.125
		c-0.042,0.041-0.083,0.083-0.125,0.125c-0.042,0.041-0.083,0.083-0.125,0.125c-0.042,0.041-0.083,0.083-0.125,0.125
		c-0.042,0.041-0.083,0.083-0.125,0.125c-0.042,0.041-0.083,0.083-0.125,0.125c-0.042,0.041-0.083,0.083-0.125,0.125
		c-0.042,0.041-0.083,0.083-0.125,0.125c-0.042,0.041-0.083,0.083-0.125,0.125c-0.042,0.041-0.083,0.083-0.125,0.125
		c-0.042,0.041-0.083,0.083-0.125,0.125c-0.042,0.041-0.083,0.083-0.125,0.125c-0.042,0.041-0.083,0.083-0.125,0.125
		c-0.042,0.041-0.083,0.083-0.125,0.125c-0.042,0.041-0.083,0.083-0.125,0.125c-0.042,0.041-0.083,0.083-0.125,0.125
		c-0.042,0.041-0.083,0.083-0.125,0.125c-0.042,0.041-0.083,0.083-0.125,0.125c-0.042,0.041-0.083,0.083-0.125,0.125
		c-0.042,0.041-0.083,0.083-0.125,0.125c-0.042,0.041-0.083,0.083-0.125,0.125c-0.042,0.041-0.083,0.083-0.125,0.125
		c-0.042,0.041-0.083,0.083-0.125,0.125c-0.042,0.041-0.083,0.083-0.125,0.125s-0.084,0.084-0.126,0.126
		c-0.042,0.041-0.083,0.082-0.124,0.124c-0.042,0.041-0.083,0.083-0.125,0.125c-0.042,0.041-0.083,0.083-0.125,0.125
		c-0.042,0.041-0.083,0.083-0.125,0.125c-0.042,0.041-0.083,0.083-0.125,0.125c-0.042,0.041-0.083,0.083-0.125,0.125
		c-0.042,0.041-0.083,0.083-0.125,0.125c-0.042,0.041-0.083,0.083-0.125,0.125c-0.042,0.041-0.083,0.083-0.125,0.125
		c-0.042,0.041-0.083,0.083-0.125,0.125c-0.042,0.041-0.083,0.083-0.125,0.125c-0.042,0.041-0.083,0.083-0.125,0.125
		c-0.042,0.041-0.083,0.083-0.125,0.125c-0.042,0.041-0.083,0.083-0.125,0.125c-0.042,0.041-0.083,0.083-0.125,0.125
		c-0.042,0.041-0.083,0.083-0.125,0.125c-0.042,0.041-0.083,0.083-0.125,0.125c-0.042,0.041-0.083,0.083-0.125,0.125
		c-0.042,0.041-0.083,0.083-0.125,0.125c-0.042,0.041-0.083,0.083-0.125,0.125c-0.042,0.041-0.083,0.083-0.125,0.125
		c-0.042,0.041-0.083,0.083-0.125,0.125c-0.042,0.041-0.083,0.083-0.125,0.125c-0.042,0.041-0.083,0.083-0.125,0.125
		c-0.042,0.041-0.083,0.083-0.125,0.125c-0.042,0.041-0.083,0.083-0.125,0.125c-0.042,0.041-0.083,0.083-0.125,0.125
		c-0.042,0.041-0.083,0.083-0.125,0.125c-0.042,0.041-0.083,0.083-0.125,0.125c-0.042,0.041-0.083,0.083-0.125,0.125
		c-0.042,0.041-0.083,0.083-0.125,0.125c-0.042,0.041-0.083,0.083-0.125,0.125c-0.042,0.041-0.083,0.083-0.125,0.125
		c-0.042,0.041-0.083,0.083-0.125,0.125c-0.042,0.041-0.083,0.083-0.125,0.125c-0.042,0.041-0.083,0.083-0.125,0.125
		c-0.042,0.041-0.083,0.083-0.125,0.125c-0.042,0.041-0.083,0.083-0.125,0.125c-0.042,0.041-0.083,0.083-0.125,0.125
		c-0.042,0.041-0.083,0.083-0.125,0.125c-0.042,0.041-0.083,0.083-0.125,0.125c-0.042,0.041-0.083,0.083-0.125,0.125
		c-0.042,0.041-0.083,0.083-0.125,0.125c-0.042,0.041-0.083,0.083-0.125,0.125c-0.042,0.041-0.083,0.083-0.125,0.125
		c-0.042,0.041-0.083,0.083-0.125,0.125c-0.042,0.041-0.083,0.083-0.125,0.125c-3.246,3.214-5.259,7.669-5.259,12.599
		c0,3.654,1.107,7.049,3.001,9.87c-0.028,0.028-0.053,0.059-0.08,0.088c-0.044,0.04-0.085,0.081-0.125,0.125
		c-0.044,0.04-0.085,0.081-0.125,0.125c-0.044,0.04-0.085,0.081-0.125,0.125c-0.044,0.04-0.085,0.081-0.125,0.125
		c-0.044,0.04-0.085,0.081-0.125,0.125c-0.044,0.04-0.085,0.081-0.125,0.125c-0.044,0.04-0.085,0.081-0.125,0.125
		c-0.044,0.04-0.085,0.081-0.125,0.125c-0.044,0.04-0.085,0.081-0.125,0.125c-0.044,0.04-0.085,0.081-0.125,0.125
		c-0.044,0.04-0.085,0.081-0.125,0.125c-0.044,0.04-0.085,0.081-0.125,0.125c-0.044,0.04-0.085,0.081-0.125,0.125
		c-0.044,0.04-0.085,0.081-0.125,0.125c-0.044,0.04-0.085,0.081-0.125,0.125c-0.044,0.04-0.085,0.081-0.125,0.125
		c-0.044,0.04-0.085,0.081-0.125,0.125c-0.044,0.04-0.085,0.081-0.125,0.125c-0.044,0.04-0.085,0.081-0.125,0.125
		c-0.044,0.04-0.085,0.081-0.125,0.125c-0.044,0.04-0.085,0.081-0.125,0.125c-0.044,0.04-0.085,0.081-0.125,0.125
		c-0.044,0.04-0.085,0.081-0.125,0.125c-0.044,0.04-0.085,0.081-0.125,0.125c-0.044,0.04-0.085,0.081-0.125,0.125
		c-0.044,0.04-0.085,0.081-0.125,0.125c-0.044,0.04-0.085,0.081-0.125,0.125c-0.044,0.04-0.085,0.081-0.125,0.125
		c-0.044,0.04-0.085,0.081-0.125,0.125c-0.044,0.04-0.085,0.081-0.125,0.125c-0.044,0.04-0.085,0.081-0.125,0.125
		c-0.044,0.04-0.085,0.081-0.125,0.125c-0.044,0.04-0.085,0.081-0.125,0.125c-0.044,0.04-0.085,0.081-0.125,0.125
		c-0.044,0.04-0.085,0.081-0.125,0.125c-0.044,0.04-0.085,0.081-0.125,0.125c-0.044,0.04-0.085,0.081-0.125,0.125
		c-0.044,0.04-0.085,0.081-0.125,0.125c-0.044,0.04-0.085,0.081-0.125,0.125c-0.044,0.04-0.085,0.081-0.125,0.125
		c-0.044,0.04-0.085,0.081-0.125,0.125c-0.044,0.04-0.085,0.081-0.125,0.125c-0.044,0.04-0.085,0.081-0.125,0.125
		c-0.044,0.04-0.085,0.081-0.125,0.125c-0.044,0.04-0.085,0.081-0.125,0.125c-0.044,0.04-0.085,0.081-0.125,0.125
		c-0.044,0.04-0.085,0.081-0.125,0.125c-0.044,0.04-0.085,0.081-0.125,0.125c-0.044,0.04-0.085,0.081-0.125,0.125
		c-0.044,0.04-0.085,0.081-0.125,0.125c-0.044,0.04-0.085,0.081-0.125,0.125c-0.044,0.04-0.085,0.081-0.125,0.125
		c-0.044,0.04-0.085,0.081-0.125,0.125c-0.044,0.04-0.085,0.081-0.125,0.125c-0.044,0.04-0.085,0.081-0.125,0.125
		c-0.044,0.04-0.085,0.081-0.125,0.125c-0.044,0.04-0.085,0.081-0.125,0.125c-0.044,0.04-0.085,0.081-0.125,0.125
		c-0.044,0.04-0.085,0.081-0.125,0.125c-0.044,0.04-0.085,0.081-0.125,0.125c-0.044,0.04-0.085,0.081-0.125,0.125
		c-0.044,0.04-0.085,0.081-0.125,0.125c-0.044,0.04-0.085,0.081-0.125,0.125c-0.044,0.04-0.085,0.081-0.125,0.125
		c-0.044,0.04-0.085,0.081-0.125,0.125c-0.044,0.04-0.085,0.081-0.125,0.125c-0.044,0.04-0.085,0.081-0.125,0.125
		c-0.044,0.04-0.085,0.081-0.125,0.125c-0.044,0.04-0.085,0.081-0.125,0.125c-0.044,0.04-0.085,0.081-0.125,0.125
		c-0.044,0.04-0.085,0.081-0.125,0.125c-0.044,0.04-0.085,0.081-0.125,0.125c-0.044,0.04-0.085,0.081-0.125,0.125
		c-0.044,0.04-0.085,0.081-0.125,0.125c-0.044,0.04-0.085,0.081-0.125,0.125c-0.044,0.04-0.085,0.081-0.125,0.125
		c-0.044,0.04-0.085,0.081-0.125,0.125c-0.044,0.04-0.085,0.081-0.125,0.125c-0.044,0.04-0.085,0.081-0.125,0.125
		c-0.044,0.04-0.085,0.081-0.125,0.125c-0.044,0.04-0.085,0.081-0.125,0.125c-0.044,0.04-0.085,0.081-0.125,0.125
		c-0.044,0.04-0.085,0.081-0.125,0.125c-0.044,0.04-0.085,0.081-0.125,0.125c-0.044,0.04-0.085,0.081-0.125,0.125
		c-0.044,0.04-0.085,0.081-0.125,0.125c-0.044,0.04-0.085,0.081-0.125,0.125c-0.044,0.04-0.085,0.081-0.125,0.125
		c-0.044,0.04-0.085,0.081-0.125,0.125c-0.044,0.04-0.085,0.081-0.125,0.125c-0.044,0.04-0.085,0.081-0.125,0.125
		c-0.044,0.04-0.085,0.081-0.125,0.125c-0.044,0.04-0.085,0.081-0.125,0.125c-0.044,0.04-0.085,0.081-0.125,0.125
		c-0.044,0.04-0.085,0.081-0.125,0.125c-0.044,0.04-0.085,0.081-0.125,0.125c-0.044,0.04,0.04,0.081,0,0.125
		c-0.394,0.36-0.521,0.874-0.521,1.45v15.559c0,1.089,0.632,2.221,1.72,2.221h94.559c0.576,0,1.09-0.376,1.45-0.771
		c0.044-0.04,0.085-0.144,0.125-0.188c0.044-0.04,0.085-0.112,0.125-0.156c0.044-0.04,0.085-0.097,0.125-0.141
		c0.044-0.04,0.085-0.089,0.125-0.133c0.044-0.04,0.085-0.085,0.125-0.129c0.044-0.04,0.085-0.083,0.125-0.127
		c0.044-0.04,0.085-0.082,0.125-0.126c0.044-0.04,0.085-0.082,0.125-0.125c0.044-0.041,0.085-0.082,0.125-0.126
		c0.044-0.04,0.085-0.081,0.125-0.125c0.044-0.04,0.085-0.081,0.125-0.125c0.044-0.04,0.085-0.081,0.125-0.125
		c0.044-0.04,0.085-0.081,0.125-0.125c0.044-0.04,0.085-0.081,0.125-0.125c0.044-0.04,0.085-0.081,0.125-0.125
		c0.044-0.04,0.085-0.081,0.125-0.125c0.044-0.04,0.085-0.081,0.125-0.125c0.044-0.04,0.085-0.081,0.125-0.125
		c0.044-0.04,0.085-0.081,0.125-0.125c0.044-0.04,0.085-0.081,0.125-0.125c0.044-0.04,0.085-0.081,0.125-0.125
		c0.044-0.04,0.085-0.081,0.125-0.125c0.044-0.04,0.085-0.081,0.125-0.125c0.044-0.04,0.085-0.081,0.125-0.125
		c0.044-0.04,0.085-0.081,0.125-0.125c0.044-0.04,0.085-0.081,0.125-0.125c0.044-0.04,0.085-0.081,0.125-0.125
		c0.044-0.04,0.085-0.081,0.125-0.125c0.044-0.04,0.085-0.081,0.125-0.125c0.044-0.04,0.085-0.081,0.125-0.125
		c0.044-0.04,0.085-0.081,0.125-0.125c0.044-0.04,0.085-0.081,0.125-0.125c0.044-0.04,0.085-0.081,0.125-0.125
		c0.044-0.04,0.085-0.081,0.125-0.125c0.044-0.04,0.085-0.081,0.125-0.125c0.044-0.04,0.085-0.081,0.125-0.125
		c0.044-0.04,0.085-0.081,0.125-0.125c0.044-0.04,0.085-0.081,0.125-0.125c0.044-0.04,0.085-0.081,0.125-0.125
		c0.044-0.04,0.085-0.081,0.125-0.125c0.044-0.04,0.085-0.081,0.125-0.125c0.044-0.04,0.085-0.081,0.125-0.125
		c0.044-0.04,0.085-0.081,0.125-0.125c0.044-0.04,0.085-0.081,0.125-0.125c0.044-0.04,0.085-0.081,0.125-0.125
		c0.044-0.04,0.085-0.081,0.125-0.125c0.044-0.04,0.085-0.081,0.125-0.125c0.044-0.04,0.085-0.081,0.125-0.125
		c0.044-0.04,0.085-0.081,0.125-0.125c0.044-0.04,0.085-0.081,0.125-0.125c0.044-0.04,0.085-0.081,0.125-0.125
		c0.044-0.04,0.085-0.081,0.125-0.125c0.044-0.04,0.085-0.081,0.125-0.125c0.044-0.04,0.085-0.081,0.125-0.125
		c0.044-0.04,0.085-0.081,0.125-0.125c0.044-0.04,0.085-0.081,0.125-0.125c0.044-0.04,0.085-0.081,0.125-0.125
		c0.044-0.04,0.085-0.081,0.125-0.125c0.044-0.04,0.085-0.081,0.125-0.125c0.044-0.04,0.085-0.081,0.125-0.125
		c0.044-0.04,0.085-0.081,0.125-0.125c0.044-0.04,0.085-0.081,0.125-0.125c0.044-0.04,0.085-0.081,0.125-0.125
		c0.044-0.04,0.085-0.081,0.125-0.125c0.044-0.04,0.085-0.081,0.125-0.125c0.044-0.04,0.085-0.081,0.125-0.125
		c0.044-0.04,0.085-0.081,0.125-0.125c0.044-0.04,0.085-0.081,0.125-0.125c0.044-0.04,0.085-0.081,0.125-0.125
		c0.044-0.04,0.085-0.081,0.125-0.125c0.044-0.04,0.085-0.081,0.125-0.125c0.044-0.04,0.085-0.081,0.125-0.125
		c0.044-0.04,0.085-0.081,0.125-0.125c0.044-0.04,0.085-0.081,0.125-0.125c0.044-0.04,0.085-0.081,0.125-0.125
		c0.044-0.04,0.085-0.081,0.125-0.125c0.044-0.04,0.085-0.081,0.125-0.125c0.044-0.04,0.085-0.081,0.125-0.125
		c0.044-0.04,0.085-0.081,0.125-0.125c0.044-0.04,0.085-0.081,0.125-0.125c0.044-0.04,0.085-0.081,0.125-0.125
		c0.044-0.04,0.085-0.081,0.125-0.125c0.044-0.04,0.085-0.081,0.125-0.125c0.044-0.04,0.085-0.081,0.125-0.125
		c0.044-0.04,0.085-0.081,0.125-0.125c0.044-0.04,0.085-0.081,0.125-0.125c0.044-0.04,0.085-0.081,0.125-0.125
		c0.044-0.04,0.085-0.081,0.125-0.125c0.044-0.04,0.085-0.081,0.125-0.125c0.044-0.04,0.085-0.081,0.125-0.125
		c0.044-0.04,0.085-0.081,0.125-0.125c0.044-0.04,0.085-0.081,0.125-0.125c0.044-0.04,0.085-0.081,0.125-0.125
		c0.044-0.04,0.085-0.081,0.125-0.125c0.044-0.04,0.085-0.081,0.125-0.125c0.044-0.04,0.085-0.081,0.125-0.125
		c0.044-0.04,0.085-0.081,0.125-0.125c0.044-0.04,0.085-0.081,0.125-0.125c0.044-0.04,0.085-0.081,0.125-0.125
		c0.044-0.04,0.085-0.081,0.125-0.125c0.044-0.04,0.085-0.081,0.125-0.125c0.044-0.04,0.085-0.081,0.125-0.125
		c0.044-0.04,0.085-0.081,0.125-0.125c0.044-0.04,0.085-0.081,0.125-0.125c0.044-0.04,0.085-0.081,0.125-0.125
		c0.044-0.04,0.085-0.081,0.125-0.125c0.044-0.04,0.085-0.081,0.125-0.125c0.044-0.04,0.085-0.081,0.125-0.125
		c0.044-0.04,0.085-0.081,0.125-0.125c0.044-0.04,0.085-0.081,0.125-0.125c0.044-0.04,0.085-0.081,0.125-0.125
		c0.044-0.04,0.085-0.081,0.125-0.125c0.044-0.04,0.085-0.081,0.125-0.125c0.044-0.04,0.085-0.081,0.125-0.125
		c0.044-0.04,0.085-0.081,0.125-0.125c0.044-0.04,0.085-0.081,0.125-0.125c0.044-0.04,0.085-0.081,0.125-0.125
		c0.044-0.04,0.085-0.081,0.125-0.125c0.044-0.04,0.085-0.081,0.125-0.125c0.044-0.04,0.085-0.081,0.125-0.125
		c0.044-0.04,0.085-0.081,0.125-0.125c0.044-0.04,0.085-0.081,0.125-0.125c0.044-0.04,0.085-0.081,0.125-0.125
		c0.044-0.04,0.085-0.081,0.125-0.125c0.044-0.04,0.085-0.081,0.125-0.125c0.044-0.04,0.085-0.081,0.125-0.125
		c0.044-0.04,0.085-0.081,0.125-0.125c0.044-0.04,0.085-0.081,0.125-0.125c0.044-0.04,0.085-0.081,0.125-0.125
		c0.044-0.04,0.085-0.081,0.125-0.125c0.044-0.04,0.085-0.081,0.125-0.125c0.044-0.04,0.085-0.081,0.125-0.125
		c0.044-0.04,0.085-0.081,0.125-0.125c0.044-0.04,0.085-0.081,0.125-0.125c0.044-0.04,0.085-0.081,0.125-0.125
		c0.044-0.04,0.085-0.081,0.125-0.125c0.044-0.04,0.085-0.081,0.125-0.125c0.044-0.04,0.085-0.081,0.125-0.125
		c0.044-0.04,0.085-0.081,0.125-0.125c0.044-0.04,0.085-0.081,0.125-0.125c0.044-0.04,0.085-0.081,0.125-0.125
		c0.044-0.04,0.085-0.081,0.125-0.125c0.044-0.04,0.085-0.081,0.125-0.125c0.044-0.04,0.085-0.081,0.125-0.125
		c0.044-0.04,0.085-0.081,0.125-0.125c0.044-0.04,0.085-0.081,0.125-0.125c0.044-0.04,0.085-0.081,0.125-0.125
		c0.044-0.04,0.085-0.081,0.125-0.125c0.044-0.04,0.085-0.081,0.125-0.125c0.044-0.04,0.085-0.081,0.125-0.125
		c0.044-0.04,0.085-0.081,0.125-0.125c0.044-0.04,0.085-0.081,0.125-0.125c0.044-0.04,0.085-0.081,0.125-0.125
		c0.044-0.04,0.085-0.081,0.125-0.125c0.044-0.04,0.085-0.081,0.125-0.125c0.044-0.04,0.085-0.081,0.125-0.125
		c0.044-0.04,0.085-0.081,0.125-0.125c0.044-0.04,0.085-0.081,0.125-0.125c0.044-0.04,0.085-0.081,0.125-0.125
		c0.044-0.04,0.085-0.081,0.125-0.125c0.044-0.04,0.085-0.081,0.125-0.125c0.044-0.04,0.085-0.081,0.125-0.125
		c0.044-0.04,0.085-0.081,0.125-0.125c0.044-0.04,0.085-0.081,0.125-0.125c0.044-0.04,0.085-0.081,0.125-0.125
		c0.044-0.04,0.085-0.081,0.125-0.125c0.044-0.04,0.085-0.081,0.125-0.125c0.044-0.04,0.085-0.081,0.125-0.125
		c0.044-0.04,0.085-0.081,0.125-0.125c0.044-0.04,0.085-0.081,0.125-0.125c0.044-0.04,0.085-0.081,0.125-0.125
		c0.044-0.04,0.085-0.081,0.125-0.125c0.044-0.04,0.085-0.081,0.125-0.125c0.044-0.04,0.085-0.081,0.125-0.125
		c0.044-0.04,0.085-0.081,0.125-0.125c0.044-0.04,0.085-0.081,0.125-0.125c0.044-0.04,0.085-0.081,0.125-0.125
		c0.044-0.04,0.085-0.081,0.125-0.125c0.044-0.04,0.085-0.081,0.125-0.125c0.044-0.04,0.085-0.081,0.125-0.125
		c0.044-0.04,0.085-0.081,0.125-0.125c0.044-0.04,0.085-0.081,0.125-0.125c0.044-0.04,0.085-0.081,0.125-0.125
		c0.044-0.04,0.085-0.081,0.125-0.125c0.044-0.04,0.085-0.081,0.125-0.125c0.044-0.04,0.085-0.081,0.125-0.125
		c0.044-0.04,0.085-0.081,0.125-0.125c0.044-0.04,0.085-0.081,0.125-0.125c0.044-0.04,0.085-0.081,0.125-0.125
		c0.044-0.04,0.085-0.081,0.125-0.125c0.044-0.04,0.085-0.081,0.125-0.125c0.044-0.04,0.085-0.081,0.125-0.125
		c0.044-0.04,0.085-0.081,0.125-0.125c0.044-0.04,0.085-0.081,0.125-0.125c0.044-0.04,0.085-0.081,0.125-0.125
		c0.044-0.04,0.085-0.081,0.125-0.125c0.044-0.04,0.085-0.081,0.125-0.125c0.044-0.04,0.085-0.081,0.125-0.125
		c0.044-0.04,0.085-0.081,0.125-0.125c0.044-0.04,0.085-0.081,0.125-0.125c0.044-0.04,0.085-0.081,0.125-0.125
		c0.044-0.04,0.085-0.081,0.125-0.125c0.044-0.04,0.085-0.081,0.125-0.125c0.044-0.04,0.085-0.081,0.125-0.125
		c0.044-0.04,0.085-0.081,0.125-0.125c0.044-0.04,0.085-0.081,0.125-0.125c0.044-0.04,0.085-0.081,0.125-0.125
		c0.044-0.04,0.085-0.081,0.125-0.125c0.044-0.04,0.085-0.081,0.125-0.125c0.044-0.04,0.085-0.081,0.125-0.125
		c0.044-0.04,0.085-0.081,0.125-0.125c0.044-0.04,0.085-0.081,0.125-0.125c0.044-0.04,0.085-0.081,0.125-0.125
		c0.044-0.04,0.085-0.081,0.125-0.125c0.044-0.04,0.085-0.081,0.125-0.125c0.044-0.04,0.085-0.081,0.125-0.125
		c0.044-0.04,0.085-0.081,0.125-0.125c0.044-0.04,0.085-0.081,0.125-0.125c0.044-0.04,0.085-0.081,0.125-0.125
		c0.044-0.04,0.085-0.081,0.125-0.125c0.044-0.04,0.085-0.081,0.125-0.125c0.044-0.04,0.085-0.081,0.125-0.125
		c0.044-0.04,0.085-0.081,0.125-0.125c0.044-0.04,0.085-0.081,0.125-0.125c0.044-0.04,0.085-0.081,0.125-0.125
		c0.044-0.04,0.085-0.081,0.125-0.125c0.044-0.04,0.085-0.081,0.125-0.125c0.044-0.04,0.085-0.081,0.125-0.125
		c0.044-0.04,0.085-0.081,0.125-0.125c0.044-0.04,0.085-0.081,0.125-0.125c0.044-0.04,0.085-0.081,0.125-0.125
		c0.044-0.04,0.085-0.081,0.125-0.125c0.044-0.04,0.085-0.081,0.125-0.125c0.044-0.04,0.085-0.081,0.125-0.125
		c0.044-0.04,0.085-0.081,0.125-0.125c0.044-0.04,0.085-0.081,0.125-0.125c0.044-0.04,0.085-0.081,0.125-0.125
		c0.044-0.04,0.085-0.081,0.125-0.125c0.044-0.04,0.085-0.081,0.125-0.125c0.044-0.04,0.085-0.081,0.125-0.125
		c0.044-0.04,0.085-0.081,0.125-0.125c0.044-0.04,0.085-0.081,0.125-0.125c0.044-0.04,0.085-0.081,0.125-0.125
		c0.044-0.04,0.085-0.081,0.125-0.125c0.044-0.04,0.085-0.081,0.125-0.125c0.044-0.04,0.085-0.081,0.125-0.125
		c0.044-0.04,0.085-0.081,0.125-0.125c0.044-0.04,0.085-0.081,0.125-0.125c0.044-0.04,0.085-0.081,0.125-0.125
		c0.044-0.04,0.085-0.081,0.125-0.125c0.044-0.04,0.085-0.081,0.125-0.125c0.044-0.04,0.085-0.081,0.125-0.125
		c0.044-0.04,0.085-0.081,0.125-0.125c0.044-0.04,0.085-0.081,0.125-0.125c0.044-0.04,0.085-0.081,0.125-0.125
		c0.044-0.04,0.085-0.081,0.125-0.125c0.044-0.04,0.085-0.081,0.125-0.125c0.044-0.04,0.085-0.081,0.125-0.125
		c0.044-0.04,0.085-0.081,0.125-0.125c0.044-0.04,0.085-0.081,0.125-0.125c0.044-0.04,0.085-0.081,0.125-0.125
		c0.044-0.04,0.085-0.081,0.125-0.125c0.044-0.04,0.085-0.081,0.125-0.125c0.044-0.04,0.085-0.081,0.125-0.125
		c0.044-0.04,0.085-0.081,0.125-0.125c0.044-0.04,0.085-0.081,0.125-0.125c0.044-0.04,0.085-0.081,0.125-0.125
		c0.044-0.04,0.085-0.081,0.125-0.125c0.044-0.04,0.085-0.081,0.125-0.125c0.044-0.04,0.085-0.081,0.125-0.125
		c0.044-0.04,0.085-0.081,0.125-0.125c0.044-0.04,0.085-0.081,0.125-0.125c0.044-0.04,0.085-0.081,0.125-0.125
		c0.044-0.04,0.085-0.081,0.125-0.125c0.044-0.04,0.085-0.081,0.125-0.125c0.044-0.04,0.085-0.081,0.125-0.125
		c0.044-0.04,0.085-0.081,0.125-0.125c0.044-0.04,0.085-0.081,0.125-0.125c0.044-0.04,0.085-0.081,0.125-0.125
		c0.044-0.04,0.085-0.081,0.125-0.125c0.044-0.04,0.085-0.081,0.125-0.125c0.044-0.04,0.085-0.081,0.125-0.125
		c0.044-0.04,0.085-0.081,0.125-0.125c0.044-0.04,0.085-0.081,0.125-0.125c0.044-0.04,0.085-0.081,0.125-0.125
		c0.044-0.04,0.085-0.081,0.125-0.125c0.044-0.04,0.085-0.081,0.125-0.125c0.044-0.04,0.085-0.081,0.125-0.125
		c0.044-0.04,0.085-0.081,0.125-0.125c0.044-0.04,0.085-0.081,0.125-0.125c0.044-0.04,0.085-0.081,0.125-0.125
		c0.044-0.04,0.085-0.081,0.125-0.125c0.044-0.04,0.085-0.081,0.125-0.125c0.044-0.04,0.085-0.081,0.125-0.125
		c0.044-0.04,0.085-0.081,0.125-0.125c0.044-0.04,0.085-0.081,0.125-0.125c0.044-0.04,0.085-0.081,0.125-0.125
		c0.044-0.04,0.085-0.081,0.125-0.125c0.044-0.04,0.085-0.081,0.125-0.125c0.044-0.04,0.085-0.081,0.125-0.125
		c0.044-0.04,0.085-0.081,0.125-0.125c0.044-0.04,0.085-0.081,0.125-0.125c0.044-0.04,0.085-0.081,0.125-0.125
		c0.044-0.04,0.085-0.081,0.125-0.125c0.044-0.04,0.085-0.081,0.125-0.125c0.044-0.04,0.085-0.081,0.125-0.125
		c0.044-0.04,0.085-0.081,0.125-0.125c0.044-0.04,0.085-0.081,0.125-0.125c0.044-0.04,0.085-0.081,0.125-0.125
		c0.044-0.04,0.085-0.081,0.125-0.125c0.044-0.04,0.085-0.081,0.125-0.125c0.044-0.04,0.085-0.081,0.125-0.125
		c0.044-0.04,0.085-0.081,0.125-0.125c0.044-0.04,0.085-0.081,0.125-0.125c0.044-0.04,0.085-0.081,0.125-0.125
		c0.044-0.04,0.085-0.081,0.125-0.125c0.044-0.04,0.085-0.081,0.125-0.125c0.044-0.04,0.085-0.081,0.125-0.125
		c0.044-0.04-0.04-0.081,0-0.125c0.395-0.36,0.521-0.874,0.521-1.45V72.221z M93,43.814c0,0.007,0.039,0.012,0,0.019V43.814z"/>
</g>
<g>
	<path fill="#FFFFFF" d="M42.332,66.42c9.794,0,17.732-7.938,17.732-17.733s-7.938-17.732-17.732-17.732
		s-17.733,7.938-17.733,17.732S32.537,66.42,42.332,66.42z M42.332,41.791c3.809,0,6.896,3.087,6.896,6.896
		s-3.087,6.896-6.896,6.896c-3.809,0-6.896-3.087-6.896-6.896S38.522,41.791,42.332,41.791z"/>
	<circle fill="#FFFFFF" cx="42.332" cy="48.687" r="2.463"/>
	<path fill="#FFFFFF" d="M114,71.971c0-1.089-0.882-1.971-1.971-1.971H16.971C15.882,70,15,70.882,15,71.971v16.059
		C15,89.118,15.882,90,16.971,90h95.059c1.089,0,1.971-0.882,1.971-1.971V71.971z M60.064,79H24.599c-0.544,0-0.985,0.044-0.985-0.5
		s0.441-0.5,0.985-0.5h35.465c0.544,0,0.985-0.044,0.985,0.5S60.608,79,60.064,79z M85.087,80.901c-1.36,0-2.463-1.103-2.463-2.463
		s1.103-2.463,2.463-2.463s2.462,1.103,2.462,2.463S86.447,80.901,85.087,80.901z M93.559,80.901c-1.359,0-2.463-1.103-2.463-2.463
		s1.104-2.463,2.463-2.463c1.36,0,2.463,1.103,2.463,2.463S94.919,80.901,93.559,80.901z M102.031,80.901
		c-1.359,0-2.463-1.103-2.463-2.463s1.104-2.463,2.463-2.463c1.36,0,2.463,1.103,2.463,2.463S103.392,80.901,102.031,80.901z"/>
	<path fill="#FFFFFF" d="M75.291,53.256c1.143-0.981,1.982-2.57,1.982-4.873c0-2.142-0.786-3.605-2.035-4.534
		c-1.143-0.857-2.459-1.285-4.762-1.285c-1.356,0-3.477,0.089-3.477,0.268v11.798c0,0.089,1.495,0.179,2.905,0.179
		C72.262,54.81,74.024,54.31,75.291,53.256z M70,44.76c1-0.053-0.184-0.107,0.405-0.107c2.356,0,3.907,1.321,3.907,3.82
		c0,2.874-1.754,4.23-4.236,4.212c-0.32,0,0.924,0-0.076-0.054V44.76z"/>
	<path fill="#FFFFFF" d="M86.734,55l4.051-12h-2.891l-1.535,4.946C85.949,49.321,85.574,51,85.271,52h-0.054
		c-0.286-1-0.66-2.662-1.071-4.107L82.682,43h-2.98l3.855,12H86.734z"/>
	<path fill="#FFFFFF" d="M102.514,53.256c1.142-0.981,1.98-2.57,1.98-4.873c0-2.142-0.785-3.605-2.034-4.534
		c-1.143-0.857-2.571-1.285-4.873-1.285c-1.356,0-2.587,0.089-3.587,0.268v11.798c0.75,0.089,1.605,0.179,3.017,0.179
		C99.372,54.81,101.246,54.31,102.514,53.256z M97,44.76c0-0.053,0.428-0.107,1.017-0.107c2.356,0,3.712,1.321,3.712,3.82
		c0,2.874-1.463,4.23-3.944,4.212c-0.321,0-0.784,0-0.784-0.054V44.76z"/>
</g>
</svg>
