<?xml version="1.0" encoding="utf-8"?>
<!-- Generator: Adobe Illustrator 16.0.3, SVG Export Plug-In . SVG Version: 6.00 Build 0)  -->
<!DOCTYPE svg PUBLIC "-//W3C//DTD SVG 1.1//EN" "http://www.w3.org/Graphics/SVG/1.1/DTD/svg11.dtd">
<svg version="1.1" id="Layer_1" xmlns="http://www.w3.org/2000/svg" xmlns:xlink="http://www.w3.org/1999/xlink" x="0px" y="0px"
	 width="128px" height="128px" viewBox="0 0 128 128" enable-background="new 0 0 128 128" xml:space="preserve">
<path fill="#444953" d="M128,25c0-13.807-11.193-25-25-25H25C11.193,0,0,11.193,0,25v78c0,13.807,11.193,25,25,25h78
	c13.807,0,25-11.193,25-25V25z"/>
<g>
	<g>
		<defs>
			<path id="SVGID_1_" d="M128,25c0-13.807-11.193-25-25-25H25C11.193,0,0,11.193,0,25v78c0,13.807,11.193,25,25,25h78
				c13.807,0,25-11.193,25-25V25z"/>
		</defs>
		<clipPath id="SVGID_2_">
			<use xlink:href="#SVGID_1_"  overflow="visible"/>
		</clipPath>
		<path clip-path="url(#SVGID_2_)" fill="#353A42" enable-background="new    " d="M91.25,92.25c-4.146,0-6.143-2.104-7.083-5.02
			c0.036-0.037,0.071-0.071,0.106-0.107c0.041-0.042,0.084-0.083,0.125-0.125s0.084-0.083,0.125-0.125s0.084-0.083,0.125-0.125
			s0.084-0.083,0.125-0.125s0.084-0.083,0.125-0.125s0.084-0.083,0.125-0.125s0.084-0.083,0.125-0.125s0.084-0.083,0.125-0.125
			s0.084-0.083,0.125-0.125s0.084-0.083,0.125-0.125s0.084-0.083,0.125-0.125s0.084-0.083,0.125-0.125s0.084-0.083,0.125-0.125
			s0.084-0.083,0.125-0.125s0.084-0.083,0.125-0.125s0.084-0.083,0.125-0.125s0.084-0.083,0.125-0.125s0.084-0.083,0.125-0.125
			s0.084-0.083,0.125-0.125s0.084-0.083,0.125-0.125s0.084-0.083,0.125-0.125s0.084-0.083,0.125-0.125s0.084-0.083,0.125-0.125
			s0.084-0.083,0.125-0.125s0.084-0.083,0.125-0.125s0.084-0.083,0.125-0.125s0.084-0.083,0.125-0.125s0.084-0.083,0.125-0.125
			s0.084-0.083,0.125-0.125s0.084-0.083,0.125-0.125s0.084-0.083,0.125-0.125s0.084-0.083,0.125-0.125s0.084-0.083,0.125-0.125
			s0.084-0.083,0.125-0.125s0.084-0.083,0.125-0.125s0.084-0.083,0.125-0.125s0.084-0.083,0.125-0.125s0.084-0.083,0.125-0.125
			s0.084-0.083,0.125-0.125s0.084-0.083,0.125-0.125s0.084-0.083,0.125-0.125s0.084-0.083,0.125-0.125s0.084-0.083,0.125-0.125
			s0.084-0.083,0.125-0.125s0.084-0.083,0.125-0.125s0.084-0.083,0.125-0.125s0.084-0.083,0.125-0.125s0.084-0.083,0.125-0.125
			s0.084-0.083,0.125-0.125s0.084-0.083,0.125-0.125s0.084-0.083,0.125-0.125s0.084-0.083,0.125-0.125s0.209-0.083,0.25-0.125
			C92.171,79.361,93,77.77,93,76V57.25c0-0.03-0.063-0.063-0.064-0.093c3.739-3.632,6.033-8.718,6.033-14.345
			c0-11.045-8.971-19.875-20.016-19.875C75.128,22.938,71.537,24,68.5,26H51h-1l-6,6v-6h-3.625c-0.732,0-1.419,0.195-1.91,0.697
			c-0.044,0.04-0.083,0.02-0.125,0.063c-0.044,0.04-0.083,0.051-0.125,0.094c-0.044,0.04-0.083,0.067-0.125,0.109
			c-0.044,0.04-0.083,0.075-0.125,0.117c-0.044,0.04-0.083,0.079-0.125,0.121c-0.044,0.04-0.083,0.081-0.125,0.123
			c-0.044,0.04-0.083,0.082-0.125,0.124c-0.044,0.04-0.083,0.082-0.125,0.125c-0.044,0.04-0.083,0.083-0.125,0.125
			c-0.044,0.04-0.083,0.083-0.125,0.125c-0.044,0.04-0.083,0.083-0.125,0.125c-0.044,0.04-0.083,0.083-0.125,0.125
			c-0.044,0.04-0.083,0.083-0.125,0.125c-0.044,0.04-0.083,0.083-0.125,0.125c-0.044,0.04-0.083,0.083-0.125,0.125
			c-0.044,0.04-0.083,0.083-0.125,0.125c-0.044,0.04-0.083,0.083-0.125,0.125c-0.044,0.04-0.083,0.083-0.125,0.125
			c-0.044,0.04-0.083,0.083-0.125,0.125c-0.044,0.04-0.083,0.083-0.125,0.125c-0.044,0.04-0.083,0.083-0.125,0.125
			c-0.044,0.04-0.083,0.083-0.125,0.125c-0.044,0.04-0.083,0.083-0.125,0.125c-0.044,0.04-0.083,0.083-0.125,0.125
			c-0.044,0.04-0.083,0.083-0.125,0.125c-0.044,0.04-0.083,0.083-0.125,0.125c-0.044,0.04-0.083,0.083-0.125,0.125
			c-0.044,0.04-0.083,0.083-0.125,0.125c-0.044,0.04-0.083,0.083-0.125,0.125c-0.044,0.04-0.083,0.083-0.125,0.125
			c-0.044,0.04-0.083,0.083-0.125,0.125c-0.044,0.04-0.083,0.083-0.125,0.125c-0.044,0.04-0.083,0.083-0.125,0.125
			c-0.044,0.04-0.083,0.083-0.125,0.125c-0.044,0.04-0.083,0.083-0.125,0.125c-0.044,0.04-0.083,0.083-0.125,0.125
			c-0.044,0.04-0.083,0.083-0.125,0.125c-0.044,0.04-0.083,0.083-0.125,0.125c-0.044,0.04-0.083,0.083-0.125,0.125
			c-0.044,0.04-0.083,0.083-0.125,0.125c-0.044,0.04-0.083,0.083-0.125,0.125c-0.044,0.04-0.083,0.083-0.125,0.125
			c-0.044,0.04-0.083,0.083-0.125,0.125c-0.044,0.04-0.083,0.083-0.125,0.125c-0.044,0.04-0.083,0.083-0.125,0.125
			c-0.044,0.04-0.083,0.083-0.125,0.125c-0.044,0.04-0.083,0.083-0.125,0.125c-0.044,0.04-0.083,0.083-0.125,0.125
			c-0.044,0.04-0.083,0.083-0.125,0.125c-0.044,0.04-0.083,0.083-0.125,0.125c-0.044,0.04-0.083,0.083-0.125,0.125
			c-0.044,0.04-0.083,0.083-0.125,0.125c-0.044,0.04-0.083,0.083-0.125,0.125c-0.044,0.04-0.083,0.083-0.125,0.125
			c-0.044,0.04-0.083,0.083-0.125,0.125c-0.044,0.04-0.083,0.083-0.125,0.125c-0.044,0.04-0.083,0.083-0.125,0.125
			c-0.044,0.04-0.083,0.083-0.125,0.125c-0.044,0.04-0.083,0.083-0.125,0.125c-0.044,0.04-0.083,0.083-0.125,0.125
			c-0.044,0.04-0.083,0.083-0.125,0.125c-0.044,0.04-0.083,0.083-0.125,0.125c-0.044,0.04-0.083,0.083-0.125,0.125
			c-0.044,0.04-0.083,0.083-0.125,0.125c-0.044,0.04-0.083,0.083-0.125,0.125c-0.044,0.04-0.083,0.083-0.125,0.125
			c-0.044,0.04-0.083,0.083-0.125,0.125c-0.044,0.04-0.083,0.083-0.125,0.125c-0.044,0.04-0.083,0.083-0.125,0.125
			c-0.044,0.04-0.083,0.083-0.125,0.125c-0.044,0.04-0.083,0.083-0.125,0.125c-0.044,0.04-0.083,0.083-0.125,0.125
			c-0.044,0.04-0.083,0.083-0.125,0.125c-0.044,0.04-0.083,0.083-0.125,0.125c-0.044,0.04-0.083,0.083-0.125,0.125
			c-0.044,0.04-0.083,0.083-0.125,0.125c-0.044,0.04-0.083,0.083-0.125,0.125c-0.044,0.04-0.083,0.083-0.125,0.125
			c-0.044,0.04-0.083,0.083-0.125,0.125c-0.044,0.04-0.083,0.083-0.125,0.125c-0.044,0.04-0.083,0.083-0.125,0.125
			c-0.044,0.04-0.083,0.083-0.125,0.125c-0.044,0.04-0.083,0.083-0.125,0.125c-0.044,0.04-0.083,0.083-0.125,0.125
			c-0.044,0.04-0.083,0.083-0.125,0.125c-0.044,0.04-0.083,0.083-0.125,0.125c-0.044,0.04-0.083,0.083-0.125,0.125
			c-0.044,0.04-0.083,0.083-0.125,0.125c-0.044,0.04-0.083,0.083-0.125,0.125c-0.044,0.04-0.083,0.083-0.125,0.125
			c-0.044,0.04-0.083,0.083-0.125,0.125c-0.044,0.04-0.083,0.083-0.125,0.125c-0.044,0.04-0.083,0.083-0.125,0.125
			c-0.044,0.04-0.083,0.083-0.125,0.125c-0.044,0.04-0.083,0.083-0.125,0.125c-0.044,0.04-0.083,0.083-0.125,0.125
			c-0.044,0.04-0.083,0.208-0.125,0.25C26.32,38.84,26.299,39,26.279,39h-0.39c0.019,0,0.027-0.171,0.044-0.191
			c0.045-0.039,0.086-0.142,0.125-0.188c0.045-0.039,0.086-0.111,0.125-0.156c0.045-0.039,0.086-0.095,0.125-0.141
			c0.045-0.039,0.086-0.087,0.125-0.133c0.045-0.039,0.086-0.083,0.125-0.129c0.045-0.039,0.086-0.082,0.125-0.127
			c0.045-0.039,0.086-0.081,0.125-0.126c0.045-0.039,0.086-0.08,0.125-0.125c0.045-0.039,0.086-0.08,0.125-0.125
			c0.045-0.039,0.086-0.08,0.125-0.125c0.045-0.039,0.086-0.08,0.125-0.125c0.045-0.039,0.086-0.08,0.125-0.125
			c0.045-0.039,0.086-0.08,0.125-0.125c0.045-0.039,0.086-0.08,0.125-0.125c0.045-0.039,0.086-0.08,0.125-0.125
			c0.045-0.039,0.086-0.08,0.125-0.125c0.045-0.039,0.086-0.08,0.125-0.125c0.045-0.039,0.086-0.08,0.125-0.125
			c0.045-0.039,0.086-0.08,0.125-0.125c0.045-0.039,0.086-0.08,0.125-0.125c0.045-0.039,0.086-0.08,0.125-0.125
			c0.045-0.039,0.086-0.08,0.125-0.125c0.045-0.039,0.086-0.08,0.125-0.125c0.045-0.039,0.086-0.08,0.125-0.125
			c0.045-0.039,0.086-0.08,0.125-0.125c0.045-0.039,0.086-0.08,0.125-0.125c0.045-0.039,0.086-0.08,0.125-0.125
			c0.045-0.039,0.086-0.08,0.125-0.125c0.045-0.039,0.086-0.08,0.125-0.125c0.045-0.039,0.086-0.08,0.125-0.125
			c0.045-0.039,0.086-0.08,0.125-0.125c0.045-0.039,0.086-0.08,0.125-0.125c0.045-0.039,0.086-0.08,0.125-0.125
			c0.045-0.039,0.086-0.08,0.125-0.125c0.045-0.039,0.086-0.08,0.125-0.125c0.045-0.039,0.086-0.08,0.125-0.125
			c0.045-0.039,0.086-0.08,0.125-0.125c0.045-0.039,0.086-0.08,0.125-0.125c0.045-0.039,0.086-0.08,0.125-0.125
			c0.045-0.039,0.086-0.08,0.125-0.125c0.045-0.039,0.086-0.08,0.125-0.125c0.045-0.039,0.086-0.08,0.125-0.125
			c0.045-0.039,0.086-0.08,0.125-0.125c0.045-0.039,0.086-0.08,0.125-0.125c0.045-0.039,0.086-0.08,0.125-0.125
			c0.045-0.039,0.086-0.08,0.125-0.125c0.045-0.039,0.086-0.08,0.125-0.125c0.045-0.039,0.086-0.08,0.125-0.125
			c0.045-0.039,0.086-0.08,0.125-0.125c0.045-0.039,0.086-0.08,0.125-0.125c0.265-0.229,0.441-0.682,0.441-1.059
			c0-0.69-0.56-1.375-1.25-1.375h-6.25c-0.377,0-0.705,0.301-0.934,0.566c-0.045,0.039-0.086,0.142-0.125,0.188
			c-0.045,0.039-0.086,0.111-0.125,0.156c-0.045,0.039-0.086,0.095-0.125,0.141c-0.045,0.039-0.086,0.087-0.125,0.133
			c-0.045,0.039-0.086,0.083-0.125,0.129c-0.045,0.039-0.086,0.082-0.125,0.127c-0.045,0.039-0.086,0.081-0.125,0.126
			c-0.045,0.039-0.086,0.08-0.125,0.125c-0.045,0.039-0.086,0.08-0.125,0.125c-0.045,0.039-0.086,0.08-0.125,0.125
			c-0.045,0.039-0.086,0.08-0.125,0.125c-0.045,0.039-0.086,0.08-0.125,0.125c-0.045,0.039-0.086,0.08-0.125,0.125
			c-0.045,0.039-0.086,0.08-0.125,0.125c-0.045,0.039-0.086,0.08-0.125,0.125c-0.045,0.039-0.086,0.08-0.125,0.125
			c-0.045,0.039-0.086,0.08-0.125,0.125c-0.045,0.039-0.086,0.08-0.125,0.125c-0.045,0.039-0.086,0.08-0.125,0.125
			c-0.045,0.039-0.086,0.08-0.125,0.125c-0.045,0.039-0.086,0.08-0.125,0.125c-0.045,0.039-0.086,0.08-0.125,0.125
			c-0.045,0.039-0.086,0.08-0.125,0.125c-0.045,0.039-0.086,0.08-0.125,0.125c-0.045,0.039-0.086,0.08-0.125,0.125
			c-0.045,0.039-0.086,0.08-0.125,0.125c-0.045,0.039-0.086,0.08-0.125,0.125c-0.045,0.039-0.086,0.08-0.125,0.125
			c-0.045,0.039-0.086,0.08-0.125,0.125c-0.045,0.039-0.086,0.08-0.125,0.125c-0.045,0.039-0.086,0.08-0.125,0.125
			c-0.045,0.039-0.086,0.08-0.125,0.125c-0.045,0.039-0.086,0.08-0.125,0.125c-0.045,0.039-0.086,0.08-0.125,0.125
			c-0.045,0.039-0.086,0.08-0.125,0.125c-0.045,0.039-0.086,0.08-0.125,0.125c-0.045,0.039-0.086,0.08-0.125,0.125
			c-0.045,0.039-0.086,0.08-0.125,0.125c-0.045,0.039-0.086,0.08-0.125,0.125c-0.045,0.039-0.086,0.08-0.125,0.125
			c-0.045,0.039-0.086,0.08-0.125,0.125c-0.045,0.039-0.086,0.08-0.125,0.125c-0.045,0.039-0.086,0.08-0.125,0.125
			c-0.045,0.039-0.086,0.08-0.125,0.125c-0.045,0.039-0.086,0.08-0.125,0.125c-0.045,0.039-0.086,0.08-0.125,0.125
			c-0.045,0.039-0.086,0.08-0.125,0.125c-0.045,0.039-0.086,0.08-0.125,0.125c-0.045,0.039-0.086,0.08-0.125,0.125
			c-0.045,0.039-0.086,0.08-0.125,0.125c-0.045,0.039-0.086,0.08-0.125,0.125c-0.045,0.039-0.086,0.08-0.125,0.125
			c-0.045,0.039-0.086,0.08-0.125,0.125c-0.045,0.039-0.086,0.08-0.125,0.125c-0.045,0.039-0.086,0.08-0.125,0.125
			c-0.045,0.039-0.086,0.08-0.125,0.125c-0.045,0.039-0.086,0.08-0.125,0.125c-0.045,0.039-0.086,0.08-0.125,0.125
			c-0.045,0.039-0.086,0.08-0.125,0.125c-0.045,0.039-0.086,0.08-0.125,0.125c-0.045,0.039-0.086,0.08-0.125,0.125
			c-0.045,0.039-0.086,0.08-0.125,0.125c-0.045,0.039-0.086,0.08-0.125,0.125c-0.045,0.039-0.086,0.08-0.125,0.125
			c-0.045,0.039-0.086,0.08-0.125,0.125c-0.045,0.039-0.086,0.08-0.125,0.125c-0.045,0.039-0.086,0.08-0.125,0.125
			c-0.045,0.039-0.086,0.08-0.125,0.125c-0.045,0.039-0.086,0.08-0.125,0.125c-0.045,0.039-0.086,0.08-0.125,0.125
			c-0.045,0.039-0.086,0.08-0.125,0.125c-0.045,0.039-0.086,0.08-0.125,0.125c-0.045,0.039-0.086,0.08-0.125,0.125
			c-0.045,0.039-0.086,0.08-0.125,0.125c-0.045,0.039-0.086,0.08-0.125,0.125c-0.045,0.039-0.086,0.08-0.125,0.125
			c-0.045,0.039-0.086,0.08-0.125,0.125c-0.045,0.039-0.086,0.08-0.125,0.125c-0.045,0.039-0.086,0.08-0.125,0.125
			c-0.045,0.039-0.086,0.08-0.125,0.125c-0.045,0.039-0.086,0.08-0.125,0.125c-0.045,0.039-0.086,0.08-0.125,0.125
			c-0.045,0.039-0.086,0.08-0.125,0.125c-0.045,0.039-0.086,0.08-0.125,0.125c-0.045,0.039-0.086,0.08-0.125,0.125
			c-0.045,0.039-0.086,0.08-0.125,0.125c-0.045,0.039-0.086,0.08-0.125,0.125c-0.045,0.039-0.086,0.08-0.125,0.125
			c-0.045,0.039-0.086,0.08-0.125,0.125c-0.045,0.039-0.086,0.08-0.125,0.125c-0.045,0.039-0.086,0.08-0.125,0.125
			c-0.045,0.039-0.086,0.08-0.125,0.125c-0.045,0.039-0.086,0.08-0.125,0.125c-0.045,0.039-0.086,0.08-0.125,0.125
			c-0.045,0.039-0.086,0.08-0.125,0.125c-0.045,0.039-0.086,0.08-0.125,0.125c-0.045,0.039-0.086,0.08-0.125,0.125
			c-0.045,0.039-0.086,0.08-0.125,0.125c-0.045,0.039-0.086,0.08-0.125,0.125c-0.045,0.039-0.086,0.08-0.125,0.125
			c-0.045,0.039-0.086,0.08-0.125,0.125c-0.045,0.039-0.086,0.08-0.125,0.125c-0.045,0.039-0.086,0.08-0.125,0.125
			c-0.045,0.039-0.086,0.08-0.125,0.125c-0.045,0.039-0.086,0.08-0.125,0.125c-0.045,0.039-0.086,0.08-0.125,0.125
			c-0.045,0.039-0.086,0.08-0.125,0.125c-0.045,0.039-0.086,0.08-0.125,0.125c-0.045,0.039-0.086,0.08-0.125,0.125
			c-0.045,0.039-0.086,0.08-0.125,0.125c-0.045,0.039-0.086,0.08-0.125,0.125c-0.045,0.039-0.086,0.08-0.125,0.125
			c-0.045,0.039-0.086,0.08-0.125,0.125c-0.045,0.039-0.086,0.08-0.125,0.125c-0.045,0.039-0.086,0.08-0.125,0.125
			c-0.045,0.039-0.086,0.08-0.125,0.125c-0.045,0.039-0.086,0.08-0.125,0.125c-0.045,0.039-0.086,0.08-0.125,0.125
			c-0.045,0.039-0.086,0.08-0.125,0.125c-0.045,0.039-0.086,0.08-0.125,0.125c-0.045,0.039-0.086,0.08-0.125,0.125
			c-0.045,0.039-0.086,0.08-0.125,0.125c-0.045,0.039-0.086,0.08-0.125,0.125c-0.045,0.039-0.086,0.08-0.125,0.125
			c-0.045,0.039-0.086,0.08-0.125,0.125c-0.045,0.039-0.086,0.08-0.125,0.125c-0.045,0.039-0.086,0.08-0.125,0.125
			c-0.045,0.039-0.086,0.08-0.125,0.125c-0.045,0.039-0.086,0.08-0.125,0.125c-0.045,0.039-0.086,0.08-0.125,0.125
			c-0.045,0.039-0.086,0.08-0.125,0.125c-0.045,0.039-0.086,0.08-0.125,0.125c-0.045,0.039-0.086,0.08-0.125,0.125
			c-0.045,0.039-0.086,0.08-0.125,0.125c-0.045,0.039-0.086,0.08-0.125,0.125c-0.045,0.039-0.086,0.08-0.125,0.125
			c-0.045,0.039-0.086,0.08-0.125,0.125c-0.045,0.039-0.086,0.08-0.125,0.125c-0.045,0.039-0.086,0.08-0.125,0.125
			c-0.045,0.039-0.086,0.08-0.125,0.125c-0.045,0.039-0.086,0.08-0.125,0.125c-0.045,0.039-0.086,0.08-0.125,0.125
			c-0.045,0.039-0.086,0.08-0.125,0.125c-0.045,0.039-0.086,0.08-0.125,0.125c-0.045,0.039-0.086,0.08-0.125,0.125
			c-0.045,0.039-0.086,0.08-0.125,0.125c-0.045,0.039-0.086,0.08-0.125,0.125c-0.045,0.039-0.086,0.08-0.125,0.125
			c-0.045,0.039-0.086,0.08-0.125,0.125c-0.045,0.039-0.086,0.08-0.125,0.125c-0.045,0.039-0.086,0.08-0.125,0.125
			c-0.045,0.039-0.086,0.08-0.125,0.125c-0.045,0.039-0.086,0.08-0.125,0.125c-0.045,0.039-0.086,0.08-0.125,0.125
			c-0.045,0.039-0.086,0.08-0.125,0.125c-0.045,0.039-0.086,0.08-0.125,0.125c-0.045,0.039-0.086,0.08-0.125,0.125
			c-0.045,0.039-0.086,0.08-0.125,0.125c-0.045,0.039-0.086,0.08-0.125,0.125c-0.045,0.039-0.086,0.08-0.125,0.125
			c-0.045,0.039-0.086,0.08-0.125,0.125c-0.045,0.039-0.086,0.08-0.125,0.125c-0.045,0.039-0.086,0.08-0.125,0.125
			c-0.045,0.039-0.086,0.08-0.125,0.125c-0.045,0.039-0.086,0.08-0.125,0.125c-0.045,0.039-0.086,0.08-0.125,0.125
			c-0.045,0.039-0.086,0.08-0.125,0.125c-0.045,0.039-0.086,0.08-0.125,0.125c-0.045,0.039-0.086,0.08-0.125,0.125
			c-0.045,0.039-0.086,0.08-0.125,0.125c-0.045,0.039-0.086,0.08-0.125,0.125c-0.045,0.039-0.086,0.08-0.125,0.125
			c-0.045,0.039-0.086,0.08-0.125,0.125c-0.045,0.039-0.086,0.08-0.125,0.125c-0.045,0.039-0.086,0.08-0.125,0.125
			c-0.045,0.039-0.086,0.08-0.125,0.125c-0.045,0.039-0.086,0.08-0.125,0.125c-0.045,0.039-0.086,0.08-0.125,0.125
			c-0.045,0.039-0.086,0.08-0.125,0.125c-0.045,0.039-0.086,0.08-0.125,0.125c-0.045,0.039-0.086,0.08-0.125,0.125
			c-0.045,0.039-0.086,0.08-0.125,0.125c-0.045,0.039-0.086,0.08-0.125,0.125c-0.045,0.039-0.086,0.08-0.125,0.125
			c-0.045,0.039-0.086,0.08-0.125,0.125c-0.045,0.039-0.086,0.08-0.125,0.125c-0.045,0.039-0.086,0.08-0.125,0.125
			c-0.045,0.039-0.086,0.08-0.125,0.125c-0.045,0.039-0.086,0.08-0.125,0.125c-0.045,0.039-0.086,0.08-0.125,0.125
			c-0.045,0.039-0.086,0.08-0.125,0.125c-0.045,0.039-0.086,0.08-0.125,0.125c-0.045,0.039-0.086,0.08-0.125,0.125
			c-0.045,0.039-0.086,0.08-0.125,0.125c-0.045,0.039-0.086,0.08-0.125,0.125c-0.045,0.039-0.086,0.08-0.125,0.125
			c-0.045,0.039-0.086,0.08-0.125,0.125c-0.045,0.039-0.086,0.08-0.125,0.125c-0.045,0.039-0.086,0.08-0.125,0.125
			c-0.045,0.039-0.086,0.08-0.125,0.125c-0.045,0.039-0.086,0.08-0.125,0.125c-0.045,0.039-0.086,0.08-0.125,0.125
			c-0.045,0.039-0.086,0.08-0.125,0.125c-0.045,0.039-0.086,0.08-0.125,0.125c-0.045,0.039-0.086,0.08-0.125,0.125
			c-0.045,0.039-0.086,0.08-0.125,0.125c-0.045,0.039-0.086,0.08-0.125,0.125c-0.045,0.039-0.086,0.08-0.125,0.125
			c-0.045,0.039-0.086,0.08-0.125,0.125c-0.045,0.039-0.086,0.08-0.125,0.125c-0.045,0.039-0.086,0.08-0.125,0.125
			c-0.045,0.039-0.086,0.08-0.125,0.125c-0.045,0.039-0.086,0.08-0.125,0.125c-0.045,0.039-0.086,0.08-0.125,0.125
			c-0.045,0.039-0.086,0.08-0.125,0.125c-0.045,0.039-0.086,0.08-0.125,0.125c-0.045,0.039-0.086,0.08-0.125,0.125
			c-0.045,0.039-0.086,0.08-0.125,0.125c-0.045,0.039-0.086,0.08-0.125,0.125c-0.045,0.039-0.086,0.08-0.125,0.125
			c-0.045,0.039-0.086,0.08-0.125,0.125c-0.045,0.039-0.086,0.08-0.125,0.125c-0.045,0.039-0.086,0.08-0.125,0.125
			c-0.045,0.039-0.086,0.08-0.125,0.125c-0.045,0.039-0.086,0.08-0.125,0.125c-0.045,0.039-0.086,0.08-0.125,0.125
			c-0.045,0.039-0.086,0.08-0.125,0.125c-0.045,0.039-0.086,0.08-0.125,0.125c-0.045,0.039-0.086,0.08-0.125,0.125
			c-0.045,0.039-0.086,0.08-0.125,0.125c-0.045,0.039-0.086,0.08-0.125,0.125c-0.045,0.039-0.086,0.08-0.125,0.125
			c-0.045,0.039-0.086,0.08-0.125,0.125c-0.045,0.039-0.086,0.08-0.125,0.125c-0.045,0.039-0.086,0.08-0.125,0.125
			c-0.045,0.039-0.086,0.08-0.125,0.125c-0.045,0.039-0.086,0.08-0.125,0.125c-0.045,0.039-0.086,0.08-0.125,0.125
			c-0.045,0.039-0.086,0.08-0.125,0.125c-0.045,0.039-0.086,0.08-0.125,0.125c-0.045,0.039-0.086,0.08-0.125,0.125
			c-0.045,0.039-0.086,0.08-0.125,0.125c-0.045,0.039-0.086,0.08-0.125,0.125c-0.104,0.089-0.184,0.196-0.253,0.315
			c-0.044,0.037-0.083,0.047-0.122,0.091c-0.045,0.039-0.086,0.064-0.125,0.109c-0.045,0.039-0.086,0.072-0.125,0.117
			c-0.045,0.039-0.086,0.076-0.125,0.121c-0.045,0.039-0.086,0.078-0.125,0.123c-0.045,0.039-0.086,0.079-0.125,0.124
			c-0.045,0.039-0.086,0.079-0.125,0.125c-0.045,0.039-0.086,0.079-0.125,0.125c-0.045,0.039-0.086,0.079-0.125,0.125
			c-0.045,0.039-0.086,0.08-0.125,0.125c-0.045,0.039-0.086,0.08-0.125,0.125c-0.045,0.039-0.086,0.08-0.125,0.125
			c-0.045,0.039-0.086,0.08-0.125,0.125c-0.045,0.039-0.086,0.08-0.125,0.125c-0.045,0.039-0.086,0.08-0.125,0.125
			c-0.045,0.039-0.086,0.08-0.125,0.125c-0.045,0.039-0.086,0.08-0.125,0.125c-0.045,0.039-0.086,0.08-0.125,0.125
			c-0.045,0.039-0.086,0.08-0.125,0.125c-0.045,0.039-0.086,0.08-0.125,0.125c-0.045,0.039-0.086,0.08-0.125,0.125
			c-0.045,0.039-0.086,0.08-0.125,0.125c-0.045,0.039-0.086,0.08-0.125,0.125c-0.045,0.039-0.086,0.08-0.125,0.125
			c-0.045,0.039-0.086,0.08-0.125,0.125c-0.045,0.039-0.086,0.081-0.125,0.125c-0.045,0.039-0.086,0.08-0.125,0.125
			c-0.045,0.039-0.086,0.08-0.125,0.125c-0.045,0.039-0.086,0.08-0.125,0.125c-0.045,0.039-0.086,0.08-0.125,0.125
			c-0.045,0.039-0.086,0.08-0.125,0.125c-0.045,0.039-0.086,0.08-0.125,0.125c-0.045,0.039-0.086,0.08-0.125,0.125
			c-0.045,0.039-0.086,0.08-0.125,0.125c-0.045,0.039-0.086,0.08-0.125,0.125c-0.045,0.039-0.086,0.08-0.125,0.125
			c-0.045,0.039-0.086,0.08-0.125,0.125c-0.045,0.039-0.086,0.08-0.125,0.125c-0.045,0.039-0.086,0.08-0.125,0.125
			c-0.045,0.039-0.086,0.08-0.125,0.125c-0.045,0.039-0.086,0.08-0.125,0.125c-0.045,0.039-0.086,0.08-0.125,0.125
			c-0.045,0.039-0.086,0.08-0.125,0.125c-0.045,0.039-0.086,0.08-0.125,0.125c-0.045,0.039-0.086,0.08-0.125,0.125
			c-0.045,0.039-0.086,0.08-0.125,0.125c-0.045,0.039-0.086,0.08-0.125,0.125c-0.045,0.039-0.086,0.08-0.125,0.125
			c-0.045,0.039-0.086,0.08-0.125,0.125c-0.045,0.039-0.086,0.08-0.125,0.125c-0.045,0.039-0.086,0.08-0.125,0.125
			c-0.045,0.039-0.086,0.08-0.125,0.125c-0.045,0.039-0.086,0.08-0.125,0.125c-0.045,0.039-0.086,0.08-0.125,0.125
			c-0.045,0.039-0.086,0.08-0.125,0.125c-0.045,0.039-0.086,0.08-0.125,0.125c-0.045,0.039-0.086,0.08-0.125,0.125
			c-0.045,0.039-0.086,0.08-0.125,0.125c-0.045,0.039-0.086,0.08-0.125,0.125c-0.045,0.039-0.086,0.08-0.125,0.125
			c-0.045,0.039-0.086,0.08-0.125,0.125c-0.045,0.039-0.086,0.08-0.125,0.125c-0.045,0.039-0.086,0.08-0.125,0.125
			c-0.045,0.039-0.086,0.08-0.125,0.125c-0.045,0.039-0.086,0.08-0.125,0.125c-0.045,0.039-0.086,0.08-0.125,0.125
			c-0.045,0.039-0.086,0.08-0.125,0.125c-0.045,0.039-0.086,0.08-0.125,0.125c-0.045,0.039-0.086,0.08-0.125,0.125
			c-0.045,0.039-0.086,0.08-0.125,0.125c-0.045,0.039-0.086,0.08-0.125,0.125c-0.045,0.039-0.086,0.08-0.125,0.125
			c-0.045,0.039-0.086,0.08-0.125,0.125c-0.045,0.039-0.086,0.08-0.125,0.125c-0.045,0.039-0.086,0.08-0.125,0.125
			c-0.045,0.039-0.086,0.08-0.125,0.125c-0.045,0.039-0.086,0.08-0.125,0.125c-0.045,0.039-0.086,0.08-0.125,0.125
			c-0.045,0.039-0.086,0.08-0.125,0.125c-0.045,0.039-0.086,0.08-0.125,0.125c-0.045,0.039-0.086,0.08-0.125,0.125
			c-0.045,0.039-0.086,0.08-0.125,0.125c-0.045,0.039-0.086,0.08-0.125,0.125c-0.045,0.039-0.086,0.08-0.125,0.125
			c-0.045,0.039-0.086,0.08-0.125,0.125c-0.045,0.039-0.086,0.08-0.125,0.125c-0.045,0.039-0.086,0.08-0.125,0.125
			c-0.045,0.039-0.086,0.08-0.125,0.125c-0.045,0.039-0.086,0.08-0.125,0.125c-0.045,0.039-0.086,0.08-0.125,0.125
			c-0.045,0.039-0.086,0.08-0.125,0.125c-0.045,0.039-0.086,0.08-0.125,0.125c-0.045,0.039-0.086,0.08-0.125,0.125
			c-0.045,0.039-0.086,0.08-0.125,0.125c-0.045,0.039-0.086,0.08-0.125,0.125c-0.045,0.039-0.086,0.08-0.125,0.125
			c-0.045,0.039-0.086,0.08-0.125,0.125c-0.045,0.039-0.086,0.08-0.125,0.125c-0.045,0.039-0.086,0.08-0.125,0.125
			c-0.045,0.039-0.086,0.08-0.125,0.125c-0.045,0.039-0.086,0.08-0.125,0.125c-0.045,0.039-0.086,0.08-0.125,0.125
			c-0.045,0.039-0.086,0.08-0.125,0.125c-0.045,0.039-0.086,0.08-0.125,0.125c-0.045,0.039-0.086,0.08-0.125,0.125
			c-0.045,0.039-0.086,0.08-0.125,0.125c-0.045,0.039-0.086,0.08-0.125,0.125c-0.045,0.039-0.086,0.08-0.125,0.125
			c-0.045,0.039-0.086,0.08-0.125,0.125c-0.045,0.039-0.086,0.08-0.125,0.125c-0.045,0.039-0.086,0.08-0.125,0.125
			c-0.045,0.039-0.086,0.08-0.125,0.125c-0.045,0.039-0.086,0.08-0.125,0.125c-0.045,0.039-0.086,0.08-0.125,0.125
			c-0.045,0.039-0.086,0.08-0.125,0.125c-0.045,0.039-0.086,0.08-0.125,0.125c-0.045,0.039-0.086,0.08-0.125,0.125
			c-0.045,0.039-0.086,0.08-0.125,0.125c-0.045,0.039-0.086,0.08-0.125,0.125c-0.045,0.039-0.086,0.08-0.125,0.125
			c-0.045,0.039-0.086,0.08-0.125,0.125c-0.045,0.039-0.086,0.08-0.125,0.125c-0.045,0.039-0.086,0.08-0.125,0.125
			c-0.045,0.039-0.086,0.08-0.125,0.125c-0.045,0.039-0.086,0.08-0.125,0.125c-0.045,0.039-0.086,0.08-0.125,0.125
			c-0.045,0.039-0.086,0.08-0.125,0.125c-0.045,0.039-0.086,0.08-0.125,0.125c-0.045,0.039-0.086,0.08-0.125,0.125
			c-0.045,0.039-0.086,0.08-0.125,0.125c-0.045,0.039-0.086,0.08-0.125,0.125c-0.045,0.039-0.086,0.08-0.125,0.125
			c-0.045,0.039-0.086,0.08-0.125,0.125c-0.045,0.039-0.086,0.08-0.125,0.125c-0.045,0.039-0.086,0.08-0.125,0.125
			c-0.045,0.039-0.086,0.08-0.125,0.125c-0.045,0.039-0.086,0.08-0.125,0.125c-0.045,0.039-0.086,0.08-0.125,0.125
			c-0.045,0.039-0.086,0.08-0.125,0.125c-0.045,0.039-0.086,0.08-0.125,0.125c-0.045,0.039-0.086,0.08-0.125,0.125
			c-0.045,0.039-0.086,0.08-0.125,0.125c-0.045,0.039-0.086,0.08-0.125,0.125c-0.045,0.039-0.086,0.08-0.125,0.125
			c-0.045,0.039-0.086,0.08-0.125,0.125c-0.045,0.039-0.086,0.08-0.125,0.125c-0.045,0.039-0.086,0.08-0.125,0.125
			c-0.045,0.039-0.086,0.08-0.125,0.125c-0.045,0.039-0.086,0.08-0.125,0.125c-0.045,0.039-0.086,0.08-0.125,0.125
			c-0.045,0.039-0.086,0.08-0.125,0.125c-0.045,0.039-0.086,0.08-0.125,0.125c-0.045,0.039-0.086,0.08-0.125,0.125
			c-0.045,0.039-0.086,0.08-0.125,0.125c-0.045,0.039-0.086,0.08-0.125,0.125c-0.045,0.039-0.086,0.08-0.125,0.125
			c-0.045,0.039-0.086,0.08-0.125,0.125c-0.045,0.039-0.086,0.08-0.125,0.125c-0.045,0.039-0.086,0.08-0.125,0.125
			c-0.045,0.039-0.086,0.08-0.125,0.125c-0.045,0.039-0.086,0.08-0.125,0.125c-0.045,0.039-0.086,0.08-0.125,0.125
			c-0.045,0.039-0.086,0.08-0.125,0.125c-0.045,0.039-0.086,0.08-0.125,0.125c-0.045,0.039-0.086,0.08-0.125,0.125
			c-0.045,0.039-0.086,0.08-0.125,0.125c-0.045,0.039-0.086,0.08-0.125,0.125c-0.045,0.039-0.086,0.08-0.125,0.125
			c-0.045,0.039-0.086,0.08-0.125,0.125c-0.045,0.039-0.086,0.08-0.125,0.125c-0.045,0.039-0.086,0.08-0.125,0.125
			c-0.045,0.039-0.086,0.08-0.125,0.125c-0.045,0.039-0.086,0.08-0.125,0.125c-0.045,0.039-0.086,0.08-0.125,0.125
			c-0.045,0.039-0.086,0.08-0.125,0.125c-0.045,0.039-0.086,0.08-0.125,0.125c-0.045,0.039-0.086,0.08-0.125,0.125
			c-0.045,0.039-0.086,0.08-0.125,0.125c-0.045,0.039-0.086,0.08-0.125,0.125c-0.045,0.039-0.086,0.08-0.125,0.125
			c-0.045,0.039-0.086,0.08-0.125,0.125c-0.045,0.039-0.086,0.08-0.125,0.125c-0.045,0.039-0.086,0.08-0.125,0.125
			c-0.045,0.039-0.086,0.08-0.125,0.125c-0.045,0.039-0.086,0.08-0.125,0.125c-0.045,0.039-0.086,0.08-0.125,0.125
			c-0.045,0.039-0.086,0.08-0.125,0.125c-0.045,0.039-0.086,0.08-0.125,0.125c-0.045,0.039-0.086,0.08-0.125,0.125
			c-0.045,0.039-0.086,0.08-0.125,0.125c-0.045,0.039-0.086,0.08-0.125,0.125c-0.045,0.039-0.086,0.08-0.125,0.125
			c-0.045,0.039-0.086,0.08-0.125,0.125c-0.045,0.039-0.086,0.08-0.125,0.125c-0.045,0.039-0.086,0.08-0.125,0.125
			c-0.045,0.039-0.086,0.08-0.125,0.125c-0.045,0.039-0.086,0.08-0.125,0.125c-0.045,0.039-0.086,0.08-0.125,0.125
			c-0.045,0.039-0.086,0.08-0.125,0.125c-0.045,0.039-0.086,0.08-0.125,0.125c-0.045,0.039-0.086,0.08-0.125,0.125
			c-0.045,0.039-0.086,0.08-0.125,0.125c-0.045,0.039-0.086,0.08-0.125,0.125c-0.045,0.039-0.086,0.08-0.125,0.125
			c-0.045,0.039-0.086,0.08-0.125,0.125c-0.045,0.039-0.086,0.08-0.125,0.125c-0.045,0.039-0.086,0.08-0.125,0.125
			c-0.045,0.039-0.086,0.08-0.125,0.125c-0.045,0.039-0.086,0.08-0.125,0.125c-0.045,0.039-0.086,0.08-0.125,0.125
			c-0.045,0.039-0.086,0.08-0.125,0.125c-0.045,0.039-0.086,0.08-0.125,0.125c-0.045,0.039-0.086,0.08-0.125,0.125
			c-0.045,0.039-0.086,0.08-0.125,0.125c-0.045,0.039-0.086,0.08-0.125,0.125c-0.045,0.039-0.086,0.08-0.125,0.125
			c-0.045,0.039-0.086,0.08-0.125,0.125c-0.045,0.039-0.086,0.08-0.125,0.125c-0.045,0.039-0.086,0.08-0.125,0.125
			c-0.045,0.039-0.086,0.08-0.125,0.125c-0.045,0.039-0.086,0.08-0.125,0.125c-0.045,0.039-0.086,0.08-0.125,0.125
			c-0.045,0.039-0.086,0.08-0.125,0.125c-0.045,0.039-0.086,0.08-0.125,0.125c-0.045,0.039-0.086,0.08-0.125,0.125
			c-0.045,0.039-0.086,0.08-0.125,0.125c-0.045,0.039-0.086,0.08-0.125,0.125c-0.045,0.039-0.086,0.08-0.125,0.125
			c-0.045,0.039-0.086,0.08-0.125,0.125c-0.045,0.039-0.086,0.08-0.125,0.125c-0.045,0.039-0.086,0.08-0.125,0.125
			c-0.045,0.039-0.086,0.08-0.125,0.125c-0.045,0.039-0.086,0.08-0.125,0.125c-0.045,0.039-0.086,0.08-0.125,0.125
			c-0.045,0.039-0.086,0.08-0.125,0.125c-0.045,0.039-0.086,0.08-0.125,0.125c-0.045,0.039-0.086,0.08-0.125,0.125
			c-0.045,0.039-0.086,0.08-0.125,0.125c-0.045,0.039-0.086,0.08-0.125,0.125c-0.045,0.039-0.086,0.08-0.125,0.125
			c-0.045,0.039-0.086,0.08-0.125,0.125c-0.045,0.039-0.086,0.08-0.125,0.125c-0.045,0.039-0.086,0.08-0.125,0.125
			c-0.045,0.039-0.086,0.08-0.125,0.125c-0.045,0.039-0.086,0.08-0.125,0.125c-0.045,0.039-0.086,0.08-0.125,0.125
			c-0.045,0.039-0.086,0.08-0.125,0.125c-0.045,0.039-0.086,0.08-0.125,0.125c-0.045,0.039-0.086,0.08-0.125,0.125
			c-0.045,0.039-0.086,0.08-0.125,0.125c-0.045,0.039-0.086,0.08-0.125,0.125c-0.045,0.039-0.086,0.08-0.125,0.125
			c-0.045,0.039-0.086,0.08-0.125,0.125c-0.045,0.039-0.086,0.08-0.125,0.125c-0.045,0.039-0.086,0.08-0.125,0.125
			c-0.045,0.039-0.086,0.08-0.125,0.125c-0.045,0.039-0.086,0.08-0.125,0.125c-0.045,0.039-0.086,0.08-0.125,0.125
			c-0.045,0.039-0.086,0.08-0.125,0.125c-0.045,0.039-0.086,0.08-0.125,0.125c-0.045,0.039-0.086,0.08-0.125,0.125
			c-0.045,0.039-0.086,0.08-0.125,0.125c-0.045,0.039-0.086,0.08-0.125,0.125c-0.045,0.039-0.086,0.08-0.125,0.125
			c-0.045,0.039-0.086,0.08-0.125,0.125c-0.045,0.039-0.086,0.08-0.125,0.125c-0.045,0.039-0.086,0.08-0.125,0.125
			c-0.045,0.039-0.086,0.08-0.125,0.125c-0.045,0.039-0.086,0.08-0.125,0.125c-0.045,0.039-0.086,0.08-0.125,0.125
			c-0.045,0.039-0.086,0.08-0.125,0.125c-0.045,0.039-0.086,0.08-0.125,0.125c-0.045,0.039-0.086,0.08-0.125,0.125
			c-0.045,0.039-0.086,0.08-0.125,0.125c-0.045,0.039-0.086,0.08-0.125,0.125c-0.045,0.039-0.086,0.08-0.125,0.125
			c-0.045,0.039-0.086,0.08-0.125,0.125c-0.045,0.039-0.086,0.08-0.125,0.125c-0.045,0.039-0.086,0.08-0.125,0.125
			c-0.045,0.039-0.086,0.08-0.125,0.125c-0.045,0.039-0.086,0.08-0.125,0.125c-0.045,0.039-0.086,0.08-0.125,0.125
			c-0.045,0.039-0.086,0.08-0.125,0.125c-0.045,0.039-0.086,0.08-0.125,0.125c-0.045,0.039-0.086,0.08-0.125,0.125
			c-0.045,0.039-0.086,0.08-0.125,0.125c-0.045,0.039-0.086,0.08-0.125,0.125c-0.045,0.039-0.086,0.08-0.125,0.125
			c-0.045,0.039-0.086,0.08-0.125,0.125c-0.045,0.039-0.086,0.08-0.125,0.125c-0.045,0.039-0.086,0.08-0.125,0.125
			c-0.045,0.039-0.086,0.08-0.125,0.125c-0.045,0.039-0.086,0.08-0.125,0.125c-0.045,0.039-0.086,0.08-0.125,0.125
			c-0.045,0.039-0.086,0.08-0.125,0.125c-0.045,0.039-0.086,0.08-0.125,0.125c-0.045,0.039-0.086,0.08-0.125,0.125
			c-0.045,0.039-0.086,0.08-0.125,0.125c-0.045,0.039-0.086,0.08-0.125,0.125c-0.045,0.039-0.086,0.08-0.125,0.125
			c-0.045,0.039-0.086,0.08-0.125,0.125c-0.045,0.039-0.086,0.08-0.125,0.125c-0.045,0.039-0.086,0.08-0.125,0.125
			c-0.045,0.039-0.086,0.08-0.125,0.125c-0.265,0.229-0.441,0.807-0.441,1.185c0,0.69,0.56,1.5,1.25,1.5h5.034
			c-0.032,0.024-0.064,0.048-0.093,0.081c-0.045,0.04-0.086,0.072-0.125,0.117c-0.045,0.04-0.086,0.076-0.125,0.121
			c-0.045,0.039-0.086,0.078-0.125,0.123c-0.045,0.039-0.086,0.078-0.125,0.123c-0.045,0.041-0.086,0.08-0.125,0.125
			c-0.045,0.039-0.086,0.08-0.125,0.125c-0.045,0.039-0.086,0.08-0.125,0.125c-0.045,0.039-0.086,0.08-0.125,0.125
			c-0.045,0.039-0.086,0.08-0.125,0.125c-0.045,0.039-0.086,0.08-0.125,0.125c-0.045,0.039-0.086,0.08-0.125,0.125
			c-0.045,0.039-0.086,0.08-0.125,0.125c-0.045,0.039-0.086,0.08-0.125,0.125c-0.045,0.039-0.086,0.08-0.125,0.125
			c-0.045,0.039-0.086,0.08-0.125,0.125c-0.045,0.039-0.086,0.08-0.125,0.125c-0.045,0.039-0.086,0.08-0.125,0.125
			c-0.045,0.039-0.086,0.08-0.125,0.125c-0.045,0.039-0.086,0.08-0.125,0.125c-0.045,0.039-0.086,0.08-0.125,0.125
			c-0.045,0.039-0.086,0.08-0.125,0.125c-0.045,0.039-0.086,0.08-0.125,0.125c-0.045,0.039-0.086,0.08-0.125,0.125
			c-0.045,0.039-0.086,0.08-0.125,0.125c-0.045,0.039-0.086,0.08-0.125,0.125c-0.045,0.039-0.086,0.08-0.125,0.125
			c-0.045,0.039-0.086,0.08-0.125,0.125c-0.045,0.039-0.086,0.08-0.125,0.125c-0.045,0.039-0.086,0.08-0.125,0.125
			c-0.045,0.039-0.086,0.08-0.125,0.125c-0.045,0.039-0.086,0.08-0.125,0.125c-0.045,0.039-0.086,0.08-0.125,0.125
			c-0.045,0.039-0.086,0.08-0.125,0.125c-0.045,0.039-0.086,0.08-0.125,0.125c-0.045,0.039-0.086,0.08-0.125,0.125
			c-0.045,0.039-0.086,0.08-0.125,0.125c-0.045,0.039-0.086,0.08-0.125,0.125c-0.045,0.039-0.086,0.08-0.125,0.125
			c-0.045,0.039-0.086,0.08-0.125,0.125c-0.045,0.039-0.086,0.08-0.125,0.125c-0.045,0.039-0.086,0.08-0.125,0.125
			c-0.045,0.039-0.086,0.08-0.125,0.125c-0.045,0.039-0.086,0.08-0.125,0.125c-0.045,0.039-0.086,0.08-0.125,0.125
			c-0.045,0.039-0.086,0.08-0.125,0.125c-0.045,0.039-0.086,0.08-0.125,0.125c-0.265,0.229-0.441,0.557-0.441,0.935
			c0,0.69,0.56,1.25,1.25,1.25h5.485c-0.019,0.019-0.027,0.046-0.044,0.065c-0.045,0.039-0.086,0.08-0.125,0.125
			c-0.045,0.039-0.086,0.08-0.125,0.125c-0.045,0.039-0.086,0.08-0.125,0.125c-0.045,0.039-0.086,0.08-0.125,0.125
			c-0.045,0.039-0.086,0.08-0.125,0.125c-0.045,0.039-0.086,0.08-0.125,0.125c-0.045,0.039-0.086,0.08-0.125,0.125
			c-0.045,0.039-0.086,0.08-0.125,0.125c-0.045,0.039-0.086,0.08-0.125,0.125c-0.045,0.039-0.086,0.08-0.125,0.125
			c-0.045,0.039-0.086,0.08-0.125,0.125c-0.045,0.039-0.086,0.08-0.125,0.125c-0.045,0.039-0.086,0.08-0.125,0.125
			c-0.045,0.039-0.086,0.08-0.125,0.125c-0.045,0.039-0.086,0.08-0.125,0.125c-0.045,0.039-0.086,0.08-0.125,0.125
			c-0.045,0.039-0.086,0.08-0.125,0.125c-0.045,0.039-0.086,0.08-0.125,0.125c-0.045,0.039-0.086,0.08-0.125,0.125
			c-0.045,0.039-0.086,0.08-0.125,0.125c-0.045,0.039-0.086,0.08-0.125,0.125c-0.045,0.039-0.086,0.08-0.125,0.125
			c-0.045,0.039-0.086,0.08-0.125,0.125c-0.045,0.039-0.086,0.08-0.125,0.125c-0.045,0.039-0.086,0.08-0.125,0.125
			c-0.045,0.039-0.086,0.08-0.125,0.125c-0.045,0.039-0.086,0.08-0.125,0.125c-0.045,0.039-0.086,0.08-0.125,0.125
			c-0.045,0.039-0.086,0.08-0.125,0.125c-0.045,0.039-0.086,0.08-0.125,0.125c-0.045,0.039-0.086,0.08-0.125,0.125
			c-0.045,0.039-0.086,0.08-0.125,0.125c-0.045,0.039-0.086,0.08-0.125,0.125c-0.045,0.039-0.086,0.08-0.125,0.125
			c-0.045,0.039-0.086,0.08-0.125,0.125c-0.045,0.039-0.086,0.08-0.125,0.125c-0.045,0.039-0.086,0.08-0.125,0.125
			c-0.045,0.039-0.086,0.08-0.125,0.125c-0.045,0.039-0.086,0.08-0.125,0.125c-0.045,0.039-0.086,0.08-0.125,0.125
			c-0.045,0.039-0.086,0.08-0.125,0.125c-0.045,0.039-0.086,0.08-0.125,0.125c-0.045,0.039-0.086,0.08-0.125,0.125
			c-0.045,0.039-0.086,0.08-0.125,0.125c-0.045,0.039-0.086,0.08-0.125,0.125c-0.045,0.039-0.086,0.08-0.125,0.125
			c-0.045,0.039-0.086,0.08-0.125,0.125c-0.045,0.039-0.086,0.08-0.125,0.125c-0.045,0.039-0.086,0.08-0.125,0.125
			c-0.045,0.039-0.086,0.08-0.125,0.125c-0.265,0.229-0.441,0.807-0.441,1.185c0,0.69,0.56,1.5,1.25,1.5h6.25
			c0.377,0,0.705-0.426,0.934-0.69c0.045-0.039,0.086-0.205,0.125-0.25c0.045-0.039,0.086-0.143,0.125-0.188
			c0.045-0.04,0.086-0.111,0.125-0.156c0.045-0.04,0.086-0.096,0.125-0.141c0.045-0.04,0.086-0.088,0.125-0.133
			c0.045-0.041,0.086-0.084,0.125-0.129c0.045-0.041,0.086-0.082,0.125-0.127c0.045-0.041,0.086-0.082,0.125-0.127
			c0.045-0.039,0.086-0.08,0.125-0.125c0.045-0.041,0.086-0.08,0.125-0.125c0.045-0.041,0.086-0.08,0.125-0.125
			c0.045-0.041,0.086-0.08,0.125-0.125c0.045-0.041,0.086-0.08,0.125-0.125c0.045-0.041,0.086-0.08,0.125-0.125
			c0.045-0.041,0.086-0.08,0.125-0.125c0.045-0.041,0.086-0.08,0.125-0.125c0.045-0.041,0.086-0.08,0.125-0.125
			c0.045-0.041,0.086-0.08,0.125-0.125c0.045-0.041,0.086-0.08,0.125-0.125c0.045-0.041,0.086-0.08,0.125-0.125
			c0.045-0.041,0.086-0.08,0.125-0.125c0.045-0.041,0.086-0.08,0.125-0.125c0.045-0.041,0.086-0.08,0.125-0.125
			c0.045-0.041,0.086-0.08,0.125-0.125c0.045-0.041,0.086-0.08,0.125-0.125c0.045-0.041,0.086-0.08,0.125-0.125
			c0.045-0.041,0.086-0.08,0.125-0.125c0.045-0.041,0.086-0.08,0.125-0.125c0.045-0.041,0.086-0.08,0.125-0.125
			c0.045-0.041,0.086-0.08,0.125-0.125c0.045-0.041,0.086-0.08,0.125-0.125c0.045-0.041,0.086-0.08,0.125-0.125
			c0.045-0.041,0.086-0.08,0.125-0.125c0.045-0.041,0.086-0.08,0.125-0.125c0.045-0.041,0.086-0.08,0.125-0.125
			c0.045-0.041,0.086-0.08,0.125-0.125c0.045-0.041,0.086-0.08,0.125-0.125c0.045-0.041,0.086-0.08,0.125-0.125
			c0.045-0.041,0.086-0.08,0.125-0.125c0.045-0.041,0.086-0.08,0.125-0.125c0.045-0.041,0.086-0.08,0.125-0.125
			c0.045-0.041,0.086-0.08,0.125-0.125c0.045-0.041,0.086-0.08,0.125-0.125c0.02-0.019,0.047-0.026,0.066-0.045v8.109
			c0,1.38,1.245,2.25,2.625,2.25H-24v-1h1v-1h1v-1h1v-1h1v-1h1v-1h1v6h11.958C-4.077,126-2,128.188,1,129.641v15.109
			c0,3.453,3.423,6.25,6.875,6.25h3.018c0.057,2.025,0.299,4.76,1.347,7.258c1.781,4.247,5.329,6.492,10.26,6.492
			c0.55,0,1.04-0.241,1.382-0.618c0.044-0.039,0.085-0.081,0.125-0.125c0.044-0.039,0.085-0.081,0.125-0.125
			c0.044-0.039,0.085-0.081,0.125-0.125c0.044-0.039,0.085-0.081,0.125-0.125c0.044-0.039,0.085-0.081,0.125-0.125
			c0.044-0.039,0.085-0.081,0.125-0.125c0.044-0.039,0.085-0.081,0.125-0.125c0.044-0.039,0.085-0.081,0.125-0.125
			c0.044-0.039,0.085-0.081,0.125-0.125c0.044-0.039,0.085-0.081,0.125-0.125c0.044-0.039,0.085-0.081,0.125-0.125
			c0.044-0.039,0.085-0.081,0.125-0.125c0.044-0.039,0.085-0.081,0.125-0.125c0.044-0.039,0.085-0.081,0.125-0.125
			c0.044-0.039,0.085-0.081,0.125-0.125c0.044-0.039,0.085-0.081,0.125-0.125c0.044-0.039,0.085-0.081,0.125-0.125
			c0.044-0.039,0.085-0.081,0.125-0.125c0.044-0.039,0.085-0.081,0.125-0.125c0.044-0.039,0.085-0.081,0.125-0.125
			c0.044-0.039,0.085-0.081,0.125-0.125c0.044-0.039,0.085-0.081,0.125-0.125c0.044-0.039,0.085-0.081,0.125-0.125
			c0.044-0.039,0.085-0.081,0.125-0.125c0.044-0.039,0.085-0.081,0.125-0.125c0.044-0.039,0.085-0.081,0.125-0.125
			c0.044-0.039,0.085-0.081,0.125-0.125c0.044-0.039,0.085-0.081,0.125-0.125c0.044-0.039,0.085-0.081,0.125-0.125
			c0.044-0.039,0.085-0.081,0.125-0.125c0.044-0.039,0.085-0.081,0.125-0.125c0.044-0.039,0.085-0.081,0.125-0.125
			c0.044-0.039,0.085-0.081,0.125-0.125c0.044-0.039,0.085-0.081,0.125-0.125c0.044-0.039,0.085-0.081,0.125-0.125
			c0.044-0.039,0.085-0.081,0.125-0.125c0.044-0.039,0.085-0.081,0.125-0.125c0.044-0.039,0.085-0.081,0.125-0.125
			c0.044-0.039,0.085-0.081,0.125-0.125c0.044-0.039,0.085-0.081,0.125-0.125c0.044-0.039,0.085-0.081,0.125-0.125
			c0.044-0.039,0.085-0.081,0.125-0.125c0.044-0.039,0.085-0.081,0.125-0.125c0.044-0.039,0.085-0.081,0.125-0.125
			c0.044-0.039,0.085-0.081,0.125-0.125c0.044-0.039,0.085-0.081,0.125-0.125c0.044-0.039,0.085-0.081,0.125-0.125
			c0.044-0.039,0.085-0.081,0.125-0.125c0.044-0.039,0.085-0.081,0.125-0.125c0.044-0.039,0.085-0.081,0.125-0.125
			c0.044-0.039,0.085-0.081,0.125-0.125c0.044-0.039,0.085-0.081,0.125-0.125c0.044-0.039,0.085-0.081,0.125-0.125
			c0.044-0.039,0.085-0.081,0.125-0.125c0.044-0.039,0.085-0.081,0.125-0.125c0.044-0.039,0.085-0.081,0.125-0.125
			c0.044-0.039,0.085-0.081,0.125-0.125c0.044-0.039,0.085-0.081,0.125-0.125c0.044-0.039,0.085-0.081,0.125-0.125
			c0.044-0.039,0.085-0.081,0.125-0.125c0.044-0.039,0.085-0.081,0.125-0.125c0.044-0.039,0.085-0.081,0.125-0.125
			c0.044-0.039,0.085-0.081,0.125-0.125c0.044-0.039,0.085-0.081,0.125-0.125c0.044-0.039,0.085-0.081,0.125-0.125
			c0.044-0.039,0.085-0.081,0.125-0.125c0.044-0.039,0.085-0.081,0.125-0.125c0.044-0.039,0.085-0.081,0.125-0.125
			c0.044-0.039,0.085-0.081,0.125-0.125c0.044-0.039,0.085-0.081,0.125-0.125c0.044-0.039,0.085-0.081,0.125-0.125
			c0.044-0.039,0.085-0.081,0.125-0.125c0.044-0.039,0.085-0.081,0.125-0.125c0.044-0.039,0.085-0.081,0.125-0.125
			c0.044-0.039,0.085-0.081,0.125-0.125c0.044-0.039,0.085-0.081,0.125-0.125c0.044-0.039,0.085-0.081,0.125-0.125
			c0.044-0.039,0.085-0.081,0.125-0.125c0.044-0.039,0.085-0.081,0.125-0.125c0.044-0.039,0.085-0.081,0.125-0.125
			c0.044-0.039,0.085-0.081,0.125-0.125c0.044-0.039,0.085-0.081,0.125-0.125c0.044-0.039,0.085-0.081,0.125-0.125
			c0.044-0.039,0.085-0.081,0.125-0.125c0.044-0.039,0.085-0.081,0.125-0.125c0.044-0.039,0.085-0.081,0.125-0.125
			c0.044-0.039,0.085-0.081,0.125-0.125c0.044-0.039,0.085-0.081,0.125-0.125c0.044-0.039,0.085-0.081,0.125-0.125
			c0.044-0.039,0.085-0.081,0.125-0.125c0.044-0.039,0.085-0.081,0.125-0.125c0.044-0.039,0.085-0.081,0.125-0.125
			c0.044-0.039,0.085-0.081,0.125-0.125c0.044-0.039,0.085-0.081,0.125-0.125c0.044-0.039,0.085-0.081,0.125-0.125
			c0.044-0.039,0.085-0.081,0.125-0.125c0.044-0.039,0.085-0.081,0.125-0.125c0.044-0.039,0.085-0.081,0.125-0.125
			c0.044-0.039,0.085-0.081,0.125-0.125c0.044-0.039,0.085-0.081,0.125-0.125c0.044-0.039,0.085-0.081,0.125-0.125
			c0.044-0.039,0.085-0.081,0.125-0.125c0.044-0.039,0.085-0.081,0.125-0.125c0.044-0.039,0.085-0.081,0.125-0.125
			c0.044-0.039,0.085-0.081,0.125-0.125c0.044-0.039,0.085-0.081,0.125-0.125c0.044-0.039,0.085-0.081,0.125-0.125
			c0.044-0.039,0.085-0.081,0.125-0.125c0.044-0.039,0.085-0.081,0.125-0.125c0.044-0.039,0.085-0.081,0.125-0.125
			c0.044-0.039,0.085-0.081,0.125-0.125c0.044-0.039,0.085-0.081,0.125-0.125c0.044-0.039,0.085-0.081,0.125-0.125
			c0.044-0.039,0.085-0.081,0.125-0.125c0.044-0.039,0.085-0.081,0.125-0.125c0.044-0.039,0.085-0.081,0.125-0.125
			c0.044-0.039,0.085-0.081,0.125-0.125c0.044-0.039,0.085-0.081,0.125-0.125c0.044-0.039,0.085-0.081,0.125-0.125
			c0.044-0.039,0.085-0.081,0.125-0.125c0.044-0.039,0.085-0.081,0.125-0.125c0.044-0.039,0.085-0.081,0.125-0.125
			c0.044-0.039,0.085-0.081,0.125-0.125c0.044-0.039,0.085-0.081,0.125-0.125c0.044-0.039,0.085-0.081,0.125-0.125
			c0.044-0.039,0.085-0.081,0.125-0.125c0.044-0.039,0.085-0.081,0.125-0.125c0.044-0.039,0.085-0.081,0.125-0.125
			c0.044-0.039,0.085-0.081,0.125-0.125c0.044-0.039,0.085-0.081,0.125-0.125c0.044-0.039,0.085-0.081,0.125-0.125
			c0.044-0.039,0.085-0.081,0.125-0.125c0.044-0.039,0.085-0.081,0.125-0.125c0.044-0.039,0.085-0.081,0.125-0.125
			c0.044-0.039,0.085-0.081,0.125-0.125c0.044-0.039,0.085-0.081,0.125-0.125c0.044-0.039,0.085-0.081,0.125-0.125
			c0.044-0.039,0.085-0.081,0.125-0.125c0.044-0.039,0.085-0.081,0.125-0.125c0.044-0.039,0.085-0.081,0.125-0.125
			c0.044-0.039,0.085-0.081,0.125-0.125c0.044-0.039,0.085-0.081,0.125-0.125c0.044-0.039,0.085-0.081,0.125-0.125
			c0.044-0.039,0.085-0.081,0.125-0.125c0.044-0.039,0.085-0.081,0.125-0.125c0.044-0.039,0.085-0.081,0.125-0.125
			c0.044-0.039,0.085-0.081,0.125-0.125c0.044-0.039,0.085-0.081,0.125-0.125c0.044-0.039,0.085-0.081,0.125-0.125
			c0.044-0.039,0.085-0.081,0.125-0.125c0.044-0.039,0.085-0.081,0.125-0.125c0.044-0.039,0.085-0.081,0.125-0.125
			c0.044-0.039,0.085-0.081,0.125-0.125c0.044-0.039,0.085-0.081,0.125-0.125c0.044-0.039,0.085-0.081,0.125-0.125
			c0.044-0.039,0.085-0.081,0.125-0.125c0.044-0.039,0.085-0.081,0.125-0.125c0.044-0.039,0.085-0.081,0.125-0.125
			c0.044-0.039,0.085-0.081,0.125-0.125c0.044-0.039,0.085-0.081,0.125-0.125c0.044-0.039,0.085-0.081,0.125-0.125
			c0.044-0.039,0.085-0.081,0.125-0.125c0.044-0.039,0.085-0.081,0.125-0.125c0.044-0.039,0.085-0.081,0.125-0.125
			c0.044-0.039,0.085-0.081,0.125-0.125c0.044-0.039,0.085-0.081,0.125-0.125c0.044-0.039,0.085-0.081,0.125-0.125
			c0.044-0.039,0.085-0.081,0.125-0.125c0.044-0.039,0.085-0.081,0.125-0.125c0.044-0.039,0.085-0.081,0.125-0.125
			c0.044-0.039,0.085-0.081,0.125-0.125c0.044-0.039,0.085-0.081,0.125-0.125c0.044-0.039,0.085-0.081,0.125-0.125
			c0.044-0.039,0.085-0.081,0.125-0.125c0.044-0.039,0.085-0.081,0.125-0.125c0.044-0.039,0.085-0.081,0.125-0.125
			c0.044-0.039,0.085-0.081,0.125-0.125c0.044-0.039,0.085-0.081,0.125-0.125c0.044-0.039,0.085-0.081,0.125-0.125
			c0.044-0.039,0.085-0.081,0.125-0.125c0.044-0.039,0.085-0.081,0.125-0.125c0.044-0.039,0.085-0.081,0.125-0.125
			c0.044-0.039,0.085-0.081,0.125-0.125c0.044-0.039,0.085-0.081,0.125-0.125c0.044-0.039,0.085-0.081,0.125-0.125
			c0.044-0.039,0.085-0.081,0.125-0.125c0.044-0.039,0.085-0.081,0.125-0.125c0.044-0.039,0.085-0.081,0.125-0.125
			c0.044-0.039,0.085-0.081,0.125-0.125c0.044-0.039,0.085-0.081,0.125-0.125c0.044-0.039,0.085-0.081,0.125-0.125
			c0.044-0.039,0.085-0.081,0.125-0.125c0.044-0.039,0.085-0.081,0.125-0.125c0.044-0.039,0.085-0.081,0.125-0.125
			c0.044-0.039,0.085-0.081,0.125-0.125c0.044-0.039,0.085-0.081,0.125-0.125c0.044-0.039,0.085-0.081,0.125-0.125
			c0.044-0.039,0.085-0.081,0.125-0.125c0.044-0.039,0.085-0.081,0.125-0.125c0.044-0.039,0.085-0.081,0.125-0.125
			c0.044-0.039,0.085-0.081,0.125-0.125c0.044-0.039,0.085-0.081,0.125-0.125c0.044-0.039,0.085-0.081,0.125-0.125
			c0.044-0.039,0.085-0.081,0.125-0.125c0.044-0.039,0.085-0.081,0.125-0.125c0.044-0.039,0.085-0.081,0.125-0.125
			c0.044-0.039,0.085-0.081,0.125-0.125c0.044-0.039,0.085-0.081,0.125-0.125c0.044-0.039,0.085-0.081,0.125-0.125
			c0.044-0.039,0.085-0.081,0.125-0.125c0.044-0.039,0.085-0.081,0.125-0.125c0.044-0.039,0.085-0.081,0.125-0.125
			c0.044-0.039,0.085-0.081,0.125-0.125c0.044-0.039,0.085-0.081,0.125-0.125c0.044-0.039,0.085-0.081,0.125-0.125
			c0.044-0.039,0.085-0.081,0.125-0.125c0.044-0.039,0.085-0.081,0.125-0.125c0.044-0.039,0.085-0.081,0.125-0.125
			c0.044-0.039,0.085-0.081,0.125-0.125c0.044-0.039,0.085-0.081,0.125-0.125c0.044-0.039,0.085-0.081,0.125-0.125
			c0.044-0.039,0.085-0.081,0.125-0.125c0.044-0.039,0.085-0.081,0.125-0.125c0.044-0.039,0.085-0.081,0.125-0.125
			c0.044-0.039,0.085-0.081,0.125-0.125c0.044-0.039,0.085-0.081,0.125-0.125c0.044-0.039,0.085-0.081,0.125-0.125
			c0.044-0.039,0.085-0.081,0.125-0.125c0.044-0.039,0.085-0.081,0.125-0.125c0.044-0.039,0.085-0.081,0.125-0.125
			c0.044-0.039,0.085-0.081,0.125-0.125c0.044-0.039,0.085-0.081,0.125-0.125c0.044-0.039,0.085-0.081,0.125-0.125
			c0.044-0.039,0.085-0.081,0.125-0.125c0.044-0.039,0.085-0.081,0.125-0.125c0.044-0.039,0.085-0.081,0.125-0.125
			c0.044-0.039,0.085-0.081,0.125-0.125c0.044-0.039,0.085-0.081,0.125-0.125c0.044-0.039,0.085-0.081,0.125-0.125
			c0.044-0.039,0.085-0.081,0.125-0.125c0.044-0.039,0.085-0.081,0.125-0.125c0.044-0.039,0.085-0.081,0.125-0.125
			c0.044-0.039,0.085-0.081,0.125-0.125c0.044-0.039,0.085-0.081,0.125-0.125c0.044-0.039,0.085-0.081,0.125-0.125
			c0.044-0.039,0.085-0.081,0.125-0.125c0.044-0.039,0.085-0.081,0.125-0.125c0.044-0.039,0.085-0.081,0.125-0.125
			c0.044-0.039,0.085-0.081,0.125-0.125c0.044-0.039,0.085-0.081,0.125-0.125c0.044-0.039,0.085-0.081,0.125-0.125
			c0.044-0.039,0.085-0.081,0.125-0.125c0.044-0.039,0.085-0.081,0.125-0.125c0.044-0.039,0.085-0.081,0.125-0.125
			c0.044-0.039,0.085-0.081,0.125-0.125c0.044-0.039,0.085-0.081,0.125-0.125c0.044-0.039,0.085-0.081,0.125-0.125
			c0.044-0.039,0.085-0.081,0.125-0.125c0.044-0.039,0.085-0.081,0.125-0.125c0.044-0.039,0.085-0.081,0.125-0.125
			c0.044-0.039,0.085-0.081,0.125-0.125c0.044-0.039,0.085-0.081,0.125-0.125c0.044-0.039,0.085-0.081,0.125-0.125
			c0.044-0.039,0.085-0.081,0.125-0.125c0.044-0.039,0.085-0.081,0.125-0.125c0.044-0.039,0.085-0.081,0.125-0.125
			c0.044-0.039,0.085-0.081,0.125-0.125c0.044-0.039,0.085-0.081,0.125-0.125c0.044-0.039,0.085-0.081,0.125-0.125
			c0.044-0.039,0.085-0.081,0.125-0.125c0.044-0.039,0.085-0.081,0.125-0.125c0.044-0.039,0.085-0.081,0.125-0.125
			c0.044-0.039,0.085-0.081,0.125-0.125c0.044-0.039,0.085-0.081,0.125-0.125c0.044-0.039,0.085-0.081,0.125-0.125
			c0.044-0.039,0.085-0.081,0.125-0.125c0.044-0.039,0.085-0.081,0.125-0.125c0.044-0.039,0.085-0.081,0.125-0.125
			c0.044-0.039,0.085-0.081,0.125-0.125c0.044-0.039,0.085-0.081,0.125-0.125c0.044-0.039,0.085-0.081,0.125-0.125
			c0.044-0.039,0.085-0.081,0.125-0.125c0.044-0.039,0.085-0.081,0.125-0.125c0.044-0.039,0.085-0.081,0.125-0.125
			c0.044-0.039,0.085-0.081,0.125-0.125c0.044-0.039,0.085-0.081,0.125-0.125c0.044-0.039,0.085-0.081,0.125-0.125
			c0.044-0.039,0.085-0.081,0.125-0.125c0.044-0.039,0.085-0.081,0.125-0.125c0.044-0.039,0.085-0.081,0.125-0.125
			c0.044-0.039,0.085-0.081,0.125-0.125c0.044-0.039,0.085-0.081,0.125-0.125c0.044-0.039,0.085-0.081,0.125-0.125
			c0.044-0.039,0.085-0.081,0.125-0.125c0.044-0.039,0.085-0.081,0.125-0.125c0.044-0.039,0.085-0.081,0.125-0.125
			c0.044-0.039,0.085-0.081,0.125-0.125c0.044-0.039,0.085-0.081,0.125-0.125c0.044-0.039,0.085-0.081,0.125-0.125
			c0.044-0.039,0.085-0.081,0.125-0.125c0.044-0.039,0.085-0.081,0.125-0.125c0.044-0.039,0.085-0.081,0.125-0.125
			c0.044-0.039,0.085-0.081,0.125-0.125c0.044-0.039,0.085-0.081,0.125-0.125c0.028-0.024,0.049-0.057,0.076-0.084
			c0.062-0.052,0.12-0.106,0.174-0.166c0.044-0.039,0.085-0.081,0.125-0.125c0.044-0.039,0.085-0.081,0.125-0.125
			c0.044-0.039,0.085-0.081,0.125-0.125c0.044-0.039,0.085-0.081,0.125-0.125c0.044-0.039,0.085-0.081,0.125-0.125
			c0.044-0.039,0.085-0.081,0.125-0.125c0.044-0.039,0.085-0.081,0.125-0.125c0.044-0.039,0.085-0.081,0.125-0.125
			c0.044-0.039,0.085-0.081,0.125-0.125c0.044-0.039,0.085-0.081,0.125-0.125c0.044-0.039,0.085-0.081,0.125-0.125
			c0.044-0.039,0.085-0.081,0.125-0.125c0.044-0.039,0.085-0.081,0.125-0.125c0.044-0.039,0.085-0.081,0.125-0.125
			c0.044-0.039,0.085-0.081,0.125-0.125c0.044-0.039,0.085-0.081,0.125-0.125c0.044-0.039,0.085-0.081,0.125-0.125
			c0.044-0.039,0.085-0.081,0.125-0.125c0.044-0.039,0.085-0.081,0.125-0.125c0.044-0.039,0.085-0.081,0.125-0.125
			c0.044-0.039,0.085-0.081,0.125-0.125c0.044-0.039,0.085-0.081,0.125-0.125c0.044-0.039,0.085-0.081,0.125-0.125
			c0.043-0.039,0.085-0.081,0.125-0.125c0.043-0.04,0.085-0.081,0.125-0.125c0.044-0.04,0.085-0.081,0.124-0.125
			c0.044-0.039,0.086-0.081,0.125-0.125c0.044-0.039,0.086-0.081,0.125-0.125c0.044-0.039,0.086-0.081,0.125-0.125
			c0.044-0.039,0.086-0.081,0.125-0.125c0.044-0.039,0.086-0.081,0.125-0.125c0.044-0.039,0.086-0.081,0.125-0.125
			c0.044-0.039,0.086-0.081,0.125-0.125c0.044-0.039,0.086-0.081,0.125-0.125c0.044-0.039,0.086-0.081,0.125-0.125
			c0.044-0.039,0.086-0.081,0.125-0.125c0.044-0.039,0.086-0.081,0.125-0.125c0.044-0.039,0.086-0.081,0.125-0.125
			c0.044-0.039,0.086-0.081,0.125-0.125c0.044-0.039,0.086-0.081,0.125-0.125c0.044-0.039,0.086-0.081,0.125-0.125
			c0.044-0.039,0.086-0.081,0.125-0.125c0.044-0.039,0.086-0.081,0.125-0.125c0.044-0.039,0.086-0.081,0.125-0.125
			c0.044-0.039,0.086-0.081,0.125-0.125c0.044-0.039,0.086-0.081,0.125-0.125c0.044-0.039,0.086-0.081,0.125-0.125
			c0.044-0.039,0.086-0.081,0.125-0.125c0.044-0.039,0.086-0.081,0.125-0.125c0.044-0.039,0.086-0.081,0.125-0.125
			c0.044-0.039,0.086-0.081,0.125-0.125c0.044-0.039,0.086-0.081,0.125-0.125c0.044-0.039,0.086-0.081,0.125-0.125
			c0.044-0.039,0.086-0.081,0.125-0.125c0.044-0.039,0.086-0.081,0.125-0.125c0.044-0.039,0.086-0.081,0.125-0.125
			c0.044-0.039,0.086-0.081,0.125-0.125c0.044-0.039,0.086-0.081,0.125-0.125c0.044-0.039,0.086-0.081,0.125-0.125
			c0.044-0.039,0.086-0.081,0.125-0.125c0.044-0.039,0.086-0.081,0.125-0.125c0.044-0.039,0.086-0.081,0.125-0.125
			c0.044-0.039,0.086-0.081,0.125-0.125c0.044-0.039,0.086-0.081,0.125-0.125c0.044-0.039,0.086-0.081,0.125-0.125
			c0.044-0.039,0.086-0.081,0.125-0.125c0.044-0.039,0.086-0.081,0.125-0.125c0.044-0.039,0.086-0.081,0.125-0.125
			c0.044-0.039,0.086-0.081,0.125-0.125c0.044-0.039,0.086-0.081,0.125-0.125c0.044-0.039,0.086-0.081,0.125-0.125
			c0.044-0.039,0.086-0.081,0.125-0.125c0.044-0.039,0.086-0.081,0.125-0.125c0.044-0.039,0.086-0.081,0.125-0.125
			c0.044-0.039,0.086-0.081,0.125-0.125c0.044-0.039,0.086-0.081,0.125-0.125c0.044-0.039,0.086-0.081,0.125-0.125
			c0.044-0.039,0.086-0.081,0.125-0.125c0.044-0.039,0.086-0.081,0.125-0.125c0.044-0.039,0.086-0.081,0.125-0.125
			c0.044-0.039,0.086-0.081,0.125-0.125c0.044-0.039,0.086-0.081,0.125-0.125c0.044-0.039,0.086-0.081,0.125-0.125
			c0.044-0.039,0.086-0.081,0.125-0.125c0.044-0.039,0.086-0.081,0.125-0.125c0.044-0.039,0.086-0.081,0.125-0.125
			c0.044-0.039,0.086-0.081,0.125-0.125c0.044-0.039,0.086-0.081,0.125-0.125c0.044-0.039,0.086-0.081,0.125-0.125
			c0.044-0.039,0.086-0.081,0.125-0.125c0.044-0.039,0.086-0.081,0.125-0.125c0.044-0.039,0.086-0.081,0.125-0.125
			c0.044-0.039,0.086-0.081,0.125-0.125c0.044-0.039,0.086-0.081,0.125-0.125c0.044-0.039,0.086-0.081,0.125-0.125
			c0.044-0.039,0.086-0.081,0.125-0.125c0.044-0.039,0.086-0.081,0.125-0.125c0.044-0.039,0.086-0.081,0.125-0.125
			c0.044-0.039,0.086-0.081,0.125-0.125c0.044-0.039,0.086-0.081,0.125-0.125c0.044-0.039,0.086-0.081,0.125-0.125
			c0.044-0.039,0.086-0.081,0.125-0.125c0.044-0.039,0.086-0.081,0.125-0.125c0.044-0.039,0.086-0.081,0.125-0.125
			c0.044-0.039,0.086-0.081,0.125-0.125c0.044-0.039,0.086-0.081,0.125-0.125c0.044-0.039,0.086-0.081,0.125-0.125
			c0.044-0.039,0.086-0.081,0.125-0.125c0.044-0.039,0.086-0.081,0.125-0.125c0.044-0.039,0.086-0.081,0.125-0.125
			c0.044-0.039,0.086-0.081,0.125-0.125c0.044-0.039,0.086-0.081,0.125-0.125c0.044-0.039,0.086-0.081,0.125-0.125
			c0.044-0.039,0.086-0.081,0.125-0.125c0.044-0.039,0.086-0.081,0.125-0.125c0.044-0.039,0.086-0.081,0.125-0.125
			c0.044-0.039,0.086-0.081,0.125-0.125c0.044-0.039,0.086-0.081,0.125-0.125c0.044-0.039,0.086-0.081,0.125-0.125
			c0.044-0.039,0.086-0.081,0.125-0.125c0.044-0.039,0.086-0.081,0.125-0.125c0.044-0.039,0.086-0.081,0.125-0.125
			c0.044-0.039,0.086-0.081,0.125-0.125c0.044-0.039,0.086-0.081,0.125-0.125c0.044-0.039,0.086-0.081,0.125-0.125
			c0.044-0.039,0.086-0.081,0.125-0.125c0.044-0.039,0.086-0.081,0.125-0.125c0.044-0.039,0.086-0.081,0.125-0.125
			c0.044-0.039,0.086-0.081,0.125-0.125c0.044-0.039,0.086-0.081,0.125-0.125c0.044-0.039,0.086-0.081,0.125-0.125
			c0.044-0.039,0.086-0.081,0.125-0.125c0.044-0.039,0.086-0.081,0.125-0.125c0.044-0.039,0.086-0.081,0.125-0.125
			c0.044-0.039,0.086-0.081,0.125-0.125c0.044-0.039,0.086-0.081,0.125-0.125c0.044-0.039,0.086-0.081,0.125-0.125
			c0.044-0.039,0.086-0.081,0.125-0.125c0.044-0.039,0.086-0.081,0.125-0.125c0.044-0.039,0.086-0.081,0.125-0.125
			c0.044-0.039,0.086-0.081,0.125-0.125c0.044-0.039,0.086-0.081,0.125-0.125c0.044-0.039,0.086-0.081,0.125-0.125
			c0.044-0.039,0.086-0.081,0.125-0.125c0.044-0.039,0.086-0.081,0.125-0.125c0.044-0.039,0.086-0.081,0.125-0.125
			c0.044-0.039,0.086-0.081,0.125-0.125c0.044-0.039,0.086-0.081,0.125-0.125c0.044-0.039,0.086-0.081,0.125-0.125
			c0.044-0.039,0.086-0.081,0.125-0.125c0.044-0.039,0.086-0.081,0.125-0.125c0.044-0.039,0.086-0.081,0.125-0.125
			c0.044-0.039,0.086-0.081,0.125-0.125c0.044-0.039,0.086-0.081,0.125-0.125c0.044-0.039,0.086-0.081,0.125-0.125
			c0.044-0.039,0.086-0.081,0.125-0.125c0.044-0.039,0.086-0.081,0.125-0.125c0.044-0.039,0.086-0.081,0.125-0.125
			c0.044-0.039,0.086-0.081,0.125-0.125c0.044-0.039,0.086-0.081,0.125-0.125c0.044-0.039,0.086-0.081,0.125-0.125
			c0.044-0.039,0.086-0.081,0.125-0.125c0.044-0.039,0.086-0.081,0.125-0.125c0.044-0.039,0.086-0.081,0.125-0.125
			c0.044-0.039,0.086-0.081,0.125-0.125c0.044-0.039,0.086-0.081,0.125-0.125c0.044-0.039,0.086-0.081,0.125-0.125
			c0.044-0.039,0.086-0.081,0.125-0.125c0.044-0.039,0.086-0.081,0.125-0.125c0.044-0.039,0.086-0.081,0.125-0.125
			c0.044-0.039,0.086-0.081,0.125-0.125c0.044-0.039,0.086-0.081,0.125-0.125c0.044-0.039,0.086-0.081,0.125-0.125
			c0.044-0.039,0.086-0.081,0.125-0.125c0.044-0.039,0.086-0.081,0.125-0.125c0.044-0.039,0.086-0.081,0.125-0.125
			c0.044-0.039,0.086-0.081,0.125-0.125c0.044-0.039,0.086-0.081,0.125-0.125c0.044-0.039,0.086-0.081,0.125-0.125
			c0.044-0.039,0.086-0.081,0.125-0.125c0.044-0.039,0.086-0.081,0.125-0.125c0.044-0.039,0.086-0.081,0.125-0.125
			c0.044-0.039,0.086-0.081,0.125-0.125c0.044-0.039,0.086-0.081,0.125-0.125c0.044-0.039,0.086-0.081,0.125-0.125
			c0.044-0.039,0.086-0.081,0.125-0.125c0.044-0.039,0.086-0.081,0.125-0.125c0.044-0.039,0.086-0.081,0.125-0.125
			c0.044-0.039,0.086-0.081,0.125-0.125c0.044-0.039,0.086-0.081,0.125-0.125c0.044-0.039,0.086-0.081,0.125-0.125
			c0.044-0.039,0.086-0.081,0.125-0.125c0.044-0.039,0.086-0.081,0.125-0.125c0.044-0.039,0.086-0.081,0.125-0.125
			c0.044-0.039,0.086-0.081,0.125-0.125c0.044-0.039,0.086-0.081,0.125-0.125c0.044-0.039,0.086-0.081,0.125-0.125
			c0.044-0.039,0.086-0.081,0.125-0.125c0.044-0.039,0.086-0.081,0.125-0.125c0.044-0.039,0.086-0.081,0.125-0.125
			c0.044-0.039,0.086-0.081,0.125-0.125c0.044-0.039,0.086-0.081,0.125-0.125c0.044-0.039,0.086-0.081,0.125-0.125
			c0.044-0.039,0.086-0.081,0.125-0.125c0.044-0.039,0.086-0.081,0.125-0.125c0.044-0.039,0.086-0.081,0.125-0.125
			c0.044-0.039,0.086-0.081,0.125-0.125c0.044-0.039,0.086-0.081,0.125-0.125c0.044-0.039,0.086-0.081,0.125-0.125
			c0.044-0.039,0.086-0.081,0.125-0.125c0.044-0.039,0.086-0.081,0.125-0.125c0.044-0.039,0.086-0.081,0.125-0.125
			c0.044-0.039,0.086-0.081,0.125-0.125c0.044-0.039,0.086-0.081,0.125-0.125c0.044-0.039,0.086-0.081,0.125-0.125
			c0.044-0.039,0.086-0.081,0.125-0.125c0.044-0.039,0.086-0.081,0.125-0.125c0.044-0.039,0.086-0.081,0.125-0.125
			c0.044-0.039,0.086-0.081,0.125-0.125c0.044-0.039,0.086-0.081,0.125-0.125c0.044-0.039,0.086-0.081,0.125-0.125
			c0.044-0.039,0.086-0.081,0.125-0.125c0.044-0.039,0.086-0.081,0.125-0.125c0.044-0.039,0.086-0.081,0.125-0.125
			c0.044-0.039,0.086-0.081,0.125-0.125c0.044-0.039,0.086-0.081,0.125-0.125c0.044-0.039,0.086-0.081,0.125-0.125
			c0.044-0.039,0.086-0.081,0.125-0.125c0.044-0.039,0.086-0.081,0.125-0.125c0.044-0.039,0.086-0.081,0.125-0.125
			c0.044-0.039,0.086-0.081,0.125-0.125c0.044-0.039,0.086-0.081,0.125-0.125c0.044-0.039,0.086-0.081,0.125-0.125
			c0.044-0.039,0.086-0.081,0.125-0.125c0.044-0.039,0.086-0.081,0.125-0.125c0.044-0.039,0.086-0.081,0.125-0.125
			c0.044-0.039,0.086-0.081,0.125-0.125c0.044-0.039,0.086-0.081,0.125-0.125c0.044-0.039,0.086-0.081,0.125-0.125
			c0.044-0.039,0.086-0.081,0.125-0.125c0.044-0.039,0.086-0.081,0.125-0.125c0.044-0.039,0.086-0.081,0.125-0.125
			c0.044-0.039,0.086-0.081,0.125-0.125c0.377-0.343,0.618-0.832,0.618-1.382C93.125,93.09,92.285,92.25,91.25,92.25z"/>
	</g>
</g>
<g>
	<path fill="#FFFFFF" d="M31.375,30h-6.25c-0.69,0-1.25,0.81-1.25,1.5s0.56,1.5,1.25,1.5h6.25c0.69,0,1.25-0.81,1.25-1.5
		S32.065,30,31.375,30z"/>
	<path fill="#FFFFFF" d="M31.375,39h-6.25c-0.69,0-1.25,0.31-1.25,1s0.56,1,1.25,1h6.25c0.69,0,1.25-0.31,1.25-1
		S32.065,39,31.375,39z"/>
	<path fill="#FFFFFF" d="M31.375,47h-6.25c-0.69,0-1.25,0.81-1.25,1.5s0.56,1.5,1.25,1.5h6.25c0.69,0,1.25-0.81,1.25-1.5
		S32.065,47,31.375,47z"/>
	<path fill="#FFFFFF" d="M91.25,92.125c-6.285,0-7.645-5.125-7.846-10.125h3.221C90.077,82,93,79.453,93,76V57.25
		c0-0.03-0.063-0.063-0.064-0.093c3.739-3.632,6.033-8.718,6.033-14.345c0-11.045-8.971-19.875-20.016-19.875
		C75.128,22.938,71.537,24,68.5,26H51v29h11.708C64.673,57,67,59.438,70,60.891V76c0,3.453,3.173,6,6.625,6h3.018
		c0.058,2,0.301,4.885,1.349,7.383c1.78,4.247,5.329,6.555,10.26,6.555c1.035,0,1.875-0.871,1.875-1.905
		C93.126,92.997,92.285,92.125,91.25,92.125z M74.066,51.547c-0.705-0.392-1.356-0.869-1.941-1.417
		c-1.96-1.822-3.188-4.427-3.188-7.317s1.228-5.495,3.188-7.317c1.785-1.665,4.18-2.683,6.813-2.683c5.522,0,10,4.478,10,10
		c0,3.385-1.683,6.38-4.258,8.188c-1.625,1.143-3.604,1.813-5.742,1.813C77.17,52.813,75.508,52.353,74.066,51.547z"/>
	<path fill="#FFFFFF" d="M38,28.25V52c0,1.38,0.995,3,2.375,3H44V26h-3.625C38.995,26,38,26.87,38,28.25z"/>
</g>
<path fill="#444953" d="M44,32"/>
</svg>
