<?xml version="1.0" encoding="utf-8"?>
<!-- Generator: Adobe Illustrator 16.0.3, SVG Export Plug-In . SVG Version: 6.00 Build 0)  -->
<!DOCTYPE svg PUBLIC "-//W3C//DTD SVG 1.1//EN" "http://www.w3.org/Graphics/SVG/1.1/DTD/svg11.dtd">
<svg version="1.1" id="Layer_1" xmlns="http://www.w3.org/2000/svg" xmlns:xlink="http://www.w3.org/1999/xlink" x="0px" y="0px"
	 width="128px" height="128px" viewBox="0 0 128 128" enable-background="new 0 0 128 128" xml:space="preserve">
<path fill="#444953" d="M128,25c0-13.807-11.193-25-25.002-25H25.002C11.194,0,0,11.193,0,25v78c0,13.807,11.194,25,25.002,25
	h77.996C116.807,128,128,116.807,128,103V25z"/>
<g>
	<g>
		<defs>
			<path id="SVGID_1_" d="M128,25c0-13.807-11.193-25-25.002-25H25.002C11.194,0,0,11.193,0,25v78c0,13.807,11.194,25,25.002,25
				h77.996C116.807,128,128,116.807,128,103V25z"/>
		</defs>
		<clipPath id="SVGID_2_">
			<use xlink:href="#SVGID_1_"  overflow="visible"/>
		</clipPath>
		<path clip-path="url(#SVGID_2_)" fill="#353A42" enable-background="new    " d="M80.109,48L82,45.906l0,0V46l0,0V24.5
			c0-1.381-1.445-2.5-2.828-2.5H48.669c-0.716,0-1.335,0.305-1.771,0.787c-0.042,0.041-0.085,0.081-0.125,0.125
			c-0.043,0.041-0.086,0.081-0.125,0.125c-0.043,0.041-0.085,0.081-0.125,0.125c-0.043,0.041-0.085,0.081-0.125,0.125
			c-0.043,0.041-0.085,0.081-0.125,0.125c-0.043,0.041-0.085,0.081-0.125,0.125c-0.043,0.041-0.085,0.081-0.125,0.125
			c-0.043,0.041-0.085,0.081-0.125,0.125c-0.043,0.041-0.085,0.081-0.125,0.125c-0.043,0.041-0.085,0.081-0.125,0.125
			c-0.042,0.041-0.085,0.081-0.125,0.125c-0.042,0.041-0.085,0.081-0.125,0.125c-0.042,0.041-0.085,0.081-0.125,0.125
			c-0.042,0.041-0.085,0.081-0.125,0.125c-0.042,0.041-0.085,0.081-0.125,0.125c-0.042,0.041-0.085,0.081-0.125,0.125
			c-0.042,0.041-0.085,0.081-0.125,0.125c-0.042,0.041-0.085,0.081-0.125,0.125c-0.042,0.041-0.085,0.081-0.125,0.125
			c-0.042,0.041-0.085,0.081-0.125,0.125c-0.043,0.041-0.085,0.082-0.125,0.125c-0.042,0.041-0.085,0.081-0.125,0.125
			c-0.042,0.041-0.085,0.081-0.125,0.125c-0.042,0.041-0.085,0.081-0.125,0.125c-0.042,0.041-0.085,0.081-0.125,0.125
			c-0.042,0.041-0.085,0.081-0.125,0.125c-0.042,0.041-0.085,0.081-0.125,0.125c-0.042,0.041-0.085,0.081-0.125,0.125
			c-0.042,0.041-0.085,0.081-0.125,0.125c-0.042,0.041-0.085,0.081-0.125,0.125c-0.042,0.041-0.085,0.081-0.125,0.125
			c-0.042,0.041-0.085,0.081-0.125,0.125c-0.042,0.041-0.085,0.081-0.125,0.125c-0.042,0.041-0.085,0.081-0.125,0.125
			c-0.042,0.041-0.085,0.081-0.125,0.125c-0.042,0.041-0.085,0.081-0.125,0.125c-0.042,0.041-0.085,0.081-0.125,0.125
			c-0.042,0.041-0.085,0.081-0.125,0.125c-0.042,0.041-0.085,0.081-0.125,0.125c-0.042,0.041-0.085,0.081-0.125,0.125
			c-0.042,0.041-0.085,0.081-0.125,0.125c-0.042,0.041-0.085,0.081-0.125,0.125c-0.043,0.041-0.086,0.081-0.126,0.125
			c-0.042,0.041-0.085,0.081-0.125,0.125c-0.042,0.041-0.085,0.081-0.125,0.125c-0.042,0.041-0.085,0.081-0.125,0.125
			c-0.042,0.041-0.085,0.081-0.125,0.125c-0.042,0.041-0.085,0.081-0.125,0.125c-0.042,0.041-0.085,0.081-0.125,0.125
			c-0.042,0.041-0.085,0.081-0.125,0.125c-0.043,0.041-0.085,0.081-0.125,0.125c-0.043,0.041-0.085,0.081-0.125,0.125
			c-0.043,0.041-0.085,0.081-0.125,0.125c-0.043,0.041-0.085,0.081-0.125,0.125c-0.043,0.041-0.085,0.081-0.125,0.125
			c-0.043,0.041-0.085,0.081-0.125,0.125c-0.043,0.041-0.085,0.081-0.125,0.125c-0.043,0.041-0.085,0.081-0.125,0.125
			c-0.043,0.041-0.085,0.081-0.125,0.125c-0.043,0.041-0.085,0.081-0.125,0.125c-0.042,0.041-0.085,0.081-0.125,0.125
			c-0.042,0.041-0.085,0.082-0.125,0.125c-0.043,0.041-0.085,0.081-0.125,0.125c-0.043,0.041-0.085,0.081-0.125,0.125
			c-0.043,0.041-0.085,0.081-0.125,0.125c-0.043,0.041-0.085,0.081-0.125,0.125c-0.043,0.041-0.085,0.081-0.125,0.125
			c-0.043,0.041-0.085,0.081-0.125,0.125c-0.043,0.041-0.085,0.081-0.125,0.125c-0.043,0.041-0.085,0.081-0.125,0.125
			c-0.043,0.041-0.085,0.081-0.125,0.125c-0.043,0.041-0.085,0.081-0.125,0.125c-0.043,0.041-0.085,0.081-0.125,0.125
			c-0.043,0.041-0.085,0.081-0.125,0.125c-0.043,0.041-0.085,0.081-0.125,0.125c-0.043,0.041-0.085,0.081-0.125,0.125
			c-0.043,0.041-0.085,0.081-0.125,0.125c-0.043,0.041-0.085,0.081-0.125,0.125c-0.043,0.041-0.085,0.081-0.125,0.125
			c-0.043,0.041-0.085,0.081-0.125,0.125c-0.043,0.041-0.085,0.081-0.125,0.125c-0.043,0.041-0.085,0.081-0.125,0.125
			c-0.042,0.041-0.085,0.081-0.125,0.125c-0.043,0.041-0.086,0.081-0.125,0.125c-0.043,0.041-0.085,0.081-0.125,0.125
			c-0.043,0.041-0.085,0.081-0.125,0.125c-0.043,0.041-0.085,0.081-0.125,0.125c-0.043,0.041-0.085,0.081-0.125,0.125
			c-0.043,0.041-0.085,0.081-0.125,0.125c-0.043,0.041-0.085,0.081-0.125,0.125c-0.043,0.041-0.085,0.081-0.125,0.125
			c-0.043,0.041-0.085,0.081-0.125,0.125c-0.042,0.041-0.085,0.081-0.125,0.125c-0.042,0.041-0.085,0.081-0.125,0.125
			c-0.042,0.041-0.085,0.081-0.125,0.125c-0.042,0.041-0.085,0.081-0.125,0.125c-0.042,0.041-0.085,0.081-0.125,0.125
			c-0.042,0.041-0.085,0.081-0.125,0.125c-0.042,0.041-0.085,0.081-0.125,0.125c-0.042,0.041-0.085,0.081-0.125,0.125
			c-0.042,0.041-0.085,0.081-0.125,0.125c-0.042,0.041-0.085,0.081-0.125,0.125c-0.043,0.041-0.085,0.082-0.125,0.125
			c-0.042,0.041-0.085,0.081-0.125,0.125c-0.042,0.041-0.085,0.081-0.125,0.125c-0.042,0.041-0.085,0.081-0.125,0.125
			c-0.042,0.041-0.085,0.081-0.125,0.125c-0.042,0.041-0.085,0.081-0.125,0.125c-0.042,0.041-0.085,0.081-0.125,0.125
			c-0.042,0.041-0.085,0.081-0.125,0.125c-0.042,0.041-0.085,0.081-0.125,0.125c-0.042,0.041-0.085,0.081-0.125,0.125
			c-0.042,0.041-0.085,0.081-0.125,0.125c-0.042,0.041-0.085,0.081-0.125,0.125c-0.042,0.041-0.085,0.081-0.125,0.125
			c-0.042,0.041-0.085,0.081-0.125,0.125c-0.042,0.041-0.085,0.081-0.125,0.125c-0.042,0.041-0.085,0.081-0.125,0.125
			c-0.042,0.041-0.085,0.081-0.125,0.125c-0.042,0.041-0.085,0.081-0.125,0.125c-0.042,0.041-0.085,0.081-0.125,0.125
			c-0.042,0.041-0.085,0.081-0.125,0.125c-0.042,0.041-0.085,0.081-0.125,0.125c-0.042,0.041-0.085,0.081-0.125,0.125
			c-0.043,0.041-0.086,0.081-0.126,0.125c-0.042,0.041-0.085,0.081-0.125,0.125c-0.042,0.041-0.085,0.081-0.125,0.125
			c-0.042,0.041-0.085,0.081-0.125,0.125c-0.042,0.041-0.085,0.081-0.125,0.125c-0.042,0.041-0.085,0.081-0.125,0.125
			c-0.042,0.041-0.085,0.081-0.125,0.125c-0.042,0.041-0.085,0.081-0.125,0.125c-0.043,0.041-0.085,0.081-0.125,0.125
			c-0.043,0.041-0.085,0.081-0.125,0.125c-0.043,0.041-0.085,0.081-0.125,0.125c-0.043,0.041-0.085,0.081-0.125,0.125
			c-0.043,0.041-0.085,0.081-0.125,0.125c-0.043,0.041-0.085,0.081-0.125,0.125c-0.043,0.041-0.085,0.081-0.125,0.125
			c-0.043,0.041-0.085,0.081-0.125,0.125c-0.043,0.041-0.085,0.081-0.125,0.125c-0.043,0.041-0.085,0.081-0.125,0.125
			c-0.042,0.041-0.085,0.081-0.125,0.125c-0.042,0.041-0.085,0.082-0.125,0.125c-0.043,0.041-0.085,0.081-0.125,0.125
			c-0.043,0.041-0.085,0.081-0.125,0.125c-0.043,0.041-0.085,0.081-0.125,0.125c-0.043,0.041-0.085,0.081-0.125,0.125
			c-0.043,0.041-0.085,0.081-0.125,0.125c-0.043,0.041-0.085,0.081-0.125,0.125c-0.043,0.041-0.085,0.081-0.125,0.125
			c-0.043,0.041-0.085,0.081-0.125,0.125c-0.043,0.041-0.085,0.081-0.125,0.125c-0.043,0.041-0.085,0.081-0.125,0.125
			c-0.043,0.041-0.085,0.081-0.125,0.125c-0.043,0.041-0.085,0.081-0.125,0.125c-0.043,0.041-0.085,0.081-0.125,0.125
			c-0.043,0.041-0.085,0.081-0.125,0.125c-0.043,0.041-0.085,0.081-0.125,0.125c-0.043,0.041-0.085,0.081-0.125,0.125
			c-0.043,0.041-0.085,0.081-0.125,0.125c-0.043,0.041-0.085,0.081-0.125,0.125c-0.043,0.041-0.085,0.081-0.125,0.125
			c-0.043,0.041-0.085,0.081-0.125,0.125c-0.042,0.041-0.085,0.081-0.125,0.125c-0.043,0.041-0.086,0.081-0.125,0.125
			c-0.043,0.041-0.085,0.081-0.125,0.125c-0.043,0.041-0.085,0.081-0.125,0.125c-0.043,0.041-0.085,0.081-0.125,0.125
			c-0.043,0.041-0.085,0.081-0.125,0.125c-0.043,0.041-0.085,0.081-0.125,0.125c-0.043,0.041-0.085,0.081-0.125,0.125
			c-0.043,0.041-0.085,0.081-0.125,0.125c-0.043,0.041-0.085,0.081-0.125,0.125c-0.042,0.041-0.085,0.081-0.125,0.125
			c-0.042,0.041-0.085,0.081-0.125,0.125c-0.042,0.041-0.085,0.081-0.125,0.125c-0.042,0.041-0.085,0.081-0.125,0.125
			c-0.042,0.041-0.085,0.081-0.125,0.125c-0.042,0.041-0.085,0.081-0.125,0.125c-0.042,0.041-0.085,0.081-0.125,0.125
			c-0.042,0.041-0.085,0.081-0.125,0.125c-0.042,0.041-0.085,0.081-0.125,0.125c-0.042,0.041-0.085,0.081-0.125,0.125
			c-0.043,0.041-0.085,0.082-0.125,0.125c-0.042,0.041-0.085,0.081-0.125,0.125c-0.042,0.041-0.085,0.081-0.125,0.125
			c-0.042,0.041-0.085,0.081-0.125,0.125c-0.042,0.041-0.085,0.081-0.125,0.125c-0.042,0.041-0.085,0.081-0.125,0.125
			c-0.042,0.041-0.085,0.081-0.125,0.125c-0.042,0.041-0.085,0.081-0.125,0.125c-0.042,0.041-0.085,0.081-0.125,0.125
			c-0.042,0.041-0.085,0.081-0.125,0.125c-0.042,0.041-0.085,0.081-0.125,0.125c-0.042,0.041-0.085,0.081-0.125,0.125
			c-0.042,0.041-0.085,0.081-0.125,0.125c-0.042,0.041-0.085,0.081-0.125,0.125c-0.042,0.041-0.085,0.081-0.125,0.125
			c-0.042,0.041-0.085,0.081-0.125,0.125c-0.042,0.041-0.085,0.081-0.125,0.125c-0.042,0.041-0.085,0.081-0.125,0.125
			c-0.042,0.041-0.085,0.081-0.125,0.125c-0.042,0.041-0.085,0.081-0.125,0.125c-0.042,0.041-0.085,0.081-0.125,0.125
			c-0.042,0.041-0.085,0.081-0.125,0.125c-0.043,0.041-0.086,0.081-0.126,0.125c-0.042,0.041-0.085,0.081-0.125,0.125
			c-0.042,0.041-0.085,0.081-0.125,0.125c-0.042,0.041-0.085,0.081-0.125,0.125c-0.042,0.041-0.085,0.081-0.125,0.125
			c-0.042,0.041-0.085,0.081-0.125,0.125c-0.042,0.041-0.085,0.081-0.125,0.125c-0.042,0.041-0.085,0.081-0.125,0.125
			c-0.043,0.041-0.085,0.081-0.125,0.125c-0.043,0.041-0.085,0.081-0.125,0.125c-0.043,0.041-0.085,0.081-0.125,0.125
			c-0.043,0.041-0.085,0.081-0.125,0.125c-0.043,0.041-0.085,0.081-0.125,0.125c-0.043,0.041-0.085,0.081-0.125,0.125
			c-0.043,0.041-0.085,0.081-0.125,0.125c-0.043,0.041-0.085,0.081-0.125,0.125c-0.043,0.041-0.085,0.081-0.125,0.125
			c-0.043,0.041-0.085,0.081-0.125,0.125c-0.042,0.041-0.085,0.081-0.125,0.125c-0.042,0.041-0.085,0.082-0.125,0.125
			c-0.043,0.041-0.085,0.081-0.125,0.125c-0.043,0.041-0.085,0.081-0.125,0.125c-0.043,0.041-0.085,0.081-0.125,0.125
			c-0.043,0.041-0.085,0.081-0.125,0.125c-0.043,0.041-0.085,0.081-0.125,0.125c-0.043,0.041-0.085,0.081-0.125,0.125
			c-0.043,0.041-0.085,0.081-0.125,0.125c-0.043,0.041-0.085,0.081-0.125,0.125c-0.043,0.041-0.085,0.081-0.125,0.125
			c-0.043,0.041-0.085,0.081-0.125,0.125c-0.043,0.041-0.085,0.081-0.125,0.125c-0.043,0.041-0.085,0.081-0.125,0.125
			c-0.043,0.041-0.085,0.081-0.125,0.125c-0.043,0.041-0.085,0.081-0.125,0.125c-0.043,0.041-0.085,0.081-0.125,0.125
			c-0.043,0.041-0.085,0.081-0.125,0.125c-0.043,0.041-0.085,0.081-0.125,0.125c-0.043,0.041-0.085,0.081-0.125,0.125
			c-0.043,0.041-0.085,0.081-0.125,0.125c-0.043,0.041-0.085,0.081-0.125,0.125c-0.042,0.041-0.085,0.081-0.125,0.125
			c-0.043,0.041-0.086,0.081-0.125,0.125c-0.043,0.041-0.085,0.081-0.125,0.125c-0.043,0.041-0.085,0.081-0.125,0.125
			c-0.043,0.041-0.085,0.081-0.125,0.125c-0.043,0.041-0.085,0.081-0.125,0.125c-0.043,0.041-0.085,0.081-0.125,0.125
			c-0.043,0.041-0.085,0.081-0.125,0.125c-0.043,0.041-0.085,0.081-0.125,0.125c-0.043,0.041-0.085,0.081-0.125,0.125
			c-0.042,0.041-0.085,0.081-0.125,0.125c-0.042,0.041-0.085,0.081-0.125,0.125c-0.042,0.041-0.085,0.081-0.125,0.125
			c-0.042,0.041-0.085,0.081-0.125,0.125c-0.042,0.041-0.085,0.081-0.125,0.125c-0.042,0.041-0.085,0.081-0.125,0.125
			c-0.042,0.041-0.085,0.081-0.125,0.125c-0.042,0.041-0.085,0.081-0.125,0.125c-0.042,0.041-0.085,0.081-0.125,0.125
			c-0.042,0.041-0.085,0.081-0.125,0.125c-0.043,0.041-0.085,0.082-0.125,0.125c-0.042,0.041-0.085,0.081-0.125,0.125
			c-0.042,0.041-0.085,0.081-0.125,0.125c-0.042,0.041-0.085,0.081-0.125,0.125c-0.042,0.041-0.085,0.081-0.125,0.125
			c-0.042,0.041-0.085,0.081-0.125,0.125c-0.042,0.041-0.085,0.081-0.125,0.125c-0.042,0.041-0.085,0.081-0.125,0.125
			c-0.042,0.041-0.085,0.081-0.125,0.125c-0.042,0.041-0.085,0.081-0.125,0.125c-0.042,0.041-0.085,0.081-0.125,0.125
			c-0.042,0.041-0.085,0.081-0.125,0.125c-0.042,0.041-0.085,0.081-0.125,0.125c-0.042,0.041-0.085,0.081-0.125,0.125
			c-0.042,0.041-0.085,0.081-0.125,0.125c-0.042,0.041-0.085,0.081-0.125,0.125c-0.042,0.041-0.085,0.081-0.125,0.125
			c-0.042,0.041-0.085,0.081-0.125,0.125c-0.042,0.041-0.085,0.081-0.125,0.125c-0.042,0.041-0.085,0.081-0.125,0.125
			c-0.042,0.041-0.085,0.081-0.125,0.125c-0.042,0.041-0.085,0.081-0.125,0.125c-0.043,0.041-0.086,0.081-0.126,0.125
			c-0.042,0.041-0.085,0.081-0.125,0.125c-0.042,0.041-0.085,0.081-0.125,0.125c-0.042,0.041-0.085,0.081-0.125,0.125
			c-0.042,0.041-0.085,0.081-0.125,0.125c-0.042,0.041-0.085,0.081-0.125,0.125c-0.042,0.041-0.085,0.081-0.125,0.125
			c-0.042,0.041-0.085,0.081-0.125,0.125c-0.043,0.041-0.085,0.081-0.125,0.125c-0.043,0.041-0.085,0.081-0.125,0.125
			c-0.043,0.041-0.085,0.081-0.125,0.125c-0.043,0.041-0.085,0.081-0.125,0.125c-0.043,0.041-0.085,0.081-0.125,0.125
			c-0.043,0.041-0.085,0.081-0.125,0.125c-0.043,0.041-0.085,0.081-0.125,0.125c-0.043,0.041-0.085,0.081-0.125,0.125
			c-0.043,0.041-0.085,0.081-0.125,0.125c-0.043,0.041-0.085,0.081-0.125,0.125c-0.042,0.041-0.085,0.081-0.125,0.125
			c-0.042,0.041-0.085,0.082-0.125,0.125c-0.043,0.041-0.085,0.081-0.125,0.125c-0.043,0.041-0.085,0.081-0.125,0.125
			c-0.043,0.041-0.085,0.081-0.125,0.125c-0.043,0.041-0.085,0.081-0.125,0.125c-0.043,0.041-0.085,0.081-0.125,0.125
			c-0.043,0.041-0.085,0.081-0.125,0.125c-0.043,0.041-0.085,0.081-0.125,0.125c-0.043,0.041-0.085,0.081-0.125,0.125
			c-0.043,0.041-0.085,0.081-0.125,0.125c-0.043,0.041-0.085,0.081-0.125,0.125c-0.043,0.041-0.085,0.081-0.125,0.125
			c-0.043,0.041-0.085,0.081-0.125,0.125c-0.043,0.041-0.085,0.081-0.125,0.125c-0.043,0.041-0.085,0.081-0.125,0.125
			c-0.043,0.041-0.085,0.081-0.125,0.125c-0.043,0.041-0.085,0.081-0.125,0.125c-0.043,0.041-0.085,0.081-0.125,0.125
			c-0.043,0.041-0.085,0.081-0.125,0.125c-0.043,0.041-0.085,0.081-0.125,0.125c-0.042,0.041-0.085,0.081-0.125,0.125
			c-0.043,0.041-0.086,0.081-0.125,0.125c-0.043,0.041-0.085,0.081-0.125,0.125c-0.043,0.041-0.085,0.081-0.125,0.125
			c-0.043,0.041-0.085,0.081-0.125,0.125c-0.043,0.041-0.085,0.081-0.125,0.125c-0.043,0.041-0.085,0.081-0.125,0.125
			c-0.043,0.041-0.085,0.081-0.125,0.125c-0.043,0.041-0.085,0.081-0.125,0.125c-0.043,0.041-0.085,0.081-0.125,0.125
			c-0.043,0.041-0.085,0.081-0.125,0.125c-0.042,0.041-0.085,0.081-0.125,0.125c-0.042,0.041-0.085,0.081-0.125,0.125
			c-0.042,0.041-0.085,0.081-0.125,0.125c-0.042,0.041-0.085,0.081-0.125,0.125c-0.042,0.041-0.085,0.081-0.125,0.125
			c-0.042,0.041-0.085,0.081-0.125,0.125c-0.042,0.041-0.085,0.081-0.125,0.125c-0.042,0.041-0.085,0.081-0.125,0.125
			c-0.042,0.041-0.085,0.081-0.125,0.125c-0.042,0.041-0.085,0.081-0.125,0.125c-0.043,0.041-0.085,0.081-0.125,0.125
			c-0.042,0.041-0.085,0.081-0.125,0.125c-0.042,0.041-0.085,0.081-0.125,0.125c-0.042,0.041-0.085,0.081-0.125,0.125
			c-0.042,0.041-0.085,0.081-0.125,0.125c-0.042,0.041-0.085,0.081-0.125,0.125c-0.042,0.041-0.085,0.081-0.125,0.125
			c-0.042,0.041-0.085,0.081-0.125,0.125c-0.042,0.041-0.085,0.081-0.125,0.125c-0.042,0.041-0.085,0.081-0.125,0.125
			c-0.042,0.041-0.085,0.081-0.125,0.125c-0.042,0.041-0.085,0.081-0.125,0.125c-0.042,0.041-0.085,0.081-0.125,0.125
			c-0.042,0.041-0.085,0.081-0.125,0.125c-0.042,0.041-0.085,0.081-0.125,0.125c-0.042,0.041-0.085,0.081-0.125,0.125
			c-0.042,0.041-0.085,0.081-0.125,0.125c-0.042,0.041-0.085,0.081-0.125,0.125c-0.042,0.041-0.085,0.081-0.125,0.125
			c-0.042,0.041-0.085,0.081-0.125,0.125c-0.042,0.041-0.085,0.081-0.125,0.125c-0.042,0.041-0.085,0.081-0.125,0.125
			c-0.043,0.041-0.086,0.081-0.126,0.125c-0.042,0.041-0.085,0.081-0.125,0.125c-0.042,0.041-0.085,0.081-0.125,0.125
			c-0.042,0.041-0.085,0.081-0.125,0.125c-0.042,0.041-0.085,0.081-0.125,0.125c-0.042,0.041-0.085,0.081-0.125,0.125
			c-0.042,0.041-0.085,0.081-0.125,0.125c-0.042,0.041-0.085,0.081-0.125,0.125c-0.043,0.041-0.085,0.081-0.125,0.125
			c-0.043,0.041-0.085,0.081-0.125,0.125c-0.043,0.041-0.085,0.081-0.125,0.125c-0.043,0.041-0.085,0.081-0.125,0.125
			c-0.043,0.041-0.085,0.081-0.125,0.125c-0.043,0.041-0.085,0.081-0.125,0.125c-0.043,0.041-0.085,0.081-0.125,0.125
			c-0.043,0.041-0.085,0.081-0.125,0.125c-0.043,0.041-0.085,0.081-0.125,0.125c-0.043,0.041-0.085,0.081-0.125,0.125
			c-0.042,0.041-0.085,0.081-0.125,0.125c-0.042,0.041-0.085,0.081-0.125,0.125c-0.043,0.041-0.085,0.081-0.125,0.125
			c-0.043,0.041-0.085,0.081-0.125,0.125c-0.043,0.041-0.085,0.081-0.125,0.125c-0.043,0.041-0.085,0.081-0.125,0.125
			c-0.043,0.041-0.085,0.081-0.125,0.125c-0.043,0.041-0.085,0.081-0.125,0.125c-0.043,0.041-0.085,0.081-0.125,0.125
			c-0.043,0.041-0.085,0.081-0.125,0.125c-0.043,0.041-0.207,0.081-0.247,0.125C-3.582,73.118-4,73.77-4,74.5V96h1l0,0l0,0v1l0,0
			l0,0l0,0l0,0l0,0l0,0l0,0l0,0l0,0l0,0l0,0l0,0h-1l0,0l0,0v1l0,0v46.5c0,1.381,1.284,2.5,2.665,2.5h30.503
			c0.729,0,1.401-0.316,1.878-0.814c0.044-0.039,0.084-0.082,0.125-0.123c0.044-0.041,0.084-0.084,0.125-0.127
			c0.043-0.039,0.084-0.082,0.125-0.125c0.043-0.039,0.084-0.082,0.125-0.125c0.043-0.039,0.084-0.082,0.125-0.125
			c0.043-0.039,0.084-0.082,0.125-0.125c0.043-0.039,0.084-0.082,0.125-0.125c0.043-0.039,0.084-0.082,0.125-0.125
			c0.043-0.039,0.084-0.082,0.125-0.125c0.043-0.039,0.084-0.082,0.125-0.125c0.043-0.039,0.084-0.082,0.125-0.125
			c0.043-0.039,0.084-0.082,0.125-0.125c0.044-0.039,0.084-0.082,0.125-0.125c0.044-0.039,0.084-0.082,0.125-0.125
			c0.044-0.039,0.084-0.082,0.125-0.125c0.044-0.039,0.084-0.082,0.125-0.125c0.044-0.039,0.084-0.082,0.125-0.125
			c0.044-0.039,0.084-0.082,0.125-0.125c0.044-0.039,0.084-0.082,0.125-0.125c0.044-0.039,0.084-0.082,0.125-0.125
			c0.044-0.039,0.084-0.082,0.125-0.125c0.044-0.039,0.084-0.082,0.125-0.125c0.044-0.039,0.084-0.082,0.125-0.125
			c0.044-0.039,0.084-0.082,0.125-0.125c0.044-0.039,0.084-0.082,0.125-0.125c0.044-0.039,0.084-0.082,0.125-0.125
			c0.044-0.039,0.084-0.082,0.125-0.125c0.044-0.039,0.084-0.082,0.125-0.125c0.044-0.039,0.084-0.082,0.125-0.125
			c0.044-0.039,0.084-0.082,0.125-0.125c0.044-0.039,0.084-0.082,0.125-0.125c0.043-0.039,0.083-0.082,0.125-0.123
			c0.044-0.041,0.084-0.084,0.126-0.127c0.043-0.039,0.084-0.082,0.125-0.125c0.043-0.039,0.084-0.082,0.125-0.125
			c0.043-0.039,0.084-0.082,0.125-0.125c0.043-0.039,0.084-0.082,0.125-0.125c0.043-0.039,0.084-0.082,0.125-0.125
			c0.043-0.039,0.084-0.082,0.125-0.125c0.043-0.039,0.084-0.082,0.125-0.125c0.043-0.039,0.084-0.082,0.125-0.125
			c0.043-0.039,0.083-0.082,0.125-0.123c0.044-0.041,0.084-0.084,0.125-0.127c0.044-0.039,0.084-0.082,0.125-0.125
			c0.044-0.039,0.084-0.082,0.125-0.125c0.044-0.039,0.084-0.082,0.125-0.125c0.044-0.039,0.084-0.082,0.125-0.125
			c0.044-0.039,0.084-0.082,0.125-0.125c0.044-0.039,0.084-0.082,0.125-0.125c0.044-0.039,0.084-0.082,0.125-0.125
			c0.044-0.039,0.084-0.082,0.125-0.125c0.044-0.039,0.084-0.082,0.125-0.125c0.043-0.039,0.084-0.082,0.125-0.125
			c0.044-0.039,0.084-0.082,0.125-0.125c0.044-0.039,0.084-0.082,0.125-0.125c0.044-0.039,0.084-0.082,0.125-0.125
			c0.044-0.039,0.084-0.082,0.125-0.125c0.044-0.039,0.084-0.082,0.125-0.125c0.044-0.039,0.084-0.082,0.125-0.125
			c0.044-0.039,0.084-0.082,0.125-0.125c0.044-0.039,0.084-0.082,0.125-0.125c0.044-0.039,0.084-0.082,0.125-0.125
			c0.044-0.039,0.084-0.082,0.125-0.125c0.044-0.039,0.084-0.082,0.125-0.125c0.044-0.039,0.084-0.082,0.125-0.125
			c0.044-0.039,0.084-0.082,0.125-0.125c0.044-0.039,0.084-0.082,0.125-0.125c0.044-0.039,0.084-0.082,0.125-0.125
			c0.044-0.039,0.084-0.082,0.125-0.125c0.044-0.039,0.084-0.082,0.125-0.125c0.044-0.039,0.084-0.082,0.125-0.125
			c0.044-0.039,0.084-0.082,0.125-0.125c0.043-0.039,0.083-0.082,0.125-0.123c0.044-0.041,0.084-0.084,0.125-0.127
			c0.044-0.039,0.084-0.082,0.125-0.125c0.044-0.039,0.084-0.082,0.125-0.125c0.044-0.039,0.084-0.082,0.125-0.125
			c0.044-0.039,0.084-0.082,0.125-0.125c0.044-0.039,0.084-0.082,0.125-0.125c0.044-0.039,0.084-0.082,0.125-0.125
			c0.044-0.039,0.084-0.082,0.125-0.125c0.044-0.039,0.084-0.082,0.125-0.125c0.044-0.039,0.084-0.082,0.125-0.123
			c0.044-0.041,0.084-0.084,0.125-0.127c0.043-0.039,0.084-0.082,0.125-0.125c0.043-0.039,0.084-0.082,0.125-0.125
			c0.043-0.039,0.084-0.082,0.125-0.125c0.043-0.039,0.084-0.082,0.125-0.125c0.043-0.039,0.084-0.082,0.125-0.125
			c0.043-0.039,0.084-0.082,0.125-0.125c0.043-0.039,0.084-0.082,0.125-0.125c0.043-0.039,0.084-0.082,0.125-0.125
			c0.043-0.039,0.084-0.082,0.125-0.125c0.043-0.039,0.084-0.082,0.125-0.125c0.044-0.039,0.084-0.082,0.125-0.125
			c0.044-0.039,0.084-0.082,0.125-0.125c0.044-0.039,0.084-0.082,0.125-0.125c0.044-0.039,0.084-0.082,0.125-0.125
			c0.044-0.039,0.084-0.082,0.125-0.125c0.044-0.039,0.084-0.082,0.125-0.125c0.044-0.039,0.084-0.082,0.125-0.125
			c0.044-0.039,0.084-0.082,0.125-0.125c0.044-0.039,0.084-0.082,0.125-0.125c0.044-0.039,0.084-0.082,0.125-0.125
			c0.044-0.039,0.084-0.082,0.125-0.125c0.044-0.039,0.084-0.082,0.125-0.125c0.044-0.039,0.084-0.082,0.125-0.125
			c0.044-0.039,0.084-0.082,0.125-0.125c0.044-0.039,0.084-0.082,0.125-0.125c0.044-0.039,0.084-0.082,0.125-0.125
			c0.044-0.039,0.084-0.082,0.125-0.125c0.044-0.039,0.084-0.082,0.125-0.125c0.044-0.039,0.084-0.082,0.125-0.125
			c0.043-0.039,0.083-0.082,0.125-0.123c0.044-0.041,0.084-0.084,0.126-0.127c0.043-0.039,0.084-0.082,0.125-0.125
			c0.043-0.039,0.084-0.082,0.125-0.125c0.043-0.039,0.084-0.082,0.125-0.125c0.043-0.039,0.084-0.082,0.125-0.125
			c0.043-0.039,0.084-0.082,0.125-0.125c0.043-0.039,0.084-0.082,0.125-0.125c0.043-0.039,0.084-0.082,0.125-0.125
			c0.043-0.039,0.084-0.082,0.125-0.125c0.043-0.039,0.083-0.082,0.125-0.123c0.044-0.041,0.084-0.084,0.125-0.127
			c0.044-0.039,0.084-0.082,0.125-0.125c0.044-0.039,0.084-0.082,0.125-0.125c0.044-0.039,0.084-0.082,0.125-0.125
			c0.044-0.039,0.084-0.082,0.125-0.125c0.044-0.039,0.084-0.082,0.125-0.125c0.044-0.039,0.084-0.082,0.125-0.125
			c0.044-0.039,0.084-0.082,0.125-0.125c0.044-0.039,0.084-0.082,0.125-0.125c0.044-0.039,0.084-0.082,0.125-0.125
			c0.043-0.039,0.084-0.082,0.125-0.125c0.044-0.039,0.084-0.082,0.125-0.125c0.044-0.039,0.084-0.082,0.125-0.125
			c0.044-0.039,0.084-0.082,0.125-0.125c0.044-0.039,0.084-0.082,0.125-0.125c0.044-0.039,0.084-0.082,0.125-0.125
			c0.044-0.039,0.084-0.082,0.125-0.125c0.044-0.039,0.084-0.082,0.125-0.125c0.044-0.039,0.084-0.082,0.125-0.125
			c0.044-0.039,0.084-0.082,0.125-0.125c0.044-0.039,0.084-0.082,0.125-0.125c0.044-0.039,0.084-0.082,0.125-0.125
			c0.044-0.039,0.084-0.082,0.125-0.125c0.044-0.039,0.084-0.082,0.125-0.125c0.044-0.039,0.084-0.082,0.125-0.125
			c0.044-0.039,0.084-0.082,0.125-0.125c0.044-0.039,0.084-0.082,0.125-0.125c0.044-0.039,0.084-0.082,0.125-0.125
			c0.044-0.039,0.084-0.082,0.125-0.125c0.044-0.039,0.084-0.082,0.125-0.125c0.043-0.039,0.083-0.082,0.125-0.123
			c0.044-0.041,0.084-0.084,0.125-0.127c0.044-0.039,0.084-0.082,0.125-0.125c0.044-0.039,0.084-0.082,0.125-0.125
			c0.044-0.039,0.084-0.082,0.125-0.125c0.044-0.039,0.084-0.082,0.125-0.125c0.044-0.039,0.084-0.082,0.125-0.125
			c0.044-0.039,0.084-0.082,0.125-0.125c0.044-0.039,0.084-0.082,0.125-0.125c0.044-0.039,0.084-0.082,0.125-0.125
			c0.044-0.039,0.084-0.082,0.125-0.123c0.044-0.041,0.084-0.084,0.125-0.127c0.043-0.039,0.084-0.082,0.125-0.125
			c0.043-0.039,0.084-0.082,0.125-0.125c0.043-0.039,0.084-0.082,0.125-0.125c0.043-0.039,0.084-0.082,0.125-0.125
			c0.043-0.039,0.084-0.082,0.125-0.125c0.043-0.039,0.084-0.082,0.125-0.125c0.043-0.039,0.084-0.082,0.125-0.125
			c0.043-0.039,0.084-0.082,0.125-0.125c0.043-0.039,0.084-0.082,0.125-0.125c0.043-0.039,0.084-0.082,0.125-0.125
			c0.044-0.039,0.084-0.082,0.125-0.125c0.044-0.039,0.084-0.082,0.125-0.125c0.044-0.039,0.084-0.082,0.125-0.125
			c0.044-0.039,0.084-0.082,0.125-0.125c0.044-0.039,0.084-0.082,0.125-0.125c0.044-0.039,0.084-0.082,0.125-0.125
			c0.044-0.039,0.084-0.082,0.125-0.125c0.044-0.039,0.084-0.082,0.125-0.125c0.044-0.039,0.084-0.082,0.125-0.125
			c0.044-0.039,0.084-0.082,0.125-0.125c0.044-0.039,0.084-0.082,0.125-0.125c0.044-0.039,0.084-0.082,0.125-0.125
			c0.044-0.039,0.084-0.082,0.125-0.125c0.044-0.039,0.084-0.082,0.125-0.125c0.044-0.039,0.084-0.082,0.125-0.125
			c0.044-0.039,0.084-0.082,0.125-0.125c0.044-0.039,0.084-0.082,0.125-0.125c0.044-0.039,0.084-0.082,0.125-0.125
			c0.044-0.039,0.084-0.082,0.125-0.125c0.043-0.039,0.083-0.082,0.125-0.123c0.044-0.041,0.084-0.084,0.126-0.127
			c0.043-0.039,0.084-0.082,0.125-0.125c0.043-0.039,0.084-0.082,0.125-0.125c0.043-0.039,0.084-0.082,0.125-0.125
			c0.043-0.039,0.084-0.082,0.125-0.125c0.044-0.039,0.084-0.082,0.125-0.125c0.043-0.039,0.083-0.082,0.124-0.125
			c0.044-0.039,0.084-0.082,0.125-0.125c0.044-0.039,0.084-0.082,0.125-0.125c0.043-0.039,0.083-0.082,0.125-0.123
			c0.044-0.041,0.084-0.084,0.125-0.127c0.044-0.039,0.084-0.082,0.125-0.125c0.044-0.039,0.084-0.082,0.125-0.125
			c0.044-0.039,0.084-0.082,0.125-0.125c0.044-0.039,0.084-0.082,0.125-0.125c0.043-0.039,0.083-0.082,0.125-0.125
			c0.044-0.039,0.084-0.082,0.125-0.125c0.044-0.039,0.084-0.082,0.125-0.125c0.044-0.039,0.084-0.082,0.125-0.125
			c0.043-0.039,0.083-0.08,0.124-0.123c0.044-0.041,0.085-0.084,0.126-0.127c0.044-0.039,0.084-0.082,0.125-0.125
			c0.044-0.039,0.084-0.082,0.125-0.125c0.044-0.039,0.084-0.082,0.125-0.125c0.044-0.039,0.084-0.082,0.125-0.125
			c0.044-0.039,0.084-0.082,0.125-0.125c0.043-0.039,0.083-0.082,0.125-0.125c0.044-0.039,0.084-0.082,0.125-0.125
			c0.044-0.039,0.084-0.082,0.125-0.125c0.043-0.039,0.083-0.082,0.124-0.123c0.044-0.041,0.085-0.084,0.126-0.127
			c0.044-0.039,0.084-0.082,0.125-0.125c0.044-0.039,0.084-0.082,0.125-0.125c0.044-0.039,0.084-0.082,0.125-0.125
			c0.044-0.039,0.084-0.082,0.125-0.125c0.044-0.039,0.084-0.082,0.125-0.125c0.044-0.039,0.084-0.082,0.125-0.125
			c0.044-0.039,0.084-0.082,0.125-0.125c0.044-0.039,0.084-0.082,0.125-0.125c0.044-0.039,0.084-0.082,0.125-0.125
			c0.043-0.039,0.083-0.082,0.125-0.125c0.044-0.039,0.084-0.082,0.125-0.125c0.044-0.039,0.084-0.082,0.125-0.125
			c0.044-0.039,0.084-0.082,0.125-0.125c0.044-0.039,0.084-0.082,0.125-0.125c0.044-0.039,0.084-0.082,0.125-0.125
			c0.044-0.039,0.084-0.082,0.125-0.125c0.044-0.039,0.084-0.082,0.125-0.125c0.044-0.039,0.084-0.082,0.125-0.125
			c0.044-0.039,0.084-0.082,0.125-0.125c0.044-0.039,0.084-0.082,0.125-0.125c0.044-0.039,0.084-0.082,0.125-0.125
			c0.044-0.039,0.084-0.082,0.125-0.125c0.044-0.039,0.084-0.082,0.125-0.125c0.044-0.039,0.084-0.082,0.125-0.125
			c0.044-0.039,0.084-0.082,0.125-0.125c0.044-0.039,0.084-0.082,0.125-0.125c0.044-0.039,0.084-0.082,0.125-0.125
			c0.044-0.039,0.084-0.082,0.125-0.125c0.044-0.039,0.084-0.082,0.125-0.125c0.044-0.039,0.084-0.082,0.125-0.125
			c0.044-0.039,0.084-0.082,0.125-0.125c0.044-0.039,0.084-0.082,0.125-0.125c0.044-0.039,0.084-0.082,0.125-0.125
			c0.044-0.039,0.084-0.082,0.125-0.125c0.044-0.039,0.084-0.082,0.125-0.125c0.044-0.039,0.084-0.082,0.125-0.125
			c0.044-0.039,0.084-0.082,0.125-0.125c0.044-0.039,0.084-0.082,0.125-0.125c0.044-0.039,0.084-0.082,0.125-0.125
			c0.044-0.039,0.084-0.082,0.125-0.125c0.044-0.039,0.084-0.082,0.125-0.125c0.044-0.039,0.084-0.082,0.125-0.125
			c0.044-0.039,0.084-0.082,0.125-0.125c0.044-0.039,0.084-0.082,0.125-0.125c0.044-0.039,0.083-0.082,0.125-0.125
			c0.044-0.039,0.084-0.082,0.125-0.125c0.044-0.039,0.084-0.082,0.125-0.125c0.044-0.039,0.084-0.082,0.125-0.125
			c0.044-0.039,0.084-0.082,0.125-0.125c0.044-0.039,0.084-0.082,0.125-0.125c0.044-0.039,0.084-0.082,0.125-0.125
			c0.044-0.039,0.084-0.082,0.125-0.125c0.044-0.039,0.084-0.082,0.125-0.125c0.044-0.039,0.084-0.082,0.125-0.125
			c0.044-0.039,0.084-0.082,0.125-0.125c0.044-0.039,0.084-0.082,0.125-0.125c0.044-0.039,0.084-0.082,0.125-0.125
			c0.044-0.039,0.084-0.082,0.125-0.125c0.044-0.039,0.084-0.082,0.125-0.125c0.044-0.039,0.084-0.082,0.125-0.125
			c0.044-0.039,0.084-0.082,0.125-0.125c0.044-0.039,0.084-0.082,0.125-0.125c0.044-0.039,0.084-0.082,0.125-0.125
			c0.044-0.039,0.084-0.082,0.125-0.125c0.044-0.039,0.084-0.082,0.125-0.125c0.044-0.039,0.084-0.082,0.125-0.125
			c0.044-0.039,0.084-0.082,0.125-0.125c0.044-0.039,0.084-0.082,0.125-0.125c0.044-0.039,0.084-0.082,0.125-0.125
			c0.044-0.039,0.084-0.082,0.125-0.125c0.044-0.039,0.084-0.082,0.125-0.125c0.044-0.039,0.084-0.08,0.124-0.123
			c0.045-0.041,0.086-0.084,0.127-0.127c0.044-0.039,0.084-0.082,0.125-0.125c0.044-0.039,0.084-0.082,0.125-0.125
			c0.044-0.039,0.084-0.082,0.125-0.125c0.044-0.039,0.084-0.082,0.125-0.125c0.044-0.039,0.084-0.082,0.125-0.125
			c0.044-0.039,0.084-0.082,0.125-0.125c0.044-0.039,0.084-0.082,0.125-0.125c0.044-0.039,0.083-0.082,0.124-0.123
			c0.045-0.041,0.085-0.084,0.126-0.127c0.044-0.039,0.084-0.082,0.125-0.125c0.044-0.039,0.084-0.082,0.125-0.125
			c0.044-0.039,0.084-0.082,0.125-0.125c0.044-0.039,0.084-0.082,0.125-0.125c0.044-0.039,0.084-0.082,0.125-0.125
			c0.044-0.039,0.084-0.082,0.125-0.125c0.044-0.039,0.084-0.082,0.125-0.125c0.044-0.039,0.084-0.082,0.125-0.125
			c0.044-0.039,0.084-0.082,0.125-0.125c0.044-0.039,0.084-0.082,0.125-0.125c0.044-0.039,0.084-0.082,0.125-0.125
			c0.044-0.039,0.084-0.082,0.125-0.125c0.044-0.039,0.084-0.082,0.125-0.125c0.044-0.039,0.084-0.082,0.125-0.125
			c0.044-0.039,0.084-0.082,0.125-0.125c0.044-0.039,0.084-0.082,0.125-0.125c0.044-0.039,0.084-0.082,0.125-0.125
			c0.044-0.039,0.084-0.082,0.125-0.125c0.044-0.039,0.084-0.082,0.125-0.125c0.044-0.039,0.084-0.082,0.125-0.125
			c0.044-0.039,0.084-0.082,0.125-0.125c0.044-0.039,0.084-0.082,0.125-0.125c0.044-0.039,0.084-0.082,0.125-0.125
			c0.044-0.039,0.084-0.082,0.125-0.125c0.044-0.039,0.084-0.082,0.125-0.125c0.044-0.039,0.084-0.082,0.125-0.125
			c0.044-0.039,0.084-0.082,0.125-0.125c0.044-0.039,0.084-0.082,0.125-0.125c0.044-0.039,0.084-0.082,0.125-0.125
			c0.044-0.039,0.084-0.082,0.125-0.125c0.044-0.039,0.084-0.082,0.125-0.125c0.044-0.039,0.084-0.082,0.125-0.125
			c0.044-0.039,0.084-0.082,0.125-0.125c0.044-0.039,0.084-0.082,0.125-0.125c0.044-0.039,0.084-0.082,0.125-0.125
			c0.044-0.039,0.084-0.082,0.125-0.125c0.044-0.039,0.084-0.082,0.125-0.125c0.044-0.039,0.084-0.082,0.125-0.125
			c0.044-0.039,0.084-0.082,0.125-0.125c0.044-0.039,0.084-0.082,0.125-0.125c0.044-0.039,0.084-0.082,0.125-0.125
			c0.044-0.039,0.084-0.082,0.125-0.125c0.044-0.039,0.084-0.082,0.125-0.125c0.044-0.039,0.084-0.082,0.125-0.125
			c0.044-0.039,0.084-0.082,0.125-0.125c0.044-0.039,0.084-0.082,0.125-0.125c0.044-0.039,0.084-0.082,0.125-0.125
			c0.044-0.039,0.084-0.082,0.125-0.125c0.044-0.039,0.084-0.082,0.125-0.125c0.044-0.039,0.084-0.082,0.125-0.125
			c0.044-0.039,0.084-0.082,0.125-0.125c0.044-0.039,0.084-0.082,0.125-0.125c0.044-0.039,0.084-0.082,0.125-0.125
			c0.044-0.039,0.084-0.082,0.125-0.125c0.044-0.039,0.084-0.082,0.125-0.125c0.044-0.039,0.084-0.082,0.125-0.125
			c0.044-0.039,0.084-0.082,0.125-0.125c0.044-0.039,0.084-0.082,0.125-0.125c0.044-0.039,0.084-0.082,0.125-0.125
			c0.044-0.039,0.084-0.082,0.125-0.125c0.044-0.039,0.084-0.082,0.125-0.125c0.044-0.039,0.084-0.082,0.125-0.125
			c0.044-0.039,0.084-0.082,0.125-0.125c0.044-0.039,0.084-0.082,0.125-0.125c0.044-0.039,0.084-0.082,0.125-0.125
			c0.044-0.039,0.084-0.082,0.125-0.125c0.044-0.039,0.084-0.082,0.125-0.125c0.044-0.039,0.084-0.082,0.125-0.125
			c0.044-0.039,0.084-0.082,0.125-0.125c0.044-0.039,0.084-0.082,0.125-0.125c0.044-0.039,0.084-0.08,0.124-0.123
			c0.045-0.041,0.086-0.084,0.127-0.127c0.044-0.039,0.084-0.082,0.125-0.125c0.044-0.039,0.084-0.082,0.125-0.125
			c0.044-0.039,0.084-0.082,0.125-0.125c0.044-0.039,0.084-0.082,0.125-0.125c0.044-0.039,0.084-0.082,0.125-0.125
			c0.044-0.039,0.084-0.082,0.125-0.125c0.044-0.039,0.084-0.082,0.125-0.125c0.044-0.039,0.084-0.082,0.125-0.125
			c0.044-0.039,0.084-0.082,0.124-0.123c0.045-0.041,0.085-0.084,0.126-0.127c0.044-0.039,0.084-0.082,0.125-0.125
			c0.044-0.039,0.084-0.082,0.125-0.125c0.044-0.039,0.084-0.082,0.125-0.125c0.044-0.039,0.084-0.082,0.125-0.125
			c0.044-0.039,0.084-0.082,0.125-0.125c0.044-0.039,0.084-0.082,0.125-0.125c0.044-0.039,0.084-0.082,0.125-0.125
			c0.044-0.039,0.208-0.082,0.249-0.125C81.553,95.855,82,95.215,82,94.5V48l-0.836,0.031"/>
	</g>
</g>
<g>
	<path fill="#FFFFFF" d="M82,46V24.5c0-1.381-1.445-2.5-2.828-2.5H48.669C47.289,22,46,23.119,46,24.5V46H82z M51.92,41h5
		c0.69,0,1.25,0.31,1.25,1s-0.56,1-1.25,1h-5c-0.69,0-1.25-0.31-1.25-1S51.229,41,51.92,41z"/>
	<path fill="#FFFFFF" d="M46,48v46.5c0,1.381,1.289,2.5,2.669,2.5h30.502C80.555,97,82,95.881,82,94.5V48H46z M56.92,53h-5
		c-0.69,0-1.25-0.31-1.25-1s0.56-1,1.25-1h5c0.69,0,1.25,0.31,1.25,1S57.61,53,56.92,53z"/>
</g>
</svg>
