<?xml version="1.0" encoding="utf-8"?>
<!-- Generator: Adobe Illustrator 16.0.3, SVG Export Plug-In . SVG Version: 6.00 Build 0)  -->
<!DOCTYPE svg PUBLIC "-//W3C//DTD SVG 1.1//EN" "http://www.w3.org/Graphics/SVG/1.1/DTD/svg11.dtd">
<svg version="1.1" id="Layer_1" xmlns="http://www.w3.org/2000/svg" xmlns:xlink="http://www.w3.org/1999/xlink" x="0px" y="0px"
	 width="128px" height="128px" viewBox="0 0 128 128" enable-background="new 0 0 128 128" xml:space="preserve">
<path fill="#444953" class="bg" d="M128,25c0-13.807-11.193-25-25-25H25C11.193,0,0,11.193,0,25v78c0,13.807,11.193,25,25,25h78
	c13.807,0,25-11.193,25-25V25z"/>
<g>
	<g>
		<defs>
			<path id="SVGID_1_" d="M128,25c0-13.807-11.193-25-25-25H25C11.193,0,0,11.193,0,25v78c0,13.807,11.193,25,25,25h78
				c13.807,0,25-11.193,25-25V25z"/>
		</defs>
		<clipPath id="SVGID_2_">
			<use xlink:href="#SVGID_1_"  overflow="visible"/>
		</clipPath>
		<path clip-path="url(#SVGID_2_)" fill="#353A42" class="shadow" enable-background="new    " d="M112.512,51.532
			c0.029-0.662-0.301-1.383-1.145-2.227c-2.889-2.889-22.139-18.417-29.596-24.385c-1.578-1.264-3.861-2.842-8.101-2.89
			c-4.356-0.049-37.234,0-37.234,0s-0.266,0.153-0.554,0.45c-0.041,0.037-0.083,0.082-0.125,0.125
			c-0.041,0.037-0.083,0.082-0.125,0.125c-0.041,0.037-0.083,0.082-0.125,0.125c-0.041,0.037-0.083,0.082-0.125,0.125
			c-0.041,0.037-0.083,0.082-0.125,0.125c-0.041,0.037-0.083,0.082-0.125,0.125c-0.041,0.037-0.083,0.082-0.125,0.125
			c-0.041,0.037-0.083,0.082-0.125,0.125c-0.041,0.037-0.083,0.082-0.125,0.125c-0.041,0.037-0.083,0.082-0.125,0.125
			c-0.041,0.037-0.083,0.082-0.125,0.125c-0.041,0.037-0.083,0.082-0.125,0.125c-0.041,0.037-0.083,0.082-0.125,0.125
			c-0.041,0.037-0.083,0.082-0.125,0.125c-0.041,0.037-0.083,0.082-0.125,0.125c-0.041,0.037-0.083,0.082-0.125,0.125
			c-0.041,0.037-0.083,0.082-0.125,0.125c-0.041,0.037-0.083,0.082-0.125,0.125c-0.041,0.037-0.083,0.082-0.125,0.125
			c-0.041,0.037-0.083,0.082-0.125,0.125c-0.041,0.037-0.083,0.082-0.125,0.125c-0.041,0.037-0.083,0.082-0.125,0.125
			c-0.041,0.037-0.083,0.082-0.125,0.125c-0.041,0.037-0.083,0.082-0.125,0.125c-0.041,0.037-0.083,0.082-0.125,0.125
			c-0.041,0.037-0.083,0.082-0.125,0.125c-0.041,0.037-0.083,0.082-0.125,0.125c-0.041,0.037-0.083,0.082-0.125,0.125
			c-0.041,0.037-0.083,0.082-0.125,0.125c-0.041,0.037-0.083,0.082-0.125,0.125c-0.041,0.037-0.083,0.082-0.125,0.125
			c-0.041,0.037-0.083,0.082-0.125,0.125c-0.041,0.037-0.083,0.082-0.125,0.125c-0.041,0.037-0.083,0.082-0.125,0.125
			c-0.041,0.037-0.083,0.082-0.125,0.125c-0.041,0.037-0.083,0.082-0.125,0.125c-0.041,0.037-0.083,0.082-0.125,0.125
			c-0.041,0.037-0.083,0.082-0.125,0.125c-0.041,0.037-0.083,0.082-0.125,0.125c-0.041,0.037-0.083,0.082-0.125,0.125
			c-0.041,0.037-0.083,0.082-0.125,0.125c-0.041,0.037-0.083,0.082-0.125,0.125c-0.041,0.037-0.083,0.082-0.125,0.125
			c-0.041,0.037-0.083,0.082-0.125,0.125c-0.041,0.037-0.083,0.082-0.125,0.125c-0.041,0.037-0.083,0.082-0.125,0.125
			c-0.041,0.037-0.083,0.082-0.125,0.125c-0.009,0.009-0.02,0.02-0.029,0.028l-2.712-2.712l-0.125,0.125l-0.125,0.125l-0.125,0.125
			l-0.125,0.125l-0.125,0.125l-0.125,0.125l-0.125,0.125l-0.125,0.125l-0.125,0.125l-0.125,0.125l-0.125,0.125l-0.125,0.125
			l-0.125,0.125l-0.125,0.125l-0.125,0.125l-0.125,0.125l-0.125,0.125l-0.125,0.125l-0.125,0.125l-0.125,0.125l-0.125,0.125
			l-0.125,0.125l-0.125,0.125l-0.125,0.125l-0.125,0.125l-0.125,0.125l-0.125,0.125l-0.125,0.125l-0.125,0.125l-0.125,0.125
			l-0.125,0.125l-0.125,0.125l-0.125,0.125l-0.125,0.125l-0.125,0.125l-0.125,0.125l-0.125,0.125l-0.125,0.125l-0.125,0.125
			l-0.125,0.125l-0.125,0.125l-0.125,0.125l-0.125,0.125l-0.125,0.125l-0.125,0.125l-0.125,0.125l-0.125,0.125l-0.125,0.125
			l-0.125,0.125l-0.125,0.125l-0.125,0.125l-0.125,0.125l-0.125,0.125l-0.125,0.125l-0.125,0.125l-0.125,0.125l-0.125,0.125
			l-0.125,0.125l-0.125,0.125l-0.125,0.125l-0.125,0.125l-0.125,0.125l-0.125,0.125l-0.125,0.125l-0.125,0.125l-0.125,0.125
			l-0.125,0.125l-0.125,0.125l-0.125,0.125l-0.125,0.125l-0.125,0.125l-0.125,0.125l-0.125,0.125l-0.125,0.125l-0.125,0.125
			l-0.125,0.125l-0.125,0.125l-0.125,0.125l-0.125,0.125l-0.125,0.125l-0.125,0.125l-0.125,0.125l-0.125,0.125l-0.125,0.125
			l-0.125,0.125l-0.125,0.125l-0.125,0.125l-0.125,0.125l-0.125,0.125l-0.125,0.125l-0.125,0.125l-0.125,0.125l-0.125,0.125
			l-0.125,0.125l-0.125,0.125l-0.125,0.125l-0.125,0.125l-0.125,0.125l-0.125,0.125l-0.125,0.125l-0.125,0.125l-0.125,0.125
			l-0.125,0.125l-0.125,0.125l-0.125,0.125l-0.125,0.125l-0.125,0.125l-0.125,0.125l-0.125,0.125l-0.125,0.125l-0.125,0.125
			l-0.125,0.125l-0.125,0.125l-0.125,0.125l-0.125,0.125l-0.125,0.125l-0.125,0.125l-0.125,0.125l-0.125,0.125l-0.125,0.125
			l-0.125,0.125l-0.125,0.125l-0.125,0.125l0,0l-0.125,0.125l0,0l-0.125,0.125l0,0l-0.125,0.125l0,0l-0.125,0.125l0,0l-0.125,0.125
			l0,0l-0.125,0.125l0,0l-0.125,0.125l0,0l-0.125,0.125l0,0l-0.125,0.125l0,0l-0.125,0.125l0,0l-0.125,0.125l0,0l-0.125,0.125l0,0
			l-0.125,0.125l0,0l-0.125,0.125l0,0l-0.125,0.125l0,0l-0.125,0.125l0,0l-0.125,0.125l0,0l-0.125,0.125l0,0l-0.125,0.125l0,0
			l-0.125,0.125l0,0l-0.125,0.125l0,0l-0.125,0.125l0,0l-0.125,0.125l0,0l-0.125,0.125l0,0l-0.125,0.125l0,0l-0.125,0.125l0,0
			l-0.125,0.125l0,0l-0.125,0.125l0,0l-0.125,0.125l0,0l-0.125,0.125l0,0l-0.125,0.125l0,0l-0.125,0.125l0,0l-0.125,0.125l0,0
			l-0.125,0.125l0,0l-0.125,0.125l0,0l-0.125,0.125l0,0l-0.125,0.125l0,0l-0.125,0.125l0,0l-0.125,0.125l0,0l-0.125,0.125l0,0
			l-0.125,0.125l0,0l-0.125,0.125l0,0l-0.125,0.125l0,0l-0.125,0.125l0,0l-0.125,0.125l0,0l-0.125,0.125l0,0l-0.125,0.125l0,0
			l-0.125,0.125l0,0l-0.125,0.125l0,0l-0.125,0.125l0,0l-0.125,0.125l0,0l-0.125,0.125l0,0l-0.125,0.125l0,0l-0.125,0.125l0,0
			l-0.125,0.125l0,0l-0.125,0.125l0,0l-0.125,0.125l0,0l-0.125,0.125l0,0l-0.125,0.125l0,0l-0.125,0.125l0,0l-0.125,0.125l0,0
			l-0.125,0.125l0,0l-0.125,0.125l0,0l-0.125,0.125l0,0l-0.125,0.125l0,0l-0.125,0.125l0,0l-0.125,0.125l0,0l-0.125,0.125l0,0
			l-0.125,0.125l0,0l-0.125,0.125l0,0l-0.125,0.125l0,0l-0.125,0.125l0,0l-0.125,0.125l0,0l-0.125,0.125l0,0l-0.125,0.125l0,0
			l-0.125,0.125l0,0l-0.125,0.125l0,0l-0.125,0.125l0,0l-0.125,0.125l0,0l-0.125,0.125l0,0l-0.125,0.125l0,0l-0.125,0.125l0,0
			l-0.125,0.125l0,0l-0.125,0.125l0,0l-0.125,0.125l0,0l-0.125,0.125l0,0l-0.125,0.125l0,0l-0.125,0.125l0,0l-0.125,0.125l0,0
			l-0.125,0.125l0,0l-0.125,0.125l0,0l-0.125,0.125l0,0l-0.125,0.125l0,0l-0.125,0.125l0,0l-0.125,0.125l0,0l-0.125,0.125l0,0
			l-0.125,0.125l0,0l-0.125,0.125l0,0l-0.125,0.125l0,0l-0.125,0.125l0,0l-0.125,0.125l0,0l-0.125,0.125l0,0l-0.125,0.125l0,0
			l-0.125,0.125l0,0l-0.125,0.125l0,0l-0.125,0.125l0,0l-0.125,0.125l0,0l-0.125,0.125l0,0l-0.125,0.125l0,0l-0.125,0.125l0,0
			l-0.125,0.125l0,0l-0.125,0.125l0,0l-0.125,0.125l0,0l-0.125,0.125l0,0l-0.125,0.125l0,0l-0.125,0.125l0,0l-0.125,0.125l0,0
			l-0.125,0.125l0,0l-0.125,0.125l0,0l-0.125,0.125l0,0l-0.125,0.125l0,0l-0.125,0.125l0,0l-0.125,0.125l0,0l-0.125,0.125l0,0
			l-0.125,0.125l0,0l-0.125,0.125l0,0l-0.125,0.125l0,0l-0.125,0.125l0,0l-0.125,0.125l0,0l-0.125,0.125l0,0l-0.125,0.125l0,0
			l-0.125,0.125l0,0l-0.125,0.125l0,0l-0.125,0.125l0,0l-0.125,0.125l0,0l-0.125,0.125l0,0l-0.125,0.125l0,0l-0.125,0.125l0,0
			l-0.125,0.125l0,0l-0.125,0.125l0,0l-0.125,0.125l0,0l-0.125,0.125l0,0l-0.125,0.125l0,0l-0.125,0.125l0,0l-0.125,0.125l0,0
			l-0.125,0.125l0,0l-0.125,0.125l0,0l-0.125,0.125l0,0l-0.125,0.125l0,0l-0.125,0.125l0,0l-0.125,0.125l0,0l-0.125,0.125l0,0
			l-0.125,0.125l0,0l-0.125,0.125l0,0l-0.125,0.125l0,0l-0.125,0.125l0,0l-0.125,0.125l0,0l-0.125,0.125l0,0l-0.125,0.125l0,0
			l-0.125,0.125l0,0l-0.125,0.125l0,0l-0.125,0.125l0,0l-0.125,0.125l0,0l-0.125,0.125l0,0l-0.125,0.125l0,0l-0.125,0.125l0,0
			l-0.125,0.125l0,0l-0.125,0.125l0,0l-0.125,0.125l0,0l-0.125,0.125l0,0l-0.125,0.125l0,0l-0.125,0.125l0,0l-0.125,0.125l0,0
			l-0.125,0.125l0,0l-0.125,0.125l0,0l-0.125,0.125l0,0l-0.125,0.125l0,0l-0.125,0.125l0,0l-0.125,0.125l0,0l-0.125,0.125l0,0
			l-0.125,0.125l0,0l-0.125,0.125l0,0l-0.125,0.125l0,0l-0.125,0.125l0,0l-0.125,0.125l0,0l-0.125,0.125l0,0l-0.125,0.125l0,0
			l-0.125,0.125l0,0l-0.125,0.125l0,0l-0.125,0.125l0,0l-0.125,0.125l0,0l-3.969,3.97l-0.031,0.03l-0.094,0.095l-0.031,0.03
			l-0.094,0.095l-0.031,0.03l-0.094,0.095l-0.031,0.03l-0.094,0.095l-0.031,0.03l-0.094,0.095l-0.031,0.03l-0.094,0.095l-0.031,0.03
			l-0.094,0.095l-0.031,0.03l-0.094,0.095l-0.031,0.03l-0.094,0.095l-0.031,0.03l-0.094,0.095l-0.031,0.03l-0.094,0.095l-0.031,0.03
			l-0.094,0.095l-0.031,0.03l-0.094,0.095l-0.031,0.03l-0.094,0.095l-0.031,0.03l-0.094,0.095l-0.031,0.03l-0.094,0.095l-0.031,0.03
			l-0.094,0.095l-0.031,0.03l-0.094,0.095l-0.031,0.03l-0.094,0.095l-0.031,0.03l-0.094,0.095l-0.031,0.03l-0.094,0.095l-0.031,0.03
			l-0.094,0.095l-0.031,0.03l-0.094,0.095l-0.031,0.03l-0.094,0.095l-0.031,0.03l-0.094,0.095l-0.031,0.03l-0.094,0.095l-0.031,0.03
			l-0.094,0.095l-0.031,0.03l-0.094,0.095l-0.031,0.03l-0.094,0.095l-0.031,0.03l-0.094,0.095l-0.031,0.03l-0.094,0.095l-0.031,0.03
			l-0.094,0.095l-0.031,0.03l-0.094,0.095l-0.031,0.03l-0.094,0.095l-0.031,0.03l-0.094,0.095l-0.031,0.03l-0.094,0.095l-0.031,0.03
			l-0.094,0.095l-0.031,0.03l-0.094,0.095l-0.031,0.03l-0.094,0.095l-0.031,0.03l-0.094,0.095l-0.031,0.03l-0.094,0.095l-0.031,0.03
			l-0.094,0.095l-0.031,0.03l-0.094,0.095l-0.031,0.03l-0.094,0.095l-0.031,0.03l-0.094,0.095l-0.031,0.03l-0.094,0.095l-0.031,0.03
			l-0.094,0.095l-0.031,0.03l-0.094,0.095l-0.031,0.03l-0.094,0.095l-0.031,0.03l-0.094,0.095l-0.031,0.03l-0.094,0.095l-0.031,0.03
			l-0.094,0.095l-0.031,0.03l-0.094,0.095l-0.031,0.03l-0.094,0.095l-0.031,0.03l-0.094,0.095l-0.031,0.03l-0.094,0.095l-0.031,0.03
			l-0.094,0.095l-0.031,0.03l-0.094,0.095l-0.031,0.03l-0.094,0.095l-0.031,0.03l-0.094,0.095l-0.031,0.03l-0.094,0.095l-0.031,0.03
			l-0.094,0.095l-0.031,0.03l-0.094,0.095l-0.031,0.03l-0.094,0.095l-0.031,0.03l-0.094,0.095l-0.031,0.03l-0.094,0.095l-0.031,0.03
			l-0.094,0.095l-0.031,0.03l-0.094,0.095l-0.031,0.03l-0.094,0.095l-0.031,0.03l-0.094,0.095l-0.031,0.03l-0.094,0.095l-0.031,0.03
			l-0.094,0.095l-0.031,0.03l-0.094,0.095l-0.031,0.03l-0.094,0.095l-0.031,0.03l-0.094,0.095l-0.031,0.03l-0.094,0.095l-0.031,0.03
			l-0.094,0.095l-0.031,0.03l-0.094,0.095l-0.031,0.03l-0.094,0.095l-0.031,0.03l-0.094,0.095l-0.031,0.03l-0.094,0.095l-0.031,0.03
			l-0.094,0.095l-0.031,0.03l-0.094,0.095l-0.031,0.03l-0.094,0.095l-0.031,0.03l-0.094,0.095l-0.031,0.03l-0.094,0.095l-0.031,0.03
			l-0.094,0.095l-0.031,0.03l-0.094,0.095l-0.031,0.03l-0.094,0.095l-0.031,0.03l-0.094,0.095l-0.031,0.03l-0.094,0.095l-0.031,0.03
			l-0.094,0.095l-0.031,0.03l-0.094,0.095l-0.031,0.03l-0.094,0.095l-0.031,0.03l-0.094,0.095l-0.031,0.03l-0.094,0.095l-0.031,0.03
			l-0.094,0.095l-0.031,0.03l-0.094,0.095l-0.031,0.03l-0.094,0.095l-0.031,0.03l-0.094,0.095l-0.031,0.03l-0.094,0.095l-0.031,0.03
			l-0.094,0.095l-0.031,0.03l-0.094,0.095l-0.031,0.03l-0.094,0.095l-0.031,0.03l-0.094,0.095l-0.031,0.03l-0.094,0.095l-0.031,0.03
			l-0.094,0.095l-0.031,0.03l-0.094,0.095l-0.031,0.03l-0.094,0.095l-0.031,0.03l-0.094,0.095l-0.031,0.03l-0.094,0.095l-0.031,0.03
			l-0.094,0.095l-0.031,0.03l-0.094,0.095l-0.031,0.03l-0.094,0.095l-0.031,0.03l-0.094,0.095l-0.031,0.03l-0.094,0.095l-0.031,0.03
			l-0.094,0.095l-0.031,0.03l-0.094,0.095l-0.031,0.03l-0.094,0.095l-0.031,0.03l-0.094,0.095l-0.031,0.03l-0.094,0.095l-0.031,0.03
			l-0.094,0.095l-0.031,0.03l-0.094,0.095l-0.031,0.03l-0.094,0.095l-0.031,0.03l-0.094,0.095l-0.031,0.03l-0.094,0.095l-0.031,0.03
			l-0.094,0.095l-0.031,0.03l-0.094,0.095l-0.031,0.03l-0.094,0.095l-0.031,0.03l-0.094,0.095l-0.031,0.03l-0.094,0.095l-0.031,0.03
			l-0.094,0.095l-0.031,0.03l-0.094,0.095l-0.031,0.03l-0.094,0.095l-0.031,0.03l-0.094,0.095l-0.031,0.03l-0.094,0.095l-0.031,0.03
			l-0.094,0.095l-0.031,0.03l-0.094,0.095l-0.031,0.03l-0.094,0.095l-0.031,0.03l-0.094,0.095l-0.031,0.03l-0.094,0.095l-0.031,0.03
			l-0.094,0.095l-0.031,0.03l-0.094,0.095l-0.031,0.03l-0.094,0.095l-0.031,0.03l-0.094,0.095l-0.031,0.03l-0.094,0.095l-0.031,0.03
			l-0.094,0.095l-0.031,0.03l-0.094,0.095l-0.031,0.03l-0.094,0.095l-0.031,0.03l-0.094,0.095l-0.031,0.03l-0.094,0.095l-0.031,0.03
			l-0.094,0.095l-0.031,0.03l-0.094,0.095l-0.031,0.03l-0.094,0.095l-0.031,0.03l-0.094,0.095l-0.031,0.03l-0.094,0.095l-0.031,0.03
			l-0.094,0.095l-0.031,0.03l-0.094,0.095l-0.031,0.03l-0.094,0.095l-0.031,0.03l-0.094,0.095l-0.031,0.03l-0.094,0.095l-0.031,0.03
			l-0.094,0.095l-0.031,0.03l-0.094,0.095l-0.031,0.03l-0.094,0.095l-0.031,0.03l-0.094,0.095l-0.031,0.03l-0.094,0.095l-0.031,0.03
			l-0.094,0.095l-0.031,0.03l-0.094,0.095l-0.031,0.03l-0.094,0.095l-0.031,0.03l-0.094,0.095l-0.031,0.03l-0.094,0.095l-0.031,0.03
			l-0.094,0.095l-0.031,0.03l-0.094,0.095l-0.031,0.03l-0.094,0.095l-0.031,0.03l-0.094,0.095l-0.031,0.03l-0.094,0.095l-0.031,0.03
			l-0.094,0.095l-0.031,0.03l-0.094,0.095l-0.031,0.03l-0.094,0.095l-0.031,0.03l-0.094,0.095l-0.031,0.03l-0.094,0.095l-0.031,0.03
			l-0.094,0.095l-0.031,0.03l-0.094,0.095l-0.031,0.03l-0.094,0.095l-0.031,0.03l-0.094,0.095l-0.031,0.03l-0.094,0.095l-0.031,0.03
			l-0.094,0.095l-0.031,0.03l-0.094,0.095l-0.031,0.03l-0.094,0.095l-0.031,0.03l-0.094,0.095l-0.031,0.03l-0.094,0.095l-0.031,0.03
			l-0.094,0.095l-0.031,0.03l-0.094,0.095l-0.031,0.03l-0.094,0.095l-0.031,0.03l-0.094,0.095l-0.031,0.03l-0.094,0.095l-0.031,0.03
			l-0.094,0.095l-0.031,0.03l-0.094,0.095l-0.031,0.03l-0.094,0.095l-0.031,0.03l-0.094,0.095l-0.031,0.03l-0.094,0.095l-0.031,0.03
			l-0.094,0.095l-0.031,0.03l-0.094,0.095l-0.031,0.03l-0.094,0.095l-0.031,0.03l-0.094,0.095l-0.031,0.03l-0.094,0.095l-0.031,0.03
			l-0.094,0.095l-0.031,0.03l-0.094,0.095l-0.031,0.03l-0.094,0.095l-0.031,0.03l-0.094,0.095l-0.031,0.03l-0.094,0.095l-0.031,0.03
			l-0.094,0.095l-0.031,0.03l-0.094,0.095l-0.031,0.03l-0.094,0.095l-0.031,0.03l-0.094,0.095l-0.031,0.03l-0.094,0.095l-0.031,0.03
			l-0.094,0.095l-0.031,0.03l-0.094,0.095l-0.031,0.03l-0.094,0.095l-0.031,0.03l-0.094,0.095l-0.031,0.03l-0.094,0.095l-0.031,0.03
			l-0.094,0.095l-0.031,0.03l-0.094,0.095l-0.031,0.03l-0.094,0.095l-0.031,0.03l-0.094,0.095l-0.031,0.03l-0.094,0.095l-0.031,0.03
			l-0.094,0.095l-0.031,0.03l-0.094,0.095l-0.031,0.03l-0.094,0.095l-0.031,0.03l-0.094,0.095l-0.031,0.03l-0.094,0.095l-0.031,0.03
			l-0.094,0.095l-0.031,0.03l-0.094,0.095l-0.031,0.03l-0.094,0.095l-0.031,0.03l-0.094,0.095l-0.031,0.03l-0.094,0.095l-0.031,0.03
			l-0.094,0.095l-0.031,0.03l-0.094,0.095l-0.031,0.03l-0.094,0.095l-0.031,0.03l-0.094,0.095l-0.031,0.03l-0.094,0.095l-0.031,0.03
			l-0.094,0.095l-0.031,0.03l-0.094,0.095l-0.031,0.03l-0.094,0.095l-0.031,0.03l-0.094,0.095l-0.031,0.03l-0.094,0.095l-0.031,0.03
			l-0.094,0.095l-0.031,0.03l-0.094,0.095l-0.031,0.03l-0.094,0.095l-0.031,0.03l-0.094,0.095l-0.031,0.03l-0.094,0.095l-0.031,0.03
			l-0.094,0.095l-0.031,0.03l-0.094,0.095l-0.031,0.03l-0.094,0.095l-0.031,0.03l-0.094,0.095l-0.125,0.125l-0.125,0.125
			l-0.125,0.125l-0.125,0.125l-0.125,0.125l-0.125,0.125l-0.125,0.125l-0.125,0.125l-0.125,0.125l-0.125,0.125l-0.125,0.125
			l-0.125,0.125l-0.125,0.125l-0.125,0.125l-0.125,0.125l-0.125,0.125l-0.125,0.125l-0.125,0.125l-0.125,0.125l-0.125,0.125
			l-0.125,0.125l-0.125,0.125l-0.125,0.125l-0.125,0.125l-0.125,0.125l-0.125,0.125l-0.125,0.125l-0.125,0.125l-0.125,0.125
			l-0.125,0.125l-0.125,0.125l11.081,11.08c-0.005,0.006-0.01,0.012-0.016,0.018c-0.042,0.041-0.084,0.082-0.125,0.125
			c-0.042,0.041-0.084,0.082-0.125,0.125c-0.042,0.041-0.084,0.082-0.125,0.125c-0.042,0.041-0.084,0.082-0.125,0.125
			c-0.042,0.041-0.084,0.082-0.125,0.125c-0.042,0.041-0.084,0.082-0.125,0.125c-0.042,0.041-0.084,0.082-0.125,0.125
			c-0.042,0.041-0.084,0.082-0.125,0.125c-0.042,0.041-0.084,0.082-0.125,0.125c-0.042,0.041-0.084,0.082-0.125,0.125
			c-0.042,0.041-0.084,0.082-0.125,0.125c-0.042,0.041-0.084,0.082-0.125,0.125c-0.042,0.041-0.084,0.082-0.125,0.125
			c-0.042,0.041-0.084,0.082-0.125,0.125c-0.042,0.041-0.084,0.082-0.125,0.125c-0.042,0.041-0.084,0.082-0.125,0.125
			c-0.042,0.041-0.084,0.082-0.125,0.125c-0.042,0.041-0.084,0.082-0.125,0.125c-0.042,0.041-0.084,0.082-0.125,0.125
			c-0.042,0.041-0.084,0.082-0.125,0.125c-0.042,0.041-0.084,0.082-0.125,0.125c-0.042,0.041-0.084,0.082-0.125,0.125
			c-0.042,0.041-0.084,0.082-0.125,0.125c-0.042,0.041-0.084,0.082-0.125,0.125c-0.042,0.041-0.084,0.082-0.125,0.125
			c-0.042,0.041-0.084,0.082-0.125,0.125c-0.042,0.041-0.084,0.082-0.125,0.125c-0.042,0.041-0.084,0.082-0.125,0.125
			c-0.042,0.041-0.084,0.082-0.125,0.125c-0.042,0.041-0.084,0.082-0.125,0.125c-0.042,0.041-0.084,0.082-0.125,0.125
			c-0.042,0.041-0.084,0.082-0.125,0.125c-0.042,0.041-0.084,0.082-0.125,0.125c-0.042,0.041-0.084,0.082-0.125,0.125
			c-0.042,0.041-0.084,0.082-0.125,0.125c-0.042,0.041-0.084,0.082-0.125,0.125c-0.042,0.041-0.084,0.082-0.125,0.125
			c-0.042,0.041-0.084,0.082-0.125,0.125c-0.042,0.041-0.084,0.082-0.125,0.125c-0.042,0.041-0.084,0.082-0.125,0.125
			c-0.042,0.041-0.084,0.082-0.125,0.125c-0.042,0.041-0.084,0.082-0.125,0.125c-0.042,0.041-0.084,0.082-0.125,0.125
			c-0.042,0.041-0.084,0.082-0.125,0.125c-0.042,0.041-0.084,0.082-0.125,0.125c-0.042,0.041-0.084,0.082-0.125,0.125
			c-0.042,0.041-0.084,0.082-0.125,0.125c-0.042,0.041-0.084,0.082-0.125,0.125c-0.042,0.041-0.084,0.082-0.125,0.125
			c-0.042,0.041-0.084,0.082-0.125,0.125c-0.042,0.041-0.084,0.082-0.125,0.125c-0.042,0.041-0.084,0.082-0.125,0.125
			c-0.042,0.041-0.084,0.082-0.125,0.125c-0.042,0.041-0.084,0.082-0.125,0.125c-0.042,0.041-0.084,0.082-0.125,0.125
			c-0.042,0.041-0.084,0.082-0.125,0.125c-0.042,0.041-0.084,0.082-0.125,0.125c-0.042,0.041-0.084,0.082-0.125,0.125
			c-0.042,0.041-0.084,0.082-0.125,0.125c-0.042,0.041-0.084,0.082-0.125,0.125c-0.042,0.041-0.084,0.082-0.125,0.125
			c-0.042,0.041-0.084,0.082-0.125,0.125c-0.042,0.041-0.084,0.082-0.125,0.125c-0.042,0.041-0.084,0.082-0.125,0.125
			c-0.042,0.041-0.084,0.082-0.125,0.125c-0.042,0.041-0.084,0.082-0.125,0.125c-0.042,0.041-0.084,0.082-0.125,0.125
			c-0.042,0.041-0.084,0.082-0.125,0.125c-0.042,0.041-0.084,0.082-0.125,0.125c-0.042,0.041-0.084,0.082-0.125,0.125
			c-0.042,0.041-0.084,0.082-0.125,0.125c-0.042,0.041-0.084,0.082-0.125,0.125c-0.042,0.041-0.084,0.082-0.125,0.125
			c-0.042,0.041-0.084,0.082-0.125,0.125c-0.042,0.041-0.084,0.082-0.125,0.125c-0.042,0.041-0.084,0.082-0.125,0.125
			c-0.042,0.041-0.084,0.082-0.125,0.125c-0.042,0.041-0.084,0.082-0.125,0.125c-0.042,0.041-0.084,0.082-0.125,0.125
			c-0.042,0.041-0.084,0.082-0.125,0.125c-0.042,0.041-0.084,0.082-0.125,0.125c-0.042,0.041-0.084,0.082-0.125,0.125
			c-0.042,0.041-0.084,0.082-0.125,0.125c-0.042,0.041-0.084,0.082-0.125,0.125c-0.042,0.041-0.084,0.082-0.125,0.125
			c-0.042,0.041-0.084,0.082-0.125,0.125c-0.042,0.041-0.084,0.082-0.125,0.125c-0.042,0.041-0.084,0.082-0.125,0.125
			c-0.042,0.041-0.084,0.082-0.125,0.125c-0.042,0.041-0.084,0.082-0.125,0.125c-0.042,0.041-0.084,0.082-0.125,0.125
			c-0.042,0.041-0.084,0.082-0.125,0.125c-0.042,0.041-0.084,0.082-0.125,0.125c-0.042,0.041-0.084,0.082-0.125,0.125
			c-0.042,0.041-0.084,0.082-0.125,0.125c-0.042,0.041-0.084,0.082-0.125,0.125c-0.042,0.041-0.084,0.082-0.125,0.125
			c-0.042,0.041-0.084,0.082-0.125,0.125c-0.042,0.042-0.084,0.082-0.125,0.125c-0.042,0.042-0.084,0.082-0.125,0.125
			c-0.042,0.042-0.084,0.082-0.125,0.125c-0.042,0.042-0.084,0.082-0.125,0.125c-0.042,0.042-0.084,0.082-0.125,0.125
			c-0.042,0.042-0.084,0.082-0.125,0.125c-0.042,0.042-0.084,0.082-0.125,0.125c-0.042,0.042-0.084,0.082-0.125,0.125
			c-0.042,0.042-0.084,0.082-0.125,0.125c-0.042,0.042-0.084,0.082-0.125,0.125c-0.042,0.042-0.084,0.082-0.125,0.125
			c-0.042,0.042-0.084,0.082-0.125,0.125c-0.042,0.042-0.084,0.082-0.125,0.125c-0.042,0.042-0.084,0.082-0.125,0.125
			c-0.042,0.042-0.084,0.082-0.125,0.125c-0.042,0.042-0.084,0.082-0.125,0.125c-0.042,0.042-0.084,0.082-0.125,0.125
			c-0.042,0.042-0.084,0.082-0.125,0.125c-0.042,0.042-0.084,0.082-0.125,0.125c-0.042,0.042-0.084,0.082-0.125,0.125
			c-0.042,0.042-0.084,0.082-0.125,0.125c-0.042,0.042-0.084,0.082-0.125,0.125c-0.042,0.042-0.084,0.082-0.125,0.125
			c-0.042,0.042-0.084,0.082-0.125,0.125c-0.042,0.042-0.084,0.082-0.125,0.125c-0.042,0.042-0.084,0.082-0.125,0.125
			c-0.042,0.042-0.084,0.082-0.125,0.125c-0.042,0.042-0.084,0.082-0.125,0.125c-0.042,0.042-0.084,0.082-0.125,0.125
			c-0.042,0.042-0.084,0.082-0.125,0.125c-0.042,0.042-0.084,0.082-0.125,0.125c-0.042,0.042-0.084,0.082-0.125,0.125
			c-0.042,0.042-0.084,0.082-0.125,0.125c-0.606,0.607-1.122,1.306-1.467,2.115c-0.654,1.533-0.619,3.217,0.103,5.006
			c0.22,0.547,0.743,0.899,1.331,0.899c0.185,0,0.365-0.034,0.537-0.104c0.208-0.084,0.377-0.221,0.523-0.385
			c0.045-0.039,0.085-0.08,0.125-0.125c0.045-0.039,0.085-0.08,0.125-0.125c0.045-0.039,0.085-0.08,0.125-0.125
			c0.045-0.039,0.085-0.08,0.125-0.125c0.045-0.039,0.085-0.08,0.125-0.125c0.045-0.039,0.085-0.08,0.125-0.125
			c0.045-0.039,0.085-0.08,0.125-0.125c0.045-0.039,0.085-0.08,0.125-0.125c0.045-0.039,0.085-0.08,0.125-0.125
			c0.045-0.039,0.085-0.08,0.125-0.125c0.045-0.039,0.085-0.08,0.125-0.125c0.045-0.039,0.085-0.08,0.125-0.125
			c0.045-0.039,0.085-0.08,0.125-0.125c0.045-0.039,0.085-0.08,0.125-0.125c0.045-0.039,0.085-0.08,0.125-0.125
			c0.045-0.039,0.085-0.08,0.125-0.125c0.045-0.039,0.085-0.08,0.125-0.125c0.045-0.039,0.085-0.08,0.125-0.125
			c0.045-0.039,0.085-0.08,0.125-0.125c0.045-0.039,0.085-0.08,0.125-0.125c0.045-0.039,0.085-0.08,0.125-0.125
			c0.045-0.039,0.085-0.08,0.125-0.125c0.045-0.039,0.085-0.08,0.125-0.125c0.045-0.039,0.085-0.08,0.125-0.125
			c0.045-0.039,0.085-0.08,0.125-0.125c0.045-0.039,0.085-0.08,0.125-0.125c0.045-0.039,0.085-0.08,0.125-0.125
			c0.045-0.039,0.085-0.08,0.125-0.125c0.045-0.039,0.085-0.08,0.125-0.125c0.045-0.039,0.085-0.08,0.125-0.125
			c0.045-0.039,0.085-0.08,0.125-0.125c0.045-0.039,0.085-0.08,0.125-0.125c0.045-0.039,0.085-0.08,0.125-0.125
			c0.045-0.039,0.085-0.08,0.125-0.125c0.045-0.039,0.085-0.08,0.125-0.125c0.045-0.039,0.085-0.08,0.125-0.125
			c0.045-0.039,0.085-0.08,0.125-0.125c0.045-0.039,0.085-0.08,0.125-0.125c0.045-0.039,0.085-0.08,0.125-0.125
			c0.045-0.039,0.085-0.08,0.125-0.125c0.045-0.039,0.085-0.08,0.125-0.125c0.045-0.039,0.085-0.08,0.125-0.125
			c0.045-0.039,0.085-0.08,0.125-0.125c0.045-0.039,0.085-0.08,0.125-0.125c0.045-0.039,0.085-0.08,0.125-0.125
			c0.045-0.039,0.085-0.08,0.125-0.125c0.045-0.039,0.085-0.08,0.125-0.125c0.045-0.039,0.085-0.08,0.125-0.125
			c0.045-0.039,0.085-0.08,0.125-0.125c0.045-0.039,0.085-0.08,0.125-0.125c0.045-0.039,0.085-0.08,0.125-0.125
			c0.045-0.039,0.085-0.08,0.125-0.125c0.045-0.039,0.085-0.08,0.125-0.125c0.045-0.039,0.085-0.08,0.125-0.125
			c0.045-0.039,0.085-0.08,0.125-0.125c0.045-0.039,0.085-0.08,0.125-0.125c0.045-0.039,0.085-0.08,0.125-0.125
			c0.045-0.039,0.085-0.08,0.125-0.125c0.045-0.039,0.085-0.08,0.125-0.125c0.045-0.039,0.085-0.08,0.125-0.125
			c0.045-0.039,0.085-0.08,0.125-0.125c0.045-0.039,0.085-0.08,0.125-0.125c0.045-0.039,0.085-0.08,0.125-0.125
			c0.045-0.039,0.085-0.08,0.125-0.125c0.045-0.039,0.085-0.08,0.125-0.125c0.045-0.039,0.085-0.08,0.125-0.125
			c0.045-0.039,0.085-0.08,0.125-0.125c0.045-0.039,0.085-0.08,0.125-0.125c0.045-0.039,0.085-0.08,0.125-0.125
			c0.045-0.039,0.085-0.08,0.125-0.125c0.045-0.039,0.085-0.08,0.125-0.125c0.045-0.039,0.085-0.08,0.125-0.125
			c0.045-0.039,0.085-0.08,0.125-0.125c0.045-0.039,0.085-0.08,0.125-0.125c0.045-0.039,0.085-0.08,0.125-0.125
			c0.045-0.039,0.085-0.08,0.125-0.125c0.045-0.039,0.085-0.08,0.125-0.125c0.045-0.039,0.085-0.08,0.125-0.125
			c0.045-0.039,0.085-0.08,0.125-0.125c0.045-0.039,0.085-0.08,0.125-0.125c0.045-0.039,0.085-0.08,0.125-0.125
			c0.045-0.039,0.085-0.08,0.125-0.125c0.045-0.039,0.085-0.08,0.125-0.125c0.045-0.039,0.085-0.08,0.125-0.125
			c0.032-0.027,0.066-0.052,0.097-0.082c0.497-0.354,0.97-0.75,1.395-1.193c0.042-0.042,0.084-0.082,0.125-0.125
			c0.042-0.042,0.084-0.082,0.125-0.125c0.042-0.042,0.084-0.082,0.125-0.125c0.042-0.042,0.084-0.082,0.125-0.125
			c0.042-0.042,0.084-0.082,0.125-0.125c0.042-0.042,0.084-0.082,0.125-0.125c0.042-0.042,0.084-0.082,0.125-0.125
			c0.042-0.042,0.084-0.082,0.125-0.125c0.042-0.042,0.084-0.082,0.125-0.125c0.042-0.042,0.084-0.082,0.125-0.125
			c0.042-0.042,0.084-0.082,0.125-0.125c0.042-0.042,0.084-0.082,0.125-0.125c0.042-0.042,0.084-0.082,0.125-0.125
			c0.042-0.042,0.084-0.082,0.125-0.125c0.042-0.042,0.084-0.082,0.125-0.125c0.042-0.042,0.084-0.082,0.125-0.125
			c0.042-0.042,0.084-0.082,0.125-0.125c0.042-0.042,0.084-0.082,0.125-0.125c0.042-0.042,0.084-0.082,0.125-0.125
			c0.042-0.042,0.084-0.082,0.125-0.125c0.042-0.042,0.084-0.082,0.125-0.125c0.042-0.042,0.084-0.082,0.125-0.125
			c0.042-0.042,0.084-0.082,0.125-0.125c0.042-0.042,0.084-0.082,0.125-0.125c0.042-0.042,0.084-0.082,0.125-0.125
			c0.042-0.042,0.084-0.082,0.125-0.125c0.042-0.042,0.084-0.082,0.125-0.125c0.042-0.042,0.084-0.082,0.125-0.125
			c0.042-0.042,0.084-0.082,0.125-0.125c0.042-0.042,0.084-0.082,0.125-0.125c0.042-0.042,0.084-0.082,0.125-0.125
			c0.042-0.042,0.084-0.082,0.125-0.125c0.042-0.042,0.084-0.082,0.125-0.125c0.042-0.042,0.084-0.082,0.125-0.125
			c0.042-0.042,0.084-0.082,0.125-0.125c0.042-0.042,0.084-0.082,0.125-0.125c0.042-0.042,0.084-0.082,0.125-0.125
			c0.042-0.042,0.084-0.082,0.125-0.125c0.042-0.042,0.084-0.082,0.125-0.125c0.042-0.042,0.084-0.082,0.125-0.125
			c0.042-0.042,0.084-0.082,0.125-0.125c0.042-0.042,0.084-0.082,0.125-0.125c0.042-0.042,0.084-0.082,0.125-0.125
			c0.042-0.042,0.084-0.082,0.125-0.125c0.042-0.042,0.084-0.082,0.125-0.125c0.042-0.042,0.084-0.082,0.125-0.125
			c0.042-0.042,0.084-0.082,0.125-0.125c0.042-0.042,0.084-0.082,0.125-0.125c0.042-0.042,0.084-0.082,0.125-0.125
			c0.042-0.042,0.084-0.082,0.125-0.125c0.042-0.042,0.084-0.082,0.125-0.125c0.042-0.042,0.084-0.082,0.125-0.125
			c0.042-0.042,0.084-0.082,0.125-0.125c0.042-0.042,0.084-0.082,0.125-0.125c0.042-0.042,0.084-0.082,0.125-0.125
			c0.042-0.042,0.084-0.082,0.125-0.125c0.042-0.042,0.084-0.082,0.125-0.125c0.042-0.042,0.084-0.082,0.125-0.125
			c0.042-0.042,0.084-0.082,0.125-0.125c0.042-0.042,0.084-0.082,0.125-0.125c0.042-0.042,0.084-0.082,0.125-0.125
			c0.042-0.042,0.084-0.082,0.125-0.125c0.003-0.004,0.007-0.008,0.011-0.012l2.271,2.271c-0.005,0.006-0.01,0.012-0.016,0.018
			c-0.042,0.043-0.084,0.082-0.125,0.125c-0.042,0.043-0.084,0.082-0.125,0.125c-0.042,0.043-0.084,0.082-0.125,0.125
			c-0.042,0.043-0.084,0.082-0.125,0.125c-0.042,0.043-0.084,0.082-0.125,0.125c-0.042,0.043-0.084,0.082-0.125,0.125
			c-0.042,0.043-0.084,0.082-0.125,0.125c-0.042,0.043-0.084,0.082-0.125,0.125c-0.042,0.043-0.084,0.082-0.125,0.125
			c-0.042,0.043-0.084,0.082-0.125,0.125c-0.042,0.043-0.084,0.082-0.125,0.125c-0.042,0.043-0.084,0.082-0.125,0.125
			c-0.042,0.043-0.084,0.082-0.125,0.125c-0.042,0.043-0.084,0.082-0.125,0.125c-0.042,0.043-0.084,0.082-0.125,0.125
			c-0.042,0.043-0.084,0.082-0.125,0.125c-0.042,0.043-0.084,0.082-0.125,0.125c-0.042,0.043-0.084,0.082-0.125,0.125
			c-0.042,0.043-0.084,0.082-0.125,0.125c-0.042,0.043-0.084,0.082-0.125,0.125c-0.042,0.043-0.084,0.082-0.125,0.125
			c-0.042,0.043-0.084,0.082-0.125,0.125c-0.042,0.043-0.084,0.082-0.125,0.125c-0.042,0.043-0.084,0.082-0.125,0.125
			c-0.042,0.043-0.084,0.082-0.125,0.125c-0.042,0.043-0.084,0.082-0.125,0.125c-0.042,0.043-0.084,0.082-0.125,0.125
			c-0.042,0.043-0.084,0.082-0.125,0.125c-0.042,0.043-0.084,0.082-0.125,0.125c-0.042,0.043-0.084,0.082-0.125,0.125
			c-0.042,0.043-0.084,0.082-0.125,0.125c-0.042,0.043-0.084,0.082-0.125,0.125c-0.042,0.043-0.084,0.082-0.125,0.125
			c-0.042,0.043-0.084,0.082-0.125,0.125c-0.042,0.043-0.084,0.082-0.125,0.125c-0.042,0.043-0.084,0.082-0.125,0.125
			c-0.042,0.043-0.084,0.082-0.125,0.125c-0.042,0.043-0.084,0.082-0.125,0.125c-0.042,0.043-0.084,0.082-0.125,0.125
			c-0.042,0.043-0.084,0.082-0.125,0.125c-0.042,0.043-0.084,0.082-0.125,0.125c-0.042,0.043-0.084,0.082-0.125,0.125
			c-0.042,0.043-0.084,0.082-0.125,0.125c-0.042,0.043-0.084,0.082-0.125,0.125c-0.042,0.043-0.084,0.082-0.125,0.125
			c-0.042,0.043-0.084,0.082-0.125,0.125c-0.042,0.043-0.084,0.082-0.125,0.125c-0.042,0.043-0.084,0.082-0.125,0.125
			c-0.042,0.043-0.084,0.082-0.125,0.125c-0.042,0.043-0.084,0.082-0.125,0.125c-0.042,0.043-0.084,0.082-0.125,0.125
			c-0.042,0.043-0.084,0.082-0.125,0.125c-0.042,0.043-0.084,0.082-0.125,0.125c-0.042,0.043-0.084,0.082-0.125,0.125
			c-0.042,0.043-0.084,0.082-0.125,0.125c-0.042,0.043-0.084,0.082-0.125,0.125c-0.042,0.043-0.084,0.082-0.125,0.125
			c-0.042,0.043-0.084,0.082-0.125,0.125c-0.042,0.043-0.084,0.082-0.125,0.125c-0.042,0.043-0.084,0.082-0.125,0.125
			c-0.042,0.043-0.084,0.082-0.125,0.125c-0.042,0.043-0.084,0.082-0.125,0.125c-0.042,0.043-0.084,0.082-0.125,0.125
			c-0.042,0.043-0.084,0.082-0.125,0.125c-0.042,0.043-0.084,0.082-0.125,0.125c-0.042,0.043-0.084,0.082-0.125,0.125
			c-0.042,0.043-0.084,0.082-0.125,0.125c-0.042,0.043-0.084,0.082-0.125,0.125c-0.042,0.043-0.084,0.082-0.125,0.125
			c-0.042,0.043-0.084,0.082-0.125,0.125c-0.042,0.043-0.084,0.082-0.125,0.125c-0.042,0.043-0.084,0.082-0.125,0.125
			c-0.042,0.043-0.084,0.082-0.125,0.125c-0.042,0.043-0.084,0.082-0.125,0.125c-0.042,0.043-0.084,0.082-0.125,0.125
			c-0.042,0.043-0.084,0.082-0.125,0.125c-0.042,0.043-0.084,0.082-0.125,0.125c-0.042,0.043-0.084,0.082-0.125,0.125
			c-0.042,0.043-0.084,0.082-0.125,0.125c-0.042,0.043-0.084,0.082-0.125,0.125c-0.042,0.043-0.084,0.082-0.125,0.125
			c-0.042,0.043-0.084,0.082-0.125,0.125c-0.042,0.043-0.084,0.082-0.125,0.125c-0.042,0.043-0.084,0.082-0.125,0.125
			c-0.042,0.043-0.084,0.082-0.125,0.125c-0.042,0.043-0.084,0.082-0.125,0.125c-0.042,0.043-0.084,0.082-0.125,0.125
			c-0.042,0.043-0.084,0.082-0.125,0.125c-0.042,0.043-0.084,0.082-0.125,0.125c-0.042,0.043-0.084,0.082-0.125,0.125
			c-0.042,0.043-0.084,0.082-0.125,0.125c-0.042,0.043-0.084,0.082-0.125,0.125c-0.042,0.043-0.084,0.082-0.125,0.125
			c-0.042,0.043-0.084,0.082-0.125,0.125c-0.042,0.043-0.084,0.082-0.125,0.125c-0.042,0.043-0.084,0.082-0.125,0.125
			c-0.042,0.043-0.084,0.082-0.125,0.125c-0.042,0.043-0.084,0.082-0.125,0.125c-0.042,0.043-0.084,0.082-0.125,0.125
			c-0.042,0.043-0.084,0.082-0.125,0.125c-0.042,0.043-0.084,0.082-0.125,0.125c-0.042,0.043-0.084,0.082-0.125,0.125
			c-0.042,0.043-0.084,0.082-0.125,0.125c-0.042,0.043-0.084,0.082-0.125,0.125c-0.042,0.043-0.084,0.082-0.125,0.125
			c-0.042,0.043-0.084,0.082-0.125,0.125c-0.042,0.043-0.084,0.082-0.125,0.125c-0.042,0.043-0.084,0.082-0.125,0.125
			c-0.042,0.043-0.084,0.082-0.125,0.125c-0.042,0.043-0.084,0.082-0.125,0.125c-0.042,0.043-0.084,0.082-0.125,0.125
			c-0.042,0.043-0.084,0.082-0.125,0.125c-0.042,0.043-0.084,0.082-0.125,0.125c-0.042,0.043-0.084,0.082-0.125,0.125
			c-0.042,0.043-0.084,0.082-0.125,0.125c-0.042,0.043-0.084,0.082-0.125,0.125c-0.042,0.043-0.084,0.082-0.125,0.125
			c-0.042,0.043-0.084,0.082-0.125,0.125c-0.042,0.043-0.084,0.082-0.125,0.125c-0.042,0.043-0.084,0.082-0.125,0.125
			c-0.042,0.043-0.084,0.082-0.125,0.125c-0.042,0.043-0.084,0.082-0.125,0.125c-0.042,0.043-0.084,0.082-0.125,0.125
			c-0.042,0.043-0.084,0.082-0.125,0.125c-0.042,0.043-0.084,0.082-0.125,0.125c-0.042,0.043-0.084,0.082-0.125,0.125
			c-0.042,0.043-0.084,0.082-0.125,0.125c-0.042,0.043-0.084,0.082-0.125,0.125c-0.042,0.043-0.084,0.082-0.125,0.125
			c-0.042,0.043-0.084,0.082-0.125,0.125c-0.042,0.043-0.084,0.082-0.125,0.125c-0.606,0.607-1.122,1.307-1.467,2.115
			c-0.653,1.534-0.619,3.219,0.103,5.006c0.221,0.547,0.743,0.9,1.332,0.9c0.184,0,0.364-0.036,0.536-0.104
			c0.208-0.084,0.378-0.223,0.522-0.385c0.045-0.039,0.085-0.08,0.125-0.125c0.045-0.039,0.085-0.08,0.125-0.125
			c0.045-0.039,0.085-0.08,0.125-0.125c0.045-0.039,0.085-0.08,0.125-0.125c0.045-0.039,0.085-0.08,0.125-0.125
			c0.045-0.039,0.085-0.08,0.125-0.125c0.045-0.039,0.085-0.08,0.125-0.125c0.045-0.039,0.085-0.08,0.125-0.125
			c0.045-0.039,0.085-0.08,0.125-0.125c0.045-0.039,0.085-0.08,0.125-0.125c0.045-0.039,0.085-0.08,0.125-0.125
			c0.045-0.039,0.085-0.08,0.125-0.125c0.045-0.039,0.085-0.08,0.125-0.125c0.045-0.039,0.085-0.08,0.125-0.125
			c0.045-0.039,0.085-0.08,0.125-0.125c0.045-0.039,0.085-0.08,0.125-0.125c0.045-0.039,0.085-0.08,0.125-0.125
			c0.045-0.039,0.085-0.08,0.125-0.125c0.045-0.039,0.085-0.08,0.125-0.125c0.045-0.039,0.085-0.08,0.125-0.125
			c0.045-0.039,0.085-0.08,0.125-0.125c0.045-0.039,0.085-0.08,0.125-0.125c0.045-0.039,0.085-0.08,0.125-0.125
			c0.045-0.039,0.085-0.08,0.125-0.125c0.045-0.039,0.085-0.08,0.125-0.125c0.045-0.039,0.085-0.08,0.125-0.125
			c0.045-0.039,0.085-0.08,0.125-0.125c0.045-0.039,0.085-0.08,0.125-0.125c0.045-0.039,0.085-0.08,0.125-0.125
			c0.045-0.039,0.085-0.08,0.125-0.125c0.045-0.039,0.085-0.08,0.125-0.125c0.045-0.039,0.085-0.08,0.125-0.125
			c0.045-0.039,0.085-0.08,0.125-0.125c0.045-0.039,0.085-0.08,0.125-0.125c0.045-0.039,0.085-0.08,0.125-0.125
			c0.045-0.039,0.085-0.08,0.125-0.125c0.045-0.039,0.085-0.08,0.125-0.125c0.045-0.039,0.085-0.08,0.125-0.125
			c0.045-0.039,0.085-0.08,0.125-0.125c0.045-0.039,0.085-0.08,0.125-0.125c0.045-0.039,0.085-0.08,0.125-0.125
			c0.045-0.039,0.085-0.08,0.125-0.125c0.045-0.039,0.085-0.08,0.125-0.125c0.045-0.039,0.085-0.08,0.125-0.125
			c0.045-0.039,0.085-0.08,0.125-0.125c0.045-0.039,0.085-0.08,0.125-0.125c0.045-0.039,0.085-0.08,0.125-0.125
			c0.045-0.039,0.085-0.08,0.125-0.125c0.045-0.039,0.085-0.08,0.125-0.125c0.045-0.039,0.085-0.08,0.125-0.125
			c0.045-0.039,0.085-0.08,0.125-0.125c0.045-0.039,0.085-0.08,0.125-0.125c0.045-0.039,0.085-0.08,0.125-0.125
			c0.045-0.039,0.085-0.08,0.125-0.125c0.045-0.039,0.085-0.08,0.125-0.125c0.045-0.039,0.085-0.08,0.125-0.125
			c0.045-0.039,0.085-0.08,0.125-0.125c0.045-0.039,0.085-0.08,0.125-0.125c0.045-0.039,0.085-0.08,0.125-0.125
			c0.045-0.039,0.085-0.08,0.125-0.125c0.045-0.039,0.085-0.08,0.125-0.125c0.045-0.039,0.085-0.08,0.125-0.125
			c0.045-0.039,0.085-0.08,0.125-0.125c0.045-0.039,0.085-0.08,0.125-0.125c0.045-0.039,0.085-0.08,0.125-0.125
			c0.045-0.039,0.085-0.08,0.125-0.125c0.045-0.039,0.085-0.08,0.125-0.125c0.045-0.039,0.085-0.08,0.125-0.125
			c0.045-0.039,0.085-0.08,0.125-0.125c0.045-0.039,0.085-0.08,0.125-0.125c0.045-0.039,0.085-0.08,0.125-0.125
			c0.045-0.039,0.085-0.08,0.125-0.125c0.045-0.039,0.085-0.08,0.125-0.125c0.045-0.039,0.085-0.08,0.125-0.125
			c0.045-0.039,0.085-0.08,0.125-0.125c0.045-0.039,0.085-0.08,0.125-0.125c0.045-0.039,0.085-0.08,0.125-0.125
			c0.045-0.039,0.085-0.08,0.125-0.125c0.045-0.039,0.085-0.08,0.125-0.125c0.045-0.039,0.085-0.08,0.125-0.125
			c0.045-0.039,0.085-0.08,0.125-0.125c0.045-0.039,0.085-0.08,0.125-0.125c0.045-0.039,0.085-0.08,0.125-0.125
			c0.045-0.039,0.085-0.08,0.125-0.125c0.033-0.029,0.067-0.053,0.097-0.084c0.497-0.353,0.971-0.748,1.396-1.193
			c0.042-0.041,0.084-0.082,0.125-0.125c0.042-0.041,0.084-0.082,0.125-0.125c0.042-0.041,0.084-0.082,0.125-0.125
			c0.042-0.041,0.084-0.082,0.125-0.125c0.042-0.041,0.084-0.082,0.125-0.125c0.042-0.041,0.084-0.082,0.125-0.125
			c0.042-0.041,0.084-0.082,0.125-0.125c0.042-0.041,0.084-0.082,0.125-0.125c0.042-0.041,0.084-0.082,0.125-0.125
			c0.042-0.041,0.084-0.082,0.125-0.125c0.042-0.041,0.084-0.082,0.125-0.125c0.042-0.041,0.084-0.082,0.125-0.125
			c0.042-0.041,0.084-0.082,0.125-0.125c0.042-0.041,0.084-0.082,0.125-0.125c0.042-0.041,0.084-0.082,0.125-0.125
			c0.042-0.041,0.084-0.082,0.125-0.125c0.042-0.041,0.084-0.082,0.125-0.125c0.042-0.041,0.084-0.082,0.125-0.125
			c0.042-0.041,0.084-0.082,0.125-0.125c0.042-0.041,0.084-0.082,0.125-0.125c0.042-0.041,0.084-0.082,0.125-0.125
			c0.042-0.041,0.084-0.082,0.125-0.125c0.042-0.041,0.084-0.082,0.125-0.125c0.042-0.041,0.084-0.082,0.125-0.125
			c0.042-0.041,0.084-0.082,0.125-0.125c0.042-0.041,0.084-0.082,0.125-0.125c0.042-0.041,0.084-0.082,0.125-0.125
			c0.042-0.041,0.084-0.082,0.125-0.125c0.042-0.041,0.084-0.082,0.125-0.125c0.042-0.041,0.084-0.082,0.125-0.125
			c0.042-0.041,0.084-0.082,0.125-0.125c0.042-0.041,0.084-0.082,0.125-0.125c0.042-0.041,0.084-0.082,0.125-0.125
			c0.042-0.041,0.084-0.082,0.125-0.125c0.042-0.041,0.084-0.082,0.125-0.125c0.042-0.041,0.084-0.082,0.125-0.125
			c0.042-0.041,0.084-0.082,0.125-0.125c0.042-0.041,0.084-0.082,0.125-0.125c0.042-0.041,0.084-0.082,0.125-0.125
			c0.042-0.041,0.084-0.082,0.125-0.125c0.042-0.041,0.084-0.082,0.125-0.125c0.042-0.041,0.084-0.082,0.125-0.125
			c0.042-0.041,0.084-0.082,0.125-0.125c0.042-0.041,0.084-0.082,0.125-0.125c0.042-0.041,0.084-0.082,0.125-0.125
			c0.042-0.041,0.084-0.082,0.125-0.125c0.042-0.041,0.084-0.082,0.125-0.125c0.042-0.041,0.084-0.082,0.125-0.125
			c0.042-0.041,0.084-0.082,0.125-0.125c0.042-0.041,0.084-0.082,0.125-0.125c0.042-0.041,0.084-0.082,0.125-0.125
			c0.042-0.041,0.084-0.082,0.125-0.125c0.042-0.041,0.084-0.082,0.125-0.125c0.042-0.041,0.084-0.082,0.125-0.125
			c0.042-0.041,0.084-0.082,0.125-0.125c0.042-0.041,0.084-0.082,0.125-0.125c0.042-0.041,0.084-0.082,0.125-0.125
			c0.042-0.041,0.084-0.082,0.125-0.125c0.042-0.041,0.084-0.082,0.125-0.125c0.042-0.041,0.084-0.082,0.125-0.125
			c0.042-0.041,0.084-0.082,0.125-0.125c0.042-0.041,0.084-0.082,0.125-0.125c0.003-0.002,0.007-0.006,0.01-0.01l2.271,2.271
			c-0.005,0.006-0.01,0.013-0.016,0.02c-0.042,0.041-0.084,0.082-0.125,0.125c-0.042,0.041-0.084,0.082-0.125,0.125
			c-0.042,0.041-0.084,0.082-0.125,0.125c-0.042,0.041-0.084,0.082-0.125,0.125c-0.042,0.041-0.084,0.082-0.125,0.125
			c-0.042,0.041-0.084,0.082-0.125,0.125c-0.042,0.041-0.084,0.082-0.125,0.125c-0.042,0.041-0.084,0.082-0.125,0.125
			c-0.042,0.041-0.084,0.082-0.125,0.125c-0.042,0.041-0.084,0.082-0.125,0.125c-0.042,0.041-0.084,0.082-0.125,0.125
			c-0.042,0.041-0.084,0.082-0.125,0.125c-0.042,0.041-0.084,0.082-0.125,0.125c-0.042,0.041-0.084,0.082-0.125,0.125
			c-0.042,0.041-0.084,0.082-0.125,0.125c-0.042,0.041-0.084,0.082-0.125,0.125c-0.042,0.041-0.084,0.082-0.125,0.125
			c-0.042,0.041-0.084,0.082-0.125,0.125c-0.042,0.041-0.084,0.082-0.125,0.125c-0.042,0.041-0.084,0.082-0.125,0.125
			c-0.042,0.041-0.084,0.082-0.125,0.125c-0.042,0.041-0.084,0.082-0.125,0.125c-0.042,0.041-0.084,0.082-0.125,0.125
			c-0.042,0.041-0.084,0.082-0.125,0.125c-0.042,0.041-0.084,0.082-0.125,0.125c-0.042,0.041-0.084,0.082-0.125,0.125
			c-0.042,0.041-0.084,0.082-0.125,0.125c-0.042,0.041-0.084,0.082-0.125,0.125c-0.042,0.041-0.084,0.082-0.125,0.125
			c-0.042,0.041-0.084,0.082-0.125,0.125c-0.042,0.041-0.084,0.082-0.125,0.125c-0.042,0.041-0.084,0.082-0.125,0.125
			c-0.042,0.041-0.084,0.082-0.125,0.125c-0.042,0.041-0.084,0.082-0.125,0.125c-0.042,0.041-0.084,0.082-0.125,0.125
			c-0.042,0.041-0.084,0.082-0.125,0.125c-0.042,0.041-0.084,0.082-0.125,0.125c-0.042,0.041-0.084,0.082-0.125,0.125
			c-0.042,0.041-0.084,0.082-0.125,0.125c-0.042,0.041-0.084,0.082-0.125,0.125c-0.042,0.041-0.084,0.082-0.125,0.125
			c-0.042,0.041-0.084,0.082-0.125,0.125c-0.042,0.041-0.084,0.082-0.125,0.125c-0.042,0.041-0.084,0.082-0.125,0.125
			c-0.042,0.041-0.084,0.082-0.125,0.125c-0.042,0.041-0.084,0.082-0.125,0.125c-0.042,0.041-0.084,0.082-0.125,0.125
			c-0.042,0.041-0.084,0.082-0.125,0.125c-0.042,0.041-0.084,0.082-0.125,0.125c-0.042,0.041-0.084,0.082-0.125,0.125
			c-0.042,0.041-0.084,0.082-0.125,0.125c-0.042,0.041-0.084,0.082-0.125,0.125c-0.042,0.041-0.084,0.082-0.125,0.125
			c-0.042,0.041-0.084,0.082-0.125,0.125c-0.042,0.041-0.084,0.082-0.125,0.125c-0.042,0.041-0.084,0.082-0.125,0.125
			c-0.042,0.041-0.084,0.082-0.125,0.125c-0.042,0.041-0.084,0.082-0.125,0.125c-0.042,0.041-0.084,0.082-0.125,0.125
			c-0.042,0.041-0.084,0.082-0.125,0.125c-0.042,0.041-0.084,0.082-0.125,0.125c-0.042,0.041-0.084,0.082-0.125,0.125
			c-0.042,0.041-0.084,0.082-0.125,0.125c-0.042,0.041-0.084,0.082-0.125,0.125c-0.042,0.041-0.084,0.082-0.125,0.125
			c-0.042,0.041-0.084,0.082-0.125,0.125c-0.042,0.041-0.084,0.082-0.125,0.125c-0.042,0.041-0.084,0.082-0.125,0.125
			c-0.042,0.041-0.084,0.082-0.125,0.125c-0.042,0.041-0.084,0.082-0.125,0.125c-0.042,0.041-0.084,0.082-0.125,0.125
			c-0.042,0.041-0.084,0.082-0.125,0.125c-0.042,0.041-0.084,0.082-0.125,0.125c-0.042,0.041-0.084,0.082-0.125,0.125
			c-0.042,0.041-0.084,0.082-0.125,0.125c-0.042,0.041-0.084,0.082-0.125,0.125c-0.042,0.041-0.084,0.082-0.125,0.125
			c-0.042,0.041-0.084,0.082-0.125,0.125c-0.042,0.041-0.084,0.082-0.125,0.125c-0.042,0.041-0.084,0.082-0.125,0.125
			c-0.042,0.041-0.084,0.082-0.125,0.125c-0.042,0.041-0.084,0.082-0.125,0.125c-0.042,0.041-0.084,0.082-0.125,0.125
			c-0.042,0.041-0.084,0.082-0.125,0.125c-0.042,0.041-0.084,0.082-0.125,0.125c-0.042,0.041-0.084,0.082-0.125,0.125
			c-0.042,0.041-0.084,0.082-0.125,0.125c-0.042,0.041-0.084,0.082-0.125,0.125c-0.042,0.041-0.084,0.082-0.125,0.125
			c-0.042,0.041-0.084,0.082-0.125,0.125c-0.042,0.041-0.084,0.082-0.125,0.125c-0.042,0.041-0.084,0.082-0.125,0.125
			c-0.042,0.041-0.084,0.082-0.125,0.125c-0.042,0.041-0.084,0.082-0.125,0.125c-0.042,0.041-0.084,0.082-0.125,0.125
			c-0.042,0.041-0.084,0.082-0.125,0.125c-0.042,0.041-0.084,0.082-0.125,0.125c-0.042,0.041-0.084,0.082-0.125,0.125
			c-0.042,0.041-0.084,0.082-0.125,0.125c-0.042,0.041-0.084,0.082-0.125,0.125c-0.042,0.041-0.084,0.082-0.125,0.125
			c-0.042,0.041-0.084,0.082-0.125,0.125c-0.042,0.041-0.084,0.082-0.125,0.125c-0.042,0.041-0.084,0.082-0.125,0.125
			c-0.042,0.041-0.084,0.082-0.125,0.125c-0.042,0.041-0.084,0.082-0.125,0.125c-0.042,0.041-0.084,0.082-0.125,0.125
			c-0.042,0.041-0.084,0.082-0.125,0.125c-0.042,0.041-0.084,0.082-0.125,0.125c-0.042,0.041-0.084,0.082-0.125,0.125
			c-0.042,0.041-0.084,0.082-0.125,0.125c-0.042,0.041-0.084,0.082-0.125,0.125c-0.042,0.041-0.084,0.082-0.125,0.125
			c-0.042,0.041-0.084,0.082-0.125,0.125c-0.042,0.041-0.084,0.082-0.125,0.125c-0.042,0.041-0.084,0.082-0.125,0.125
			c-0.042,0.041-0.084,0.082-0.125,0.125c-0.042,0.041-0.084,0.082-0.125,0.125c-0.042,0.041-0.084,0.082-0.125,0.125
			c-0.042,0.041-0.084,0.082-0.125,0.125c-0.042,0.041-0.084,0.082-0.125,0.125c-0.042,0.041-0.084,0.082-0.125,0.125
			c-0.042,0.041-0.084,0.082-0.125,0.125c-0.042,0.041-0.084,0.082-0.125,0.125c-0.042,0.041-0.084,0.082-0.125,0.125
			c-0.042,0.041-0.084,0.082-0.125,0.125c-0.042,0.041-0.084,0.082-0.125,0.125c-0.042,0.041-0.084,0.082-0.125,0.125
			c-0.042,0.041-0.084,0.082-0.125,0.125c-0.042,0.041-0.084,0.082-0.125,0.125c-0.042,0.041-0.084,0.082-0.125,0.125
			c-0.605,0.605-1.122,1.305-1.467,2.113c-0.654,1.533-0.619,3.219,0.104,5.006c0.22,0.547,0.742,0.9,1.33,0.9
			c0.185,0,0.365-0.035,0.537-0.104c0.208-0.084,0.377-0.223,0.522-0.386c0.045-0.039,0.085-0.08,0.125-0.125
			c0.045-0.039,0.085-0.08,0.125-0.125c0.045-0.039,0.085-0.08,0.125-0.125c0.045-0.039,0.085-0.08,0.125-0.125
			c0.045-0.039,0.085-0.08,0.125-0.125c0.045-0.039,0.085-0.08,0.125-0.125c0.045-0.039,0.085-0.08,0.125-0.125
			c0.045-0.039,0.085-0.08,0.125-0.125c0.045-0.039,0.085-0.08,0.125-0.125c0.045-0.039,0.085-0.08,0.125-0.125
			c0.045-0.039,0.085-0.08,0.125-0.125c0.045-0.039,0.085-0.08,0.125-0.125c0.045-0.039,0.085-0.08,0.125-0.125
			c0.045-0.039,0.085-0.08,0.125-0.125c0.045-0.039,0.085-0.08,0.125-0.125c0.045-0.039,0.085-0.08,0.125-0.125
			c0.045-0.039,0.085-0.08,0.125-0.125c0.045-0.039,0.085-0.08,0.125-0.125c0.045-0.039,0.085-0.08,0.125-0.125
			c0.045-0.039,0.085-0.08,0.125-0.125c0.045-0.039,0.085-0.08,0.125-0.125c0.045-0.039,0.085-0.08,0.125-0.125
			c0.045-0.039,0.085-0.08,0.125-0.125c0.045-0.039,0.085-0.08,0.125-0.125c0.045-0.039,0.085-0.08,0.125-0.125
			c0.045-0.039,0.085-0.08,0.125-0.125c0.045-0.039,0.085-0.08,0.125-0.125c0.045-0.039,0.085-0.08,0.125-0.125
			c0.045-0.039,0.085-0.08,0.125-0.125c0.045-0.039,0.085-0.08,0.125-0.125c0.045-0.039,0.085-0.08,0.125-0.125
			c0.045-0.039,0.085-0.08,0.125-0.125c0.045-0.039,0.085-0.08,0.125-0.125c0.045-0.039,0.085-0.08,0.125-0.125
			c0.045-0.039,0.085-0.08,0.125-0.125c0.045-0.039,0.085-0.08,0.125-0.125c0.045-0.039,0.085-0.08,0.125-0.125
			c0.045-0.039,0.085-0.08,0.125-0.125c0.045-0.039,0.085-0.08,0.125-0.125c0.045-0.039,0.085-0.08,0.125-0.125
			c0.045-0.039,0.085-0.08,0.125-0.125c0.045-0.039,0.085-0.08,0.125-0.125c0.045-0.039,0.085-0.08,0.125-0.125
			c0.045-0.039,0.085-0.08,0.125-0.125c0.045-0.039,0.085-0.08,0.125-0.125c0.045-0.039,0.085-0.08,0.125-0.125
			c0.045-0.039,0.085-0.08,0.125-0.125c0.045-0.039,0.085-0.08,0.125-0.125c0.045-0.039,0.085-0.08,0.125-0.125
			c0.045-0.039,0.085-0.08,0.125-0.125c0.045-0.039,0.085-0.08,0.125-0.125c0.045-0.039,0.085-0.08,0.125-0.125
			c0.045-0.039,0.085-0.08,0.125-0.125c0.045-0.039,0.085-0.08,0.125-0.125c0.045-0.039,0.085-0.08,0.125-0.125
			c0.045-0.039,0.085-0.08,0.125-0.125c0.045-0.039,0.085-0.08,0.125-0.125c0.045-0.039,0.085-0.08,0.125-0.125
			c0.045-0.039,0.085-0.08,0.125-0.125c0.045-0.039,0.085-0.08,0.125-0.125c0.045-0.039,0.085-0.08,0.125-0.125
			c0.045-0.039,0.085-0.08,0.125-0.125c0.045-0.039,0.085-0.08,0.125-0.125c0.045-0.039,0.085-0.08,0.125-0.125
			c0.045-0.039,0.085-0.08,0.125-0.125c0.045-0.039,0.085-0.08,0.125-0.125c0.045-0.039,0.085-0.08,0.125-0.125
			c0.045-0.039,0.085-0.08,0.125-0.125c0.045-0.039,0.085-0.08,0.125-0.125c0.045-0.039,0.085-0.08,0.125-0.125
			c0.045-0.039,0.085-0.08,0.125-0.125c0.045-0.039,0.085-0.08,0.125-0.125c0.045-0.039,0.085-0.08,0.125-0.125
			c0.045-0.039,0.085-0.08,0.125-0.125c0.045-0.039,0.085-0.08,0.125-0.125c0.045-0.039,0.085-0.08,0.125-0.125
			c0.045-0.039,0.085-0.08,0.125-0.125c0.045-0.039,0.085-0.08,0.125-0.125c0.045-0.039,0.085-0.08,0.125-0.125
			c0.045-0.039,0.085-0.08,0.125-0.125c0.045-0.039,0.085-0.08,0.125-0.125c0.045-0.039,0.085-0.08,0.125-0.125
			c0.045-0.039,0.085-0.08,0.125-0.125c0.045-0.039,0.085-0.08,0.125-0.125c0.032-0.026,0.066-0.051,0.096-0.082
			c0.497-0.353,0.972-0.749,1.396-1.194c0.042-0.041,0.084-0.082,0.125-0.125c0.042-0.041,0.084-0.082,0.125-0.125
			c0.042-0.041,0.084-0.082,0.125-0.125c0.042-0.041,0.084-0.082,0.125-0.125c0.042-0.041,0.084-0.082,0.125-0.125
			c0.042-0.041,0.084-0.082,0.125-0.125c0.042-0.041,0.084-0.082,0.125-0.125c0.042-0.041,0.084-0.082,0.125-0.125
			c0.042-0.041,0.084-0.082,0.125-0.125c0.042-0.041,0.084-0.082,0.125-0.125c0.042-0.041,0.084-0.082,0.125-0.125
			c0.042-0.041,0.084-0.082,0.125-0.125c0.042-0.041,0.084-0.082,0.125-0.125c0.042-0.041,0.084-0.082,0.125-0.125
			c0.042-0.041,0.084-0.082,0.125-0.125c0.042-0.041,0.084-0.082,0.125-0.125c0.042-0.041,0.084-0.082,0.125-0.125
			c0.042-0.041,0.084-0.082,0.125-0.125c0.042-0.041,0.084-0.082,0.125-0.125c0.042-0.041,0.084-0.082,0.125-0.125
			c0.042-0.041,0.084-0.082,0.125-0.125c0.042-0.041,0.084-0.082,0.125-0.125c0.042-0.041,0.084-0.082,0.125-0.125
			c0.042-0.041,0.084-0.082,0.125-0.125c0.042-0.041,0.084-0.082,0.125-0.125c0.042-0.041,0.084-0.082,0.125-0.125
			c0.042-0.041,0.084-0.082,0.125-0.125c0.042-0.041,0.084-0.082,0.125-0.125c0.042-0.041,0.084-0.082,0.125-0.125
			c0.042-0.041,0.084-0.082,0.125-0.125c0.042-0.041,0.084-0.082,0.125-0.125c0.042-0.041,0.084-0.082,0.125-0.125
			c0.042-0.041,0.084-0.082,0.125-0.125c0.042-0.041,0.084-0.082,0.125-0.125c0.042-0.041,0.084-0.082,0.125-0.125
			c0.042-0.041,0.084-0.082,0.125-0.125c0.042-0.041,0.084-0.082,0.125-0.125c0.042-0.041,0.084-0.082,0.125-0.125
			c0.042-0.041,0.084-0.082,0.125-0.125c0.042-0.041,0.084-0.082,0.125-0.125c0.042-0.041,0.084-0.082,0.125-0.125
			c0.042-0.041,0.084-0.082,0.125-0.125c0.042-0.041,0.084-0.082,0.125-0.125c0.042-0.041,0.084-0.082,0.125-0.125
			c0.042-0.041,0.084-0.082,0.125-0.125c0.042-0.041,0.084-0.082,0.125-0.125c0.042-0.041,0.084-0.082,0.125-0.125
			c0.042-0.041,0.084-0.082,0.125-0.125c0.042-0.041,0.084-0.082,0.125-0.125c0.042-0.041,0.084-0.082,0.125-0.125
			c0.042-0.041,0.084-0.082,0.125-0.125c0.042-0.041,0.084-0.082,0.125-0.125c0.042-0.041,0.084-0.082,0.125-0.125
			c0.042-0.041,0.084-0.082,0.125-0.125c0.042-0.041,0.084-0.082,0.125-0.125c0.042-0.041,0.084-0.082,0.125-0.125
			c0.042-0.041,0.084-0.082,0.125-0.125c0.042-0.041,0.084-0.082,0.125-0.125c0.042-0.041,0.084-0.082,0.125-0.125
			c0.042-0.041,0.084-0.082,0.125-0.125c0.042-0.041,0.084-0.082,0.125-0.125c0.042-0.041,0.084-0.082,0.125-0.125
			c0.003-0.002,0.007-0.006,0.011-0.01l21.227,21.228l0.125-0.125l0.125-0.125l0.125-0.125l0.125-0.125l0.125-0.125l0.125-0.125
			l0.125-0.125l0.125-0.125l0.125-0.125l0.125-0.125l0.125-0.125l0.125-0.125l0.125-0.125l0.125-0.125l0.125-0.125l0.125-0.125
			l0.125-0.125l0.125-0.125l0.125-0.125l0.125-0.125l0.125-0.125l0.125-0.125l0.125-0.125l0.125-0.125l0.125-0.125l0.125-0.125
			l0.125-0.125l0.125-0.125l0.125-0.125l0.125-0.125l0.125-0.125l0.125-0.125l0.125-0.125l0.125-0.125l0.125-0.125l0.125-0.125
			l0.125-0.125l0.125-0.125l0.125-0.125l0.125-0.125l0.125-0.125l0.125-0.125l0.125-0.125l0.125-0.125l0.125-0.125l0.125-0.125
			l0.125-0.125l0.125-0.125l0.125-0.125l0.125-0.125l0.125-0.125l0.125-0.125l0.125-0.125l0.125-0.125l0.125-0.125l0.125-0.125
			l0.125-0.125l0.125-0.125l0.125-0.125l0.125-0.125l0.125-0.125l0.125-0.125l0.125-0.125l0.125-0.125l0.125-0.125l0.125-0.125
			l0.125-0.125l0.125-0.125l0.125-0.125l0.125-0.125l0.125-0.125l0.125-0.125l0.125-0.125l0.125-0.125l0.125-0.125l0.125-0.125
			l0.125-0.125l0.125-0.125l0.125-0.125l0.125-0.125l0.125-0.125l0.125-0.125l0.125-0.125l0.125-0.125l0.125-0.125l0.125-0.125
			l0.125-0.125l0.125-0.125l0.125-0.125l0.125-0.125l0.125-0.125l0.125-0.125l0.125-0.125l0.125-0.125l0.125-0.125l0.125-0.125
			l0.125-0.125l0.125-0.125l0.125-0.125l0.125-0.125l0.125-0.125l0.125-0.125l0.125-0.125l0.125-0.125l0.125-0.125l0.125-0.125
			l0.125-0.125l0.125-0.125l0.125-0.125l0.125-0.125l0.125-0.125l0.125-0.125l0.125-0.125l0.125-0.125l0.125-0.125l0.125-0.125
			l0.125-0.125l0.125-0.125l0.125-0.125l0.125-0.125l0.125-0.125l0.125-0.125l0.125-0.125l0.125-0.125l0.125-0.125l0.125-0.125
			l0.125-0.125l0.125-0.125l0.125-0.125l0.125-0.125l0.125-0.125l0.125-0.125l0.125-0.125l0.125-0.125l0.125-0.125l0.125-0.125
			l0.125-0.125l0.125-0.125l0.125-0.125l0.125-0.125l0.125-0.125l0.125-0.125l0.125-0.125l0.125-0.125l0.125-0.125l0.125-0.125
			l0.125-0.125l0.125-0.125l0.125-0.125l0.125-0.125l0.125-0.125l0.125-0.125l0.125-0.125l0.111-0.111
			c1.358-1.354,3.178-1.218,4.539,0.144c1.287,1.287,3.612,3.612,3.612,3.612s0.051-0.051,0.125-0.125
			c0.034-0.034,0.077-0.077,0.125-0.125c0.039-0.038,0.078-0.077,0.125-0.125c0.037-0.036,0.083-0.083,0.125-0.125
			s0.078-0.077,0.125-0.125c0.018-0.018,0.029-0.028,0.047-0.047c0.027-0.026,0.049-0.049,0.078-0.078
			c0.018-0.018,0.029-0.028,0.047-0.047c0.027-0.026,0.049-0.049,0.078-0.078c0.018-0.018,0.029-0.028,0.047-0.047
			c0.027-0.026,0.049-0.049,0.078-0.078c0.018-0.018,0.029-0.028,0.047-0.047c0.027-0.026,0.049-0.049,0.078-0.078
			c0.018-0.018,0.029-0.028,0.047-0.047c0.027-0.026,0.049-0.049,0.078-0.078c0.018-0.018,0.029-0.028,0.047-0.047
			c0.027-0.026,0.049-0.049,0.078-0.078c0.018-0.018,0.029-0.028,0.047-0.047c0.027-0.026,0.049-0.049,0.078-0.078
			c0.018-0.018,0.029-0.028,0.047-0.047c0.027-0.026,0.049-0.049,0.078-0.078c0.018-0.018,0.029-0.028,0.047-0.047
			c0.027-0.026,0.049-0.049,0.078-0.078c0.018-0.018,0.029-0.028,0.047-0.047c0.027-0.026,0.049-0.049,0.078-0.078
			c0.018-0.018,0.029-0.028,0.047-0.047c0.027-0.026,0.049-0.049,0.078-0.078c0.018-0.018,0.029-0.028,0.047-0.047
			c0.027-0.026,0.049-0.049,0.078-0.078c0.018-0.018,0.029-0.028,0.047-0.047c0.027-0.026,0.049-0.049,0.078-0.078
			c0.018-0.018,0.029-0.028,0.047-0.047c0.027-0.026,0.049-0.049,0.078-0.078c0.018-0.018,0.029-0.028,0.047-0.047
			c0.027-0.026,0.049-0.049,0.078-0.078c0.018-0.018,0.029-0.028,0.047-0.047c0.027-0.026,0.049-0.049,0.078-0.078
			c0.018-0.018,0.029-0.028,0.047-0.047c0.027-0.026,0.049-0.049,0.078-0.078c0.018-0.018,0.029-0.028,0.047-0.047
			c0.027-0.026,0.049-0.049,0.078-0.078c0.018-0.018,0.029-0.028,0.047-0.047c0.027-0.026,0.049-0.049,0.078-0.078
			c0.018-0.018,0.029-0.028,0.047-0.047c0.027-0.026,0.049-0.049,0.078-0.078c0.018-0.018,0.029-0.028,0.047-0.047
			c0.027-0.026,0.049-0.049,0.078-0.078c0.018-0.018,0.029-0.028,0.047-0.047c0.027-0.026,0.049-0.049,0.078-0.078
			c0.018-0.018,0.029-0.028,0.047-0.047c0.027-0.026,0.049-0.049,0.078-0.078c0.018-0.018,0.029-0.028,0.047-0.047
			c0.027-0.026,0.049-0.049,0.078-0.078c0.018-0.018,0.029-0.028,0.047-0.047c0.027-0.026,0.049-0.049,0.078-0.078
			c0.018-0.018,0.029-0.028,0.047-0.047c0.027-0.026,0.049-0.049,0.078-0.078c0.018-0.018,0.029-0.028,0.047-0.047
			c0.027-0.026,0.049-0.049,0.078-0.078c0.018-0.018,0.029-0.028,0.047-0.047c0.027-0.026,0.049-0.049,0.078-0.078
			c0.018-0.018,0.029-0.028,0.047-0.047c0.027-0.026,0.049-0.049,0.078-0.078c0.018-0.018,0.029-0.028,0.047-0.047
			c0.027-0.026,0.049-0.049,0.078-0.078c0.018-0.018,0.029-0.028,0.047-0.047c0.027-0.026,0.049-0.049,0.078-0.078
			c0.018-0.018,0.029-0.028,0.047-0.047c0.027-0.026,0.049-0.049,0.078-0.078c0.018-0.018,0.029-0.028,0.047-0.047
			c0.027-0.026,0.049-0.049,0.078-0.078c0.018-0.018,0.029-0.028,0.047-0.047c0.027-0.026,0.049-0.049,0.078-0.078
			c0.018-0.018,0.029-0.028,0.047-0.047c0.027-0.026,0.049-0.049,0.078-0.078c0.018-0.018,0.029-0.028,0.047-0.047
			c0.027-0.026,0.049-0.049,0.078-0.078c0.018-0.018,0.029-0.028,0.047-0.047c0.027-0.026,0.049-0.049,0.078-0.078
			c0.018-0.018,0.029-0.028,0.047-0.047c0.027-0.026,0.049-0.049,0.078-0.078c0.018-0.018,0.029-0.028,0.047-0.047
			c0.027-0.026,0.049-0.049,0.078-0.078c0.018-0.018,0.029-0.028,0.047-0.047c0.027-0.026,0.049-0.049,0.078-0.078
			c0.018-0.018,0.029-0.028,0.047-0.047c0.027-0.026,0.049-0.049,0.078-0.078c0.018-0.018,0.029-0.028,0.047-0.047
			c0.027-0.026,0.049-0.049,0.078-0.078c0.018-0.018,0.029-0.028,0.047-0.047c0.027-0.026,0.049-0.049,0.078-0.078
			c0.018-0.018,0.029-0.028,0.047-0.047c0.027-0.026,0.049-0.049,0.078-0.078c0.018-0.018,0.029-0.028,0.047-0.047
			c0.027-0.026,0.049-0.049,0.078-0.078c0.018-0.018,0.029-0.028,0.047-0.047c0.027-0.026,0.049-0.049,0.078-0.078
			c0.018-0.018,0.029-0.028,0.047-0.047c0.027-0.026,0.049-0.049,0.078-0.078c0.018-0.018,0.029-0.028,0.047-0.047
			c0.027-0.026,0.049-0.049,0.078-0.078c0.018-0.018,0.029-0.028,0.047-0.047c0.027-0.026,0.049-0.049,0.078-0.078
			c0.018-0.018,0.029-0.028,0.047-0.047c0.027-0.026,0.049-0.049,0.078-0.078c0.018-0.018,0.029-0.028,0.047-0.047
			c0.027-0.026,0.049-0.049,0.078-0.078c0.018-0.018,0.029-0.028,0.047-0.047c0.027-0.026,0.049-0.049,0.078-0.078
			c0.018-0.018,0.029-0.028,0.047-0.047c0.027-0.026,0.049-0.049,0.078-0.078c0.018-0.018,0.029-0.028,0.047-0.047
			c0.027-0.026,0.049-0.049,0.078-0.078c0.018-0.018,0.029-0.028,0.047-0.047c0.027-0.026,0.049-0.049,0.078-0.078
			c0.018-0.018,0.029-0.028,0.047-0.047c0.027-0.026,0.049-0.049,0.078-0.078c0.018-0.018,0.029-0.028,0.047-0.047
			c0.027-0.026,0.049-0.049,0.078-0.078c0.018-0.018,0.029-0.028,0.047-0.047c0.027-0.026,0.049-0.049,0.078-0.078
			c0.018-0.018,0.029-0.028,0.047-0.047c0.027-0.026,0.049-0.049,0.078-0.078c0.018-0.018,0.029-0.028,0.047-0.047
			c0.027-0.026,0.049-0.049,0.078-0.078c0.018-0.018,0.029-0.028,0.047-0.047c0.027-0.026,0.049-0.049,0.078-0.078
			c0.018-0.018,0.029-0.028,0.047-0.047c0.027-0.026,0.049-0.049,0.078-0.078c0.018-0.018,0.029-0.028,0.047-0.047
			c0.027-0.026,0.049-0.049,0.078-0.078c0.018-0.018,0.029-0.028,0.047-0.047c0.027-0.026,0.049-0.049,0.078-0.078
			c0.018-0.018,0.029-0.028,0.047-0.047c0.027-0.026,0.049-0.049,0.078-0.078c0.018-0.018,0.029-0.028,0.047-0.047
			c0.027-0.026,0.049-0.049,0.078-0.078c0.018-0.018,0.029-0.028,0.047-0.047c0.027-0.026,0.049-0.049,0.078-0.078
			c0.018-0.018,0.029-0.028,0.047-0.047c0.027-0.026,0.049-0.049,0.078-0.078c0.018-0.018,0.029-0.028,0.047-0.047
			c0.027-0.026,0.049-0.049,0.078-0.078c0.018-0.018,0.029-0.028,0.047-0.047c0.027-0.026,0.049-0.049,0.078-0.078
			c0.018-0.018,0.029-0.028,0.047-0.047c0.027-0.026,0.049-0.049,0.078-0.078c0.018-0.018,0.029-0.028,0.047-0.047
			c0.027-0.026,0.049-0.049,0.078-0.078c0.018-0.018,0.029-0.028,0.047-0.047c0.027-0.026,0.049-0.049,0.078-0.078
			c0.018-0.018,0.029-0.028,0.047-0.047c0.027-0.026,0.049-0.049,0.078-0.078c0.018-0.018,0.029-0.028,0.047-0.047
			c0.027-0.026,0.049-0.049,0.078-0.078c0.018-0.018,0.029-0.028,0.047-0.047c0.027-0.026,0.049-0.049,0.078-0.078
			c0.014-0.014,0.022-0.022,0.037-0.036c0.314,0.434,0.602,0.853,0.865,1.26c-0.023,0.022-0.045,0.048-0.068,0.07
			c-0.042,0.041-0.083,0.084-0.125,0.125s-0.083,0.084-0.125,0.125s-0.083,0.084-0.125,0.125s-0.083,0.084-0.125,0.125
			s-0.083,0.084-0.125,0.125s-0.083,0.084-0.125,0.125s-0.083,0.084-0.125,0.125s-0.083,0.084-0.125,0.125s-0.083,0.084-0.125,0.125
			s-0.083,0.084-0.125,0.125s-0.083,0.084-0.125,0.125s-0.083,0.084-0.125,0.125s-0.083,0.084-0.125,0.125s-0.083,0.084-0.125,0.125
			s-0.083,0.084-0.125,0.125s-0.083,0.084-0.125,0.125s-0.083,0.084-0.125,0.125s-0.083,0.084-0.125,0.125s-0.083,0.084-0.125,0.125
			s-0.083,0.084-0.125,0.125s-0.083,0.084-0.125,0.125s-0.083,0.084-0.125,0.125s-0.083,0.084-0.125,0.125s-0.083,0.084-0.125,0.125
			s-0.083,0.084-0.125,0.125s-0.083,0.084-0.125,0.125s-0.083,0.084-0.125,0.125s-0.083,0.084-0.125,0.125s-0.083,0.084-0.125,0.125
			s-0.083,0.084-0.125,0.125s-0.083,0.084-0.125,0.125s-0.083,0.084-0.125,0.125s-0.083,0.084-0.125,0.125s-0.083,0.084-0.125,0.125
			s-0.083,0.084-0.125,0.125s-0.083,0.084-0.125,0.125s-0.083,0.084-0.125,0.125s-0.083,0.084-0.125,0.125s-0.083,0.084-0.125,0.125
			s-0.083,0.084-0.125,0.125s-0.083,0.084-0.125,0.125s-0.083,0.084-0.125,0.125s-0.083,0.084-0.125,0.125s-0.083,0.084-0.125,0.125
			s-0.083,0.084-0.125,0.125s-0.083,0.084-0.125,0.125s-0.083,0.084-0.125,0.125s-0.083,0.084-0.125,0.125s-0.083,0.084-0.125,0.125
			s-0.083,0.084-0.125,0.125s-0.083,0.084-0.125,0.125s-0.083,0.084-0.125,0.125s-0.083,0.084-0.125,0.125s-0.083,0.084-0.125,0.125
			s-0.083,0.084-0.125,0.125s-0.083,0.084-0.125,0.125c-0.071,0.07-0.142,0.145-0.212,0.215c-0.012,0.014-0.025,0.022-0.038,0.035
			c-0.042,0.041-0.083,0.084-0.125,0.125s-0.083,0.084-0.125,0.125s-0.083,0.084-0.125,0.125s-0.083,0.084-0.125,0.125
			s-0.083,0.084-0.125,0.125s-0.083,0.084-0.125,0.125s-0.083,0.084-0.125,0.125s-0.083,0.084-0.125,0.125s-0.083,0.084-0.125,0.125
			s-0.083,0.084-0.125,0.125s-0.083,0.084-0.125,0.125s-0.083,0.084-0.125,0.125s-0.083,0.084-0.125,0.125s-0.083,0.084-0.125,0.125
			s-0.083,0.084-0.125,0.125s-0.083,0.084-0.125,0.125s-0.083,0.084-0.125,0.125s-0.083,0.084-0.125,0.125s-0.083,0.084-0.125,0.125
			s-0.083,0.084-0.125,0.125s-0.083,0.084-0.125,0.125s-0.083,0.084-0.125,0.125s-0.083,0.084-0.125,0.125s-0.083,0.084-0.125,0.125
			s-0.083,0.084-0.125,0.125s-0.083,0.084-0.125,0.125s-0.083,0.084-0.125,0.125s-0.083,0.084-0.125,0.125s-0.083,0.084-0.125,0.125
			s-0.083,0.084-0.125,0.125s-0.083,0.084-0.125,0.125s-0.083,0.084-0.125,0.125s-0.083,0.084-0.125,0.125s-0.083,0.084-0.125,0.125
			s-0.083,0.084-0.125,0.125s-0.083,0.084-0.125,0.125s-0.083,0.084-0.125,0.125s-0.083,0.084-0.125,0.125s-0.083,0.084-0.125,0.125
			s-0.083,0.084-0.125,0.125s-0.083,0.084-0.125,0.125s-0.083,0.084-0.125,0.125s-0.083,0.084-0.125,0.125s-0.083,0.084-0.125,0.125
			s-0.083,0.084-0.125,0.125s-0.083,0.084-0.125,0.125s-0.083,0.084-0.125,0.125s-0.083,0.084-0.125,0.125s-0.083,0.084-0.125,0.125
			s-0.083,0.084-0.125,0.125s-0.083,0.084-0.125,0.125s-0.083,0.084-0.125,0.125s-0.083,0.084-0.125,0.125s-0.083,0.084-0.125,0.125
			s-0.083,0.084-0.125,0.125s-0.083,0.084-0.125,0.125s-0.083,0.084-0.125,0.125s-0.083,0.084-0.125,0.125s-0.083,0.084-0.125,0.125
			s-0.083,0.084-0.125,0.125s-0.083,0.084-0.125,0.125s-0.083,0.084-0.125,0.125s-0.083,0.084-0.125,0.125s-0.083,0.084-0.125,0.125
			s-0.083,0.084-0.125,0.125s-0.083,0.084-0.125,0.125s-0.083,0.084-0.125,0.125s-0.083,0.084-0.125,0.125s-0.083,0.084-0.125,0.125
			s-0.083,0.084-0.125,0.125s-0.083,0.084-0.125,0.125s-0.083,0.084-0.125,0.125s-0.083,0.084-0.125,0.125s-0.083,0.084-0.125,0.125
			s-0.083,0.084-0.125,0.125s-0.083,0.084-0.125,0.125s-0.083,0.084-0.125,0.125s-0.083,0.084-0.125,0.125s-0.083,0.084-0.125,0.125
			s-0.083,0.084-0.125,0.125s-0.083,0.084-0.125,0.125s-0.083,0.084-0.125,0.125s-0.083,0.084-0.125,0.125s-0.083,0.084-0.125,0.125
			s-0.083,0.084-0.125,0.125s-0.083,0.084-0.125,0.125s-0.083,0.084-0.125,0.125s-0.083,0.084-0.125,0.125s-0.083,0.084-0.125,0.125
			s-0.083,0.084-0.125,0.125s-0.083,0.084-0.125,0.125s-0.083,0.084-0.125,0.125s-0.083,0.084-0.125,0.125s-0.083,0.084-0.125,0.125
			s-0.083,0.084-0.125,0.125s-0.083,0.084-0.125,0.125s-0.083,0.084-0.125,0.125s-0.083,0.084-0.125,0.125s-0.083,0.084-0.125,0.125
			s-0.083,0.084-0.125,0.125s-0.083,0.084-0.125,0.125s-0.083,0.084-0.125,0.125s-0.083,0.084-0.125,0.125s-0.083,0.084-0.125,0.125
			s-0.083,0.084-0.125,0.125s-0.083,0.084-0.125,0.125s-0.083,0.084-0.125,0.125s-0.083,0.084-0.125,0.125s-0.083,0.084-0.125,0.125
			s-0.083,0.084-0.125,0.125s-0.083,0.084-0.125,0.125s-0.083,0.084-0.125,0.125s-0.083,0.084-0.125,0.125s-0.083,0.084-0.125,0.125
			s-0.083,0.084-0.125,0.125s-0.083,0.084-0.125,0.125s-0.083,0.084-0.125,0.125s-0.083,0.084-0.125,0.125s-0.083,0.084-0.125,0.125
			s-0.083,0.084-0.125,0.125s-0.083,0.084-0.125,0.125s-0.083,0.084-0.125,0.125s-0.083,0.084-0.125,0.125s-0.083,0.084-0.125,0.125
			s-0.083,0.084-0.125,0.125s-0.083,0.084-0.125,0.125s-0.083,0.084-0.125,0.125s-0.083,0.084-0.125,0.125s-0.083,0.084-0.125,0.125
			s-0.083,0.084-0.125,0.125s-0.083,0.084-0.125,0.125s-0.083,0.084-0.125,0.125s-0.083,0.084-0.125,0.125s-0.083,0.084-0.125,0.125
			s-0.083,0.084-0.125,0.125s-0.083,0.084-0.125,0.125s-0.083,0.084-0.125,0.125s-0.083,0.084-0.125,0.125s-0.083,0.084-0.125,0.125
			s-0.083,0.084-0.125,0.125c-3.921,3.879-7.123,8.988-8.525,16.055c-0.095,0.479,0.064,0.947,0.385,1.268
			c0.189,0.189,0.436,0.327,0.719,0.383c0.507,0.102,1.001-0.09,1.321-0.451c0.044-0.039,0.085-0.08,0.125-0.125
			c0.044-0.039,0.085-0.08,0.125-0.125c0.044-0.039,0.085-0.08,0.125-0.125c0.044-0.039,0.085-0.08,0.125-0.125
			c0.044-0.039,0.085-0.08,0.125-0.125c0.044-0.039,0.085-0.08,0.125-0.125c0.044-0.039,0.085-0.08,0.125-0.125
			c0.044-0.039,0.085-0.08,0.125-0.125c0.044-0.039,0.085-0.08,0.125-0.125c0.044-0.039,0.085-0.08,0.125-0.125
			c0.044-0.039,0.085-0.08,0.125-0.125c0.044-0.039,0.085-0.08,0.125-0.125c0.044-0.039,0.085-0.08,0.125-0.125
			c0.044-0.039,0.085-0.08,0.125-0.125c0.044-0.039,0.085-0.08,0.125-0.125c0.044-0.039,0.085-0.08,0.125-0.125
			c0.044-0.039,0.085-0.08,0.125-0.125c0.044-0.039,0.085-0.08,0.125-0.125c0.044-0.039,0.085-0.08,0.125-0.125
			c0.044-0.039,0.085-0.08,0.125-0.125c0.044-0.039,0.085-0.08,0.125-0.125c0.044-0.039,0.085-0.08,0.125-0.125
			c0.044-0.039,0.085-0.08,0.125-0.125c0.044-0.039,0.085-0.08,0.125-0.125c0.044-0.039,0.085-0.08,0.125-0.125
			c0.044-0.039,0.085-0.08,0.125-0.125c0.044-0.039,0.085-0.08,0.125-0.125c0.044-0.039,0.085-0.08,0.125-0.125
			c0.044-0.039,0.085-0.08,0.125-0.125c0.044-0.039,0.085-0.08,0.125-0.125c0.044-0.039,0.085-0.08,0.125-0.125
			c0.044-0.039,0.085-0.08,0.125-0.125c0.044-0.039,0.085-0.08,0.125-0.125c0.044-0.039,0.085-0.08,0.125-0.125
			c0.044-0.039,0.085-0.08,0.125-0.125c0.044-0.039,0.085-0.08,0.125-0.125c0.044-0.039,0.085-0.08,0.125-0.125
			c0.044-0.039,0.085-0.08,0.125-0.125c0.044-0.039,0.085-0.08,0.125-0.125c0.044-0.039,0.085-0.08,0.125-0.125
			c0.044-0.039,0.085-0.08,0.125-0.125c0.044-0.039,0.085-0.08,0.125-0.125c0.044-0.039,0.085-0.08,0.125-0.125
			c0.044-0.039,0.085-0.08,0.125-0.125c0.044-0.039,0.085-0.08,0.125-0.125c0.044-0.039,0.085-0.08,0.125-0.125
			c0.044-0.039,0.085-0.08,0.125-0.125c0.044-0.039,0.085-0.08,0.125-0.125c0.044-0.039,0.085-0.08,0.125-0.125
			c0.044-0.039,0.085-0.08,0.125-0.125c0.044-0.039,0.085-0.08,0.125-0.125c0.044-0.039,0.085-0.08,0.125-0.125
			c0.044-0.039,0.085-0.08,0.125-0.125c0.044-0.039,0.085-0.08,0.125-0.125c0.044-0.039,0.085-0.08,0.125-0.125
			c0.044-0.039,0.085-0.08,0.125-0.125c0.044-0.039,0.085-0.08,0.125-0.125c0.044-0.039,0.085-0.08,0.125-0.125
			c0.044-0.039,0.085-0.08,0.125-0.125c0.044-0.039,0.085-0.08,0.125-0.125c0.044-0.039,0.085-0.08,0.125-0.125
			c0.044-0.039,0.085-0.08,0.125-0.125c0.044-0.039,0.085-0.08,0.125-0.125c0.044-0.039,0.085-0.08,0.125-0.125
			c0.044-0.039,0.085-0.08,0.125-0.125c0.044-0.039,0.085-0.08,0.125-0.125c0.044-0.039,0.085-0.08,0.125-0.125
			c0.044-0.039,0.085-0.08,0.125-0.125c0.044-0.039,0.085-0.08,0.125-0.125c0.044-0.039,0.085-0.08,0.125-0.125
			c0.044-0.039,0.085-0.08,0.125-0.125c0.044-0.039,0.085-0.08,0.125-0.125c0.044-0.039,0.085-0.08,0.125-0.125
			c0.044-0.039,0.085-0.08,0.125-0.125c0.044-0.039,0.085-0.08,0.125-0.125c0.044-0.039,0.085-0.08,0.125-0.125
			c0.044-0.039,0.085-0.08,0.125-0.125c0.044-0.039,0.085-0.08,0.125-0.125c0.044-0.039,0.085-0.08,0.125-0.125
			c0.044-0.039,0.085-0.08,0.125-0.125c0.044-0.039,0.085-0.08,0.125-0.125c0.044-0.039,0.085-0.08,0.125-0.125
			c0.044-0.039,0.085-0.08,0.125-0.125c0.044-0.039,0.085-0.08,0.125-0.125c0.044-0.039,0.085-0.08,0.125-0.125
			c0.044-0.039,0.085-0.08,0.125-0.125c0.044-0.039,0.085-0.08,0.125-0.125c0.044-0.039,0.085-0.08,0.125-0.125
			c0.044-0.039,0.085-0.08,0.125-0.125c0.044-0.039,0.085-0.08,0.125-0.125c0.044-0.039,0.085-0.08,0.125-0.125
			c0.044-0.039,0.085-0.08,0.125-0.125c0.044-0.039,0.085-0.08,0.125-0.125c0.044-0.039,0.085-0.08,0.125-0.125
			c0.044-0.039,0.085-0.08,0.125-0.125c0.044-0.039,0.085-0.08,0.125-0.125c0.044-0.039,0.085-0.08,0.125-0.125
			c0.044-0.039,0.085-0.08,0.125-0.125c0.044-0.039,0.085-0.08,0.125-0.125c0.044-0.039,0.085-0.08,0.125-0.125
			c0.044-0.039,0.085-0.08,0.125-0.125c0.044-0.039,0.085-0.08,0.125-0.125c0.044-0.039,0.085-0.08,0.125-0.125
			c0.044-0.039,0.085-0.08,0.125-0.125c0.044-0.039,0.085-0.08,0.125-0.125c0.044-0.039,0.085-0.08,0.125-0.125
			c0.044-0.039,0.085-0.08,0.125-0.125c0.044-0.039,0.085-0.08,0.125-0.125c0.044-0.039,0.085-0.08,0.125-0.125
			c0.044-0.039,0.085-0.08,0.125-0.125c0.044-0.039,0.085-0.08,0.125-0.125c0.044-0.039,0.085-0.08,0.125-0.125
			c0.044-0.039,0.085-0.08,0.125-0.125c0.044-0.039,0.085-0.08,0.125-0.125c0.044-0.039,0.085-0.08,0.125-0.125
			c0.044-0.039,0.085-0.08,0.125-0.125c0.044-0.039,0.085-0.08,0.125-0.125c0.044-0.039,0.085-0.08,0.125-0.125
			c0.044-0.039,0.085-0.08,0.125-0.125c0.044-0.039,0.085-0.08,0.125-0.125c0.044-0.039,0.085-0.08,0.125-0.125
			c0.044-0.039,0.085-0.08,0.125-0.125c0.044-0.039,0.085-0.08,0.125-0.125c0.044-0.039,0.085-0.08,0.125-0.125
			c0.044-0.039,0.085-0.08,0.125-0.125c0.044-0.039,0.085-0.08,0.125-0.125c0.044-0.039,0.085-0.08,0.125-0.125
			c0.044-0.039,0.085-0.08,0.125-0.125c0.044-0.039,0.085-0.08,0.125-0.125c0.044-0.039,0.085-0.08,0.125-0.125
			c0.044-0.039,0.085-0.08,0.125-0.125c0.044-0.039,0.085-0.08,0.125-0.125c0.044-0.039,0.085-0.08,0.125-0.125
			c0.044-0.039,0.085-0.08,0.125-0.125c0.044-0.039,0.085-0.08,0.125-0.125c0.044-0.039,0.085-0.08,0.125-0.125
			c0.044-0.039,0.085-0.08,0.125-0.125c0.044-0.039,0.085-0.08,0.125-0.125c0.044-0.039,0.085-0.08,0.125-0.125
			c0.044-0.039,0.085-0.08,0.125-0.125c0.024-0.021,0.039-0.051,0.061-0.072c0.068-0.053,0.131-0.111,0.189-0.178
			c0.044-0.039,0.085-0.08,0.125-0.125c0.044-0.039,0.085-0.08,0.125-0.125c0.044-0.039,0.085-0.08,0.125-0.125
			c0.044-0.039,0.085-0.08,0.125-0.125c0.044-0.039,0.085-0.08,0.125-0.125c0.044-0.039,0.085-0.08,0.125-0.125
			c0.044-0.039,0.085-0.08,0.125-0.125c0.044-0.039,0.085-0.08,0.125-0.125c0.044-0.039,0.085-0.08,0.125-0.125
			c0.044-0.039,0.085-0.08,0.125-0.125c0.044-0.039,0.085-0.08,0.125-0.125c0.044-0.039,0.085-0.08,0.125-0.125
			c0.044-0.039,0.085-0.08,0.125-0.125c0.044-0.039,0.085-0.08,0.125-0.125c0.044-0.039,0.085-0.08,0.125-0.125
			c0.044-0.039,0.085-0.08,0.125-0.125c0.044-0.039,0.085-0.08,0.125-0.125c0.044-0.039,0.085-0.08,0.125-0.125
			c0.044-0.039,0.085-0.08,0.125-0.125c0.044-0.039,0.085-0.08,0.125-0.125c0.044-0.039,0.085-0.08,0.125-0.125
			c0.044-0.039,0.085-0.08,0.125-0.125c0.044-0.039,0.085-0.08,0.125-0.125c0.044-0.039,0.085-0.08,0.125-0.125
			c0.044-0.039,0.085-0.08,0.125-0.125c0.044-0.039,0.085-0.08,0.125-0.125c0.044-0.039,0.085-0.08,0.125-0.125
			c0.044-0.039,0.085-0.08,0.125-0.125c0.044-0.039,0.085-0.08,0.125-0.125c0.044-0.039,0.085-0.08,0.125-0.125
			c0.044-0.039,0.085-0.08,0.125-0.125c0.044-0.039,0.085-0.08,0.125-0.125c0.044-0.039,0.085-0.08,0.125-0.125
			c0.044-0.039,0.085-0.08,0.125-0.125c0.044-0.039,0.085-0.08,0.125-0.125c0.044-0.039,0.085-0.08,0.125-0.125
			c0.044-0.039,0.085-0.08,0.125-0.125c0.044-0.039,0.085-0.08,0.125-0.125c0.044-0.039,0.085-0.08,0.125-0.125
			c0.044-0.039,0.085-0.08,0.125-0.125c0.044-0.039,0.085-0.08,0.125-0.125c0.044-0.039,0.085-0.08,0.125-0.125
			c0.044-0.039,0.085-0.08,0.125-0.125c0.044-0.039,0.085-0.08,0.125-0.125c0.044-0.039,0.085-0.08,0.125-0.125
			c0.044-0.039,0.085-0.08,0.125-0.125c0.044-0.039,0.085-0.08,0.125-0.125c0.044-0.039,0.085-0.08,0.125-0.125
			c0.044-0.039,0.085-0.08,0.125-0.125c0.044-0.039,0.085-0.08,0.125-0.125c0.044-0.039,0.085-0.08,0.125-0.125
			c0.044-0.039,0.085-0.08,0.125-0.125c0.044-0.039,0.085-0.08,0.125-0.125c0.044-0.039,0.085-0.08,0.125-0.125
			c0.044-0.039,0.085-0.08,0.125-0.125c0.044-0.039,0.085-0.08,0.125-0.125c0.044-0.039,0.085-0.08,0.125-0.125
			c0.044-0.039,0.085-0.08,0.125-0.125c0.044-0.039,0.085-0.08,0.125-0.125c0.044-0.039,0.085-0.08,0.125-0.125
			c0.044-0.039,0.085-0.08,0.125-0.125c0.044-0.039,0.085-0.08,0.125-0.125c0.044-0.039,0.085-0.08,0.125-0.125
			c0.044-0.039,0.085-0.08,0.125-0.125c0.044-0.039,0.085-0.08,0.125-0.125c0.044-0.039,0.085-0.08,0.125-0.125
			c0.044-0.039,0.085-0.08,0.125-0.125c0.044-0.039,0.085-0.08,0.125-0.125c0.044-0.039,0.085-0.08,0.125-0.125
			c0.012-0.011,0.024-0.019,0.036-0.029c2.95-1.461,5.529-2.926,7.246-4.754c0.041-0.041,0.085-0.082,0.125-0.125
			c0.041-0.041,0.085-0.082,0.125-0.125c0.041-0.041,0.085-0.082,0.125-0.125c0.041-0.041,0.085-0.082,0.125-0.125
			c0.041-0.041,0.085-0.082,0.125-0.125c0.041-0.041,0.085-0.082,0.125-0.125c0.041-0.041,0.085-0.082,0.125-0.125
			c0.041-0.041,0.085-0.082,0.125-0.125c0.041-0.041,0.085-0.082,0.125-0.125c0.041-0.041,0.085-0.082,0.125-0.125
			c0.041-0.041,0.085-0.082,0.125-0.125c0.041-0.041,0.085-0.082,0.125-0.125c0.041-0.041,0.085-0.082,0.125-0.125
			c0.041-0.041,0.085-0.082,0.125-0.125c0.041-0.041,0.085-0.082,0.125-0.125c0.041-0.041,0.085-0.082,0.125-0.125
			c0.041-0.041,0.085-0.082,0.125-0.125c0.041-0.041,0.085-0.082,0.125-0.125c0.041-0.041,0.085-0.082,0.125-0.125
			c0.041-0.041,0.085-0.082,0.125-0.125c0.041-0.041,0.085-0.082,0.125-0.125c0.041-0.041,0.085-0.082,0.125-0.125
			c0.041-0.041,0.085-0.082,0.125-0.125c0.041-0.041,0.085-0.082,0.125-0.125c0.041-0.041,0.085-0.082,0.125-0.125
			c0.041-0.041,0.085-0.082,0.125-0.125c0.041-0.041,0.085-0.082,0.125-0.125c0.041-0.041,0.085-0.082,0.125-0.125
			c0.041-0.041,0.085-0.082,0.125-0.125c0.041-0.041,0.085-0.082,0.125-0.125c0.041-0.041,0.085-0.082,0.125-0.125
			c0.041-0.041,0.085-0.082,0.125-0.125c0.041-0.041,0.085-0.082,0.125-0.125c0.041-0.041,0.085-0.082,0.125-0.125
			c0.041-0.041,0.085-0.082,0.125-0.125c0.041-0.041,0.085-0.082,0.125-0.125c0.041-0.041,0.085-0.082,0.125-0.125
			c0.041-0.041,0.085-0.082,0.125-0.125c0.041-0.041,0.085-0.082,0.125-0.125c0.041-0.041,0.085-0.082,0.125-0.125
			c0.041-0.041,0.085-0.082,0.125-0.125c0.041-0.041,0.085-0.082,0.125-0.125c0.041-0.041,0.085-0.082,0.125-0.125
			c0.041-0.041,0.085-0.082,0.125-0.125c0.041-0.041,0.085-0.082,0.125-0.125c0.041-0.041,0.085-0.082,0.125-0.125
			c0.041-0.041,0.085-0.082,0.125-0.125c0.041-0.041,0.085-0.082,0.125-0.125c0.041-0.041,0.085-0.082,0.125-0.125
			c0.041-0.041,0.085-0.082,0.125-0.125c0.041-0.041,0.085-0.082,0.125-0.125c0.041-0.041,0.085-0.082,0.125-0.125
			c0.041-0.041,0.085-0.082,0.125-0.125c0.041-0.041,0.085-0.082,0.125-0.125c0.041-0.041,0.085-0.082,0.125-0.125
			c0.041-0.041,0.085-0.082,0.125-0.125c0.041-0.041,0.085-0.082,0.125-0.125c0.041-0.041,0.085-0.082,0.125-0.125
			c0.041-0.041,0.085-0.082,0.125-0.125c0.041-0.041,0.085-0.082,0.125-0.125c0.041-0.041,0.085-0.082,0.125-0.125
			c0.041-0.041,0.085-0.082,0.125-0.125c0.041-0.041,0.085-0.082,0.125-0.125c0.041-0.041,0.085-0.082,0.125-0.125
			c0.041-0.041,0.085-0.082,0.125-0.125c0.041-0.041,0.085-0.082,0.125-0.125c0.041-0.041,0.085-0.082,0.125-0.125
			c0.041-0.041,0.085-0.082,0.125-0.125c0.041-0.041,0.085-0.082,0.125-0.125c0.041-0.041,0.085-0.082,0.125-0.125
			c0.041-0.041,0.085-0.082,0.125-0.125c0.041-0.041,0.085-0.082,0.125-0.125c0.041-0.041,0.085-0.082,0.125-0.125
			c0.041-0.041,0.085-0.082,0.125-0.125c0.041-0.041,0.085-0.082,0.125-0.125c0.041-0.041,0.085-0.082,0.125-0.125
			c0.041-0.041,0.085-0.082,0.125-0.125c0.041-0.041,0.085-0.082,0.125-0.125c0.041-0.041,0.085-0.082,0.125-0.125
			c0.041-0.041,0.085-0.082,0.125-0.125c0.041-0.041,0.085-0.082,0.125-0.125c0.041-0.041,0.085-0.082,0.125-0.125
			c0.041-0.041,0.085-0.082,0.125-0.125c0.041-0.041,0.085-0.082,0.125-0.125c0.041-0.041,0.085-0.082,0.125-0.125
			c0.041-0.041,0.085-0.082,0.125-0.125c0.041-0.041,0.085-0.082,0.125-0.125c0.041-0.041,0.085-0.082,0.125-0.125
			c0.041-0.041,0.085-0.082,0.125-0.125c0.041-0.041,0.085-0.082,0.125-0.125c0.041-0.041,0.085-0.082,0.125-0.125
			c0.041-0.041,0.085-0.082,0.125-0.125c0.041-0.041,0.085-0.082,0.125-0.125c0.041-0.041,0.085-0.082,0.125-0.125
			c0.041-0.041,0.085-0.082,0.125-0.125c0.041-0.041,0.085-0.082,0.125-0.125c0.041-0.041,0.085-0.082,0.125-0.125
			c0.041-0.041,0.085-0.082,0.125-0.125c0.041-0.041,0.085-0.082,0.125-0.125c0.041-0.041,0.085-0.082,0.125-0.125
			c0.041-0.041,0.085-0.082,0.125-0.125c0.041-0.041,0.085-0.082,0.125-0.125c0.041-0.041,0.085-0.082,0.125-0.125
			c0.041-0.041,0.085-0.082,0.125-0.125c0.041-0.041,0.085-0.082,0.125-0.125c0.041-0.041,0.085-0.082,0.125-0.125
			c0.041-0.041,0.085-0.082,0.125-0.125c0.041-0.041,0.085-0.082,0.125-0.125c0.041-0.041,0.085-0.082,0.125-0.125
			c0.041-0.041,0.085-0.082,0.125-0.125c0.041-0.041,0.085-0.082,0.125-0.125c0.041-0.041,0.085-0.082,0.125-0.125
			c0.041-0.041,0.085-0.082,0.125-0.125c0.041-0.041,0.085-0.082,0.125-0.125c0.041-0.041,0.085-0.082,0.125-0.125
			c0.041-0.041,0.085-0.082,0.125-0.125c0.041-0.041,0.085-0.082,0.125-0.125c0.041-0.041,0.085-0.082,0.125-0.125
			c0.041-0.041,0.085-0.082,0.125-0.125c0.041-0.041,0.085-0.082,0.125-0.125c0.041-0.041,0.085-0.082,0.125-0.125
			c0.041-0.041,0.085-0.082,0.125-0.125c0.041-0.041,0.085-0.082,0.125-0.125c0.041-0.041,0.085-0.082,0.125-0.125
			c0.041-0.041,0.085-0.082,0.125-0.125c0.041-0.041,0.085-0.082,0.125-0.125c0.041-0.041,0.085-0.082,0.125-0.125
			c0.041-0.041,0.085-0.082,0.125-0.125c0.041-0.041,0.085-0.082,0.125-0.125c0.041-0.041,0.085-0.082,0.125-0.125
			c0.041-0.041,0.085-0.082,0.125-0.125c0.041-0.041,0.085-0.082,0.125-0.125c0.041-0.041,0.085-0.082,0.125-0.125
			c0.041-0.041,0.085-0.082,0.125-0.125c0.041-0.041,0.085-0.082,0.125-0.125c0.041-0.041,0.085-0.082,0.125-0.125
			c0.041-0.041,0.085-0.082,0.125-0.125c0.041-0.041,0.085-0.082,0.125-0.125c0.041-0.041,0.085-0.082,0.125-0.125
			c0.041-0.041,0.085-0.082,0.125-0.125c0.006-0.006,0.01-0.012,0.016-0.019c0.077-0.077,0.16-0.151,0.234-0.231
			c0.041-0.041,0.085-0.082,0.125-0.125c0.041-0.041,0.085-0.082,0.125-0.125c0.041-0.041,0.085-0.082,0.125-0.125
			c0.041-0.041,0.085-0.082,0.125-0.125c0.041-0.041,0.085-0.082,0.125-0.125c0.041-0.041,0.085-0.082,0.125-0.125
			c0.041-0.041,0.085-0.082,0.125-0.125c0.041-0.041,0.085-0.082,0.125-0.125c0.041-0.041,0.085-0.082,0.125-0.125
			c0.041-0.041,0.085-0.082,0.125-0.125c0.041-0.041,0.085-0.082,0.125-0.125c0.041-0.041,0.085-0.082,0.125-0.125
			c0.041-0.041,0.085-0.082,0.125-0.125c0.041-0.041,0.085-0.082,0.125-0.125c0.041-0.041,0.085-0.082,0.125-0.125
			c0.041-0.041,0.085-0.082,0.125-0.125c0.041-0.041,0.085-0.082,0.125-0.125c0.041-0.041,0.085-0.082,0.125-0.125
			c0.041-0.041,0.085-0.082,0.125-0.125c0.041-0.041,0.085-0.082,0.125-0.125c0.041-0.041,0.085-0.082,0.125-0.125
			c0.041-0.041,0.085-0.082,0.125-0.125c0.041-0.041,0.085-0.082,0.125-0.125c0.041-0.041,0.085-0.082,0.125-0.125
			c0.041-0.041,0.085-0.082,0.125-0.125c0.041-0.041,0.085-0.082,0.125-0.125c0.041-0.041,0.085-0.082,0.125-0.125
			c0.041-0.041,0.085-0.082,0.125-0.125c0.041-0.041,0.085-0.082,0.125-0.125c0.041-0.041,0.085-0.082,0.125-0.125
			c0.041-0.041,0.085-0.082,0.125-0.125c0.041-0.041,0.085-0.082,0.125-0.125c0.041-0.041,0.085-0.082,0.125-0.125
			c0.041-0.041,0.085-0.082,0.125-0.125c0.041-0.041,0.085-0.082,0.125-0.125c0.041-0.041,0.085-0.082,0.125-0.125
			c0.041-0.041,0.085-0.082,0.125-0.125c0.041-0.041,0.085-0.082,0.125-0.125c0.041-0.041,0.085-0.082,0.125-0.125
			c0.041-0.041,0.085-0.082,0.125-0.125c0.041-0.041,0.085-0.082,0.125-0.125c0.041-0.041,0.085-0.082,0.125-0.125
			c0.041-0.041,0.085-0.082,0.125-0.125c0.041-0.041,0.085-0.082,0.125-0.125c0.041-0.041,0.085-0.082,0.125-0.125
			c0.041-0.041,0.085-0.082,0.125-0.125c0.041-0.041,0.085-0.082,0.125-0.125c0.041-0.041,0.085-0.082,0.125-0.125
			c0.041-0.041,0.085-0.082,0.125-0.125c0.041-0.041,0.085-0.082,0.125-0.125c0.041-0.041,0.085-0.082,0.125-0.125
			c0.041-0.041,0.085-0.082,0.125-0.125c0.041-0.041,0.085-0.082,0.125-0.125c0.041-0.041,0.085-0.082,0.125-0.125
			c0.041-0.041,0.085-0.082,0.125-0.125c0.041-0.041,0.085-0.082,0.125-0.125c0.041-0.041,0.085-0.082,0.125-0.125
			c0.041-0.041,0.085-0.082,0.125-0.125c0.041-0.041,0.085-0.082,0.125-0.125c0.041-0.041,0.085-0.082,0.125-0.125
			c0.041-0.041,0.085-0.082,0.125-0.125c0.041-0.041,0.085-0.082,0.125-0.125c0.041-0.041,0.085-0.082,0.125-0.125
			c0.041-0.041,0.085-0.082,0.125-0.125c0.041-0.041,0.085-0.082,0.125-0.125c0.041-0.041,0.085-0.082,0.125-0.125
			c0.041-0.041,0.085-0.082,0.125-0.125c0.041-0.041,0.085-0.082,0.125-0.125c0.041-0.041,0.085-0.082,0.125-0.125
			c0.041-0.041,0.085-0.082,0.125-0.125c0.041-0.041,0.085-0.082,0.125-0.125c0.041-0.041,0.085-0.082,0.125-0.125
			c0.041-0.041,0.085-0.082,0.125-0.125c0.041-0.041,0.085-0.082,0.125-0.125c0.041-0.041,0.085-0.082,0.125-0.125
			c0.041-0.041,0.085-0.082,0.125-0.125c0.041-0.041,0.085-0.082,0.125-0.125c0.041-0.041,0.085-0.082,0.125-0.125
			c0.041-0.041,0.085-0.082,0.125-0.125c0.041-0.041,0.085-0.082,0.125-0.125c0.041-0.041,0.085-0.082,0.125-0.125
			c0.041-0.041,0.085-0.082,0.125-0.125c0.041-0.041,0.085-0.082,0.125-0.125c0.041-0.041,0.085-0.082,0.125-0.125
			c0.041-0.041,0.085-0.082,0.125-0.125c0.041-0.041,0.085-0.082,0.125-0.125c0.041-0.041,0.085-0.082,0.125-0.125
			c0.041-0.041,0.085-0.082,0.125-0.125c0.041-0.041,0.085-0.082,0.125-0.125c0.041-0.041,0.085-0.082,0.125-0.125
			c0.041-0.041,0.085-0.082,0.125-0.125c0.041-0.041,0.085-0.082,0.125-0.125c0.041-0.041,0.085-0.082,0.125-0.125
			c0.041-0.041,0.085-0.082,0.125-0.125c0.041-0.041,0.085-0.082,0.125-0.125c0.041-0.041,0.085-0.082,0.125-0.125
			c0.041-0.041,0.085-0.082,0.125-0.125c0.041-0.041,0.085-0.082,0.125-0.125c0.041-0.041,0.085-0.082,0.125-0.125
			c0.041-0.041,0.085-0.082,0.125-0.125c0.041-0.041,0.085-0.082,0.125-0.125c0.041-0.041,0.085-0.082,0.125-0.125
			c0.041-0.041,0.085-0.082,0.125-0.125c0.041-0.041,0.085-0.082,0.125-0.125c0.041-0.041,0.085-0.082,0.125-0.125
			c0.041-0.041,0.085-0.082,0.125-0.125c0.041-0.041,0.085-0.082,0.125-0.125c0.041-0.041,0.085-0.082,0.125-0.125
			c0.041-0.041,0.085-0.082,0.125-0.125c0.041-0.041,0.085-0.082,0.125-0.125c0.041-0.041,0.085-0.082,0.125-0.125
			c0.041-0.041,0.085-0.082,0.125-0.125c0.046-0.047,0.095-0.094,0.14-0.141c0.035-0.037,0.076-0.072,0.11-0.109
			c0.041-0.041,0.085-0.082,0.125-0.125c0.041-0.041,0.085-0.082,0.125-0.125c0.041-0.041,0.085-0.082,0.125-0.125
			c0.041-0.041,0.085-0.082,0.125-0.125c0.041-0.041,0.085-0.082,0.125-0.125c0.041-0.041,0.085-0.082,0.125-0.125
			c0.041-0.041,0.085-0.082,0.125-0.125c0.041-0.041,0.085-0.082,0.125-0.125c0.041-0.041,0.085-0.082,0.125-0.125
			c0.041-0.041,0.085-0.082,0.125-0.125c0.041-0.041,0.085-0.082,0.125-0.125c0.041-0.041,0.085-0.082,0.125-0.125
			c0.041-0.041,0.085-0.082,0.125-0.125c0.041-0.041,0.085-0.082,0.125-0.125c0.041-0.041,0.085-0.082,0.125-0.125
			c0.041-0.041,0.085-0.082,0.125-0.125c0.041-0.041,0.085-0.082,0.125-0.125c0.041-0.041,0.085-0.082,0.125-0.125
			c0.041-0.041,0.085-0.082,0.125-0.125c0.041-0.041,0.085-0.082,0.125-0.125c0.041-0.041,0.085-0.082,0.125-0.125
			c0.041-0.041,0.085-0.082,0.125-0.125c0.041-0.041,0.085-0.082,0.125-0.125c0.041-0.041,0.085-0.082,0.125-0.125
			c0.041-0.041,0.085-0.082,0.125-0.125c0.041-0.041,0.085-0.082,0.125-0.125c0.041-0.041,0.085-0.082,0.125-0.125
			c0.041-0.041,0.085-0.082,0.125-0.125c0.041-0.041,0.085-0.082,0.125-0.125c0.041-0.041,0.085-0.082,0.125-0.125
			c0.041-0.041,0.085-0.082,0.125-0.125c0.041-0.041,0.085-0.082,0.125-0.125c0.041-0.041,0.085-0.082,0.125-0.125
			c0.041-0.041,0.085-0.082,0.125-0.125c0.041-0.041,0.085-0.082,0.125-0.125c0.041-0.041,0.085-0.082,0.125-0.125
			c0.041-0.041,0.085-0.082,0.125-0.125c0.041-0.041,0.085-0.082,0.125-0.125c0.041-0.041,0.085-0.082,0.125-0.125
			c0.041-0.041,0.085-0.082,0.125-0.125c0.041-0.041,0.085-0.082,0.125-0.125c0.041-0.041,0.085-0.082,0.125-0.125
			c0.041-0.041,0.085-0.082,0.125-0.125c0.041-0.041,0.085-0.082,0.125-0.125c0.041-0.041,0.085-0.082,0.125-0.125
			c0.041-0.041,0.085-0.082,0.125-0.125c0.041-0.041,0.085-0.082,0.125-0.125c0.041-0.041,0.085-0.082,0.125-0.125
			c0.041-0.041,0.085-0.082,0.125-0.125c0.041-0.041,0.085-0.082,0.125-0.125c0.041-0.041,0.085-0.082,0.125-0.125
			c0.041-0.041,0.085-0.082,0.125-0.125c0.041-0.041,0.085-0.082,0.125-0.125c0.041-0.041,0.085-0.082,0.125-0.125
			c0.041-0.041,0.085-0.082,0.125-0.125c0.041-0.041,0.085-0.082,0.125-0.125c0.041-0.041,0.085-0.082,0.125-0.125
			c0.041-0.041,0.085-0.082,0.125-0.125c0.041-0.041,0.085-0.082,0.125-0.125c0.041-0.041,0.085-0.082,0.125-0.125
			c0.041-0.041,0.085-0.082,0.125-0.125c0.041-0.041,0.085-0.082,0.125-0.125c0.041-0.041,0.085-0.082,0.125-0.125
			c0.041-0.041,0.085-0.082,0.125-0.125c0.041-0.041,0.085-0.082,0.125-0.125c0.041-0.041,0.085-0.082,0.125-0.125
			c0.041-0.041,0.085-0.082,0.125-0.125c0.041-0.041,0.085-0.082,0.125-0.125c0.041-0.041,0.085-0.082,0.125-0.125
			c0.041-0.041,0.085-0.082,0.125-0.125c0.041-0.041,0.085-0.082,0.125-0.125c0.041-0.041,0.085-0.082,0.125-0.125
			c0.041-0.041,0.085-0.082,0.125-0.125c0.041-0.041,0.085-0.082,0.125-0.125c0.041-0.041,0.085-0.082,0.125-0.125
			c0.041-0.041,0.085-0.082,0.125-0.125c0.041-0.041,0.085-0.082,0.125-0.125c0.041-0.041,0.085-0.082,0.125-0.125
			c0.041-0.041,0.085-0.082,0.125-0.125c0.041-0.041,0.085-0.082,0.125-0.125c0.041-0.041,0.085-0.082,0.125-0.125
			c0.041-0.041,0.085-0.082,0.125-0.125c0.041-0.041,0.085-0.082,0.125-0.125c0.041-0.041,0.085-0.082,0.125-0.125
			c0.041-0.041,0.085-0.082,0.125-0.125c0.041-0.041,0.085-0.082,0.125-0.125c0.041-0.041,0.085-0.082,0.125-0.125
			c0.041-0.041,0.085-0.082,0.125-0.125c0.041-0.041,0.085-0.082,0.125-0.125c0.041-0.041,0.085-0.082,0.125-0.125
			c0.041-0.041,0.085-0.082,0.125-0.125c0.041-0.041,0.085-0.082,0.125-0.125c0.041-0.041,0.085-0.082,0.125-0.125
			c0.041-0.041,0.085-0.082,0.125-0.125c0.041-0.041,0.085-0.082,0.125-0.125c0.041-0.041,0.085-0.082,0.125-0.125
			c0.041-0.041,0.085-0.082,0.125-0.125c0.041-0.041,0.085-0.082,0.125-0.125c0.041-0.041,0.085-0.082,0.125-0.125
			c0.041-0.041,0.085-0.082,0.125-0.125c0.041-0.041,0.085-0.082,0.125-0.125c0.041-0.041,0.085-0.082,0.125-0.125
			c0.041-0.041,0.085-0.082,0.125-0.125c0.041-0.041,0.085-0.082,0.125-0.125c0.041-0.041,0.085-0.082,0.125-0.125
			c0.041-0.041,0.085-0.082,0.125-0.125c0.041-0.041,0.085-0.082,0.125-0.125c0.041-0.041,0.085-0.082,0.125-0.125
			c0.041-0.041,0.085-0.082,0.125-0.125c0.041-0.041,0.085-0.082,0.125-0.125c0.041-0.041,0.085-0.082,0.125-0.125
			c0.041-0.041,0.085-0.082,0.125-0.125c0.041-0.041,0.085-0.082,0.125-0.125c0.041-0.041,0.085-0.082,0.125-0.125
			c0.041-0.041,0.085-0.082,0.125-0.125c0.041-0.041,0.085-0.082,0.125-0.125c0.041-0.041,0.085-0.082,0.125-0.125
			c0.041-0.041,0.085-0.082,0.125-0.125c0.041-0.041,0.085-0.082,0.125-0.125c0.041-0.041,0.085-0.082,0.125-0.125
			c0.041-0.041,0.085-0.082,0.125-0.125c0.041-0.041,0.085-0.082,0.125-0.125c0.041-0.041,0.085-0.082,0.125-0.125
			c0.041-0.041,0.085-0.082,0.125-0.125c0.041-0.041,0.085-0.082,0.125-0.125c0.041-0.041,0.085-0.082,0.125-0.125
			c0.041-0.041,0.085-0.082,0.125-0.125c0.041-0.041,0.085-0.082,0.125-0.125c0.041-0.041,0.085-0.082,0.125-0.125
			c0.041-0.041,0.085-0.082,0.125-0.125c0.041-0.041,0.085-0.082,0.125-0.125c0.041-0.041,0.085-0.082,0.125-0.125
			c0.041-0.041,0.085-0.082,0.125-0.125c0.041-0.041,0.085-0.082,0.125-0.125c0.041-0.041,0.085-0.082,0.125-0.125
			c0.041-0.041,0.085-0.082,0.125-0.125c0.041-0.041,0.085-0.082,0.125-0.125c0.041-0.041,0.085-0.082,0.125-0.125
			c0.041-0.041,0.085-0.082,0.125-0.125c0.041-0.041,0.085-0.082,0.125-0.125c0.041-0.041,0.085-0.082,0.125-0.125
			c0.041-0.041,0.085-0.082,0.125-0.125c0.041-0.041,0.085-0.082,0.125-0.125c0.041-0.041,0.085-0.082,0.125-0.125
			c0.041-0.041,0.085-0.082,0.125-0.125c0.041-0.041,0.085-0.082,0.125-0.125c0.041-0.041,0.085-0.082,0.125-0.125
			c0.041-0.041,0.085-0.082,0.125-0.125c0.041-0.041,0.085-0.082,0.125-0.125c0.041-0.041,0.085-0.082,0.125-0.125
			c0.041-0.041,0.085-0.082,0.125-0.125c0.041-0.041,0.085-0.082,0.125-0.125c0.041-0.041,0.085-0.082,0.125-0.125
			c0.041-0.041,0.085-0.082,0.125-0.125c0.041-0.041,0.085-0.082,0.125-0.125c0.041-0.041,0.085-0.082,0.125-0.125
			c0.041-0.041,0.085-0.082,0.125-0.125c0.041-0.041,0.085-0.082,0.125-0.125c0.041-0.041,0.085-0.082,0.125-0.125
			c0.041-0.041,0.085-0.082,0.125-0.125c0.041-0.041,0.085-0.082,0.125-0.125c0.041-0.041,0.085-0.082,0.125-0.125
			c0.041-0.041,0.085-0.082,0.125-0.125c0.041-0.041,0.085-0.082,0.125-0.125c0.041-0.041,0.085-0.082,0.125-0.125
			c0.041-0.041,0.085-0.082,0.125-0.125c0.041-0.041,0.085-0.082,0.125-0.125c0.041-0.041,0.085-0.082,0.125-0.125
			c0.041-0.041,0.085-0.082,0.125-0.125c0.041-0.041,0.085-0.082,0.125-0.125c0.041-0.041,0.085-0.082,0.125-0.125
			c0.041-0.041,0.085-0.082,0.125-0.125c0.041-0.041,0.085-0.082,0.125-0.125c0.041-0.041,0.085-0.082,0.125-0.125
			c0.041-0.041,0.085-0.082,0.125-0.125c0.041-0.041,0.085-0.082,0.125-0.125c0.041-0.041,0.085-0.082,0.125-0.125
			c0.041-0.041,0.085-0.082,0.125-0.125c0.041-0.041,0.085-0.082,0.125-0.125c0.041-0.041,0.085-0.082,0.125-0.125
			c0.041-0.041,0.085-0.082,0.125-0.125c0.041-0.041,0.085-0.082,0.125-0.125c0.041-0.041,0.085-0.082,0.125-0.125
			c0.041-0.041,0.085-0.082,0.125-0.125c0.041-0.041,0.085-0.082,0.125-0.125c0.041-0.041,0.085-0.082,0.125-0.125
			c0.041-0.041,0.085-0.082,0.125-0.125c0.041-0.041,0.085-0.082,0.125-0.125c0.041-0.041,0.085-0.082,0.125-0.125
			c0.041-0.041,0.085-0.082,0.125-0.125c0.041-0.041,0.085-0.082,0.125-0.125c0.041-0.041,0.085-0.082,0.125-0.125
			c0.041-0.041,0.085-0.082,0.125-0.125c0.041-0.041,0.085-0.082,0.125-0.125c0.041-0.041,0.085-0.082,0.125-0.125
			c0.041-0.041,0.085-0.082,0.125-0.125c0.041-0.041,0.085-0.082,0.125-0.125c0.041-0.041,0.085-0.082,0.125-0.125
			c0.041-0.041,0.085-0.082,0.125-0.125c0.041-0.041,0.085-0.082,0.125-0.125c0.041-0.041,0.085-0.082,0.125-0.125
			c0.041-0.041,0.085-0.082,0.125-0.125c0.041-0.041,0.085-0.082,0.125-0.125c0.041-0.041,0.085-0.082,0.125-0.125
			c0.041-0.041,0.085-0.082,0.125-0.125c0.041-0.041,0.085-0.082,0.125-0.125c0.041-0.041,0.085-0.082,0.125-0.125
			c0.041-0.041,0.085-0.082,0.125-0.125c0.041-0.041,0.085-0.082,0.125-0.125c0.041-0.041,0.085-0.082,0.125-0.125
			c0.041-0.041,0.085-0.082,0.125-0.125c0.041-0.041,0.085-0.082,0.125-0.125c0.041-0.041,0.085-0.082,0.125-0.125
			c0.041-0.041,0.085-0.082,0.125-0.125c0.041-0.041,0.085-0.082,0.125-0.125c0.041-0.041,0.085-0.082,0.125-0.125
			c0.041-0.041,0.085-0.082,0.125-0.125c0.041-0.041,0.085-0.082,0.125-0.125c0.041-0.041,0.085-0.082,0.125-0.125
			c0.041-0.041,0.085-0.082,0.125-0.125c0.041-0.041,0.085-0.082,0.125-0.125c0.041-0.041,0.085-0.082,0.125-0.125
			c0.041-0.041,0.085-0.082,0.125-0.125c0.041-0.041,0.085-0.082,0.125-0.125c0.041-0.041,0.085-0.082,0.125-0.125
			c0.041-0.041,0.085-0.082,0.125-0.125c0.041-0.041,0.085-0.082,0.125-0.125c0.041-0.041,0.085-0.082,0.125-0.125
			c0.041-0.041,0.085-0.082,0.125-0.125c0.041-0.041,0.085-0.082,0.125-0.125c0.041-0.041,0.085-0.082,0.125-0.125
			c0.041-0.041,0.085-0.082,0.125-0.125c0.041-0.041,0.085-0.082,0.125-0.125c0.041-0.041,0.085-0.082,0.125-0.125
			c0.041-0.041,0.085-0.082,0.125-0.125c0.041-0.041,0.085-0.082,0.125-0.125c0.041-0.041,0.085-0.082,0.125-0.125
			c0.041-0.041,0.085-0.082,0.125-0.125c0.041-0.041,0.085-0.082,0.125-0.125c0.041-0.041,0.085-0.082,0.125-0.125
			c0.041-0.041,0.085-0.082,0.125-0.125c0.041-0.041,0.085-0.082,0.125-0.125c0.041-0.041,0.085-0.082,0.125-0.125
			c0.041-0.041,0.085-0.082,0.125-0.125c0.041-0.041,0.085-0.082,0.125-0.125c0.041-0.041,0.085-0.082,0.125-0.125
			c0.041-0.041,0.085-0.082,0.125-0.125c0.041-0.041,0.085-0.082,0.125-0.125c0.041-0.041,0.085-0.082,0.125-0.125
			c0.041-0.041,0.085-0.082,0.125-0.125c0.041-0.041,0.085-0.082,0.125-0.125c0.041-0.041,0.085-0.082,0.125-0.125
			c0.041-0.041,0.085-0.082,0.125-0.125c0.041-0.041,0.085-0.082,0.125-0.125c0.041-0.041,0.085-0.082,0.125-0.125
			c0.041-0.041,0.085-0.082,0.125-0.125c0.041-0.041,0.085-0.082,0.125-0.125c0.041-0.041,0.085-0.082,0.125-0.125
			c0.041-0.041,0.085-0.082,0.125-0.125c0.041-0.041,0.085-0.082,0.125-0.125c0.041-0.041,0.085-0.082,0.125-0.125
			c0.041-0.041,0.085-0.082,0.125-0.125c0.041-0.041,0.085-0.082,0.125-0.125c0.041-0.041,0.085-0.082,0.125-0.125
			c0.041-0.041,0.085-0.082,0.125-0.125c0.041-0.041,0.085-0.082,0.125-0.125c0.041-0.041,0.085-0.082,0.125-0.125
			c0.041-0.041,0.085-0.082,0.125-0.125c0.041-0.041,0.085-0.082,0.125-0.125c0.041-0.041,0.085-0.082,0.125-0.125
			c0.041-0.041,0.085-0.082,0.125-0.125c0.041-0.041,0.085-0.082,0.125-0.125c0.041-0.041,0.085-0.082,0.125-0.125
			c0.041-0.041,0.085-0.082,0.125-0.125c0.041-0.041,0.085-0.082,0.125-0.125c0.041-0.041,0.085-0.082,0.125-0.125
			c0.041-0.041,0.085-0.082,0.125-0.125c0.041-0.041,0.085-0.082,0.125-0.125c0.041-0.041,0.085-0.082,0.125-0.125
			c0.041-0.041,0.085-0.082,0.125-0.125c0.041-0.041,0.085-0.082,0.125-0.125c0.041-0.041,0.085-0.082,0.125-0.125
			c0.041-0.041,0.085-0.082,0.125-0.125c0.041-0.041,0.085-0.082,0.125-0.125c0.041-0.041,0.085-0.082,0.125-0.125
			c0.041-0.041,0.085-0.082,0.125-0.125c0.041-0.041,0.085-0.082,0.125-0.125c0.041-0.041,0.085-0.082,0.125-0.125
			c0.041-0.041,0.085-0.082,0.125-0.125c0.041-0.041,0.085-0.082,0.125-0.125c0.041-0.041,0.085-0.082,0.125-0.125
			c0.041-0.041,0.085-0.082,0.125-0.125c0.041-0.041,0.085-0.082,0.125-0.125c0.041-0.041,0.085-0.082,0.125-0.125
			c0.041-0.041,0.085-0.082,0.125-0.125c0.041-0.041,0.085-0.082,0.125-0.125c0.041-0.041,0.085-0.082,0.125-0.125
			c0.041-0.041,0.085-0.082,0.125-0.125c0.041-0.041,0.085-0.082,0.125-0.125c0.041-0.041,0.085-0.082,0.125-0.125
			c0.041-0.041,0.085-0.082,0.125-0.125c0.041-0.041,0.085-0.082,0.125-0.125c0.041-0.041,0.085-0.082,0.125-0.125
			c0.041-0.041,0.085-0.082,0.125-0.125c0.041-0.041,0.085-0.082,0.125-0.125c0.041-0.041,0.085-0.082,0.125-0.125
			c0.041-0.041,0.085-0.082,0.125-0.125c0.041-0.041,0.085-0.082,0.125-0.125c0.041-0.041,0.085-0.082,0.125-0.125
			c0.041-0.041,0.085-0.082,0.125-0.125c0.041-0.041,0.085-0.082,0.125-0.125c0.041-0.041,0.085-0.082,0.125-0.125
			c0.041-0.041,0.085-0.082,0.125-0.125c0.041-0.041,0.085-0.082,0.125-0.125c0.041-0.041,0.085-0.082,0.125-0.125
			c0.041-0.041,0.085-0.082,0.125-0.125c0.041-0.041,0.085-0.082,0.125-0.125c0.041-0.041,0.085-0.082,0.125-0.125
			c0.041-0.041,0.085-0.082,0.125-0.125c0.041-0.041,0.085-0.082,0.125-0.125c0.041-0.041,0.085-0.082,0.125-0.125
			c0.041-0.041,0.085-0.082,0.125-0.125c0.041-0.041,0.085-0.082,0.125-0.125c0.04-0.041,0.084-0.082,0.124-0.123
			c0.041-0.043,0.086-0.084,0.126-0.127c0.041-0.041,0.085-0.082,0.125-0.125c0.041-0.041,0.085-0.082,0.125-0.125
			c0.041-0.041,0.085-0.082,0.125-0.125c0.041-0.041,0.085-0.082,0.125-0.125c0.041-0.041,0.085-0.082,0.125-0.125
			c0.041-0.041,0.085-0.082,0.125-0.125c0.041-0.041,0.085-0.082,0.125-0.125c0.041-0.041,0.085-0.082,0.125-0.125
			c0.041-0.041,0.085-0.082,0.125-0.125c0.041-0.041,0.085-0.082,0.125-0.125c0.041-0.041,0.085-0.082,0.125-0.125
			c0.041-0.041,0.085-0.082,0.125-0.125c0.041-0.041,0.085-0.082,0.125-0.125c0.041-0.041,0.085-0.082,0.125-0.125
			c0.041-0.041,0.085-0.082,0.125-0.125c0.041-0.041,0.085-0.082,0.125-0.125c0.041-0.041,0.085-0.082,0.125-0.125
			c0.041-0.041,0.085-0.082,0.125-0.125c1.077-1.109,1.841-2.351,2.167-3.81C117.186,59.473,115.912,55.964,112.512,51.532z"/>
	</g>
</g>
<g>
	
		<rect x="14.925" y="49.857" transform="matrix(0.7071 0.7071 -0.7071 0.7071 51.9679 -20.1359)" fill="#FFFFFF" width="70.73" height="5.613"/>
	<path fill="#FFFFFF" d="M112.512,51.532c0.029-0.662-0.301-1.383-1.145-2.227c-2.889-2.889-22.139-18.417-29.596-24.385
		c-1.578-1.264-3.861-2.842-8.101-2.89c-4.356-0.049-37.234,0-37.234,0s-3.123,1.748,0.4,5.272
		C40.39,30.854,81.25,71.714,81.25,71.714s8.876-8.876,11.292-11.292c1.358-1.359,3.183-1.225,4.545,0.138
		c1.287,1.287,3.612,3.613,3.612,3.613s7.059-7.059,10.16-10.162c2.398,3.302,3.352,5.891,2.906,7.876
		c-0.715,3.181-5.281,5.358-10.565,7.876c-9.128,4.348-21.626,10.303-24.818,26.383c-0.095,0.478,0.063,0.945,0.386,1.267
		c0.188,0.188,0.436,0.327,0.719,0.383c0.76,0.151,1.498-0.343,1.648-1.103c2.918-14.698,14.204-20.075,23.272-24.396
		c5.946-2.834,11.085-5.281,12.098-9.796C117.186,59.473,115.912,55.964,112.512,51.532z M102.87,51.418
		c-1.095,1.095-5.397,5.399-5.397,5.399l-8.732-7.675c0,0,1.058-1.057,1.773-1.774c2.238-2.237-5.673-10.204-8.438-7.438
		c-0.501,0.5-1.766,1.765-1.766,1.765L62.851,26.972l12.338,0.068c0,0,2.152,0.047,3.965,1.407
		c1.813,1.36,17.646,14.854,23.592,19.711C103.586,48.846,103.965,50.323,102.87,51.418z"/>
	<path fill="#FFFFFF" d="M24.629,56.524l0.32-0.129c0.102-0.041,0.234-0.095,0.351-0.141c2.006-0.804,5.739-2.302,7.048-5.375
		c0.654-1.533,0.619-3.217-0.103-5.006c-0.221-0.546-0.743-0.899-1.333-0.899c-0.185,0-0.365,0.035-0.537,0.104
		c-0.356,0.144-0.635,0.417-0.785,0.77c-0.151,0.354-0.155,0.745-0.012,1.101c0.432,1.068,0.471,1.986,0.121,2.806
		c-0.843,1.977-3.861,3.188-5.484,3.838l-0.643,0.259c-2.007,0.805-5.741,2.303-7.051,5.376c-0.654,1.533-0.619,3.218,0.103,5.006
		c0.22,0.547,0.743,0.9,1.331,0.9c0.185,0,0.365-0.034,0.537-0.104c0.355-0.143,0.635-0.416,0.784-0.771
		c0.149-0.353,0.152-0.743,0.009-1.098c-0.433-1.072-0.475-1.989-0.127-2.804C20,58.381,23.011,57.174,24.629,56.524z"/>
	<path fill="#FFFFFF" d="M31.287,63.184l0.671-0.27c2.007-0.805,5.74-2.303,7.05-5.375c0.652-1.533,0.618-3.217-0.104-5.006
		c-0.221-0.546-0.744-0.899-1.333-0.899c-0.185,0-0.365,0.035-0.538,0.104c-0.734,0.297-1.092,1.136-0.796,1.871
		c0.431,1.068,0.471,1.986,0.121,2.806c-0.843,1.977-3.862,3.188-5.483,3.839l-0.644,0.258c-2.007,0.805-5.741,2.303-7.051,5.376
		c-0.653,1.533-0.619,3.217,0.103,5.006c0.221,0.547,0.743,0.899,1.332,0.899c0.184,0,0.364-0.036,0.536-0.104
		c0.356-0.144,0.635-0.416,0.784-0.771c0.149-0.353,0.152-0.743,0.009-1.099c-0.433-1.072-0.474-1.989-0.127-2.803
		C26.66,65.04,29.67,63.833,31.287,63.184z"/>
	<path fill="#FFFFFF" d="M44.23,58.293c-0.185,0-0.365,0.036-0.537,0.105c-0.736,0.297-1.093,1.136-0.797,1.871
		c0.432,1.067,0.471,1.985,0.121,2.806c-0.842,1.977-3.861,3.188-5.483,3.838l-0.644,0.26c-2.006,0.806-5.741,2.302-7.051,5.375
		c-0.654,1.533-0.619,3.22,0.104,5.007c0.22,0.547,0.742,0.899,1.33,0.899c0.185,0,0.365-0.035,0.537-0.104
		c0.355-0.144,0.635-0.416,0.784-0.771c0.149-0.353,0.152-0.742,0.009-1.099c-0.433-1.072-0.474-1.989-0.127-2.805
		c0.842-1.976,3.853-3.184,5.489-3.84l0.652-0.263c2.005-0.806,5.739-2.302,7.049-5.375c0.653-1.533,0.618-3.217-0.104-5.006
		C45.344,58.646,44.82,58.293,44.23,58.293z"/>
</g>
</svg>
