<?xml version="1.0" encoding="utf-8"?>
<!-- Generator: Adobe Illustrator 16.0.3, SVG Export Plug-In . SVG Version: 6.00 Build 0)  -->
<!DOCTYPE svg PUBLIC "-//W3C//DTD SVG 1.1//EN" "http://www.w3.org/Graphics/SVG/1.1/DTD/svg11.dtd">
<svg version="1.1" id="Layer_1" xmlns="http://www.w3.org/2000/svg" xmlns:xlink="http://www.w3.org/1999/xlink" x="0px" y="0px"
	 width="128px" height="128px" viewBox="0 0 128 128" enable-background="new 0 0 128 128" xml:space="preserve">
<path fill="#444953" d="M127.5,25c0-13.807-11.193-24.5-25.002-24.5H24.502C10.694,0.5-0.5,11.193-0.5,25v78
	c0,13.807,11.194,25.5,25.002,25.5h77.996c13.809,0,25.002-11.693,25.002-25.5V25z"/>
<g>
	<defs>
		<path id="SVGID_1_" d="M127.5,25c0-13.807-11.193-24.5-25.002-24.5H24.502C10.694,0.5-0.5,11.193-0.5,25v78
			c0,13.807,11.194,25.5,25.002,25.5h77.996c13.809,0,25.002-11.693,25.002-25.5V25z"/>
	</defs>
	<clipPath id="SVGID_2_">
		<use xlink:href="#SVGID_1_"  overflow="visible"/>
	</clipPath>
	<path clip-path="url(#SVGID_2_)" fill="#353A42" d="M116.507,70.678c-3.268-5.015-15.253-8.824-20.754-9.36
		c0,0.041,0,0.097,0,0.141c-0.04-0.004-0.086-0.012-0.125-0.016c0,0.041,0,0.097,0,0.141c-0.04-0.004-0.086-0.012-0.125-0.016
		c0,0.041,0,0.097,0,0.141c-0.04-0.004-0.086-0.012-0.125-0.016c0,0.041,0,0.097,0,0.141c-0.04-0.004-0.086-0.012-0.125-0.016
		c0,0.041,0,0.097,0,0.141c-0.04-0.004-0.086-0.012-0.125-0.016c0,0.041,0,0.097,0,0.141c-0.04-0.004-0.086-0.012-0.125-0.016
		c0,0.041,0,0.097,0,0.141c-0.04-0.004-0.086-0.012-0.125-0.016c0,0.041,0,0.097,0,0.141c-0.04-0.004-0.086-0.012-0.125-0.016
		c0,0.041,0,0.097,0,0.141c-0.04-0.004-0.086-0.012-0.125-0.016c0,0.041,0,0.097,0,0.141c-0.04-0.004-0.086-0.012-0.125-0.016
		c0,0.041,0,0.097,0,0.141c-0.04-0.004-0.086-0.012-0.125-0.016c0,0.041,0,0.097,0,0.141c-0.04-0.004-0.086-0.012-0.125-0.016
		c0,0.041,0,0.097,0,0.141c-0.04-0.004-0.086-0.012-0.125-0.016c0,0.041,0,0.097,0,0.141c-0.04-0.004-0.086-0.012-0.125-0.016
		c0,0.041,0,0.097,0,0.141c-0.04-0.004-0.086-0.012-0.125-0.016c0,0.041,0,0.097,0,0.141c-0.04-0.004-0.086-0.012-0.125-0.016
		c0,0.041,0,0.097,0,0.141c-0.04-0.004-0.086-0.012-0.125-0.016c0,0.041,0,0.097,0,0.141c-0.04-0.004-0.086-0.012-0.125-0.016
		c0,0.041,0,0.097,0,0.141c-0.04-0.004-0.086-0.012-0.125-0.016c0,0.041,0,0.097,0,0.141c-0.04-0.004-0.086-0.012-0.125-0.016
		c0,0.041,0,0.097,0,0.141c-0.04-0.004-0.086-0.012-0.125-0.016c0,0.041,0,0.097,0,0.141c-0.04-0.004-0.086-0.012-0.125-0.016
		c0,0.041,0,0.097,0,0.141c-0.04-0.004-0.086-0.012-0.125-0.016c0,0.041,0,0.097,0,0.141c-0.04-0.004-0.086-0.012-0.125-0.016
		c0,0.041,0,0.097,0,0.141c-0.04-0.004-0.086-0.012-0.125-0.016c0,0.041,0,0.097,0,0.141c-0.04-0.004-0.086-0.012-0.125-0.016
		c0,0.041,0,0.097,0,0.141c-0.04-0.004-0.086-0.012-0.125-0.016c0,0.041,0,0.097,0,0.141c-0.04-0.004-0.086-0.012-0.125-0.016
		c0,0.041,0,0.097,0,0.141c-0.04-0.004-0.086-0.012-0.125-0.016c0,0.041,0,0.097,0,0.141c-0.04-0.004-0.086-0.012-0.125-0.016
		c0,0.041,0,0.097,0,0.141c-0.04-0.004-0.086-0.012-0.125-0.016c0,0.041,0,0.097,0,0.141c-0.04-0.004-0.086-0.012-0.125-0.016
		c0,0.041,0,0.097,0,0.141c-0.04-0.004-0.086-0.012-0.125-0.016c0,0.041,0,0.097,0,0.141c-0.04-0.004-0.086-0.012-0.125-0.016
		c0,0.041,0,0.097,0,0.141c-0.04-0.004-0.086-0.012-0.125-0.016c0,0.041,0,0.097,0,0.141c-0.04-0.004-0.086-0.012-0.125-0.016
		c0,0.041,0,0.097,0,0.141c-0.04-0.004-0.086-0.012-0.125-0.016c0,0.041,0,0.097,0,0.141c-0.04-0.004-0.086-0.012-0.125-0.016
		c0,0.041,0,0.097,0,0.141c-0.04-0.004-0.086-0.012-0.125-0.016c0,0.041,0,0.097,0,0.141c-0.04-0.004-0.086-0.012-0.125-0.016
		c0,0.041,0,0.097,0,0.141c-0.04-0.004-0.086-0.012-0.125-0.016c0,0.041,0,0.097,0,0.141c-0.04-0.004-0.086-0.012-0.125-0.016
		c0,0.041,0,0.097,0,0.141c-0.04-0.004-0.086-0.012-0.125-0.016c0,0.041,0,0.097,0,0.141c-0.04-0.004-0.086-0.012-0.125-0.016
		c0,0.041,0,0.097,0,0.141c-0.04-0.004-0.086-0.012-0.125-0.016c0,0.041,0,0.097,0,0.141c-0.04-0.004-0.086-0.012-0.125-0.016
		c0,0.041,0,0.097,0,0.141c-0.04-0.004-0.086-0.012-0.125-0.016c0,0.041,0,0.097,0,0.141c-0.04-0.004-0.086-0.012-0.125-0.016
		c0,0.041,0,0.097,0,0.141c-0.04-0.004-0.087-0.012-0.126-0.016c0,0.041,0,0.097,0,0.141c-0.04-0.004-0.086-0.012-0.125-0.016
		c0,0.041,0,0.097,0,0.141c-0.04-0.004-0.086-0.012-0.125-0.016c0,0.041,0,0.097,0,0.141c-0.04-0.004-0.086-0.012-0.125-0.016
		c0,0.041,0,0.097,0,0.141c-0.04-0.004-0.086-0.012-0.125-0.016c0,0.041,0,0.097,0,0.141c-0.04-0.004-0.086-0.012-0.125-0.016
		c0,0.041,0,0.097,0,0.141c-0.04-0.004-0.086-0.012-0.125-0.016c0,0.035,0,0.084,0,0.122c-0.01,0.005-0.02,0.01-0.028,0.015
		c-0.03-0.003-0.066-0.009-0.097-0.012c0,0.019,0,0.045,0,0.064c-0.037,0.021-0.078,0.039-0.114,0.062
		c-0.003,0-0.008-0.001-0.011-0.001c0,0.002,0,0.005,0,0.007c-0.227,0.146-0.432,0.318-0.616,0.513
		c-0.043,0.04-0.084,0.082-0.125,0.125c-0.043,0.04-0.084,0.082-0.125,0.125c-0.043,0.04-0.084,0.082-0.125,0.125
		c-0.043,0.04-0.084,0.082-0.125,0.125c-0.043,0.04-0.084,0.082-0.125,0.125c-0.043,0.04-0.084,0.082-0.125,0.125
		c-0.043,0.04-0.084,0.082-0.125,0.125c-0.043,0.04-0.084,0.081-0.125,0.124c-0.043,0.041-0.084,0.082-0.125,0.125
		c-0.043,0.041-0.085,0.082-0.125,0.125c-0.043,0.041-0.085,0.082-0.125,0.125c-0.043,0.041-0.085,0.082-0.125,0.125
		c-0.043,0.041-0.085,0.082-0.125,0.125c-0.043,0.041-0.085,0.082-0.125,0.125c-0.043,0.041-0.085,0.082-0.125,0.125
		c-0.043,0.041-0.085,0.082-0.125,0.125c-0.043,0.041-0.085,0.082-0.125,0.125c-0.043,0.041-0.085,0.082-0.125,0.125
		c-0.043,0.041-0.085,0.082-0.125,0.125c-0.043,0.041-0.085,0.082-0.125,0.125c-0.043,0.041-0.085,0.082-0.125,0.125
		c-0.043,0.041-0.085,0.082-0.125,0.125c-0.043,0.041-0.085,0.082-0.125,0.125c-0.043,0.041-0.085,0.082-0.125,0.125
		c-0.043,0.041-0.085,0.082-0.125,0.125c-0.043,0.041-0.085,0.082-0.125,0.125c-0.043,0.041-0.085,0.082-0.125,0.125
		c-0.043,0.041-0.085,0.082-0.125,0.125c-0.043,0.041-0.085,0.082-0.125,0.125c-0.043,0.041-0.085,0.082-0.125,0.125
		c-0.043,0.041-0.085,0.082-0.125,0.125c-0.043,0.041-0.085,0.082-0.125,0.125c-0.043,0.041-0.085,0.082-0.125,0.125
		c-0.043,0.041-0.085,0.082-0.125,0.125c-0.043,0.041-0.085,0.082-0.125,0.125c-0.043,0.041-0.085,0.082-0.125,0.125
		c-0.043,0.041-0.085,0.082-0.125,0.125c-0.043,0.041-0.085,0.082-0.125,0.125c-0.043,0.041-0.085,0.082-0.125,0.125
		c-0.043,0.041-0.085,0.082-0.125,0.125c-0.043,0.041-0.085,0.082-0.125,0.125c-0.043,0.041-0.085,0.082-0.125,0.125
		c-0.043,0.041-0.085,0.082-0.125,0.125c-0.043,0.041-0.085,0.082-0.125,0.125c-0.043,0.041-0.085,0.082-0.125,0.125
		c-0.043,0.041-0.085,0.082-0.125,0.125c-0.043,0.041-0.085,0.082-0.125,0.125c-0.043,0.041-0.085,0.082-0.125,0.125
		c-0.043,0.041-0.085,0.082-0.125,0.125c-0.043,0.041-0.085,0.082-0.125,0.125c-0.043,0.041-0.085,0.082-0.125,0.125
		c-0.043,0.041-0.085,0.082-0.125,0.125c-0.043,0.041-0.085,0.082-0.125,0.125c-0.043,0.041-0.085,0.082-0.125,0.125
		c-0.043,0.041-0.085,0.082-0.125,0.125c-0.043,0.041-0.085,0.082-0.125,0.125c-0.043,0.041-0.085,0.082-0.125,0.125
		c-0.043,0.041-0.085,0.082-0.125,0.125c-0.043,0.041-0.085,0.082-0.125,0.125c-0.043,0.041-0.085,0.082-0.125,0.125
		c-0.043,0.041-0.085,0.082-0.125,0.125c-0.043,0.041-0.085,0.082-0.125,0.125c-0.043,0.041-0.084,0.082-0.124,0.124
		c-0.044,0.041-0.086,0.083-0.127,0.127c-0.043,0.04-0.084,0.082-0.125,0.125c-0.043,0.04-0.084,0.082-0.125,0.125
		c-0.043,0.04-0.084,0.082-0.125,0.125c-0.043,0.04-0.084,0.082-0.125,0.125c-0.043,0.04-0.084,0.082-0.125,0.125
		c-0.043,0.04-0.084,0.082-0.125,0.125c-0.043,0.04-0.084,0.082-0.125,0.125c-0.043,0.04-0.084,0.081-0.124,0.124
		c-0.043,0.041-0.085,0.082-0.126,0.126c-0.043,0.04-0.084,0.082-0.125,0.125c-0.043,0.04-0.084,0.082-0.125,0.125
		c-0.043,0.04-0.084,0.082-0.125,0.125c-0.043,0.04-0.084,0.082-0.125,0.125c-0.043,0.04-0.084,0.082-0.125,0.125
		c-0.043,0.04-0.084,0.082-0.125,0.125c-0.043,0.04-0.084,0.082-0.125,0.125c-0.043,0.04-0.084,0.082-0.125,0.125
		c-0.043,0.04-0.084,0.082-0.125,0.125c-0.043,0.04-0.084,0.082-0.125,0.125c-0.043,0.04-0.084,0.082-0.125,0.125
		c-0.043,0.04-0.084,0.082-0.125,0.125c-0.043,0.04-0.084,0.082-0.125,0.125c-0.043,0.04-0.084,0.081-0.125,0.124
		c-0.043,0.041-0.084,0.082-0.125,0.125c-0.043,0.041-0.084,0.082-0.125,0.125c-0.043,0.041-0.084,0.082-0.125,0.125
		c-0.043,0.041-0.084,0.082-0.125,0.125c-0.043,0.041-0.084,0.082-0.125,0.125c-0.043,0.041-0.084,0.082-0.125,0.125
		c-0.043,0.041-0.084,0.082-0.125,0.125c-0.043,0.041-0.084,0.082-0.125,0.125c-0.043,0.041-0.084,0.082-0.125,0.125
		c-0.043,0.041-0.084,0.082-0.125,0.125c-0.043,0.041-0.084,0.082-0.125,0.125c-0.043,0.041-0.084,0.082-0.125,0.125
		c-0.043,0.041-0.084,0.082-0.125,0.125c-0.043,0.041-0.084,0.082-0.125,0.125c-0.043,0.041-0.084,0.082-0.125,0.125
		c-0.043,0.041-0.084,0.082-0.125,0.125c-0.043,0.041-0.084,0.082-0.125,0.125c-0.043,0.041-0.084,0.082-0.125,0.125
		c-0.043,0.041-0.084,0.082-0.125,0.125c-0.043,0.041-0.084,0.082-0.125,0.125c-0.043,0.041-0.084,0.082-0.125,0.125
		c-0.043,0.041-0.084,0.082-0.125,0.125c-0.043,0.041-0.084,0.082-0.125,0.125c-0.043,0.041-0.084,0.082-0.125,0.125
		c-0.003,0.003-0.007,0.006-0.01,0.009c-1.612,0.065-3.239,0.114-4.878,0.141c0.009-0.008,0.015-0.019,0.022-0.027
		c0.043-0.04,0.084-0.082,0.125-0.125c0.043-0.04,0.084-0.082,0.125-0.125c0.043-0.04,0.084-0.082,0.125-0.125
		c0.043-0.04,0.084-0.081,0.124-0.124c0.044-0.041,0.085-0.082,0.126-0.125c0.043-0.041,0.085-0.082,0.125-0.125
		c0.043-0.041,0.085-0.082,0.125-0.125c0.043-0.041,0.085-0.082,0.125-0.125c0.043-0.041,0.085-0.082,0.125-0.125
		c0.043-0.041,0.085-0.082,0.125-0.125c0.043-0.041,0.085-0.082,0.125-0.125c0.043-0.041,0.085-0.082,0.125-0.125
		c0.043-0.041,0.085-0.082,0.125-0.125c0.043-0.041,0.085-0.082,0.125-0.125c0.043-0.041,0.085-0.082,0.125-0.125
		c0.043-0.041,0.085-0.082,0.125-0.125c0.043-0.041,0.085-0.082,0.125-0.125c0.043-0.041,0.085-0.082,0.125-0.125
		c0.043-0.041,0.085-0.082,0.125-0.125c0.043-0.041,0.085-0.082,0.126-0.125c0.043-0.041,0.084-0.082,0.125-0.125
		c0.043-0.041,0.084-0.082,0.125-0.125c0.043-0.041,0.084-0.082,0.125-0.125c0.043-0.041,0.084-0.082,0.125-0.125
		c0.043-0.041,0.084-0.082,0.125-0.125c0.043-0.041,0.084-0.082,0.125-0.125c0.043-0.041,0.084-0.082,0.125-0.125
		c0.043-0.041,0.084-0.082,0.125-0.125c0.043-0.041,0.084-0.082,0.125-0.125c0.043-0.041,0.084-0.082,0.125-0.125
		c0.043-0.041,0.084-0.082,0.125-0.125c0.043-0.041,0.084-0.082,0.125-0.125c0.043-0.041,0.084-0.082,0.125-0.125
		c0.043-0.041,0.084-0.082,0.125-0.125c0.043-0.041,0.084-0.082,0.125-0.125c0.043-0.041,0.084-0.082,0.125-0.125
		c0.043-0.041,0.084-0.082,0.125-0.125c0.043-0.041,0.084-0.082,0.125-0.125c0.043-0.041,0.084-0.082,0.125-0.125
		c0.043-0.041,0.084-0.082,0.125-0.125c0.043-0.041,0.084-0.082,0.125-0.125c0.043-0.041,0.084-0.082,0.125-0.125
		c0.043-0.041,0.084-0.082,0.125-0.125c0.043-0.041,0.084-0.082,0.125-0.125c0.043-0.041,0.084-0.082,0.125-0.125
		c0.043-0.041,0.084-0.082,0.125-0.125c0.043-0.041,0.084-0.082,0.125-0.125c0.043-0.041,0.084-0.082,0.125-0.125
		c0.043-0.041,0.084-0.082,0.125-0.125c0.043-0.041,0.084-0.082,0.125-0.125c0.043-0.041,0.084-0.082,0.125-0.125
		c0.043-0.041,0.084-0.082,0.125-0.125c0.043-0.041,0.084-0.082,0.125-0.125c0.043-0.041,0.084-0.082,0.125-0.125
		c0.043-0.041,0.084-0.082,0.125-0.125c0.635-0.604,1.036-1.448,1.044-2.392c0.025-0.025,0.047-0.054,0.071-0.081
		c0.043-0.039,0.085-0.081,0.125-0.125c0.043-0.039,0.085-0.081,0.125-0.125c0.043-0.039,0.085-0.081,0.125-0.125
		c0.043-0.039,0.085-0.081,0.125-0.125c0.043-0.039,0.085-0.081,0.125-0.125c0.043-0.039,0.085-0.081,0.125-0.125
		c0.043-0.039,0.085-0.081,0.125-0.125c0.043-0.039,0.085-0.081,0.125-0.125c0.043-0.039,0.085-0.081,0.125-0.125
		c0.043-0.039,0.085-0.081,0.125-0.125c0.043-0.039,0.085-0.081,0.125-0.125c0.043-0.039,0.085-0.081,0.125-0.125
		c0.043-0.039,0.084-0.08,0.124-0.123c0.044-0.041,0.086-0.082,0.126-0.127c0.044-0.04,0.085-0.081,0.125-0.125
		c0.044-0.04,0.085-0.081,0.125-0.125c0.044-0.04,0.085-0.081,0.125-0.125c0.044-0.039,0.085-0.08,0.124-0.124
		c0.045-0.04,0.086-0.082,0.127-0.126c0.043-0.04,0.085-0.081,0.125-0.125c0.043-0.04,0.085-0.081,0.125-0.125
		c0.043-0.04,0.085-0.081,0.125-0.125c0.043-0.04,0.085-0.081,0.125-0.125c0.043-0.04,0.085-0.081,0.125-0.125
		c0.043-0.04,0.085-0.081,0.125-0.125c0.043-0.04,0.085-0.081,0.125-0.125c0.043-0.04,0.085-0.081,0.125-0.125
		c0.043-0.04,0.085-0.081,0.125-0.125c0.043-0.039,0.084-0.081,0.124-0.124c0.044-0.04,0.086-0.082,0.126-0.126
		c0.043-0.039,0.085-0.081,0.125-0.125c0.043-0.039,0.085-0.081,0.125-0.125c0.043-0.039,0.085-0.081,0.125-0.125
		c0.043-0.039,0.085-0.081,0.125-0.125c0.043-0.039,0.085-0.081,0.125-0.125c0.043-0.039,0.085-0.081,0.125-0.125
		c0.043-0.039,0.085-0.081,0.125-0.125c0.366-0.335,0.603-0.803,0.641-1.328c0.003-0.004,0.004-0.009,0.008-0.013
		c0.026-0.025,0.063-0.035,0.088-0.063c0.017-0.019,0.021-0.042,0.037-0.062c0.026-0.025,0.063-0.035,0.088-0.063
		c0.017-0.019,0.021-0.042,0.037-0.062c0.026-0.025,0.063-0.035,0.088-0.063c0.017-0.019,0.021-0.042,0.037-0.062
		c0.026-0.025,0.063-0.035,0.088-0.063c0.017-0.019,0.021-0.042,0.037-0.062c0.026-0.025,0.063-0.035,0.088-0.063
		c0.017-0.019,0.021-0.042,0.037-0.062c0.026-0.025,0.063-0.035,0.088-0.063c0.017-0.019,0.021-0.042,0.037-0.062
		c0.026-0.025,0.063-0.035,0.088-0.063c0.017-0.019,0.021-0.042,0.037-0.062c0.026-0.025,0.063-0.035,0.088-0.063
		c0.017-0.019,0.021-0.042,0.037-0.062c0.026-0.025,0.063-0.035,0.088-0.063c0.017-0.019,0.021-0.042,0.037-0.062
		c0.026-0.025,0.063-0.035,0.088-0.063c0.017-0.019,0.021-0.042,0.037-0.062c0.026-0.025,0.063-0.035,0.088-0.063
		c0.017-0.019,0.021-0.042,0.037-0.062c0.026-0.025,0.063-0.035,0.088-0.063c0.017-0.019,0.021-0.042,0.037-0.062
		c0.026-0.025,0.063-0.035,0.088-0.063c0.017-0.019,0.021-0.042,0.037-0.062c0.026-0.025,0.063-0.035,0.088-0.063
		c0.017-0.019,0.021-0.042,0.037-0.062c0.026-0.025,0.063-0.035,0.088-0.063c0.017-0.019,0.021-0.042,0.037-0.062
		c0.026-0.025,0.063-0.035,0.088-0.063c0.017-0.019,0.021-0.042,0.037-0.062c0.026-0.025,0.063-0.035,0.088-0.063
		c0.017-0.019,0.021-0.042,0.037-0.062c0.026-0.025,0.063-0.035,0.088-0.063c0.017-0.019,0.021-0.042,0.037-0.062
		c0.026-0.025,0.063-0.035,0.088-0.063c0.017-0.019,0.021-0.042,0.037-0.062c0.026-0.025,0.063-0.035,0.088-0.063
		c0.017-0.019,0.021-0.042,0.037-0.062c0.026-0.025,0.063-0.035,0.088-0.063c0.017-0.019,0.021-0.042,0.037-0.062
		c0.026-0.025,0.063-0.035,0.088-0.063c0.017-0.019,0.021-0.042,0.037-0.062c0.026-0.025,0.063-0.035,0.088-0.063
		c0.017-0.019,0.021-0.042,0.037-0.062c0.026-0.025,0.063-0.035,0.088-0.063c0.017-0.019,0.021-0.042,0.037-0.062
		c0.026-0.025,0.063-0.035,0.088-0.063c0.017-0.019,0.021-0.042,0.037-0.062c0.026-0.025,0.063-0.035,0.088-0.063
		c0.017-0.019,0.021-0.042,0.037-0.062c0.026-0.025,0.063-0.035,0.088-0.063c0.017-0.019,0.021-0.042,0.037-0.062
		c0.026-0.025,0.063-0.035,0.088-0.063c0.017-0.019,0.021-0.042,0.037-0.062c0.026-0.025,0.063-0.035,0.088-0.063
		c0.017-0.019,0.021-0.042,0.037-0.062c0.026-0.025,0.063-0.035,0.088-0.063c0.017-0.019,0.021-0.042,0.037-0.062
		c0.026-0.025,0.063-0.035,0.088-0.063c0.017-0.019,0.021-0.042,0.037-0.062c0.026-0.025,0.063-0.035,0.088-0.063
		c0.017-0.019,0.021-0.042,0.037-0.062c0.026-0.025,0.063-0.035,0.088-0.063c0.017-0.019,0.021-0.042,0.037-0.062
		c0.026-0.025,0.063-0.035,0.088-0.063c0.017-0.019,0.021-0.042,0.037-0.062c0.026-0.025,0.063-0.035,0.088-0.063
		c0.017-0.019,0.021-0.042,0.037-0.062c0.026-0.025,0.063-0.035,0.088-0.063c0.017-0.019,0.021-0.042,0.037-0.062
		c0.026-0.025,0.063-0.035,0.088-0.063c0.017-0.019,0.021-0.042,0.037-0.062c0.026-0.025,0.063-0.035,0.088-0.063
		c0.017-0.019,0.021-0.042,0.037-0.062c0.026-0.025,0.063-0.035,0.088-0.063c0.017-0.019,0.021-0.042,0.037-0.062
		c0.026-0.025,0.063-0.035,0.088-0.063c0.017-0.019,0.021-0.042,0.037-0.062c0.026-0.025,0.063-0.035,0.088-0.063
		c0.017-0.019,0.021-0.042,0.037-0.062c0.026-0.025,0.063-0.035,0.088-0.063c0.017-0.019,0.021-0.042,0.037-0.062
		c0.026-0.025,0.063-0.035,0.088-0.063c0.017-0.019,0.021-0.042,0.037-0.062c0.026-0.025,0.063-0.035,0.088-0.063
		c0.017-0.019,0.021-0.042,0.037-0.062c0.026-0.025,0.063-0.035,0.088-0.063c0.017-0.019,0.021-0.042,0.037-0.062
		c0.026-0.025,0.063-0.035,0.088-0.063c0.017-0.019,0.021-0.042,0.037-0.062c0.026-0.025,0.063-0.035,0.088-0.063
		c0.017-0.019,0.021-0.042,0.037-0.062c0.026-0.025,0.063-0.035,0.088-0.063c0.017-0.019,0.021-0.042,0.037-0.062
		c0.026-0.025,0.063-0.035,0.088-0.063c0.017-0.019,0.021-0.042,0.037-0.062c0.026-0.025,0.063-0.035,0.088-0.063
		c0.017-0.019,0.021-0.042,0.037-0.062c0.026-0.025,0.063-0.035,0.088-0.063c0.017-0.019,0.021-0.042,0.037-0.062
		c0.026-0.025,0.063-0.035,0.088-0.063c0.017-0.019,0.021-0.042,0.037-0.062c0.026-0.025,0.063-0.035,0.088-0.063
		c0.017-0.019,0.021-0.042,0.037-0.062c0.026-0.025,0.063-0.035,0.088-0.063c0.017-0.019,0.021-0.042,0.037-0.062
		c0.026-0.025,0.063-0.035,0.088-0.063c0.017-0.019,0.021-0.042,0.037-0.062c0.026-0.025,0.063-0.035,0.088-0.063
		c0.017-0.019,0.021-0.042,0.037-0.062c0.026-0.025,0.063-0.035,0.088-0.063c0.017-0.018,0.021-0.042,0.036-0.061
		c0.027-0.026,0.063-0.036,0.09-0.064c0.017-0.019,0.021-0.042,0.037-0.062c0.026-0.025,0.063-0.036,0.088-0.063
		c0.017-0.019,0.021-0.042,0.037-0.062c0.026-0.025,0.063-0.036,0.088-0.063c0.017-0.019,0.021-0.042,0.037-0.062
		c0.026-0.025,0.063-0.036,0.088-0.063c0.017-0.019,0.021-0.042,0.037-0.062c0.026-0.025,0.063-0.036,0.088-0.063
		c0.017-0.019,0.021-0.042,0.036-0.062c0.027-0.025,0.063-0.035,0.089-0.063c0.017-0.019,0.021-0.042,0.036-0.062
		c0.027-0.025,0.063-0.035,0.089-0.063c0.017-0.019,0.021-0.042,0.036-0.062c0.027-0.025,0.063-0.035,0.089-0.063
		c0.017-0.019,0.021-0.042,0.036-0.062c0.027-0.025,0.063-0.035,0.089-0.063c0.017-0.019,0.021-0.042,0.036-0.062
		c0.027-0.025,0.063-0.035,0.089-0.063c0.017-0.019,0.021-0.042,0.036-0.062c0.027-0.025,0.063-0.035,0.089-0.063
		c0.017-0.019,0.021-0.042,0.036-0.062c0.027-0.025,0.063-0.035,0.089-0.063c0.017-0.019,0.021-0.042,0.036-0.062
		c0.027-0.025,0.063-0.035,0.089-0.063c0.017-0.019,0.021-0.042,0.036-0.062c0.027-0.025,0.063-0.035,0.089-0.063
		c0.017-0.019,0.021-0.042,0.036-0.062c0.027-0.025,0.063-0.035,0.089-0.063c0.017-0.019,0.021-0.042,0.036-0.062
		c0.027-0.025,0.063-0.035,0.089-0.063c0.017-0.019,0.021-0.042,0.036-0.062c0.027-0.025,0.063-0.035,0.089-0.063
		c0.017-0.019,0.021-0.042,0.036-0.062c0.027-0.025,0.063-0.035,0.089-0.063c0.017-0.019,0.021-0.042,0.036-0.062
		c0.027-0.025,0.063-0.035,0.089-0.063c0.017-0.019,0.021-0.042,0.036-0.062c0.027-0.025,0.063-0.035,0.089-0.063
		c0.017-0.019,0.021-0.042,0.036-0.062c0.027-0.025,0.063-0.035,0.089-0.063c0.017-0.019,0.021-0.042,0.036-0.062
		c0.027-0.025,0.063-0.035,0.089-0.063c0.017-0.019,0.021-0.042,0.036-0.062c0.027-0.025,0.063-0.035,0.089-0.063
		c0.017-0.019,0.021-0.042,0.036-0.062c0.027-0.025,0.063-0.035,0.089-0.063c0.017-0.019,0.021-0.042,0.036-0.062
		c0.027-0.025,0.063-0.035,0.089-0.063c0.017-0.019,0.021-0.042,0.036-0.062c0.027-0.025,0.063-0.035,0.089-0.063
		c0.017-0.019,0.021-0.042,0.036-0.062c0.027-0.025,0.063-0.035,0.089-0.063c0.017-0.019,0.021-0.042,0.036-0.062
		c0.027-0.025,0.063-0.035,0.089-0.063c0.017-0.019,0.021-0.042,0.036-0.062c0.027-0.025,0.063-0.035,0.089-0.063
		c0.017-0.019,0.021-0.042,0.036-0.062c0.027-0.025,0.063-0.035,0.089-0.063c0.017-0.019,0.021-0.042,0.036-0.062
		c0.027-0.025,0.063-0.035,0.089-0.063c0.017-0.019,0.021-0.042,0.036-0.062c0.027-0.025,0.063-0.035,0.089-0.063
		c0.017-0.019,0.021-0.042,0.036-0.062c0.027-0.025,0.063-0.035,0.089-0.063c0.017-0.019,0.021-0.042,0.036-0.062
		c0.027-0.025,0.063-0.035,0.089-0.063c0.496-0.548,0.454-1.393-0.094-1.889c-4.032-3.651-2.601-5.643-0.229-8.942
		c2.315-3.222,5.487-7.636,0.367-13.909c-0.467-0.572-1.309-0.658-1.881-0.191c-0.036,0.03-0.053,0.072-0.086,0.104
		c-0.012,0.009-0.027,0.011-0.039,0.021c-0.036,0.03-0.053,0.072-0.086,0.104c-0.012,0.009-0.027,0.011-0.039,0.021
		c-0.036,0.03-0.053,0.072-0.086,0.104c-0.012,0.009-0.027,0.011-0.039,0.021c-0.036,0.03-0.053,0.072-0.086,0.104
		c-0.012,0.009-0.027,0.011-0.039,0.021c-0.036,0.03-0.053,0.072-0.086,0.104c-0.012,0.009-0.027,0.011-0.039,0.021
		c-0.036,0.03-0.053,0.072-0.086,0.104c-0.012,0.009-0.027,0.011-0.039,0.021c-0.036,0.03-0.053,0.072-0.086,0.104
		c-0.012,0.009-0.027,0.011-0.039,0.021c-0.036,0.03-0.053,0.072-0.086,0.104c-0.012,0.009-0.027,0.011-0.039,0.021
		c-0.036,0.03-0.053,0.072-0.086,0.104c-0.012,0.009-0.027,0.011-0.039,0.021c-0.036,0.03-0.053,0.072-0.086,0.104
		c-0.012,0.009-0.027,0.011-0.039,0.021c-0.036,0.03-0.053,0.072-0.086,0.104c-0.012,0.009-0.027,0.011-0.039,0.021
		c-0.036,0.03-0.053,0.072-0.086,0.104c-0.012,0.009-0.027,0.011-0.039,0.021c-0.036,0.03-0.053,0.072-0.086,0.104
		c-0.012,0.009-0.027,0.011-0.039,0.021c-0.036,0.03-0.053,0.072-0.086,0.104c-0.012,0.009-0.027,0.011-0.039,0.021
		c-0.036,0.03-0.054,0.072-0.086,0.104c-0.012,0.009-0.027,0.011-0.039,0.021c-0.036,0.03-0.054,0.072-0.086,0.104
		c-0.012,0.009-0.027,0.011-0.039,0.021c-0.036,0.03-0.054,0.072-0.086,0.104c-0.012,0.009-0.027,0.011-0.039,0.021
		c-0.036,0.03-0.054,0.072-0.086,0.104c-0.012,0.009-0.027,0.011-0.039,0.021c-0.036,0.029-0.053,0.071-0.085,0.104
		c-0.013,0.01-0.028,0.011-0.041,0.021c-0.036,0.03-0.053,0.072-0.086,0.104c-0.012,0.009-0.027,0.011-0.039,0.021
		c-0.036,0.03-0.053,0.072-0.086,0.104c-0.012,0.009-0.027,0.011-0.039,0.021c-0.036,0.03-0.053,0.072-0.086,0.104
		c-0.012,0.009-0.027,0.011-0.039,0.021c-0.036,0.03-0.053,0.072-0.086,0.104c-0.012,0.009-0.027,0.011-0.039,0.021
		c-0.036,0.03-0.053,0.072-0.086,0.104c-0.012,0.009-0.027,0.011-0.039,0.021c-0.036,0.03-0.053,0.072-0.086,0.104
		c-0.012,0.009-0.027,0.011-0.039,0.021c-0.036,0.03-0.053,0.072-0.086,0.104c-0.012,0.009-0.027,0.011-0.039,0.021
		c-0.036,0.03-0.053,0.072-0.086,0.104c-0.012,0.009-0.027,0.011-0.039,0.021c-0.036,0.03-0.053,0.072-0.086,0.104
		c-0.012,0.009-0.027,0.011-0.039,0.021c-0.036,0.03-0.053,0.072-0.086,0.104c-0.012,0.009-0.027,0.011-0.039,0.021
		c-0.036,0.03-0.053,0.072-0.086,0.104c-0.012,0.009-0.027,0.011-0.039,0.021c-0.036,0.03-0.053,0.072-0.086,0.104
		c-0.012,0.009-0.027,0.011-0.039,0.021c-0.036,0.03-0.053,0.072-0.086,0.104c-0.012,0.009-0.027,0.011-0.039,0.021
		c-0.036,0.03-0.053,0.072-0.086,0.104c-0.012,0.009-0.027,0.011-0.039,0.021c-0.036,0.03-0.053,0.072-0.086,0.104
		c-0.012,0.009-0.027,0.011-0.039,0.021c-0.036,0.03-0.053,0.072-0.086,0.104c-0.012,0.009-0.027,0.011-0.039,0.021
		c-0.036,0.03-0.053,0.072-0.086,0.104c-0.012,0.009-0.027,0.011-0.039,0.021c-0.036,0.03-0.053,0.072-0.086,0.104
		c-0.012,0.009-0.027,0.011-0.039,0.021c-0.036,0.03-0.053,0.072-0.086,0.104c-0.012,0.009-0.027,0.011-0.039,0.021
		c-0.036,0.03-0.053,0.072-0.086,0.104c-0.012,0.009-0.027,0.011-0.039,0.021c-0.036,0.03-0.053,0.072-0.086,0.104
		c-0.012,0.009-0.027,0.011-0.039,0.021c-0.036,0.03-0.053,0.072-0.086,0.104c-0.012,0.009-0.027,0.011-0.039,0.021
		c-0.036,0.03-0.053,0.072-0.086,0.104c-0.012,0.009-0.027,0.011-0.039,0.021c-0.036,0.03-0.053,0.072-0.086,0.104
		c-0.012,0.009-0.027,0.011-0.039,0.021c-0.009,0.007-0.013,0.019-0.021,0.026c-0.283-1.579-1.064-3.308-2.617-5.21
		c-0.467-0.572-1.309-0.658-1.881-0.191c-0.036,0.03-0.053,0.072-0.086,0.104c-0.012,0.009-0.027,0.011-0.039,0.021
		c-0.036,0.03-0.053,0.072-0.086,0.104c-0.012,0.009-0.027,0.011-0.039,0.021c-0.036,0.03-0.053,0.072-0.086,0.104
		c-0.012,0.009-0.027,0.011-0.039,0.021c-0.036,0.03-0.053,0.072-0.086,0.104c-0.012,0.009-0.027,0.011-0.039,0.021
		c-0.036,0.03-0.053,0.072-0.086,0.104c-0.012,0.009-0.027,0.011-0.039,0.021c-0.036,0.03-0.053,0.072-0.086,0.104
		c-0.012,0.009-0.027,0.011-0.039,0.021c-0.036,0.03-0.053,0.072-0.086,0.104c-0.012,0.009-0.027,0.011-0.039,0.021
		c-0.036,0.03-0.053,0.072-0.086,0.104c-0.012,0.009-0.027,0.011-0.039,0.021c-0.036,0.03-0.053,0.072-0.086,0.104
		c-0.012,0.009-0.027,0.011-0.039,0.021c-0.036,0.03-0.053,0.072-0.086,0.104c-0.012,0.009-0.027,0.011-0.039,0.021
		c-0.036,0.03-0.053,0.072-0.086,0.104c-0.012,0.009-0.027,0.011-0.039,0.021c-0.036,0.03-0.053,0.072-0.086,0.104
		c-0.012,0.009-0.027,0.011-0.039,0.021c-0.036,0.03-0.053,0.072-0.086,0.104c-0.012,0.009-0.027,0.011-0.039,0.021
		c-0.036,0.03-0.053,0.072-0.086,0.104c-0.012,0.009-0.027,0.011-0.039,0.021c-0.036,0.03-0.053,0.072-0.086,0.104
		c-0.012,0.009-0.027,0.011-0.039,0.021c-0.036,0.03-0.053,0.072-0.086,0.104c-0.012,0.009-0.027,0.011-0.039,0.021
		c-0.036,0.03-0.053,0.072-0.086,0.104c-0.012,0.009-0.027,0.011-0.039,0.021c-0.036,0.03-0.053,0.072-0.086,0.104
		c-0.012,0.009-0.027,0.011-0.039,0.021c-0.036,0.03-0.053,0.072-0.086,0.104c-0.012,0.009-0.027,0.011-0.039,0.021
		c-0.036,0.03-0.053,0.072-0.086,0.104c-0.012,0.009-0.027,0.011-0.039,0.021c-0.036,0.03-0.054,0.072-0.086,0.104
		c-0.012,0.009-0.027,0.011-0.039,0.021c-0.036,0.03-0.054,0.072-0.086,0.104c-0.012,0.009-0.027,0.011-0.039,0.021
		c-0.036,0.03-0.054,0.072-0.086,0.104c-0.012,0.009-0.027,0.011-0.039,0.021c-0.036,0.029-0.053,0.071-0.085,0.104
		c-0.013,0.01-0.028,0.011-0.041,0.021c-0.036,0.03-0.053,0.072-0.086,0.104c-0.012,0.009-0.027,0.011-0.039,0.021
		c-0.036,0.03-0.053,0.072-0.086,0.104c-0.012,0.009-0.027,0.011-0.039,0.021c-0.036,0.03-0.053,0.072-0.086,0.104
		c-0.012,0.009-0.027,0.011-0.039,0.021c-0.036,0.03-0.053,0.072-0.086,0.104c-0.012,0.009-0.027,0.011-0.039,0.021
		c-0.036,0.03-0.053,0.072-0.086,0.104c-0.012,0.009-0.027,0.011-0.039,0.021c-0.036,0.03-0.053,0.072-0.086,0.104
		c-0.012,0.009-0.027,0.011-0.039,0.021c-0.036,0.03-0.053,0.072-0.086,0.104c-0.012,0.009-0.027,0.011-0.039,0.021
		c-0.036,0.03-0.053,0.072-0.086,0.104c-0.012,0.009-0.027,0.011-0.039,0.021c-0.036,0.03-0.053,0.072-0.086,0.104
		c-0.012,0.009-0.027,0.011-0.039,0.021c-0.036,0.03-0.053,0.072-0.086,0.104c-0.012,0.009-0.027,0.011-0.039,0.021
		c-0.036,0.03-0.053,0.072-0.086,0.104c-0.012,0.009-0.027,0.011-0.039,0.021c-0.036,0.03-0.053,0.072-0.086,0.104
		c-0.012,0.009-0.027,0.011-0.039,0.021c-0.036,0.03-0.053,0.072-0.086,0.104c-0.012,0.009-0.027,0.011-0.039,0.021
		c-0.036,0.03-0.053,0.072-0.086,0.104c-0.012,0.009-0.027,0.011-0.039,0.021c-0.036,0.03-0.053,0.072-0.086,0.104
		c-0.012,0.009-0.027,0.011-0.039,0.021c-0.036,0.03-0.053,0.072-0.086,0.104c-0.012,0.009-0.027,0.011-0.039,0.021
		c-0.036,0.03-0.053,0.072-0.086,0.104c-0.012,0.009-0.027,0.011-0.039,0.021c-0.036,0.03-0.053,0.072-0.086,0.104
		c-0.012,0.009-0.027,0.011-0.039,0.021c-0.036,0.03-0.053,0.072-0.086,0.104c-0.012,0.009-0.027,0.011-0.039,0.021
		c-0.009,0.007-0.013,0.019-0.021,0.026c-0.283-1.579-1.064-3.308-2.617-5.21c-0.467-0.572-1.309-0.658-1.881-0.191
		c-0.036,0.03-0.053,0.072-0.085,0.104c-0.013,0.009-0.028,0.011-0.04,0.021c-0.036,0.03-0.053,0.072-0.085,0.104
		c-0.013,0.009-0.028,0.011-0.04,0.021c-0.036,0.03-0.053,0.072-0.085,0.104c-0.013,0.009-0.028,0.011-0.04,0.021
		c-0.036,0.03-0.053,0.072-0.085,0.104c-0.013,0.009-0.028,0.011-0.04,0.021c-0.036,0.03-0.053,0.072-0.085,0.104
		c-0.013,0.009-0.028,0.011-0.04,0.021c-0.036,0.03-0.053,0.072-0.085,0.104c-0.013,0.009-0.028,0.011-0.04,0.021
		c-0.036,0.03-0.053,0.072-0.085,0.104c-0.013,0.009-0.028,0.011-0.04,0.021c-0.036,0.03-0.053,0.072-0.085,0.104
		c-0.013,0.009-0.028,0.011-0.04,0.021c-0.036,0.03-0.053,0.072-0.085,0.104c-0.013,0.009-0.028,0.011-0.04,0.021
		c-0.036,0.03-0.053,0.072-0.085,0.104c-0.013,0.009-0.028,0.011-0.04,0.021c-0.036,0.03-0.053,0.072-0.085,0.104
		c-0.013,0.009-0.028,0.011-0.04,0.021c-0.036,0.03-0.053,0.072-0.085,0.104c-0.013,0.009-0.028,0.011-0.04,0.021
		c-0.036,0.03-0.053,0.072-0.085,0.104c-0.013,0.009-0.028,0.011-0.04,0.021c-0.036,0.03-0.053,0.072-0.085,0.104
		c-0.013,0.009-0.028,0.011-0.04,0.021c-0.036,0.03-0.053,0.072-0.085,0.104c-0.013,0.009-0.028,0.011-0.04,0.021
		c-0.036,0.03-0.053,0.072-0.085,0.104c-0.013,0.009-0.028,0.011-0.04,0.021c-0.036,0.03-0.053,0.072-0.085,0.104
		c-0.013,0.009-0.028,0.011-0.04,0.021c-0.036,0.03-0.053,0.072-0.085,0.104c-0.013,0.009-0.028,0.011-0.04,0.021
		c-0.036,0.03-0.053,0.072-0.085,0.104c-0.013,0.009-0.028,0.011-0.04,0.021c-0.036,0.03-0.053,0.072-0.085,0.104
		c-0.013,0.009-0.028,0.011-0.04,0.021c-0.036,0.03-0.054,0.072-0.086,0.104c-0.012,0.009-0.027,0.011-0.039,0.021
		c-0.036,0.03-0.054,0.072-0.086,0.104c-0.012,0.009-0.027,0.011-0.039,0.021c-0.036,0.03-0.054,0.072-0.086,0.104
		c-0.012,0.009-0.027,0.011-0.039,0.021c-0.036,0.029-0.053,0.071-0.085,0.104c-0.013,0.01-0.028,0.011-0.041,0.021
		c-0.036,0.03-0.053,0.072-0.086,0.104c-0.012,0.009-0.027,0.011-0.039,0.021c-0.036,0.03-0.053,0.072-0.086,0.104
		c-0.012,0.009-0.027,0.011-0.039,0.021c-0.036,0.03-0.053,0.072-0.086,0.104c-0.012,0.009-0.027,0.011-0.039,0.021
		c-0.036,0.03-0.053,0.072-0.086,0.104c-0.012,0.009-0.027,0.011-0.039,0.021c-0.036,0.03-0.053,0.072-0.086,0.104
		c-0.012,0.009-0.027,0.011-0.039,0.021c-0.036,0.03-0.053,0.072-0.086,0.104c-0.012,0.009-0.027,0.011-0.039,0.021
		c-0.036,0.03-0.053,0.072-0.086,0.104c-0.012,0.009-0.027,0.011-0.039,0.021c-0.036,0.03-0.053,0.072-0.086,0.104
		c-0.012,0.009-0.027,0.011-0.039,0.021c-0.036,0.03-0.053,0.072-0.086,0.104c-0.012,0.009-0.027,0.011-0.039,0.021
		c-0.036,0.03-0.053,0.072-0.086,0.104c-0.012,0.009-0.027,0.011-0.039,0.021c-0.036,0.03-0.053,0.072-0.086,0.104
		c-0.012,0.009-0.027,0.011-0.039,0.021c-0.036,0.03-0.053,0.072-0.086,0.104c-0.012,0.009-0.027,0.011-0.039,0.021
		c-0.036,0.03-0.053,0.072-0.086,0.104c-0.012,0.009-0.027,0.011-0.039,0.021c-0.036,0.03-0.053,0.072-0.086,0.104
		c-0.012,0.009-0.027,0.011-0.039,0.021c-0.036,0.03-0.053,0.072-0.086,0.104c-0.012,0.009-0.027,0.011-0.039,0.021
		c-0.036,0.03-0.053,0.072-0.086,0.104c-0.012,0.009-0.027,0.011-0.039,0.021c-0.036,0.03-0.053,0.072-0.086,0.104
		c-0.012,0.009-0.027,0.011-0.039,0.021c-0.036,0.03-0.053,0.072-0.086,0.104c-0.012,0.009-0.027,0.011-0.039,0.021
		c-0.036,0.03-0.053,0.072-0.086,0.104c-0.012,0.009-0.027,0.011-0.039,0.021c-0.036,0.03-0.053,0.072-0.086,0.104
		c-0.012,0.009-0.027,0.011-0.039,0.021c-0.036,0.03-0.053,0.072-0.086,0.104c-0.012,0.009-0.027,0.011-0.039,0.021
		c-0.036,0.03-0.053,0.072-0.086,0.104c-0.012,0.009-0.027,0.011-0.039,0.021c-0.036,0.03-0.053,0.072-0.086,0.104
		c-0.012,0.009-0.027,0.011-0.039,0.021c-0.036,0.03-0.053,0.072-0.086,0.104c-0.012,0.009-0.027,0.011-0.039,0.021
		c-0.036,0.03-0.053,0.072-0.086,0.104c-0.012,0.009-0.027,0.011-0.039,0.021c-0.036,0.03-0.053,0.072-0.086,0.104
		c-0.012,0.009-0.027,0.011-0.039,0.021c-0.036,0.03-0.053,0.072-0.086,0.104c-0.012,0.009-0.027,0.011-0.039,0.021
		c-0.036,0.03-0.053,0.072-0.086,0.104c-0.012,0.009-0.027,0.011-0.039,0.021c-0.036,0.03-0.053,0.072-0.086,0.104
		c-0.012,0.009-0.027,0.011-0.039,0.021c-0.036,0.03-0.053,0.072-0.086,0.104c-0.012,0.009-0.027,0.011-0.039,0.021
		c-0.036,0.03-0.053,0.072-0.086,0.104c-0.012,0.009-0.027,0.011-0.039,0.021c-0.036,0.03-0.053,0.072-0.086,0.104
		c-0.012,0.009-0.027,0.011-0.039,0.021c-0.036,0.03-0.053,0.072-0.086,0.104c-0.012,0.009-0.027,0.011-0.039,0.021
		c-0.036,0.03-0.053,0.072-0.086,0.104c-0.012,0.009-0.027,0.011-0.039,0.021c-0.036,0.03-0.053,0.072-0.086,0.104
		c-0.012,0.009-0.027,0.011-0.039,0.021c-0.036,0.03-0.053,0.072-0.086,0.104c-0.012,0.009-0.027,0.011-0.039,0.021
		c-0.036,0.03-0.053,0.072-0.086,0.104c-0.012,0.009-0.027,0.011-0.039,0.021c-0.036,0.03-0.053,0.072-0.086,0.104
		c-0.012,0.009-0.027,0.011-0.039,0.021c-0.036,0.03-0.053,0.072-0.085,0.104c-0.012,0.009-0.027,0.011-0.04,0.021
		c-0.036,0.03-0.053,0.072-0.085,0.104c-0.012,0.009-0.027,0.011-0.04,0.021c-0.036,0.03-0.053,0.072-0.085,0.104
		c-0.012,0.009-0.027,0.011-0.04,0.021c-0.036,0.03-0.053,0.072-0.085,0.104c-0.012,0.009-0.027,0.011-0.04,0.021
		c-0.036,0.03-0.053,0.072-0.085,0.104c-0.012,0.009-0.027,0.011-0.04,0.021c-0.036,0.03-0.053,0.072-0.085,0.104
		c-0.012,0.009-0.027,0.011-0.04,0.021c-0.036,0.03-0.053,0.072-0.085,0.104c-0.012,0.009-0.027,0.011-0.04,0.021
		c-0.036,0.03-0.053,0.072-0.085,0.104c-0.012,0.009-0.027,0.011-0.04,0.021c-0.036,0.03-0.053,0.072-0.085,0.104
		c-0.012,0.009-0.027,0.011-0.04,0.021c-0.036,0.03-0.053,0.072-0.085,0.104c-0.012,0.009-0.027,0.011-0.04,0.021
		c-0.036,0.03-0.053,0.072-0.085,0.104c-0.012,0.009-0.027,0.011-0.04,0.021c-0.036,0.03-0.053,0.072-0.085,0.104
		c-0.012,0.009-0.027,0.011-0.04,0.021c-0.036,0.03-0.053,0.072-0.085,0.104c-0.012,0.009-0.027,0.011-0.04,0.021
		c-0.036,0.03-0.053,0.072-0.085,0.104c-0.012,0.009-0.027,0.011-0.04,0.021c-0.036,0.03-0.053,0.072-0.085,0.104
		c-0.012,0.009-0.027,0.011-0.04,0.021c-0.036,0.03-0.053,0.072-0.085,0.104c-0.012,0.009-0.027,0.011-0.04,0.021
		c-0.036,0.03-0.053,0.072-0.085,0.104c-0.012,0.009-0.027,0.011-0.04,0.021c-0.036,0.03-0.053,0.072-0.085,0.104
		c-0.012,0.009-0.027,0.011-0.04,0.021c-0.036,0.03-0.053,0.072-0.085,0.104c-0.012,0.009-0.027,0.011-0.04,0.021
		c-0.036,0.03-0.053,0.072-0.085,0.104c-0.012,0.009-0.027,0.011-0.04,0.021c-0.036,0.03-0.053,0.072-0.085,0.104
		c-0.012,0.009-0.027,0.011-0.04,0.021c-0.036,0.03-0.053,0.072-0.085,0.104c-0.012,0.009-0.027,0.011-0.04,0.021
		c-0.036,0.03-0.053,0.072-0.085,0.104c-0.012,0.009-0.027,0.011-0.04,0.021c-0.036,0.03-0.053,0.072-0.085,0.104
		c-0.012,0.009-0.027,0.011-0.04,0.021c-0.036,0.03-0.053,0.072-0.085,0.104c-0.012,0.009-0.027,0.011-0.04,0.021
		c-0.036,0.03-0.053,0.072-0.085,0.104c-0.012,0.009-0.027,0.011-0.04,0.021c-0.036,0.03-0.053,0.072-0.085,0.104
		c-0.012,0.009-0.027,0.011-0.04,0.021c-0.036,0.03-0.053,0.072-0.085,0.104c-0.012,0.009-0.027,0.011-0.04,0.021
		c-0.036,0.03-0.053,0.072-0.085,0.104c-0.012,0.009-0.027,0.011-0.04,0.021c-0.036,0.03-0.053,0.072-0.085,0.104
		c-0.012,0.009-0.027,0.011-0.04,0.021c-0.036,0.03-0.053,0.072-0.085,0.104c-0.012,0.009-0.027,0.011-0.04,0.021
		c-0.036,0.03-0.053,0.072-0.085,0.104c-0.012,0.009-0.027,0.011-0.04,0.021c-0.036,0.03-0.053,0.072-0.085,0.104
		c-0.012,0.009-0.027,0.011-0.04,0.021c-0.036,0.03-0.053,0.072-0.085,0.104c-0.012,0.009-0.027,0.011-0.04,0.021
		c-0.036,0.03-0.053,0.072-0.085,0.104c-0.012,0.009-0.027,0.011-0.04,0.021c-0.036,0.03-0.053,0.072-0.085,0.104
		c-0.012,0.009-0.027,0.011-0.04,0.021c-0.036,0.03-0.053,0.072-0.085,0.104c-0.012,0.009-0.027,0.011-0.04,0.021
		c-0.036,0.03-0.053,0.072-0.085,0.104c-0.012,0.009-0.027,0.011-0.04,0.021c-0.036,0.03-0.053,0.072-0.085,0.104
		c-0.012,0.009-0.027,0.011-0.04,0.021c-0.036,0.03-0.053,0.072-0.085,0.104c-0.012,0.009-0.027,0.011-0.04,0.021
		c-0.036,0.03-0.053,0.072-0.085,0.104c-0.012,0.009-0.027,0.011-0.04,0.021c-0.037,0.03-0.053,0.072-0.086,0.104
		c-0.012,0.009-0.027,0.011-0.039,0.021c-0.037,0.03-0.053,0.072-0.086,0.104c-0.012,0.009-0.027,0.011-0.039,0.021
		c-0.037,0.03-0.053,0.072-0.086,0.104c-0.012,0.009-0.027,0.011-0.039,0.021c-0.037,0.03-0.053,0.072-0.086,0.104
		c-0.012,0.009-0.027,0.011-0.039,0.021c-0.036,0.029-0.053,0.071-0.085,0.104c-0.013,0.01-0.028,0.011-0.041,0.021
		c-0.036,0.03-0.053,0.072-0.085,0.104c-0.012,0.009-0.027,0.011-0.04,0.021c-0.036,0.03-0.053,0.072-0.085,0.104
		c-0.012,0.009-0.027,0.011-0.04,0.021c-0.036,0.03-0.053,0.072-0.085,0.104c-0.012,0.009-0.027,0.011-0.04,0.021
		c-0.036,0.03-0.053,0.072-0.085,0.104c-0.012,0.009-0.027,0.011-0.04,0.021c-0.036,0.03-0.053,0.072-0.085,0.104
		c-0.012,0.009-0.027,0.011-0.04,0.021c-0.036,0.03-0.053,0.072-0.085,0.104c-0.012,0.009-0.027,0.011-0.04,0.021
		c-0.036,0.03-0.053,0.072-0.085,0.104c-0.012,0.009-0.027,0.011-0.04,0.021c-0.036,0.03-0.053,0.072-0.085,0.104
		c-0.012,0.009-0.027,0.011-0.04,0.021c-0.036,0.03-0.053,0.072-0.085,0.104c-0.012,0.009-0.027,0.011-0.04,0.021
		c-0.036,0.03-0.053,0.072-0.085,0.104c-0.012,0.009-0.027,0.011-0.04,0.021c-0.036,0.03-0.053,0.072-0.085,0.104
		c-0.012,0.009-0.027,0.011-0.04,0.021c-0.036,0.03-0.053,0.072-0.085,0.104c-0.012,0.009-0.027,0.011-0.04,0.021
		c-0.036,0.03-0.053,0.072-0.085,0.104c-0.012,0.009-0.027,0.011-0.04,0.021c-0.036,0.03-0.053,0.072-0.085,0.104
		c-0.012,0.009-0.027,0.011-0.04,0.021c-0.036,0.03-0.053,0.072-0.085,0.104c-0.012,0.009-0.027,0.011-0.04,0.021
		c-0.036,0.03-0.053,0.072-0.085,0.104c-0.012,0.009-0.027,0.011-0.04,0.021c-0.036,0.03-0.053,0.072-0.085,0.104
		c-0.012,0.009-0.027,0.011-0.04,0.021c-0.036,0.03-0.053,0.072-0.085,0.104c-0.012,0.009-0.027,0.011-0.04,0.021
		c-0.036,0.03-0.053,0.072-0.085,0.104c-0.012,0.009-0.027,0.011-0.04,0.021c-0.036,0.03-0.053,0.072-0.085,0.104
		c-0.012,0.009-0.027,0.011-0.04,0.021c-0.036,0.03-0.053,0.072-0.085,0.104c-0.012,0.009-0.027,0.011-0.04,0.021
		c-0.036,0.03-0.053,0.072-0.085,0.104c-0.012,0.009-0.027,0.011-0.04,0.021c-0.036,0.03-0.053,0.072-0.085,0.104
		c-0.012,0.009-0.027,0.011-0.04,0.021c-0.036,0.03-0.053,0.072-0.085,0.104c-0.012,0.009-0.027,0.011-0.04,0.021
		c-0.036,0.03-0.053,0.072-0.085,0.104c-0.012,0.009-0.027,0.011-0.04,0.021c-0.036,0.03-0.053,0.072-0.085,0.104
		c-0.012,0.009-0.027,0.011-0.04,0.021c-0.036,0.03-0.053,0.072-0.085,0.104c-0.012,0.009-0.027,0.011-0.04,0.021
		c-0.036,0.03-0.053,0.072-0.085,0.104c-0.012,0.009-0.027,0.011-0.04,0.021c-0.036,0.03-0.053,0.072-0.085,0.104
		c-0.012,0.009-0.027,0.011-0.04,0.021c-0.036,0.03-0.053,0.072-0.085,0.104c-0.012,0.009-0.027,0.011-0.04,0.021
		c-0.036,0.03-0.053,0.072-0.085,0.104c-0.012,0.009-0.027,0.011-0.04,0.021c-0.036,0.03-0.053,0.072-0.085,0.104
		c-0.012,0.009-0.027,0.011-0.04,0.021c-0.036,0.03-0.053,0.072-0.085,0.104c-0.012,0.009-0.027,0.011-0.04,0.021
		c-0.036,0.03-0.053,0.072-0.085,0.104c-0.012,0.009-0.027,0.011-0.04,0.021c-0.036,0.03-0.053,0.072-0.085,0.104
		c-0.012,0.009-0.027,0.011-0.04,0.021c-0.036,0.03-0.053,0.072-0.085,0.104c-0.012,0.009-0.027,0.011-0.04,0.021
		c-0.036,0.03-0.053,0.072-0.085,0.104c-0.012,0.009-0.027,0.011-0.04,0.021c-0.036,0.03-0.053,0.072-0.085,0.104
		c-0.012,0.009-0.027,0.011-0.04,0.021c-0.036,0.03-0.053,0.072-0.085,0.104c-0.012,0.009-0.027,0.011-0.04,0.021
		c-0.036,0.03-0.053,0.072-0.085,0.104c-0.012,0.009-0.027,0.011-0.04,0.021c-0.036,0.03-0.053,0.072-0.085,0.104
		c-0.012,0.009-0.027,0.011-0.04,0.021c-0.036,0.03-0.053,0.072-0.085,0.104c-0.012,0.009-0.027,0.011-0.04,0.021
		c-0.036,0.03-0.053,0.072-0.085,0.104c-0.012,0.009-0.027,0.011-0.04,0.021c-0.036,0.03-0.053,0.072-0.085,0.104
		c-0.012,0.009-0.027,0.011-0.04,0.021c-0.036,0.03-0.053,0.072-0.085,0.104c-0.012,0.009-0.027,0.011-0.04,0.021
		c-0.036,0.03-0.053,0.072-0.085,0.104c-0.012,0.009-0.027,0.011-0.04,0.021c-0.036,0.03-0.053,0.072-0.085,0.104
		c-0.012,0.009-0.027,0.011-0.04,0.021c-0.036,0.03-0.053,0.072-0.085,0.104c-0.012,0.009-0.027,0.011-0.04,0.021
		c-0.036,0.03-0.053,0.072-0.085,0.104c-0.012,0.009-0.027,0.011-0.04,0.021c-0.036,0.03-0.053,0.072-0.085,0.104
		c-0.012,0.009-0.027,0.011-0.04,0.021c-0.036,0.03-0.053,0.072-0.085,0.104c-0.012,0.009-0.027,0.011-0.04,0.021
		c-0.036,0.03-0.053,0.072-0.085,0.104c-0.012,0.009-0.027,0.011-0.04,0.021c-0.036,0.03-0.053,0.072-0.085,0.104
		c-0.012,0.009-0.027,0.011-0.04,0.021c-0.036,0.03-0.053,0.072-0.085,0.104c-0.012,0.009-0.027,0.011-0.04,0.021
		c-0.036,0.03-0.053,0.072-0.085,0.104c-0.012,0.009-0.027,0.011-0.04,0.021c-0.036,0.03-0.053,0.072-0.085,0.104
		c-0.012,0.009-0.027,0.011-0.04,0.021c-0.036,0.03-0.053,0.072-0.085,0.104c-0.012,0.009-0.027,0.011-0.04,0.021
		c-0.036,0.03-0.053,0.072-0.085,0.104c-0.012,0.009-0.027,0.011-0.04,0.021c-0.036,0.03-0.053,0.072-0.085,0.104
		c-0.012,0.009-0.027,0.011-0.04,0.021c-0.036,0.03-0.053,0.072-0.085,0.104c-0.012,0.009-0.027,0.011-0.04,0.021
		c-0.036,0.03-0.053,0.072-0.085,0.104c-0.012,0.009-0.027,0.011-0.04,0.021c-0.036,0.03-0.053,0.072-0.085,0.104
		c-0.012,0.009-0.027,0.011-0.04,0.021c-0.036,0.03-0.053,0.072-0.085,0.104c-0.012,0.009-0.027,0.011-0.04,0.021
		c-0.036,0.03-0.053,0.072-0.085,0.104c-0.012,0.009-0.027,0.011-0.04,0.021c-0.036,0.03-0.053,0.072-0.085,0.104
		c-0.012,0.009-0.027,0.011-0.04,0.021c-0.036,0.03-0.053,0.072-0.085,0.104c-0.012,0.009-0.027,0.011-0.04,0.021
		c-0.036,0.03-0.053,0.072-0.085,0.104c-0.012,0.009-0.027,0.011-0.04,0.021c-0.036,0.03-0.053,0.072-0.085,0.104
		c-0.012,0.009-0.027,0.011-0.04,0.021c-0.036,0.03-0.053,0.072-0.085,0.104c-0.012,0.009-0.027,0.011-0.04,0.021
		c-0.036,0.03-0.053,0.072-0.085,0.104c-0.012,0.009-0.027,0.011-0.04,0.021c-0.036,0.03-0.053,0.072-0.085,0.104
		c-0.012,0.009-0.027,0.011-0.04,0.021c-0.036,0.03-0.053,0.072-0.085,0.104c-0.012,0.009-0.027,0.011-0.04,0.021
		c-0.036,0.03-0.053,0.072-0.085,0.104c-0.012,0.009-0.027,0.011-0.04,0.021c-0.036,0.03-0.053,0.072-0.085,0.104
		c-0.012,0.009-0.027,0.011-0.04,0.021c-0.036,0.03-0.053,0.072-0.085,0.104c-0.012,0.009-0.027,0.011-0.04,0.021
		c-0.036,0.03-0.053,0.072-0.085,0.104c-0.012,0.009-0.027,0.011-0.04,0.021c-0.036,0.03-0.053,0.072-0.085,0.104
		c-0.012,0.009-0.027,0.011-0.04,0.021c-0.037,0.03-0.053,0.072-0.086,0.104c-0.012,0.009-0.027,0.011-0.039,0.021
		c-0.037,0.03-0.053,0.072-0.086,0.104c-0.012,0.009-0.027,0.011-0.039,0.021c-0.037,0.03-0.053,0.072-0.086,0.104
		c-0.012,0.009-0.027,0.011-0.039,0.021c-0.036,0.029-0.053,0.071-0.085,0.104c-0.013,0.01-0.028,0.011-0.041,0.021
		c-0.036,0.03-0.053,0.072-0.085,0.104c-0.012,0.009-0.027,0.011-0.04,0.021c-0.036,0.03-0.053,0.072-0.085,0.104
		c-0.012,0.009-0.027,0.011-0.04,0.021c-0.036,0.03-0.053,0.072-0.085,0.104c-0.012,0.009-0.027,0.011-0.04,0.021
		c-0.036,0.03-0.053,0.072-0.085,0.104c-0.012,0.009-0.027,0.011-0.04,0.021c-0.036,0.03-0.053,0.072-0.085,0.104
		c-0.012,0.009-0.027,0.011-0.04,0.021c-0.036,0.03-0.053,0.072-0.085,0.104c-0.012,0.009-0.027,0.011-0.04,0.021
		c-0.036,0.03-0.053,0.072-0.085,0.104c-0.012,0.009-0.027,0.011-0.04,0.021c-0.036,0.03-0.053,0.072-0.085,0.104
		c-0.012,0.009-0.027,0.011-0.04,0.021c-0.036,0.03-0.053,0.072-0.085,0.104c-0.012,0.009-0.027,0.011-0.04,0.021
		c-0.036,0.03-0.053,0.072-0.085,0.104c-0.012,0.009-0.027,0.011-0.04,0.021c-0.036,0.03-0.053,0.072-0.085,0.104
		c-0.012,0.009-0.027,0.011-0.04,0.021c-0.036,0.03-0.053,0.072-0.085,0.104c-0.012,0.009-0.027,0.011-0.04,0.021
		c-0.036,0.03-0.053,0.072-0.085,0.104c-0.012,0.009-0.027,0.011-0.04,0.021c-0.036,0.03-0.053,0.072-0.085,0.104
		c-0.012,0.009-0.027,0.011-0.04,0.021c-0.036,0.03-0.053,0.072-0.085,0.104c-0.012,0.009-0.027,0.011-0.04,0.021
		c-0.036,0.03-0.053,0.072-0.085,0.104c-0.012,0.009-0.027,0.011-0.04,0.021c-0.036,0.03-0.053,0.072-0.085,0.104
		c-0.012,0.009-0.027,0.011-0.04,0.021c-0.036,0.03-0.053,0.072-0.085,0.104c-0.012,0.009-0.027,0.011-0.04,0.021
		c-0.036,0.03-0.053,0.072-0.085,0.104c-0.012,0.009-0.027,0.011-0.04,0.021c-0.036,0.03-0.053,0.072-0.085,0.104
		c-0.012,0.009-0.027,0.011-0.04,0.021c-0.036,0.03-0.053,0.072-0.085,0.104c-0.012,0.009-0.027,0.011-0.04,0.021
		c-0.036,0.03-0.053,0.072-0.085,0.104c-0.012,0.009-0.027,0.011-0.04,0.021c-0.036,0.03-0.053,0.072-0.085,0.104
		c-0.012,0.009-0.027,0.011-0.04,0.021c-0.036,0.03-0.053,0.072-0.085,0.104c-0.012,0.009-0.027,0.011-0.04,0.021
		c-0.036,0.03-0.053,0.072-0.085,0.104c-0.012,0.009-0.027,0.011-0.04,0.021c-0.036,0.03-0.053,0.072-0.085,0.104
		c-0.012,0.009-0.027,0.011-0.04,0.021c-0.036,0.03-0.053,0.072-0.085,0.104c-0.012,0.009-0.027,0.011-0.04,0.021
		c-0.036,0.03-0.053,0.072-0.085,0.104c-0.012,0.009-0.027,0.011-0.04,0.021c-0.022,0.018-0.031,0.044-0.052,0.063
		C29.332,60.31,17.073,64.572,12.351,69.22c-0.043,0.042-0.083,0.083-0.125,0.125c-0.043,0.042-0.083,0.083-0.125,0.125
		c-0.043,0.042-0.083,0.083-0.125,0.125c-0.043,0.042-0.083,0.083-0.125,0.125c-0.043,0.042-0.083,0.083-0.125,0.125
		c-0.043,0.042-0.083,0.083-0.125,0.125c-0.043,0.042-0.083,0.083-0.125,0.125c-0.043,0.042-0.083,0.083-0.125,0.125
		c-0.043,0.042-0.083,0.083-0.125,0.125c-0.043,0.042-0.083,0.083-0.125,0.125c-0.043,0.042-0.083,0.083-0.125,0.125
		c-0.043,0.042-0.083,0.083-0.125,0.125c-0.043,0.042-0.083,0.083-0.125,0.125c-0.043,0.042-0.083,0.083-0.125,0.125
		c-0.043,0.042-0.083,0.083-0.125,0.125c-0.043,0.042-0.083,0.083-0.125,0.125c-0.043,0.042-0.083,0.083-0.125,0.125
		c-0.043,0.042-0.083,0.083-0.125,0.125c-0.043,0.042-0.083,0.083-0.125,0.125c-0.043,0.042-0.083,0.083-0.125,0.125
		c-0.043,0.042-0.083,0.083-0.125,0.125c-0.042,0.04-0.081,0.081-0.122,0.121c-0.045,0.043-0.085,0.086-0.129,0.129
		c-0.044,0.042-0.083,0.084-0.125,0.125c-0.044,0.042-0.083,0.084-0.125,0.125c-0.044,0.042-0.083,0.084-0.125,0.125
		c-0.044,0.042-0.083,0.084-0.125,0.125c-0.044,0.042-0.083,0.084-0.125,0.125c-0.044,0.042-0.083,0.084-0.125,0.125
		c-0.044,0.042-0.083,0.084-0.125,0.125c-0.044,0.042-0.083,0.084-0.125,0.125c-0.044,0.042-0.083,0.084-0.125,0.125
		c-0.044,0.042-0.083,0.084-0.125,0.125c-0.044,0.042-0.083,0.084-0.125,0.125c-0.044,0.042-0.083,0.084-0.125,0.125
		c-0.044,0.042-0.083,0.084-0.125,0.125c-0.044,0.042-0.083,0.084-0.125,0.125c-0.044,0.042-0.083,0.084-0.125,0.125
		c-0.044,0.042-0.083,0.084-0.125,0.125c-0.044,0.042-0.083,0.084-0.125,0.125c-0.044,0.042-0.083,0.084-0.125,0.125
		c-0.043,0.041-0.082,0.083-0.124,0.124c-0.044,0.042-0.083,0.084-0.126,0.126c-0.043,0.042-0.083,0.084-0.125,0.125
		c-0.043,0.042-0.083,0.084-0.125,0.125C6.682,74.887,6.643,74.929,6.6,74.97c-0.043,0.042-0.083,0.084-0.125,0.125
		c-0.043,0.042-0.083,0.084-0.125,0.125c-0.043,0.042-0.083,0.084-0.125,0.125C6.182,75.387,6.143,75.429,6.1,75.47
		c-0.043,0.042-0.083,0.084-0.125,0.125c-0.043,0.042-0.083,0.084-0.125,0.125c-0.043,0.042-0.083,0.084-0.125,0.125
		C5.682,75.887,5.643,75.929,5.6,75.97c-0.043,0.042-0.083,0.084-0.125,0.125c-0.043,0.042-0.083,0.084-0.125,0.125
		c-0.043,0.042-0.083,0.084-0.125,0.125C5.182,76.387,5.143,76.429,5.1,76.47c-0.043,0.042-0.083,0.084-0.125,0.125
		c-0.043,0.042-0.083,0.084-0.125,0.125c-0.043,0.042-0.083,0.084-0.125,0.125C4.682,76.887,4.643,76.929,4.6,76.97
		c-0.043,0.042-0.083,0.084-0.125,0.125c-0.043,0.042-0.083,0.084-0.125,0.125c-0.043,0.042-0.083,0.084-0.125,0.125
		C4.182,77.387,4.143,77.429,4.1,77.47c-0.044,0.042-0.083,0.085-0.126,0.127c-0.043,0.041-0.082,0.082-0.123,0.123
		c-0.043,0.042-0.083,0.083-0.125,0.125c-0.043,0.042-0.083,0.083-0.125,0.125c-0.043,0.042-0.083,0.083-0.125,0.125
		c-0.043,0.042-0.083,0.083-0.125,0.125c-0.043,0.042-0.083,0.083-0.125,0.125c-0.043,0.042-0.083,0.083-0.125,0.125
		c-0.043,0.042-0.083,0.083-0.125,0.125c-0.043,0.042-0.083,0.083-0.125,0.125c-0.043,0.042-0.083,0.083-0.125,0.125
		c-0.043,0.042-0.083,0.083-0.125,0.125c-0.043,0.042-0.083,0.083-0.125,0.125c-0.044,0.042-0.083,0.083-0.125,0.125
		c-0.044,0.042-0.083,0.083-0.125,0.125c-0.044,0.042-0.083,0.083-0.125,0.125c-0.043,0.041-0.082,0.082-0.124,0.123
		c-0.044,0.043-0.084,0.085-0.127,0.127c-0.043,0.042-0.083,0.083-0.125,0.125C1.682,79.887,1.643,79.928,1.6,79.97
		c-0.043,0.042-0.083,0.083-0.125,0.125c-0.044,0.042-0.083,0.084-0.125,0.126c-0.043,0.041-0.083,0.083-0.125,0.124
		C1.182,80.387,1.143,80.429,1.1,80.47c-0.043,0.042-0.083,0.084-0.125,0.125c-0.043,0.042-0.083,0.084-0.125,0.125
		c-0.043,0.042-0.083,0.084-0.125,0.125C0.682,80.887,0.643,80.929,0.6,80.97c-0.043,0.042-0.083,0.084-0.125,0.125
		c-0.043,0.042-0.083,0.084-0.125,0.125c-0.043,0.042-0.083,0.084-0.125,0.125C0.182,81.387,0.143,81.429,0.1,81.47
		c-0.043,0.042-0.083,0.084-0.125,0.125c-0.043,0.042-0.083,0.084-0.125,0.125c-0.043,0.042-0.083,0.084-0.125,0.125
		c-0.043,0.042-0.083,0.084-0.125,0.125c-0.043,0.042-0.083,0.084-0.125,0.125c-0.043,0.042-0.082,0.083-0.125,0.125
		c-0.043,0.041-0.083,0.083-0.125,0.125c-0.043,0.042-0.083,0.083-0.125,0.125c-0.043,0.042-0.083,0.083-0.125,0.125
		c-0.043,0.042-0.083,0.083-0.125,0.125c-0.043,0.042-0.083,0.083-0.125,0.125c-0.043,0.042-0.083,0.083-0.125,0.125
		c-0.043,0.042-0.083,0.083-0.125,0.125c-0.043,0.042-0.083,0.083-0.125,0.125c-0.043,0.042-0.083,0.083-0.125,0.125
		c-0.043,0.042-0.083,0.083-0.125,0.125c-0.043,0.042-0.083,0.083-0.125,0.125c-0.043,0.042-0.083,0.083-0.125,0.125
		c-0.043,0.042-0.083,0.083-0.125,0.125c-0.043,0.042-0.083,0.083-0.125,0.125c-0.043,0.042-0.083,0.083-0.125,0.125
		c-0.043,0.042-0.083,0.083-0.125,0.125c-0.043,0.042-0.083,0.083-0.125,0.125c-0.043,0.042-0.083,0.083-0.125,0.125
		c-0.043,0.042-0.083,0.083-0.125,0.125c-0.043,0.041-0.082,0.082-0.124,0.123c-0.044,0.043-0.084,0.085-0.127,0.127
		c-0.043,0.042-0.083,0.084-0.125,0.125c-0.043,0.042-0.083,0.084-0.125,0.125c-0.043,0.042-0.083,0.084-0.125,0.125
		c-0.043,0.042-0.083,0.084-0.125,0.125c-0.043,0.042-0.083,0.084-0.125,0.125c-0.043,0.042-0.083,0.084-0.125,0.125
		c-0.043,0.042-0.083,0.084-0.125,0.125c-0.043,0.042-0.083,0.084-0.125,0.125c-0.043,0.042-0.083,0.084-0.125,0.125
		c-0.043,0.042-0.083,0.084-0.125,0.125c-0.043,0.042-0.083,0.084-0.125,0.125c-0.043,0.042-0.083,0.084-0.125,0.125
		c-0.043,0.042-0.083,0.084-0.125,0.125c-0.043,0.042-0.083,0.084-0.125,0.125c-0.043,0.042-0.083,0.084-0.125,0.125
		c-0.043,0.042-0.083,0.084-0.125,0.125c-0.043,0.042-0.083,0.084-0.125,0.125c-0.043,0.042-0.083,0.084-0.125,0.125
		c-0.043,0.042-0.083,0.084-0.125,0.125c-0.043,0.042-0.082,0.083-0.124,0.124c-0.044,0.042-0.083,0.084-0.126,0.126
		c-0.043,0.042-0.083,0.084-0.125,0.125c-0.043,0.042-0.083,0.084-0.125,0.125c-0.043,0.042-0.083,0.084-0.125,0.125
		c-0.043,0.042-0.083,0.084-0.125,0.125c-0.043,0.042-0.083,0.084-0.125,0.125c-0.043,0.042-0.083,0.084-0.125,0.125
		c-0.043,0.042-0.083,0.084-0.125,0.125c-0.043,0.042-0.083,0.084-0.125,0.125c-0.043,0.042-0.083,0.084-0.125,0.125
		c-0.043,0.042-0.083,0.084-0.125,0.125c-0.043,0.042-0.083,0.084-0.125,0.125c-0.043,0.042-0.083,0.084-0.125,0.125
		c-0.043,0.042-0.083,0.084-0.125,0.125c-0.043,0.042-0.083,0.084-0.125,0.125c-0.043,0.042-0.083,0.083-0.125,0.125
		c-0.043,0.042-0.083,0.084-0.125,0.125c-0.043,0.042-0.083,0.084-0.125,0.125c-0.043,0.042-0.083,0.084-0.125,0.125
		c-0.043,0.041-0.082,0.082-0.123,0.123c-0.044,0.042-0.084,0.085-0.127,0.127c-0.043,0.042-0.083,0.084-0.125,0.125
		c-0.043,0.042-0.083,0.084-0.125,0.125c-0.043,0.042-0.083,0.084-0.125,0.125c-0.043,0.042-0.083,0.084-0.125,0.125
		c-0.043,0.042-0.083,0.084-0.125,0.125c-0.043,0.042-0.083,0.084-0.125,0.125c-0.043,0.042-0.083,0.084-0.125,0.125
		c-0.043,0.042-0.083,0.084-0.125,0.125c-0.043,0.042-0.083,0.084-0.125,0.125c-0.043,0.042-0.083,0.084-0.125,0.125
		c-0.043,0.042-0.083,0.084-0.125,0.125c-0.043,0.042-0.083,0.084-0.125,0.125c-0.043,0.042-0.083,0.084-0.125,0.125
		c-0.043,0.042-0.083,0.084-0.125,0.125c-0.043,0.042-0.083,0.084-0.125,0.125c-0.043,0.042-0.083,0.084-0.125,0.125
		c-0.043,0.042-0.083,0.084-0.125,0.125c-0.043,0.042-0.083,0.084-0.125,0.125c-0.043,0.042-0.083,0.084-0.125,0.125
		c-0.043,0.042-0.082,0.083-0.125,0.125c-0.043,0.041-0.083,0.083-0.125,0.125c-0.043,0.042-0.083,0.083-0.125,0.125
		c-0.043,0.042-0.083,0.083-0.125,0.125c-0.043,0.042-0.083,0.083-0.125,0.125c-0.043,0.042-0.083,0.083-0.125,0.125
		c-0.043,0.042-0.083,0.083-0.125,0.125c-0.043,0.042-0.083,0.083-0.125,0.125c-0.043,0.042-0.083,0.083-0.125,0.125
		c-0.043,0.042-0.083,0.083-0.125,0.125c-0.043,0.042-0.083,0.083-0.125,0.125c-0.043,0.042-0.083,0.083-0.125,0.125
		c-0.043,0.042-0.083,0.083-0.125,0.125c-0.043,0.042-0.083,0.083-0.125,0.125c-0.043,0.042-0.083,0.083-0.125,0.125
		c-0.043,0.042-0.083,0.083-0.125,0.125c-0.043,0.042-0.083,0.083-0.125,0.125c-0.043,0.042-0.083,0.083-0.125,0.125
		c-0.043,0.042-0.083,0.083-0.125,0.125c-0.043,0.042-0.083,0.083-0.125,0.125c-0.043,0.041-0.082,0.082-0.124,0.123
		c-0.044,0.043-0.084,0.085-0.127,0.127c-0.043,0.042-0.083,0.084-0.125,0.125c-0.043,0.042-0.083,0.084-0.125,0.125
		c-0.043,0.042-0.083,0.084-0.125,0.125c-0.043,0.042-0.083,0.084-0.125,0.125c-0.043,0.042-0.083,0.084-0.125,0.125
		c-0.043,0.042-0.083,0.084-0.125,0.125c-0.043,0.042-0.083,0.084-0.125,0.125c-0.043,0.042-0.083,0.084-0.125,0.125
		c-0.043,0.042-0.083,0.084-0.125,0.125c-0.043,0.042-0.083,0.084-0.125,0.125c-0.043,0.042-0.083,0.084-0.125,0.125
		c-0.043,0.042-0.083,0.084-0.125,0.125c-0.043,0.042-0.083,0.084-0.125,0.125c-0.043,0.042-0.083,0.084-0.125,0.125
		c-0.043,0.042-0.083,0.084-0.125,0.125c-0.043,0.042-0.083,0.084-0.125,0.125c-0.043,0.042-0.083,0.084-0.125,0.125
		c-0.043,0.042-0.083,0.084-0.125,0.125c-0.043,0.042-0.083,0.084-0.125,0.125c-0.043,0.042-0.082,0.083-0.124,0.124
		c-0.044,0.042-0.083,0.084-0.126,0.126c-0.043,0.042-0.083,0.084-0.125,0.125c-0.043,0.042-0.083,0.084-0.125,0.125
		c-0.043,0.042-0.083,0.084-0.125,0.125c-0.043,0.042-0.083,0.084-0.125,0.125c-0.043,0.042-0.083,0.084-0.125,0.125
		c-0.043,0.042-0.083,0.084-0.125,0.125c-0.043,0.042-0.083,0.084-0.125,0.125c-0.043,0.042-0.083,0.084-0.125,0.125
		c-0.043,0.042-0.083,0.084-0.125,0.125c-0.043,0.042-0.083,0.084-0.125,0.125c-0.043,0.042-0.083,0.084-0.125,0.125
		c-0.043,0.042-0.083,0.084-0.125,0.125c-0.043,0.042-0.083,0.084-0.125,0.125c-0.043,0.042-0.083,0.083-0.125,0.125
		c-0.043,0.042-0.083,0.084-0.125,0.125c-0.043,0.042-0.083,0.084-0.125,0.125c-0.043,0.042-0.083,0.084-0.125,0.125
		c-0.043,0.042-0.083,0.084-0.125,0.125c-0.043,0.041-0.082,0.082-0.123,0.123c-0.044,0.042-0.084,0.085-0.127,0.127
		c-0.043,0.042-0.083,0.084-0.125,0.125c-0.043,0.042-0.083,0.084-0.125,0.125c-0.043,0.042-0.083,0.084-0.125,0.125
		c-0.043,0.042-0.083,0.084-0.125,0.125c-0.043,0.042-0.083,0.084-0.125,0.125c-0.043,0.042-0.083,0.084-0.125,0.125
		c-0.043,0.042-0.083,0.084-0.125,0.125c-0.043,0.042-0.083,0.084-0.125,0.125c-0.043,0.042-0.083,0.084-0.125,0.125
		c-0.043,0.042-0.083,0.084-0.125,0.125c-0.043,0.042-0.083,0.084-0.125,0.125c-0.043,0.042-0.083,0.084-0.125,0.125
		c-0.043,0.042-0.083,0.084-0.125,0.125c-0.043,0.042-0.083,0.084-0.125,0.125c-0.043,0.042-0.083,0.084-0.125,0.125
		c-0.043,0.042-0.083,0.084-0.125,0.125c-0.043,0.042-0.083,0.084-0.125,0.125c-0.043,0.042-0.083,0.084-0.125,0.125
		c-0.043,0.042-0.083,0.084-0.125,0.125c-0.043,0.042-0.082,0.083-0.125,0.125c-0.043,0.041-0.083,0.083-0.125,0.125
		c-0.043,0.042-0.083,0.083-0.125,0.125c-0.043,0.042-0.083,0.083-0.125,0.125c-0.043,0.042-0.083,0.083-0.125,0.125
		c-0.043,0.042-0.083,0.083-0.125,0.125c-0.043,0.042-0.083,0.083-0.125,0.125c-0.043,0.042-0.083,0.083-0.125,0.125
		c-0.043,0.042-0.083,0.083-0.125,0.125c-0.043,0.042-0.083,0.083-0.125,0.125c-0.043,0.042-0.083,0.083-0.125,0.125
		c-0.043,0.042-0.083,0.083-0.125,0.125c-0.043,0.042-0.083,0.083-0.125,0.125c-0.043,0.042-0.083,0.083-0.125,0.125
		c-0.043,0.042-0.083,0.083-0.125,0.125c-0.043,0.042-0.083,0.083-0.125,0.125c-0.043,0.042-0.083,0.083-0.125,0.125
		c-0.043,0.042-0.083,0.083-0.125,0.125c-0.043,0.042-0.083,0.083-0.125,0.125c-0.043,0.042-0.083,0.083-0.125,0.125
		c-0.043,0.041-0.082,0.082-0.124,0.123c-0.044,0.043-0.084,0.085-0.127,0.127c-0.043,0.042-0.083,0.084-0.125,0.125
		c-0.043,0.042-0.083,0.084-0.125,0.125c-0.043,0.042-0.083,0.084-0.125,0.125c-0.043,0.042-0.083,0.084-0.125,0.125
		c-0.043,0.042-0.083,0.084-0.125,0.125c-0.043,0.042-0.083,0.084-0.125,0.125c-0.043,0.042-0.083,0.084-0.125,0.125
		c-0.043,0.042-0.083,0.084-0.125,0.125c-0.043,0.042-0.083,0.084-0.125,0.125c-0.043,0.042-0.083,0.084-0.125,0.125
		c-0.043,0.042-0.083,0.084-0.125,0.125c-0.043,0.042-0.083,0.084-0.125,0.125c-0.043,0.042-0.083,0.084-0.125,0.125
		c-0.043,0.042-0.083,0.084-0.125,0.125c-0.043,0.042-0.083,0.083-0.125,0.125c-0.043,0.042-0.083,0.083-0.125,0.125
		c-0.043,0.042-0.083,0.084-0.125,0.125c-0.043,0.042-0.083,0.084-0.125,0.125c-0.043,0.042-0.083,0.084-0.125,0.125
		c-0.043,0.042-0.082,0.083-0.124,0.125c-0.044,0.041-0.083,0.083-0.126,0.125c-0.043,0.042-0.083,0.083-0.125,0.125
		c-0.043,0.042-0.083,0.083-0.125,0.125c-0.043,0.042-0.083,0.083-0.125,0.125c-0.043,0.042-0.083,0.083-0.125,0.125
		c-0.043,0.042-0.083,0.083-0.125,0.125c-0.043,0.042-0.083,0.083-0.125,0.125c-0.043,0.042-0.083,0.083-0.125,0.125
		c-0.043,0.042-0.083,0.083-0.125,0.125c-0.043,0.042-0.083,0.083-0.125,0.125c-0.043,0.042-0.083,0.083-0.125,0.125
		c-0.043,0.042-0.083,0.083-0.125,0.125c-0.043,0.042-0.083,0.083-0.125,0.125c-0.043,0.042-0.083,0.083-0.125,0.125
		c-0.043,0.042-0.083,0.083-0.125,0.125c-0.043,0.042-0.083,0.083-0.125,0.125c-0.043,0.042-0.083,0.083-0.125,0.125
		c-0.043,0.042-0.083,0.083-0.125,0.125c-0.043,0.042-0.083,0.083-0.125,0.125c-0.043,0.041-0.082,0.082-0.124,0.123
		c-0.044,0.043-0.084,0.085-0.127,0.127c-0.043,0.042-0.083,0.084-0.125,0.125c-0.043,0.042-0.083,0.084-0.125,0.125
		c-0.043,0.042-0.083,0.084-0.125,0.125c-0.043,0.042-0.083,0.084-0.125,0.125c-0.043,0.042-0.083,0.084-0.125,0.125
		c-0.043,0.042-0.083,0.084-0.125,0.125c-0.043,0.042-0.083,0.084-0.125,0.125c-0.043,0.042-0.083,0.084-0.125,0.125
		c-0.043,0.042-0.083,0.084-0.125,0.125c-0.043,0.042-0.083,0.084-0.125,0.125c-0.043,0.042-0.083,0.084-0.125,0.125
		c-0.043,0.042-0.083,0.084-0.125,0.125c-0.043,0.042-0.083,0.084-0.125,0.125c-0.043,0.042-0.083,0.083-0.125,0.125
		c-0.044,0.042-0.083,0.083-0.125,0.125c-0.043,0.042-0.083,0.084-0.125,0.125c-0.043,0.042-0.083,0.084-0.125,0.125
		c-0.043,0.042-0.083,0.084-0.125,0.125c-0.043,0.042-0.083,0.084-0.125,0.125c-0.043,0.042-0.082,0.083-0.125,0.125
		c-0.043,0.041-0.083,0.083-0.125,0.125c-0.043,0.042-0.083,0.083-0.125,0.125c-0.043,0.042-0.083,0.083-0.125,0.125
		c-0.043,0.042-0.083,0.083-0.125,0.125c-0.043,0.042-0.083,0.083-0.125,0.125c-0.043,0.042-0.083,0.083-0.125,0.125
		c-0.043,0.042-0.083,0.083-0.125,0.125c-0.043,0.042-0.083,0.083-0.125,0.125c-0.043,0.042-0.083,0.083-0.125,0.125
		c-0.043,0.042-0.083,0.083-0.125,0.125c-0.043,0.042-0.083,0.083-0.125,0.125c-0.043,0.042-0.083,0.083-0.125,0.125
		c-0.043,0.042-0.083,0.083-0.125,0.125c-0.043,0.042-0.083,0.083-0.125,0.125c-0.043,0.042-0.083,0.083-0.125,0.125
		c-0.043,0.042-0.083,0.083-0.125,0.125c-0.043,0.042-0.083,0.083-0.125,0.125c-0.043,0.042-0.083,0.083-0.125,0.125
		c-0.043,0.042-0.083,0.083-0.125,0.125c-0.043,0.041-0.082,0.082-0.124,0.123c-0.044,0.043-0.084,0.085-0.127,0.127
		c-0.043,0.042-0.083,0.084-0.125,0.125c-0.043,0.042-0.083,0.084-0.125,0.125c-0.043,0.042-0.083,0.084-0.125,0.125
		c-0.043,0.042-0.083,0.084-0.125,0.125c-0.043,0.042-0.083,0.084-0.125,0.125c-0.043,0.042-0.083,0.084-0.125,0.125
		c-0.043,0.042-0.083,0.084-0.125,0.125c-0.043,0.042-0.083,0.084-0.125,0.125c-0.043,0.042-0.083,0.084-0.125,0.125
		c-0.043,0.042-0.083,0.084-0.125,0.125c-0.043,0.042-0.083,0.084-0.125,0.125c-0.043,0.042-0.083,0.084-0.125,0.125
		c-0.043,0.042-0.083,0.084-0.125,0.125c-0.043,0.042-0.083,0.084-0.125,0.125c-0.043,0.042-0.083,0.083-0.125,0.125
		c-0.043,0.042-0.083,0.083-0.125,0.125c-0.043,0.042-0.083,0.084-0.125,0.125c-0.043,0.042-0.083,0.084-0.125,0.125
		c-0.043,0.042-0.083,0.084-0.125,0.125c-0.043,0.042-0.082,0.083-0.124,0.125c-0.044,0.041-0.083,0.083-0.126,0.125
		c-0.043,0.042-0.083,0.083-0.125,0.125c-0.043,0.042-0.083,0.083-0.125,0.125c-0.043,0.042-0.083,0.083-0.125,0.125
		c-0.043,0.042-0.083,0.083-0.125,0.125c-0.043,0.042-0.083,0.083-0.125,0.125c-0.043,0.042-0.083,0.083-0.125,0.125
		c-0.043,0.042-0.083,0.083-0.125,0.125c-1.007,0.962-1.694,1.941-2.02,2.919c-2.14,6.418,8.839,11.26,17.578,13.906
		c16.113,4.881,70.952,7.421,86.914-6.686c0.197-0.175,0.383-0.353,0.561-0.533c0.042-0.041,0.084-0.083,0.125-0.125
		c0.042-0.041,0.084-0.083,0.125-0.125c0.042-0.041,0.084-0.083,0.125-0.125c0.042-0.041,0.084-0.083,0.125-0.125
		c0.042-0.041,0.084-0.083,0.125-0.125c0.042-0.041,0.084-0.083,0.125-0.125c0.042-0.041,0.084-0.083,0.125-0.125
		c0.042-0.041,0.084-0.083,0.125-0.125c0.042-0.041,0.084-0.083,0.125-0.125c0.042-0.041,0.084-0.083,0.125-0.125
		c0.042-0.041,0.084-0.083,0.125-0.125c0.042-0.041,0.083-0.082,0.124-0.123c0.042-0.042,0.085-0.085,0.126-0.127
		c0.043-0.041,0.084-0.083,0.125-0.125c0.043-0.041,0.084-0.083,0.125-0.125c0.043-0.041,0.084-0.083,0.125-0.125
		c0.043-0.041,0.084-0.083,0.125-0.125c0.043-0.041,0.084-0.083,0.125-0.125c0.043-0.041,0.084-0.083,0.125-0.125
		c0.043-0.041,0.084-0.083,0.125-0.125c0.043-0.041,0.084-0.083,0.125-0.125c0.043-0.041,0.084-0.083,0.125-0.125
		c0.043-0.041,0.084-0.083,0.125-0.125c0.043-0.041,0.084-0.083,0.125-0.125c0.043-0.041,0.084-0.083,0.125-0.125
		c0.043-0.041,0.084-0.083,0.125-0.125c0.043-0.041,0.084-0.083,0.125-0.125c0.043-0.041,0.084-0.083,0.125-0.125
		c0.043-0.041,0.084-0.083,0.125-0.125c0.043-0.041,0.084-0.083,0.125-0.125c0.043-0.041,0.084-0.083,0.125-0.125
		c0.043-0.041,0.084-0.083,0.125-0.125c0.043-0.041,0.084-0.083,0.125-0.125c0.04-0.039,0.08-0.079,0.119-0.118
		c0.044-0.044,0.088-0.088,0.132-0.132c0.042-0.041,0.083-0.083,0.125-0.125c0.042-0.041,0.083-0.083,0.125-0.125
		c0.042-0.041,0.083-0.083,0.125-0.125c0.042-0.041,0.083-0.083,0.125-0.125c0.042-0.041,0.083-0.083,0.125-0.125
		c0.042-0.041,0.083-0.083,0.125-0.125c0.042-0.041,0.083-0.083,0.125-0.125c0.042-0.041,0.083-0.083,0.125-0.125
		c0.042-0.041,0.083-0.083,0.125-0.125c0.042-0.041,0.083-0.083,0.125-0.125c0.042-0.041,0.083-0.083,0.125-0.125
		c0.042-0.041,0.083-0.083,0.125-0.125c0.042-0.041,0.083-0.083,0.125-0.125c0.042-0.041,0.083-0.083,0.125-0.125
		c0.042-0.041,0.083-0.083,0.125-0.125c0.042-0.041,0.083-0.083,0.125-0.125c0.042-0.041,0.083-0.083,0.125-0.125
		c0.042-0.041,0.083-0.083,0.125-0.125c0.042-0.041,0.083-0.083,0.125-0.125c0.042-0.041,0.083-0.083,0.125-0.125
		c0.042-0.041,0.083-0.083,0.125-0.125c0.042-0.041,0.083-0.083,0.125-0.125c0.042-0.041,0.083-0.083,0.125-0.125
		c0.042-0.041,0.083-0.083,0.125-0.125c0.042-0.041,0.083-0.083,0.125-0.125c0.042-0.041,0.083-0.083,0.125-0.125
		c0.042-0.041,0.083-0.083,0.125-0.125c0.042-0.041,0.083-0.083,0.125-0.125c0.042-0.041,0.083-0.083,0.125-0.125
		c0.042-0.041,0.083-0.083,0.125-0.125c0.042-0.041,0.083-0.083,0.125-0.125c0.042-0.041,0.083-0.083,0.125-0.125
		c0.042-0.041,0.083-0.083,0.125-0.125c0.042-0.041,0.083-0.083,0.125-0.125c0.042-0.041,0.083-0.083,0.125-0.125
		c0.042-0.041,0.083-0.083,0.125-0.125c0.042-0.041,0.083-0.083,0.125-0.125c0.042-0.041,0.083-0.083,0.125-0.125
		c0.042-0.041,0.083-0.083,0.125-0.125c0.042-0.041,0.083-0.083,0.125-0.125c0.042-0.041,0.083-0.083,0.125-0.125
		c0.042-0.041,0.083-0.083,0.125-0.125c0.042-0.041,0.083-0.083,0.125-0.125c0.042-0.041,0.083-0.083,0.125-0.125
		c0.042-0.041,0.083-0.083,0.125-0.125c0.042-0.041,0.083-0.083,0.125-0.125c0.042-0.041,0.083-0.083,0.125-0.125
		c0.042-0.041,0.083-0.083,0.125-0.125c0.042-0.041,0.083-0.083,0.125-0.125c0.042-0.041,0.083-0.083,0.125-0.125
		c0.042-0.041,0.084-0.083,0.125-0.125c0.042-0.041,0.084-0.083,0.125-0.125c0.042-0.041,0.084-0.083,0.125-0.125
		c0.042-0.041,0.084-0.083,0.125-0.125c0.042-0.041,0.084-0.083,0.125-0.125c0.042-0.041,0.083-0.082,0.124-0.123
		c0.043-0.042,0.084-0.085,0.126-0.127c0.043-0.041,0.084-0.083,0.125-0.125c0.043-0.041,0.084-0.083,0.125-0.125
		c0.043-0.041,0.084-0.083,0.125-0.125c0.043-0.041,0.084-0.083,0.125-0.125c0.043-0.041,0.084-0.083,0.125-0.125
		c0.043-0.041,0.084-0.083,0.125-0.125c0.043-0.041,0.084-0.083,0.125-0.125c0.043-0.041,0.084-0.083,0.125-0.125
		c0.043-0.041,0.084-0.083,0.125-0.125c0.043-0.041,0.084-0.083,0.125-0.125c0.043-0.041,0.084-0.083,0.125-0.125
		c0.043-0.041,0.084-0.083,0.125-0.125c0.043-0.041,0.084-0.083,0.125-0.125c0.043-0.041,0.084-0.083,0.125-0.125
		c0.043-0.041,0.084-0.083,0.125-0.125c0.043-0.041,0.084-0.083,0.125-0.125c0.043-0.041,0.084-0.083,0.125-0.125
		c0.043-0.041,0.084-0.083,0.125-0.125c0.043-0.041,0.084-0.083,0.125-0.125c0.043-0.041,0.084-0.083,0.125-0.125
		c0.04-0.039,0.08-0.079,0.119-0.118c0.044-0.044,0.088-0.088,0.132-0.132c0.042-0.041,0.084-0.083,0.125-0.125
		c0.042-0.041,0.084-0.083,0.125-0.125c0.042-0.041,0.084-0.083,0.125-0.125c0.042-0.041,0.084-0.083,0.125-0.125
		c0.042-0.041,0.084-0.083,0.125-0.125c0.042-0.041,0.084-0.083,0.125-0.125c0.042-0.041,0.084-0.083,0.125-0.125
		c0.042-0.041,0.084-0.083,0.125-0.125c0.042-0.041,0.084-0.083,0.125-0.125c0.042-0.041,0.084-0.083,0.125-0.125
		c0.042-0.041,0.084-0.083,0.125-0.125c0.042-0.041,0.084-0.083,0.125-0.125c0.042-0.041,0.084-0.083,0.125-0.125
		c0.042-0.041,0.084-0.083,0.125-0.125c0.042-0.041,0.084-0.083,0.125-0.125c0.042-0.041,0.084-0.083,0.125-0.125
		c0.042-0.041,0.084-0.083,0.125-0.125c0.042-0.041,0.084-0.083,0.125-0.125c0.042-0.041,0.084-0.083,0.125-0.125
		c0.042-0.041,0.084-0.083,0.125-0.125c0.042-0.041,0.084-0.083,0.125-0.125c0.042-0.041,0.084-0.083,0.125-0.125
		c0.042-0.041,0.084-0.083,0.125-0.125c0.042-0.041,0.084-0.083,0.125-0.125c0.042-0.041,0.084-0.083,0.125-0.125
		c0.042-0.041,0.084-0.083,0.125-0.125c0.042-0.041,0.084-0.083,0.125-0.125c0.042-0.041,0.084-0.083,0.125-0.125
		c0.042-0.041,0.084-0.083,0.125-0.125c0.042-0.041,0.084-0.083,0.125-0.125c0.042-0.041,0.084-0.083,0.125-0.125
		c0.042-0.041,0.084-0.083,0.125-0.125c0.042-0.041,0.084-0.083,0.125-0.125c0.042-0.041,0.084-0.083,0.125-0.125
		c0.042-0.041,0.084-0.083,0.125-0.125c0.042-0.041,0.084-0.083,0.125-0.125c0.042-0.041,0.084-0.083,0.125-0.125
		c0.042-0.041,0.084-0.083,0.125-0.125c0.042-0.041,0.084-0.083,0.125-0.125c0.042-0.041,0.084-0.083,0.125-0.125
		c0.042-0.041,0.084-0.083,0.125-0.125c0.042-0.041,0.084-0.083,0.125-0.125c0.042-0.041,0.084-0.083,0.125-0.125
		c0.042-0.041,0.084-0.083,0.125-0.125c0.042-0.041,0.084-0.083,0.125-0.125c0.042-0.041,0.084-0.083,0.125-0.125
		c0.042-0.041,0.084-0.083,0.125-0.125c0.042-0.041,0.084-0.083,0.125-0.125c0.042-0.041,0.084-0.083,0.125-0.125
		c0.042-0.041,0.084-0.083,0.125-0.125c0.042-0.041,0.084-0.083,0.125-0.125c0.042-0.041,0.084-0.083,0.125-0.125
		c0.042-0.041,0.084-0.083,0.125-0.125c0.042-0.041,0.084-0.083,0.125-0.125c0.042-0.041,0.084-0.083,0.125-0.125
		c0.042-0.041,0.084-0.083,0.125-0.125c0.042-0.041,0.084-0.083,0.125-0.125c0.042-0.041,0.084-0.083,0.125-0.125
		c0.042-0.041,0.084-0.083,0.125-0.125c0.042-0.041,0.084-0.083,0.125-0.125c0.042-0.041,0.084-0.083,0.125-0.125
		c0.042-0.041,0.083-0.082,0.124-0.123c0.042-0.042,0.085-0.085,0.126-0.127c0.043-0.041,0.084-0.083,0.125-0.125
		c0.043-0.041,0.084-0.083,0.125-0.125c0.043-0.041,0.084-0.083,0.125-0.125c0.043-0.041,0.084-0.083,0.125-0.125
		c0.043-0.041,0.084-0.083,0.125-0.125c0.043-0.041,0.084-0.083,0.125-0.125c0.043-0.041,0.084-0.083,0.125-0.125
		c0.043-0.041,0.084-0.083,0.125-0.125c0.043-0.041,0.084-0.083,0.125-0.125c0.043-0.041,0.084-0.083,0.125-0.125
		c0.043-0.041,0.084-0.083,0.125-0.125c0.043-0.041,0.084-0.083,0.125-0.125c0.043-0.041,0.084-0.083,0.125-0.125
		c0.043-0.041,0.084-0.083,0.125-0.125c0.043-0.041,0.084-0.083,0.125-0.125c0.043-0.041,0.084-0.083,0.125-0.125
		c0.043-0.041,0.084-0.083,0.125-0.125c0.043-0.041,0.084-0.083,0.125-0.125c0.043-0.041,0.084-0.083,0.125-0.125
		c0.043-0.041,0.084-0.083,0.125-0.125c0.04-0.039,0.08-0.079,0.119-0.118c0.044-0.044,0.088-0.088,0.132-0.132
		c0.042-0.041,0.083-0.083,0.125-0.125c0.042-0.041,0.083-0.083,0.125-0.125c0.042-0.041,0.083-0.083,0.125-0.125
		c0.042-0.041,0.083-0.083,0.125-0.125c0.042-0.041,0.083-0.083,0.125-0.125c0.042-0.041,0.083-0.083,0.125-0.125
		c0.042-0.041,0.083-0.083,0.125-0.125c0.042-0.041,0.083-0.083,0.125-0.125c0.042-0.041,0.083-0.083,0.125-0.125
		c0.042-0.041,0.083-0.083,0.125-0.125c0.042-0.041,0.083-0.083,0.125-0.125c0.042-0.041,0.083-0.083,0.125-0.125
		c0.042-0.041,0.083-0.083,0.125-0.125c0.042-0.041,0.083-0.083,0.125-0.125c0.042-0.041,0.083-0.083,0.125-0.125
		c0.042-0.041,0.083-0.083,0.125-0.125c0.042-0.041,0.083-0.083,0.125-0.125c0.042-0.041,0.083-0.083,0.125-0.125
		c0.042-0.041,0.083-0.083,0.125-0.125c0.042-0.041,0.083-0.083,0.125-0.125c0.042-0.041,0.083-0.083,0.125-0.125
		c0.042-0.041,0.083-0.083,0.125-0.125c0.042-0.041,0.083-0.083,0.125-0.125c0.042-0.041,0.083-0.083,0.125-0.125
		c0.042-0.041,0.083-0.083,0.125-0.125c0.042-0.041,0.083-0.083,0.125-0.125c0.042-0.041,0.083-0.083,0.125-0.125
		c0.042-0.041,0.083-0.083,0.125-0.125c0.042-0.041,0.083-0.083,0.125-0.125c0.042-0.041,0.083-0.083,0.125-0.125
		c0.042-0.041,0.083-0.083,0.125-0.125c0.042-0.041,0.083-0.083,0.125-0.125c0.042-0.041,0.083-0.083,0.125-0.125
		c0.042-0.041,0.083-0.083,0.125-0.125c0.042-0.041,0.083-0.083,0.125-0.125c0.042-0.041,0.083-0.083,0.125-0.125
		c0.042-0.041,0.083-0.083,0.125-0.125c0.042-0.041,0.083-0.083,0.125-0.125c0.042-0.041,0.083-0.083,0.125-0.125
		c0.042-0.041,0.083-0.083,0.125-0.125c0.042-0.041,0.083-0.083,0.125-0.125c0.042-0.041,0.083-0.083,0.125-0.125
		c0.042-0.041,0.083-0.083,0.125-0.125c0.042-0.041,0.083-0.083,0.125-0.125c0.042-0.041,0.083-0.083,0.125-0.125
		c0.042-0.041,0.083-0.083,0.125-0.125c0.042-0.041,0.083-0.083,0.125-0.125c0.042-0.041,0.083-0.083,0.125-0.125
		c0.042-0.041,0.083-0.083,0.125-0.125c0.042-0.041,0.084-0.083,0.125-0.125c0.042-0.041,0.084-0.083,0.125-0.125
		c0.042-0.041,0.084-0.083,0.125-0.125c0.042-0.041,0.084-0.083,0.125-0.125c0.042-0.041,0.084-0.083,0.125-0.125
		c0.042-0.041,0.084-0.083,0.125-0.125c0.042-0.041,0.083-0.082,0.124-0.123c0.043-0.042,0.084-0.085,0.126-0.127
		c0.043-0.041,0.084-0.083,0.125-0.125c0.043-0.041,0.084-0.083,0.125-0.125c0.043-0.041,0.084-0.083,0.125-0.125
		c0.043-0.041,0.084-0.083,0.125-0.125c0.043-0.041,0.084-0.083,0.125-0.125c0.043-0.041,0.084-0.083,0.125-0.125
		c0.043-0.041,0.084-0.083,0.125-0.125c0.043-0.041,0.084-0.083,0.125-0.125c0.043-0.041,0.084-0.083,0.125-0.125
		c0.043-0.041,0.084-0.083,0.125-0.125c0.043-0.041,0.084-0.083,0.125-0.125c0.043-0.041,0.084-0.083,0.125-0.125
		c0.043-0.041,0.084-0.083,0.125-0.125c0.043-0.041,0.084-0.083,0.125-0.125c0.043-0.041,0.084-0.083,0.125-0.125
		c0.043-0.041,0.084-0.083,0.125-0.125c0.043-0.041,0.084-0.083,0.125-0.125c0.043-0.041,0.084-0.083,0.125-0.125
		c0.043-0.041,0.084-0.083,0.125-0.125c0.043-0.041,0.084-0.083,0.125-0.125c0.04-0.039,0.08-0.079,0.119-0.118
		c0.044-0.044,0.088-0.088,0.132-0.132c0.042-0.041,0.084-0.083,0.125-0.125c0.042-0.041,0.084-0.083,0.125-0.125
		c0.042-0.041,0.084-0.083,0.125-0.125c0.042-0.041,0.084-0.083,0.125-0.125c0.042-0.041,0.084-0.083,0.125-0.125
		c0.042-0.041,0.084-0.083,0.125-0.125c0.042-0.041,0.084-0.083,0.125-0.125c0.042-0.041,0.084-0.083,0.125-0.125
		c0.042-0.041,0.084-0.083,0.125-0.125c0.042-0.041,0.084-0.083,0.125-0.125c0.042-0.041,0.084-0.083,0.125-0.125
		c0.042-0.041,0.084-0.083,0.125-0.125c0.042-0.041,0.084-0.083,0.125-0.125c0.042-0.041,0.084-0.083,0.125-0.125
		c0.042-0.041,0.084-0.083,0.125-0.125c0.042-0.041,0.084-0.083,0.125-0.125c0.042-0.041,0.084-0.083,0.125-0.125
		c0.042-0.041,0.084-0.083,0.125-0.125c0.042-0.041,0.084-0.083,0.125-0.125c0.042-0.041,0.084-0.083,0.125-0.125
		c0.042-0.041,0.084-0.083,0.125-0.125c0.042-0.041,0.084-0.083,0.125-0.125c0.042-0.041,0.084-0.083,0.125-0.125
		c0.042-0.041,0.084-0.083,0.125-0.125c0.042-0.041,0.084-0.083,0.125-0.125c0.042-0.041,0.084-0.083,0.125-0.125
		c0.042-0.041,0.084-0.083,0.125-0.125c0.042-0.041,0.084-0.083,0.125-0.125c0.042-0.041,0.084-0.083,0.125-0.125
		c0.042-0.041,0.084-0.083,0.125-0.125c0.042-0.041,0.084-0.083,0.125-0.125c0.042-0.041,0.084-0.083,0.125-0.125
		c0.042-0.041,0.084-0.083,0.125-0.125c0.042-0.041,0.084-0.083,0.125-0.125c0.042-0.041,0.084-0.083,0.125-0.125
		c0.042-0.041,0.084-0.083,0.125-0.125c0.042-0.041,0.084-0.083,0.125-0.125c0.042-0.041,0.084-0.083,0.125-0.125
		c0.042-0.041,0.084-0.083,0.125-0.125c0.042-0.041,0.084-0.083,0.125-0.125c0.042-0.041,0.084-0.083,0.125-0.125
		c0.042-0.041,0.084-0.083,0.125-0.125c0.042-0.041,0.084-0.083,0.125-0.125c0.042-0.041,0.084-0.083,0.125-0.125
		c0.042-0.041,0.084-0.083,0.125-0.125c0.042-0.041,0.084-0.083,0.125-0.125c0.042-0.041,0.084-0.083,0.125-0.125
		c0.042-0.041,0.084-0.083,0.125-0.125c0.042-0.041,0.084-0.083,0.125-0.125c0.042-0.041,0.084-0.083,0.125-0.125
		c0.042-0.041,0.084-0.083,0.125-0.125c0.042-0.041,0.084-0.083,0.125-0.125c0.042-0.041,0.084-0.083,0.125-0.125
		c0.042-0.041,0.084-0.083,0.125-0.125c0.042-0.041,0.084-0.083,0.125-0.125c0.042-0.041,0.084-0.083,0.125-0.125
		c0.042-0.041,0.084-0.083,0.125-0.125c0.042-0.041,0.084-0.083,0.125-0.125c0.042-0.041,0.084-0.083,0.125-0.125
		c0.042-0.041,0.084-0.083,0.125-0.125c0.042-0.041,0.084-0.083,0.125-0.125c0.042-0.041,0.083-0.082,0.124-0.123
		c0.042-0.042,0.085-0.085,0.126-0.127c0.043-0.041,0.084-0.083,0.125-0.125c0.043-0.041,0.084-0.083,0.125-0.125
		c0.043-0.041,0.084-0.083,0.125-0.125c0.043-0.041,0.084-0.083,0.125-0.125c0.043-0.041,0.084-0.083,0.125-0.125
		c0.043-0.041,0.084-0.083,0.125-0.125c0.043-0.041,0.084-0.083,0.125-0.125c0.043-0.041,0.084-0.083,0.125-0.125
		c0.043-0.041,0.084-0.083,0.125-0.125c0.043-0.041,0.084-0.083,0.125-0.125c0.043-0.041,0.084-0.083,0.125-0.125
		c0.043-0.041,0.084-0.083,0.125-0.125c0.043-0.041,0.084-0.083,0.125-0.125c0.043-0.041,0.084-0.083,0.125-0.125
		c0.043-0.041,0.084-0.083,0.125-0.125c0.043-0.041,0.084-0.083,0.125-0.125c0.043-0.041,0.084-0.083,0.125-0.125
		c0.043-0.041,0.084-0.083,0.125-0.125c0.043-0.041,0.084-0.083,0.125-0.125c0.043-0.041,0.084-0.083,0.125-0.125
		c0.04-0.039,0.08-0.079,0.119-0.118c0.044-0.044,0.088-0.088,0.132-0.132c0.042-0.041,0.083-0.083,0.125-0.125
		c0.042-0.041,0.083-0.083,0.125-0.125c0.042-0.041,0.083-0.083,0.125-0.125c0.042-0.041,0.083-0.083,0.125-0.125
		c0.042-0.041,0.083-0.083,0.125-0.125c0.042-0.041,0.083-0.083,0.125-0.125c0.042-0.041,0.083-0.083,0.125-0.125
		c0.042-0.041,0.083-0.083,0.125-0.125c0.042-0.041,0.083-0.083,0.125-0.125c0.042-0.041,0.083-0.083,0.125-0.125
		c0.042-0.041,0.083-0.083,0.125-0.125c0.042-0.041,0.083-0.083,0.125-0.125c0.042-0.041,0.083-0.083,0.125-0.125
		c0.042-0.041,0.083-0.083,0.125-0.125c0.042-0.041,0.083-0.083,0.125-0.125c0.042-0.041,0.083-0.083,0.125-0.125
		c0.042-0.041,0.083-0.083,0.125-0.125c0.042-0.041,0.083-0.083,0.125-0.125c0.042-0.041,0.083-0.083,0.125-0.125
		c0.042-0.041,0.083-0.083,0.125-0.125c0.042-0.041,0.083-0.083,0.125-0.125c0.042-0.041,0.083-0.083,0.125-0.125
		c0.042-0.041,0.083-0.083,0.125-0.125c0.042-0.041,0.083-0.083,0.125-0.125c0.042-0.041,0.083-0.083,0.125-0.125
		c0.042-0.041,0.083-0.083,0.125-0.125c0.042-0.041,0.083-0.083,0.125-0.125c0.042-0.041,0.083-0.083,0.125-0.125
		c0.042-0.041,0.083-0.083,0.125-0.125c0.042-0.041,0.083-0.083,0.125-0.125c0.042-0.041,0.083-0.083,0.125-0.125
		c0.042-0.041,0.083-0.083,0.125-0.125c0.042-0.041,0.083-0.083,0.125-0.125c0.042-0.041,0.083-0.083,0.125-0.125
		c0.042-0.041,0.083-0.083,0.125-0.125c0.042-0.041,0.083-0.083,0.125-0.125C117.799,76.458,118.436,73.637,116.507,70.678z"/>
</g>
<g>
	<path fill="#FFFFFF" d="M91.985,56.426c0.256,0.231,0.577,0.346,0.897,0.346c0.364,0,0.728-0.148,0.991-0.439
		c0.496-0.548,0.454-1.393-0.094-1.889c-4.032-3.651-2.601-5.643-0.229-8.942c2.315-3.222,5.487-7.636,0.367-13.909
		c-0.467-0.572-1.309-0.658-1.881-0.191s-0.658,1.31-0.191,1.882c3.824,4.687,1.836,7.454-0.467,10.657
		C89.063,47.162,86.182,51.171,91.985,56.426z"/>
	<path fill="#FFFFFF" d="M82.091,56.426c0.256,0.231,0.577,0.346,0.896,0.346c0.364,0,0.728-0.148,0.991-0.439
		c0.496-0.548,0.454-1.393-0.094-1.889c-4.032-3.651-2.601-5.643-0.229-8.942c2.315-3.222,5.487-7.636,0.367-13.909
		c-0.467-0.572-1.309-0.658-1.881-0.191s-0.658,1.31-0.19,1.882c3.824,4.687,1.835,7.454-0.468,10.657
		C79.168,47.162,76.286,51.171,82.091,56.426z"/>
	<path fill="#FFFFFF" d="M72.195,56.426c0.256,0.231,0.577,0.346,0.896,0.346c0.364,0,0.728-0.148,0.991-0.439
		c0.496-0.548,0.454-1.393-0.094-1.889c-4.031-3.651-2.601-5.643-0.229-8.942c2.315-3.222,5.487-7.636,0.367-13.909
		c-0.467-0.572-1.309-0.658-1.881-0.191s-0.657,1.31-0.19,1.882c3.824,4.687,1.835,7.454-0.468,10.657
		C69.273,47.162,66.391,51.171,72.195,56.426z"/>
	<path fill="#FFFFFF" d="M116.881,70.678c-3.268-5.015-15.381-8.824-20.381-9.36c0,0.714,0,1.872,0,2.942
		c13,3.309,15.309,6.06,15.309,8.824c0,6.174-24.859,10.346-49.224,9.895c-23.118-0.429-46.583-5.203-46.583-9.717
		c0-8.166,27.498-12.137,50.498-11.644c0-1.236,0-2.501,0-3.644c-29-1.537-53.97,6.317-56.544,14.039
		c-2.139,6.418,9.09,11.26,17.828,13.906c16.114,4.881,71.263,7.421,87.226-6.686C117.781,76.785,118.922,73.809,116.881,70.678z"/>
	<circle fill="#FFFFFF" cx="73.851" cy="73.663" r="3.343"/>
	<circle fill="#FFFFFF" cx="43.095" cy="74.732" r="3.343"/>
	<circle fill="#FFFFFF" cx="58.338" cy="71.256" r="2.006"/>
	<circle fill="#FFFFFF" cx="48.443" cy="67.245" r="2.006"/>
	<circle fill="#FFFFFF" cx="80.536" cy="67.512" r="2.005"/>
	<circle fill="#FFFFFF" cx="90.432" cy="71.257" r="3.343"/>
</g>
</svg>
