<?xml version="1.0" encoding="utf-8"?>
<!-- Generator: Adobe Illustrator 16.0.3, SVG Export Plug-In . SVG Version: 6.00 Build 0)  -->
<!DOCTYPE svg PUBLIC "-//W3C//DTD SVG 1.1//EN" "http://www.w3.org/Graphics/SVG/1.1/DTD/svg11.dtd">
<svg version="1.1" id="Layer_1" xmlns="http://www.w3.org/2000/svg" xmlns:xlink="http://www.w3.org/1999/xlink" x="0px" y="0px"
	 width="128px" height="128px" viewBox="0 0 128 128" enable-background="new 0 0 128 128" xml:space="preserve">
<path fill="#444953" d="M128,25c0-13.807-11.193-25-25.002-25H25.002C11.194,0,0,11.193,0,25v78c0,13.807,11.194,25,25.002,25
	h77.996C116.807,128,128,116.807,128,103V25z"/>
<g>
	<g>
		<defs>
			<path id="SVGID_1_" d="M128,25c0-13.807-11.193-25-25.002-25H25.002C11.194,0,0,11.193,0,25v78c0,13.807,11.194,25,25.002,25
				h77.996C116.807,128,128,116.807,128,103V25z"/>
		</defs>
		<clipPath id="SVGID_2_">
			<use xlink:href="#SVGID_1_"  overflow="visible"/>
		</clipPath>
		<path clip-path="url(#SVGID_2_)" fill="#353A42" enable-background="new    " d="M97.588,69.949
			c-0.52-0.896-1.665-1.204-2.563-0.686l-6.496,3.75c-0.154,0.09-0.285,0.202-0.404,0.325c-0.045,0.039-0.084,0.083-0.125,0.125
			c-0.045,0.039-0.084,0.083-0.125,0.125c-0.045,0.039-0.084,0.083-0.125,0.125c-0.045,0.039-0.084,0.083-0.125,0.125
			c-0.045,0.039-0.084,0.083-0.125,0.125c-0.045,0.039-0.084,0.083-0.125,0.125c-0.045,0.039-0.084,0.083-0.125,0.125
			c-0.045,0.039-0.084,0.083-0.125,0.125c-0.045,0.039-0.084,0.083-0.125,0.125c-0.045,0.039-0.084,0.083-0.125,0.125
			c-0.045,0.039-0.084,0.083-0.125,0.125c-0.045,0.039-0.084,0.083-0.125,0.125c-0.045,0.039-0.084,0.083-0.125,0.125
			c-0.045,0.039-0.084,0.083-0.125,0.125c-0.045,0.039-0.084,0.083-0.125,0.125c-0.045,0.039-0.084,0.083-0.125,0.125
			c-0.045,0.039-0.084,0.083-0.125,0.125c-0.045,0.039-0.084,0.083-0.125,0.125c-0.045,0.039-0.084,0.083-0.125,0.125
			c-0.045,0.039-0.084,0.083-0.125,0.125c-0.029,0.025-0.057,0.054-0.083,0.08c-0.009-5.384-0.034-9.75-0.034-11.699
			c15.085-25.5,8.969-43.014-4.584-43.014c-28.264,0-40.896,8.668-45.81,13.507c-0.044,0.043-0.082,0.083-0.125,0.125
			c-0.044,0.043-0.082,0.083-0.125,0.125c-0.044,0.043-0.082,0.083-0.125,0.125c-0.044,0.043-0.082,0.083-0.125,0.125
			c-0.044,0.043-0.082,0.083-0.125,0.125c-0.044,0.043-0.082,0.083-0.125,0.125c-0.044,0.043-0.082,0.083-0.125,0.125
			c-0.044,0.043-0.082,0.083-0.125,0.125c-0.044,0.043-0.082,0.083-0.125,0.125c-0.044,0.043-0.082,0.083-0.125,0.125
			c-0.044,0.043-0.082,0.083-0.125,0.125c-0.044,0.043-0.082,0.083-0.125,0.125c-0.044,0.043-0.082,0.083-0.125,0.125
			c-0.043,0.042-0.08,0.081-0.122,0.123c-0.045,0.044-0.084,0.084-0.128,0.128c-0.044,0.043-0.082,0.083-0.125,0.125
			c-0.044,0.043-0.082,0.083-0.125,0.125c-0.044,0.043-0.082,0.083-0.125,0.125c-0.044,0.043-0.082,0.083-0.125,0.125
			c-0.044,0.042-0.081,0.082-0.124,0.124c-0.044,0.043-0.083,0.083-0.125,0.125c-0.043,0.042-0.08,0.08-0.122,0.122
			c-0.045,0.044-0.084,0.085-0.129,0.128c-0.044,0.043-0.082,0.083-0.125,0.125c-0.044,0.043-0.082,0.083-0.125,0.125
			c-0.044,0.043-0.082,0.083-0.125,0.125c-0.044,0.043-0.082,0.083-0.125,0.125c-0.044,0.043-0.082,0.083-0.125,0.125
			c-0.044,0.043-0.082,0.083-0.125,0.125c-0.044,0.043-0.082,0.083-0.125,0.125c-0.044,0.043-0.082,0.083-0.125,0.125
			c-0.044,0.043-0.082,0.083-0.125,0.125c-0.044,0.043-0.082,0.083-0.125,0.125c-0.044,0.043-0.082,0.083-0.125,0.125
			c-0.044,0.043-0.082,0.083-0.125,0.125c-0.044,0.043-0.082,0.083-0.125,0.125c-0.044,0.043-0.082,0.083-0.125,0.125
			c-0.044,0.043-0.082,0.083-0.125,0.125c-0.044,0.043-0.082,0.083-0.125,0.125c-0.044,0.043-0.082,0.083-0.125,0.125
			c-0.044,0.043-0.082,0.083-0.125,0.125c-0.044,0.043-0.082,0.083-0.125,0.125c-0.044,0.043-0.082,0.083-0.125,0.125
			c-0.044,0.043-0.082,0.083-0.125,0.125c-0.044,0.043-0.082,0.083-0.125,0.125c-0.044,0.043-0.082,0.083-0.125,0.125
			c-0.044,0.043-0.082,0.083-0.125,0.125c-0.044,0.043-0.082,0.083-0.125,0.125c-0.044,0.043-0.082,0.083-0.125,0.125
			c-0.044,0.043-0.082,0.083-0.125,0.125c-0.044,0.043-0.082,0.083-0.125,0.125c-0.044,0.043-0.082,0.083-0.125,0.125
			c-0.044,0.043-0.082,0.083-0.125,0.125c-0.044,0.043-0.082,0.083-0.125,0.125c-0.043,0.042-0.08,0.081-0.122,0.123
			c-0.045,0.044-0.084,0.084-0.128,0.128c-0.044,0.043-0.082,0.083-0.125,0.125c-0.044,0.043-0.082,0.083-0.125,0.125
			c-0.044,0.043-0.082,0.083-0.125,0.125c-0.044,0.043-0.082,0.083-0.125,0.125c-0.044,0.042-0.081,0.082-0.124,0.124
			c-0.044,0.043-0.083,0.083-0.125,0.125c-0.043,0.042-0.08,0.08-0.122,0.122c-0.045,0.044-0.084,0.085-0.129,0.128
			c-0.044,0.043-0.082,0.083-0.125,0.125c-0.044,0.043-0.082,0.083-0.125,0.125c-0.044,0.043-0.082,0.083-0.125,0.125
			c-0.044,0.043-0.082,0.083-0.125,0.125c-0.044,0.043-0.082,0.083-0.125,0.125c-0.044,0.043-0.082,0.083-0.125,0.125
			c-0.044,0.043-0.082,0.083-0.125,0.125c-0.044,0.043-0.082,0.083-0.125,0.125c-0.044,0.043-0.082,0.083-0.125,0.125
			c-0.044,0.043-0.082,0.083-0.125,0.125c-0.044,0.043-0.082,0.083-0.125,0.125c-0.044,0.043-0.082,0.083-0.125,0.125
			c-0.044,0.043-0.082,0.083-0.125,0.125c-0.044,0.043-0.082,0.083-0.125,0.125c-0.044,0.043-0.082,0.083-0.125,0.125
			c-0.044,0.043-0.082,0.083-0.125,0.125c-0.044,0.043-0.082,0.083-0.125,0.125c-0.044,0.043-0.082,0.083-0.125,0.125
			c-0.044,0.043-0.082,0.083-0.125,0.125c-0.044,0.043-0.082,0.083-0.125,0.125c-0.044,0.043-0.082,0.083-0.125,0.125
			c-0.044,0.043-0.082,0.083-0.125,0.125c-0.044,0.043-0.082,0.083-0.125,0.125c-0.044,0.043-0.082,0.083-0.125,0.125
			c-0.044,0.043-0.082,0.083-0.125,0.125c-0.044,0.043-0.082,0.083-0.125,0.125c-0.044,0.043-0.082,0.083-0.125,0.125
			c-0.044,0.043-0.082,0.083-0.125,0.125c-0.044,0.043-0.082,0.083-0.125,0.125c-0.044,0.043-0.082,0.083-0.125,0.125
			c-0.044,0.043-0.082,0.083-0.125,0.125c-0.043,0.042-0.08,0.081-0.122,0.123c-0.045,0.044-0.084,0.084-0.128,0.128
			c-0.044,0.043-0.082,0.083-0.125,0.125c-0.044,0.043-0.082,0.083-0.125,0.125c-0.044,0.043-0.082,0.083-0.125,0.125
			c-0.044,0.043-0.082,0.083-0.125,0.125c-0.044,0.042-0.081,0.082-0.124,0.124c-0.044,0.043-0.083,0.083-0.125,0.125
			c-0.043,0.042-0.08,0.08-0.122,0.122c-0.045,0.044-0.084,0.085-0.129,0.128c-0.044,0.043-0.082,0.083-0.125,0.125
			c-0.044,0.043-0.082,0.083-0.125,0.125c-0.044,0.043-0.082,0.083-0.125,0.125c-0.044,0.043-0.082,0.083-0.125,0.125
			c-0.044,0.043-0.082,0.083-0.125,0.125c-0.044,0.043-0.082,0.083-0.125,0.125c-0.044,0.043-0.082,0.083-0.125,0.125
			c-0.044,0.043-0.082,0.083-0.125,0.125c-0.044,0.043-0.082,0.083-0.125,0.125c-0.044,0.043-0.082,0.083-0.125,0.125
			c-0.044,0.043-0.082,0.083-0.125,0.125c-0.044,0.043-0.082,0.083-0.125,0.125c-0.044,0.043-0.082,0.083-0.125,0.125
			c-0.044,0.043-0.082,0.083-0.125,0.125c-0.044,0.043-0.082,0.083-0.125,0.125c-0.044,0.043-0.082,0.083-0.125,0.125
			c-0.044,0.043-0.082,0.083-0.125,0.125c-0.044,0.043-0.082,0.083-0.125,0.125c-0.044,0.043-0.082,0.083-0.125,0.125
			c-0.044,0.043-0.082,0.083-0.125,0.125c-0.044,0.043-0.082,0.083-0.125,0.125c-0.044,0.043-0.082,0.083-0.125,0.125
			c-0.044,0.043-0.082,0.083-0.125,0.125c-0.044,0.043-0.082,0.083-0.125,0.125c-0.044,0.043-0.082,0.083-0.125,0.125
			c-0.044,0.043-0.082,0.083-0.125,0.125c-0.044,0.043-0.082,0.083-0.125,0.125c-0.044,0.043-0.082,0.083-0.125,0.125
			c-0.044,0.043-0.082,0.083-0.125,0.125c-0.044,0.043-0.082,0.083-0.125,0.125c-0.043,0.042-0.08,0.081-0.122,0.123
			c-0.045,0.044-0.084,0.084-0.128,0.128c-0.044,0.043-0.082,0.083-0.125,0.125c-0.044,0.043-0.082,0.083-0.125,0.125
			c-0.044,0.043-0.082,0.083-0.125,0.125c-0.044,0.043-0.082,0.083-0.125,0.125c-0.044,0.043-0.082,0.083-0.125,0.125
			c-0.044,0.042-0.081,0.082-0.124,0.124c-0.043,0.042-0.08,0.081-0.122,0.122c-0.045,0.044-0.084,0.085-0.129,0.128
			c-0.044,0.043-0.082,0.083-0.125,0.125c-0.044,0.043-0.082,0.083-0.125,0.125c-0.044,0.043-0.082,0.083-0.125,0.125
			c-0.044,0.043-0.082,0.083-0.125,0.125c-0.044,0.043-0.082,0.083-0.125,0.125c-0.044,0.043-0.082,0.083-0.125,0.125
			c-0.044,0.043-0.082,0.083-0.125,0.125c-0.044,0.043-0.082,0.083-0.125,0.125c-0.044,0.043-0.082,0.083-0.125,0.125
			c-0.044,0.043-0.082,0.083-0.125,0.125c-0.044,0.043-0.082,0.083-0.125,0.125c-0.044,0.043-0.082,0.083-0.125,0.125
			c-0.044,0.043-0.082,0.083-0.125,0.125c-0.044,0.043-0.082,0.083-0.125,0.125c-0.044,0.043-0.082,0.083-0.125,0.125
			c-0.044,0.043-0.082,0.083-0.125,0.125c-0.044,0.043-0.082,0.083-0.125,0.125c-0.044,0.043-0.082,0.083-0.125,0.125
			c-0.044,0.043-0.082,0.083-0.125,0.125c-0.044,0.043-0.082,0.083-0.125,0.125c-0.044,0.043-0.082,0.083-0.125,0.125
			c-0.044,0.043-0.082,0.083-0.125,0.125c-0.044,0.043-0.082,0.083-0.125,0.125c-0.044,0.043-0.082,0.083-0.125,0.125
			c-0.044,0.043-0.082,0.083-0.125,0.125c-0.044,0.043-0.082,0.083-0.125,0.125c-0.044,0.043-0.082,0.083-0.125,0.125
			c-0.044,0.043-0.082,0.083-0.125,0.125c-0.044,0.043-0.082,0.083-0.125,0.125c-0.044,0.043-0.082,0.083-0.125,0.125
			c-0.044,0.043-0.082,0.083-0.125,0.125c-0.044,0.043-0.082,0.083-0.125,0.125c-0.043,0.042-0.08,0.081-0.122,0.123
			c-0.045,0.044-0.084,0.084-0.128,0.128c-0.044,0.043-0.082,0.083-0.125,0.125c-0.044,0.043-0.082,0.083-0.125,0.125
			c-0.044,0.043-0.082,0.083-0.125,0.125c-0.044,0.043-0.082,0.083-0.125,0.125c-0.044,0.042-0.081,0.082-0.124,0.124
			c-0.044,0.043-0.083,0.083-0.125,0.125c-0.043,0.042-0.08,0.08-0.122,0.122c-0.045,0.044-0.084,0.085-0.129,0.128
			c-0.044,0.043-0.082,0.083-0.125,0.125c-0.044,0.043-0.082,0.083-0.125,0.125c-0.044,0.043-0.082,0.083-0.125,0.125
			c-0.044,0.043-0.082,0.083-0.125,0.125c-0.044,0.043-0.082,0.083-0.125,0.125c-0.044,0.043-0.082,0.083-0.125,0.125
			c-0.044,0.043-0.082,0.083-0.125,0.125c-0.044,0.043-0.082,0.083-0.125,0.125c-0.044,0.043-0.082,0.083-0.125,0.125
			c-0.044,0.043-0.082,0.083-0.125,0.125c-0.044,0.043-0.082,0.083-0.125,0.125c-0.044,0.043-0.082,0.083-0.125,0.125
			c-0.044,0.043-0.082,0.083-0.125,0.125c-0.044,0.043-0.082,0.083-0.125,0.125c-0.044,0.043-0.082,0.083-0.125,0.125
			c-0.044,0.043-0.082,0.083-0.125,0.125c-0.044,0.043-0.082,0.083-0.125,0.125c-0.044,0.043-0.082,0.083-0.125,0.125
			c-0.044,0.043-0.082,0.083-0.125,0.125c-0.044,0.043-0.082,0.083-0.125,0.125c-0.044,0.043-0.082,0.083-0.125,0.125
			c-0.044,0.043-0.082,0.083-0.125,0.125c-0.044,0.043-0.082,0.083-0.125,0.125c-0.044,0.043-0.082,0.083-0.125,0.125
			c-0.044,0.043-0.082,0.083-0.125,0.125c-0.044,0.043-0.082,0.083-0.125,0.125c-0.044,0.043-0.082,0.083-0.125,0.125
			c-0.044,0.043-0.082,0.083-0.125,0.125c-0.044,0.043-0.082,0.083-0.125,0.125c-0.045,0.044-0.084,0.085-0.128,0.128
			c-0.042,0.042-0.078,0.079-0.119,0.12c-0.045,0.044-0.084,0.084-0.128,0.128c-0.044,0.043-0.082,0.083-0.125,0.125
			c-0.044,0.043-0.082,0.083-0.125,0.125c-0.044,0.043-0.082,0.083-0.125,0.125c-0.044,0.043-0.082,0.083-0.125,0.125
			c-0.044,0.043-0.082,0.083-0.125,0.125c-0.044,0.042-0.081,0.082-0.124,0.124c-0.043,0.042-0.08,0.081-0.122,0.122
			c-0.045,0.044-0.084,0.085-0.129,0.129c-0.044,0.043-0.082,0.083-0.125,0.125c-0.044,0.043-0.082,0.083-0.125,0.125
			c-0.044,0.043-0.082,0.083-0.125,0.125c-0.044,0.043-0.082,0.083-0.125,0.125c-0.044,0.043-0.082,0.083-0.125,0.125
			c-0.044,0.043-0.082,0.083-0.125,0.125c-0.044,0.043-0.082,0.083-0.125,0.125c-0.044,0.043-0.082,0.083-0.125,0.125
			c-0.044,0.043-0.082,0.083-0.125,0.125c-0.044,0.043-0.082,0.083-0.125,0.125c-0.044,0.043-0.082,0.083-0.125,0.125
			c-0.044,0.043-0.082,0.083-0.125,0.125c-0.044,0.043-0.082,0.083-0.125,0.125c-0.044,0.043-0.082,0.083-0.125,0.125
			c-0.044,0.043-0.082,0.083-0.125,0.125c-0.044,0.042-0.082,0.083-0.125,0.125c-0.044,0.043-0.082,0.083-0.125,0.125
			c-0.044,0.043-0.082,0.083-0.125,0.125c-0.044,0.043-0.082,0.083-0.125,0.125c-0.044,0.043-0.082,0.083-0.125,0.125
			c-0.044,0.043-0.082,0.083-0.125,0.125c-0.044,0.043-0.082,0.083-0.125,0.125c-0.044,0.043-0.082,0.083-0.125,0.125
			c-0.044,0.043-0.082,0.083-0.125,0.125c-0.044,0.043-0.082,0.083-0.125,0.125c-0.044,0.043-0.082,0.083-0.125,0.125
			c-0.044,0.043-0.082,0.083-0.125,0.125c-0.044,0.043-0.082,0.083-0.125,0.125c-0.044,0.043-0.082,0.083-0.125,0.125
			c-0.044,0.043-0.082,0.083-0.125,0.125c-0.044,0.043-0.082,0.083-0.125,0.125c-0.044,0.043-0.082,0.083-0.125,0.125
			c-0.043,0.042-0.08,0.081-0.122,0.123c-0.045,0.044-0.084,0.084-0.128,0.128c-0.044,0.043-0.082,0.082-0.125,0.125
			c-0.044,0.043-0.082,0.082-0.125,0.125c-0.044,0.043-0.082,0.082-0.125,0.125c-0.044,0.043-0.082,0.082-0.125,0.125
			c-0.044,0.042-0.081,0.082-0.124,0.124c-0.044,0.043-0.083,0.083-0.125,0.125c-0.042,0.042-0.08,0.08-0.122,0.122
			c-0.045,0.044-0.084,0.085-0.129,0.128c-0.045,0.043-0.082,0.083-0.125,0.125c-0.044,0.043-0.082,0.083-0.125,0.125
			c-0.044,0.043-0.082,0.083-0.125,0.125c-0.044,0.043-0.082,0.083-0.125,0.125c-0.044,0.043-0.082,0.083-0.125,0.125
			c-0.044,0.043-0.082,0.083-0.125,0.125c-0.044,0.043-0.082,0.083-0.125,0.125c-0.044,0.043-0.082,0.083-0.125,0.125
			c-0.044,0.043-0.082,0.083-0.125,0.125c-0.044,0.043-0.082,0.083-0.125,0.125c-0.044,0.043-0.082,0.083-0.125,0.125
			c-0.044,0.043-0.082,0.083-0.125,0.125c-0.044,0.043-0.082,0.083-0.125,0.125c-0.044,0.043-0.082,0.083-0.125,0.125
			c-0.044,0.043-0.082,0.083-0.125,0.125c-0.044,0.043-0.082,0.083-0.125,0.125c-0.044,0.043-0.082,0.083-0.125,0.125
			c-0.044,0.043-0.082,0.083-0.125,0.125c-0.044,0.043-0.082,0.083-0.125,0.125c-0.044,0.043-0.082,0.083-0.125,0.125
			c-0.044,0.043-0.082,0.083-0.125,0.125c-0.044,0.043-0.082,0.083-0.125,0.125c-0.044,0.043-0.082,0.083-0.125,0.125
			c-0.044,0.043-0.082,0.083-0.125,0.125c-0.044,0.043-0.082,0.083-0.125,0.125c-0.044,0.043-0.082,0.083-0.125,0.125
			c-0.044,0.043-0.082,0.083-0.125,0.125c-0.044,0.043-0.082,0.083-0.125,0.125c-0.044,0.043-0.082,0.083-0.125,0.125
			c-0.044,0.043-0.082,0.083-0.125,0.125c-0.043,0.042-0.08,0.081-0.122,0.123c-0.045,0.044-0.084,0.084-0.128,0.127
			c-0.044,0.043-0.082,0.083-0.125,0.125c-0.044,0.043-0.082,0.083-0.125,0.125c-0.044,0.043-0.082,0.083-0.125,0.125
			c-0.044,0.043-0.082,0.083-0.125,0.125c-0.044,0.043-0.082,0.083-0.125,0.125c-0.044,0.043-0.082,0.082-0.124,0.124
			c-0.043,0.042-0.081,0.081-0.123,0.123c-0.045,0.044-0.084,0.085-0.129,0.128c-0.044,0.043-0.082,0.083-0.125,0.125
			c-0.044,0.043-0.082,0.083-0.125,0.125c-0.044,0.043-0.082,0.083-0.125,0.125c-0.044,0.043-0.082,0.083-0.125,0.125
			c-0.044,0.043-0.082,0.083-0.125,0.125c-0.044,0.043-0.082,0.083-0.125,0.125c-0.044,0.043-0.082,0.083-0.125,0.125
			c-0.044,0.043-0.082,0.083-0.125,0.125c-0.044,0.043-0.082,0.083-0.125,0.125c-0.044,0.043-0.082,0.083-0.125,0.125
			c-1.671,1.624-2.735,2.841-2.986,3.194C-4.605,79.532-2,85.941-2,89.35C-2,102.102-2,122-2,128c0,0,0.493,0,0.492,0
			c-0.044,0-0.085,0.078-0.125,0.121c-0.044,0.04-0.085,0.08-0.125,0.123c-0.044,0.04-0.085,0.081-0.125,0.124
			c-0.044,0.04-0.085,0.081-0.125,0.124c-0.044,0.041-0.085,0.082-0.125,0.125c-0.044,0.04-0.085,0.082-0.125,0.125
			c-0.044,0.04-0.085,0.082-0.125,0.125c-0.044,0.04-0.085,0.082-0.125,0.125c-0.044,0.04-0.085,0.082-0.125,0.125
			c-0.044,0.04-0.085,0.082-0.125,0.125c-0.044,0.04-0.085,0.082-0.125,0.125c-0.044,0.04-0.085,0.082-0.125,0.125
			c-0.044,0.04-0.085,0.082-0.125,0.125c-0.044,0.04-0.085,0.082-0.125,0.125c-0.044,0.04-0.085,0.082-0.125,0.125
			c-0.044,0.04-0.085,0.082-0.125,0.125c-0.044,0.04-0.085,0.082-0.125,0.125c-0.044,0.04-0.085,0.082-0.125,0.125
			c-0.044,0.04-0.085,0.082-0.125,0.125c-0.044,0.04-0.085,0.082-0.125,0.125c-0.044,0.04-0.085,0.082-0.125,0.125
			c-0.044,0.04-0.085,0.082-0.125,0.125c-0.044,0.04-0.085,0.082-0.125,0.125c-0.044,0.04-0.085,0.081-0.125,0.125
			c-0.044,0.04-0.086,0.082-0.126,0.126c-0.044,0.039-0.085,0.081-0.125,0.125c-0.044,0.039-0.085,0.081-0.125,0.125
			c-0.044,0.039-0.085,0.081-0.125,0.125c-0.044,0.039-0.085,0.081-0.125,0.125c-0.044,0.039-0.085,0.081-0.125,0.125
			c-0.043,0.039-0.085,0.08-0.125,0.124c-0.044,0.04-0.085,0.082-0.125,0.126c-0.044,0.039-0.085,0.081-0.125,0.125
			c-0.044,0.039-0.085,0.081-0.125,0.125c-0.044,0.039-0.085,0.081-0.125,0.125c-0.044,0.039-0.085,0.081-0.125,0.125
			c-0.044,0.039-0.085,0.081-0.125,0.125c-0.044,0.039-0.085,0.081-0.125,0.125c-0.044,0.039-0.085,0.081-0.125,0.124
			c-0.044,0.04-0.085,0.082-0.125,0.125c-0.044,0.04-0.085,0.082-0.125,0.125c-0.044,0.04-0.085,0.082-0.125,0.125
			c-0.377,0.344-0.618,1.083-0.618,1.633c0,1.035,0.839,2.125,1.875,2.125h55.006c0.549,0,1.039-0.491,1.382-0.868
			c0.043-0.039,0.085-0.206,0.125-0.25c0.043-0.039,0.085-0.144,0.125-0.188c0.043-0.039,0.085-0.111,0.125-0.155
			c0.043-0.039,0.085-0.097,0.125-0.142c0.043-0.039,0.085-0.088,0.125-0.133c0.043-0.039,0.085-0.085,0.125-0.129
			c0.043-0.039,0.085-0.083,0.125-0.127c0.043-0.039,0.085-0.082,0.125-0.126c0.043-0.039,0.085-0.082,0.125-0.125
			c0.043-0.039,0.085-0.082,0.125-0.126c0.043-0.039,0.085-0.081,0.125-0.125c0.043-0.039,0.085-0.081,0.125-0.125
			c0.043-0.039,0.085-0.081,0.125-0.125c0.043-0.039,0.085-0.081,0.125-0.125c0.043-0.039,0.085-0.081,0.125-0.125
			c0.043-0.039,0.085-0.081,0.125-0.125c0.043-0.039,0.085-0.081,0.125-0.125c0.043-0.039,0.085-0.081,0.125-0.125
			c0.043-0.039,0.085-0.081,0.125-0.125c0.043-0.039,0.085-0.081,0.125-0.125c0.043-0.039,0.085-0.081,0.125-0.125
			c0.043-0.039,0.085-0.081,0.125-0.125c0.043-0.039,0.085-0.081,0.125-0.125c0.043-0.039,0.085-0.081,0.125-0.125
			c0.043-0.039,0.085-0.081,0.125-0.125c0.043-0.039,0.085-0.081,0.125-0.125c0.043-0.039,0.085-0.081,0.125-0.125
			c0.043-0.039,0.085-0.081,0.125-0.125c0.043-0.039,0.085-0.081,0.125-0.125c0.043-0.039,0.085-0.081,0.125-0.125
			c0.043-0.039,0.085-0.081,0.125-0.125c0.043-0.039,0.085-0.081,0.125-0.125c0.043-0.039,0.085-0.081,0.125-0.125
			c0.043-0.039,0.085-0.081,0.125-0.125c0.043-0.039,0.085-0.081,0.125-0.125c0.043-0.039,0.085-0.081,0.125-0.125
			c0.043-0.039,0.085-0.081,0.125-0.125c0.043-0.039,0.085-0.081,0.125-0.125c0.043-0.039,0.085-0.081,0.125-0.125
			c0.043-0.039,0.085-0.081,0.125-0.125c0.043-0.039,0.085-0.081,0.125-0.125c0.043-0.039,0.085-0.081,0.125-0.125
			c0.043-0.039,0.085-0.081,0.125-0.125c0.043-0.039,0.085-0.081,0.125-0.125c0.043-0.039,0.085-0.081,0.125-0.125
			c0.043-0.039,0.085-0.081,0.125-0.125c0.043-0.039,0.085-0.081,0.125-0.125c0.043-0.039,0.085-0.081,0.125-0.125
			c0.043-0.039,0.085-0.081,0.125-0.125c0.043-0.039,0.085-0.081,0.125-0.125c0.043-0.039,0.085-0.081,0.125-0.125
			c0.043-0.039,0.085-0.081,0.125-0.125c0.043-0.039,0.085-0.081,0.125-0.125c0.043-0.039,0.085-0.081,0.125-0.125
			c0.043-0.039,0.085-0.081,0.125-0.125c0.043-0.039,0.085-0.081,0.125-0.125c0.043-0.039,0.085-0.081,0.125-0.125
			c0.043-0.039,0.085-0.081,0.125-0.125c0.043-0.039,0.084-0.08,0.124-0.123c0.044-0.041,0.086-0.082,0.126-0.127
			c0.044-0.04,0.085-0.081,0.125-0.125c0.044-0.04,0.085-0.081,0.125-0.125c0.044-0.04,0.085-0.081,0.125-0.125
			c0.044-0.04,0.085-0.081,0.125-0.125c0.044-0.04,0.085-0.081,0.125-0.125c0.043-0.039,0.084-0.08,0.124-0.124
			c0.044-0.04,0.086-0.082,0.126-0.126c0.043-0.04,0.085-0.081,0.125-0.125c0.043-0.04,0.085-0.081,0.125-0.125
			c0.043-0.04,0.085-0.081,0.125-0.125c0.043-0.04,0.085-0.081,0.125-0.125c0.043-0.04,0.085-0.081,0.125-0.125
			c0.043-0.04,0.085-0.081,0.125-0.125c0.043-0.039,0.085-0.081,0.125-0.124c0.044-0.04,0.085-0.082,0.125-0.126
			c0.043-0.039,0.085-0.081,0.125-0.125c0.043-0.039,0.085-0.081,0.125-0.125c0.043-0.039,0.085-0.081,0.125-0.125
			c0.043-0.039,0.085-0.081,0.125-0.125c0.043-0.039,0.085-0.081,0.125-0.125c0.043-0.039,0.085-0.081,0.125-0.125
			c0.043-0.039,0.085-0.081,0.125-0.125c0.043-0.039,0.085-0.081,0.125-0.125c0.043-0.039,0.085-0.081,0.125-0.125
			c0.043-0.039,0.085-0.081,0.125-0.125c0.043-0.039,0.085-0.081,0.125-0.125c0.043-0.039,0.085-0.081,0.125-0.125
			c0.043-0.039,0.085-0.081,0.125-0.125c0.043-0.039,0.085-0.081,0.125-0.125c0.043-0.039,0.085-0.081,0.125-0.125
			c0.043-0.039,0.085-0.081,0.125-0.125c0.043-0.039,0.085-0.081,0.125-0.125c0.043-0.039,0.085-0.081,0.125-0.125
			c0.043-0.039,0.085-0.081,0.125-0.125c0.043-0.039,0.085-0.081,0.125-0.125c0.043-0.039,0.085-0.081,0.125-0.125
			c0.043-0.039,0.085-0.081,0.125-0.125c0.043-0.039,0.085-0.081,0.125-0.125c0.043-0.039,0.085-0.081,0.125-0.125
			c0.043-0.039,0.085-0.081,0.125-0.125c0.043-0.039,0.085-0.081,0.125-0.125c0.043-0.039,0.085-0.081,0.125-0.125
			c0.043-0.039,0.085-0.081,0.125-0.125c0.043-0.039,0.085-0.081,0.125-0.125c0.043-0.039,0.085-0.081,0.125-0.125
			c0.043-0.039,0.085-0.081,0.125-0.125c0.043-0.039,0.085-0.081,0.125-0.125c0.043-0.039,0.085-0.081,0.125-0.125
			c0.043-0.039,0.085-0.081,0.125-0.125c0.043-0.039,0.084-0.081,0.125-0.125c0.043-0.039,0.084-0.081,0.125-0.125
			c0.043-0.039,0.084-0.081,0.125-0.125c0.043-0.039,0.084-0.081,0.125-0.125c0.043-0.039,0.086-0.081,0.125-0.125
			c0.043-0.039,0.086-0.081,0.125-0.125c0.043-0.039,0.086-0.081,0.125-0.125c0.043-0.039,0.086-0.081,0.125-0.125
			c0.043-0.039,0.086-0.081,0.125-0.125c0.043-0.039,0.086-0.081,0.125-0.125c0.043-0.039,0.086-0.081,0.125-0.125
			c0.043-0.039,0.086-0.081,0.125-0.125c0.043-0.039,0.086-0.081,0.125-0.125c0.043-0.039,0.086-0.081,0.125-0.125
			c0.043-0.039,0.086-0.081,0.125-0.125c0.043-0.039,0.086-0.081,0.125-0.125c0.043-0.039,0.086-0.081,0.125-0.125
			c0.043-0.039,0.086-0.081,0.125-0.125c0.043-0.039,0.086-0.081,0.125-0.125c0.043-0.039,0.086-0.081,0.125-0.125
			c0.043-0.039,0.086-0.081,0.125-0.125c0.043-0.039,0.086-0.081,0.125-0.125c0.043-0.039,0.086-0.081,0.125-0.125
			c0.043-0.039,0.086-0.081,0.125-0.125c0.043-0.039,0.086-0.081,0.125-0.125c0.043-0.039,0.086-0.081,0.125-0.125
			c0.043-0.039,0.086-0.081,0.125-0.125c0.043-0.039,0.086-0.081,0.125-0.125c0.043-0.039,0.086-0.081,0.125-0.125
			c0.043-0.039,0.086-0.081,0.125-0.125c0.043-0.039,0.086-0.081,0.125-0.125c0.043-0.039,0.086-0.081,0.125-0.125
			c0.043-0.039,0.084-0.08,0.123-0.123c0.045-0.041,0.088-0.082,0.127-0.127c0.045-0.04,0.086-0.081,0.125-0.125
			c0.045-0.04,0.086-0.081,0.125-0.125c0.045-0.04,0.086-0.081,0.125-0.125c0.045-0.04,0.086-0.081,0.125-0.125
			c0.045-0.039,0.086-0.08,0.125-0.124c0.043-0.04,0.086-0.082,0.125-0.126c0.045-0.04,0.086-0.081,0.125-0.125
			c0.045-0.04,0.086-0.081,0.125-0.125c0.045-0.04,0.086-0.081,0.125-0.125c0.045-0.04,0.086-0.081,0.125-0.125
			c0.045-0.04,0.086-0.081,0.125-0.125c0.045-0.04,0.086-0.081,0.125-0.125c0.045-0.04,0.086-0.081,0.125-0.125
			c0.045-0.039,0.086-0.081,0.125-0.124c0.045-0.04,0.086-0.082,0.125-0.126c0.045-0.039,0.086-0.081,0.125-0.125
			c0.045-0.039,0.086-0.081,0.125-0.125c0.045-0.039,0.086-0.081,0.125-0.125c0.045-0.039,0.086-0.081,0.125-0.125
			c0.045-0.039,0.086-0.081,0.125-0.125c0.045-0.039,0.086-0.081,0.125-0.125c0.045-0.039,0.086-0.081,0.125-0.125
			c0.045-0.039,0.086-0.081,0.125-0.125c0.045-0.039,0.086-0.081,0.125-0.125c0.045-0.039,0.086-0.081,0.125-0.125
			c0.045-0.039,0.086-0.081,0.125-0.125c0.045-0.039,0.086-0.081,0.125-0.125c0.045-0.039,0.086-0.081,0.125-0.125
			c0.045-0.039,0.086-0.081,0.125-0.125c0.045-0.039,0.086-0.081,0.125-0.125c0.045-0.039,0.086-0.081,0.125-0.125
			c0.045-0.039,0.086-0.081,0.125-0.125c0.045-0.039,0.086-0.081,0.125-0.125c0.045-0.039,0.086-0.081,0.125-0.125
			c0.045-0.039,0.086-0.081,0.125-0.125c0.045-0.039,0.086-0.081,0.125-0.125c0.045-0.039,0.086-0.081,0.125-0.125
			c0.045-0.039,0.086-0.081,0.125-0.125c0.045-0.039,0.086-0.081,0.125-0.125c0.045-0.039,0.086-0.081,0.125-0.125
			c0.045-0.039,0.086-0.081,0.125-0.125c0.045-0.039,0.086-0.081,0.125-0.125c0.045-0.039,0.086-0.081,0.125-0.125
			c0.045-0.039,0.086-0.081,0.125-0.125c0.045-0.039,0.086-0.081,0.125-0.125c0.045-0.039,0.086-0.081,0.125-0.125
			c0.045-0.039,0.086-0.081,0.125-0.125c0.045-0.039,0.086-0.081,0.125-0.125c0.045-0.039,0.086-0.081,0.125-0.125
			c0.045-0.039,0.086-0.081,0.125-0.125c0.045-0.039,0.086-0.081,0.125-0.125c0.045-0.039,0.086-0.081,0.125-0.125
			c0.045-0.039,0.086-0.081,0.125-0.125c0.045-0.039,0.086-0.081,0.125-0.125c0.045-0.039,0.086-0.081,0.125-0.125
			c0.045-0.039,0.086-0.081,0.125-0.125c0.045-0.039,0.086-0.081,0.125-0.125c0.045-0.039,0.086-0.081,0.125-0.125
			c0.045-0.039,0.086-0.081,0.125-0.125c0.045-0.039,0.086-0.081,0.125-0.125c0.045-0.039,0.086-0.081,0.125-0.125
			c0.045-0.039,0.086-0.081,0.125-0.125c0.045-0.039,0.086-0.081,0.125-0.125c0.045-0.039,0.086-0.081,0.125-0.125
			c0.045-0.039,0.086-0.081,0.125-0.125c0.045-0.039,0.086-0.081,0.125-0.125c0.045-0.039,0.086-0.081,0.125-0.125
			c0.045-0.039,0.086-0.081,0.125-0.125c0.045-0.039,0.086-0.081,0.125-0.125c0.045-0.039,0.086-0.081,0.125-0.125
			c0.045-0.039,0.086-0.081,0.125-0.125c0.045-0.039,0.086-0.081,0.125-0.125c0.045-0.039,0.086-0.081,0.125-0.125
			c0.045-0.039,0.086-0.081,0.125-0.125c0.045-0.039,0.086-0.081,0.125-0.125c0.045-0.039,0.086-0.081,0.125-0.125
			c0.045-0.039,0.086-0.081,0.125-0.125c0.045-0.039,0.086-0.081,0.125-0.125c0.045-0.039,0.086-0.081,0.125-0.125
			c0.045-0.039,0.086-0.08,0.125-0.123c0.045-0.041,0.086-0.082,0.127-0.127c0.043-0.04,0.084-0.081,0.125-0.125
			c0.043-0.04,0.084-0.081,0.125-0.125c0.043-0.04,0.084-0.081,0.125-0.125c0.043-0.04,0.084-0.081,0.125-0.125
			c0.043-0.04,0.084-0.081,0.125-0.125c0.043-0.039,0.084-0.08,0.123-0.124c0.045-0.04,0.086-0.082,0.127-0.126
			c0.043-0.04,0.086-0.081,0.125-0.125c0.043-0.04,0.086-0.081,0.125-0.125c0.043-0.04,0.086-0.081,0.125-0.125
			c0.043-0.04,0.086-0.081,0.125-0.125c0.043-0.04,0.086-0.081,0.125-0.125c0.043-0.04,0.086-0.081,0.125-0.125
			c0.043-0.039,0.084-0.081,0.125-0.124c0.043-0.04,0.084-0.082,0.125-0.126c0.043-0.039,0.086-0.081,0.125-0.125
			c0.043-0.039,0.086-0.081,0.125-0.125c0.043-0.039,0.086-0.081,0.125-0.125c0.043-0.039,0.086-0.081,0.125-0.125
			c0.043-0.039,0.086-0.081,0.125-0.125c0.043-0.039,0.086-0.081,0.125-0.125c0.043-0.039,0.086-0.081,0.125-0.125
			c0.043-0.039,0.086-0.081,0.125-0.125c0.043-0.039,0.086-0.081,0.125-0.125c0.043-0.039,0.086-0.081,0.125-0.125
			c0.043-0.039,0.086-0.081,0.125-0.125c0.043-0.039,0.086-0.081,0.125-0.125c0.043-0.039,0.086-0.081,0.125-0.125
			c0.043-0.039,0.086-0.081,0.125-0.125c0.043-0.039,0.086-0.081,0.125-0.125c0.043-0.039,0.086-0.081,0.125-0.125
			c0.043-0.039,0.086-0.081,0.125-0.125c0.043-0.039,0.086-0.081,0.125-0.125c0.043-0.039,0.086-0.081,0.125-0.125
			c0.043-0.039,0.086-0.081,0.125-0.125c0.043-0.039,0.086-0.081,0.125-0.125c0.043-0.039,0.086-0.081,0.125-0.125
			c0.043-0.039,0.086-0.081,0.125-0.125c0.043-0.039,0.086-0.081,0.125-0.125c0.043-0.039,0.086-0.081,0.125-0.125
			c0.043-0.039,0.086-0.081,0.125-0.125c0.043-0.039,0.086-0.081,0.125-0.125c0.043-0.039,0.086-0.081,0.125-0.125
			c0.043-0.039,0.086-0.081,0.125-0.125c0.043-0.039,0.086-0.081,0.125-0.125c0.043-0.039,0.086-0.081,0.125-0.125
			c0.043-0.039,0.086-0.081,0.125-0.125c0.043-0.039,0.086-0.081,0.125-0.125c0.043-0.039,0.086-0.081,0.125-0.125
			c0.043-0.039,0.086-0.081,0.125-0.125c0.043-0.039,0.086-0.081,0.125-0.125c0.043-0.039,0.086-0.081,0.125-0.125
			c0.043-0.039,0.086-0.081,0.125-0.125c0.043-0.039,0.086-0.081,0.125-0.125c0.043-0.039,0.086-0.081,0.125-0.125
			c0.043-0.039,0.086-0.081,0.125-0.125c0.043-0.039,0.086-0.081,0.125-0.125c0.043-0.039,0.086-0.081,0.125-0.125
			c0.043-0.039,0.086-0.081,0.125-0.125c0.043-0.039,0.086-0.081,0.125-0.125c0.043-0.039,0.086-0.081,0.125-0.125
			c0.043-0.039,0.086-0.081,0.125-0.125c0.043-0.039,0.086-0.081,0.125-0.125c0.043-0.039,0.086-0.081,0.125-0.125
			c0.043-0.039,0.086-0.081,0.125-0.125c0.043-0.039,0.086-0.081,0.125-0.125c0.043-0.039,0.086-0.081,0.125-0.125
			c0.043-0.039,0.086-0.081,0.125-0.125c0.043-0.039,0.086-0.081,0.125-0.125c0.043-0.039,0.086-0.081,0.125-0.125
			c0.043-0.039,0.086-0.081,0.125-0.125c0.043-0.039,0.086-0.081,0.125-0.125c0.043-0.039,0.086-0.081,0.125-0.125
			c0.043-0.039,0.086-0.081,0.125-0.125c0.043-0.039,0.086-0.081,0.125-0.125c0.043-0.039,0.086-0.081,0.125-0.125
			c0.043-0.039,0.086-0.081,0.125-0.125c0.043-0.039,0.086-0.081,0.125-0.125c0.043-0.039,0.086-0.081,0.125-0.125
			c0.043-0.039,0.086-0.081,0.125-0.125c0.043-0.039,0.086-0.081,0.125-0.125c0.043-0.039,0.084-0.08,0.123-0.123
			c0.045-0.041,0.088-0.082,0.127-0.127c0.045-0.04,0.086-0.081,0.125-0.125c0.045-0.04,0.086-0.081,0.125-0.125
			c0.045-0.04,0.086-0.081,0.125-0.125c0.045-0.04,0.086-0.081,0.125-0.125c0.045-0.039,0.086-0.08,0.125-0.124
			c0.043-0.04,0.086-0.082,0.125-0.126c0.045-0.04,0.086-0.081,0.125-0.125c0.045-0.04,0.086-0.081,0.125-0.125
			c0.045-0.04,0.086-0.081,0.125-0.125c0.045-0.04,0.086-0.081,0.125-0.125c0.045-0.04,0.086-0.081,0.125-0.125
			c0.045-0.04,0.086-0.081,0.125-0.125c0.377-0.343,0.618-0.707,0.618-1.257c0-1.035-0.84-1.75-1.876-1.75H83l2.508-3
			c0.016-2.022,0.024-4.056,0.03-6.048c0.006-0.006,0.012-0.012,0.019-0.018c0.045-0.039,0.084-0.084,0.125-0.125
			c0.045-0.039,0.084-0.084,0.125-0.125c0.045-0.039,0.084-0.084,0.125-0.125c0.045-0.039,0.084-0.084,0.125-0.125
			c0.045-0.039,0.084-0.084,0.125-0.125c0.045-0.039,0.084-0.084,0.125-0.125c0.045-0.039,0.084-0.084,0.125-0.125
			c0.045-0.039,0.084-0.084,0.125-0.125c0.045-0.039,0.084-0.084,0.125-0.125c0.045-0.039,0.084-0.084,0.125-0.125
			c0.045-0.039,0.084-0.084,0.125-0.125c0.045-0.039,0.084-0.084,0.125-0.125c0.045-0.039,0.084-0.084,0.125-0.125
			c0.045-0.039,0.084-0.084,0.125-0.125c0.045-0.039,0.084-0.084,0.125-0.125c0.045-0.039,0.084-0.084,0.125-0.125
			c0.045-0.039,0.084-0.084,0.125-0.125c0.045-0.039,0.084-0.084,0.125-0.125c0.045-0.039,0.084-0.084,0.125-0.125
			c0.045-0.039,0.084-0.084,0.125-0.125c0.045-0.039,0.084-0.084,0.125-0.125c0.045-0.039,0.084-0.084,0.125-0.125
			c0.045-0.039,0.084-0.084,0.125-0.125c0.045-0.039,0.084-0.084,0.125-0.125c0.045-0.039,0.082-0.084,0.123-0.125
			c0.047-0.039,0.086-0.084,0.127-0.125c0.045-0.039,0.084-0.084,0.125-0.125c0.045-0.039,0.082-0.084,0.123-0.125
			c0.047-0.039,0.086-0.084,0.127-0.127c0.045-0.037,0.084-0.082,0.125-0.125c0.045-0.037,0.084-0.082,0.125-0.125
			c0.045-0.037,0.084-0.082,0.125-0.125c0.045-0.037,0.084-0.082,0.125-0.125c0.045-0.037,0.084-0.082,0.125-0.125
			c0.045-0.037,0.082-0.08,0.123-0.123c0.047-0.039,0.086-0.082,0.127-0.125c0.045-0.039,0.084-0.084,0.125-0.125
			c0.045-0.039,0.084-0.084,0.125-0.125c0.045-0.039,0.084-0.084,0.125-0.125c0.045-0.039,0.084-0.084,0.125-0.125
			c0.045-0.039,0.084-0.084,0.125-0.125c0.045-0.039,0.084-0.084,0.125-0.125c0.045-0.039,0.084-0.084,0.125-0.125
			c0.045-0.039,0.084-0.084,0.125-0.125c0.045-0.039,0.084-0.084,0.125-0.125c0.045-0.039,0.084-0.084,0.125-0.125
			c0.045-0.039,0.084-0.084,0.125-0.125c0.045-0.039,0.084-0.084,0.125-0.125c0.045-0.039,0.084-0.084,0.125-0.125
			c0.045-0.039,0.084-0.084,0.125-0.125c0.045-0.039,0.084-0.084,0.125-0.125c0.045-0.039,0.084-0.084,0.125-0.125
			c0.045-0.039,0.084-0.084,0.125-0.125c0.045-0.039,0.084-0.084,0.125-0.125c0.045-0.039,0.084-0.084,0.125-0.125
			c0.045-0.039,0.084-0.084,0.125-0.125c0.045-0.039,0.084-0.084,0.125-0.125c0.045-0.039,0.084-0.084,0.125-0.125
			c0.045-0.039,0.084-0.084,0.125-0.125c0.045-0.039,0.084-0.084,0.125-0.125c0.045-0.039,0.084-0.084,0.125-0.125
			c0.045-0.039,0.084-0.084,0.125-0.125c0.045-0.039,0.084-0.084,0.125-0.125c0.045-0.039,0.084-0.084,0.125-0.125
			c0.045-0.039,0.084-0.084,0.125-0.125c0.045-0.039,0.084-0.084,0.125-0.125c0.045-0.039,0.084-0.084,0.125-0.125
			c0.045-0.039,0.084-0.084,0.125-0.125c0.045-0.039,0.084-0.084,0.125-0.125c0.045-0.039,0.084-0.084,0.125-0.125
			c0.045-0.039,0.084-0.084,0.125-0.125c0.045-0.039,0.084-0.084,0.125-0.125c0.045-0.039,0.084-0.084,0.125-0.125
			c0.045-0.039,0.084-0.084,0.125-0.125c0.045-0.039,0.084-0.084,0.125-0.125c0.045-0.039,0.084-0.084,0.125-0.125
			c0.045-0.039,0.084-0.084,0.125-0.125c0.045-0.039,0.084-0.084,0.125-0.125c0.045-0.039,0.084-0.084,0.125-0.125
			c0.045-0.039,0.084-0.084,0.125-0.125c0.045-0.039,0.084-0.084,0.125-0.125c0.045-0.039,0.084-0.084,0.125-0.125
			c0.045-0.039,0.084-0.084,0.125-0.125c0.045-0.039,0.084-0.084,0.125-0.125c0.045-0.039,0.084-0.084,0.125-0.125
			c0.045-0.039,0.084-0.084,0.125-0.125c0.045-0.039,0.084-0.084,0.125-0.125c0.045-0.039,0.084-0.084,0.125-0.125
			c0.045-0.039,0.084-0.084,0.125-0.125c0.045-0.039,0.084-0.084,0.125-0.125c0.045-0.039,0.084-0.084,0.125-0.125
			c0.045-0.039,0.084-0.084,0.125-0.125c0.045-0.039,0.084-0.084,0.125-0.125C97.854,71.732,98.047,70.744,97.588,69.949z"/>
	</g>
</g>
<g>
	<path fill="#FFFFFF" d="M89.508,93H34.503c-1.036,0-1.875,0.965-1.875,2s0.839,2,1.875,2h55.005c1.036,0,1.876-0.965,1.876-2
		S90.544,93,89.508,93z"/>
	<path fill="#FFFFFF" d="M97.588,69.949c-0.52-0.896-1.665-1.204-2.563-0.686l-6.496,3.75c-0.896,0.518-1.203,1.663-0.687,2.561
		c0.349,0.602,0.978,0.938,1.626,0.938c0.318,0,0.643-0.08,0.938-0.251l6.494-3.75C97.798,71.993,98.105,70.846,97.588,69.949z"/>
	<path fill="#FFFFFF" d="M38,49.349C38,64.691,38,90,38,90h47.508c0.083-11,0-22.279,0-25.779
		c15.085-25.5,8.969-43.014-4.584-43.014c-37.37,0-47.673,15.16-48.673,16.576C35.396,39.532,38,45.942,38,49.349z M76,31.192
		C76,30.308,77.413,29,79.007,29c0.438,0,1.376,0,1.751,0c0.922,0,4.666,1.564,4.666,3.68c0,18.604-5.607,23.714-7.889,23.714
		c-0.625,0-1.535-0.452-1.535-1.452C76,54.094,76,33.81,76,31.192z M53,67h7.506c0.689,0,1.25-0.311,1.25-1s-0.561-1-1.25-1H53v-7
		h7.506c0.689,0,1.25-0.31,1.25-1s-0.561-1-1.25-1h-7.487c0.208-4,3.478-6.612,7.487-6.612c4.1,0,7.43,2.862,7.496,6.612H68v20
		h0.002c0,0,0.004-0.173,0.004-0.135c0,3.783-3.357,6.896-7.5,6.896c-4.108,0-7.442-2.762-7.499-6.762h7.499
		c0.689,0,1.25-0.81,1.25-1.5s-0.561-1.5-1.25-1.5H53V67z"/>
</g>
</svg>
