<?xml version="1.0" encoding="utf-8"?>
<!-- Generator: Adobe Illustrator 16.0.3, SVG Export Plug-In . SVG Version: 6.00 Build 0)  -->
<!DOCTYPE svg PUBLIC "-//W3C//DTD SVG 1.1//EN" "http://www.w3.org/Graphics/SVG/1.1/DTD/svg11.dtd">
<svg version="1.1" id="Layer_1" xmlns="http://www.w3.org/2000/svg" xmlns:xlink="http://www.w3.org/1999/xlink" x="0px" y="0px"
	 width="128px" height="128px" viewBox="0 0 128 128" enable-background="new 0 0 128 128" xml:space="preserve">
<path fill="#444953" d="M128,25c0-13.807-11.182-25-24.99-25H25.002C11.194,0,0,11.193,0,25v78c0,13.807,11.194,25,25.002,25h78.007
	c13.81,0,24.99-11.193,24.99-25L128,25L128,25z"/>
<g>
	<g>
		<defs>
			<path id="SVGID_1_" d="M128,25c0-13.807-11.182-25-24.99-25H25.002C11.194,0,0,11.193,0,25v78c0,13.807,11.194,25,25.002,25
				h78.007c13.81,0,24.99-11.193,24.99-25L128,25L128,25z"/>
		</defs>
		<clipPath id="SVGID_2_">
			<use xlink:href="#SVGID_1_"  overflow="visible"/>
		</clipPath>
		<polygon clip-path="url(#SVGID_2_)" fill="#353A42" enable-background="new    " points="89,31 59,61 52,61 54,59 54,58 52,58 
			59,51 59,47 52,47 52,31 40,31 0,71 0,72 -1,72 -1,73 -2,73 -2,74 -3,74 -3,75 -3,75 -4,75 -4,76 -4,77 -5,77 -5,78 -6,78 -6,79 
			-7,79 -7,80 -8,80 -8,81 -9,81 -9,82 -10,82 -10,83 -11,83 -11,84 -12,84 -12,85 -13,85 -13,86 -14,86 -14,87 -15,87 -15,88 
			-16,88 -16,89 -17,89 -17,90 -18,90 -18,91 -19,91 -19,92 -20,92 -20,93 -21,93 -21,94 -22,94 -22,95 -23,95 -23,96 -24,96 
			-24,97 -25,97 -25,98 -26,98 -26,99 -27,99 -27,100 -28,100 -28,101 -29,101 -29,102 -30,102 -30,103 -31,103 -31,104 -32,104 
			-32,134 45.162,134 48.899,134 73,134 73,133 74,133 74,132 75,132 75,131 76,131 76,130 77,130 77,129 78,129 78,128 78,128 
			116,90 116,90 116,31 		"/>
	</g>
</g>
<g>
	<path fill="#FFFFFF" d="M89,31v30H11v29h77.916h3.736H116V31H89z M112,35v17H93V35H112z M89,65v9H59v-9H89z M57,86H35V68h22V86z
		 M53.709,63.057c0.815,0,1.476,0.66,1.476,1.475c0,0.813-0.66,1.475-1.476,1.475c-0.814,0-1.475-0.661-1.475-1.475
		C52.234,63.717,52.895,63.057,53.709,63.057z M45.842,63.057c0.815,0,1.475,0.66,1.475,1.475c0,0.813-0.66,1.475-1.475,1.475
		c-0.814,0-1.475-0.661-1.475-1.475C44.367,63.717,45.027,63.057,45.842,63.057z M37.974,63.057c0.815,0,1.476,0.66,1.476,1.475
		c0,0.813-0.66,1.475-1.476,1.475c-0.814,0-1.475-0.661-1.475-1.475C36.5,63.717,37.16,63.057,37.974,63.057z M15,65h18v21H15V65z
		 M59,86V76h30v10H59z M93,86V54h19v32H93z"/>
	<polygon fill="#FFFFFF" points="51.742,51 59,51 59,47 52,47 52,31 40,31 40,47 33,47 33,51 39.941,51 	"/>
	<rect x="69" y="68" fill="#FFFFFF" width="10" height="2"/>
	<rect x="29" y="71" fill="#FFFFFF" width="2" height="8"/>
	<rect x="95" y="57" fill="#FFFFFF" width="2" height="8"/>
	<rect x="95" y="40" fill="#FFFFFF" width="2" height="8"/>
	<rect x="69" y="80" fill="#FFFFFF" width="10" height="2"/>
	<rect x="38" y="58" fill="#FFFFFF" width="4" height="1"/>
	<rect x="50" y="58" fill="#FFFFFF" width="4" height="1"/>
	<rect x="39" y="72" fill="#FFFFFF" width="14" height="11"/>
</g>
</svg>
