<?xml version="1.0" encoding="utf-8"?>
<!-- Generator: Adobe Illustrator 16.0.3, SVG Export Plug-In . SVG Version: 6.00 Build 0)  -->
<!DOCTYPE svg PUBLIC "-//W3C//DTD SVG 1.1//EN" "http://www.w3.org/Graphics/SVG/1.1/DTD/svg11.dtd">
<svg version="1.1" id="Layer_1" xmlns="http://www.w3.org/2000/svg" xmlns:xlink="http://www.w3.org/1999/xlink" x="0px" y="0px"
	 width="128px" height="128px" viewBox="0 0 128 128" enable-background="new 0 0 128 128" xml:space="preserve">
<path fill="#444953" class="bg" d="M128,25c0-13.807-11.193-25-25.002-25H25.002C11.194,0,0,11.193,0,25v78c0,13.807,11.194,25,25.002,25
	h77.996C116.807,128,128,116.807,128,103V25z"/>
<g>
	<g>
		<defs>
			<path id="SVGID_1_" d="M128,25c0-13.807-11.193-25-25.002-25H25.002C11.194,0,0,11.193,0,25v78c0,13.807,11.194,25,25.002,25
				h77.996C116.807,128,128,116.807,128,103V25z"/>
		</defs>
		<clipPath id="SVGID_2_">
			<use xlink:href="#SVGID_1_"  overflow="visible"/>
		</clipPath>
		<polygon clip-path="url(#SVGID_2_)" fill="#353A42" class="shadow" enable-background="new    " points="70,22 70,22 56,35.625 56,22 41,22 0,63
			0,64 -1,64 -1,65 -2,65 -2,66 -2,76 -2,76.25 -2,77 -3,77 -3,78 -4,78 -4,79 -5,79 -5,80 -6,80 -6,81 -7,81 -7,82 -8,82 -8,83 
			-9,83 -9,84 -10,84 -10,85 -11,85 -11,86 -12,86 -12,91 -9,91 -9,92 -10,92 -10,93 -11,93 -11,94 -12,94 -12,95 -13,95 -13,96 
			-14,96 -14,97 -15,97 -15,98 -16,98 -16,99 -17,99 -17,100 -18,100 -18,101 -19,101 -19,102 -20,102 -20,103 -21,103 -21,141 
			26.327,141 31.068,141 61,141 61,140 62,140 62,139 63,139 63,138 64,138 64,137 65,137 65,136 66,136 66,135 67,135 67,134 
			68,134 68,133 69,133 69,132 70,132 70,131 71,131 71,130 72,130 72,129 73,129 73,128 74,128 105,97 105,22 		"/>
	</g>
</g>
<g>
	<path fill="#FFFFFF" d="M70,22v37H23v38h47.082h4.74H105V22H70z M63,92H35V69h28V92z M58.851,62.422
		c1.035,0,1.873,0.838,1.873,1.872c0,1.033-0.838,1.871-1.873,1.871c-1.033,0-1.871-0.838-1.871-1.871
		C56.979,63.26,57.817,62.422,58.851,62.422z M48.87,62.422c1.033,0,1.871,0.838,1.871,1.872c0,1.033-0.838,1.871-1.871,1.871
		c-1.034,0-1.872-0.838-1.872-1.871C46.998,63.26,47.836,62.422,48.87,62.422z M38.889,62.422c1.033,0,1.871,0.838,1.871,1.872
		c0,1.033-0.838,1.871-1.871,1.871c-1.035,0-1.873-0.838-1.873-1.871C37.016,63.26,37.854,62.422,38.889,62.422z M28,64h5v28h-5V64z
		 M70,92h-4V64h4V92z M100,27v21H75V27H100z M75,92V50h25v42H75z"/>
	<polygon fill="#FFFFFF" points="56.355,47 65,47 65,42 56,42 56,22 41,22 41,42 32,42 32,47 41.383,47 	"/>
	<rect x="77" y="55" fill="#FFFFFF" width="3" height="10"/>
	<rect x="77" y="33" fill="#FFFFFF" width="3" height="10"/>
	<rect x="39" y="56" fill="#FFFFFF" width="5" height="1"/>
	<rect x="54" y="56" fill="#FFFFFF" width="5" height="1"/>
	<rect x="40" y="74" fill="#FFFFFF" width="18" height="13"/>
</g>
</svg>
