<?xml version="1.0" encoding="utf-8"?>
<!-- Generator: Adobe Illustrator 16.0.3, SVG Export Plug-In . SVG Version: 6.00 Build 0)  -->
<!DOCTYPE svg PUBLIC "-//W3C//DTD SVG 1.1//EN" "http://www.w3.org/Graphics/SVG/1.1/DTD/svg11.dtd">
<svg version="1.1" id="Layer_1" xmlns="http://www.w3.org/2000/svg" xmlns:xlink="http://www.w3.org/1999/xlink" x="0px" y="0px"
	 width="128px" height="128px" viewBox="0 0 128 128" enable-background="new 0 0 128 128" xml:space="preserve">
<path fill="#444953" class="bg" d="M128,25c0-13.807-11.193-25-25-25H25C11.193,0,0,11.193,0,25v78c0,13.807,11.193,25,25,25h78
	c13.807,0,25-11.193,25-25V25z"/>
<g>
	<defs>
		<path id="SVGID_1_" d="M128,25c0-13.807-11.193-25-25-25H25C11.193,0,0,11.193,0,25v78c0,13.807,11.193,25,25,25h78
			c13.807,0,25-11.193,25-25V25z"/>
	</defs>
	<clipPath id="SVGID_2_">
		<use xlink:href="#SVGID_1_"  overflow="visible"/>
	</clipPath>
	<path clip-path="url(#SVGID_2_)" fill="#353A42" class="shadow" d="M90.525,37H76.977L60,53.841V37H50L33,54V37H23L0,60v1h-1v1h-1v1h-1v1h-1v1h-1
		v1h-1v1h-1v1h-1v1h-1v1h-1v1h-1v1h-1v1h-1v1h-1v1h-1v1h-1v1h-1v1h-1v1h-1v1h-1v1h-1v1h-1v1h-1v1h-1v1h-1v1h-1v1h-1v1h-1v1h-1v1h-1
		v1h-1v1h-1v1h-1v1h-1v1h-1v1h-1v25.656c0,14.57,6.875,21.039,18.449,21.039c6.013,0,10.874-1.699,14.161-5.18
		c0.041-0.043,0.118-0.082,0.159-0.125s0.101-0.082,0.142-0.125s0.092-0.082,0.133-0.125s0.088-0.082,0.129-0.125
		s0.086-0.082,0.127-0.125s0.085-0.082,0.126-0.125s0.084-0.082,0.125-0.125s0.084-0.082,0.125-0.125s0.084-0.082,0.125-0.125
		s0.084-0.082,0.125-0.125s0.084-0.082,0.125-0.125s0.084-0.082,0.125-0.125s0.084-0.082,0.125-0.125s0.084-0.082,0.125-0.125
		s0.084-0.082,0.125-0.125s0.084-0.082,0.125-0.125s0.084-0.082,0.125-0.125s0.084-0.082,0.125-0.125s0.084-0.082,0.125-0.125
		s0.084-0.082,0.125-0.125s0.084-0.082,0.125-0.125s0.084-0.082,0.125-0.125s0.084-0.082,0.125-0.125s0.084-0.082,0.125-0.125
		s0.084-0.082,0.125-0.125s0.084-0.082,0.125-0.125s0.084-0.082,0.125-0.125s0.084-0.082,0.125-0.125s0.084-0.082,0.125-0.125
		s0.084-0.082,0.125-0.125s0.084-0.082,0.125-0.125s0.084-0.082,0.125-0.125s0.084-0.082,0.125-0.125s0.084-0.082,0.125-0.125
		s0.084-0.082,0.125-0.125s0.084-0.082,0.125-0.125s0.084-0.082,0.125-0.125s0.084-0.082,0.125-0.125s0.084-0.082,0.125-0.125
		s0.084-0.082,0.125-0.125s0.084-0.082,0.125-0.125s0.084-0.082,0.125-0.125s0.084-0.082,0.125-0.125s0.084-0.082,0.125-0.125
		s0.084-0.082,0.125-0.125s0.084-0.082,0.125-0.125s0.084-0.082,0.125-0.125s0.084-0.082,0.125-0.125s0.084-0.082,0.125-0.125
		s0.084-0.082,0.125-0.125s0.084-0.082,0.125-0.125s0.084-0.082,0.125-0.125s0.084-0.082,0.125-0.125s0.084-0.082,0.125-0.125
		s0.084-0.082,0.125-0.125s0.084-0.082,0.125-0.125s0.084-0.082,0.125-0.125s0.084-0.082,0.125-0.125s0.084-0.082,0.125-0.125
		s0.084-0.082,0.125-0.125s0.084-0.082,0.125-0.125s0.084-0.082,0.125-0.125s0.084-0.082,0.125-0.125s0.084-0.082,0.125-0.125
		s0.084-0.082,0.125-0.125s0.084-0.082,0.125-0.125s0.084-0.082,0.125-0.125s0.084-0.082,0.125-0.125s0.084-0.082,0.125-0.125
		s0.084-0.082,0.125-0.125s0.084-0.082,0.125-0.125s0.084-0.082,0.125-0.125s0.084-0.082,0.125-0.125s0.084-0.082,0.125-0.125
		s0.084-0.082,0.125-0.125s0.084-0.082,0.125-0.125s0.084-0.082,0.125-0.125s0.084-0.082,0.125-0.125s0.084-0.082,0.125-0.125
		s0.084-0.082,0.125-0.125s0.084-0.082,0.125-0.125s0.084-0.082,0.125-0.125s0.084-0.082,0.125-0.125s0.084-0.082,0.125-0.125
		s0.084-0.082,0.125-0.125s0.084-0.082,0.125-0.125s0.084-0.082,0.125-0.125s0.084-0.082,0.125-0.125s0.084-0.082,0.125-0.125
		s0.084-0.082,0.125-0.125s0.084-0.082,0.125-0.125s0.084-0.082,0.125-0.125s0.084-0.082,0.125-0.125s0.084-0.082,0.125-0.125
		s0.084-0.082,0.125-0.125s0.084-0.082,0.125-0.125s0.084-0.082,0.125-0.125s0.084-0.082,0.125-0.125s0.084-0.082,0.125-0.125
		s0.084-0.082,0.125-0.125s0.084-0.082,0.125-0.125s0.084-0.082,0.125-0.125c0.011-0.012,0.024,0.005,0.035-0.007L4.201,142h10.758
		h0.034h0.091h0.034h0.091h0.034h0.091l0.034-1h0.091h0.034h0.091h0.034h0.091h0.034h0.091h0.034h0.091h0.034h0.091h0.034h0.091
		h0.034h0.091l0.034-1h0.091h0.034h0.091h0.034h0.091h0.034h0.091h0.034h0.091h0.034h0.091h0.034h0.091h0.034h0.091l0.034-1h0.091
		h0.034h0.091h0.034h0.091h0.034h0.091h0.034h0.091h0.034h0.091h0.034h0.091h0.034h0.091l0.034-1h0.091h0.034h0.091h0.034h0.091
		h0.034h0.091h0.034h0.091h0.034h0.091h0.034h0.091h0.034h0.091l0.034-1h0.091h0.034h0.091h0.034h0.091h0.034h0.091h0.034h0.091
		h0.034h0.091h0.034h0.091h0.034h0.091l0.034-1h0.091h0.034h0.091h0.034h0.091h0.034h0.091h0.034h0.091h0.034h0.091h0.034h0.091
		h0.034h0.091l0.034-1h0.091h0.034h0.091h0.034h0.091h0.034h0.091h0.034h0.091h0.034h0.091h0.034h0.091h0.034h0.091l0.034-1h0.091
		h0.034h0.091h0.034h0.091h0.034h0.091h0.034h0.091h0.034h0.091h0.034h0.091h0.034h0.091l0.034-1h0.091h0.034h0.091h0.034h0.091
		h0.034h0.091h0.034h0.091h0.034h0.091h0.034h0.091h0.034h0.091l0.034-1h0.091h0.034h0.091h0.034h0.091h0.034h0.091h0.034h0.091
		h0.034h0.091h0.034h0.091h0.034h0.091l0.034-1h0.091h0.034h0.091h0.034h0.091h0.034h0.091h0.034h0.091h0.034h0.091h0.034h0.091
		h0.034h0.091l0.034-1h0.091h0.034h0.091h0.034h0.091h0.008h4.651l3.541,12h11.127h0.039h0.086h0.039h0.086h0.039h0.125l-0.039-1
		h0.125h0.039h0.086h0.039h0.086h0.039h0.086h0.039h0.086h0.039h0.086h0.039h0.086h0.039h0.125l-0.039-1h0.125h0.039h0.086h0.039
		h0.086h0.039h0.086h0.039h0.086h0.039h0.086h0.039h0.086h0.039h0.125l-0.039-1h0.125h0.039h0.086h0.039h0.086h0.039h0.086h0.039
		h0.086h0.039h0.086h0.039h0.086h0.039h0.125l-0.039-1h0.125h0.039h0.086h0.039h0.086h0.039h0.086h0.039h0.086h0.039h0.086h0.039
		h0.086h0.039h0.125l-0.039-1h0.125h0.039h0.086h0.039h0.086h0.039h0.086h0.039h0.086h0.039h0.086h0.039h0.086h0.039h0.125l-0.039-1
		h0.125h0.039h0.086h0.039h0.086h0.039h0.086h0.039h0.086h0.039h0.086h0.039h0.086h0.039h0.125l-0.039-1h0.125h0.039h0.086h0.039
		h0.086h0.039h0.086h0.039h0.086h0.039h0.086h0.039h0.086h0.039h0.125l-0.039-1h0.125h0.039h0.086h0.039h0.086h0.039h0.086h0.039
		h0.086h0.039h0.086h0.039h0.086h0.039h0.125l-0.039-1h0.125h0.039h0.086h0.039h0.086h0.039h0.086h0.039h0.086h0.039h0.086h0.039
		h0.086h0.039h0.125l-0.039-1h0.125h0.039h0.086h0.039h0.086h0.039h0.086h0.039h0.086h0.039h0.086h0.039h0.086h0.039h0.125l-0.039-1
		h0.125h0.039h0.086h0.039h0.086h0.039h0.086h0.039h0.086h0.039h0.086h0.039h0.086h0.039h0.125l-0.039-1h0.125h0.039h0.086h0.039
		h0.086h0.039h0.086h0.039h0.086h0.039h0.086h0.039h0.086h0.039h0.125l-0.039-1h0.125h0.039h0.086h0.039h0.086h0.039h0.086h0.039
		h0.086h0.039h0.086h0.039h0.086h0.039h0.125l-0.039-1h0.125h0.039h0.086h0.039h0.086h0.039h0.086h0.039H60v1l44.66-46L90.525,37z"
		/>
</g>
<g>
	<path fill="#FFFFFF" d="M33.367,37.306v26.35c0,7.967,3.064,11.983,8.307,11.983c5.447,0,8.443-3.813,8.443-11.983v-26.35h10.35
		v25.737c0,14.162-7.149,20.902-19.133,20.902c-11.575,0-18.315-6.469-18.315-21.039V37.306H33.367z"/>
	<path fill="#FFFFFF" d="M76.908,71.418l-3.199,11.779H62.951l14.026-45.892h13.549l14.299,45.892H93.658l-3.541-11.779H76.908z
		 M88.552,63.655l-2.86-9.736c-0.749-2.724-1.565-6.196-2.246-8.852H83.24c-0.612,2.724-1.361,6.196-2.042,8.852l-2.792,9.736
		H88.552z"/>
</g>
</svg>
