<?xml version="1.0" encoding="utf-8"?>
<!-- Generator: Adobe Illustrator 16.0.3, SVG Export Plug-In . SVG Version: 6.00 Build 0)  -->
<!DOCTYPE svg PUBLIC "-//W3C//DTD SVG 1.1//EN" "http://www.w3.org/Graphics/SVG/1.1/DTD/svg11.dtd">
<svg version="1.1" id="Layer_1" xmlns="http://www.w3.org/2000/svg" xmlns:xlink="http://www.w3.org/1999/xlink" x="0px" y="0px"
	 width="512px" height="512px" viewBox="0 0 512 512" enable-background="new 0 0 512 512" xml:space="preserve">
<path fill="#444953" class="bg" d="M0,412c0,55.229,44.771,100,100,100h312c55.229,0,100-44.771,100-100V100C512,44.771,467.229,0,412,0H100
	C44.771,0,0,44.771,0,100V412z"/>
<g>
	<defs>
		<path id="SVGID_1_" d="M512,100C512,44.771,467.229,0,412,0H100C44.771,0,0,44.771,0,100v312c0,55.229,44.771,100,100,100h312
			c55.229,0,100-44.771,100-100V100z"/>
	</defs>
	<clipPath id="SVGID_2_">
		<use xlink:href="#SVGID_1_"  overflow="visible"/>
	</clipPath>
	<polygon clip-path="url(#SVGID_2_)" fill="#353A42" class="shadow" points="407,146 368,146 368,146 367,146 367,147 367,147 367,147 366,147
		366,148 366,148 366,148 365,148 365,149 365,149 365,149 364,149 364,150 364,150 364,150 363,150 363,151 363,151 363,151 
		362,151 362,152 362,152 362,152 361,152 361,153 361,153 361,153 360,153 360,154 360,154 360,154 359,154 359,155 359,155 
		359,155 358,155 358,156 358,156 358,156 357,156 357,157 357,157 357,157 356,157 356,158 356,158 356,158 355,158 355,159 
		355,159 355,159 354,159 354,160 354,160 354,160 353,160 353,161 353,161 353,161 352,161 352,162 352,162 352,162 351,162 
		351,163 351,163 351,163 350,163 350,164 350,164 350,164 349,164 349,165 349,165 349,165 348,165 348,166 348,166 348,166 
		347,166 347,167 347,167 347,167 346,167 346,168 346,168 346,168 345,168 345,169 345,169 345,169 344,169 344,170 344,170 
		344,170 343,170 343,171 343,171 343,171 342,171 342,172 342,172 342,172 341,172 341,173 341,173 341,173 340,173 340,174 
		340,174 340,174 339,174 339,175 339,175 339,175 338,175 338,176 338,176 338,176 337,176 337,177 337,177 337,177 336,177 
		336,178 336,178 336,178 335,178 335,179 335,179 335,179 334,179 334,180 334,180 334,180 333,180 333,181 333,181 333,181 
		332,181 332,182 332,182 332,182 331,182 331,183 331,183 331,183 330,183 330,184 330,184 330,184 329,184 329,185 329,185 
		329,185 328,185 328,186 328,186 328,186 327,186 327,187 327,187 327,187 326,187 326,188 326,188 326,188 325,188 325,189 
		325.303,189 300.93,146 251,146 251,146 251,146 251,147 250,147 250,147 250,147 250,148 249,148 249,148 249,148 249,149 
		248,149 248,149 248,149 248,150 247,150 247,150 247,150 247,151 246,151 246,151 246,151 246,152 245,152 245,152 245,152 
		245,153 244,153 244,153 244,153 244,154 243,154 243,154 243,154 243,155 242,155 242,155 242,155 242,156 241,156 241,156 
		241,156 241,157 240,157 240,157 240,157 240,158 239,158 239,158 239,158 239,159 238,159 238,159 238,159 238,160 237,160 
		237,160 237,160 237,161 236,161 236,161 236,161 236,162 235,162 235,162 235,162 235,163 234,163 234,163 234,163 234,164 
		233,164 233,164 233,164 233,165 232,165 232,165 232,165 232,166 231,166 231,166 231,166 231,167 230,167 230,167 230,167 
		230,168 229,168 229,168 229,168 229,169 228,169 228,169 228,169 228,170 227,170 227,170 227,170 227,171 226,171 226,171 
		226,171 226,172 225,172 225,172 225,172 225,173 224,173 224,173 224,173 224,174 223,174 223,174 223,174 223,175 222,175 
		222,175 222,175 222,176 221,176 221,176 221,176 221,146 105,146 105,146 104,146 104,147 104,147 104,147 103,147 103,148 
		103,148 103,148 102,148 102,149 102,149 102,149 101,149 101,150 101,150 101,150 100,150 100,151 100,151 100,151 99,151 99,152 
		99,152 99,152 98,152 98,153 98,153 98,153 97,153 97,154 97,154 97,154 96,154 96,155 96,155 96,155 95,155 95,156 95,156 95,156 
		94,156 94,157 94,157 94,157 93,157 93,158 93,158 93,158 92,158 92,159 92,159 92,159 91,159 91,160 91,160 91,160 90,160 90,161 
		90,161 90,161 89,161 89,162 89,162 89,162 88,162 88,163 88,163 88,163 87,163 87,164 87,164 87,164 86,164 86,165 86,165 86,165 
		85,165 85,166 85,166 85,166 84,166 84,167 84,167 84,167 83,167 83,168 83,168 83,168 82,168 82,169 82,169 82,169 81,169 81,170 
		81,170 81,170 80,170 80,171 80,171 80,171 79,171 79,172 79,172 79,172 78,172 78,173 78,173 78,173 77,173 77,174 77,174 77,174 
		76,174 76,175 76,175 76,175 75,175 75,176 75,176 75,176 74,176 74,177 74,177 74,177 73,177 73,178 73,178 73,178 72,178 72,179 
		72,179 72,179 71,179 71,180 71,180 71,180 70,180 70,181 70,181 70,181 69,181 69,182 69,182 69,182 68,182 68,183 68,183 68,183 
		67,183 67,184 67,184 67,184 66,184 66,185 66,185 66,185 65,185 65,186 65,186 65,186 64,186 64,187 64,187 64,187 63,187 63,188 
		63,188 63,188 62,188 62,189 62,189 62,189 61,189 61,190 61,190 61,190 60,190 60,191 60,191 60,191 59,191 59,192 59,192 59,192 
		58,192 58,193 58,193 58,193 57,193 57,194 57,194 57,194 56,194 56,195 56,195 56,195 55,195 55,196 55,196 55,196 54,196 54,197 
		54,197 54,197 53,197 53,198 53,198 53,198 52,198 52,199 52,199 52,199 51,199 51,200 51,200 51,200 50,200 50,201 50,201 50,201 
		49,201 49,202 49,202 49,202 48,202 48,203 48,203 48,203 47,203 47,204 47,204 47,204 46,204 46,205 46,205 46,205 45,205 45,206 
		45,206 45,206 44,206 44,207 44,207 44,207 43,207 43,208 43,208 43,208 42,208 42,209 42,209 42,209 41,209 41,210 41,210 41,210 
		40,210 40,211 40,211 40,211 39,211 39,212 39,212 39,212 38,212 38,213 38,213 38,213 37,213 37,214 37,214 37,214 36,214 36,215 
		36,215 36,215 35,215 35,216 35,216 35,216 34,216 34,217 34,217 34,217 33,217 33,218 33,218 33,218 32,218 32,219 32,219 32,219 
		31,219 31,220 31,220 31,220 30,220 30,221 30,221 30,221 29,221 29,222 29,222 29,222 28,222 28,223 28,223 28,223 27,223 27,224 
		27,224 27,224 26,224 26,225 26,225 26,225 25,225 25,226 25,226 25,226 24,226 24,227 24,227 24,227 23,227 23,228 23,228 23,228 
		22,228 22,229 22,229 22,229 21,229 21,230 21,230 21,230 20,230 20,231 20,231 20,231 19,231 19,232 19,232 19,232 18,232 18,233 
		18,233 18,233 17,233 17,234 17,234 17,234 16,234 16,235 16,235 16,235 15,235 15,236 15,236 15,236 14,236 14,237 14,237 14,237 
		13,237 13,238 13,238 13,238 12,238 12,239 12,239 12,239 11,239 11,240 11,240 11,240 10,240 10,241 10,241 10,241 9,241 9,242 
		9,242 9,242 8,242 8,243 8,243 8,243 7,243 7,244 7,244 7,244 6,244 6,245 6,245 6,245 5,245 5,246 5,246 5,246 4,246 4,247 4,247 
		4,247 3,247 3,248 3,248 3,248 2,248 2,249 2,249 2,249 1,249 1,250 1,250 1,250 0,250 0,251 0,251 0,251 -1,251 -1,252 -1,252 
		-1,252 -2,252 -2,253 -2,253 -2,253 -3,253 -3,254 -3,254 -3,254 -4,254 -4,255 -4,255 -4,255 -5,255 -5,256 -5,256 -5,256 -6,256 
		-6,257 -6,257 -6,257 -7,257 -7,258 -7,258 -7,258 -8,258 -8,259 -8,259 -8,259 -9,259 -9,260 -9,260 -9,260 -10,260 -10,261 
		-10,261 -10,261 -11,261 -11,262 -11,262 -11,262 -12,262 -12,263 -12,263 -12,263 -13,263 -13,264 -13,264 -13,264 -14,264 
		-14,265 -14,265 -14,265 -15,265 -15,266 -15,266 -15,266 -16,266 -16,267 -16,267 -16,267 -17,267 -17,268 -17,268 -17,268 
		-18,268 -18,269 -18,269 -18,269 -19,269 -19,270 -19,270 -19,270 -20,270 -20,271 -20,271 -20,271 -21,271 -21,272 -21,272 
		-21,272 -22,272 -22,273 -22,273 -22,273 -23,273 -23,274 -23,274 -23,274 -24,274 -24,275 -24,275 -24,275 -25,275 -25,276 
		-25,276 -25,276 -26,276 -26,277 -26,277 -26,277 -27,277 -27,278 -27,278 -27,278 -28,278 -28,279 -28,279 -28,279 -29,279 
		-29,280 -29,280 -29,280 -30,280 -30,281 -30,281 -30,281 -31,281 -31,282 -31,282 -31,282 -32,282 -32,283 -32,283 -32,283 
		-33,283 -33,284 -33,284 -33,284 -34,284 -34,285 -34,285 -34,285 -35,285 -35,286 -35,286 -35,286 -36,286 -36,287 -36,287 
		-36,287 -37,287 -37,288 -37,288 -37,288 -38,288 -38,289 -38,289 -38,289 -39,289 -39,290 -39,290 -39,290 -40,290 -40,291 
		-40,291 -40,291 -41,291 -41,292 -41,292 -41,292 -42,292 -42,293 -42,293 -42,293 -43,293 -43,294 -43,294 -43,294 -44,294 
		-44,295 -44,295 -44,295 -45,295 -45,296 -45,296 -45,296 -46,296 -46,297 -46,297 -46,297 -47,297 -47,298 -47,298 -47,298 
		-48,298 -48,299 -48,299 -48,299 -49,299 -49,300 -49,300 -49,300 -50,300 -50,301 -50,301 -50,301 -51,301 -51,302 -51,302 
		-51,302 -52,302 -52,303 -52,303 -52,303 -53,303 -53,304 -53,304 -53,304 -54,304 -54,305 -54,305 -54,305 -55,305 -55,306 
		-55,306 -55,306 -56,306 -56,307 -56,307 -56,307 -57,307 -57,308 -57,308 -57,308 -58,308 -58,309 -58,309 -58,309 -59,309 
		-59,310 -59,310 -59,310 -60,310 -60,311 -60,311 -60,311 -61,311 -61,312 -61,312 -61,312 -62,312 -62,313 -62,313 -62,313 
		-63,313 -63,314 -63,314 -63,314 -64,314 -64,315 -64,315 -64,315 -65,315 -65,316 -65,316 -65,316 -66,316 -66,317 -66,317 
		-66,317 -67,317 -67,318 -67,318 -67,318 -68,318 -68,319 -68,319 -68,319 -69,319 -69,320 -69,320 -69,320 -70,320 -70,321 
		-70,321 -70,321 -71,321 -71,322 -71,322 -71,322 -72,322 -72,323 -72,323 -72,323 -73,323 -73,324 -73,324 -73,324 -74,324 
		-74,325 -74,325 -74,325 -75,325 -75,326 -75,326 -75,326 -76,326 -76,327 -76,327 -76,327 -77,327 -77,328 -77,328 -77,328 
		-78,328 -78,329 -78,329 -78,329 -79,329 -79,330 -79,330 -79,330 -80,330 -80,331 -80,331 -80,331 -81,331 -81,332 -81,332 
		-81,332 -82,332 -82,333 -82,333 -82,333 -83,333 -83,334 -83,334 -83,334 -84,334 -84,335 -84,335 -84,335 -85,335 -85,336 
		-85,336 -85,336 -86,336 -86,337 -86,337 -86,337 -87,337 -87,338 -87,338 -87,338 -88,338 -88,339 -88,339 -88,339 -89,339 
		-89,340 -89,340 -89,340 -90,340 -90,341 -90,341 -90,341 -91,341 -91,342 -91,342 -91,342 -92,342 -92,343 -92,343 -92,343 
		-93,343 -93,344 -93,344 -93,344 -94,344 -94,345 -94,345 -94,345 -95,345 -95,346 -95,346 -95,346 -96,346 -96,347 -96,347 
		-96,347 -97,347 -97,348 -97,348 -97,348 -98,348 -98,349 -98,349 -98,349 -99,349 -99,350 -99,350 -99,350 -100,350 -100,351 
		-100,351 -100,351 -101,351 -101,352 -101,352 -101,352 -102,352 -102,353 -102,353 -102,353 -103,353 -103,354 -103,354 -103,354 
		-104,354 -104,355 -104,355 -104,355 -105,355 -105,356 -105,356 -105,356 -106,356 -106,357 -106,357 -106,357 -107,357 -107,358 
		-107,358 -107,358 -108,358 -108,359 -108,359 -108,359 -109,359 -109,360 -109,360 -109,360 -110,360 -110,361 -110,361 -110,361 
		-111,361 -111,362 -111,362 -111,362 -112,362 -112,363 -112,363 -112,363 -113,363 -113,364 -113,364 -113,364 -114,364 -114,365 
		-114,365 -114,365 -115,365 -115,366 -115,366 -115,366 -116,366 -116,367 -116,367 -116,367 -117,367 -117,368 -117,368 -117,368 
		-118,368 -118,369 -118,369 -118,369 -119,369 -119,370 -119,370 -119,370 -120,370 -120,371 -120,371 -120,371 -121,371 -121,372 
		-121,372 -121,372 -122,372 -122,373 -122,373 -122,373 -123,373 -123,374 -123,374 -123,374 -124,374 -124,375 -124,375 -124,375 
		-125,375 -125,376 -125,376 -125,376 -126,376 -126,377 -126,377 -126,377 -127,377 -127,378 -127,378 -127,378 -128,378 -128,379 
		-128,379 -128,379 -129,379 -129,380 -129,380 -129,380 -130,380 -130,381 -130,381 -130,569 -10,569 -10,569 -10,569 -10,568 
		-9,568 -9,568 -9,568 -9,567 -8,567 -8,567 -8,567 -8,566 -7,566 -7,566 -7,566 -7,565 -6,565 -6,565 -6,565 -6,564 -5,564 -5,564 
		-5,564 -5,563 -4,563 -4,563 -4,563 -4,562 -3,562 -3,562 -3,562 -3,561 -2,561 -2,561 -2,561 -2,560 -1,560 -1,560 -1,560 -1,559 
		0,559 0,559 0,559 0,558 1,558 1,558 1,558 1,557 2,557 2,557 2,557 2,556 3,556 3,556 3,556 3,555 4,555 4,555 4,555 4,554 5,554 
		5,554 5,554 5,553 6,553 6,553 6,553 6,552 7,552 7,552 7,552 7,551 8,551 8,551 8,551 8,550 9,550 9,550 9,550 9,549 10,549 
		10,549 10,549 10,548 11,548 11,548 11,548 11,547 12,547 12,547 12,547 12,546 13,546 13,546 13,546 13,545 14,545 14,545 14,545 
		14,544 15,544 15,544 15,544 15,543 16,543 16,543 16,543 16,569 55,569 55,569 56,569 56,568 56,568 56,568 57,568 57,567 57,567 
		57,567 58,567 58,566 58,566 58,566 59,566 59,565 59,565 59,565 60,565 60,564 60,564 60,564 61,564 61,563 61,563 61,563 62,563 
		62,562 62,562 62,562 63,562 63,561 63,561 63,561 64,561 64,560 64,560 64,560 65,560 65,559 65,559 65,559 66,559 66,558 66,558 
		66,558 67,558 67,557 67,557 67,557 68,557 68,556 68,556 68,556 69,556 69,555 69,555 69,555 70,555 70,554 70,554 70,554 71,554 
		71,553 71,553 71,553 72,553 72,552 72,552 72,552 73,552 73,551 73,551 73,551 74,551 74,550 74,550 74,550 75,550 75,549 75,549 
		75,549 76,549 76,548 76,548 76,548 77,548 77,547 77,547 77,547 78,547 78,546 78,546 78,546 79,546 79,545 79,545 79,545 80,545 
		80,544 80,544 80,544 81,544 81,543 81,543 81,543 82,543 82,542 82,542 82,542 83,542 83,541 83,541 83,541 84,541 84,540 84,540 
		84,540 85,540 85,539 85,539 85,539 86,539 86,538 86,538 86,538 87,538 87,537 87,537 87,537 88,537 88,536 88,536 88,536 89,536 
		89,535 89,535 89,535 90,535 90,534 90,534 90,534 91,534 91,533 91,533 91,533 92,533 92,532 92,532 92,532 93,532 93,531 93,531 
		93,531 94,531 94,530 94,530 94,530 95,530 95,529 95,529 95,529 96,529 96,528 96,528 96,528 97,528 97,527 97,527 97,527 98,527 
		98,526 98,526 98,526 99,526 99,525 99,525 99,525 100,525 100,524 100,524 100,524 101,524 101,523 101,523 101,523 101.649,523 
		127.403,569 172,569 172,569 173,569 173,568 173,568 173,568 174,568 174,567 174,567 174,567 175,567 175,566 175,566 175,566 
		176,566 176,565 176,565 176,565 177,565 177,564 177,564 177,564 178,564 178,563 178,563 178,563 179,563 179,562 179,562 
		179,562 180,562 180,561 180,561 180,561 181,561 181,560 181,560 181,560 182,560 182,559 182,559 182,559 183,559 183,558 
		183,558 183,558 184,558 184,557 184,557 184,557 185,557 185,556 185,556 185,556 186,556 186,555 186,555 186,555 187,555 
		187,554 187,554 187,554 188,554 188,553 188,553 188,553 189,553 189,552 189,552 189,552 190,552 190,551 190,551 190,551 
		191,551 191,550 191,550 191,550 192,550 192,549 192,549 192,549 193,549 193,548 193,548 193,548 194,548 194,547 194,547 
		194,547 195,547 195,546 195,546 195,546 196,546 196,545 196,545 196,545 197,545 197,544 197,544 197,544 198,544 198,543 
		198,543 198,543 199,543 199,542 199,542 199,542 200,542 200,541 200,541 200,541 201,541 201,540 201,540 201,540 202,540 
		202,539 202,539 202,539 203,539 203,538 203,538 203,538 204,538 204,537 204,537 204,537 205,537 205,536 205,536 205,536 
		206,536 206,535 206,535 206,535 207,535 207,534 207,534 207,534 208,534 208,533 208,533 208,533 209,533 209,532 209,532 
		209,532 210,532 210,531 210,531 210,531 211,531 211,530 211,530 211,530 212,530 212,529 212,529 212,529 213,529 213,528 
		213,528 213,528 214,528 214,527 214,527 214,527 215,527 215,526 215,526 215,526 216,526 216,525 216,525 216,525 217,525 
		217,524 217,524 217,524 218,524 218,523 218,523 218,523 219,523 219,522 219,522 219,522 220,522 220,521 220,521 220,521 
		221,521 221,520 221,520 221,520 222,520 222,519 222,519 222,519 223,519 223,518 223,518 223,518 224,518 224,517 224,517 
		224,517 225,517 225,516 225,516 225,516 226,516 226,515 226,515 226,515 227,515 227,514 227,514 227,514 228,514 228,513 
		228,513 228,513 229,513 229,512 229,512 229,512 230,512 230,511 230,511 230,511 231,511 231,510 231,510 231,510 232,510 
		232,509 232,509 232,509 233,509 233,508 233,508 233,508 234,508 234,507 234,507 234,507 235,507 235,506 235,506 235,506 
		236,506 236,505 236,505 236,505 237,505 237,504 237,504 237,504 238,504 238,503 238,503 238,503 239,503 239,502 239,502 
		239,502 240,502 240,501 240,501 240,501 241,501 241,500 241,500 241,500 242,500 242,499 242,499 242,499 243,499 243,498 
		243,498 243,498 244,498 244,497 244,497 244,497 245,497 245,496 245,496 245,496 246,496 246,495 246,495 246,495 247,495 
		247,494 247,494 247,494 248,494 248,493 248,493 248,493 249,493 249,492 249,492 249,492 250,492 250,491 250,491 250,491 
		251,491 251,490 251,490 251,490 252,490 252,489 252,489 252,489 253,489 253,488 253,488 253,488 254,488 254,487 254,487 
		254,487 255,487 255,486 255,486 255,486 256,486 256,485 256,485 256,485 257,485 257,484 257,484 257,484 258,484 258,483 
		258,483 258,483 259,483 259,482 259,482 259,482 260,482 260,481 260,481 260,481 261,481 261,480 261,480 261,480 262,480 
		262,479 262,479 262,479 263,479 263,478 263,478 263,478 264,478 264,477 264,477 264,477 265,477 265,476 265,476 265,476 
		266,476 266,475 266,475 266,475 267,475 267,474 267,474 267,474 268,474 268,473 268,473 268,473 269,473 269,472 269,472 
		269,472 270,472 270,471 270,471 270,471 271,471 271,470 271,470 271,470 272,470 272,469 272,469 272,469 273,469 273,468 
		273,468 273,468 274,468 274,467 274,467 274,467 275,467 275,466 275,466 275,466 276,466 276,465 276,465 276,465 277,465 
		277,464 277,464 277,464 278,464 278,463 278,463 278,463 279,463 279,462 279,462 279,462 280,462 280,461 280,461 280,461 
		281,461 281,460 281,460 281,460 282,460 282,459 282,459 282,459 283,459 283,458 283,458 283,458 284,458 284,457 284,457 
		284,457 285,457 285,456 285,456 285,456 286,456 286,455 286,455 286,455 287,455 287,454 287,454 287,454 288,454 288,453 
		288,453 288,453 289,453 289,452 289,452 289,452 290,452 290,451 290,451 290,451 291,451 291,450 291,450 291,450 292,450 
		292,449 292,449 292,449 293,449 293,448 293,448 293,448 294,448 294,447 294,447 294,447 295,447 295,446 295,446 295,446 
		296,446 296,445 296,445 296,445 297,445 297,444 297,444 297,444 298,444 298,443 298,443 298,443 299,443 299,442 299,442 
		299,442 300,442 300,441 300,441 300,441 301,441 301,440 301,440 301,440 302,440 302,439 302,439 302,439 303,439 303,438 
		303,438 303,438 304,438 304,437 304,437 304,437 305,437 305,436 305,436 305,436 306,436 306,435 306,435 306,435 307,435 
		307,434 307,434 307,434 308,434 308,433 308,433 308,433 309,433 309,432 309,432 309,432 310,432 310,431 310,431 310,431 
		311,431 311,430 311,430 311,430 312,430 312,429 312,429 312,429 313,429 313,428 313,428 313,428 314,428 314,427 314,427 
		314,427 315,427 315,426 315,426 315,426 316,426 316,425 316,425 316,425 317,425 317,424 317,424 317,424 318,424 318,423 
		318,423 318,423 319,423 319,422 319,422 319,422 320,422 320,421 320,421 320,421 321,421 321,420 321,420 321,420 322,420 
		322,419 322,419 322,419 323,419 323,418 323,418 323,418 324,418 324,417 324,417 324,417 325,417 325,416 325,416 325,416 
		326,416 326,415 326,415 326,415 327,415 327,414 327,414 327,414 328,414 328,413 328,413 328,413 329,413 329,412 329,412 
		329,412 330,412 330,411 330,411 330,411 331,411 331,410 331,410 331,410 332,410 332,409 332,409 332,409 333,409 333,408 
		333,408 333,408 334,408 334,407 334,407 334,407 335,407 335,406 335,406 335,406 336,406 336,405 336,405 336,405 337,405 
		337,404 337,404 337,404 338,404 338,403 338,403 338,403 339,403 339,402 339,402 339,402 340,402 340,401 340,401 340,401 
		341,401 341,400 341,400 341,400 342,400 342,399 342,399 342,399 343,399 343,398 343,398 343,398 344,398 344,397 344,397 
		344,397 345,397 345,396 345,396 345,396 346,396 346,395 346,395 346,395 347,395 347,394 347,394 347,394 348,394 348,393 
		348,393 348,393 349,393 349,392 349,392 349,392 350,392 350,391 350,391 350,391 351,391 351,390 351,390 351,390 352,390 
		352,389 352,389 352,389 353,389 353,388 353,388 353,388 354,388 354,387 354,387 354,387 355,387 355,386 355,386 355,386 
		356,386 356,385 356,385 356,385 357,385 357,384 357,384 357,384 358,384 358,383 358,383 358,383 359,383 359,382 359,382 
		359,382 360,382 360,381 360,381 360,381 361,381 361,380 361,380 361,380 362,380 362,379 362,379 362,379 363,379 363,378 
		363,378 363,378 364,378 364,377 364,377 364,377 365,377 365,376 365,376 365,376 366,376 366,375 366,375 366,375 367,375 
		367,374 367,374 367,374 368,374 368,373 368,373 368,373 369,373 369,372 369,372 369,372 370,372 370,371 370,371 370,371 
		371,371 371,370 371,370 371,370 372,370 372,369 372,369 372,369 373,369 373,368 373,368 373,368 374,368 374,367 374,367 
		374,367 375,367 375,366 375,366 375,366 376,366 376,365 376,365 376,365 377,365 377,364 377,364 377,364 378,364 378,363 
		378,363 378,363 379,363 379,362 379,362 379,362 380,362 380,361 380,361 380,361 381,361 381,360 381,360 381,360 382,360 
		382,359 382,359 382,359 383,359 383,358 383,358 383,358 384,358 384,357 384,357 384,357 385,357 385,356 385,356 385,356 
		386,356 386,355 386,355 386,355 387,355 387,354 387,354 387,354 388,354 388,353 388,353 388,353 389,353 389,352 389,352 
		389,352 390,352 390,351 390,351 390,351 391,351 391,350 391,350 391,350 392,350 392,349 392,349 392,349 393,349 393,348 
		393,348 393,348 394,348 394,347 394,347 394,347 395,347 395,346 395,346 395,346 396,346 396,345 396,345 396,345 397,345 
		397,344 397,344 397,344 398,344 398,343 398,343 398,343 399,343 399,342 399,342 399,342 400,342 400,341 400,341 400,341 
		401,341 401,340 401,340 401,340 402,340 402,339 402,339 402,339 403,339 403,338 403,338 403,338 404,338 404,337 404,337 
		404,337 405,337 405,336 405,336 405,336 406,336 406,335 406,335 406,335 407,335 407,334 407,334 	"/>
</g>
<g>
	<path fill="#FFFFFF" d="M216.658,254.475h-69.296v44.706h77.398v34.928h-119.87V145.781H220.85v34.928h-73.487v39.117h69.296
		V254.475z"/>
	<path fill="#FFFFFF" d="M251.195,334.108V145.781h49.734l39.119,69.016c11.177,19.839,22.074,43.31,30.736,64.545h0.559
		c-2.514-24.867-3.354-50.295-3.354-78.795v-54.766h39.119v188.327h-44.706l-40.237-72.649
		c-11.177-20.396-23.75-44.427-32.691-66.501h-1.118c1.397,25.147,1.957,51.692,1.957,82.429v56.722H251.195z"/>
</g>
</svg>
