<?xml version="1.0" encoding="utf-8"?>
<!-- Generator: Adobe Illustrator 16.0.3, SVG Export Plug-In . SVG Version: 6.00 Build 0)  -->
<!DOCTYPE svg PUBLIC "-//W3C//DTD SVG 1.1//EN" "http://www.w3.org/Graphics/SVG/1.1/DTD/svg11.dtd">
<svg version="1.1" id="Layer_1" xmlns="http://www.w3.org/2000/svg" xmlns:xlink="http://www.w3.org/1999/xlink" x="0px" y="0px"
	 width="512px" height="512px" viewBox="0 0 512 512" enable-background="new 0 0 512 512" xml:space="preserve">
<g>
	<path fill="#DD133C" d="M0,412c0,55.229,44.771,100,100,100h312c55.229,0,100-44.771,100-100V100C512,44.771,467.229,0,412,0H100
		C44.771,0,0,44.771,0,100V412z"/>
</g>
<path fill="#FFFFFF" d="M512,256V100.268C512,45.039,467.229,0,412,0H100C44.771,0,0,45.039,0,100.268V256H512z"/>
<g opacity="0.3">
	<defs>
		<path id="SVGID_1_" opacity="0.3" d="M512,100C512,44.771,467.229,0,412,0H100C44.771,0,0,44.771,0,100v312
			c0,55.229,44.771,100,100,100h312c55.229,0,100-44.771,100-100V100z"/>
	</defs>
	<clipPath id="SVGID_2_">
		<use xlink:href="#SVGID_1_"  overflow="visible"/>
	</clipPath>
	<path clip-path="url(#SVGID_2_)" fill="#353A42" class="shadow" d="M395,299h-73V149h-42v1h-1l0,0l0,0v1h-1l0,0l0,0v1h-1l0,0l0,0v1h-1l0,0l0,0v1
		h-1l0,0l0,0v1h-1l0,0l0,0v1h-1l0,0l0,0v1h-1l0,0l0,0v1h-1l0,0l0,0v1h-1l0,0l0,0v1h-1l0,0l0,0v1h-1l0,0l0,0v1h-1l0,0l0,0v1h-1l0,0
		l0,0v1h-1l0,0l0,0v1h-1l0,0l0,0v1h-1l0,0l0,0v1h-1l0,0l0,0v1h-1l0,0l0,0v1h-1l0,0l0,0v1h-1l0,0l0,0v1h-1l0,0l0,0v1h-1l0,0l0,0v1h-1
		l0,0l0,0v1h-1l0,0l0,0v1h-1l0,0l0,0v1h-0.352c-3.131-5-7.063-9.578-11.623-12.999c-12.355-10.158-30.702-15.215-56.515-15.215
		c-25.533,0-43.511,1.535-56.511,3.73v0.418c0,0.027,0,0.054-1,0.082v0.418c0,0.027,0,0.054,0,0.082v0.418c0,0.027,0,0.054-1,0.082
		v0.418c0,0.027,0,0.054,0,0.082v0.418c0,0.027,0,0.054-1,0.082v0.418c0,0.027,0,0.054,0,0.082v0.418c0,0.027,0,0.054-1,0.082v0.418
		c0,0.027,0,0.054,0,0.082v0.418c0,0.027,0,0.054-1,0.082v0.418c0,0.027,0,0.054,0,0.082v0.418c0,0.027,0,0.054-1,0.082v0.418
		c0,0.027,0,0.054,0,0.082v0.418c0,0.027,0,0.054-1,0.082v0.418c0,0.027,0,0.054,0,0.082v0.418c0,0.027,0,0.054-1,0.082v0.418
		c0,0.027,0,0.054,0,0.082v0.418c0,0.027,0,0.054-1,0.082v0.418c0,0.027,0,0.054,0,0.082v0.418c0,0.027,0,0.054-1,0.082v0.418
		c0,0.027,0,0.054,0,0.082v0.418c0,0.027,0,0.054-1,0.082v0.418c0,0.027,0,0.054,0,0.082v0.418c0,0.027,0,0.054-1,0.082v0.418
		c0,0.027,0,0.054,0,0.082v0.418c0,0.027,0,0.054-1,0.082v0.418c0,0.027,0,0.054,0,0.082v0.418c0,0.027,0,0.054-1,0.082v0.418
		c0,0.027,0,0.054,0,0.082v0.418c0,0.027,0,0.054-1,0.082v0.418c0,0.027,0,0.054,0,0.082v0.418c0,0.027,0,0.054-1,0.082v0.418
		c0,0.027,0,0.054,0,0.082v0.418c0,0.027,0,0.054-1,0.082v0.418c0,0.027,0,0.054,0,0.082v0.418c0,0.027,0,0.054-1,0.082v0.418
		c0,0.027,0,0.054,0,0.082v0.418c0,0.027,0,0.054-1,0.082v0.418c0,0.027,0,0.054,0,0.082v0.418c0,0.027,0,0.054-1,0.082v0.418
		c0,0.027,0,0.054,0,0.082v0.418c0,0.027,0,0.054-1,0.082v0.418c0,0.027,0,0.054,0,0.082v0.418c0,0.027,0,0.054-1,0.082v0.418
		c0,0.027,0,0.054,0,0.082v0.418c0,0.027,0,0.054-1,0.082v0.418c0,0.027,0,0.054,0,0.082v0.418c0,0.027,0,0.054-1,0.082v0.418
		c0,0.027,0,0.054,0,0.082v0.418c0,0.027,0,0.054-1,0.082v0.418c0,0.027,0,0.054,0,0.082v0.418c0,0.027,0,0.054-1,0.082v0.418
		c0,0.027,0,0.054,0,0.082v0.418c0,0.027,0,0.054-1,0.082v0.418c0,0.027,0,0.054,0,0.082v0.418c0,0.027,0,0.054-1,0.082v0.418
		c0,0.027,0,0.054,0,0.082v0.418c0,0.027,0,0.054-1,0.082v0.418c0,0.027,0,0.054,0,0.082v0.418c0,0.027,0,0.054-1,0.082v0.418
		c0,0.027,0,0.054,0,0.082v0.418c0,0.027,0,0.054-1,0.082v0.418c0,0.027,0,0.054,0,0.082v0.418c0,0.027,0,0.054-1,0.082v0.418
		c0,0.027,0,0.054,0,0.082v0.418c0,0.027,0,0.054-1,0.082v0.418c0,0.027,0,0.054,0,0.082v0.418c0,0.027,0,0.054-1,0.082v0.418
		c0,0.027,0,0.054,0,0.082v0.418c0,0.027,0,0.054-1,0.082v0.418c0,0.027,0,0.054,0,0.082v0.418c0,0.027,0,0.054-1,0.082v0.418
		c0,0.027,0,0.054,0,0.082v0.418c0,0.027,0,0.054-1,0.082v0.418c0,0.027,0,0.054,0,0.082v0.418c0,0.027,0,0.054-1,0.082v0.418
		c0,0.027,0,0.054,0,0.082v0.418c0,0.027,0,0.054-1,0.082v0.418c0,0.027,0,0.054,0,0.082v0.418c0,0.027,0,0.054-1,0.082v0.418
		c0,0.027,0,0.054,0,0.082v0.418c0,0.027,0,0.054-1,0.082v0.418c0,0.027,0,0.054,0,0.082v0.418c0,0.027,0,0.054-1,0.082v0.418
		c0,0.027,0,0.054,0,0.082v0.418c0,0.027,0,0.054-1,0.082v0.418c0,0.027,0,0.054,0,0.082v0.418c0,0.027,0,0.054-1,0.082v0.418
		c0,0.027,0,0.054,0,0.082v0.418c0,0.027,0,0.054-1,0.082v0.418c0,0.027,0,0.054,0,0.082v0.418c0,0.027,0,0.054-1,0.082v0.418
		c0,0.027,0,0.054,0,0.082v0.418c0,0.027,0,0.054-1,0.082v0.418c0,0.027,0,0.054,0,0.082v0.418c0,0.027,0,0.054-1,0.082v0.418
		c0,0.027,0,0.054,0,0.082v0.418c0,0.027,0,0.054-1,0.082v0.418c0,0.027,0,0.054,0,0.082v0.418c0,0.027,0,0.054-1,0.082v0.418
		c0,0.027,0,0.054,0,0.082v0.418c0,0.027,0,0.054-1,0.082v0.418c0,0.027,0,0.054,0,0.082v0.418c0,0.027,0,0.054-1,0.082v0.418
		c0,0.027,0,0.054,0,0.082v0.418c0,0.027,0,0.054-1,0.082v0.418c0,0.027,0,0.054,0,0.082v0.418c0,0.027,0,0.054-1,0.082v0.418
		c0,0.027,0,0.054,0,0.082v0.418c0,0.027,0,0.054-1,0.082v0.418c0,0.027,0,0.054,0,0.082v0.418c0,0.027,0,0.054-1,0.082v0.418
		c0,0.027,0,0.054,0,0.082v0.418c0,0.027,0,0.054-1,0.082v0.418c0,0.027,0,0.054,0,0.082v0.418c0,0.027,0,0.054-1,0.082v0.418
		c0,0.027,0,0.054,0,0.082v0.418c0,0.027,0,0.054-1,0.082v0.418c0,0.027,0,0.054,0,0.082v0.418c0,0.027,0,0.054-1,0.082v0.418
		c0,0.027,0,0.054,0,0.082v0.418c0,0.027,0,0.054-1,0.082v0.418c0,0.027,0,0.054,0,0.082v0.418c0,0.027,0,0.054-1,0.082v0.418
		c0,0.027,0,0.054,0,0.082v0.418c0,0.027,0,0.054-1,0.082v0.418c0,0.027,0,0.054,0,0.082v0.418c0,0.027,0,0.054-1,0.082v0.418
		c0,0.027,0,0.054,0,0.082v0.418c0,0.027,0,0.054-1,0.082v0.418c0,0.027,0,0.054,0,0.082v0.418c0,0.027,0,0.054-1,0.082v0.418
		c0,0.027,0,0.054,0,0.082v0.418c0,0.027,0,0.054-1,0.082v0.418c0,0.027,0,0.054,0,0.082v0.418c0,0.027,0,0.054-1,0.082v0.418
		c0,0.027,0,0.054,0,0.082v0.418c0,0.027,0,0.054-1,0.082v0.418c0,0.027,0,0.054,0,0.082v0.418c0,0.027,0,0.054-1,0.082v0.418
		c0,0.027,0,0.054,0,0.082v0.418c0,0.027,0,0.054-1,0.082v0.418c0,0.027,0,0.054,0,0.082v0.418c0,0.027,0,0.054-1,0.082v0.418
		c0,0.027,0,0.054,0,0.082v0.418c0,0.027,0,0.054-1,0.082v0.418c0,0.027,0,0.054,0,0.082v0.418c0,0.027,0,0.054-1,0.082v0.418
		c0,0.027,0,0.054,0,0.082v0.418c0,0.027,0,0.054-1,0.082v0.418c0,0.027,0,0.054,0,0.082v0.418c0,0.027,0,0.054-1,0.082v0.418
		c0,0.027,0,0.054,0,0.082v0.418c0,0.027,0,0.054-1,0.082v0.418c0,0.027,0,0.054,0,0.082v0.418c0,0.027,0,0.054-1,0.082v0.418
		c0,0.027,0,0.054,0,0.082v0.418c0,0.027,0,0.054-1,0.082v0.418c0,0.027,0,0.054,0,0.082v0.418c0,0.027,0,0.054-1,0.082v0.418
		c0,0.027,0,0.054,0,0.082v0.418c0,0.027,0,0.054-1,0.082v0.418c0,0.027,0,0.054,0,0.082v0.418c0,0.027,0,0.054-1,0.082v0.418
		c0,0.027,0,0.054,0,0.082v0.418c0,0.027,0,0.054-1,0.082v0.418c0,0.027,0,0.054,0,0.082v0.418c0,0.027,0,0.054-1,0.082v0.418
		c0,0.027,0,0.054,0,0.082v0.418c0,0.027,0,0.054-1,0.082v0.418c0,0.027,0,0.054,0,0.082v0.418c0,0.027,0,0.054-1,0.082v0.418
		c0,0.027,0,0.054,0,0.082v0.418c0,0.027,0,0.054-1,0.082v0.418c0,0.027,0,0.054,0,0.082v0.418c0,0.027,0,0.054-1,0.082v0.418
		c0,0.027,0,0.054,0,0.082v0.418c0,0.027,0,0.054-1,0.082v0.418c0,0.027,0,0.054,0,0.082v0.418c0,0.027,0,0.054-1,0.082v0.418
		c0,0.027,0,0.054,0,0.082v0.418c0,0.027,0,0.054-1,0.082v0.418c0,0.027,0,0.054,0,0.082v0.418c0,0.027,0,0.054-1,0.082v0.418
		c0,0.027,0,0.054,0,0.082v0.418c0,0.027,0,0.054-1,0.082v0.418c0,0.027,0,0.054,0,0.082v0.418c0,0.027,0,0.054-1,0.082v0.418
		c0,0.027,0,0.054,0,0.082v0.418c0,0.027,0,0.054-1,0.082v0.418c0,0.027,0,0.054,0,0.082v0.418c0,0.027,0,0.054-1,0.082v0.418
		c0,0.027,0,0.054,0,0.082v0.418c0,0.027,0,0.054-1,0.082v0.418c0,0.027,0,0.054,0,0.082v0.418c0,0.027,0,0.054-1,0.082v0.418
		c0,0.027,0,0.054,0,0.082v0.418c0,0.027,0,0.054-1,0.082v0.418c0,0.027,0,0.054,0,0.082v0.418c0,0.027,0,0.054-1,0.082v0.418
		c0,0.027,0,0.054,0,0.082v0.418c0,0.027,0,0.054-1,0.082v0.418c0,0.027,0,0.054,0,0.082v0.418c0,0.027,0,0.054-1,0.082v0.418
		c0,0.027,0,0.054,0,0.082v0.418c0,0.027,0,0.054-1,0.082v0.418c0,0.027,0,0.054,0,0.082v0.418c0,0.027,0,0.054-1,0.082v0.418
		c0,0.027,0,0.054,0,0.082v0.418c0,0.027,0,0.054-1,0.082v0.418c0,0.027,0,0.054,0,0.082v0.418c0,0.027,0,0.054-1,0.082v0.418
		c0,0.028,0,0.055,0,0.082v0.418c0,0.028,0,0.055-1,0.082v0.418c0,0.028,0,0.055,0,0.082v0.418c0,0.028,0,0.055-1,0.082v0.418
		c0,0.028,0,0.055,0,0.082v0.418c0,0.028,0,0.055-1,0.082v0.418c0,0.028,0,0.055,0,0.082v0.418c0,0.028,0,0.055-1,0.082v0.418
		c0,0.028,0,0.055,0,0.082v0.418c0,0.028,0,0.055-1,0.082v0.418c0,0.028,0,0.055,0,0.082v0.418c0,0.028,0,0.055-1,0.082v0.418
		c0,0.028,0,0.055,0,0.082v0.418c0,0.028,0,0.055-1,0.082v0.418c0,0.028,0,0.055,0,0.082v0.418c0,0.028,0,0.055-1,0.082v0.418
		c0,0.028,0,0.055,0,0.082v0.418c0,0.028,0,0.055-1,0.082v0.418c0,0.028,0,0.055,0,0.082v0.418c0,0.028,0,0.055-1,0.082v0.418
		c0,0.028,0,0.055,0,0.082v0.418c0,0.028,0,0.055-1,0.082v0.418c0,0.028,0,0.055,0,0.082v0.418c0,0.028,0,0.055-1,0.082v0.418
		c0,0.028,0,0.055,0,0.082v0.418c0,0.028,0,0.055-1,0.082v0.418c0,0.028,0,0.055,0,0.082v0.418c0,0.028,0,0.055-1,0.082v0.418
		c0,0.028,0,0.055,0,0.082v0.418c0,0.028,0,0.055-1,0.082v0.418c0,0.028,0,0.055,0,0.082v0.418c0,0.028,0,0.055-1,0.082v0.418
		c0,0.028,0,0.055,0,0.082v0.418c0,0.028,0,0.055-1,0.082v0.418c0,0.028,0,0.055,0,0.082v0.418c0,0.028,0,0.055-1,0.082v0.418
		c0,0.028,0,0.055,0,0.082v0.418c0,0.028,0,0.055-1,0.082v0.418c0,0.028,0,0.055,0,0.082v0.418c0,0.028,0,0.055-1,0.082v0.418
		c0,0.028,0,0.055,0,0.082v0.418c0,0.028,0,0.055-1,0.082v0.418c0,0.028,0,0.055,0,0.082v0.418c0,0.028,0,0.055-1,0.082v0.418
		c0,0.028,0,0.055,0,0.082v0.418c0,0.028,0,0.055-1,0.082v0.418c0,0.028,0,0.055,0,0.082v0.418c0,0.028,0,0.055-1,0.082v0.418
		c0,0.028,0,0.055,0,0.082v0.418c0,0.028,0,0.055-1,0.082v0.418c0,0.028,0,0.055,0,0.082v0.418c0,0.028,0,0.055-1,0.082v0.418
		c0,0.028,0,0.055,0,0.082v0.418c0,0.028,0,0.055-1,0.082v0.418c0,0.028,0,0.055,0,0.082v0.418c0,0.028,0,0.055-1,0.082v0.418
		c0,0.028,0,0.055,0,0.082v0.418c0,0.028,0,0.055-1,0.082v0.418c0,0.028,0,0.055,0,0.082v0.418c0,0.028,0,0.055-1,0.082v0.418
		c0,0.028,0,0.055,0,0.082v0.418c0,0.028,0,0.055-1,0.082v0.418c0,0.028,0,0.055,0,0.082v0.418c0,0.028,0,0.055-1,0.082v0.418
		c0,0.028,0,0.055,0,0.082v0.418c0,0.028,0,0.055-1,0.082v0.418c0,0.028,0,0.055,0,0.082v0.418c0,0.028,0,0.055-1,0.082v0.418
		c0,0.028,0,0.055,0,0.082v0.418c0,0.028,0,0.055-1,0.082v0.418c0,0.028,0,0.055,0,0.082v0.418c0,0.028,0,0.055-1,0.082v0.418
		c0,0.028,0,0.055,0,0.082v0.418c0,0.028,0,0.055-1,0.082v0.418c0,0.028,0,0.055,0,0.082v0.418c0,0.028,0,0.055-1,0.082v0.418
		c0,0.028,0,0.055,0,0.082v0.418c0,0.028,0,0.055-1,0.082v0.418c0,0.028,0,0.055,0,0.082v0.418c0,0.028,0,0.055-1,0.082v0.418
		c0,0.028,0,0.055,0,0.082v0.418c0,0.028,0,0.055-1,0.082v0.418c0,0.028,0,0.055,0,0.082v0.418c0,0.028,0,0.055-1,0.082v0.418
		c0,0.028,0,0.055,0,0.082v0.418c0,0.028,0,0.055-1,0.082v0.418c0,0.028,0,0.055,0,0.082v0.418c0,0.028,0,0.055-1,0.082v0.418
		c0,0.028,0,0.055,0,0.082v0.418c0,0.028,0,0.055-1,0.082v0.418c0,0.028,0,0.055,0,0.082v0.418c0,0.028,0,0.055-1,0.082v0.418
		c0,0.028,0,0.055,0,0.082v0.418c0,0.028,0,0.055-1,0.082v0.418c0,0.028,0,0.055,0,0.082v0.418c0,0.028,0,0.055-1,0.082v0.418
		c0,0.028,0,0.055,0,0.082v0.418c0,0.028,0,0.055-1,0.082v0.418c0,0.028,0,0.055,0,0.082v0.418c0,0.028,0,0.055-1,0.082v0.418
		c0,0.028,0,0.055,0,0.082v0.418c0,0.028,0,0.055-1,0.082v0.418c0,0.028,0,0.055,0,0.082v0.418c0,0.028,0,0.055-1,0.082v0.418
		c0,0.028,0,0.055,0,0.082v0.418c0,0.028,0,0.055-1,0.082v0.418c0,0.028,0,0.055,0,0.082v0.418c0,0.028,0,0.055-1,0.082v0.418
		c0,0.028,0,0.055,0,0.082v0.418c0,0.028,0,0.055-1,0.082v0.418c0,0.028,0,0.055,0,0.082v0.418c0,0.028,0,0.055-1,0.082v0.418
		c0,0.028,0,0.055,0,0.082v0.418c0,0.028,0,0.055-1,0.082v0.418c0,0.028,0,0.055,0,0.082v0.418c0,0.028,0,0.055-1,0.082v0.418
		c0,0.028,0,0.055,0,0.082v0.418c0,0.028,0,0.055-1,0.082v0.418c0,0.028,0,0.055,0,0.082v0.418c0,0.028,0,0.055-1,0.082v0.418
		c0,0.028,0,0.055,0,0.082v0.418c0,0.028,0,0.055-1,0.082v0.418c0,0.028,0,0.055,0,0.082v0.418c0,0.028,0,0.055-1,0.082v0.418
		c0,0.028,0,0.055,0,0.082v0.418c0,0.028,0,0.055-1,0.082v0.418c0,0.028,0,0.055,0,0.082v0.418c0,0.028,0,0.055-1,0.082v0.418
		c0,0.028,0,0.055,0,0.082v0.418c0,0.028,0,0.055-1,0.082v0.418c0,0.028,0,0.055,0,0.082v0.418c0,0.028,0,0.055-1,0.082v0.418
		c0,0.028,0,0.055,0,0.082v0.418c0,0.028,0,0.055-1,0.082v0.418c0,0.028,0,0.055,0,0.082v0.418c0,0.028,0,0.055-1,0.082v0.418
		c0,0.028,0,0.055,0,0.082v0.418c0,0.028,0,0.055-1,0.082v0.418c0,0.028,0,0.055,0,0.082v0.418c0,0.028,0,0.055-1,0.082v0.418
		c0,0.028,0,0.055,0,0.082v0.418c0,0.028,0,0.055-1,0.082v0.418c0,0.028,0,0.055,0,0.082v0.418c0,0.028,0,0.055-1,0.082v0.418
		c0,0.028,0,0.055,0,0.082v0.418c0,0.028,0,0.055-1,0.082v0.418c0,0.028,0,0.055,0,0.082v0.418c0,0.028,0,0.055-1,0.082v0.418
		c0,0.028,0,0.055,0,0.082v0.418c0,0.028,0,0.055-1,0.082v0.418c0,0.028,0,0.055,0,0.082v0.418c0,0.028,0,0.055-1,0.082v0.418
		c0,0.028,0,0.055,0,0.082v0.418c0,0.028,0,0.055-1,0.082v0.418c0,0.028,0,0.055,0,0.082v0.418c0,0.028,0,0.055-1,0.082v0.418
		c0,0.028,0,0.055,0,0.082v0.418c0,0.028,0,0.055-1,0.082v0.418c0,0.028,0,0.055,0,0.082v0.418c0,0.028,0,0.055-1,0.082v0.418
		c0,0.028,0,0.055,0,0.082v0.418c0,0.028,0,0.055-1,0.082v0.418c0,0.028,0,0.055,0,0.082v0.418c0,0.028,0,0.055-1,0.082v0.418
		c0,0.028,0,0.055,0,0.082v0.418c0,0.028,0,0.055-1,0.082v0.418c0,0.028,0,0.055,0,0.082v0.418c0,0.028,0,0.055-1,0.082v0.418
		c0,0.028,0,0.055,0,0.082v0.418c0,0.028,0,0.055-1,0.082v0.418c0,0.028,0,0.055,0,0.082v0.418c0,0.028,0,0.055-1,0.082v0.418
		c0,0.028,0,0.055,0,0.082v0.418c0,0.028,0,0.055-1,0.082v0.418c0,0.028,0,0.055,0,0.082v0.418c0,0.028,0,0.055-1,0.082v0.418
		c0,0.028,0,0.055,0,0.082v0.418c0,0.028,0,0.055-1,0.082v0.418c0,0.028,0,0.055,0,0.082v0.418c0,0.028,0,0.055-1,0.082v0.418
		c0,0.028,0,0.055,0,0.082v0.418c0,0.028,0,0.055-1,0.082v0.418c0,0.028,0,0.055,0,0.082v0.418c0,0.028,0,0.055-1,0.082v0.418
		c0,0.028,0,0.055,0,0.082v0.418c0,0.028,0,0.055-1,0.082v0.418c0,0.028,0,0.055,0,0.082v0.418c0,0.028,0,0.055-1,0.082v0.418
		c0,0.028,0,0.055,0,0.082v0.418c0,0.028,0,0.055-1,0.082v0.418c0,0.028,0,0.055,0,0.082v0.418c0,0.028,0,0.055-1,0.082v0.418
		c0,0.028,0,0.055,0,0.082v0.418c0,0.028,0,0.055-1,0.082v0.418c0,0.028,0,0.055,0,0.082v0.418c0,0.028,0,0.055-1,0.082v0.418
		c0,0.028,0,0.055,0,0.082v0.418c0,0.028,0,0.055-1,0.082v0.418c0,0.028,0,0.055,0,0.082v0.418c0,0.028,0,0.055-1,0.082v0.418
		c0,0.028,0,0.055,0,0.082v0.418c0,0.028,0,0.055-1,0.082v0.418c0,0.028,0,0.055,0,0.082v0.418c0,0.028,0,0.055-1,0.082v0.418
		c0,0.028,0,0.055,0,0.082v0.418c0,0.028,0,0.055-1,0.082v0.418c0,0.028,0,0.055,0,0.082v0.418c0,0.028,0,0.055-1,0.082v0.418
		c0,0.028,0,0.055,0,0.082v0.418c0,0.028,0,0.055-1,0.082v0.418c0,0.028,0,0.055,0,0.082v0.418c0,0.028,0,0.055-1,0.082v0.418
		c0,0.028,0,0.055,0,0.082v0.418c0,0.028,0,0.055-1,0.082v0.418c0,0.028,0,0.055,0,0.082v0.418c0,0.028,0,0.055-1,0.082v0.418
		c0,0.028,0,0.055,0,0.082v0.418c0,0.028,0,0.055-1,0.082v0.418c0,0.028,0,0.055,0,0.082v0.418c0,0.028,0,0.055-1,0.082v0.418
		c0,0.028,0,0.055,0,0.082v0.418c0,0.028,0,0.055-1,0.082v0.418c0,0.028,0,0.055,0,0.082v0.418c0,0.028,0,0.055-1,0.082v0.418
		c0,0.028,0,0.055,0,0.082v0.418c0,0.028,0,0.055-1,0.082v0.418c0,0.028,0,0.055,0,0.082v0.418c0,0.028,0,0.055-1,0.082v0.418
		c0,0.028,0,0.055,0,0.082v0.418c0,0.028,0,0.055-1,0.082v0.418c0,0.028,0,0.055,0,0.082v0.418c0,0.028,0,0.055-1,0.082v0.418
		c0,0.028,0,0.055,0,0.082v0.418c0,0.028,0,0.055-1,0.082v0.418c0,0.028,0,0.055,0,0.082v0.418c0,0.028,0,0.055-1,0.082v0.418
		c0,0.028,0,0.055,0,0.082v0.418c0,0.028,0,0.055-1,0.082v0.418c0,0.028,0,0.055,0,0.082v0.418c0,0.028,0,0.055-1,0.082v0.418
		c0,0.028,0,0.055,0,0.082v0.418c0,0.028,0,0.055-1,0.082v0.418c0,0.028,0,0.055,0,0.082v0.418c0,0.028,0,0.055-1,0.082v0.418
		c0,0.028,0,0.055,0,0.082v0.418c0,0.028,0,0.055-1,0.082v0.418c0,0.028,0,0.055,0,0.082v0.418c0,0.028,0,0.055-1,0.082v0.418
		c0,0.028,0,0.055,0,0.082v0.418c0,0.028,0,0.055-1,0.082v0.418c0,0.028,0,0.055,0,0.082v0.418c0,0.028,0,0.055-1,0.082v0.418
		c0,0.028,0,0.055,0,0.082v0.418c0,0.028,0,0.055-1,0.082v0.418c0,0.028,0,0.055,0,0.082v0.418c0,0.028,0,0.055-1,0.082v0.418
		c0,0.028,0,0.055,0,0.082v0.418c0,0.028,0,0.055-1,0.082v0.418c0,0.028,0,0.055,0,0.082v0.418c0,0.028,0,0.055-1,0.082v0.418
		c0,0.028,0,0.055,0,0.082v0.418c0,0.028,0,0.055-1,0.082v0.418c0,0.028,0,0.055,0,0.082v0.418c0,0.028,0,0.055-1,0.082v0.418
		c0,0.028,0,0.055,0,0.082v0.418c0,0.028,0,0.055-1,0.082v0.418c0,0.028,0,0.055,0,0.082v0.418c0,0.028,0,0.055-1,0.082v0.418
		c0,0.028,0,0.055,0,0.082v0.418c0,0.028,0,0.055-1,0.082v0.418c0,0.028,0,0.055,0,0.082v0.418c0,0.028,0,0.055-1,0.082v0.418
		c0,0.028,0,0.055,0,0.082v0.418c0,0.028,0,0.055-1,0.082v0.418c0,0.028,0,0.055,0,0.082v0.418c0,0.028,0,0.055-1,0.082v0.418
		c0,0.028,0,0.055,0,0.082v0.418c0,0.028,0,0.055-1,0.082v0.418c0,0.028,0,0.055,0,0.082v0.418c0,0.028,0,0.055-1,0.082v0.418
		c0,0.028,0,0.055,0,0.082v0.418c0,0.028,0,0.055-1,0.082v0.418c0,0.028,0,0.055,0,0.082v0.418c0,0.028,0,0.055-1,0.082v0.418
		c0,0.028,0,0.055,0,0.082v0.418c0,0.028,0,0.055-1,0.082v0.418c0,0.028,0,0.055,0,0.082v0.418c0,0.028,0,0.055-1,0.082v0.418
		c0,0.028,0,0.055,0,0.082v0.418c0,0.028,0,0.055-1,0.082v0.418c0,0.028,0,0.055,0,0.082v0.418c0,0.028,0,0.055-1,0.082v0.418
		c0,0.028,0,0.055,0,0.082v0.418c0,0.028,0,0.055-1,0.082v0.418c0,0.028,0,0.055,0,0.082v0.418c0,0.028,0,0.055-1,0.082v0.418
		c0,0.028,0,0.055,0,0.082v0.418c0,0.028,0,0.055-1,0.082v0.418c0,0.028,0,0.055,0,0.082v0.418c0,0.028,0,0.055-1,0.082v0.418
		c0,0.028,0,0.055,0,0.082v0.418c0,0.028,0,0.055-1,0.082v0.418c0,0.028,0,0.055,0,0.082v0.418c0,0.028,0,0.055-1,0.082v0.418
		c0,0.028,0,0.055,0,0.082v0.418c0,0.028,0,0.055-1,0.082v0.418c0,0.028,0,0.055,0,0.082v0.418c0,0.028,0,0.055-1,0.082v0.418
		c0,0.028,0,0.055,0,0.082v0.418c0,0.028,0,0.055-1,0.082v0.418c0,0.028,0,0.055,0,0.082v0.418c0,0.028,0,0.055-1,0.082v0.418
		c0,0.028,0,0.055,0,0.082v0.418c0,0.028,0,0.055-1,0.082v0.418c0,0.028,0,0.055,0,0.082v0.418c0,0.028,0,0.055-1,0.082v0.418
		c0,0.028,0,0.055,0,0.082v0.418c0,0.028,0,0.055-1,0.082v0.418c0,0.028,0,0.055,0,0.082v0.418c0,0.028,0,0.055-1,0.082v0.418
		c0,0.028,0,0.055,0,0.082v0.418c0,0.028,0,0.055-1,0.082v0.418c0,0.028,0,0.055,0,0.082v0.418c0,0.028,0,0.055-1,0.082v0.418
		c0,0.028,0,0.055,0,0.082v0.418c0,0.028,0,0.055-1,0.082v0.418c0,0.028,0,0.055,0,0.082v0.418c0,0.028,0,0.055-1,0.082v0.418
		c0,0.028,0,0.055,0,0.082v0.418c0,0.028,0,0.055-1,0.082v0.418c0,0.028,0,0.055,0,0.082v0.418c0,0.028,0,0.055-1,0.082v0.418
		c0,0.028,0,0.055,0,0.082v0.418c0,0.028,0,0.055-1,0.082v0.418c0,0.028,0,0.055,0,0.082v0.418c0,0.028,0,0.055-1,0.082v0.418
		c0,0.028,0,0.055,0,0.082v0.418c0,0.028,0,0.055-1,0.082v0.418c0,0.028,0,0.055,0,0.082V609h41l0,0h1v-1l0,0l0,0h1v-1l0,0l0,0h1v-1
		l0,0l0,0h1v-1l0,0l0,0h1v-1l0,0l0,0h1v-1l0,0l0,0h1v-1l0,0l0,0h1v-1l0,0l0,0h1v-1l0,0l0,0h1v-1l0,0l0,0h1v-1l0,0l0,0h1v-1l0,0l0,0
		h1v-1l0,0l0,0h1v-1l0,0l0,0h1v-1l0,0l0,0h1v-1l0,0l0,0h1v-1l0,0l0,0h1v-1l0,0l0,0h1v-1l0,0l0,0h1v-1l0,0l0,0h1v-1l0,0l0,0h1v-1l0,0
		l0,0h1v-1l0,0l0,0h1v-1l0,0l0,0h1v-1l0,0l0,0h1v-1l0,0l0,0h1v-1l0,0l0,0h1v-1l0,0l0,0h1v-1l0,0l0,0h1v-1l0,0l0,0h1v-1l0,0l0,0h1v-1
		l0,0l0,0h1v-1l0,0l0,0h1v-1l0,0l0,0h1v-1l0,0l0,0h1v-1l0,0l0,0h1v-1l0,0l0,0h1v-1l0,0l0,0h1v-1l0,0l0,0h1v-1l0,0l0,0h1v-1l0,0l0,0
		h1v-1l0,0l0,0h1v-1l0,0l0,0h1v-1l0,0l0,0h1v-1l0,0l0,0h1v-1l0,0l0,0h1v-1l0,0l0,0h1v-1l0,0l0,0h1v-1l0,0l0,0h1v-1l0,0l0,0h1v-1l0,0
		l0,0h1v-1l0,0l0,0h1v-1l0,0l0,0h1v-1l0,0l0,0h1v-1l0,0l0,0h1v-1l0,0l0,0h1v-1l0,0l0,0h1v-1l0,0l0,0h1v-1l0,0l0,0h1v-1l0,0l0,0h1v-1
		l0,0l0,0h1v-1l0,0l0,0h1v-1l0,0l0,0h1v-1l0,0l0,0h1v-1l0,0l0,0h1v-1l0,0l0,0h1v-1l0,0l0,0h1v-1l0,0l0,0h1v-1l0,0l0,0h1v-1l0,0l0,0
		h1v-1l0,0l0,0h1v-1l0,0l0,0h1v-1l0,0l0,0h1v-1l0,0l0,0h1v-1l0,0l0,0h1v-1l0,0l0,0h1v-1l0,0l0,0h1v-1l0,0l0,0h1v-1l0,0l0,0h1v-1l0,0
		l0,0h1v-1l0,0l0,0h1v-1l0,0l0,0h1v-1l0,0l0,0h1v-1l0,0l0,0h1v-1l0,0l0,0h1v-1l0,0l0,0h1v-1l0,0l0,0h1v-1l0,0l0,0h1v-1l0,0l0,0h1v-1
		l0,0l0,0h1v-1l0,0l0,0h1v-1l0,0l0,0h1v-1l0,0l0,0h1v-1l0,0l0,0h1v-1l0,0l0,0h1v-1l0,0l0,0h1v-1l0,0l0,0h1v-1l0,0l0,0h1v-1l0,0l0,0
		h1v-1l0,0l0,0h1v-1l0,0l0,0h1v-1l0,0l0,0h1v-1l0,0l0,0h1v-1l0,0l0,0h1v-1l0,0l0,0h1v-1l0,0l0,0h1v-1l0,0l0,0h1v-1l0,0l0,0h1v-1l0,0
		l0,0h1v109h115l0,0h1v-1l0,0l0,0h1v-1l0,0l0,0h1v-1l0,0l0,0h1v-1l0,0l0,0h1v-1l0,0l0,0h1v-1l0,0l0,0h1v-1l0,0l0,0h1v-1l0,0l0,0h1
		v-1l0,0l0,0h1v-1l0,0l0,0h1v-1l0,0l0,0h1v-1l0,0l0,0h1v-1l0,0l0,0h1v-1l0,0l0,0h1v-1l0,0l0,0h1v-1l0,0l0,0h1v-1l0,0l0,0h1v-1l0,0
		l0,0h1v-1l0,0l0,0h1v-1l0,0l0,0h1v-1l0,0l0,0h1v-1l0,0l0,0h1v-1l0,0l0,0h1v-1l0,0l0,0h1v-1l0,0l0,0h1v-1l0,0l0,0h1v-1l0,0l0,0h1v-1
		l0,0l0,0h1v-1l0,0l0,0h1v-1l0,0l0,0h1v-1l0,0l0,0h1v-1l0,0l0,0h1v-1l0,0l0,0h1v-1l0,0l0,0h1v-1l0,0l0,0h1v-1l0,0l0,0h1v-1l0,0l0,0
		h1v-1l0,0l0,0h1v-1l0,0l0,0h1v-1l0,0l0,0h1v-1l0,0l0,0h1v-1l0,0l0,0h1v-1l0,0l0,0h1v-1l0,0l0,0h1v-1l0,0l0,0h1v-1l0,0l0,0h1v-1l0,0
		l0,0h1v-1l0,0l0,0h1v-1l0,0l0,0h1v-1l0,0l0,0h1v-1l0,0l0,0h1v-1l0,0l0,0h1v-1l0,0l0,0h1v-1l0,0l0,0h1v-1l0,0l0,0h1v-1l0,0l0,0h1v-1
		l0,0l0,0h1v-1l0,0l0,0h1v-1l0,0l0,0h1v-1l0,0l0,0h1v-1l0,0l0,0h1v-1l0,0l0,0h1v-1l0,0l0,0h1v-1l0,0l0,0h1v-1l0,0l0,0h1v-1l0,0l0,0
		h1v-1l0,0l0,0h1v-1l0,0l0,0h1v-1l0,0l0,0h1v-1l0,0l0,0h1v-1l0,0l0,0h1v-1l0,0l0,0h1v-1l0,0l0,0h1v-1l0,0l0,0h1v-1l0,0l0,0h1v-1l0,0
		l0,0h1v-1l0,0l0,0h1v-1l0,0l0,0h1v-1l0,0l0,0h1v-1l0,0l0,0h1v-1l0,0l0,0h1v-1l0,0l0,0h1v-1l0,0l0,0h1v-1l0,0l0,0h1v-1l0,0l0,0h1v-1
		l0,0l0,0h1v-1l0,0l0,0h1v-1l0,0l0,0h1v-1l0,0l0,0h1v-1l0,0l0,0h1v-1l0,0l0,0h1v-1l0,0l0,0h1v-1l0,0l0,0h1v-1l0,0l0,0h1v-1l0,0l0,0
		h1v-1l0,0l0,0h1v-1l0,0l0,0h1v-1l0,0l0,0h1v-1l0,0l0,0h1v-1l0,0l0,0h1v-1l0,0l0,0h1v-1l0,0l0,0h1v-1l0,0l0,0h1v-1l0,0l0,0h1v-1l0,0
		l0,0h1v-1l0,0l0,0h1v-1l0,0l0,0h1v-1l0,0l0,0h1v-1l0,0l0,0h1v-1l0,0l0,0h1v-1l0,0l0,0h1v-1l0,0l0,0h1v-1l0,0l0,0h1v-1l0,0l0,0h1v-1
		l0,0l0,0h1v-1l0,0l0,0h1v-1l0,0l0,0h1v-1l0,0l0,0h1v-1l0,0l0,0h1v-1l0,0l0,0h1v-1l0,0l0,0h1v-1l0,0l0,0h1v-1l0,0l0,0h1v-1l0,0l0,0
		h1v-1l0,0l0,0h1v-1l0,0l0,0h1v-1l0,0l0,0h1v-1l0,0l0,0h1v-1l0,0l0,0h1v-1l0,0l0,0h1v-1l0,0l0,0h1v-1l0,0l0,0h1v-1l0,0l0,0h1v-1l0,0
		l0,0h1v-1l0,0l0,0h1v-1l0,0l0,0h1v-1l0,0l0,0h1v-1l0,0l0,0h1v-1l0,0l0,0h1v-1l0,0l0,0h1v-1l0,0l0,0h1v-1l0,0l0,0h1v-1l0,0l0,0h1v-1
		l0,0l0,0h1v-1l0,0l0,0h1v-1l0,0l0,0h1v-1l0,0l0,0h1v-1l0,0l0,0h1v-1l0,0l0,0h1v-1l0,0l0,0h1v-1l0,0l0,0h1v-1l0,0l0,0h1v-1l0,0l0,0
		h1v-1l0,0l0,0h1v-1l0,0l0,0h1v-1l0,0l0,0h1v-1l0,0l0,0h1v-1l0,0l0,0h1v-1l0,0l0,0h1v-1l0,0l0,0h1v-1l0,0l0,0h1v-1l0,0l0,0h1v-1l0,0
		l0,0h1v-1l0,0l0,0h1v-1l0,0l0,0h1v-1l0,0l0,0h1v-1l0,0l0,0h1v-1l0,0l0,0h1v-1l0,0l0,0h1v-1l0,0l0,0h1v-1l0,0l0,0h1v-1l0,0l0,0h1v-1
		l0,0l0,0h1v-1l0,0l0,0h1v-1l0,0l0,0h1v-1l0,0l0,0h1v-1l0,0l0,0h1v-1l0,0l0,0h1v-1l0,0l0,0h1v-1l0,0l0,0h1v-1l0,0l0,0h1v-1l0,0l0,0
		h1v-1l0,0l0,0h1v-1l0,0l0,0h1v-1l0,0l0,0h1v-1l0,0l0,0h1v-1l0,0l0,0h1v-1l0,0l0,0h1v-1l0,0l0,0h1v-1l0,0l0,0h1v-1l0,0l0,0h1v-1l0,0
		l0,0h1v-1l0,0l0,0h1v-1l0,0l0,0h1v-1l0,0l0,0h1v-1l0,0l0,0h1v-1l0,0l0,0h1v-1l0,0l0,0h1v-1l0,0l0,0h1v-1l0,0l0,0h1v-1l0,0l0,0h1v-1
		l0,0l0,0h1v-1l0,0l0,0h1v-1l0,0l0,0h1v-1l0,0l0,0h1v-1l0,0l0,0h1v-1l0,0l0,0h1v-1l0,0l0,0h1v-1l0,0l0,0h1v-1l0,0l0,0h1v-1l0,0l0,0
		h1v-1l0,0l0,0h1v-1l0,0l0,0h1v-1l0,0l0,0h1v-1l0,0l0,0h1v-1l0,0l0,0h1v-1l0,0l0,0h1v-1l0,0l0,0h1v-1l0,0l0,0h1v-1l0,0l0,0h1v-1l0,0
		l0,0h1v-1l0,0l0,0h1v-1l0,0l0,0h1v-1l0,0l0,0h1v-1l0,0l0,0h1v-1l0,0l0,0h1v-1l0,0l0,0h1v-1l0,0l0,0h1v-1l0,0l0,0h1v-1l0,0l0,0h1v-1
		l0,0l0,0h1v-1l0,0l0,0h1v-1l0,0l0,0h1v-1l0,0l0,0h1v-1l0,0l0,0h1v-1l0,0l0,0h1v-1l0,0l0,0h1v-1l0,0l0,0h1v-1l0,0l0,0h1v-1l0,0l0,0
		h1v-1l0,0l0,0h1v-1l0,0l0,0h1v-1l0,0l0,0h1v-1l0,0l0,0h1v-1l0,0l0,0h1v-1l0,0l0,0h1v-1l0,0l0,0h1v-1l0,0l0,0h1v-1l0,0l0,0h1v-1l0,0
		l0,0h1v-1l0,0l0,0h1v-1l0,0l0,0h1v-1l0,0l0,0h1v-1l0,0l0,0h1v-1l0,0l0,0h1v-1l0,0l0,0h1v-1l0,0l0,0h1v-1l0,0l0,0h1v-1l0,0l0,0h1v-1
		l0,0l0,0h1v-1l0,0l0,0h1v-1l0,0l0,0h1v-1l0,0l0,0h1v-1l0,0l0,0h1v-1l0,0l0,0h1v-1l0,0l0,0h1v-1l0,0l0,0h1v-1l0,0l0,0h1v-1l0,0l0,0
		h1v-1l0,0l0,0h1v-1l0,0l0,0h1v-1l0,0l0,0h1v-1l0,0l0,0h1v-1l0,0l0,0h1v-1l0,0V299z"/>
</g>
<g>
	<path fill="#FFFFFF" d="M128.9,151.516c12.906-2.195,31.027-3.844,56.561-3.844c25.813,0,44.209,4.943,56.564,15.102
		c12.08,9.063,19.77,24.438,19.77,42.56c0,18.396-5.767,33.772-17.023,43.932c-14.279,13.18-35.421,19.495-60.133,19.495
		c-5.491,0-10.434-0.274-14.277-1.098v66.446H128.9V151.516z M170.361,235.537c3.57,0.822,7.688,1.098,14.002,1.098
		c22.241,0,35.97-11.258,35.97-29.929c0-17.024-11.806-27.183-32.948-27.183c-8.237,0-14.003,0.549-17.023,1.373V235.537z"/>
	<path fill="#FFFFFF" d="M279.777,149.045h41.735v149.918H395.1v35.146H279.777V149.045z"/>
</g>
</svg>
