<?xml version="1.0" encoding="utf-8"?>
<!-- Generator: Adobe Illustrator 16.0.3, SVG Export Plug-In . SVG Version: 6.00 Build 0)  -->
<!DOCTYPE svg PUBLIC "-//W3C//DTD SVG 1.1//EN" "http://www.w3.org/Graphics/SVG/1.1/DTD/svg11.dtd">
<svg version="1.1" id="Layer_1" xmlns="http://www.w3.org/2000/svg" xmlns:xlink="http://www.w3.org/1999/xlink" x="0px" y="0px"
	 width="512px" height="512px" viewBox="0 0 512 512" enable-background="new 0 0 512 512" xml:space="preserve">
<path fill="#444953" d="M512,100C512,44.771,467.229,0,412,0H100C44.771,0,0,44.771,0,100v312c0,55.229,44.771,100,100,100h312
	c55.229,0,100-44.771,100-100V100z"/>
<g>
	<defs>
		<path id="SVGID_1_" d="M512,100C512,44.771,467.229,0,412,0H100C44.771,0,0,44.771,0,100v312c0,55.229,44.771,100,100,100h312
			c55.229,0,100-44.771,100-100V100z"/>
	</defs>
	<clipPath id="SVGID_2_">
		<use xlink:href="#SVGID_1_"  overflow="visible"/>
	</clipPath>
	<path clip-path="url(#SVGID_2_)" fill="#353A42" d="M370,149v1l0,0l0,0h-1v1l0,0l0,0h-1v1l0,0l0,0h-1v1l0,0l0,0h-1v1l0,0l0,0h-1v1
		l0,0l0,0h-1v1l0,0l0,0h-1v1l0,0l0,0h-1v1l0,0l0,0h-1v1l0,0l0,0h-1v1l0,0l0,0h-1v1l0,0l0,0h-1v1l0,0l0,0h-1v1l0,0l0,0h-1v1l0,0l0,0
		h-1v1l0,0l0,0h-1v1l0,0l0,0h-1v1l0,0l0,0h-1v1l0,0l0,0h-1v1l0,0l0,0h-1v1l0,0l0,0h-1v1l0,0l0,0h-1v1l0,0l0,0h-1v1l0,0l0,0h-1v1l0,0
		l0,0h-1v1l0,0l0,0h-1v1l0,0l0,0h-1v1l0,0l0,0h-1v1l0,0l0,0h-1v1l0,0l0,0h-1v1l0,0l0,0h-1v1l0,0l0,0h-1v1l0,0l0,0h-1v1l0,0l0,0h-1v1
		l0,0l0,0h-1v1l0,0l0,0h-1v1l0,0l0,0h-1v1l0,0l0,0h-1v1l0,0l0,0h-1v1l0,0l0,0h-1v1l0,0l0,0h-1v1l0,0l0,0h-1v1l0,0l0,0h-1v1l0,0l0,0
		h-1v1l0,0l0,0h-1v1l0,0l0,0h-1v1l0,0l0,0h-1v1l0,0l0,0h-1v1l0,0l0,0h-1v1l0,0l0,0h-1v1l0,0l0,0h-1v1l0,0l0,0h-1v1l0,0l0,0h-1v1l0,0
		l0,0h-1v1l0,0l0,0h-1v1l0,0l0,0h-1v1l0,0l0,0h-1v1l0,0l0,0h-1v1l0,0l0,0h-1v1l0,0l0,0h-1v1l0,0l0,0h-1v1l0,0l0,0h-1v1l0,0l0,0h-1v1
		l0,0l0,0h-1v1l0,0l0,0h-1v1l0,0l0,0h-1v1l0,0l0,0h-1v1l0,0v-68h-41v1h-1l0,0l0,0v1h-1l0,0l0,0v1h-1l0,0l0,0v1h-1l0,0l0,0v1h-1l0,0
		l0,0v1h-1l0,0l0,0v1h-1l0,0l0,0v1h-1l0,0l0,0v1h-1l0,0l0,0v1h-1l0,0l0,0v1h-1l0,0l0,0v1h-1l0,0l0,0v1h-1l0,0l0,0v1h-1l0,0l0,0v1h-1
		l0,0l0,0v1h-1l0,0l0,0v1h-1l0,0l0,0v1h-1l0,0l0,0v1h-1l0,0l0,0v1h-1l0,0l0,0v1h-1l0,0l0,0v1h-1l0,0l0,0v1h-1l0,0l0,0v1h-1l0,0l0,0
		v1h-1l0,0l0,0v1h-1l0,0l0,0v1h-1l0,0l0,0v1h-1l0,0l0,0v1h-1v0.169c-2-6.175-6.867-11.391-12.3-15.632
		c-13.075-10.624-32.152-14.71-59.392-14.71c-22.337,0-41.308,1.634-55.308,4.086v0.413c0,0.03,0,0.058,0,0.087v0.413
		c0,0.03-1,0.058-1,0.087v0.413c0,0.03,0,0.058,0,0.087v0.413c0,0.03-1,0.058-1,0.087v0.413c0,0.03,0,0.058,0,0.087v0.413
		c0,0.03-1,0.058-1,0.087v0.413c0,0.03,0,0.058,0,0.087v0.413c0,0.03-1,0.058-1,0.087v0.413c0,0.03,0,0.058,0,0.087v0.413
		c0,0.03-1,0.058-1,0.087v0.413c0,0.03,0,0.058,0,0.087v0.413c0,0.03-1,0.058-1,0.087v0.413c0,0.03,0,0.058,0,0.087v0.413
		c0,0.03-1,0.058-1,0.087v0.413c0,0.03,0,0.058,0,0.087v0.413c0,0.03-1,0.058-1,0.087v0.413c0,0.03,0,0.058,0,0.087v0.413
		c0,0.03-1,0.058-1,0.087v0.413c0,0.03,0,0.058,0,0.087v0.413c0,0.03-1,0.058-1,0.087v0.413c0,0.03,0,0.058,0,0.087v0.413
		c0,0.03-1,0.058-1,0.087v0.413c0,0.03,0,0.058,0,0.087v0.413c0,0.03-1,0.058-1,0.087v0.413c0,0.03,0,0.058,0,0.087v0.413
		c0,0.03-1,0.058-1,0.087v0.413c0,0.03,0,0.058,0,0.087v0.413c0,0.03-1,0.058-1,0.087v0.413c0,0.03,0,0.058,0,0.087v0.413
		c0,0.03-1,0.058-1,0.087v0.413c0,0.03,0,0.058,0,0.087v0.413c0,0.03-1,0.058-1,0.087v0.413c0,0.03,0,0.058,0,0.087v0.413
		c0,0.03-1,0.058-1,0.087v0.413c0,0.03,0,0.058,0,0.087v0.413c0,0.03-1,0.058-1,0.087v0.413c0,0.03,0,0.058,0,0.087v0.413
		c0,0.03-1,0.058-1,0.087v0.413c0,0.03,0,0.058,0,0.087v0.413c0,0.03-1,0.058-1,0.087v0.413c0,0.03,0,0.058,0,0.087v0.413
		c0,0.03-1,0.058-1,0.087v0.413c0,0.03,0,0.058,0,0.087v0.413c0,0.03-1,0.058-1,0.087v0.413c0,0.03,0,0.058,0,0.087v0.413
		c0,0.03-1,0.058-1,0.087v0.413c0,0.03,0,0.058,0,0.087v0.413c0,0.03-1,0.058-1,0.087v0.413c0,0.03,0,0.058,0,0.087v0.413
		c0,0.03-1,0.058-1,0.087v0.413c0,0.03,0,0.058,0,0.087v0.413c0,0.03-1,0.058-1,0.087v0.413c0,0.03,0,0.058,0,0.087v0.413
		c0,0.03-1,0.058-1,0.087v0.413c0,0.03,0,0.058,0,0.087v0.413c0,0.03-1,0.058-1,0.087v0.413c0,0.03,0,0.058,0,0.087v0.413
		c0,0.03-1,0.058-1,0.087v0.413c0,0.03,0,0.058,0,0.087v0.413c0,0.03-1,0.058-1,0.087v0.413c0,0.03,0,0.058,0,0.087v0.413
		c0,0.03-1,0.058-1,0.087v0.413c0,0.03,0,0.058,0,0.087v0.413c0,0.03-1,0.058-1,0.087v0.413c0,0.03,0,0.058,0,0.087v0.413
		c0,0.03-1,0.058-1,0.087v0.413c0,0.03,0,0.058,0,0.087v0.413c0,0.03-1,0.058-1,0.087v0.413c0,0.03,0,0.058,0,0.087v0.413
		c0,0.03-1,0.058-1,0.087v0.413c0,0.03,0,0.058,0,0.087v0.413c0,0.03-1,0.058-1,0.087v0.413c0,0.03,0,0.058,0,0.087v0.413
		c0,0.03-1,0.058-1,0.087v0.413c0,0.03,0,0.058,0,0.087v0.413c0,0.03-1,0.058-1,0.087v0.413c0,0.03,0,0.058,0,0.087v0.413
		c0,0.03-1,0.058-1,0.087v0.413c0,0.03,0,0.058,0,0.087v0.413c0,0.03-1,0.058-1,0.087v0.413c0,0.03,0,0.058,0,0.087v0.413
		c0,0.03-1,0.058-1,0.087v0.413c0,0.03,0,0.058,0,0.087v0.413c0,0.03-1,0.058-1,0.087v0.413c0,0.03,0,0.058,0,0.087v0.413
		c0,0.03-1,0.058-1,0.087v0.413c0,0.03,0,0.058,0,0.087v0.413c0,0.03-1,0.058-1,0.087v0.413c0,0.03,0,0.058,0,0.087v0.413
		c0,0.03-1,0.058-1,0.087v0.413c0,0.03,0,0.058,0,0.087v0.413c0,0.03-1,0.058-1,0.087v0.413c0,0.03,0,0.058,0,0.087v0.413
		c0,0.03-1,0.058-1,0.087v0.413c0,0.03,0,0.058,0,0.087v0.413c0,0.03-1,0.058-1,0.087v0.413c0,0.03,0,0.058,0,0.087v0.413
		c0,0.03-1,0.058-1,0.087v0.413c0,0.03,0,0.058,0,0.087v0.413c0,0.03-1,0.058-1,0.087v0.413c0,0.03,0,0.058,0,0.087v0.413
		c0,0.03-1,0.058-1,0.087v0.413c0,0.03,0,0.058,0,0.087v0.413c0,0.03-1,0.058-1,0.087v0.413c0,0.03,0,0.058,0,0.087v0.413
		c0,0.03-1,0.058-1,0.087v0.413c0,0.03,0,0.058,0,0.087v0.413c0,0.03-1,0.058-1,0.087v0.413c0,0.03,0,0.058,0,0.087v0.413
		c0,0.03-1,0.058-1,0.087v0.413c0,0.03,0,0.058,0,0.087v0.413c0,0.03-1,0.058-1,0.087v0.413c0,0.03,0,0.058,0,0.087v0.413
		c0,0.03-1,0.058-1,0.087v0.413c0,0.03,0,0.058,0,0.087v0.413c0,0.03-1,0.058-1,0.087v0.413c0,0.03,0,0.058,0,0.087v0.413
		c0,0.03-1,0.058-1,0.087v0.413c0,0.03,0,0.058,0,0.087v0.413c0,0.03-1,0.058-1,0.087v0.413c0,0.03,0,0.058,0,0.087v0.413
		c0,0.03-1,0.058-1,0.087v0.413c0,0.03,0,0.058,0,0.087v0.413c0,0.03-1,0.058-1,0.087v0.413c0,0.03,0,0.058,0,0.087v0.413
		c0,0.03-1,0.058-1,0.087v0.413c0,0.03,0,0.058,0,0.087v0.413c0,0.03-1,0.058-1,0.087v0.413c0,0.03,0,0.058,0,0.087v0.413
		c0,0.03-1,0.058-1,0.087v0.413c0,0.03,0,0.058,0,0.087v0.413c0,0.03-1,0.058-1,0.087v0.413c0,0.03,0,0.058,0,0.087v0.413
		c0,0.03-1,0.058-1,0.087v0.413c0,0.03,0,0.058,0,0.087v0.413c0,0.03-1,0.058-1,0.087v0.413c0,0.03,0,0.058,0,0.087v0.413
		c0,0.03-1,0.058-1,0.087v0.413c0,0.03,0,0.058,0,0.087v0.413c0,0.03-1,0.058-1,0.087v0.413c0,0.03,0,0.058,0,0.087v0.413
		c0,0.03-1,0.058-1,0.087v0.413c0,0.03,0,0.058,0,0.087v0.413c0,0.03-1,0.058-1,0.087v0.413c0,0.03,0,0.058,0,0.087v0.413
		c0,0.03-1,0.058-1,0.087v0.413c0,0.03,0,0.058,0,0.087v0.413c0,0.03-1,0.058-1,0.087v0.413c0,0.03,0,0.058,0,0.087v0.413
		c0,0.03-1,0.058-1,0.087v0.413c0,0.03,0,0.058,0,0.087v0.413c0,0.03-1,0.058-1,0.087v0.413c0,0.03,0,0.058,0,0.087v0.413
		c0,0.03-1,0.058-1,0.087v0.413c0,0.03,0,0.058,0,0.087v0.413c0,0.03-1,0.058-1,0.087v0.413c0,0.03,0,0.058,0,0.087v0.413
		c0,0.03-1,0.058-1,0.087v0.413c0,0.03,0,0.058,0,0.087v0.413c0,0.03-1,0.058-1,0.087v0.413c0,0.03,0,0.058,0,0.087v0.413
		c0,0.03-1,0.058-1,0.087v0.413c0,0.03,0,0.058,0,0.087v0.413c0,0.03-1,0.058-1,0.087v0.413c0,0.03,0,0.058,0,0.087v0.413
		c0,0.03-1,0.058-1,0.087v0.413c0,0.03,0,0.058,0,0.087v0.413c0,0.03-1,0.058-1,0.087v0.413c0,0.03,0,0.058,0,0.087v0.413
		c0,0.03-1,0.058-1,0.087v0.413c0,0.03,0,0.058,0,0.087v0.413c0,0.03-1,0.058-1,0.087v0.413c0,0.03,0,0.058,0,0.087v0.413
		c0,0.03-1,0.058-1,0.087v0.413c0,0.03,0,0.058,0,0.087v0.413c0,0.03-1,0.058-1,0.087v0.413c0,0.03,0,0.058,0,0.087v0.413
		c0,0.03-1,0.058-1,0.087v0.413c0,0.03,0,0.058,0,0.087v0.413c0,0.03-1,0.058-1,0.087v0.413c0,0.03,0,0.058,0,0.087v0.413
		c0,0.03-1,0.058-1,0.087v0.413c0,0.03,0,0.058,0,0.087v0.413c0,0.03-1,0.058-1,0.087v0.413c0,0.03,0,0.058,0,0.087v0.413
		c0,0.03-1,0.058-1,0.087v0.413c0,0.03,0,0.058,0,0.087v0.413c0,0.03-1,0.058-1,0.087v0.413c0,0.03,0,0.058,0,0.087v0.413
		c0,0.03-1,0.058-1,0.087v0.413c0,0.03,0,0.058,0,0.087v0.413c0,0.03-1,0.058-1,0.087v0.413c0,0.03,0,0.058,0,0.087v0.413
		c0,0.03-1,0.058-1,0.087v0.413c0,0.03,0,0.058,0,0.087v0.413c0,0.03-1,0.058-1,0.087v0.413c0,0.03,0,0.058,0,0.087v0.413
		c0,0.03-1,0.058-1,0.087v0.413c0,0.03,0,0.058,0,0.087v0.413c0,0.03-1,0.058-1,0.087v0.413c0,0.03,0,0.058,0,0.087v0.413
		c0,0.03-1,0.058-1,0.087v0.413c0,0.03,0,0.058,0,0.087v0.413c0,0.03-1,0.058-1,0.087v0.413c0,0.03,0,0.058,0,0.087v0.413
		c0,0.03-1,0.058-1,0.087v0.413c0,0.03,0,0.058,0,0.087v0.413c0,0.03-1,0.058-1,0.087v0.413c0,0.03,0,0.058,0,0.087v0.413
		c0,0.03-1,0.058-1,0.087v0.413c0,0.029,0,0.057,0,0.087v0.413c0,0.029-1,0.057-1,0.087v0.413c0,0.029,0,0.057,0,0.087v0.413
		c0,0.029-1,0.057-1,0.087v0.413c0,0.029,0,0.057,0,0.087v0.413c0,0.029-1,0.057-1,0.087v0.413c0,0.029,0,0.057,0,0.087v0.413
		c0,0.029-1,0.057-1,0.087v0.413c0,0.029,0,0.057,0,0.087v0.413c0,0.029-1,0.057-1,0.087v0.413c0,0.029,0,0.057,0,0.087v0.413
		c0,0.029-1,0.057-1,0.087v0.413c0,0.029,0,0.057,0,0.087v0.413c0,0.029-1,0.057-1,0.087v0.413c0,0.029,0,0.057,0,0.087v0.413
		c0,0.029-1,0.057-1,0.087v0.413c0,0.029,0,0.057,0,0.087v0.413c0,0.029-1,0.057-1,0.087v0.413c0,0.029,0,0.057,0,0.087v0.413
		c0,0.029-1,0.057-1,0.087v0.413c0,0.029,0,0.057,0,0.087v0.413c0,0.029-1,0.057-1,0.087v0.413c0,0.029,0,0.057,0,0.087v0.413
		c0,0.029-1,0.057-1,0.087v0.413c0,0.029,0,0.057,0,0.087v0.413c0,0.029-1,0.057-1,0.087v0.413c0,0.029,0,0.057,0,0.087v0.413
		c0,0.029-1,0.057-1,0.087v0.413c0,0.029,0,0.057,0,0.087v0.413c0,0.029-1,0.057-1,0.087v0.413c0,0.029,0,0.057,0,0.087v0.413
		c0,0.029-1,0.057-1,0.087v0.413c0,0.029,0,0.057,0,0.087v0.413c0,0.029-1,0.057-1,0.087v0.413c0,0.029,0,0.057,0,0.087v0.413
		c0,0.029-1,0.057-1,0.087v0.413c0,0.029,0,0.057,0,0.087v0.413c0,0.029-1,0.057-1,0.087v0.413c0,0.029,0,0.057,0,0.087v0.413
		c0,0.029-1,0.057-1,0.087v0.413c0,0.029,0,0.057,0,0.087v0.413c0,0.029-1,0.057-1,0.087v0.413c0,0.029,0,0.057,0,0.087v0.413
		c0,0.029-1,0.057-1,0.087v0.413c0,0.029,0,0.057,0,0.087v0.413c0,0.029-1,0.057-1,0.087v0.413c0,0.029,0,0.057,0,0.087v0.413
		c0,0.029-1,0.057-1,0.087v0.413c0,0.029,0,0.057,0,0.087v0.413c0,0.029-1,0.057-1,0.087v0.413c0,0.029,0,0.057,0,0.087v0.413
		c0,0.029-1,0.057-1,0.087v0.413c0,0.029,0,0.057,0,0.087v0.413c0,0.029-1,0.057-1,0.087v0.413c0,0.029,0,0.057,0,0.087v0.413
		c0,0.029-1,0.057-1,0.087v0.413c0,0.029,0,0.057,0,0.087v0.413c0,0.029-1,0.057-1,0.087v0.413c0,0.029,0,0.057,0,0.087v0.413
		c0,0.029-1,0.057-1,0.087v0.413c0,0.029,0,0.057,0,0.087v0.413c0,0.029-1,0.057-1,0.087v0.413c0,0.029,0,0.057,0,0.087v0.413
		c0,0.029-1,0.057-1,0.087v0.413c0,0.029,0,0.057,0,0.087v0.413c0,0.029-1,0.057-1,0.087v0.413c0,0.029,0,0.057,0,0.087v0.413
		c0,0.029-1,0.057-1,0.087v0.413c0,0.029,0,0.057,0,0.087v0.413c0,0.029-1,0.057-1,0.087v0.413c0,0.029,0,0.057,0,0.087v0.413
		c0,0.029-1,0.057-1,0.087v0.413c0,0.029,0,0.057,0,0.087v0.413c0,0.029-1,0.057-1,0.087v0.413c0,0.029,0,0.057,0,0.087v0.413
		c0,0.029-1,0.057-1,0.087v0.413c0,0.029,0,0.057,0,0.087v0.413c0,0.029-1,0.057-1,0.087v0.413c0,0.029,0,0.057,0,0.087v0.413
		c0,0.029-1,0.057-1,0.087v0.413c0,0.029,0,0.057,0,0.087v0.413c0,0.029-1,0.057-1,0.087v0.413c0,0.029,0,0.057,0,0.087v0.413
		c0,0.029-1,0.057-1,0.087v0.413c0,0.029,0,0.057,0,0.087v0.413c0,0.029-1,0.057-1,0.087v0.413c0,0.029,0,0.057,0,0.087v0.413
		c0,0.029-1,0.057-1,0.087v0.413c0,0.029,0,0.057,0,0.087v0.413c0,0.029-1,0.057-1,0.087v0.413c0,0.029,0,0.057,0,0.087v0.413
		c0,0.029-1,0.057-1,0.087v0.413c0,0.029,0,0.057,0,0.087v0.413c0,0.029-1,0.057-1,0.087v0.413c0,0.029,0,0.057,0,0.087v0.413
		c0,0.029-1,0.057-1,0.087v0.413c0,0.029,0,0.057,0,0.087v0.413c0,0.029-1,0.057-1,0.087v0.413c0,0.029,0,0.057,0,0.087v0.413
		c0,0.029-1,0.057-1,0.087v0.413c0,0.029,0,0.057,0,0.087v0.413c0,0.029-1,0.057-1,0.087v0.413c0,0.029,0,0.057,0,0.087v0.413
		c0,0.029-1,0.057-1,0.087v0.413c0,0.029,0,0.057,0,0.087v0.413c0,0.029-1,0.057-1,0.087v0.413c0,0.029,0,0.057,0,0.087v0.413
		c0,0.029-1,0.057-1,0.087v0.413c0,0.029,0,0.057,0,0.087v0.413c0,0.029-1,0.057-1,0.087v0.413c0,0.029,0,0.057,0,0.087v0.413
		c0,0.029-1,0.057-1,0.087v0.413c0,0.029,0,0.057,0,0.087v0.413c0,0.029-1,0.057-1,0.087v0.413c0,0.029,0,0.057,0,0.087v0.413
		c0,0.029-1,0.057-1,0.087v0.413c0,0.029,0,0.057,0,0.087v0.413c0,0.029-1,0.057-1,0.087v0.413c0,0.029,0,0.057,0,0.087v0.413
		c0,0.029-1,0.057-1,0.087v0.413c0,0.029,0,0.057,0,0.087v0.413c0,0.029-1,0.057-1,0.087v0.413c0,0.029,0,0.057,0,0.087v0.413
		c0,0.029-1,0.057-1,0.087v0.413c0,0.029,0,0.057,0,0.087v0.413c0,0.029-1,0.057-1,0.087v0.413c0,0.029,0,0.057,0,0.087v0.413
		c0,0.029-1,0.057-1,0.087v0.413c0,0.029,0,0.057,0,0.087v0.413c0,0.029-1,0.057-1,0.087v0.413c0,0.029,0,0.057,0,0.087v0.413
		c0,0.029-1,0.057-1,0.087v0.413c0,0.029,0,0.057,0,0.087v0.413c0,0.029-1,0.057-1,0.087v0.413c0,0.029,0,0.057,0,0.087v0.413
		c0,0.029-1,0.057-1,0.087v0.413c0,0.029,0,0.057,0,0.087v0.413c0,0.029-1,0.057-1,0.087v0.413c0,0.029,0,0.057,0,0.087v0.413
		c0,0.029-1,0.057-1,0.087v0.413c0,0.029,0,0.057,0,0.087v0.413c0,0.029-1,0.057-1,0.087v0.413c0,0.029,0,0.057,0,0.087v0.413
		c0,0.029-1,0.057-1,0.087v0.413c0,0.029,0,0.057,0,0.087v0.413c0,0.029-1,0.057-1,0.087v0.413c0,0.029,0,0.057,0,0.087v0.413
		c0,0.029-1,0.057-1,0.087v0.413c0,0.029,0,0.057,0,0.087v0.413c0,0.029-1,0.057-1,0.087v0.413c0,0.029,0,0.057,0,0.087v0.413
		c0,0.029-1,0.057-1,0.087v0.413c0,0.029,0,0.057,0,0.087v0.413c0,0.029-1,0.057-1,0.087v0.413c0,0.029,0,0.057,0,0.087v0.413
		c0,0.029-1,0.057-1,0.087v0.413c0,0.029,0,0.057,0,0.087v0.413c0,0.029-1,0.057-1,0.087v0.413c0,0.029,0,0.057,0,0.087v0.413
		c0,0.029-1,0.057-1,0.087v0.413c0,0.029,0,0.057,0,0.087v0.413c0,0.029-1,0.057-1,0.087v0.413c0,0.029,0,0.057,0,0.087v0.413
		c0,0.029-1,0.057-1,0.087v0.413c0,0.029,0,0.057,0,0.087v0.413c0,0.029-1,0.057-1,0.087v0.413c0,0.029,0,0.057,0,0.087v0.413
		c0,0.029-1,0.057-1,0.087v0.413c0,0.029,0,0.057,0,0.087v0.413c0,0.029-1,0.057-1,0.087v0.413c0,0.029,0,0.057,0,0.087v0.413
		c0,0.029-1,0.057-1,0.087v0.413c0,0.029,0,0.057,0,0.087v0.413c0,0.029-1,0.057-1,0.087v0.413c0,0.029,0,0.057,0,0.087v0.413
		c0,0.029-1,0.057-1,0.087v0.413c0,0.029,0,0.057,0,0.087v0.413c0,0.029-1,0.057-1,0.087v0.413c0,0.029,0,0.057,0,0.087v0.413
		c0,0.029-1,0.057-1,0.087v0.413c0,0.029,0,0.057,0,0.087v0.413c0,0.029-1,0.057-1,0.087v0.413c0,0.029,0,0.057,0,0.087v0.413
		c0,0.029-1,0.057-1,0.087v0.413c0,0.029,0,0.057,0,0.087v0.413c0,0.029-1,0.057-1,0.087v0.413c0,0.029,0,0.057,0,0.087v0.413
		c0,0.029-1,0.057-1,0.087v0.413c0,0.029,0,0.057,0,0.087v0.413c0,0.029-1,0.057-1,0.087v0.413c0,0.029,0,0.057,0,0.087v0.413
		c0,0.029-1,0.057-1,0.087v0.413c0,0.029,0,0.057,0,0.087v0.413c0,0.029-1,0.057-1,0.087v0.413c0,0.029,0,0.057,0,0.087v0.413
		c0,0.029-1,0.057-1,0.087v0.413c0,0.029,0,0.057,0,0.087v0.413c0,0.029-1,0.057-1,0.087v0.413c0,0.029,0,0.057,0,0.087v0.413
		c0,0.029-1,0.057-1,0.087v0.413c0,0.029,0,0.057,0,0.087v0.413c0,0.029-1,0.057-1,0.087v0.413c0,0.029,0,0.057,0,0.087v0.413
		c0,0.029-1,0.057-1,0.087v0.413c0,0.029,0,0.057,0,0.087v0.413c0,0.029-1,0.057-1,0.087v0.413c0,0.029,0,0.057,0,0.087v0.413
		c0,0.029-1,0.057-1,0.087v0.413c0,0.029,0,0.057,0,0.087v0.413c0,0.029-1,0.057-1,0.087v0.413c0,0.029,0,0.057,0,0.087v0.413
		c0,0.029-1,0.057-1,0.087v0.413c0,0.029,0,0.057,0,0.087v0.413c0,0.029-1,0.057-1,0.087v0.413c0,0.029,0,0.057,0,0.087v0.413
		c0,0.029-1,0.057-1,0.087v0.413c0,0.029,0,0.057,0,0.087v0.413c0,0.029-1,0.057-1,0.087v0.413c0,0.029,0,0.057,0,0.087v0.413
		c0,0.029-1,0.057-1,0.087v0.413c0,0.029,0,0.057,0,0.087v0.413c0,0.029-1,0.057-1,0.087v0.413c0,0.029,0,0.057,0,0.087v0.413
		c0,0.029-1,0.057-1,0.087v0.413c0,0.029,0,0.057,0,0.087v0.413c0,0.029-1,0.057-1,0.087v0.413c0,0.029,0,0.057,0,0.087v0.413
		c0,0.029-1,0.057-1,0.087v0.413c0,0.029,0,0.057,0,0.087v0.413c0,0.029-1,0.057-1,0.087v0.413c0,0.029,0,0.057,0,0.087v0.413
		c0,0.029-1,0.057-1,0.087v0.413c0,0.029,0,0.057,0,0.087v0.413c0,0.029-1,0.057-1,0.087v0.413c0,0.029,0,0.057,0,0.087v0.413
		c0,0.029-1,0.057-1,0.087v0.413c0,0.029,0,0.057,0,0.087v0.413c0,0.029-1,0.057-1,0.087v0.413c0,0.029,0,0.057,0,0.087v0.413
		c0,0.029-1,0.057-1,0.087v0.413c0,0.029,0,0.057,0,0.087v0.413c0,0.029-1,0.057-1,0.087v0.413c0,0.029,0,0.057,0,0.087v0.413
		c0,0.029-1,0.057-1,0.087v0.413c0,0.029,0,0.057,0,0.087v0.413c0,0.029-1,0.057-1,0.087v0.413c0,0.029,0,0.057,0,0.087v0.413
		c0,0.029-1,0.057-1,0.087v0.413c0,0.029,0,0.057,0,0.087v0.413c0,0.029-1,0.057-1,0.087v0.413c0,0.029,0,0.057,0,0.087v0.413
		c0,0.029-1,0.057-1,0.087v0.413c0,0.029,0,0.057,0,0.087v0.413c0,0.029-1,0.057-1,0.087v0.413c0,0.029,0,0.057,0,0.087v0.413
		c0,0.029-1,0.057-1,0.087v0.413c0,0.029,0,0.057,0,0.087v0.413c0,0.029-1,0.057-1,0.087v0.413c0,0.029,0,0.057,0,0.087v0.413
		c0,0.029-1,0.057-1,0.087V568h41v-1h1l0,0l0,0v-1h1l0,0l0,0v-1h1l0,0l0,0v-1h1l0,0l0,0v-1h1l0,0l0,0v-1h1l0,0l0,0v-1h1l0,0l0,0v-1
		h1l0,0l0,0v-1h1l0,0l0,0v-1h1l0,0l0,0v-1h1l0,0l0,0v-1h1l0,0l0,0v-1h1l0,0l0,0v-1h1l0,0l0,0v-1h1l0,0l0,0v-1h1l0,0l0,0v-1h1l0,0
		l0,0v-1h1l0,0l0,0v-1h1l0,0l0,0v-1h1l0,0l0,0v-1h1l0,0l0,0v-1h1l0,0l0,0v-1h1l0,0l0,0v-1h1l0,0l0,0v-1h1l0,0l0,0v-1h1l0,0l0,0v-1h1
		l0,0l0,0v-1h1l0,0l0,0v-1h1l0,0l0,0v-1h1l0,0l0,0v-1h1l0,0l0,0v-1h1l0,0l0,0v-1h1l0,0l0,0v-1h1l0,0l0,0v-1h1l0,0l0,0v-1h1l0,0l0,0
		v-1h1l0,0l0,0v-1h1l0,0l0,0v-1h1l0,0l0,0v-1h1l0,0l0,0v-1h1l0,0l0,0v-1h1l0,0l0,0v-1h1v0.041C-40,547.638-35.327,562-32.604,568
		H9.891c-0.078,0-0.157-1-0.237-1h0.737c-0.078,0-0.157,0-0.237,0h0.737c-0.078,0-0.157-1-0.237-1h0.737c-0.078,0-0.157,0-0.237,0
		h0.737c-0.078,0-0.157-1-0.237-1h0.737c-0.078,0-0.157,0-0.237,0h0.737c-0.078,0-0.157-1-0.237-1h0.737c-0.078,0-0.157,0-0.237,0
		h0.737c-0.078,0-0.157-1-0.237-1h0.737c-0.078,0-0.157,0-0.237,0h0.737c-0.078,0-0.157-1-0.237-1h0.737c-0.078,0-0.157,0-0.237,0
		h0.737c-0.078,0-0.157-1-0.237-1h0.737c-0.078,0-0.157,0-0.237,0h0.737c-0.078,0-0.157-1-0.237-1h0.737c-0.078,0-0.157,0-0.237,0
		h0.737c-0.078,0-0.157-1-0.237-1h0.737c-0.078,0-0.157,0-0.237,0h0.737c-0.078,0-0.157-1-0.237-1h0.737c-0.078,0-0.157,0-0.237,0
		h0.737c-0.078,0-0.157-1-0.237-1h0.737c-0.078,0-0.157,0-0.237,0h0.737c-0.078,0-0.157-1-0.237-1h0.737c-0.078,0-0.157,0-0.237,0
		h0.737c-0.078,0-0.157-1-0.237-1h0.737c-0.078,0-0.157,0-0.237,0h0.737c-0.078,0-0.157-1-0.237-1h0.737c-0.078,0-0.157,0-0.237,0
		h0.737c-0.078,0-0.157-1-0.237-1h0.737c-0.078,0-0.157,0-0.237,0h0.737c-0.078,0-0.157-1-0.237-1h0.737c-0.078,0-0.157,0-0.237,0
		h0.737c-0.078,0-0.157-1-0.237-1h0.737c-0.078,0-0.157,0-0.237,0h0.737c-0.078,0-0.157-1-0.237-1h0.737c-0.078,0-0.157,0-0.237,0
		h0.737c-0.078,0-0.157-1-0.237-1h0.737c-0.078,0-0.157,0-0.237,0h0.737c-0.078,0-0.157-1-0.237-1h0.737c-0.078,0-0.157,0-0.237,0
		h0.737c-0.078,0-0.157-1-0.237-1h0.737c-0.078,0-0.157,0-0.237,0h0.737c-0.078,0-0.157-1-0.237-1h0.737c-0.078,0-0.157,0-0.237,0
		h0.737c-0.078,0-0.157-1-0.237-1h0.737c-0.078,0-0.157,0-0.237,0h0.737c-0.078,0-0.157-1-0.237-1h0.737c-0.078,0-0.157,0-0.237,0
		h0.737c-0.078,0-0.157-1-0.237-1h0.737c-0.078,0-0.157,0-0.237,0h0.737c-0.078,0-0.157-1-0.237-1h0.737c-0.078,0-0.157,0-0.237,0
		h0.737c-0.078,0-0.157-1-0.237-1h0.737c-0.078,0-0.157,0-0.237,0h0.737c-0.078,0-0.157-1-0.237-1h0.737c-0.078,0-0.157,0-0.237,0
		h0.737c-0.078,0-0.157-1-0.237-1h0.511c12.016,22,33.302,31.64,62.051,31.64c23.996,0,43.146-6.685,56.29-20.538
		c0.164-0.17,0.337-0.293,0.5-0.465c0.164-0.169,0.337-0.31,0.5-0.481c0.164-0.169,0.337-0.319,0.5-0.491
		c0.164-0.169,0.337-0.324,0.5-0.496c0.164-0.169,0.337-0.325,0.5-0.497c0.164-0.169,0.337-0.327,0.5-0.499
		c0.164-0.169,0.337-0.328,0.5-0.5c0.164-0.169,0.337-0.327,0.5-0.499c0.164-0.169,0.337-0.328,0.5-0.5
		c0.164-0.169,0.337-0.328,0.5-0.5c0.164-0.169,0.337-0.328,0.5-0.5c0.164-0.169,0.337-0.328,0.5-0.5
		c0.164-0.169,0.337-0.328,0.5-0.5c0.164-0.169,0.337-0.328,0.5-0.5c0.164-0.169,0.337-0.328,0.5-0.5
		c0.164-0.169,0.337-0.328,0.5-0.5c0.164-0.169,0.337-0.328,0.5-0.5c0.164-0.169,0.337-0.328,0.5-0.5
		c0.164-0.169,0.337-0.328,0.5-0.5c0.164-0.169,0.337-0.328,0.5-0.5c0.164-0.169,0.337-0.328,0.5-0.5
		c0.164-0.169,0.337-0.328,0.5-0.5c0.164-0.169,0.337-0.328,0.5-0.5c0.164-0.169,0.337-0.328,0.5-0.5
		c0.164-0.169,0.337-0.328,0.5-0.5c0.164-0.169,0.337-0.328,0.5-0.5c0.164-0.169,0.337-0.328,0.5-0.5
		c0.164-0.169,0.337-0.328,0.5-0.5c0.164-0.169,0.337-0.328,0.5-0.5c0.164-0.169,0.337-0.328,0.5-0.5
		c0.164-0.169,0.337-0.328,0.5-0.5c0.164-0.169,0.337-0.328,0.5-0.5c0.164-0.169,0.337-0.328,0.5-0.5
		c0.164-0.169,0.337-0.328,0.5-0.5c0.164-0.169,0.337-0.328,0.5-0.5c0.164-0.169,0.337-0.328,0.5-0.5
		c0.164-0.169,0.337-0.328,0.5-0.5c0.164-0.169,0.337-0.328,0.5-0.5c0.164-0.169,0.337-0.328,0.5-0.5
		c0.164-0.169,0.337-0.328,0.5-0.5c0.164-0.169,0.337-0.328,0.5-0.5c0.164-0.169,0.337-0.328,0.5-0.5
		c0.164-0.169,0.337-0.328,0.5-0.5c0.164-0.169,0.337-0.328,0.5-0.5c0.164-0.169,0.337-0.328,0.5-0.5
		c0.164-0.169,0.337-0.328,0.5-0.5c0.164-0.169,0.337-0.328,0.5-0.5c0.164-0.169,0.337-0.328,0.5-0.5
		c0.164-0.169,0.337-0.328,0.5-0.5c0.164-0.169,0.337-0.328,0.5-0.5c0.164-0.169,0.337-0.328,0.5-0.5
		c0.164-0.169,0.337-0.328,0.5-0.5c0.164-0.169,0.337-0.328,0.5-0.5c0.164-0.169,0.337-0.328,0.5-0.5
		c0.164-0.169,0.337-0.328,0.5-0.5c0.164-0.169,0.337-0.328,0.5-0.5c0.164-0.169,0.337-0.328,0.5-0.5
		c0.164-0.169,0.337-0.328,0.5-0.5c0.164-0.169,0.337-0.328,0.5-0.5c0.164-0.169,0.337-0.328,0.5-0.5
		c0.164-0.169,0.337-0.328,0.5-0.5c0.164-0.169,0.337-0.328,0.5-0.5c0.164-0.169,0.337-0.328,0.5-0.5
		c0.164-0.169,0.337-0.328,0.5-0.5c0.164-0.169,0.337-0.328,0.5-0.5c0.164-0.169,0.337-0.328,0.5-0.5
		c0.164-0.169,0.337-0.328,0.5-0.5c0.164-0.169,0.337-0.328,0.5-0.5c0.164-0.169,0.337-0.328,0.5-0.5
		c0.164-0.169,0.337-0.328,0.5-0.5c0.164-0.169,0.337-0.328,0.5-0.5c0.164-0.169,0.337-0.328,0.5-0.5
		c0.164-0.169,0.337-0.328,0.5-0.5c0.164-0.169,0.337-0.328,0.5-0.5c0.164-0.169,0.337-0.328,0.5-0.5
		c0.164-0.169,0.337-0.328,0.5-0.5c0.164-0.169,0.337-0.328,0.5-0.5c0.164-0.169,0.337-0.328,0.5-0.5
		c0.164-0.169,0.337-0.328,0.5-0.5c0.164-0.169,0.337-0.328,0.5-0.5c0.164-0.169,0.337-0.328,0.5-0.5
		c0.164-0.169,0.337-0.328,0.5-0.5c0.164-0.169,0.337-0.328,0.5-0.5c0.164-0.169,0.337-0.328,0.5-0.5
		c0.164-0.169,0.337-0.328,0.5-0.5c0.164-0.169,0.337-0.328,0.5-0.5c0.164-0.169,0.337-0.328,0.5-0.5
		c0.164-0.169,0.337-0.328,0.5-0.5c0.164-0.169,0.337-0.328,0.5-0.5c0.164-0.169,0.337-0.328,0.5-0.5
		c0.164-0.169,0.337-0.328,0.5-0.5c0.164-0.169,0.337-0.328,0.5-0.5c0.164-0.169,0.337-0.328,0.5-0.5
		c0.164-0.169,0.337-0.328,0.5-0.5c0.164-0.169,0.337-0.328,0.5-0.5c0.164-0.169,0.337-0.328,0.5-0.5
		c0.164-0.169,0.337-0.328,0.5-0.5c0.164-0.169,0.337-0.328,0.5-0.5c0.164-0.169,0.337-0.328,0.5-0.5
		c0.164-0.169,0.337-0.328,0.5-0.5c0.164-0.169,0.337-0.328,0.5-0.5c0.164-0.169,0.337-0.328,0.5-0.5
		c0.164-0.169,0.337-0.328,0.5-0.5c0.164-0.169,0.337-0.328,0.5-0.5c0.164-0.169,0.337-0.328,0.5-0.5
		c0.164-0.169,0.337-0.328,0.5-0.5c0.164-0.169,0.337-0.328,0.5-0.5c0.164-0.169,0.337-0.328,0.5-0.5
		c0.164-0.169,0.337-0.328,0.5-0.5c0.164-0.169,0.337-0.328,0.5-0.5c0.164-0.169,0.337-0.328,0.5-0.5
		c0.164-0.169,0.337-0.328,0.5-0.5c0.164-0.169,0.337-0.328,0.5-0.5c0.164-0.169,0.337-0.328,0.5-0.5
		c0.164-0.169,0.337-0.328,0.5-0.5c0.164-0.169,0.337-0.328,0.5-0.5c0.164-0.169,0.337-0.328,0.5-0.5
		c0.164-0.169,0.337-0.328,0.5-0.5c0.164-0.169,0.337-0.328,0.5-0.5c0.164-0.169,0.337-0.328,0.5-0.5
		c0.164-0.169,0.337-0.328,0.5-0.5c0.164-0.169,0.337-0.328,0.5-0.5c0.164-0.169,0.337-0.328,0.5-0.5
		c0.164-0.169,0.337-0.328,0.5-0.5c0.164-0.169,0.337-0.328,0.5-0.5c0.164-0.169,0.337-0.328,0.5-0.5
		c0.164-0.169,0.337-0.328,0.5-0.5c0.164-0.169,0.337-0.328,0.5-0.5c0.164-0.169,0.337-0.328,0.5-0.5
		c0.164-0.169,0.337-0.328,0.5-0.5c0.164-0.169,0.337-0.328,0.5-0.5c0.164-0.169,0.337-0.328,0.5-0.5
		c0.164-0.169,0.337-0.328,0.5-0.5c0.164-0.169,0.337-0.328,0.5-0.5c0.164-0.169,0.337-0.328,0.5-0.5
		c0.164-0.169,0.337-0.328,0.5-0.5c0.164-0.169,0.337-0.328,0.5-0.5c0.164-0.169,0.337-0.328,0.5-0.5
		c0.164-0.169,0.337-0.328,0.5-0.5c0.164-0.169,0.337-0.328,0.5-0.5c0.164-0.169,0.337-0.328,0.5-0.5
		c0.164-0.169,0.337-0.328,0.5-0.5c0.164-0.169,0.337-0.328,0.5-0.5c0.164-0.169,0.337-0.328,0.5-0.5
		c0.164-0.169,0.337-0.328,0.5-0.5c0.164-0.169,0.337-0.328,0.5-0.5c0.164-0.169,0.337-0.328,0.5-0.5
		c0.164-0.169,0.337-0.328,0.5-0.5c0.164-0.169,0.337-0.328,0.5-0.5c0.164-0.169,0.337-0.328,0.5-0.5
		c0.164-0.169,0.337-0.328,0.5-0.5c0.164-0.169,0.337-0.328,0.5-0.5c0.164-0.169,0.337-0.328,0.5-0.5
		c0.164-0.169,0.337-0.328,0.5-0.5c0.164-0.169,0.337-0.328,0.5-0.5c0.164-0.169,0.337-0.328,0.5-0.5
		c0.164-0.169,0.337-0.328,0.5-0.5c0.164-0.169,0.337-0.328,0.5-0.5c0.164-0.169,0.337-0.328,0.5-0.5
		c0.164-0.169,0.337-0.328,0.5-0.5c0.164-0.169,0.337-0.328,0.5-0.5c0.164-0.169,0.337-0.328,0.5-0.5
		c0.164-0.169,0.337-0.328,0.5-0.5c0.164-0.169,0.337-0.328,0.5-0.5c0.164-0.169,0.337-0.328,0.5-0.5
		c0.164-0.169,0.337-0.328,0.5-0.5c0.164-0.169,0.337-0.328,0.5-0.5c0.164-0.169,0.337-0.328,0.5-0.5
		c0.164-0.169,0.337-0.328,0.5-0.5c0.164-0.169,0.337-0.328,0.5-0.5c0.164-0.169,0.337-0.328,0.5-0.5
		c0.164-0.169,0.337-0.328,0.5-0.5c0.164-0.169,0.337-0.328,0.5-0.5c0.164-0.169,0.337-0.328,0.5-0.5
		c0.164-0.169,0.337-0.328,0.5-0.5c0.164-0.169,0.337-0.328,0.5-0.5c0.164-0.169,0.337-0.328,0.5-0.5
		c0.164-0.169,0.337-0.328,0.5-0.5c0.164-0.169,0.337-0.328,0.5-0.5c0.164-0.169,0.337-0.328,0.5-0.5
		c0.164-0.169,0.337-0.328,0.5-0.5c0.164-0.169,0.337-0.328,0.5-0.5c0.164-0.169,0.337-0.328,0.5-0.5
		c0.164-0.169,0.337-0.328,0.5-0.5c0.164-0.169,0.337-0.328,0.5-0.5c0.164-0.169,0.337-0.328,0.5-0.5
		c0.164-0.169,0.337-0.328,0.5-0.5c0.164-0.169,0.337-0.328,0.5-0.5c0.164-0.169,0.337-0.328,0.5-0.5
		c0.164-0.169,0.337-0.328,0.5-0.5c0.164-0.169,0.337-0.328,0.5-0.5c0.164-0.169,0.337-0.328,0.5-0.5
		c0.164-0.169,0.337-0.328,0.5-0.5c0.164-0.169,0.337-0.328,0.5-0.5c0.164-0.169,0.337-0.328,0.5-0.5
		c0.164-0.169,0.337-0.328,0.5-0.5c0.164-0.169,0.337-0.328,0.5-0.5c0.164-0.169,0.337-0.328,0.5-0.5
		c0.164-0.169,0.337-0.328,0.5-0.5c0.164-0.169,0.337-0.328,0.5-0.5c0.164-0.169,0.337-0.328,0.5-0.5
		c0.164-0.169,0.337-0.328,0.5-0.5c0.164-0.169,0.337-0.328,0.5-0.5c0.164-0.169,0.337-0.328,0.5-0.5
		c0.164-0.169,0.337-0.328,0.5-0.5c0.164-0.169,0.337-0.328,0.5-0.5c0.164-0.169,0.337-0.328,0.5-0.5
		c0.164-0.169,0.337-0.328,0.5-0.5c0.164-0.169,0.337-0.328,0.5-0.5c0.164-0.169,0.337-0.328,0.5-0.5
		c0.164-0.169,0.337-0.328,0.5-0.5c0.164-0.169,0.337-0.328,0.5-0.5c0.164-0.169,0.337-0.328,0.5-0.5
		c0.164-0.169,0.337-0.328,0.5-0.5c0.164-0.169,0.337-0.328,0.5-0.5c0.164-0.169,0.337-0.328,0.5-0.5
		c0.164-0.169,0.337-0.328,0.5-0.5c0.164-0.169,0.337-0.328,0.5-0.5c0.164-0.169,0.337-0.328,0.5-0.5
		c0.164-0.169,0.337-0.328,0.5-0.5c0.164-0.169,0.337-0.328,0.5-0.5c0.164-0.169,0.337-0.328,0.5-0.5
		c0.164-0.169,0.337-0.328,0.5-0.5c0.164-0.169,0.337-0.328,0.5-0.5c0.164-0.169,0.337-0.328,0.5-0.5
		c0.164-0.169,0.337-0.328,0.5-0.5c0.164-0.169,0.337-0.328,0.5-0.5c0.164-0.169,0.337-0.328,0.5-0.5
		c0.164-0.169,0.337-0.328,0.5-0.5c0.164-0.169,0.337-0.328,0.5-0.5c0.164-0.169,0.337-0.328,0.5-0.5
		c0.164-0.169,0.337-0.328,0.5-0.5c0.164-0.169,0.337-0.328,0.5-0.5c0.164-0.169,0.337-0.328,0.5-0.5
		c0.164-0.169,0.337-0.328,0.5-0.5c0.164-0.169,0.337-0.328,0.5-0.5c0.164-0.169,0.337-0.328,0.5-0.5
		c0.164-0.169,0.337-0.328,0.5-0.5c0.164-0.169,0.337-0.328,0.5-0.5c0.164-0.169,0.337-0.328,0.5-0.5
		c0.164-0.169,0.337-0.328,0.5-0.5c0.164-0.169,0.337-0.328,0.5-0.5c0.164-0.169,0.337-0.328,0.5-0.5
		c0.164-0.169,0.337-0.328,0.5-0.5c0.164-0.169,0.337-0.328,0.5-0.5c0.164-0.169,0.337-0.328,0.5-0.5
		c0.164-0.169,0.337-0.328,0.5-0.5c0.164-0.169,0.337-0.328,0.5-0.5c0.164-0.169,0.337-0.328,0.5-0.5
		c0.164-0.169,0.337-0.328,0.5-0.5c0.164-0.169,0.337-0.328,0.5-0.5c0.164-0.169,0.337-0.328,0.5-0.5
		c0.164-0.169,0.337-0.328,0.5-0.5c0.164-0.169,0.337-0.328,0.5-0.5c0.164-0.169,0.337-0.328,0.5-0.5
		c0.164-0.169,0.337-0.328,0.5-0.5c0.164-0.169,0.337-0.328,0.5-0.5c0.164-0.169,0.337-0.328,0.5-0.5
		c0.164-0.169,0.337-0.328,0.5-0.5c0.164-0.169,0.337-0.328,0.5-0.5c0.164-0.169,0.337-0.328,0.5-0.5
		c0.164-0.169,0.337-0.328,0.5-0.5c0.164-0.169,0.337-0.328,0.5-0.5c0.164-0.169,0.337-0.328,0.5-0.5
		c0.164-0.169,0.337-0.328,0.5-0.5c0.164-0.169,0.337-0.328,0.5-0.5c0.164-0.169,0.337-0.328,0.5-0.5
		c0.164-0.169,0.337-0.328,0.5-0.5c0.164-0.169,0.337-0.328,0.5-0.5c0.164-0.169,0.337-0.328,0.5-0.5
		c0.164-0.169,0.337-0.328,0.5-0.5c0.164-0.169,0.337-0.328,0.5-0.5c0.164-0.169,0.337-0.328,0.5-0.5
		c0.164-0.169,0.337-0.328,0.5-0.5c0.164-0.169,0.337-0.328,0.5-0.5c0.164-0.169,0.337-0.328,0.5-0.5
		c0.164-0.169,0.337-0.328,0.5-0.5c0.164-0.169,0.337-0.328,0.5-0.5c0.164-0.169,0.337-0.328,0.5-0.5
		c0.164-0.169,0.337-0.328,0.5-0.5c0.164-0.169,0.337-0.328,0.5-0.5c0.164-0.169,0.337-0.328,0.5-0.5
		c0.164-0.169,0.337-0.328,0.5-0.5c0.164-0.169,0.337-0.328,0.5-0.5c0.164-0.169,0.337-0.328,0.5-0.5
		c0.164-0.169,0.337-0.328,0.5-0.5c0.164-0.169,0.337-0.328,0.5-0.5c0.164-0.169,0.337-0.328,0.5-0.5
		c0.164-0.169,0.337-0.328,0.5-0.5c0.164-0.169,0.337-0.328,0.5-0.5c0.164-0.169,0.337-0.328,0.5-0.5
		c0.164-0.169,0.337-0.328,0.5-0.5c0.164-0.169,0.337-0.328,0.5-0.5c0.164-0.169,0.337-0.328,0.5-0.5
		c0.164-0.169,0.337-0.328,0.5-0.5c0.164-0.169,0.337-0.328,0.5-0.5c0.164-0.169,0.337-0.328,0.5-0.5
		c0.164-0.169,0.337-0.328,0.5-0.5c0.164-0.169,0.337-0.328,0.5-0.5c0.164-0.169,0.337-0.328,0.5-0.5
		c0.164-0.169,0.337-0.328,0.5-0.5c0.164-0.169,0.337-0.328,0.5-0.5c0.164-0.169,0.337-0.328,0.5-0.5
		c0.164-0.169,0.337-0.328,0.5-0.5c0.164-0.169,0.337-0.328,0.5-0.5c0.164-0.169,0.337-0.328,0.5-0.5
		c0.164-0.169,0.337-0.328,0.5-0.5c0.164-0.169,0.337-0.328,0.5-0.5c0.164-0.169,0.337-0.328,0.5-0.5
		c0.164-0.169,0.337-0.328,0.5-0.5c0.164-0.169,0.337-0.328,0.5-0.5c0.164-0.169,0.337-0.328,0.5-0.5
		c0.164-0.169,0.337-0.328,0.5-0.5c0.164-0.169,0.337-0.328,0.5-0.5c0.164-0.169,0.337-0.328,0.5-0.5
		c0.164-0.169,0.337-0.328,0.5-0.5c0.164-0.169,0.337-0.328,0.5-0.5c0.164-0.169,0.337-0.328,0.5-0.5
		c0.164-0.169,0.337-0.328,0.5-0.5c0.164-0.169,0.337-0.328,0.5-0.5c0.164-0.169,0.337-0.328,0.5-0.5
		c0.164-0.169,0.337-0.328,0.5-0.5c0.164-0.169,0.337-0.328,0.5-0.5c0.164-0.169,0.337-0.328,0.5-0.5
		c0.164-0.169,0.337-0.328,0.5-0.5c0.164-0.169,0.337-0.328,0.5-0.5c0.164-0.169,0.337-0.328,0.5-0.5
		c0.164-0.169,0.337-0.328,0.5-0.5c0.164-0.169,0.337-0.328,0.5-0.5c0.164-0.169,0.337-0.328,0.5-0.5
		c0.164-0.169,0.337-0.328,0.5-0.5c0.164-0.169,0.337-0.328,0.5-0.5c0.164-0.169,0.337-0.328,0.5-0.5
		c0.164-0.169,0.337-0.328,0.5-0.5c0.164-0.169,0.337-0.328,0.5-0.5c0.164-0.169,0.337-0.328,0.5-0.5
		c0.164-0.169,0.337-0.328,0.5-0.5c0.164-0.169,0.337-0.328,0.5-0.5c0.164-0.169,0.337-0.328,0.5-0.5
		c0.164-0.169,0.337-0.328,0.5-0.5c0.164-0.169,0.337-0.328,0.5-0.5c0.164-0.169,0.337-0.328,0.5-0.5
		c0.164-0.169,0.337-0.328,0.5-0.5c0.164-0.169,0.337-0.328,0.5-0.5c0.164-0.169,0.337-0.328,0.5-0.5
		c0.164-0.169,0.337-0.328,0.5-0.5c0.164-0.169,0.337-0.328,0.5-0.5c0.164-0.169,0.337-0.328,0.5-0.5
		c0.164-0.169,0.337-0.328,0.5-0.5c0.164-0.169,0.337-0.328,0.5-0.5c0.164-0.169,0.337-0.328,0.5-0.5
		c0.164-0.169,0.337-0.328,0.5-0.5c0.164-0.169,0.337-0.328,0.5-0.5c0.164-0.169,0.337-0.328,0.5-0.5
		c0.164-0.169,0.337-0.328,0.5-0.5c0.164-0.169,0.337-0.328,0.5-0.5c0.164-0.169,0.337-0.328,0.5-0.5
		c0.164-0.169,0.337-0.328,0.5-0.5c0.164-0.169,0.337-0.328,0.5-0.5c0.164-0.169,0.337-0.328,0.5-0.5
		c0.164-0.169,0.337-0.328,0.5-0.5c0.164-0.169,0.337-0.328,0.5-0.5c0.164-0.169,0.337-0.328,0.5-0.5
		c0.164-0.169,0.337-0.328,0.5-0.5c0.164-0.169,0.337-0.328,0.5-0.5c0.164-0.169,0.337-0.328,0.5-0.5
		c0.164-0.169,0.337-0.328,0.5-0.5c0.164-0.169,0.337-0.328,0.5-0.5c0.164-0.169,0.337-0.328,0.5-0.5
		c0.164-0.169,0.337-0.328,0.5-0.5c0.164-0.169,0.337-0.328,0.5-0.5c0.164-0.169,0.337-0.328,0.5-0.5
		c0.164-0.169,0.337-0.328,0.5-0.5c0.164-0.169,0.337-0.328,0.5-0.5c0.164-0.169,0.337-0.328,0.5-0.5
		c0.164-0.169,0.337-0.328,0.5-0.5c0.164-0.169,0.337-0.328,0.5-0.5c0.164-0.169,0.337-0.328,0.5-0.5
		c0.164-0.169,0.337-0.328,0.5-0.5c0.164-0.169,0.337-0.328,0.5-0.5c0.164-0.169,0.337-0.328,0.5-0.5
		c0.164-0.169,0.337-0.328,0.5-0.5c0.164-0.169,0.337-0.328,0.5-0.5c0.164-0.169,0.337-0.328,0.5-0.5
		c0.164-0.169,0.337-0.328,0.5-0.5c0.164-0.169,0.337-0.328,0.5-0.5c0.164-0.169,0.337-0.328,0.5-0.5
		c0.164-0.169,0.337-0.328,0.5-0.5c0.164-0.169,0.337-0.328,0.5-0.5c0.164-0.169,0.337-0.328,0.5-0.5
		c0.164-0.169,0.337-0.328,0.5-0.5c0.164-0.169,0.337-0.328,0.5-0.5c0.164-0.169,0.337-0.328,0.5-0.5
		c0.164-0.169,0.337-0.328,0.5-0.5c0.164-0.169,0.337-0.328,0.5-0.5c0.164-0.169,0.337-0.328,0.5-0.5
		c0.164-0.169,0.337-0.328,0.5-0.5c0.164-0.169,0.337-0.328,0.5-0.5c0.164-0.169,0.337-0.328,0.5-0.5
		c0.164-0.169,0.337-0.328,0.5-0.5c0.164-0.169,0.337-0.328,0.5-0.5c0.164-0.169,0.337-0.328,0.5-0.5
		c0.164-0.169,0.337-0.328,0.5-0.5c0.164-0.169,0.337-0.328,0.5-0.5c0.164-0.169,0.337-0.328,0.5-0.5
		c0.164-0.169,0.337-0.328,0.5-0.5c0.164-0.169,0.337-0.328,0.5-0.5c0.164-0.169,0.337-0.328,0.5-0.5
		c0.164-0.169,0.337-0.328,0.5-0.5c0.164-0.169,0.337-0.328,0.5-0.5c0.164-0.169,0.337-0.328,0.5-0.5
		c0.164-0.169,0.337-0.328,0.5-0.5c0.164-0.169,0.337-0.328,0.5-0.5c0.164-0.169,0.337-0.328,0.5-0.5
		c0.164-0.169,0.337-0.328,0.5-0.5c0.164-0.169,0.337-0.328,0.5-0.5c0.164-0.169,0.337-0.328,0.5-0.5
		c0.164-0.169,0.337-0.328,0.5-0.5c0.164-0.169,0.337-0.328,0.5-0.5c0.164-0.169,0.337-0.328,0.5-0.5
		c0.164-0.169,0.337-0.328,0.5-0.5c0.164-0.169,0.337-0.328,0.5-0.5c0.164-0.169,0.337-0.328,0.5-0.5
		c0.164-0.169,0.337-0.328,0.5-0.5c0.164-0.169,0.337-0.328,0.5-0.5c0.164-0.169,0.337-0.328,0.5-0.5
		c0.164-0.169,0.337-0.328,0.5-0.5c0.164-0.169,0.337-0.328,0.5-0.5c0.164-0.169,0.337-0.328,0.5-0.5
		c0.164-0.169,0.337-0.328,0.5-0.5c0.164-0.169,0.337-0.328,0.5-0.5c0.164-0.169,0.337-0.328,0.5-0.5
		c0.164-0.169,0.337-0.328,0.5-0.5c0.164-0.169,0.337-0.328,0.5-0.5c0.164-0.169,0.337-0.328,0.5-0.5
		c0.164-0.169,0.337-0.328,0.5-0.5c0.164-0.169,0.337-0.328,0.5-0.5c0.164-0.169,0.337-0.328,0.5-0.5
		c0.164-0.169,0.337-0.328,0.5-0.5c0.164-0.169,0.337-0.328,0.5-0.5c0.164-0.169,0.337-0.328,0.5-0.5
		c0.164-0.169,0.337-0.328,0.5-0.5c0.164-0.169,0.337-0.328,0.5-0.5c0.164-0.169,0.337-0.328,0.5-0.5
		c0.164-0.169,0.337-0.328,0.5-0.5c0.164-0.169,0.337-0.328,0.5-0.5c0.164-0.169,0.337-0.328,0.5-0.5
		c0.164-0.169,0.337-0.328,0.5-0.5c0.164-0.169,0.337-0.328,0.5-0.5c0.164-0.169,0.337-0.328,0.5-0.5
		c0.164-0.169,0.337-0.328,0.5-0.5c0.164-0.169,0.337-0.328,0.5-0.5c0.164-0.169,0.337-0.328,0.5-0.5
		c0.164-0.169,0.337-0.328,0.5-0.5c0.164-0.169,0.337-0.328,0.5-0.5c0.164-0.169,0.337-0.328,0.5-0.5
		c0.164-0.169,0.337-0.328,0.5-0.5c0.164-0.169,0.337-0.328,0.5-0.5c0.164-0.169,0.337-0.328,0.5-0.5
		c0.164-0.169,0.337-0.328,0.5-0.5c0.164-0.169,0.337-0.328,0.5-0.5c0.164-0.169,0.337-0.328,0.5-0.5
		c0.164-0.169,0.337-0.328,0.5-0.5c0.164-0.169,0.337-0.328,0.5-0.5c0.164-0.169,0.337-0.328,0.5-0.5
		c0.164-0.169,0.337-0.328,0.5-0.5c0.164-0.169,0.337-0.328,0.5-0.5c0.164-0.169,0.337-0.328,0.5-0.5
		c0.164-0.169,0.457-0.328,0.619-0.5C404.557,301.854,412,280.808,412,252.156V149H370z"/>
</g>
<g>
	<path fill="#FFFFFF" d="M106.239,151.913c13.348-2.452,32.961-4.086,55.298-4.086c27.24,0,46.308,4.086,59.383,14.71
		c11.168,8.717,17.161,21.52,17.161,38.408c0,23.154-16.616,39.225-32.415,44.945v0.817c12.802,5.176,19.885,17.161,24.516,34.05
		c5.72,20.975,11.168,44.946,14.709,52.029h-42.494c-2.725-5.449-7.354-20.158-12.53-42.768
		c-5.175-23.154-13.075-29.146-30.236-29.419h-12.259v72.187h-41.132V151.913z M147.371,230.637h16.345
		c20.702,0,32.96-10.352,32.96-26.423c0-16.616-11.44-25.333-30.509-25.333c-10.078,0-15.798,0.545-18.796,1.361V230.637z"/>
	<path fill="#FFFFFF" d="M303.346,149.189v105.418c0,31.871,12.258,47.943,33.232,47.943c21.792,0,33.777-15.255,33.777-47.943
		V149.189h41.405v102.967c0,56.658-28.603,83.627-76.545,83.627c-46.308,0-73.275-25.879-73.275-84.172V149.189H303.346z"/>
</g>
</svg>
