<?xml version="1.0" encoding="utf-8"?>
<!-- Generator: Adobe Illustrator 16.0.3, SVG Export Plug-In . SVG Version: 6.00 Build 0)  -->
<!DOCTYPE svg PUBLIC "-//W3C//DTD SVG 1.1//EN" "http://www.w3.org/Graphics/SVG/1.1/DTD/svg11.dtd">
<svg version="1.1" id="Layer_1" xmlns="http://www.w3.org/2000/svg" xmlns:xlink="http://www.w3.org/1999/xlink" x="0px" y="0px"
	 width="512px" height="512px" viewBox="0 0 512 512" enable-background="new 0 0 512 512" xml:space="preserve">
<path display="none" fill="#444953" d="M512,100C512,44.771,467.229,0,412,0H100C44.771,0,0,44.771,0,100v312
	c0,55.229,44.771,100,100,100h312c55.229,0,100-44.771,100-100V100z"/>
<path fill="#F9F20B" d="M0,256v156c0,55.229,45.088,100,100.316,100h312C467.545,512,512,467.229,512,412V256H0z"/>
<path fill="#3B8CED" d="M512,256V100.268C512,45.039,467.545,0,412.316,0h-312C45.088,0,0,45.039,0,100.268V256H512z"/>
<g>
	<defs>
		<path id="SVGID_1_" d="M512,100C512,44.771,467.229,0,412,0H100C44.771,0,0,44.771,0,100v312c0,55.229,44.771,100,100,100h312
			c55.229,0,100-44.771,100-100V100z"/>
	</defs>
	<clipPath id="SVGID_2_">
		<use xlink:href="#SVGID_1_"  overflow="visible"/>
	</clipPath>
	<path opacity="0.3" clip-path="url(#SVGID_2_)" fill="#444953" d="M418.957,333h0.656L362.42,149h-54.197l-0.152,1h-0.348h-0.152
		h-0.348l-0.152,1h-0.348h-0.152h-0.348l-0.152,1h-0.348h-0.152h-0.348l-0.152,1h-0.348h-0.152h-0.348l-0.152,1h-0.348h-0.152
		h-0.348l-0.152,1h-0.348h-0.152h-0.348l-0.152,1h-0.348h-0.152h-0.348l-0.152,1h-0.348h-0.152h-0.348l-0.152,1h-0.348h-0.152
		h-0.348l-0.152,1h-0.348h-0.152h-0.348l-0.152,1h-0.348h-0.152h-0.348l-0.152,1h-0.348h-0.152h-0.348l-0.152,1h-0.348h-0.152
		h-0.348l-0.152,1h-0.348h-0.152h-0.348l-0.152,1h-0.348h-0.152h-0.348l-0.152,1h-0.348h-0.152h-0.348l-0.152,1h-0.348h-0.152
		h-0.348l-0.152,1h-0.348h-0.152h-0.348l-0.152,1h-0.348h-0.152h-0.348l-0.152,1h-0.348h-0.152h-0.348l-0.152,1h-0.348h-0.152
		h-0.348l-0.152,1h-0.348h-0.152h-0.348l-0.152,1h-0.348h-0.152h-0.348l-0.152,1h-0.348h-0.152h-0.348l-0.152,1h-0.348h-0.152
		h-0.348l-0.152,1h-0.348h-0.152h-0.348l-0.152,1h-0.348h-0.152h-0.348l-0.152,1h-0.348h-0.152h-0.348l-0.152,1h-0.348h-0.152
		h-0.348l-0.152,1h-0.348h-0.152h-0.348l-0.152,1h-0.348h-0.152h-0.348l-0.152,1h-0.348h-0.152h-0.348l-0.152,1h-0.348h-0.152
		h-0.348l-0.152,1h-0.348h-0.152h-0.348l-0.152,1h-0.348h-0.152h-0.348l-0.152,1h-0.348h-0.152h-0.348l-0.152,1h-0.348h-0.152
		h-0.348l-0.152,1h-0.348h-0.152h-0.348l-0.152,1h-0.348h-0.152h-0.348l-0.152,1h-0.348h-0.152h-0.348l-0.152,1h-0.348h-0.152
		h-0.348l-0.152,1h-0.348h-0.152h-0.348l-0.152,1h-0.348h-0.152h-0.348l-0.152,1h-0.348h-0.152h-0.348l-0.152,1h-0.348h-0.152
		h-0.348l-0.152,1h-0.348h-0.152h-0.348l-0.152,1h-0.348h-0.152h-0.348l-0.152,1h-0.348h-0.152h-0.348l-0.152,1h-0.348h-0.152
		h-0.348l-0.152,1h-0.348h-0.152h-0.348l-0.152,1h-0.348h-0.152h-0.348l-0.152,1h-0.348h-0.153h-0.347l-0.153,1h-0.347h-0.153
		h-0.347l-0.153,1h-0.347h-0.153h-0.347l-0.153,1h-0.347h-0.153h-0.347l-0.153,1h-0.347h-0.153h-0.347l-0.153,1h-0.347h-0.153
		h-0.347l-0.153,1h-0.347h-0.153h-0.347l-0.153,1h-0.347h-0.153h-0.347l-0.153,1h-0.347h-0.153h-0.347l-0.153,1h-0.347h-0.153
		h-0.347l-0.153,1h-0.347h-0.153h-0.347l-0.153,1h-0.347h-0.153h-0.347l-0.153,1h-0.347h-0.153h-0.347l-0.153,1h-0.347h-0.153
		h-0.347l-0.153,1h-0.347h-0.153h-0.347L242,215.366V149h-41v1h-1l0,0l0,0v1h-1l0,0l0,0v1h-1l0,0l0,0v1h-1l0,0l0,0v1h-1l0,0l0,0v1
		h-1l0,0l0,0v1h-1l0,0l0,0v1h-1l0,0l0,0v1h-1l0,0l0,0v1h-1l0,0l0,0v1h-1l0,0l0,0v1h-1l0,0l0,0v1h-1l0,0l0,0v1h-1l0,0l0,0v1h-1l0,0
		l0,0v1h-1l0,0l0,0v1h-1l0,0l0,0v1h-1l0,0l0,0v1h-1l0,0l0,0v1h-1l0,0l0,0v1h-1l0,0l0,0v1h-1l0,0l0,0v1h-1l0,0l0,0v1h-1l0,0l0,0v1h-1
		l0,0l0,0v1h-1l0,0l0,0v1h-1l0,0l0,0v1h-1l0,0l0,0v1h-1l0,0l0,0v1h-1l0,0l0,0v1h-1l0,0l0,0v1h-1l0,0l0,0v1h-1l0,0l0,0v1h-1l0,0l0,0
		v1h-1l0,0l0,0v1h-1l0,0l0,0v1h-1l0,0l0,0v1h-1l0,0l0,0v1h-1l0,0l0,0v1h-1l0,0l0,0v1h-1l0,0l0,0v1h-1l0,0l0,0v1h-1l0,0l0,0v1h-1l0,0
		l0,0v1h-1l0,0l0,0v1h-1l0,0l0,0v1h-1l0,0l0,0v1h-1l0,0l0,0v1h-1l0,0l0,0v1h-1l0,0l0,0v1h-1l0,0l0,0v1h-1l0,0l0,0v1h-1l0,0l0,0v1h-1
		l0,0l0,0v1h-1l0,0l0,0v1h-1l0,0l0,0v1h-1l0,0l0,0v1h-1l0,0l0,0v1h-1l0,0l0,0v1h-1l0,0l0,0v1h-1l0,0l0,0v1h-1l0,0l0,0v1h-1l0,0l0,0
		v1h-1l0,0l0,0v1h-1l0,0l0,0v1h-1l0,0l0,0v1h-1l0,0l0,0v-67H92v1l0,0l0,0h-1v1l0,0l0,0h-1v1l0,0l0,0h-1v1l0,0l0,0h-1v1l0,0l0,0h-1v1
		l0,0l0,0h-1v1l0,0l0,0h-1v1l0,0l0,0h-1v1l0,0l0,0h-1v1l0,0l0,0h-1v1l0,0l0,0h-1v1l0,0l0,0h-1v1l0,0l0,0h-1v1l0,0l0,0h-1v1l0,0l0,0
		h-1v1l0,0l0,0h-1v1l0,0l0,0h-1v1l0,0l0,0h-1v1l0,0l0,0h-1v1l0,0l0,0h-1v1l0,0l0,0h-1v1l0,0l0,0h-1v1l0,0l0,0h-1v1l0,0l0,0h-1v1l0,0
		l0,0h-1v1l0,0l0,0h-1v1l0,0l0,0h-1v1l0,0l0,0h-1v1l0,0l0,0h-1v1l0,0l0,0h-1v1l0,0l0,0h-1v1l0,0l0,0h-1v1l0,0l0,0h-1v1l0,0l0,0h-1v1
		l0,0l0,0h-1v1l0,0l0,0h-1v1l0,0l0,0h-1v1l0,0l0,0h-1v1l0,0l0,0h-1v1l0,0l0,0h-1v1l0,0l0,0h-1v1l0,0l0,0h-1v1l0,0l0,0h-1v1l0,0l0,0
		h-1v1l0,0l0,0h-1v1l0,0l0,0h-1v1l0,0l0,0h-1v1l0,0l0,0h-1v1l0,0l0,0h-1v1l0,0l0,0h-1v1l0,0l0,0h-1v1l0,0l0,0h-1v1l0,0l0,0h-1v1l0,0
		l0,0h-1v1l0,0l0,0h-1v1l0,0l0,0h-1v1l0,0l0,0h-1v1l0,0l0,0h-1v1l0,0l0,0h-1v1l0,0l0,0h-1v1l0,0l0,0h-1v1l0,0l0,0h-1v1l0,0l0,0h-1v1
		l0,0l0,0h-1v1l0,0l0,0h-1v1l0,0l0,0h-1v1l0,0l0,0h-1v1l0,0l0,0h-1v1l0,0l0,0h-1v1l0,0l0,0h-1v1l0,0l0,0h-1v1l0,0l0,0h-1v1l0,0l0,0
		h-1v1l0,0l0,0h-1v1l0,0l0,0h-1v1l0,0l0,0h-1v1l0,0l0,0h-1v1l0,0l0,0h-1v1l0,0l0,0h-1v1l0,0l0,0h-1v1l0,0l0,0h-1v1l0,0l0,0h-1v1l0,0
		l0,0H9v1l0,0l0,0H8v1l0,0l0,0H7v1l0,0l0,0H6v1l0,0l0,0H5v1l0,0l0,0H4v1l0,0l0,0H3v1l0,0l0,0H2v1l0,0l0,0H1v1l0,0l0,0H0v1l0,0l0,0
		h-1v1l0,0l0,0h-1v1l0,0l0,0h-1v1l0,0l0,0h-1v1l0,0l0,0h-1v1l0,0l0,0h-1v1l0,0l0,0h-1v1l0,0l0,0h-1v1l0,0l0,0h-1v1l0,0l0,0h-1v1l0,0
		l0,0h-1v1l0,0l0,0h-1v1l0,0l0,0h-1v1l0,0l0,0h-1v1l0,0l0,0h-1v1l0,0l0,0h-1v1l0,0l0,0h-1v1l0,0l0,0h-1v1l0,0l0,0h-1v1l0,0l0,0h-1v1
		l0,0l0,0h-1v1l0,0l0,0h-1v1l0,0l0,0h-1v1l0,0l0,0h-1v1l0,0l0,0h-1v1l0,0l0,0h-1v1l0,0l0,0h-1v1l0,0l0,0h-1v1l0,0l0,0h-1v1l0,0l0,0
		h-1v1l0,0l0,0h-1v1l0,0l0,0h-1v1l0,0l0,0h-1v1l0,0l0,0h-1v1l0,0l0,0h-1v1l0,0l0,0h-1v1l0,0l0,0h-1v1l0,0l0,0h-1v1l0,0l0,0h-1v1l0,0
		l0,0h-1v1l0,0l0,0h-1v1l0,0l0,0h-1v1l0,0l0,0h-1v1l0,0l0,0h-1v1l0,0l0,0h-1v1l0,0l0,0h-1v1l0,0l0,0h-1v1l0,0l0,0h-1v1l0,0l0,0h-1v1
		l0,0l0,0h-1v1l0,0l0,0h-1v1l0,0l0,0h-1v1l0,0l0,0h-1v1l0,0l0,0h-1v1l0,0l0,0h-1v1l0,0l0,0h-1v1l0,0l0,0h-1v1l0,0l0,0h-1v1l0,0l0,0
		h-1v1l0,0l0,0h-1v1l0,0l0,0h-1v1l0,0l0,0h-1v1l0,0l0,0h-1v1l0,0l0,0h-1v1l0,0l0,0h-1v1l0,0l0,0h-1v1l0,0l0,0h-1v1l0,0l0,0h-1v1l0,0
		l0,0h-1v1l0,0l0,0h-1v1l0,0l0,0h-1v1l0,0l0,0h-1v1l0,0l0,0h-1v1l0,0l0,0h-1v1l0,0l0,0h-1v1l0,0l0,0h-1v1l0,0l0,0h-1v1l0,0l0,0h-1v1
		l0,0l0,0h-1v1l0,0l0,0h-1v1l0,0l0,0h-1v1l0,0l0,0h-1v1l0,0l0,0h-1v1l0,0l0,0h-1v1l0,0l0,0h-1v1l0,0l0,0h-1v1l0,0l0,0h-1v1l0,0l0,0
		h-1v1l0,0l0,0h-1v1l0,0l0,0h-1v1l0,0l0,0h-1v1l0,0l0,0h-1v1l0,0l0,0h-1v1l0,0l0,0h-1v1l0,0l0,0h-1v1l0,0l0,0h-1v1l0,0l0,0h-1v1l0,0
		l0,0h-1v1l0,0l0,0h-1v1l0,0l0,0h-1v1l0,0l0,0h-1v1l0,0l0,0h-1v1l0,0l0,0h-1v1l0,0l0,0h-1v1l0,0l0,0h-1v1l0,0l0,0h-1v1l0,0l0,0h-1v1
		l0,0l0,0h-1v1l0,0l0,0h-1v1l0,0l0,0h-1v1l0,0l0,0h-1v1l0,0l0,0h-1v1l0,0l0,0h-1v1l0,0l0,0h-1v1l0,0l0,0h-1v1l0,0l0,0h-1v1l0,0l0,0
		h-1v1l0,0l0,0h-1v1l0,0l0,0h-1v1l0,0l0,0h-1v1l0,0l0,0h-1v1l0,0l0,0h-1v1l0,0l0,0h-1v1l0,0l0,0h-1v1l0,0l0,0h-1v1l0,0l0,0h-1v1l0,0
		l0,0h-1v1l0,0l0,0h-1v1l0,0l0,0h-1v1l0,0l0,0h-1v1l0,0l0,0h-1v1l0,0l0,0h-1v1l0,0l0,0h-1v1l0,0l0,0h-1v1l0,0l0,0h-1v1l0,0l0,0h-1v1
		l0,0l0,0h-1v1l0,0l0,0h-1v1l0,0l0,0h-1v1l0,0l0,0h-1v1l0,0l0,0h-1v1l0,0l0,0h-1v1l0,0l0,0h-1v102.627
		c0,58.281,27.156,84.156,73.455,84.156c23.992,0,43.234-6.756,56.376-20.606c0.165-0.169,0.386-0.328,0.548-0.5
		c0.165-0.169,0.362-0.328,0.524-0.5c0.165-0.169,0.35-0.328,0.512-0.5c0.165-0.169,0.344-0.328,0.506-0.5
		c0.165-0.169,0.34-0.328,0.503-0.5c0.165-0.169,0.339-0.328,0.501-0.5c0.165-0.169,0.338-0.328,0.5-0.5
		c0.165-0.169,0.338-0.328,0.5-0.5c0.165-0.169,0.338-0.328,0.5-0.5c0.165-0.169,0.337-0.328,0.5-0.5
		c0.165-0.169,0.337-0.328,0.5-0.5c0.165-0.169,0.337-0.328,0.5-0.5c0.165-0.169,0.337-0.328,0.5-0.5
		c0.165-0.169,0.337-0.328,0.5-0.5c0.165-0.169,0.337-0.328,0.5-0.5c0.165-0.169,0.337-0.328,0.5-0.5
		c0.165-0.169,0.337-0.328,0.5-0.5c0.165-0.169,0.337-0.328,0.5-0.5c0.165-0.169,0.337-0.328,0.5-0.5
		c0.165-0.169,0.337-0.328,0.5-0.5c0.165-0.169,0.337-0.328,0.5-0.5c0.165-0.169,0.337-0.328,0.5-0.5
		c0.165-0.169,0.337-0.328,0.5-0.5c0.165-0.169,0.337-0.328,0.5-0.5c0.165-0.169,0.337-0.328,0.5-0.5
		c0.165-0.169,0.337-0.328,0.5-0.5c0.165-0.169,0.337-0.328,0.5-0.5c0.165-0.169,0.337-0.328,0.5-0.5
		c0.165-0.169,0.337-0.328,0.5-0.5c0.165-0.169,0.337-0.328,0.5-0.5c0.165-0.169,0.337-0.328,0.5-0.5
		c0.165-0.169,0.337-0.328,0.5-0.5c0.165-0.169,0.337-0.328,0.5-0.5c0.165-0.169,0.337-0.328,0.5-0.5
		c0.165-0.169,0.337-0.328,0.5-0.5c0.165-0.169,0.337-0.328,0.5-0.5c0.165-0.169,0.337-0.328,0.5-0.5
		c0.165-0.169,0.337-0.328,0.5-0.5c0.165-0.169,0.337-0.328,0.5-0.5c0.165-0.169,0.337-0.328,0.5-0.5
		c0.165-0.169,0.337-0.328,0.5-0.5c0.165-0.169,0.337-0.328,0.5-0.5c0.165-0.169,0.337-0.328,0.5-0.5
		c0.165-0.169,0.337-0.328,0.5-0.5c0.165-0.169,0.337-0.328,0.5-0.5c0.165-0.169,0.337-0.328,0.5-0.5
		c0.165-0.169,0.337-0.328,0.5-0.5c0.165-0.169,0.337-0.328,0.5-0.5c0.165-0.169,0.337-0.328,0.5-0.5
		c0.165-0.169,0.337-0.328,0.5-0.5c0.165-0.169,0.337-0.328,0.5-0.5c0.165-0.169,0.337-0.328,0.5-0.5
		c0.165-0.169,0.337-0.328,0.5-0.5c0.165-0.169,0.337-0.328,0.5-0.5c0.165-0.169,0.337-0.328,0.5-0.5
		c0.165-0.169,0.337-0.328,0.5-0.5c0.165-0.169,0.337-0.328,0.5-0.5c0.165-0.169,0.337-0.328,0.5-0.5
		c0.165-0.169,0.337-0.328,0.5-0.5c0.165-0.169,0.337-0.328,0.5-0.5c0.165-0.169,0.337-0.328,0.5-0.5
		c0.165-0.169,0.337-0.328,0.5-0.5c0.165-0.169,0.337-0.328,0.5-0.5c0.165-0.169,0.337-0.328,0.5-0.5
		c0.165-0.169,0.337-0.328,0.5-0.5c0.165-0.169,0.337-0.328,0.5-0.5c0.165-0.169,0.337-0.328,0.5-0.5
		c0.165-0.169,0.337-0.328,0.5-0.5c0.165-0.169,0.337-0.328,0.5-0.5c0.165-0.169,0.337-0.328,0.5-0.5
		c0.165-0.169,0.337-0.328,0.5-0.5c0.165-0.169,0.337-0.328,0.5-0.5c0.165-0.169,0.337-0.328,0.5-0.5
		c0.165-0.169,0.337-0.328,0.5-0.5c0.165-0.169,0.337-0.328,0.5-0.5c0.165-0.169,0.337-0.328,0.5-0.5
		c0.165-0.169,0.337-0.328,0.5-0.5c0.165-0.169,0.337-0.328,0.5-0.5c0.165-0.169,0.337-0.328,0.5-0.5
		c0.165-0.169,0.337-0.328,0.5-0.5c0.165-0.169,0.337-0.328,0.5-0.5c0.165-0.169,0.337-0.328,0.5-0.5
		c0.165-0.169,0.337-0.328,0.5-0.5c0.165-0.169,0.337-0.328,0.5-0.5c0.165-0.169,0.337-0.328,0.5-0.5
		c0.165-0.169,0.337-0.328,0.5-0.5c0.165-0.169,0.337-0.328,0.5-0.5c0.165-0.169,0.337-0.328,0.5-0.5
		c0.165-0.169,0.337-0.328,0.5-0.5c0.165-0.169,0.337-0.328,0.5-0.5c0.165-0.169,0.337-0.328,0.5-0.5
		c0.165-0.169,0.337-0.328,0.5-0.5c0.165-0.169,0.337-0.328,0.5-0.5c0.165-0.169,0.337-0.328,0.5-0.5
		c0.165-0.169,0.337-0.328,0.5-0.5c0.165-0.169,0.337-0.328,0.5-0.5c0.165-0.169,0.337-0.328,0.5-0.5
		c0.165-0.169,0.337-0.328,0.5-0.5c0.165-0.169,0.337-0.328,0.5-0.5c0.165-0.169,0.337-0.328,0.5-0.5
		c0.165-0.169,0.337-0.328,0.5-0.5c0.165-0.169,0.337-0.328,0.5-0.5c0.076-0.077,0.156-0.044,0.231-0.122L17.119,568H60.15l0.136-1
		h0.364h0.136h0.364l0.136-1h0.364h0.136h0.364l0.136-1h0.364h0.136h0.364l0.136-1h0.364h0.136h0.364l0.136-1h0.364h0.136h0.364
		l0.136-1h0.364h0.136h0.364l0.136-1h0.364h0.136h0.364l0.136-1h0.364h0.136h0.364l0.136-1h0.364h0.136h0.364l0.136-1h0.364h0.136
		h0.364l0.136-1h0.364h0.136h0.364l0.136-1h0.364h0.136h0.364l0.136-1h0.364h0.136h0.364l0.136-1h0.364h0.136h0.364l0.136-1h0.364
		h0.136h0.364l0.136-1h0.364h0.136h0.364l0.136-1h0.364h0.136h0.364l0.136-1h0.364h0.136h0.364l0.136-1h0.364h0.136h0.364l0.136-1
		h0.364h0.136h0.364l0.136-1h0.364h0.136h0.364l0.136-1h0.364h0.136h0.364l0.136-1h0.364h0.136h0.364l0.136-1h0.364h0.136h0.364
		l0.136-1h0.364h0.136h0.364l0.136-1h0.364h0.136h0.364l0.136-1h0.364h0.136h0.364l0.136-1h0.364h0.136h0.364l0.136-1h0.364h0.136
		h0.364l0.136-1h0.364h0.136h0.364l0.136-1h0.364h0.136h0.364l0.136-1h0.364h0.136h0.364l0.136-1h0.364h0.136h0.364l0.136-1h0.364
		h0.136h0.364l0.136-1h0.364h0.136h0.364l0.136-1h0.364h0.136h0.364l0.136-1h0.364h0.136h0.364l0.136-1h0.364h0.136h0.364l0.136-1
		h0.364h0.136h0.364l0.136-1h0.364h0.136h0.364l0.136-1h0.364h0.136h0.364l0.136-1h0.364h0.136h0.364l0.136-1h0.364h0.136h0.364
		l0.136-1h0.364h0.136h0.364l0.136-1h0.364h0.136h0.364l0.136-1h0.364h0.136h0.364l0.136-1h0.364h0.136h0.364h0.032h18.604
		l14.162,47h44.665l-0.156-1h0.656h-0.156h0.656l-0.156-1h0.656h-0.156h0.656l-0.156-1h0.656h-0.156h0.656l-0.156-1h0.656h-0.156
		h0.656l-0.156-1h0.656h-0.156h0.656l-0.156-1h0.656h-0.156h0.656l-0.156-1h0.656h-0.156h0.656l-0.156-1h0.656h-0.156h0.656
		l-0.156-1h0.656h-0.156h0.656l-0.156-1h0.656h-0.156h0.656l-0.156-1h0.656h-0.156h0.656l-0.156-1h0.656h-0.156h0.656l-0.156-1
		h0.656h-0.156h0.656l-0.156-1h0.656h-0.156h0.656l-0.156-1h0.656h-0.156h0.656l-0.156-1h0.656h-0.156h0.656l-0.156-1h0.656h-0.156
		h0.656l-0.156-1h0.656h-0.156h0.656l-0.156-1h0.656h-0.156h0.656l-0.156-1h0.656h-0.156h0.656l-0.156-1h0.656h-0.156h0.656
		l-0.156-1h0.656h-0.156h0.656l-0.156-1h0.656h-0.156h0.656l-0.156-1h0.656h-0.156h0.656l-0.156-1h0.656h-0.156h0.656l-0.156-1
		h0.656h-0.156h0.656l-0.156-1h0.656h-0.156h0.656l-0.156-1h0.656h-0.156h0.656l-0.156-1h0.656h-0.156h0.656l-0.156-1h0.656h-0.156
		h0.656l-0.156-1h0.656h-0.156h0.656l-0.156-1h0.656h-0.156h0.656l-0.156-1h0.656h-0.156h0.656l-0.156-1h0.656h-0.156h0.656
		l-0.156-1h0.656h-0.156h0.656l-0.156-1h0.656h-0.156h0.656l-0.156-1h0.656h-0.156h0.656l-0.156-1h0.656h-0.156h0.656l-0.156-1
		h0.656h-0.156h0.656l-0.156-1h0.656h-0.156h0.656l-0.156-1h0.656h-0.156h0.656l-0.156-1h0.656h-0.156h0.656l-0.156-1h0.656h-0.156
		h0.656l-0.156-1h0.656h-0.156h0.656l-0.156-1h0.656h-0.156h0.656l-0.156-1h0.656h-0.156h0.656l-0.156-1h0.656h-0.156h0.656
		l-0.156-1h0.656h-0.156h0.656l-0.156-1h0.656h-0.156h0.656l-0.156-1h0.656h-0.156h0.656l-0.156-1h0.656h-0.156h0.656l-0.156-1
		h0.656h-0.156h0.656l-0.156-1h0.656h-0.156h0.656l-0.156-1h0.656h-0.156h0.656l-0.156-1h0.656h-0.156h0.656l-0.156-1h0.656h-0.156
		h0.656l-0.156-1h0.656h-0.156h0.656l-0.156-1h0.656h-0.156h0.656l-0.156-1h0.656h-0.156h0.656l-0.156-1h0.656h-0.156h0.656
		l-0.156-1h0.656h-0.156h0.656l-0.156-1h0.656h-0.156h0.656l-0.156-1h0.656h-0.156h0.656l-0.156-1h0.656h-0.156h0.656l-0.156-1
		h0.656h-0.156h0.656l-0.156-1h0.656h-0.156h0.656l-0.156-1h0.656h-0.156h0.656l-0.156-1h0.656h-0.156h0.656l-0.156-1h0.656h-0.156
		h0.656l-0.156-1h0.656h-0.156h0.656l-0.156-1h0.656h-0.156h0.656l-0.156-1h0.656h-0.156h0.656l-0.156-1h0.656h-0.156h0.656
		l-0.156-1h0.656h-0.156h0.656l-0.156-1h0.656h-0.156h0.656l-0.156-1h0.656h-0.156h0.656l-0.156-1h0.656h-0.156h0.656l-0.156-1
		h0.656h-0.156h0.656l-0.156-1h0.656h-0.156h0.656l-0.156-1h0.656h-0.156h0.656l-0.156-1h0.656h-0.156h0.656l-0.156-1h0.656h-0.156
		h0.656l-0.156-1h0.656h-0.156h0.656l-0.156-1h0.656h-0.156h0.656l-0.156-1h0.656h-0.156h0.656l-0.156-1h0.656h-0.156h0.656
		l-0.156-1h0.656h-0.156h0.656l-0.156-1h0.656h-0.156h0.656l-0.156-1h0.656h-0.156h0.656l-0.156-1h0.656h-0.156h0.656l-0.156-1
		h0.656h-0.156h0.656l-0.156-1h0.656h-0.156h0.656l-0.156-1h0.656h-0.156h0.656l-0.156-1h0.656h-0.156h0.656l-0.156-1h0.656h-0.156
		h0.656l-0.156-1h0.656h-0.156h0.656l-0.156-1h0.656h-0.156h0.656l-0.156-1h0.656h-0.156h0.656l-0.156-1h0.656h-0.156h0.656
		l-0.156-1h0.656h-0.156h0.656l-0.156-1h0.656h-0.156h0.656l-0.156-1h0.656h-0.156h0.656l-0.156-1h0.656h-0.156h0.656l-0.156-1
		h0.656h-0.156h0.656l-0.156-1h0.656h-0.156h0.656l-0.156-1h0.656h-0.156h0.656l-0.156-1h0.656h-0.156h0.656l-0.156-1h0.656h-0.156
		h0.656l-0.156-1h0.656h-0.156h0.656l-0.156-1h0.656h-0.156h0.656l-0.156-1h0.656h-0.156h0.656l-0.156-1h0.656h-0.156h0.656
		l-0.156-1h0.656h-0.156h0.656l-0.156-1h0.656h-0.156h0.656l-0.156-1h0.656h-0.156h0.656l-0.156-1h0.656h-0.156h0.656l-0.156-1
		h0.656h-0.156h0.656l-0.156-1h0.656h-0.156h0.656l-0.156-1h0.656h-0.156h0.656l-0.156-1h0.656h-0.156h0.656l-0.156-1h0.656h-0.156
		h0.656l-0.156-1h0.656h-0.156h0.656l-0.156-1h0.656h-0.156h0.656l-0.156-1h0.656h-0.156h0.656l-0.156-1h0.656h-0.156h0.656
		l-0.156-1h0.656h-0.156h0.656l-0.156-1h0.656h-0.156h0.656l-0.156-1h0.656h-0.156h0.656l-0.156-1h0.656h-0.156h0.656l-0.156-1
		h0.656h-0.156h0.656l-0.156-1h0.656h-0.156h0.656l-0.156-1h0.656h-0.156h0.656l-0.156-1h0.656h-0.156h0.656l-0.156-1h0.656h-0.156
		h0.656l-0.156-1h0.656h-0.156h0.656l-0.156-1h0.656h-0.156h0.656l-0.156-1h0.656h-0.156h0.656l-0.156-1h0.656h-0.156h0.656
		l-0.156-1h0.656h-0.156h0.656l-0.156-1h0.656h-0.156h0.656l-0.156-1h0.656h-0.156h0.656l-0.156-1h0.656h-0.156h0.656l-0.156-1
		h0.656h-0.156h0.656l-0.156-1h0.656h-0.156h0.656l-0.156-1h0.656h-0.156h0.656l-0.156-1h0.656h-0.156h0.656l-0.156-1h0.656h-0.156
		h0.656l-0.156-1h0.656h-0.156h0.656l-0.156-1h0.656h-0.156h0.656l-0.156-1h0.656h-0.156h0.656l-0.156-1h0.656h-0.156h0.656
		l-0.156-1h0.656h-0.156h0.656l-0.156-1h0.656h-0.156h0.656l-0.156-1h0.656h-0.156h0.656l-0.156-1h0.656h-0.156h0.656l-0.156-1
		h0.656h-0.156h0.656l-0.156-1h0.656h-0.156h0.656l-0.156-1h0.656h-0.156h0.656l-0.156-1h0.656h-0.156h0.656l-0.156-1h0.656h-0.156
		h0.656l-0.156-1h0.656h-0.156h0.656l-0.156-1h0.656h-0.156h0.656l-0.156-1h0.656h-0.156h0.656l-0.156-1h0.656h-0.156h0.656
		l-0.156-1h0.656h-0.156h0.656l-0.156-1h0.656h-0.156h0.656l-0.156-1h0.656h-0.156h0.656l-0.156-1h0.656h-0.156h0.656l-0.156-1
		h0.656h-0.156h0.656l-0.156-1h0.656h-0.156h0.656l-0.156-1h0.656h-0.156h0.656l-0.156-1h0.656h-0.156h0.656l-0.156-1h0.656h-0.156
		h0.656l-0.156-1h0.656h-0.156h0.656l-0.156-1h0.656h-0.156h0.656l-0.156-1h0.656h-0.156h0.656l-0.156-1h0.656h-0.156h0.656
		l-0.156-1h0.656h-0.156h0.656l-0.156-1h0.656h-0.156h0.656l-0.156-1h0.656h-0.156h0.656l-0.156-1h0.656h-0.156h0.656l-0.156-1
		h0.656h-0.156h0.656l-0.156-1h0.656h-0.156h0.656l-0.156-1h0.656h-0.156h0.656l-0.156-1h0.656h-0.156h0.656l-0.156-1h0.656h-0.156
		h0.656l-0.156-1h0.656h-0.156h0.656l-0.156-1h0.656h-0.156h0.656l-0.156-1h0.656h-0.156h0.656l-0.156-1h0.656h-0.156h0.656
		l-0.156-1h0.656h-0.156h0.656l-0.156-1h0.656h-0.156h0.656l-0.156-1h0.656h-0.156h0.656l-0.156-1h0.656h-0.156h0.656l-0.156-1
		h0.656h-0.156h0.656l-0.156-1h0.656h-0.156h0.656l-0.156-1h0.656h-0.156h0.656l-0.156-1h0.656h-0.156h0.656l-0.156-1h0.656h-0.156
		h0.656l-0.156-1h0.656h-0.156h0.656l-0.156-1h0.656h-0.156h0.656l-0.156-1h0.656h-0.156h0.656l-0.156-1h0.656h-0.156h0.656
		l-0.156-1h0.656h-0.156h0.656l-0.156-1h0.656h-0.156h0.656l-0.156-1h0.656h-0.156h0.656l-0.156-1h0.656h-0.156h0.656l-0.156-1
		h0.656h-0.156h0.656l-0.156-1h0.656h-0.156h0.656l-0.156-1h0.656h-0.156h0.656l-0.156-1h0.656h-0.156h0.656l-0.156-1h0.656h-0.156
		h0.656l-0.156-1h0.656h-0.156h0.656l-0.156-1h0.656h-0.156h0.656l-0.156-1h0.656h-0.156h0.656l-0.156-1h0.656h-0.156h0.656
		l-0.156-1h0.656h-0.156h0.656l-0.156-1h0.656h-0.156h0.656l-0.156-1h0.656h-0.156h0.656l-0.156-1h0.656h-0.156h0.656l-0.156-1
		h0.656h-0.156h0.656l-0.156-1h0.656h-0.156h0.656l-0.156-1h0.656h-0.156h0.656l-0.156-1h0.656h-0.156h0.656l-0.156-1h0.656h-0.156
		h0.656l-0.156-1h0.656h-0.156h0.656l-0.156-1h0.656h-0.156h0.656l-0.156-1h0.656h-0.156h0.656l-0.156-1h0.656h-0.156h0.656
		l-0.156-1h0.656h-0.156h0.656l-0.156-1h0.656h-0.156h0.656l-0.156-1h0.656h-0.156h0.656l-0.156-1h0.656h-0.156h0.656l-0.156-1
		h0.656h-0.156h0.656l-0.156-1h0.656H418.957z"/>
</g>
<path fill="#FFFFFF" d="M133.783,149.223v105.399c0,31.865,12.256,47.934,33.227,47.934c21.788,0,33.771-15.252,33.771-47.934
	V149.223h41.397v102.949c0,56.648-28.597,83.611-76.531,83.611c-46.299,0-73.261-25.875-73.261-84.156V149.223H133.783z"/>
<path fill="#FFFFFF" d="M307.949,285.67l-12.799,47.117h-43.031l56.104-183.564h54.197l57.193,183.564h-44.665l-14.162-47.117
	H307.949z M354.522,254.622l-11.439-38.945c-2.996-10.895-6.264-24.784-8.987-35.406h-0.817c-2.45,10.895-5.446,24.784-8.17,35.406
	l-11.167,38.945H354.522z"/>
</svg>
