<?xml version="1.0" encoding="utf-8"?>
<!-- Generator: Adobe Illustrator 16.0.3, SVG Export Plug-In . SVG Version: 6.00 Build 0)  -->
<!DOCTYPE svg PUBLIC "-//W3C//DTD SVG 1.1//EN" "http://www.w3.org/Graphics/SVG/1.1/DTD/svg11.dtd">
<svg version="1.1" id="Layer_1" xmlns="http://www.w3.org/2000/svg" xmlns:xlink="http://www.w3.org/1999/xlink" x="0px" y="0px"
	 width="128px" height="128px" viewBox="0 0 128 128" enable-background="new 0 0 128 128" xml:space="preserve">
<g>
	<g>
		<path fill="#444953" d="M128,25c0-13.806-11.194-25-25-25H25C11.194,0,0,11.194,0,25v78c0,13.806,11.194,25,25,25h78
			c13.806,0,25-11.194,25-25V25z"/>
	</g>
</g>
<g>
	<defs>
		<path id="SVGID_1_" d="M128,25c0-13.806-11.194-25-25-25H25C11.194,0,0,11.194,0,25v78c0,13.806,11.194,25,25,25h78
			c13.806,0,25-11.194,25-25V25z"/>
	</defs>
	<clipPath id="SVGID_2_">
		<use xlink:href="#SVGID_1_"  overflow="visible"/>
	</clipPath>
	<path clip-path="url(#SVGID_2_)" fill="#353A42" d="M84.648,44.089c0-11.989-9.569-21.377-21.375-21.377
		c-6.039,0-11.481,2.466-15.368,6.469c-0.17,0.164-0.335,0.331-0.5,0.5c-0.17,0.164-0.335,0.331-0.5,0.5
		c-0.17,0.164-0.335,0.331-0.5,0.5c-0.17,0.164-0.335,0.331-0.5,0.5c-0.17,0.164-0.335,0.331-0.5,0.5
		c-0.17,0.164-0.335,0.331-0.5,0.5c-0.17,0.164-0.335,0.331-0.5,0.5c-0.17,0.164-0.335,0.331-0.5,0.5
		c-0.17,0.164-0.335,0.331-0.5,0.5c-0.17,0.164-0.335,0.331-0.5,0.5c-0.17,0.164-0.335,0.331-0.5,0.5
		c-0.17,0.164-0.335,0.331-0.5,0.5c-0.17,0.164-0.335,0.331-0.5,0.5c-0.17,0.164-0.335,0.331-0.5,0.5
		c-0.17,0.164-0.335,0.331-0.5,0.5c-0.17,0.164-0.335,0.331-0.5,0.5c-0.17,0.164-0.335,0.331-0.5,0.5
		c-0.17,0.164-0.335,0.331-0.5,0.5c-0.17,0.164-0.335,0.331-0.5,0.5c-0.17,0.164-0.335,0.331-0.5,0.5
		c-0.17,0.164-0.335,0.331-0.5,0.5c-0.17,0.164-0.335,0.331-0.5,0.5c-0.17,0.164-0.335,0.331-0.5,0.5
		c-0.17,0.164-0.335,0.331-0.5,0.5c-0.17,0.164-0.335,0.331-0.5,0.5c-0.17,0.164-0.335,0.331-0.5,0.5
		c-0.17,0.164-0.335,0.331-0.5,0.5c-0.17,0.164-0.335,0.331-0.5,0.5c-0.17,0.164-0.335,0.331-0.5,0.5
		c-0.17,0.164-0.335,0.331-0.5,0.5c-0.17,0.164-0.335,0.331-0.5,0.5c-0.17,0.164-0.335,0.331-0.5,0.5
		c-0.17,0.164-0.335,0.331-0.5,0.5c-0.17,0.164-0.335,0.331-0.5,0.5c-0.17,0.164-0.335,0.331-0.5,0.5
		c-0.17,0.164-0.335,0.331-0.5,0.5c-0.17,0.164-0.335,0.331-0.5,0.5c-0.17,0.164-0.335,0.331-0.5,0.5
		c-0.17,0.164-0.335,0.331-0.5,0.5c-0.17,0.164-0.335,0.331-0.5,0.5c-0.17,0.164-0.335,0.331-0.5,0.5
		c-0.17,0.164-0.335,0.331-0.5,0.5c-0.17,0.164-0.335,0.331-0.5,0.5c-0.17,0.164-0.335,0.331-0.5,0.5
		c-0.17,0.164-0.335,0.331-0.5,0.5c-0.17,0.164-0.335,0.331-0.5,0.5c-0.17,0.164-0.335,0.331-0.5,0.5
		c-0.17,0.164-0.335,0.331-0.5,0.5c-0.17,0.164-0.335,0.331-0.5,0.5c-0.17,0.164-0.335,0.331-0.5,0.5
		c-0.17,0.164-0.335,0.331-0.5,0.5c-0.17,0.164-0.335,0.331-0.5,0.5c-0.17,0.164-0.335,0.331-0.5,0.5
		c-0.17,0.164-0.335,0.331-0.5,0.5c-0.17,0.164-0.335,0.331-0.5,0.5c-0.17,0.164-0.335,0.331-0.5,0.5
		c-0.17,0.164-0.335,0.331-0.5,0.5c-0.17,0.164-0.335,0.331-0.5,0.5c-0.17,0.164-0.335,0.331-0.5,0.5
		c-0.17,0.164-0.335,0.331-0.5,0.5c-0.17,0.164-0.335,0.331-0.5,0.5c-0.17,0.164-0.335,0.331-0.5,0.5
		c-0.17,0.164-0.335,0.331-0.5,0.5c-0.17,0.164-0.335,0.331-0.5,0.5c-0.17,0.164-0.335,0.331-0.5,0.5
		c-0.17,0.164-0.335,0.331-0.5,0.5c-0.17,0.164-0.335,0.331-0.5,0.5c-0.17,0.164-0.335,0.331-0.5,0.5
		c-0.17,0.164-0.335,0.331-0.5,0.5c-0.17,0.164-0.335,0.331-0.5,0.5c-0.17,0.164-0.335,0.331-0.5,0.5
		c-0.17,0.164-0.335,0.331-0.5,0.5c-0.17,0.164-0.335,0.331-0.5,0.5c-0.17,0.164-0.335,0.331-0.5,0.5
		c-0.17,0.164-0.335,0.331-0.5,0.5c-0.17,0.164-0.335,0.331-0.5,0.5c-0.17,0.164-0.335,0.331-0.5,0.5
		c-0.17,0.164-0.335,0.331-0.5,0.5c-0.17,0.164-0.335,0.331-0.5,0.5c-0.17,0.164-0.335,0.331-0.5,0.5
		c-0.17,0.164-0.335,0.331-0.5,0.5c-0.17,0.164-0.335,0.331-0.5,0.5c-0.17,0.164-0.335,0.331-0.5,0.5
		c-0.17,0.164-0.335,0.331-0.5,0.5c-0.17,0.164-0.335,0.331-0.5,0.5c-0.17,0.164-0.335,0.331-0.5,0.5
		c-0.17,0.164-0.335,0.331-0.5,0.5c-0.17,0.164-0.335,0.331-0.5,0.5c-0.17,0.164-0.335,0.331-0.5,0.5
		c-0.17,0.164-0.335,0.331-0.5,0.5c-0.17,0.164-0.335,0.331-0.5,0.5c-0.17,0.164-0.335,0.331-0.5,0.5
		c-0.17,0.164-0.335,0.331-0.5,0.5c-0.17,0.164-0.335,0.331-0.5,0.5c-0.17,0.164-0.335,0.331-0.5,0.5
		c-0.17,0.164-0.335,0.331-0.5,0.5c-0.17,0.164-0.335,0.331-0.5,0.5c-0.17,0.164-0.335,0.331-0.5,0.5
		c-0.17,0.164-0.335,0.331-0.5,0.5c-0.17,0.164-0.335,0.331-0.5,0.5c-0.17,0.164-0.335,0.331-0.5,0.5
		c-0.17,0.164-0.335,0.331-0.5,0.5c-0.17,0.164-0.335,0.331-0.5,0.5c-0.17,0.164-0.335,0.331-0.5,0.5
		c-0.17,0.164-0.335,0.331-0.5,0.5c-0.17,0.164-0.335,0.331-0.5,0.5c-0.17,0.164-0.335,0.331-0.5,0.5
		c-0.17,0.164-0.335,0.331-0.5,0.5c-0.17,0.164-0.335,0.331-0.5,0.5c-0.17,0.164-0.335,0.331-0.5,0.5
		c-0.17,0.164-0.335,0.331-0.5,0.5c-0.17,0.164-0.335,0.331-0.5,0.5c-0.17,0.164-0.335,0.331-0.5,0.5
		c-0.17,0.164-0.335,0.331-0.5,0.5c-0.17,0.164-0.335,0.331-0.5,0.5c-0.17,0.164-0.335,0.331-0.5,0.5
		c-0.17,0.164-0.335,0.331-0.5,0.5c-0.17,0.164-0.335,0.331-0.5,0.5c-0.17,0.164-0.335,0.331-0.5,0.5
		c-0.17,0.164-0.335,0.331-0.5,0.5c-0.17,0.164-0.335,0.331-0.5,0.5c-0.17,0.164-0.335,0.331-0.5,0.5
		c-0.17,0.164-0.335,0.331-0.5,0.5c-0.17,0.164-0.335,0.331-0.5,0.5c-0.17,0.164-0.335,0.331-0.5,0.5
		c-0.17,0.164-0.335,0.331-0.5,0.5c-0.17,0.164-0.335,0.331-0.5,0.5c-0.17,0.164-0.335,0.331-0.5,0.5
		c-0.17,0.164-0.335,0.331-0.5,0.5c-0.17,0.164-0.335,0.331-0.5,0.5c-0.17,0.164-0.335,0.331-0.5,0.5
		c-0.17,0.164-0.335,0.331-0.5,0.5c-0.17,0.164-0.335,0.331-0.5,0.5c-0.17,0.164-0.335,0.331-0.5,0.5
		c-0.17,0.164-0.335,0.331-0.5,0.5c-0.17,0.164-0.335,0.331-0.5,0.5c-0.17,0.164-0.335,0.331-0.5,0.5
		c-0.17,0.164-0.335,0.331-0.5,0.5c-0.17,0.164-0.335,0.331-0.5,0.5c-0.17,0.164-0.335,0.331-0.5,0.5
		c-0.17,0.164-0.335,0.331-0.5,0.5c-0.17,0.164-0.335,0.331-0.5,0.5c-0.17,0.164-0.335,0.331-0.5,0.5
		c-0.17,0.164-0.335,0.331-0.5,0.5c-0.17,0.164-0.335,0.331-0.5,0.5c-0.17,0.164-0.335,0.331-0.5,0.5
		c-0.17,0.164-0.335,0.331-0.5,0.5c-0.17,0.164-0.335,0.331-0.5,0.5c-0.17,0.164-0.335,0.331-0.5,0.5
		c-0.17,0.164-0.335,0.331-0.5,0.5c-0.17,0.164-0.335,0.331-0.5,0.5c-0.17,0.164-0.335,0.331-0.5,0.5
		c-0.17,0.164-0.335,0.331-0.5,0.5c-0.17,0.164-0.335,0.331-0.5,0.5c-0.17,0.164-0.335,0.331-0.5,0.5
		c-0.17,0.164-0.335,0.331-0.5,0.5c-0.17,0.164-0.335,0.331-0.5,0.5c-0.17,0.164-0.335,0.331-0.5,0.5
		c-0.17,0.164-0.335,0.331-0.5,0.5c-0.17,0.164-0.335,0.331-0.5,0.5c-0.17,0.164-0.335,0.331-0.5,0.5
		c-0.17,0.164-0.335,0.331-0.5,0.5c-0.17,0.164-0.335,0.331-0.5,0.5c-0.17,0.164-0.335,0.331-0.5,0.5
		c-0.17,0.164-0.335,0.331-0.5,0.5c-0.17,0.164-0.335,0.331-0.5,0.5c-0.17,0.164-0.335,0.331-0.5,0.5
		c-0.17,0.164-0.335,0.331-0.5,0.5c-0.17,0.164-0.335,0.331-0.5,0.5c-4.008,3.861-6.507,9.291-6.507,15.408
		c0,11.729,3.9,13.788,21.375,53.052c0.124-0.278,0.24-0.535,0.362-0.809c0.047,0.105,0.091,0.203,0.138,0.309
		c0.124-0.278,0.24-0.535,0.362-0.809c0.047,0.105,0.091,0.203,0.138,0.309c0.124-0.278,0.24-0.535,0.362-0.809
		c0.047,0.105,0.091,0.203,0.138,0.309c0.124-0.278,0.24-0.535,0.362-0.809c0.047,0.105,0.091,0.203,0.138,0.309
		c0.124-0.278,0.24-0.535,0.362-0.809c0.047,0.105,0.091,0.203,0.138,0.309c0.124-0.278,0.24-0.535,0.362-0.809
		c0.047,0.105,0.091,0.203,0.138,0.309c0.124-0.278,0.24-0.535,0.362-0.809c0.047,0.105,0.091,0.203,0.138,0.309
		c0.124-0.278,0.24-0.535,0.362-0.809c0.047,0.105,0.091,0.203,0.138,0.309c0.124-0.278,0.24-0.535,0.362-0.809
		c0.047,0.105,0.091,0.203,0.138,0.309c0.124-0.278,0.24-0.535,0.362-0.809c0.047,0.105,0.091,0.203,0.138,0.309
		c0.124-0.278,0.24-0.535,0.362-0.809c0.047,0.105,0.091,0.203,0.138,0.309c0.124-0.278,0.24-0.535,0.362-0.809
		c0.047,0.105,0.091,0.203,0.138,0.309c0.124-0.278,0.24-0.535,0.362-0.809c0.047,0.105,0.091,0.203,0.138,0.309
		c0.124-0.278,0.24-0.535,0.362-0.809c0.047,0.105,0.091,0.203,0.138,0.309c0.124-0.278,0.24-0.535,0.362-0.809
		c0.047,0.105,0.091,0.203,0.138,0.309c0.124-0.278,0.24-0.535,0.362-0.809c0.047,0.105,0.091,0.203,0.138,0.309
		c0.124-0.278,0.24-0.535,0.362-0.809c0.047,0.105,0.091,0.203,0.138,0.309c0.124-0.278,0.24-0.535,0.362-0.809
		c0.047,0.105,0.091,0.203,0.138,0.309c0.124-0.278,0.24-0.535,0.362-0.809c0.047,0.105,0.091,0.203,0.138,0.309
		c0.124-0.278,0.24-0.535,0.362-0.809c0.047,0.105,0.091,0.203,0.138,0.309c0.124-0.278,0.24-0.535,0.362-0.809
		c0.047,0.105,0.091,0.203,0.138,0.309c0.124-0.278,0.24-0.535,0.362-0.809c0.047,0.105,0.091,0.203,0.138,0.309
		c0.124-0.278,0.24-0.535,0.362-0.809c0.047,0.105,0.091,0.203,0.138,0.309c0.124-0.278,0.24-0.535,0.362-0.809
		c0.047,0.105,0.091,0.203,0.138,0.309c0.124-0.278,0.24-0.535,0.362-0.809c0.047,0.105,0.091,0.203,0.138,0.309
		c0.124-0.278,0.24-0.535,0.362-0.809c0.047,0.105,0.091,0.203,0.138,0.309c0.124-0.278,0.24-0.535,0.362-0.809
		c0.047,0.105,0.091,0.203,0.138,0.309c0.124-0.278,0.24-0.535,0.362-0.809c0.047,0.105,0.091,0.203,0.138,0.309
		c0.124-0.278,0.24-0.535,0.362-0.809c0.047,0.105,0.091,0.203,0.138,0.309c0.124-0.278,0.24-0.535,0.362-0.809
		c0.047,0.105,0.091,0.203,0.138,0.309c0.124-0.278,0.24-0.535,0.362-0.809c0.047,0.105,0.091,0.203,0.138,0.309
		c0.124-0.278,0.24-0.535,0.362-0.809c0.047,0.105,0.091,0.203,0.138,0.309c0.124-0.278,0.24-0.535,0.362-0.809
		c0.047,0.105,0.091,0.203,0.138,0.309c0.124-0.278,0.24-0.535,0.362-0.809c0.047,0.105,0.091,0.203,0.138,0.309
		c0.124-0.278,0.24-0.535,0.362-0.809c0.047,0.105,0.091,0.203,0.138,0.309c0.124-0.278,0.24-0.535,0.362-0.809
		c0.047,0.105,0.091,0.203,0.138,0.309c0.124-0.278,0.24-0.535,0.362-0.809c0.047,0.105,0.091,0.203,0.138,0.309
		c0.124-0.278,0.24-0.535,0.362-0.809c0.047,0.105,0.091,0.203,0.138,0.309c0.124-0.278,0.24-0.535,0.362-0.809
		c0.047,0.105,0.091,0.203,0.138,0.309c0.124-0.278,0.24-0.535,0.362-0.809c0.047,0.105,0.091,0.203,0.138,0.309
		c0.124-0.278,0.24-0.535,0.362-0.809c0.047,0.105,0.091,0.203,0.138,0.309c0.124-0.278,0.24-0.535,0.362-0.809
		c0.047,0.105,0.091,0.203,0.138,0.309c0.124-0.278,0.24-0.535,0.362-0.809c0.047,0.105,0.091,0.203,0.138,0.309
		c0.124-0.278,0.24-0.535,0.362-0.809c0.047,0.105,0.091,0.203,0.138,0.309c0.124-0.278,0.24-0.535,0.362-0.809
		c0.047,0.105,0.091,0.203,0.138,0.309c0.124-0.278,0.24-0.535,0.362-0.809c0.047,0.105,0.091,0.203,0.138,0.309
		c0.124-0.278,0.24-0.535,0.362-0.809c0.047,0.105,0.091,0.203,0.138,0.309c0.124-0.278,0.24-0.535,0.362-0.809
		c0.047,0.105,0.091,0.203,0.138,0.309c0.124-0.278,0.24-0.535,0.362-0.809c0.047,0.105,0.091,0.203,0.138,0.309
		c0.124-0.278,0.24-0.535,0.362-0.809c0.047,0.105,0.091,0.203,0.138,0.309c0.124-0.278,0.24-0.535,0.362-0.809
		c0.047,0.105,0.091,0.203,0.138,0.309c0.124-0.278,0.24-0.535,0.362-0.809c0.047,0.105,0.091,0.203,0.138,0.309
		c0.124-0.278,0.24-0.535,0.362-0.809c0.047,0.105,0.091,0.203,0.138,0.309c0.124-0.278,0.24-0.535,0.362-0.809
		c0.047,0.105,0.091,0.203,0.138,0.309c0.124-0.278,0.24-0.535,0.362-0.809c0.047,0.105,0.091,0.203,0.138,0.309
		c0.124-0.278,0.24-0.535,0.362-0.809c0.047,0.105,0.091,0.203,0.138,0.309c0.124-0.278,0.24-0.535,0.362-0.809
		c0.047,0.105,0.091,0.203,0.138,0.309c0.124-0.278,0.24-0.535,0.362-0.809c0.047,0.105,0.091,0.203,0.138,0.309
		c0.124-0.278,0.24-0.535,0.362-0.809c0.047,0.105,0.091,0.203,0.138,0.309c0.124-0.278,0.24-0.535,0.362-0.809
		c0.047,0.105,0.091,0.203,0.138,0.309c0.124-0.278,0.24-0.535,0.362-0.809c0.047,0.105,0.091,0.203,0.138,0.309
		c0.124-0.278,0.24-0.535,0.362-0.809c0.047,0.105,0.091,0.203,0.138,0.309c0.124-0.278,0.24-0.535,0.362-0.809
		c0.047,0.105,0.091,0.203,0.138,0.309c0.124-0.278,0.24-0.535,0.362-0.809c0.047,0.105,0.091,0.203,0.138,0.309
		c0.124-0.278,0.24-0.535,0.362-0.809c0.047,0.105,0.091,0.203,0.138,0.309c0.124-0.278,0.24-0.535,0.362-0.809
		c0.047,0.105,0.091,0.203,0.138,0.309c0.124-0.278,0.24-0.535,0.362-0.809c0.047,0.105,0.091,0.203,0.138,0.309
		c0.124-0.278,0.24-0.535,0.362-0.809c0.047,0.105,0.091,0.203,0.138,0.309c0.124-0.278,0.24-0.535,0.362-0.809
		c0.047,0.105,0.091,0.203,0.138,0.309c0.124-0.278,0.24-0.535,0.362-0.809c0.047,0.105,0.091,0.203,0.138,0.309
		c0.124-0.278,0.24-0.535,0.362-0.809c0.047,0.105,0.091,0.203,0.138,0.309c0.124-0.278,0.24-0.535,0.362-0.809
		c0.047,0.105,0.091,0.203,0.138,0.309c0.124-0.278,0.24-0.535,0.362-0.809c0.047,0.105,0.091,0.203,0.138,0.309
		c0.124-0.278,0.24-0.535,0.362-0.809c0.047,0.105,0.091,0.203,0.138,0.309c0.124-0.278,0.24-0.535,0.362-0.809
		c0.047,0.105,0.091,0.203,0.138,0.309c0.124-0.278,0.24-0.535,0.362-0.809c0.047,0.105,0.091,0.203,0.138,0.309
		c0.124-0.278,0.24-0.535,0.362-0.809c0.047,0.105,0.091,0.203,0.138,0.309c0.124-0.278,0.24-0.535,0.362-0.809
		c0.047,0.105,0.091,0.203,0.138,0.309c0.124-0.278,0.24-0.535,0.362-0.809c0.047,0.105,0.091,0.203,0.138,0.309
		c0.124-0.278,0.24-0.535,0.362-0.809c0.047,0.105,0.091,0.203,0.138,0.309c0.124-0.278,0.24-0.535,0.362-0.809
		c0.047,0.105,0.091,0.203,0.138,0.309c0.124-0.278,0.24-0.535,0.362-0.809c0.047,0.105,0.091,0.203,0.138,0.309
		c0.124-0.278,0.24-0.535,0.362-0.809c0.047,0.105,0.091,0.203,0.138,0.309c0.124-0.278,0.24-0.535,0.362-0.809
		c0.047,0.105,0.091,0.203,0.138,0.309c0.124-0.278,0.24-0.535,0.362-0.809c0.047,0.105,0.091,0.203,0.138,0.309
		c0.124-0.278,0.24-0.535,0.362-0.809c0.047,0.105,0.091,0.203,0.138,0.309c0.124-0.278,0.24-0.535,0.362-0.809
		c0.047,0.105,0.091,0.203,0.138,0.309c0.124-0.278,0.24-0.535,0.362-0.809c0.047,0.105,0.091,0.203,0.138,0.309
		c0.124-0.278,0.24-0.535,0.362-0.809c0.047,0.105,0.091,0.203,0.138,0.309c0.124-0.278,0.24-0.535,0.362-0.809
		c0.047,0.105,0.091,0.203,0.138,0.309c0.124-0.278,0.24-0.535,0.362-0.809c0.047,0.105,0.091,0.203,0.138,0.309
		c0.124-0.278,0.24-0.535,0.362-0.809c0.047,0.105,0.091,0.203,0.138,0.309c0.124-0.278,0.24-0.535,0.362-0.809
		c0.047,0.105,0.091,0.203,0.138,0.309c0.124-0.278,0.24-0.535,0.362-0.809c0.047,0.105,0.091,0.203,0.138,0.309
		c0.124-0.278,0.24-0.535,0.362-0.809c0.047,0.105,0.091,0.203,0.138,0.309c0.124-0.278,0.24-0.535,0.362-0.809
		c0.047,0.105,0.091,0.203,0.138,0.309c0.124-0.278,0.24-0.535,0.362-0.809c0.047,0.105,0.091,0.203,0.138,0.309
		c0.124-0.278,0.24-0.535,0.362-0.809c0.047,0.105,0.091,0.203,0.138,0.309c0.124-0.278,0.24-0.535,0.362-0.809
		c0.047,0.105,0.091,0.203,0.138,0.309c0.124-0.278,0.24-0.535,0.362-0.809c0.047,0.105,0.091,0.203,0.138,0.309
		c0.124-0.278,0.24-0.535,0.362-0.809c0.047,0.105,0.091,0.203,0.138,0.309c0.124-0.278,0.24-0.535,0.362-0.809
		c0.047,0.105,0.091,0.203,0.138,0.309c0.124-0.278,0.24-0.535,0.362-0.809c0.047,0.105,0.091,0.203,0.138,0.309
		c0.124-0.278,0.24-0.535,0.362-0.809c0.047,0.105,0.091,0.203,0.138,0.309c0.124-0.278,0.24-0.535,0.362-0.809
		c0.047,0.105,0.091,0.203,0.138,0.309c0.124-0.278,0.24-0.535,0.362-0.809c0.047,0.105,0.091,0.203,0.138,0.309
		c0.124-0.278,0.24-0.535,0.362-0.809c0.047,0.105,0.091,0.203,0.138,0.309c0.124-0.278,0.24-0.535,0.362-0.809
		c0.047,0.105,0.091,0.203,0.138,0.309c0.124-0.278,0.24-0.535,0.362-0.809c0.047,0.105,0.091,0.203,0.138,0.309
		c0.124-0.278,0.24-0.535,0.362-0.809c0.047,0.105,0.091,0.203,0.138,0.309c0.124-0.278,0.24-0.535,0.362-0.809
		c0.047,0.105,0.091,0.203,0.138,0.309c0.124-0.278,0.24-0.535,0.362-0.809c0.047,0.105,0.091,0.203,0.138,0.309
		c0.124-0.278,0.24-0.535,0.362-0.809c0.047,0.105,0.091,0.203,0.138,0.309c0.124-0.278,0.24-0.535,0.362-0.809
		c0.047,0.105,0.091,0.203,0.138,0.309c0.124-0.278,0.24-0.535,0.362-0.809c0.047,0.105,0.091,0.203,0.138,0.309
		c0.124-0.278,0.24-0.535,0.362-0.809c0.047,0.105,0.091,0.203,0.138,0.309c0.124-0.278,0.24-0.535,0.362-0.809
		c0.047,0.105,0.091,0.203,0.138,0.309c0.124-0.278,0.24-0.535,0.362-0.809c0.047,0.105,0.091,0.203,0.138,0.309
		c0.124-0.278,0.24-0.535,0.362-0.809c0.047,0.105,0.091,0.203,0.138,0.309c0.124-0.278,0.24-0.535,0.362-0.809
		c0.047,0.105,0.091,0.203,0.138,0.309c0.124-0.278,0.24-0.535,0.362-0.809c0.047,0.105,0.091,0.203,0.138,0.309
		c0.124-0.278,0.24-0.535,0.362-0.809c0.047,0.105,0.091,0.203,0.138,0.309c0.124-0.278,0.24-0.535,0.362-0.809
		c0.047,0.105,0.091,0.203,0.138,0.309c0.124-0.278,0.24-0.535,0.362-0.809c0.047,0.105,0.091,0.203,0.138,0.309
		c0.124-0.278,0.24-0.535,0.362-0.809c0.047,0.105,0.091,0.203,0.138,0.309c0.124-0.278,0.24-0.535,0.362-0.809
		c0.047,0.105,0.091,0.203,0.138,0.309c0.124-0.278,0.24-0.535,0.362-0.809c0.047,0.105,0.091,0.203,0.138,0.309
		c0.124-0.278,0.24-0.535,0.362-0.809c0.047,0.105,0.091,0.203,0.138,0.309c0.124-0.278,0.24-0.535,0.362-0.809
		c0.047,0.105,0.091,0.203,0.138,0.309c0.124-0.278,0.24-0.535,0.362-0.809c0.047,0.105,0.091,0.203,0.138,0.309
		c0.124-0.278,0.24-0.535,0.362-0.809c0.047,0.105,0.091,0.203,0.138,0.309c0.124-0.278,0.24-0.535,0.362-0.809
		c0.047,0.105,0.091,0.203,0.138,0.309c0.124-0.278,0.24-0.535,0.362-0.809c0.047,0.105,0.091,0.203,0.138,0.309
		c0.124-0.278,0.24-0.535,0.362-0.809c0.047,0.105,0.091,0.203,0.138,0.309c0.124-0.278,0.24-0.535,0.362-0.809
		c0.047,0.105,0.091,0.203,0.138,0.309c0.124-0.278,0.24-0.535,0.362-0.809c0.047,0.105,0.091,0.203,0.138,0.309
		c0.124-0.278,0.24-0.535,0.362-0.809c0.047,0.105,0.091,0.203,0.138,0.309c0.124-0.278,0.24-0.535,0.362-0.809
		c0.047,0.105,0.091,0.203,0.138,0.309c0.124-0.278,0.24-0.535,0.362-0.809c0.047,0.105,0.091,0.203,0.138,0.309
		c0.124-0.278,0.24-0.535,0.362-0.809c0.047,0.105,0.091,0.203,0.138,0.309c0.124-0.278,0.24-0.535,0.362-0.809
		c0.047,0.105,0.091,0.203,0.138,0.309c0.124-0.278,0.24-0.535,0.362-0.809c0.047,0.105,0.091,0.203,0.138,0.309
		c0.124-0.278,0.24-0.535,0.362-0.809c0.047,0.105,0.091,0.203,0.138,0.309c0.124-0.278,0.24-0.535,0.362-0.809
		c0.047,0.105,0.091,0.203,0.138,0.309c0.124-0.278,0.24-0.535,0.362-0.809c0.047,0.105,0.091,0.203,0.138,0.309
		c0.124-0.278,0.24-0.535,0.362-0.809c0.047,0.105,0.091,0.203,0.138,0.309c0.124-0.278,0.24-0.535,0.362-0.809
		c0.047,0.105,0.091,0.203,0.138,0.309c0.124-0.278,0.24-0.535,0.362-0.809c0.047,0.105,0.091,0.203,0.138,0.309
		c0.124-0.278,0.24-0.535,0.362-0.809c0.047,0.105,0.091,0.203,0.138,0.309c0.124-0.278,0.24-0.535,0.362-0.809
		c0.047,0.105,0.091,0.203,0.138,0.309c0.124-0.278,0.24-0.535,0.362-0.809c0.047,0.105,0.091,0.203,0.138,0.309
		c0.124-0.278,0.24-0.535,0.362-0.809c0.047,0.105,0.091,0.203,0.138,0.309c0.124-0.278,0.24-0.535,0.362-0.809
		c0.047,0.105,0.091,0.203,0.138,0.309c0.124-0.278,0.24-0.535,0.362-0.809c0.047,0.105,0.091,0.203,0.138,0.309
		c0.124-0.278,0.24-0.535,0.362-0.809c0.047,0.105,0.091,0.203,0.138,0.309c0.124-0.278,0.24-0.535,0.362-0.809
		c0.047,0.105,0.091,0.203,0.138,0.309c0.124-0.278,0.24-0.535,0.362-0.809c0.047,0.105,0.091,0.203,0.138,0.309
		c0.124-0.278,0.24-0.535,0.362-0.809c0.047,0.105,0.091,0.203,0.138,0.309c0.124-0.278,0.24-0.535,0.362-0.809
		c0.047,0.105,0.091,0.203,0.138,0.309c0.124-0.278,0.24-0.535,0.362-0.809c0.047,0.105,0.091,0.203,0.138,0.309
		c0.124-0.278,0.24-0.535,0.362-0.809c0.047,0.105,0.091,0.203,0.138,0.309c0.124-0.278,0.24-0.535,0.362-0.809
		c0.047,0.105,0.091,0.203,0.138,0.309c0.124-0.278,0.24-0.535,0.362-0.809c0.047,0.105,0.091,0.203,0.138,0.309
		c0.124-0.278,0.24-0.535,0.362-0.809c0.047,0.105,0.091,0.203,0.138,0.309c0.124-0.278,0.24-0.535,0.362-0.809
		c0.047,0.105,0.091,0.203,0.138,0.309c0.124-0.278,0.24-0.535,0.362-0.809c0.047,0.105,0.091,0.203,0.138,0.309
		c0.124-0.278,0.24-0.535,0.362-0.809c0.047,0.105,0.091,0.203,0.138,0.309c0.124-0.278,0.24-0.535,0.362-0.809
		c0.047,0.105,0.091,0.203,0.138,0.309c0.124-0.278,0.24-0.535,0.362-0.809c0.047,0.105,0.091,0.203,0.138,0.309
		c0.124-0.278,0.24-0.535,0.362-0.809c0.047,0.105,0.091,0.203,0.138,0.309C80.748,57.877,84.648,55.819,84.648,44.089z"/>
</g>
<path fill="#FFFFFF" d="M63.273,22.712c-11.806,0-21.375,9.388-21.375,21.377c0,11.729,3.9,13.788,21.375,53.052
	c17.475-39.265,21.375-41.323,21.375-53.052C84.648,32.1,75.079,22.712,63.273,22.712z M63.273,54.777
	c-5.9,0-10.688-4.787-10.688-10.688c0-5.908,4.788-10.689,10.688-10.689S73.96,38.181,73.96,44.089
	C73.96,49.99,69.173,54.777,63.273,54.777z"/>
</svg>
