<?xml version="1.0" encoding="utf-8"?>
<!-- Generator: Adobe Illustrator 16.0.3, SVG Export Plug-In . SVG Version: 6.00 Build 0)  -->
<!DOCTYPE svg PUBLIC "-//W3C//DTD SVG 1.1//EN" "http://www.w3.org/Graphics/SVG/1.1/DTD/svg11.dtd">
<svg version="1.1" id="Layer_1" xmlns="http://www.w3.org/2000/svg" xmlns:xlink="http://www.w3.org/1999/xlink" x="0px" y="0px"
	 width="652.003px" height="230.095px" viewBox="19.961 116.3 652.003 230.095"
	 enable-background="new 19.961 116.3 652.003 230.095" xml:space="preserve">
<rect x="-126.455" y="-87.7" display="none" fill="#2E3138" width="1020" height="612"/>
<g>
	<g>
		<defs>
			<filter id="Adobe_OpacityMaskFilter" filterUnits="userSpaceOnUse" x="-11.254" y="118.259" width="282.595" height="298.238">
				<feColorMatrix  type="matrix" values="1 0 0 0 0  0 1 0 0 0  0 0 1 0 0  0 0 0 1 0"/>
			</filter>
		</defs>
		<mask maskUnits="userSpaceOnUse" x="-11.254" y="118.259" width="282.595" height="298.238" id="SVGID_1_">
			<g filter="url(#Adobe_OpacityMaskFilter)">
				
					<rect x="19.614" y="-32.19" transform="matrix(-0.9813 -0.1927 0.1927 -0.9813 278.2305 330.9258)" fill="#FFFFFF" width="271.188" height="368.246"/>
				
					<rect x="162.329" y="2.549" transform="matrix(-0.9813 -0.1927 0.1927 -0.9813 530.4305 290.7456)" width="234.053" height="234.054"/>
				
					<linearGradient id="SVGID_2_" gradientUnits="userSpaceOnUse" x1="183.8401" y1="17.9443" x2="133.2468" y2="-34.2065" gradientTransform="matrix(1 0 0 -1 -41.6001 233.1309)">
					<stop  offset="0" style="stop-color:#FFFFFF"/>
					<stop  offset="1" style="stop-color:#000000"/>
				</linearGradient>
				<polygon fill="url(#SVGID_2_)" points="283.333,246.98 114.344,405.079 -28.381,213.828 160.364,83.966 				"/>
			</g>
		</mask>
		<polygon opacity="0.2" mask="url(#SVGID_1_)" enable-background="new    " points="271.341,228.1 122.907,416.497 
			-11.254,210.973 158.998,118.259 		"/>
		<g>
			<g>
				<g>
					<defs>
						<rect id="SVGID_3_" x="111.545" y="79.3" width="163" height="243"/>
					</defs>
					<clipPath id="SVGID_4_">
						<use xlink:href="#SVGID_3_"  overflow="visible"/>
					</clipPath>
					<path opacity="0.4" clip-path="url(#SVGID_4_)" enable-background="new    " d="M237.087,125.338
						c-11.839,0-22.711,4.045-31.4,10.774c-8.688-6.729-19.561-10.774-31.398-10.774c-28.377,0-51.381,23.005-51.381,51.381
						c0,71.362,82.779,108.471,82.779,108.471s82.781-37.108,82.781-108.471C288.468,148.343,265.465,125.338,237.087,125.338z"/>
				</g>
			</g>
			<g>
				<g>
					<defs>
						<rect id="SVGID_5_" x="114.545" y="71.3" width="163" height="242"/>
					</defs>
					<clipPath id="SVGID_6_">
						<use xlink:href="#SVGID_5_"  overflow="visible"/>
					</clipPath>
					<path clip-path="url(#SVGID_6_)" fill="#E80A60" d="M239.942,116.774c-11.839,0-22.711,4.045-31.399,10.774
						c-8.689-6.729-19.562-10.774-31.399-10.774c-28.377,0-51.381,23.005-51.381,51.381c0,71.363,82.78,108.472,82.78,108.472
						s82.78-37.107,82.78-108.472C291.323,139.779,268.319,116.774,239.942,116.774z"/>
				</g>
			</g>
			<g>
				<g>
					<defs>
						<rect id="SVGID_7_" x="194.545" y="116.3" width="85" height="166"/>
					</defs>
					<clipPath id="SVGID_8_">
						<use xlink:href="#SVGID_7_"  overflow="visible"/>
					</clipPath>
					<path clip-path="url(#SVGID_8_)" fill="#AA0B4B" d="M239.944,116.774c-11.839,0-22.397,4.045-31.397,10.774v149.078
						c0,0,82.78-37.108,82.78-108.472C291.325,139.779,268.321,116.774,239.944,116.774z"/>
				</g>
			</g>
			<g>
				<g>
					<defs>
						<rect id="SVGID_9_" x="137.545" y="114.3" width="140" height="131"/>
					</defs>
					<clipPath id="SVGID_10_">
						<use xlink:href="#SVGID_9_"  overflow="visible"/>
					</clipPath>
					<path opacity="0.4" clip-path="url(#SVGID_10_)" enable-background="new    " d="M337.992,161.999
						c8.881,8.881,8.881,23.412,0,32.293l-26.241,26.242c-8.883,8.882-23.411,8.882-32.292,0l-26.242-26.242
						c-8.881-8.881-8.881-23.412,0-32.293l26.242-26.24c8.881-8.881,23.409-8.881,32.292,0L337.992,161.999z"/>
				</g>
			</g>
			<g>
				<g>
					<defs>
						<rect id="SVGID_11_" x="139.545" y="111.3" width="140" height="131"/>
					</defs>
					<clipPath id="SVGID_12_">
						<use xlink:href="#SVGID_11_"  overflow="visible"/>
					</clipPath>
					<path clip-path="url(#SVGID_12_)" fill="#E82A73" d="M340.847,159.145c8.881,8.881,8.881,23.412,0,32.293l-26.242,26.244
						c-8.882,8.881-23.411,8.881-32.292,0l-26.242-26.244c-8.881-8.881-8.881-23.412,0-32.293l26.242-26.24
						c8.881-8.881,23.41-8.881,32.292,0L340.847,159.145z"/>
				</g>
			</g>
		</g>
	</g>
	<g>
		<g opacity="0.4">
			<g>
				<path d="M349.78,143.955h4.966v34.307h16.439v4.167H349.78V143.955z"/>
				<path d="M381.806,182.429l-12.559-38.474h5.365l5.994,18.952c1.655,5.195,3.082,9.875,4.11,14.385h0.113
					c1.084-4.452,2.684-9.304,4.396-14.328l6.508-19.009h5.309l-13.757,38.474H381.806L381.806,182.429z"/>
				<path d="M410.18,143.955v38.474h-4.967v-38.474H410.18z"/>
				<path d="M427.306,182.429l-12.559-38.474h5.365l5.994,18.952c1.655,5.195,3.082,9.875,4.11,14.385h0.113
					c1.084-4.452,2.684-9.304,4.396-14.328l6.508-19.009h5.309l-13.757,38.474H427.306L427.306,182.429z"/>
				<path stroke="#000000" stroke-width="2.8545" stroke-miterlimit="10" d="M323.531,233.811l-0.544-4.74h-0.232
					c-2.099,2.953-6.141,5.595-11.501,5.595c-7.616,0-11.502-5.362-11.502-10.802c0-9.092,8.083-14.066,22.614-13.988v-0.777
					c0-3.107-0.854-8.703-8.548-8.703c-3.497,0-7.149,1.088-9.792,2.797l-1.554-4.507c3.107-2.021,7.616-3.341,12.355-3.341
					c11.501,0,14.3,7.849,14.3,15.388v14.065c0,3.265,0.154,6.45,0.622,9.015H323.531L323.531,233.811z M322.521,214.614
					c-7.46-0.155-15.931,1.165-15.931,8.471c0,4.431,2.953,6.528,6.449,6.528c4.896,0,8.005-3.108,9.093-6.295
					c0.232-0.699,0.389-1.478,0.389-2.176V214.614L322.521,214.614z"/>
				<path stroke="#000000" stroke-width="2.8545" stroke-miterlimit="10" d="M340.16,208.475c0-4.817-0.154-8.703-0.311-12.279
					h6.139l0.312,6.451h0.154c2.799-4.585,7.229-7.306,13.367-7.306c9.093,0,15.932,7.693,15.932,19.117
					c0,13.522-8.237,20.205-17.097,20.205c-4.974,0-9.326-2.177-11.58-5.906h-0.154v20.438h-6.762V208.475L340.16,208.475z
					 M346.922,218.5c0,1.011,0.154,1.941,0.311,2.798c1.243,4.74,5.362,8.004,10.258,8.004c7.228,0,11.424-5.905,11.424-14.532
					c0-7.537-3.964-13.987-11.19-13.987c-4.663,0-9.015,3.341-10.336,8.471c-0.233,0.854-0.466,1.865-0.466,2.797V218.5z"/>
				<path stroke="#000000" stroke-width="2.8545" stroke-miterlimit="10" d="M405.204,233.811l-0.544-4.74h-0.232
					c-2.099,2.953-6.14,5.595-11.501,5.595c-7.616,0-11.502-5.362-11.502-10.802c0-9.092,8.082-14.066,22.613-13.988v-0.777
					c0-3.107-0.854-8.703-8.548-8.703c-3.497,0-7.148,1.088-9.792,2.797l-1.555-4.507c3.109-2.021,7.616-3.341,12.355-3.341
					c11.503,0,14.301,7.849,14.301,15.388v14.065c0,3.265,0.154,6.45,0.621,9.015H405.204L405.204,233.811z M404.195,214.614
					c-7.461-0.155-15.932,1.165-15.932,8.471c0,4.431,2.953,6.528,6.45,6.528c4.896,0,8.005-3.108,9.093-6.295
					c0.231-0.699,0.389-1.478,0.389-2.176V214.614z"/>
				<path stroke="#000000" stroke-width="2.8545" stroke-miterlimit="10" d="M421.832,207.932c0-4.431-0.076-8.238-0.311-11.736
					h5.983l0.232,7.383h0.312c1.71-5.051,5.829-8.237,10.414-8.237c0.776,0,1.32,0.078,1.941,0.233v6.45
					c-0.699-0.155-1.397-0.233-2.331-0.233c-4.817,0-8.236,3.651-9.17,8.781c-0.155,0.933-0.311,2.021-0.311,3.187v20.051h-6.763
					v-25.879H421.832z"/>
				<path stroke="#000000" stroke-width="2.8545" stroke-miterlimit="10" d="M457.346,185.395v10.802h9.792v5.207h-9.792v20.283
					c0,4.662,1.321,7.305,5.13,7.305c1.787,0,3.108-0.233,3.963-0.467l0.312,5.129c-1.32,0.545-3.42,0.934-6.063,0.934
					c-3.186,0-5.75-1.011-7.383-2.876c-1.942-2.021-2.643-5.36-2.643-9.792v-20.516h-5.828v-5.208h5.828v-9.015L457.346,185.395z"/>
				<path stroke="#000000" stroke-width="2.8545" stroke-miterlimit="10" d="M474.83,206.377c0-3.886-0.076-7.072-0.311-10.181
					h5.983l0.312,6.062h0.232c2.099-3.575,5.596-6.917,11.813-6.917c5.129,0,9.016,3.108,10.647,7.538h0.154
					c1.165-2.098,2.643-3.73,4.196-4.896c2.254-1.709,4.74-2.642,8.315-2.642c4.974,0,12.355,3.264,12.355,16.319v22.148h-6.684
					v-21.293c0-7.228-2.644-11.58-8.16-11.58c-3.886,0-6.916,2.875-8.082,6.217c-0.312,0.934-0.544,2.177-0.544,3.42v23.236h-6.684
					v-22.537c0-5.984-2.643-10.336-7.85-10.336c-4.273,0-7.383,3.418-8.471,6.838c-0.39,1.011-0.544,2.177-0.544,3.342v22.691
					h-6.685v-27.43H474.83z"/>
				<path stroke="#000000" stroke-width="2.8545" stroke-miterlimit="10" d="M543.45,216.247c0.155,9.248,6.063,13.055,12.9,13.055
					c4.896,0,7.849-0.854,10.413-1.942l1.166,4.896c-2.409,1.09-6.528,2.332-12.512,2.332c-11.58,0-18.496-7.615-18.496-18.962
					s6.684-20.283,17.641-20.283c12.279,0,15.543,10.802,15.543,17.718c0,1.399-0.155,2.487-0.232,3.188L543.45,216.247
					L543.45,216.247z M563.5,211.352c0.076-4.353-1.788-11.113-9.481-11.113c-6.916,0-9.947,6.373-10.491,11.113H563.5z"/>
				<path stroke="#000000" stroke-width="2.8545" stroke-miterlimit="10" d="M578.574,206.377c0-3.886-0.077-7.072-0.311-10.181
					h6.062l0.39,6.217h0.154c1.865-3.575,6.218-7.072,12.436-7.072c5.206,0,13.288,3.108,13.288,16.009v22.459h-6.838v-21.682
					c0-6.063-2.254-11.113-8.704-11.113c-4.508,0-8.005,3.187-9.17,6.994c-0.313,0.855-0.467,2.021-0.467,3.188v22.613h-6.84
					V206.377L578.574,206.377z"/>
				<path stroke="#000000" stroke-width="2.8545" stroke-miterlimit="10" d="M629.63,185.395v10.802h9.792v5.207h-9.792v20.283
					c0,4.662,1.32,7.305,5.13,7.305c1.787,0,3.107-0.233,3.963-0.467l0.311,5.129c-1.319,0.545-3.419,0.934-6.062,0.934
					c-3.187,0-5.75-1.011-7.383-2.876c-1.942-2.021-2.643-5.36-2.643-9.792v-20.516h-5.829v-5.208h5.829v-9.015L629.63,185.395z"/>
				<path stroke="#000000" stroke-width="2.8545" stroke-miterlimit="10" d="M646.182,226.814c2.021,1.321,5.596,2.721,9.015,2.721
					c4.975,0,7.307-2.486,7.307-5.596c0-3.264-1.943-5.051-6.994-6.916c-6.763-2.409-9.947-6.14-9.947-10.646
					c0-6.063,4.896-11.035,12.978-11.035c3.81,0,7.149,1.088,9.248,2.331l-1.71,4.974c-1.477-0.933-4.195-2.176-7.692-2.176
					c-4.041,0-6.295,2.332-6.295,5.129c0,3.109,2.254,4.508,7.148,6.373c6.528,2.487,9.87,5.752,9.87,11.346
					c0,6.605-5.129,11.27-14.065,11.27c-4.118,0-7.928-1.011-10.568-2.564L646.182,226.814z"/>
			</g>
		</g>
		<g>
			<g>
				<path fill="#9FD522" d="M352.635,141.1h4.966v34.307h16.438v4.167h-21.405L352.635,141.1L352.635,141.1z"/>
				<path fill="#9FD522" d="M384.66,179.574L372.103,141.1h5.365l5.994,18.952c1.654,5.195,3.082,9.875,4.109,14.385h0.114
					c1.084-4.452,2.683-9.304,4.395-14.328l6.509-19.009h5.309l-13.757,38.474H384.66L384.66,179.574z"/>
				<path fill="#9FD522" d="M413.034,141.1v38.474h-4.967V141.1H413.034z"/>
				<path fill="#9FD522" d="M430.16,179.574L417.603,141.1h5.365l5.994,18.952c1.654,5.195,3.082,9.875,4.109,14.385h0.114
					c1.084-4.452,2.683-9.304,4.395-14.328l6.509-19.009h5.309l-13.757,38.474H430.16L430.16,179.574z"/>
				<path fill="#F1F1F1" stroke="#F1F1F1" stroke-width="2.8545" stroke-miterlimit="10" d="M326.386,230.955l-0.544-4.74h-0.233
					c-2.098,2.953-6.14,5.596-11.501,5.596c-7.616,0-11.502-5.362-11.502-10.803c0-9.092,8.083-14.066,22.615-13.988v-0.776
					c0-3.108-0.855-8.704-8.548-8.704c-3.497,0-7.15,1.088-9.792,2.797l-1.555-4.507c3.108-2.021,7.616-3.341,12.356-3.341
					c11.501,0,14.299,7.849,14.299,15.387v14.066c0,3.264,0.155,6.449,0.622,9.015L326.386,230.955L326.386,230.955z
					 M325.376,211.76c-7.46-0.154-15.932,1.166-15.932,8.471c0,4.431,2.953,6.528,6.45,6.528c4.896,0,8.004-3.108,9.092-6.295
					c0.233-0.698,0.39-1.478,0.39-2.176V211.76L325.376,211.76z"/>
				<path fill="#F1F1F1" stroke="#F1F1F1" stroke-width="2.8545" stroke-miterlimit="10" d="M343.016,205.621
					c0-4.818-0.155-8.704-0.312-12.279h6.14l0.311,6.45h0.155c2.798-4.585,7.228-7.305,13.367-7.305
					c9.093,0,15.931,7.693,15.931,19.117c0,13.522-8.237,20.205-17.096,20.205c-4.975,0-9.326-2.176-11.58-5.906h-0.155v20.438
					h-6.761V205.621L343.016,205.621z M349.777,215.646c0,1.01,0.155,1.942,0.312,2.797c1.242,4.74,5.361,8.005,10.258,8.005
					c7.227,0,11.424-5.905,11.424-14.532c0-7.538-3.964-13.988-11.191-13.988c-4.662,0-9.015,3.342-10.336,8.471
					c-0.232,0.854-0.466,1.865-0.466,2.797V215.646z"/>
				<path fill="#F1F1F1" stroke="#F1F1F1" stroke-width="2.8545" stroke-miterlimit="10" d="M408.059,230.955l-0.544-4.74h-0.233
					c-2.098,2.953-6.139,5.596-11.501,5.596c-7.616,0-11.502-5.362-11.502-10.803c0-9.092,8.082-14.066,22.614-13.988v-0.776
					c0-3.108-0.854-8.704-8.548-8.704c-3.497,0-7.149,1.088-9.792,2.797l-1.556-4.507c3.109-2.021,7.616-3.341,12.356-3.341
					c11.502,0,14.3,7.849,14.3,15.387v14.066c0,3.264,0.155,6.449,0.621,9.015L408.059,230.955L408.059,230.955z M407.049,211.76
					c-7.461-0.154-15.933,1.166-15.933,8.471c0,4.431,2.953,6.528,6.45,6.528c4.896,0,8.005-3.108,9.093-6.295
					c0.232-0.698,0.39-1.478,0.39-2.176V211.76z"/>
				<path fill="#F1F1F1" stroke="#F1F1F1" stroke-width="2.8545" stroke-miterlimit="10" d="M424.688,205.077
					c0-4.431-0.077-8.238-0.311-11.735h5.982l0.233,7.383h0.311c1.71-5.051,5.829-8.237,10.414-8.237
					c0.777,0,1.321,0.078,1.942,0.233v6.45c-0.699-0.155-1.398-0.233-2.331-0.233c-4.818,0-8.237,3.652-9.17,8.781
					c-0.155,0.934-0.312,2.021-0.312,3.188v20.05h-6.762v-25.879H424.688z"/>
				<path fill="#F1F1F1" stroke="#F1F1F1" stroke-width="2.8545" stroke-miterlimit="10" d="M460.2,182.54v10.802h9.792v5.207H460.2
					v20.283c0,4.663,1.321,7.305,5.13,7.305c1.787,0,3.108-0.232,3.964-0.466l0.311,5.129c-1.32,0.544-3.419,0.933-6.062,0.933
					c-3.187,0-5.75-1.01-7.384-2.875c-1.941-2.021-2.642-5.361-2.642-9.793v-20.516h-5.829v-5.207h5.829v-9.015L460.2,182.54z"/>
				<path fill="#F1F1F1" stroke="#F1F1F1" stroke-width="2.8545" stroke-miterlimit="10" d="M477.685,203.521
					c0-3.886-0.077-7.071-0.312-10.181h5.983l0.313,6.062h0.231c2.1-3.574,5.596-6.917,11.813-6.917
					c5.129,0,9.015,3.108,10.646,7.538h0.155c1.165-2.098,2.642-3.729,4.196-4.896c2.254-1.709,4.739-2.642,8.314-2.642
					c4.974,0,12.356,3.264,12.356,16.319v22.148h-6.685V209.66c0-7.227-2.643-11.579-8.16-11.579c-3.886,0-6.916,2.875-8.082,6.217
					c-0.311,0.933-0.544,2.177-0.544,3.419v23.236h-6.684v-22.537c0-5.984-2.642-10.336-7.849-10.336
					c-4.274,0-7.384,3.419-8.472,6.839c-0.389,1.011-0.544,2.177-0.544,3.341v22.692h-6.684v-27.431H477.685z"/>
				<path fill="#F1F1F1" stroke="#F1F1F1" stroke-width="2.8545" stroke-miterlimit="10" d="M546.305,213.393
					c0.155,9.248,6.062,13.055,12.899,13.055c4.896,0,7.85-0.854,10.413-1.942l1.166,4.896c-2.408,1.09-6.527,2.332-12.512,2.332
					c-11.58,0-18.496-7.615-18.496-18.961c0-11.347,6.685-20.284,17.642-20.284c12.278,0,15.543,10.802,15.543,17.718
					c0,1.399-0.155,2.487-0.233,3.187H546.305L546.305,213.393z M566.355,208.496c0.077-4.352-1.788-11.113-9.481-11.113
					c-6.916,0-9.946,6.373-10.49,11.113H566.355z"/>
				<path fill="#F1F1F1" stroke="#F1F1F1" stroke-width="2.8545" stroke-miterlimit="10" d="M581.429,203.521
					c0-3.886-0.077-7.071-0.312-10.181h6.063l0.389,6.218h0.155c1.865-3.576,6.217-7.073,12.435-7.073
					c5.206,0,13.288,3.108,13.288,16.009v22.459h-6.838v-21.683c0-6.062-2.254-11.112-8.704-11.112c-4.508,0-8.005,3.187-9.17,6.993
					c-0.312,0.855-0.467,2.021-0.467,3.188v22.614h-6.839V203.521L581.429,203.521z"/>
				<path fill="#F1F1F1" stroke="#F1F1F1" stroke-width="2.8545" stroke-miterlimit="10" d="M632.485,182.54v10.802h9.792v5.207
					h-9.792v20.283c0,4.663,1.321,7.305,5.13,7.305c1.787,0,3.108-0.232,3.963-0.466l0.312,5.129
					c-1.32,0.544-3.419,0.933-6.063,0.933c-3.186,0-5.75-1.01-7.383-2.875c-1.941-2.021-2.642-5.361-2.642-9.793v-20.516h-5.829
					v-5.207h5.829v-9.015L632.485,182.54z"/>
				<path fill="#F1F1F1" stroke="#F1F1F1" stroke-width="2.8545" stroke-miterlimit="10" d="M649.036,223.961
					c2.021,1.321,5.597,2.721,9.016,2.721c4.974,0,7.306-2.486,7.306-5.596c0-3.264-1.943-5.052-6.994-6.917
					c-6.762-2.409-9.947-6.14-9.947-10.646c0-6.063,4.896-11.036,12.979-11.036c3.809,0,7.149,1.088,9.248,2.331l-1.71,4.974
					c-1.478-0.933-4.196-2.176-7.693-2.176c-4.041,0-6.295,2.332-6.295,5.129c0,3.109,2.254,4.507,7.149,6.373
					c6.527,2.486,9.87,5.751,9.87,11.346c0,6.605-5.13,11.27-14.066,11.27c-4.118,0-7.927-1.012-10.568-2.564L649.036,223.961z"/>
			</g>
		</g>
	</g>
	<g>
		<g opacity="0.4">
			<g>
				<path d="M55.875,125.78v4.761h4.315v2.295h-4.315v8.941c0,2.055,0.583,3.22,2.261,3.22c0.788,0,1.371-0.103,1.747-0.206
					l0.137,2.261c-0.583,0.24-1.507,0.411-2.672,0.411c-1.405,0-2.535-0.445-3.254-1.268c-0.856-0.891-1.165-2.364-1.165-4.316
					v-9.043H50.36v-2.295h2.569v-3.974L55.875,125.78z"/>
				<path d="M63.582,122.799h3.015v10.345h0.068c0.479-0.856,1.232-1.61,2.157-2.124c0.892-0.514,1.953-0.856,3.083-0.856
					c2.228,0,5.79,1.37,5.79,7.091v9.866h-3.015v-9.523c0-2.672-0.993-4.933-3.836-4.933c-1.953,0-3.494,1.37-4.042,3.015
					c-0.171,0.411-0.206,0.856-0.206,1.438v10.003h-3.015V122.799z"/>
				<path d="M84.271,139.379c0.068,4.076,2.672,5.755,5.688,5.755c2.158,0,3.46-0.377,4.59-0.856l0.514,2.158
					c-1.062,0.479-2.877,1.028-5.515,1.028c-5.104,0-8.153-3.357-8.153-8.359c0-5.001,2.946-8.94,7.776-8.94
					c5.413,0,6.852,4.761,6.852,7.81c0,0.617-0.068,1.096-0.103,1.405L84.271,139.379L84.271,139.379z M93.109,137.221
					c0.035-1.918-0.788-4.899-4.179-4.899c-3.049,0-4.385,2.809-4.625,4.899H93.109z"/>
			</g>
		</g>
		<g>
			<g>
				<path fill="#666666" d="M57.677,123.978v4.761h4.316v2.295h-4.316v8.941c0,2.055,0.583,3.22,2.261,3.22
					c0.788,0,1.371-0.103,1.747-0.206l0.137,2.261c-0.583,0.24-1.507,0.411-2.672,0.411c-1.404,0-2.534-0.445-3.254-1.268
					c-0.855-0.891-1.165-2.364-1.165-4.316v-9.043h-2.568v-2.295h2.568v-3.974L57.677,123.978z"/>
				<path fill="#666666" d="M65.384,120.998h3.015v10.345h0.068c0.479-0.856,1.233-1.61,2.158-2.124
					c0.891-0.514,1.953-0.855,3.083-0.855c2.227,0,5.79,1.37,5.79,7.091v9.866h-3.016v-9.523c0-2.672-0.992-4.933-3.836-4.933
					c-1.953,0-3.494,1.37-4.042,3.015c-0.171,0.411-0.206,0.856-0.206,1.438v10.003h-3.015V120.998z"/>
				<path fill="#666666" d="M86.073,137.578c0.068,4.076,2.673,5.755,5.688,5.755c2.158,0,3.46-0.377,4.59-0.856l0.514,2.158
					c-1.062,0.479-2.877,1.028-5.515,1.028c-5.104,0-8.153-3.357-8.153-8.359c0-5.001,2.946-8.94,7.776-8.94
					c5.413,0,6.853,4.761,6.853,7.81c0,0.617-0.069,1.096-0.104,1.405L86.073,137.578L86.073,137.578z M94.911,135.419
					c0.034-1.918-0.788-4.899-4.18-4.899c-3.049,0-4.385,2.809-4.625,4.899H94.911z"/>
			</g>
		</g>
	</g>
	<g>
		<g opacity="0.4">
			<g>
				<path d="M332.716,170.094c0,6.132-4.248,8.804-8.256,8.804c-4.487,0-7.947-3.289-7.947-8.53c0-5.549,3.631-8.804,8.221-8.804
					C329.495,161.564,332.716,165.023,332.716,170.094z M319.562,170.265c0,3.631,2.089,6.372,5.036,6.372
					c2.877,0,5.036-2.706,5.036-6.44c0-2.809-1.405-6.372-4.967-6.372C321.105,163.825,319.562,167.113,319.562,170.265z"/>
				<path d="M336.825,178.521v-14.285h-2.33v-2.295h2.33v-0.788c0-2.33,0.515-4.454,1.918-5.79c1.13-1.096,2.639-1.542,4.042-1.542
					c1.063,0,1.987,0.24,2.569,0.48l-0.411,2.329c-0.445-0.206-1.062-0.377-1.918-0.377c-2.569,0-3.22,2.261-3.22,4.796v0.891h4.008
					v2.295h-4.008v14.285L336.825,178.521L336.825,178.521z"/>
			</g>
		</g>
		<g>
			<g>
				<path fill="#9FD522" d="M334.518,168.292c0,6.132-4.248,8.804-8.256,8.804c-4.487,0-7.947-3.289-7.947-8.53
					c0-5.549,3.631-8.804,8.221-8.804C331.298,159.762,334.518,163.222,334.518,168.292z M321.364,168.463
					c0,3.631,2.089,6.372,5.036,6.372c2.877,0,5.036-2.706,5.036-6.44c0-2.809-1.405-6.372-4.967-6.372
					C322.906,162.023,321.364,165.312,321.364,168.463z"/>
				<path fill="#9FD522" d="M338.627,176.719v-14.285h-2.33v-2.295h2.33v-0.788c0-2.33,0.514-4.454,1.918-5.79
					c1.13-1.096,2.638-1.542,4.042-1.542c1.062,0,1.986,0.24,2.568,0.48l-0.411,2.329c-0.444-0.206-1.062-0.377-1.918-0.377
					c-2.568,0-3.22,2.261-3.22,4.796v0.891h4.008v2.295h-4.008v14.285L338.627,176.719L338.627,176.719z"/>
			</g>
		</g>
	</g>
</g>
</svg>
