<?xml version="1.0" encoding="utf-8"?>
<!-- Generator: Adobe Illustrator 16.0.3, SVG Export Plug-In . SVG Version: 6.00 Build 0)  -->
<!DOCTYPE svg PUBLIC "-//W3C//DTD SVG 1.1//EN" "http://www.w3.org/Graphics/SVG/1.1/DTD/svg11.dtd">
<svg version="1.1" id="Layer_1" xmlns="http://www.w3.org/2000/svg" xmlns:xlink="http://www.w3.org/1999/xlink" x="0px" y="0px"
	 width="128px" height="128px" viewBox="0 0 128 128" enable-background="new 0 0 128 128" xml:space="preserve">
<g>
	<g>
		<path fill="#444953" d="M128,25c0-13.806-11.193-25-25-25H25C11.193,0,0,11.194,0,25v78c0,13.807,11.193,25,25,25h78
			c13.807,0,25-11.193,25-25V25z"/>
	</g>
</g>
<path fill-rule="evenodd" clip-rule="evenodd" fill="#353A42" d="M96.689,40.649h-65.38c-0.772,0-1.452,0.38-1.877,0.958
	c-0.191,0.141-0.359,0.309-0.5,0.5c-0.191,0.141-0.359,0.309-0.5,0.5c-0.191,0.141-0.359,0.309-0.5,0.5
	c-0.191,0.141-0.359,0.309-0.5,0.5c-0.191,0.141-0.359,0.309-0.5,0.5c-0.191,0.141-0.359,0.309-0.5,0.5
	c-0.191,0.141-0.359,0.309-0.5,0.5c-0.191,0.141-0.359,0.309-0.5,0.5c-0.191,0.141-0.359,0.309-0.5,0.5
	c-0.191,0.141-0.359,0.309-0.5,0.5c-0.191,0.141-0.359,0.309-0.5,0.5c-0.191,0.141-0.359,0.309-0.5,0.5
	c-0.191,0.141-0.359,0.309-0.5,0.5c-0.191,0.141-0.359,0.309-0.5,0.5c-0.191,0.141-0.359,0.309-0.5,0.5
	c-0.191,0.141-0.359,0.309-0.5,0.5c-0.191,0.141-0.359,0.309-0.5,0.5c-0.191,0.141-0.359,0.309-0.5,0.5
	c-0.191,0.141-0.359,0.309-0.5,0.5c-0.191,0.141-0.359,0.309-0.5,0.5c-0.191,0.141-0.359,0.309-0.5,0.5
	c-0.191,0.141-0.359,0.309-0.5,0.5c-0.191,0.141-0.359,0.309-0.5,0.5c-0.191,0.141-0.359,0.309-0.5,0.5
	c-0.191,0.141-0.359,0.309-0.5,0.5c-0.191,0.141-0.359,0.309-0.5,0.5c-0.191,0.141-0.359,0.309-0.5,0.5
	c-0.191,0.141-0.359,0.309-0.5,0.5c-0.191,0.141-0.359,0.309-0.5,0.5c-0.191,0.141-0.359,0.309-0.5,0.5
	c-0.191,0.141-0.359,0.309-0.5,0.5c-0.191,0.141-0.359,0.309-0.5,0.5c-0.191,0.141-0.359,0.309-0.5,0.5
	c-0.191,0.141-0.359,0.309-0.5,0.5c-0.191,0.141-0.359,0.309-0.5,0.5c-0.191,0.141-0.359,0.309-0.5,0.5
	c-0.191,0.141-0.359,0.309-0.5,0.5c-0.191,0.141-0.359,0.309-0.5,0.5c-0.191,0.141-0.359,0.309-0.5,0.5
	c-0.191,0.141-0.359,0.309-0.5,0.5c-0.191,0.141-0.359,0.309-0.5,0.5c-0.191,0.141-0.359,0.309-0.5,0.5
	c-0.191,0.141-0.359,0.309-0.5,0.5c-0.191,0.141-0.359,0.309-0.5,0.5c-0.191,0.141-0.359,0.309-0.5,0.5
	c-0.191,0.141-0.359,0.309-0.5,0.5c-0.191,0.141-0.359,0.309-0.5,0.5c-0.191,0.141-0.359,0.309-0.5,0.5
	c-0.191,0.141-0.359,0.309-0.5,0.5c-0.191,0.141-0.359,0.309-0.5,0.5c-0.191,0.141-0.359,0.309-0.5,0.5
	c-0.191,0.141-0.359,0.309-0.5,0.5c-0.191,0.141-0.359,0.309-0.5,0.5c-0.191,0.141-0.359,0.309-0.5,0.5
	c-0.191,0.141-0.359,0.309-0.5,0.5c-0.191,0.141-0.359,0.309-0.5,0.5c-0.191,0.141-0.359,0.309-0.5,0.5
	c-0.191,0.141-0.359,0.309-0.5,0.5C0.267,70.729,0.128,70.88,0,71.039V103c0,13.807,11.193,25,25,25h31.959
	c0.033-0.039,0.078-0.066,0.108-0.108c0.191-0.141,0.359-0.309,0.5-0.5c0.191-0.141,0.359-0.309,0.5-0.5
	c0.191-0.141,0.359-0.309,0.5-0.5c0.191-0.141,0.359-0.309,0.5-0.5c0.191-0.141,0.359-0.309,0.5-0.5
	c0.191-0.141,0.359-0.309,0.5-0.5c0.191-0.141,0.359-0.309,0.5-0.5c0.191-0.141,0.359-0.309,0.5-0.5
	c0.191-0.141,0.359-0.309,0.5-0.5c0.191-0.141,0.359-0.309,0.5-0.5c0.191-0.141,0.359-0.309,0.5-0.5
	c0.191-0.141,0.359-0.309,0.5-0.5c0.191-0.141,0.359-0.309,0.5-0.5c0.191-0.141,0.359-0.309,0.5-0.5
	c0.191-0.141,0.359-0.309,0.5-0.5c0.191-0.141,0.359-0.309,0.5-0.5c0.191-0.141,0.359-0.309,0.5-0.5
	c0.191-0.141,0.359-0.309,0.5-0.5c0.191-0.141,0.359-0.309,0.5-0.5c0.191-0.141,0.359-0.309,0.5-0.5
	c0.191-0.141,0.359-0.309,0.5-0.5c0.191-0.141,0.359-0.309,0.5-0.5c0.191-0.141,0.359-0.309,0.5-0.5
	c0.191-0.141,0.359-0.309,0.5-0.5c0.191-0.141,0.359-0.309,0.5-0.5c0.191-0.141,0.359-0.309,0.5-0.5
	c0.191-0.141,0.359-0.309,0.5-0.5c0.191-0.141,0.359-0.309,0.5-0.5c0.191-0.141,0.359-0.309,0.5-0.5
	c0.191-0.141,0.359-0.309,0.5-0.5c0.191-0.141,0.359-0.309,0.5-0.5c0.191-0.141,0.359-0.309,0.5-0.5
	c0.191-0.141,0.359-0.309,0.5-0.5c0.191-0.141,0.359-0.309,0.5-0.5c0.191-0.141,0.359-0.309,0.5-0.5
	c0.191-0.141,0.359-0.309,0.5-0.5c0.191-0.141,0.359-0.309,0.5-0.5c0.191-0.141,0.359-0.309,0.5-0.5
	c0.191-0.141,0.359-0.309,0.5-0.5c0.191-0.141,0.359-0.309,0.5-0.5c0.191-0.141,0.359-0.309,0.5-0.5
	c0.191-0.141,0.359-0.309,0.5-0.5c0.191-0.141,0.359-0.309,0.5-0.5c0.191-0.141,0.359-0.309,0.5-0.5
	c0.191-0.141,0.359-0.309,0.5-0.5c0.191-0.141,0.359-0.309,0.5-0.5c0.191-0.141,0.359-0.309,0.5-0.5
	c0.191-0.141,0.359-0.309,0.5-0.5c0.191-0.141,0.359-0.309,0.5-0.5c0.191-0.141,0.359-0.309,0.5-0.5
	c0.191-0.141,0.359-0.309,0.5-0.5c0.191-0.141,0.359-0.309,0.5-0.5c0.191-0.141,0.359-0.309,0.5-0.5
	c0.191-0.141,0.359-0.309,0.5-0.5c0.191-0.141,0.359-0.309,0.5-0.5c0.191-0.141,0.359-0.309,0.5-0.5
	c0.191-0.141,0.359-0.309,0.5-0.5c0.191-0.141,0.359-0.309,0.5-0.5c0.191-0.141,0.359-0.309,0.5-0.5
	c0.191-0.141,0.359-0.309,0.5-0.5c0.191-0.141,0.359-0.309,0.5-0.5c0.191-0.141,0.359-0.309,0.5-0.5
	c0.191-0.141,0.359-0.309,0.5-0.5c0.191-0.141,0.359-0.309,0.5-0.5c0.191-0.141,0.359-0.309,0.5-0.5
	c0.191-0.141,0.359-0.309,0.5-0.5c0.191-0.141,0.359-0.309,0.5-0.5c0.191-0.141,0.359-0.309,0.5-0.5
	c0.191-0.141,0.359-0.309,0.5-0.5c0.191-0.141,0.359-0.309,0.5-0.5c0.191-0.141,0.359-0.309,0.5-0.5
	c0.191-0.141,0.359-0.309,0.5-0.5c0.191-0.141,0.359-0.309,0.5-0.5c0.191-0.141,0.359-0.309,0.5-0.5
	c0.191-0.141,0.359-0.309,0.5-0.5c0.191-0.141,0.359-0.309,0.5-0.5c0.191-0.141,0.359-0.309,0.5-0.5
	c0.191-0.141,0.359-0.309,0.5-0.5c0.191-0.141,0.359-0.309,0.5-0.5c0.191-0.141,0.359-0.309,0.5-0.5
	c0.191-0.141,0.359-0.309,0.5-0.5c0.191-0.141,0.359-0.309,0.5-0.5c0.578-0.425,0.958-1.104,0.958-1.877v-0.326l-2-1.334V83.05
	l0.5,0.334V82.55l0.5,0.334V82.05l0.5,0.334V81.55l0.5,0.334V46.703l-8,5.337v-0.273c0.162-0.072,0.33-0.117,0.5-0.113v-0.387
	c0.162-0.072,0.33-0.117,0.5-0.113v-0.387c0.162-0.072,0.33-0.117,0.5-0.113v-0.387c0.162-0.072,0.33-0.117,0.5-0.113v-0.387
	c0.162-0.072,0.33-0.117,0.5-0.113v-0.387c0.162-0.072,0.33-0.117,0.5-0.113v-0.387c0.162-0.072,0.33-0.117,0.5-0.113v-0.387
	c0.162-0.072,0.33-0.117,0.5-0.113v-0.387c0.162-0.072,0.33-0.117,0.5-0.113v-0.387c0.162-0.072,0.33-0.117,0.5-0.113v-0.387
	c0.162-0.072,0.33-0.117,0.5-0.113v-0.387c0.162-0.072,0.33-0.117,0.5-0.113v-0.387c0.162-0.072,0.33-0.117,0.5-0.113v-0.387
	c0.162-0.072,0.33-0.117,0.5-0.113v-0.387c0.162-0.072,0.33-0.117,0.5-0.113v-0.387c0.162-0.072,0.33-0.117,0.5-0.113v-1.169
	C99.025,41.695,97.979,40.649,96.689,40.649z M90.525,52.374v-0.107c0.095-0.042,0.191-0.072,0.291-0.087L90.525,52.374z"/>
<g>
	<g>
		<polygon fill-rule="evenodd" clip-rule="evenodd" fill="#FFFFFF" points="55.313,64.305 28.974,81.877 28.974,46.815 		"/>
	</g>
	<g>
		<polygon fill-rule="evenodd" clip-rule="evenodd" fill="#FFFFFF" points="99.025,46.703 99.025,81.884 72.662,64.29 		"/>
	</g>
	<g>
		<path fill-rule="evenodd" clip-rule="evenodd" fill="#FFFFFF" d="M99.025,84.688v0.326c0,1.29-1.047,2.336-2.336,2.336h-65.38
			c-1.289,0-2.335-1.046-2.335-2.336v-0.326l28.45-18.983L64,70.071l6.557-4.376L99.025,84.688z"/>
	</g>
	<g>
		<path fill-rule="evenodd" clip-rule="evenodd" fill="#FFFFFF" d="M29.474,44.346L64,67.268l34.348-22.919
			c0.209-0.139,0.445-0.201,0.678-0.194v-1.169c0-1.289-1.047-2.335-2.336-2.335h-65.38c-1.289,0-2.335,1.046-2.335,2.335v1.18
			C29.148,44.187,29.32,44.243,29.474,44.346z"/>
	</g>
</g>
</svg>
