<?xml version="1.0" encoding="utf-8"?>
<!-- Generator: Adobe Illustrator 16.0.3, SVG Export Plug-In . SVG Version: 6.00 Build 0)  -->
<!DOCTYPE svg PUBLIC "-//W3C//DTD SVG 1.1//EN" "http://www.w3.org/Graphics/SVG/1.1/DTD/svg11.dtd">
<svg version="1.1" id="Layer_1" xmlns="http://www.w3.org/2000/svg" xmlns:xlink="http://www.w3.org/1999/xlink" x="0px" y="0px"
	 width="128px" height="128px" viewBox="0 0 128 128" enable-background="new 0 0 128 128" xml:space="preserve">
<path fill="#444953" class="bg" d="M128,25c0-13.807-11.191-25-25-25H25C11.193,0,0,11.193,0,25v78c0,13.809,11.193,25,25,25h78
	c13.809,0,25-11.191,25-25V25z"/>
<g>
	<g>
		<defs>
			<path id="SVGID_1_" d="M128,25c0-13.807-11.191-25-25-25H25C11.193,0,0,11.193,0,25v78c0,13.809,11.193,25,25,25h78
				c13.809,0,25-11.191,25-25V25z"/>
		</defs>
		<clipPath id="SVGID_2_">
			<use xlink:href="#SVGID_1_"  overflow="visible"/>
		</clipPath>
		<polygon clip-path="url(#SVGID_2_)" fill="#353A42" class="shadow" points="73.316,60 73.706,59.61 74.206,59.11 74.706,58.61 75.206,58.11
			75.706,57.61 76.206,57.11 76.706,56.61 77.206,56.11 77.706,55.61 78.206,55.11 78.706,54.61 79.206,54.11 79.706,53.61 
			80.206,53.11 80.706,52.61 81.206,52.11 81.706,51.61 82.206,51.11 82.706,50.61 83.206,50.11 83.706,49.61 84.206,49.11 
			84.706,48.61 85.206,48.11 85.706,47.61 86.206,47.11 86.706,46.61 87.206,46.11 87.706,45.61 88.206,45.11 88.706,44.61 
			89.206,44.11 89.706,43.61 90.206,43.11 90.706,42.61 91.206,42.11 91.706,41.61 92.206,41.11 92.706,40.61 93.206,40.11 
			93.706,39.61 94.206,39.11 94.706,38.61 95.206,38.11 95.706,37.61 96.206,37.11 96.706,36.61 97.206,36.11 97.706,35.61 
			98.206,35.11 98.706,34.61 99.206,34.11 99.706,33.61 100.206,33.11 100.706,32.61 101.206,32.11 101.706,31.61 92.391,22.294 
			91.891,22.794 91.391,23.294 90.891,23.794 90.391,24.294 89.891,24.794 89.391,25.294 88.891,25.794 88.391,26.294 
			87.891,26.794 87.391,27.294 86.891,27.794 86.391,28.294 85.891,28.794 85.391,29.294 84.891,29.794 84.391,30.294 
			83.891,30.794 83.391,31.294 82.891,31.794 82.391,32.294 81.891,32.794 81.391,33.294 80.891,33.794 80.391,34.294 
			79.891,34.794 79.391,35.294 78.891,35.794 78.391,36.294 77.891,36.794 77.391,37.294 76.891,37.794 76.391,38.294 
			75.891,38.794 75.391,39.294 74.891,39.794 74.391,40.294 73.891,40.794 73.391,41.294 72.891,41.794 72.391,42.294 
			71.891,42.794 71.391,43.294 70.891,43.794 70.391,44.294 69.891,44.794 69.391,45.294 68.891,45.794 68.391,46.294 
			67.891,46.794 67.391,47.294 66.891,47.794 66.391,48.294 65.891,48.794 65.391,49.294 64.891,49.794 64.39,50.294 64,50.684 
			35.61,22.294 35.11,22.794 34.61,23.294 34.11,23.794 33.61,24.294 33.11,24.794 32.61,25.294 32.11,25.794 31.61,26.294 
			31.11,26.794 30.61,27.294 30.11,27.794 29.61,28.294 29.11,28.794 28.61,29.294 28.11,29.794 27.61,30.294 27.11,30.794 
			26.61,31.294 26.294,31.61 26.11,31.794 25.794,32.11 25.61,32.294 25.294,32.61 25.11,32.794 24.794,33.11 24.61,33.294 
			24.294,33.61 24.11,33.794 23.794,34.11 23.61,34.294 23.294,34.61 23.11,34.794 22.794,35.11 22.61,35.294 22.294,35.61 
			22.11,35.794 21.794,36.11 21.61,36.294 21.294,36.61 21.11,36.794 20.794,37.11 20.61,37.294 20.294,37.61 20.11,37.794 
			19.794,38.11 19.61,38.294 19.294,38.61 19.11,38.794 18.794,39.11 18.61,39.294 18.294,39.61 18.11,39.794 17.794,40.11 
			17.61,40.294 17.294,40.61 17.11,40.794 16.794,41.11 16.61,41.294 16.294,41.61 16.11,41.794 15.794,42.11 15.61,42.294 
			15.294,42.61 15.11,42.794 14.794,43.11 14.61,43.294 14.294,43.61 14.11,43.794 13.794,44.11 13.61,44.294 13.294,44.61 
			13.11,44.794 12.794,45.11 12.61,45.294 12.294,45.61 12.11,45.794 11.794,46.11 11.61,46.294 11.294,46.61 11.11,46.794 
			10.794,47.11 10.61,47.294 10.294,47.61 10.11,47.794 9.794,48.11 9.61,48.294 9.294,48.61 9.11,48.794 8.794,49.11 8.61,49.294 
			8.294,49.61 8.11,49.794 7.794,50.11 7.61,50.294 7.294,50.61 7.11,50.794 6.794,51.11 6.61,51.294 6.294,51.61 6.11,51.794 
			5.794,52.11 5.61,52.294 5.294,52.61 5.11,52.794 4.794,53.11 4.61,53.294 4.294,53.61 4.11,53.794 3.794,54.11 3.61,54.294 
			3.294,54.61 3.11,54.794 2.794,55.11 2.61,55.294 2.294,55.61 2.11,55.794 1.794,56.11 1.61,56.294 1.294,56.61 1.11,56.794 
			0.794,57.11 0.61,57.294 0.294,57.61 0.11,57.794 -0.206,58.11 -0.39,58.294 -0.706,58.61 -0.89,58.794 -1.206,59.11 
			-1.39,59.294 -1.706,59.61 -1.89,59.794 -2.206,60.11 -2.39,60.294 -2.706,60.61 -2.89,60.794 -3.206,61.11 -3.39,61.294 
			-3.706,61.61 -3.89,61.794 -4.206,62.11 -4.39,62.294 -4.706,62.61 -4.89,62.794 -5.206,63.11 -5.39,63.294 -5.706,63.61 
			-5.89,63.794 -6.206,64.11 -6.39,64.294 -6.706,64.609 -6.89,64.794 -7.206,65.109 -7.39,65.294 -7.706,65.609 -7.89,65.794 
			-8.206,66.109 -8.39,66.294 -8.706,66.609 -8.89,66.794 -9.206,67.109 -9.39,67.294 -9.706,67.609 -9.89,67.794 -10.206,68.109 
			-10.39,68.294 -10.706,68.609 -10.89,68.794 -11.206,69.109 -11.39,69.294 -11.706,69.609 -11.89,69.794 -12.206,70.109 
			-12.39,70.294 -12.706,70.609 -12.89,70.794 -13.206,71.109 -13.39,71.294 -13.706,71.609 -13.89,71.794 -14.206,72.109 
			-14.39,72.294 -14.706,72.609 -14.89,72.794 -15.206,73.109 -15.39,73.294 -15.706,73.609 -15.89,73.794 -16.206,74.109 
			-16.39,74.294 -16.706,74.609 -16.89,74.794 -17.206,75.109 -17.39,75.294 -17.706,75.609 -17.89,75.794 -18.206,76.109 
			-18.39,76.294 -18.706,76.609 -18.89,76.794 -19.206,77.109 -19.39,77.294 -19.706,77.609 -19.89,77.794 -20.206,78.109 
			-20.39,78.294 -20.706,78.609 -20.89,78.794 -21.206,79.109 -21.39,79.294 -21.706,79.609 -21.89,79.794 -22.206,80.109 
			-22.39,80.294 -22.706,80.609 -22.89,80.794 -23.206,81.109 -23.39,81.294 -23.706,81.609 -23.89,81.794 -24.206,82.109 
			-24.39,82.294 -24.706,82.609 -24.89,82.794 -25.206,83.109 -25.39,83.294 -25.706,83.609 -25.89,83.794 -26.206,84.109 
			-26.39,84.294 -26.706,84.609 -26.89,84.794 -27.206,85.109 -27.39,85.294 -27.706,85.609 -27.89,85.794 -28.206,86.109 
			-28.39,86.294 -28.706,86.609 -28.89,86.794 -29.206,87.109 -29.39,87.294 -29.706,87.609 -29.89,87.794 -30.206,88.109 
			-30.39,88.294 -30.706,88.609 -30.89,88.794 -31.206,89.109 -31.39,89.294 -31.706,89.609 -31.89,89.794 -32.206,90.109 
			-32.39,90.294 -32.706,90.609 -32.89,90.794 -33.206,91.109 -33.39,91.294 -33.706,91.609 -33.89,91.794 -34.206,92.109 
			-34.39,92.294 -34.706,92.609 -34.89,92.794 -35.206,93.109 -35.39,93.294 -35.706,93.609 -35.89,93.794 -36.206,94.109 
			-36.39,94.294 -36.706,94.609 -36.89,94.794 -37.206,95.109 -37.39,95.294 -37.706,95.609 -37.89,95.794 -38.206,96.109 
			-38.39,96.294 -38.706,96.609 -38.89,96.794 -39.206,97.109 -39.39,97.294 -39.706,97.609 -39.89,97.794 -40.206,98.109 
			-40.39,98.294 -40.706,98.609 -40.89,98.794 -41.206,99.109 -41.39,99.294 -41.706,99.609 -41.89,99.794 -42.206,100.109 
			-42.39,100.294 -42.706,100.609 -42.89,100.794 -43.206,101.109 -43.39,101.294 -43.706,101.609 -43.89,101.794 -44.206,102.109 
			-44.39,102.294 -44.706,102.609 -44.89,102.794 -45.206,103.109 -45.39,103.294 -45.706,103.609 -45.89,103.794 -46.206,104.109 
			-46.39,104.294 -46.706,104.609 -46.89,104.794 -47.206,105.109 -47.39,105.294 -47.706,105.609 -47.89,105.794 -48.206,106.109 
			-48.39,106.294 -48.706,106.609 -48.89,106.794 -49.206,107.109 -49.39,107.294 -49.706,107.609 -49.89,107.794 -50.206,108.109 
			-50.39,108.294 -50.706,108.609 -50.89,108.794 -51.206,109.109 -51.39,109.294 -51.706,109.609 -51.89,109.794 -52.206,110.109 
			-52.39,110.294 -52.706,110.609 -52.89,110.794 -53.206,111.109 -53.39,111.294 -53.706,111.609 -53.89,111.794 -54.206,112.109 
			-54.39,112.294 -54.706,112.609 -54.89,112.794 -55.206,113.109 -55.39,113.294 -55.706,113.609 -55.89,113.794 -56.206,114.109 
			-56.39,114.294 -56.706,114.609 -56.89,114.794 -57.206,115.109 -57.39,115.294 -57.706,115.609 -57.89,115.794 -58.206,116.109 
			-58.39,116.294 -58.706,116.609 -58.89,116.794 -59.206,117.109 -59.39,117.294 -59.706,117.609 -59.89,117.794 -60.206,118.109 
			-60.39,118.294 -60.706,118.609 -60.89,118.794 -61.206,119.109 -61.39,119.294 -61.706,119.609 -61.89,119.794 -62.206,120.109 
			-62.39,120.294 -62.706,120.609 -62.89,120.794 -63.206,121.109 -63.39,121.294 -63.706,121.609 -63.89,121.794 -64.206,122.109 
			-64.39,122.294 -64.706,122.609 -64.89,122.794 -65.206,123.109 -65.39,123.294 -65.706,123.609 -65.89,123.794 -66.206,124.109 
			-66.39,124.294 -66.706,124.609 -67.206,125.109 -67.706,125.609 -68.206,126.109 -68.706,126.609 -69.206,127.109 
			-69.706,127.609 -70.206,128.109 -70.706,128.609 -71.206,129.109 -71.706,129.609 -72.206,130.109 -72.706,130.609 
			-73.206,131.109 -73.706,131.609 -74.206,132.109 -74.706,132.609 -75.206,133.109 -75.706,133.609 -47.316,162 -47.706,162.391 
			-48.206,162.891 -48.706,163.391 -49.206,163.891 -49.706,164.391 -50.206,164.891 -50.706,165.391 -51.206,165.891 
			-51.706,166.391 -52.206,166.891 -52.706,167.391 -53.206,167.891 -53.706,168.391 -54.206,168.891 -54.706,169.391 
			-55.206,169.891 -55.706,170.391 -56.206,170.891 -56.706,171.391 -57.206,171.891 -57.706,172.391 -58.206,172.891 
			-58.706,173.391 -59.206,173.891 -59.706,174.391 -60.206,174.891 -60.706,175.391 -61.206,175.891 -61.706,176.391 
			-62.206,176.891 -62.706,177.391 -63.206,177.891 -63.706,178.391 -64.206,178.891 -64.706,179.391 -65.206,179.891 
			-65.706,180.391 -66.206,180.891 -66.706,181.391 -67.206,181.891 -67.706,182.391 -68.206,182.891 -68.706,183.391 
			-69.206,183.891 -69.706,184.391 -70.206,184.891 -70.706,185.391 -71.206,185.891 -71.706,186.391 -72.206,186.891 
			-72.706,187.391 -73.206,187.891 -73.706,188.391 -74.206,188.891 -74.706,189.391 -75.206,189.891 -75.706,190.391 
			-66.39,199.706 -38,171.316 -9.61,199.706 -0.294,190.391 -0.294,190.391 0.206,189.891 0.206,189.891 0.706,189.391 
			0.706,189.391 1.206,188.891 1.206,188.891 1.706,188.391 1.706,188.391 2.206,187.891 2.206,187.891 2.706,187.391 
			2.706,187.391 3.206,186.891 3.206,186.891 3.706,186.391 3.706,186.391 4.206,185.891 4.206,185.891 4.706,185.391 
			4.706,185.391 5.206,184.891 5.206,184.891 5.706,184.391 5.706,184.391 6.206,183.891 6.206,183.891 6.706,183.391 
			6.706,183.391 7.206,182.891 7.206,182.891 7.706,182.391 7.706,182.391 8.206,181.891 8.206,181.891 8.706,181.391 
			8.706,181.391 9.206,180.891 9.206,180.891 9.706,180.391 9.706,180.391 10.206,179.891 10.206,179.891 10.706,179.391 
			10.706,179.391 11.206,178.891 11.206,178.891 11.706,178.391 11.706,178.391 12.206,177.891 12.206,177.891 12.706,177.391 
			12.706,177.391 13.206,176.891 13.206,176.891 13.706,176.391 13.706,176.391 14.206,175.891 14.206,175.891 14.706,175.391 
			14.706,175.391 15.206,174.891 15.206,174.891 15.706,174.391 15.706,174.391 16.206,173.891 16.206,173.891 16.706,173.391 
			16.706,173.391 17.206,172.891 17.206,172.891 17.706,172.391 17.706,172.391 18.206,171.891 18.206,171.891 18.706,171.391 
			18.706,171.391 19.206,170.891 19.206,170.891 19.706,170.391 19.706,170.391 20.206,169.891 20.206,169.891 20.706,169.391 
			20.706,169.391 21.206,168.891 21.206,168.891 21.706,168.391 21.706,168.391 22.206,167.891 22.206,167.891 22.706,167.391 
			22.706,167.391 23.206,166.891 23.206,166.891 23.706,166.391 23.706,166.391 24.206,165.891 24.206,165.891 24.706,165.391 
			24.706,165.391 25.206,164.891 25.206,164.891 25.706,164.391 25.706,164.391 26.206,163.891 26.206,163.891 26.706,163.391 
			26.706,163.391 27.206,162.891 27.206,162.891 27.706,162.391 27.706,162.391 28.206,161.891 28.206,161.891 28.706,161.391 
			28.706,161.391 29.206,160.891 29.206,160.891 29.706,160.391 29.706,160.391 30.206,159.891 30.206,159.891 30.706,159.391 
			30.706,159.391 31.206,158.891 31.206,158.891 31.706,158.391 31.706,158.391 32.206,157.891 32.206,157.891 32.706,157.391 
			32.706,157.391 33.206,156.891 33.206,156.891 33.706,156.391 33.706,156.391 34.206,155.891 34.206,155.891 34.706,155.391 
			34.706,155.391 35.206,154.891 35.206,154.891 35.706,154.391 35.706,154.391 36.206,153.891 36.206,153.891 36.706,153.391 
			36.706,153.391 37.206,152.891 37.206,152.891 37.706,152.391 37.706,152.391 38.206,151.891 38.206,151.891 38.706,151.391 
			38.706,151.391 39.206,150.891 39.206,150.891 39.706,150.391 39.706,150.391 40.206,149.891 40.206,149.891 40.706,149.391 
			40.706,149.391 41.206,148.891 41.206,148.891 41.706,148.391 41.706,148.391 42.206,147.891 42.206,147.891 42.706,147.391 
			42.706,147.391 43.206,146.891 43.206,146.891 43.706,146.391 43.706,146.391 44.206,145.891 44.206,145.891 44.706,145.391 
			44.706,145.391 45.206,144.891 45.206,144.891 45.706,144.391 45.706,144.391 46.206,143.891 46.206,143.891 46.706,143.391 
			46.706,143.391 47.206,142.891 47.206,142.891 47.706,142.391 47.706,142.391 48.206,141.891 48.206,141.891 48.706,141.391 
			48.706,141.391 49.206,140.891 49.206,140.891 49.706,140.391 49.706,140.391 50.206,139.891 50.206,139.891 50.706,139.391 
			50.706,139.391 51.206,138.891 51.206,138.891 51.706,138.391 51.706,138.391 52.206,137.891 52.206,137.891 52.706,137.391 
			52.706,137.391 53.206,136.891 53.206,136.891 53.706,136.391 53.706,136.391 54.206,135.891 54.206,135.891 54.706,135.391 
			54.706,135.391 55.206,134.891 55.206,134.891 55.706,134.391 55.706,134.391 56.206,133.891 56.206,133.891 56.706,133.391 
			56.706,133.391 57.206,132.891 57.206,132.891 57.706,132.391 57.706,132.391 58.206,131.891 58.206,131.891 58.706,131.391 
			58.706,131.391 59.206,130.891 59.206,130.891 59.706,130.391 59.706,130.391 60.206,129.891 60.206,129.891 60.706,129.391 
			60.706,129.391 61.206,128.891 61.206,128.891 61.706,128.391 61.706,128.391 62.206,127.891 62.206,127.891 62.706,127.391 
			62.706,127.391 63.206,126.891 63.206,126.891 63.706,126.391 63.706,126.391 64.206,125.891 64.206,125.891 64.706,125.391 
			64.706,125.391 65.206,124.891 65.206,124.891 65.706,124.391 65.706,124.391 66.206,123.891 66.206,123.891 66.706,123.391 
			66.706,123.391 67.206,122.891 67.206,122.891 67.706,122.391 67.706,122.391 68.206,121.891 68.206,121.891 68.706,121.391 
			68.706,121.391 69.206,120.891 69.206,120.891 69.706,120.391 69.706,120.391 70.206,119.891 70.206,119.891 70.706,119.391 
			70.706,119.391 71.206,118.891 71.206,118.891 71.706,118.391 71.706,118.391 72.206,117.891 72.206,117.891 72.706,117.391 
			72.706,117.391 73.206,116.891 73.206,116.891 73.706,116.391 73.706,116.391 74.206,115.891 74.206,115.891 74.706,115.391 
			74.706,115.391 75.206,114.891 75.206,114.891 75.706,114.391 75.706,114.391 76.206,113.891 76.206,113.891 76.706,113.391 
			76.706,113.391 77.206,112.891 77.206,112.891 77.706,112.391 77.706,112.391 78.206,111.891 78.206,111.891 78.706,111.391 
			78.706,111.391 79.206,110.891 79.206,110.891 79.706,110.391 79.706,110.391 80.206,109.891 80.206,109.891 80.706,109.391 
			80.706,109.391 81.206,108.891 81.206,108.891 81.706,108.391 81.706,108.391 82.206,107.891 82.206,107.891 82.706,107.391 
			82.706,107.391 83.206,106.891 83.206,106.891 83.706,106.391 83.706,106.391 84.206,105.891 84.206,105.891 84.706,105.391 
			84.706,105.391 85.206,104.891 85.206,104.891 85.706,104.391 85.706,104.391 86.206,103.891 86.206,103.891 86.706,103.391 
			86.706,103.391 87.206,102.891 87.206,102.891 87.706,102.391 87.706,102.391 88.206,101.891 88.206,101.891 88.706,101.391 
			88.706,101.391 89.206,100.891 89.206,100.891 89.706,100.391 89.706,100.391 90.206,99.891 90.206,99.891 90.706,99.391 
			90.706,99.391 91.206,98.891 91.206,98.891 91.706,98.391 91.706,98.391 92.206,97.891 92.206,97.891 92.706,97.391 
			92.706,97.391 93.206,96.891 93.206,96.891 93.706,96.391 93.706,96.391 94.206,95.891 94.206,95.891 94.706,95.391 
			94.706,95.391 95.206,94.891 95.206,94.891 95.706,94.391 95.706,94.391 96.206,93.891 96.206,93.891 96.706,93.391 
			96.706,93.391 97.206,92.891 97.206,92.891 97.706,92.391 97.706,92.391 98.206,91.891 98.206,91.891 98.706,91.391 
			98.706,91.391 99.206,90.891 99.206,90.891 99.706,90.391 99.706,90.391 100.206,89.891 100.206,89.891 100.706,89.391 
			100.706,89.391 101.206,88.891 101.206,88.891 101.706,88.391 		"/>
	</g>
</g>
<polygon fill="#FFFFFF" points="101.706,31.61 92.391,22.294 64,50.684 35.61,22.294 26.294,31.61 54.684,60 26.294,88.391 
	35.61,97.706 64,69.316 92.391,97.706 101.706,88.391 73.316,60 "/>
</svg>
