<?xml version="1.0" encoding="utf-8"?>
<!-- Generator: Adobe Illustrator 16.0.3, SVG Export Plug-In . SVG Version: 6.00 Build 0)  -->
<!DOCTYPE svg PUBLIC "-//W3C//DTD SVG 1.1//EN" "http://www.w3.org/Graphics/SVG/1.1/DTD/svg11.dtd">
<svg version="1.1" id="Layer_1" xmlns="http://www.w3.org/2000/svg" xmlns:xlink="http://www.w3.org/1999/xlink" x="0px" y="0px"
	 width="128px" height="128px" viewBox="0 0 128 128" enable-background="new 0 0 128 128" xml:space="preserve">
<path fill="#444953" d="M128,25c0-13.807-11.193-25-25-25H25C11.193,0,0,11.193,0,25v78c0,13.807,11.193,25,25,25h78
	c13.807,0,25-11.193,25-25V25z"/>
<g>
	<g>
		<defs>
			<path id="SVGID_1_" d="M128,25c0-13.807-11.193-25-25-25H25C11.193,0,0,11.193,0,25v78c0,13.807,11.193,25,25,25h78
				c13.807,0,25-11.193,25-25V25z"/>
		</defs>
		<clipPath id="SVGID_2_">
			<use xlink:href="#SVGID_1_"  overflow="visible"/>
		</clipPath>
		<path clip-path="url(#SVGID_2_)" fill="#353A42" enable-background="new    " d="M113,37.076c0-3.324-2.512-6.076-5.835-6.076H84
			h-1l-4,4v-4H20.689c-1.684,0-3.184,0.708-4.256,1.836c-0.042,0.042-0.084,0.082-0.125,0.125c-0.042,0.042-0.084,0.082-0.125,0.125
			c-0.042,0.042-0.084,0.082-0.125,0.125c-0.042,0.042-0.084,0.082-0.125,0.125c-0.042,0.042-0.084,0.082-0.125,0.125
			c-0.042,0.042-0.084,0.082-0.125,0.125c-0.042,0.042-0.084,0.082-0.125,0.125c-0.042,0.042-0.084,0.082-0.125,0.125
			c-0.042,0.042-0.084,0.082-0.125,0.125c-0.042,0.042-0.084,0.082-0.125,0.125c-0.042,0.042-0.084,0.082-0.125,0.125
			c-0.042,0.042-0.084,0.082-0.125,0.125c-0.042,0.042-0.084,0.082-0.125,0.125c-0.042,0.042-0.084,0.082-0.125,0.125
			c-0.042,0.042-0.084,0.082-0.125,0.125c-0.042,0.042-0.084,0.082-0.125,0.125c-0.042,0.042-0.084,0.082-0.125,0.125
			c-0.042,0.042-0.084,0.082-0.125,0.125c-0.042,0.042-0.084,0.082-0.125,0.125c-0.042,0.042-0.084,0.082-0.125,0.125
			c-0.042,0.042-0.084,0.082-0.125,0.125c-0.042,0.042-0.084,0.082-0.125,0.125c-0.042,0.042-0.084,0.082-0.125,0.125
			c-0.042,0.042-0.084,0.082-0.125,0.125c-0.042,0.042-0.084,0.082-0.125,0.125c-0.042,0.042-0.084,0.082-0.125,0.125
			c-0.042,0.042-0.084,0.082-0.125,0.125c-0.042,0.042-0.084,0.082-0.125,0.125c-0.042,0.042-0.084,0.082-0.125,0.125
			c-0.042,0.042-0.084,0.082-0.125,0.125c-0.042,0.042-0.084,0.082-0.125,0.125c-0.042,0.042-0.084,0.082-0.125,0.125
			c-0.042,0.042-0.084,0.082-0.125,0.125c-0.042,0.042-0.084,0.082-0.125,0.125c-0.042,0.042-0.084,0.082-0.125,0.125
			c-0.042,0.042-0.084,0.082-0.125,0.125c-0.042,0.042-0.084,0.082-0.125,0.125c-0.042,0.042-0.084,0.082-0.125,0.125
			c-0.042,0.042-0.084,0.082-0.125,0.125c-0.042,0.042-0.084,0.082-0.125,0.125c-0.042,0.042-0.084,0.082-0.125,0.125
			c-0.042,0.042-0.084,0.082-0.125,0.125c-0.042,0.042-0.084,0.082-0.125,0.125c-0.042,0.042-0.084,0.082-0.125,0.125
			c-0.042,0.042-0.084,0.082-0.125,0.125c-0.042,0.042-0.084,0.082-0.125,0.125c-0.042,0.042-0.084,0.082-0.125,0.125
			c-0.042,0.042-0.084,0.082-0.125,0.125c-0.042,0.042-0.084,0.082-0.125,0.125c-0.042,0.042-0.084,0.082-0.125,0.125
			c-0.042,0.042-0.084,0.082-0.125,0.125c-0.042,0.042-0.084,0.082-0.125,0.125c-0.042,0.042-0.084,0.082-0.125,0.125
			c-0.042,0.042-0.084,0.082-0.125,0.125c-0.042,0.042-0.084,0.082-0.125,0.125c-0.042,0.042-0.084,0.082-0.125,0.125
			c-0.042,0.042-0.084,0.082-0.125,0.125c-0.042,0.042-0.084,0.082-0.125,0.125c-0.042,0.042-0.084,0.082-0.125,0.125
			c-0.042,0.042-0.084,0.082-0.125,0.125c-0.042,0.042-0.084,0.082-0.125,0.125c-0.042,0.042-0.084,0.082-0.125,0.125
			c-0.042,0.042-0.084,0.082-0.125,0.125c-0.042,0.042-0.084,0.082-0.125,0.125c-0.042,0.042-0.084,0.082-0.125,0.125
			c-0.042,0.042-0.084,0.082-0.125,0.125c-0.042,0.042-0.084,0.082-0.125,0.125c-0.042,0.042-0.084,0.082-0.125,0.125
			c-0.042,0.042-0.084,0.082-0.125,0.125c-0.042,0.042-0.084,0.082-0.125,0.125c-0.042,0.042-0.084,0.082-0.125,0.125
			c-0.042,0.042-0.084,0.082-0.125,0.125c-0.042,0.042-0.084,0.082-0.125,0.125c-0.042,0.042-0.084,0.082-0.125,0.125
			c-0.042,0.042-0.084,0.082-0.125,0.125c-0.042,0.042-0.084,0.082-0.125,0.125c-0.042,0.042-0.084,0.082-0.125,0.125
			c-0.042,0.042-0.084,0.082-0.125,0.125c-0.042,0.042-0.084,0.082-0.125,0.125c-0.042,0.042-0.084,0.082-0.125,0.125
			c-0.042,0.042-0.084,0.082-0.125,0.125c-0.042,0.042-0.084,0.082-0.125,0.125c-0.042,0.042-0.084,0.082-0.125,0.125
			c-0.042,0.042-0.084,0.082-0.125,0.125c-0.042,0.042-0.084,0.082-0.125,0.125c-0.042,0.042-0.084,0.082-0.125,0.125
			c-0.042,0.042-0.084,0.082-0.125,0.125c-0.042,0.042-0.084,0.082-0.125,0.125c-0.042,0.042-0.084,0.082-0.125,0.125
			c-0.042,0.042-0.084,0.082-0.125,0.125c-0.042,0.042-0.084,0.082-0.125,0.125c-0.042,0.042-0.084,0.082-0.125,0.125
			c-0.042,0.042-0.084,0.082-0.125,0.125c-0.042,0.042-0.084,0.082-0.125,0.125c-0.042,0.042-0.084,0.082-0.125,0.125
			c-0.042,0.042-0.084,0.082-0.125,0.125c-0.042,0.042-0.084,0.082-0.125,0.125c-0.042,0.042-0.084,0.082-0.125,0.125
			c-0.042,0.042-0.084,0.082-0.125,0.125c-0.042,0.042-0.084,0.082-0.125,0.125c-0.042,0.042-0.084,0.082-0.125,0.125
			c-0.042,0.042-0.084,0.082-0.125,0.125c-0.042,0.042-0.084,0.082-0.125,0.125c-0.042,0.042-0.084,0.082-0.125,0.125
			c-0.042,0.042-0.084,0.082-0.125,0.125c-0.042,0.042-0.084,0.082-0.125,0.125c-0.042,0.042-0.084,0.082-0.125,0.125
			c-0.042,0.042-0.084,0.082-0.125,0.125c-0.042,0.042-0.084,0.082-0.125,0.125c-0.042,0.042-0.084,0.082-0.125,0.125
			c-0.042,0.042-0.084,0.082-0.125,0.125c-0.042,0.042-0.084,0.082-0.125,0.125c-0.042,0.042-0.084,0.082-0.125,0.125
			c-0.042,0.042-0.084,0.082-0.125,0.125c-0.042,0.042-0.084,0.082-0.125,0.125c-0.042,0.042-0.084,0.082-0.125,0.125
			c-0.042,0.042-0.084,0.082-0.125,0.125c-0.042,0.042-0.084,0.082-0.125,0.125c-0.042,0.042-0.084,0.082-0.125,0.125
			c-0.042,0.042-0.084,0.082-0.125,0.125c-0.042,0.042-0.084,0.082-0.125,0.125c-0.042,0.042-0.084,0.082-0.125,0.125
			c-0.042,0.042-0.084,0.082-0.125,0.125c-0.042,0.042-0.084,0.082-0.125,0.125c-0.042,0.042-0.084,0.082-0.125,0.125
			c-0.042,0.042-0.084,0.082-0.125,0.125c-0.042,0.042-0.084,0.082-0.125,0.125c-0.042,0.042-0.084,0.082-0.125,0.125
			c-0.042,0.042-0.084,0.082-0.125,0.125c-0.042,0.042-0.084,0.082-0.125,0.125c-0.042,0.042-0.084,0.082-0.125,0.125
			c-0.042,0.042-0.084,0.082-0.125,0.125c-0.042,0.042-0.084,0.082-0.125,0.125c-0.042,0.042-0.084,0.082-0.125,0.125
			c-0.042,0.042-0.084,0.082-0.125,0.125c-0.042,0.042-0.084,0.082-0.125,0.125c-0.042,0.042-0.084,0.082-0.125,0.125
			c-0.042,0.042-0.084,0.082-0.125,0.125c-0.042,0.042-0.084,0.082-0.125,0.125c-0.042,0.042-0.084,0.082-0.125,0.125
			c-0.042,0.042-0.084,0.082-0.125,0.125c-0.042,0.042-0.084,0.082-0.125,0.125c-0.042,0.042-0.084,0.082-0.125,0.125
			c-0.042,0.042-0.084,0.082-0.125,0.125c-0.042,0.042-0.084,0.082-0.125,0.125c-0.042,0.042-0.084,0.082-0.125,0.125
			c-0.042,0.042-0.084,0.082-0.125,0.125c-0.042,0.042-0.084,0.082-0.125,0.125c-0.042,0.042-0.084,0.082-0.125,0.125
			c-0.042,0.042-0.084,0.082-0.125,0.125c-0.042,0.042-0.084,0.082-0.125,0.125c-0.042,0.042-0.084,0.082-0.125,0.125
			c-0.042,0.042-0.084,0.082-0.125,0.125c-0.042,0.042-0.084,0.082-0.125,0.125c-0.042,0.042-0.084,0.082-0.125,0.125
			c-0.042,0.042-0.084,0.082-0.125,0.125c-0.042,0.042-0.084,0.082-0.125,0.125c-0.042,0.042-0.084,0.082-0.125,0.125
			c-0.042,0.042-0.084,0.082-0.125,0.125c-0.042,0.042-0.084,0.082-0.125,0.125c-0.042,0.042-0.084,0.082-0.125,0.125
			c-0.042,0.042-0.084,0.082-0.125,0.125c-0.042,0.042-0.084,0.082-0.125,0.125c-0.042,0.042-0.084,0.082-0.125,0.125
			c-0.042,0.042-0.084,0.082-0.125,0.125c-0.042,0.042-0.084,0.082-0.125,0.125c-0.042,0.042-0.084,0.082-0.125,0.125
			c-0.042,0.042-0.084,0.082-0.125,0.125c-0.042,0.042-0.084,0.082-0.125,0.125c-0.042,0.042-0.084,0.082-0.125,0.125
			c-0.042,0.042-0.084,0.082-0.125,0.125c-0.042,0.042-0.084,0.082-0.125,0.125c-0.042,0.042-0.084,0.082-0.125,0.125
			c-0.042,0.042-0.084,0.082-0.125,0.125c-0.042,0.042-0.084,0.082-0.125,0.125c-0.042,0.042-0.084,0.082-0.125,0.125
			c-0.042,0.042-0.084,0.082-0.125,0.125c-0.042,0.042-0.084,0.082-0.125,0.125c-0.042,0.042-0.084,0.082-0.125,0.125
			c-0.042,0.042-0.084,0.082-0.125,0.125c-0.042,0.042-0.084,0.082-0.125,0.125c-0.042,0.042-0.084,0.082-0.125,0.125
			c-0.042,0.042-0.084,0.082-0.125,0.125c-0.042,0.042-0.084,0.082-0.125,0.125c-0.042,0.042-0.084,0.082-0.125,0.125
			c-0.042,0.042-0.084,0.082-0.125,0.125c-0.042,0.042-0.084,0.082-0.125,0.125c-0.042,0.042-0.084,0.082-0.125,0.125
			c-0.042,0.042-0.084,0.082-0.125,0.125c-0.042,0.042-0.084,0.082-0.125,0.125c-0.042,0.042-0.084,0.082-0.125,0.125
			c-0.042,0.042-0.084,0.082-0.125,0.125c-0.042,0.042-0.084,0.082-0.125,0.125c-0.042,0.042-0.084,0.082-0.125,0.125
			c-0.042,0.042-0.084,0.082-0.125,0.125c-0.042,0.042-0.084,0.082-0.125,0.125c-0.042,0.042-0.084,0.082-0.125,0.125
			c-0.042,0.042-0.084,0.082-0.125,0.125c-0.042,0.042-0.084,0.082-0.125,0.125c-0.042,0.042-0.084,0.082-0.125,0.125
			c-0.042,0.042-0.084,0.082-0.125,0.125c-0.042,0.042-0.084,0.082-0.125,0.125c-0.042,0.042-0.084,0.082-0.125,0.125
			c-0.042,0.042-0.084,0.082-0.125,0.125c-0.042,0.042-0.084,0.082-0.125,0.125c-0.042,0.042-0.084,0.082-0.125,0.125
			c-0.042,0.042-0.084,0.082-0.125,0.125c-0.042,0.042-0.084,0.082-0.125,0.125c-0.042,0.042-0.084,0.082-0.125,0.125
			c-0.042,0.042-0.084,0.082-0.125,0.125c-0.042,0.042-0.084,0.082-0.125,0.125c-0.042,0.042-0.084,0.082-0.125,0.125
			c-0.042,0.042-0.084,0.083-0.125,0.125c-0.042,0.042-0.084,0.082-0.125,0.125c-0.042,0.042-0.084,0.082-0.125,0.125
			c-0.042,0.042-0.084,0.082-0.125,0.125c-0.042,0.042-0.084,0.082-0.125,0.125c-0.042,0.042-0.084,0.082-0.125,0.125
			c-0.042,0.042-0.084,0.082-0.125,0.125c-0.042,0.042-0.084,0.082-0.125,0.125c-0.042,0.042-0.084,0.082-0.125,0.125
			c-0.042,0.042-0.084,0.082-0.125,0.125c-0.042,0.042-0.084,0.082-0.125,0.125c-0.042,0.042-0.084,0.082-0.125,0.125
			c-0.042,0.042-0.084,0.082-0.125,0.125c-0.042,0.042-0.084,0.082-0.125,0.125c-0.042,0.042-0.084,0.082-0.125,0.125
			c-0.042,0.042-0.084,0.082-0.125,0.125c-0.042,0.042-0.084,0.082-0.125,0.125c-0.042,0.042-0.084,0.082-0.125,0.125
			c-0.053,0.052-0.104,0.105-0.155,0.16c-0.031,0.031-0.064,0.059-0.095,0.09c-0.042,0.042-0.084,0.082-0.125,0.125
			c-0.042,0.042-0.084,0.082-0.125,0.125c-0.042,0.042-0.084,0.082-0.125,0.125c-0.042,0.042-0.084,0.082-0.125,0.125
			c-0.042,0.042-0.084,0.082-0.125,0.125c-0.042,0.042-0.084,0.082-0.125,0.125c-0.042,0.042-0.084,0.082-0.125,0.125
			c-0.042,0.042-0.084,0.082-0.125,0.125c-0.042,0.042-0.084,0.082-0.125,0.125c-0.042,0.042-0.084,0.082-0.125,0.125
			c-0.042,0.042-0.084,0.082-0.125,0.125c-0.042,0.042-0.084,0.082-0.125,0.125c-0.042,0.042-0.084,0.082-0.125,0.125
			c-0.042,0.042-0.084,0.082-0.125,0.125c-0.042,0.042-0.084,0.082-0.125,0.125c-0.042,0.042-0.084,0.082-0.125,0.125
			c-0.042,0.042-0.084,0.082-0.125,0.125c-0.042,0.042-0.084,0.082-0.125,0.125c-0.042,0.042-0.084,0.082-0.125,0.125
			c-0.042,0.042-0.084,0.082-0.125,0.125c-0.042,0.042-0.084,0.082-0.125,0.125c-0.042,0.042-0.084,0.082-0.125,0.125
			c-0.042,0.042-0.084,0.082-0.125,0.125c-0.042,0.042-0.084,0.082-0.125,0.125c-0.042,0.042-0.084,0.082-0.125,0.125
			c-0.042,0.042-0.084,0.083-0.125,0.125c-0.042,0.042-0.084,0.083-0.125,0.125c-0.042,0.042-0.084,0.083-0.125,0.125
			c-0.042,0.042-0.084,0.083-0.125,0.125c-0.042,0.042-0.084,0.083-0.125,0.125c-0.042,0.042-0.084,0.083-0.125,0.125
			c-0.042,0.042-0.084,0.083-0.125,0.125c-0.042,0.042-0.084,0.083-0.125,0.125c-0.042,0.042-0.084,0.083-0.125,0.125
			c-0.042,0.042-0.084,0.083-0.125,0.125c-0.042,0.042-0.084,0.083-0.125,0.125c-0.042,0.042-0.084,0.083-0.125,0.125
			c-0.042,0.042-0.084,0.083-0.125,0.125c-0.042,0.042-0.084,0.083-0.125,0.125c-0.042,0.042-0.084,0.083-0.125,0.125
			c-0.042,0.042-0.084,0.083-0.125,0.125c-0.042,0.042-0.084,0.083-0.125,0.125c-0.042,0.042-0.084,0.083-0.125,0.125
			c-0.042,0.042-0.084,0.083-0.125,0.125c-0.042,0.042-0.084,0.083-0.125,0.125c-0.042,0.042-0.084,0.083-0.125,0.125
			c-0.042,0.042-0.084,0.083-0.125,0.125c-0.042,0.042-0.084,0.083-0.125,0.125c-0.042,0.042-0.084,0.083-0.125,0.125
			c-0.042,0.042-0.084,0.083-0.125,0.125c-0.042,0.042-0.084,0.083-0.125,0.125c-0.042,0.042-0.084,0.083-0.125,0.125
			c-0.042,0.042-0.084,0.083-0.125,0.125c-0.042,0.042-0.084,0.083-0.125,0.125c-0.042,0.042-0.084,0.083-0.125,0.125
			c-0.042,0.042-0.084,0.083-0.125,0.125c-0.042,0.042-0.084,0.083-0.125,0.125c-0.042,0.042-0.084,0.083-0.125,0.125
			c-0.042,0.042-0.084,0.083-0.125,0.125c-0.042,0.042-0.084,0.083-0.125,0.125c-0.042,0.042-0.084,0.083-0.125,0.125
			c-0.042,0.042-0.084,0.083-0.125,0.125c-0.042,0.042-0.084,0.083-0.125,0.125c-0.042,0.042-0.084,0.083-0.125,0.125
			c-0.042,0.042-0.084,0.083-0.125,0.125c-0.042,0.042-0.084,0.083-0.125,0.125c-0.042,0.042-0.084,0.083-0.125,0.125
			c-0.042,0.042-0.084,0.083-0.125,0.125c-0.042,0.042-0.084,0.083-0.125,0.125c-0.042,0.042-0.084,0.083-0.125,0.125
			c-0.042,0.042-0.084,0.083-0.125,0.125c-0.042,0.042-0.084,0.083-0.125,0.125c-0.042,0.042-0.084,0.083-0.125,0.125
			c-0.042,0.042-0.084,0.083-0.125,0.125c-0.042,0.042-0.084,0.083-0.125,0.125c-0.042,0.042-0.084,0.083-0.125,0.125
			c-0.042,0.042-0.084,0.083-0.125,0.125c-0.042,0.042-0.084,0.083-0.125,0.125c-0.042,0.042-0.084,0.083-0.125,0.125
			c-0.042,0.042-0.084,0.083-0.125,0.125c-0.042,0.042-0.084,0.083-0.125,0.125c-0.042,0.042-0.084,0.083-0.125,0.125
			c-0.042,0.042-0.084,0.083-0.125,0.125c-0.042,0.042-0.084,0.083-0.125,0.125c-0.042,0.042-0.084,0.083-0.125,0.125
			c-0.042,0.042-0.084,0.083-0.125,0.125c-0.042,0.042-0.084,0.083-0.125,0.125c-0.042,0.042-0.084,0.083-0.125,0.125
			c-0.042,0.042-0.084,0.083-0.125,0.125c-0.042,0.042-0.084,0.083-0.125,0.125c-0.042,0.042-0.084,0.083-0.125,0.125
			c-0.042,0.042-0.084,0.083-0.125,0.125c-0.042,0.042-0.084,0.083-0.125,0.125c-0.042,0.042-0.084,0.083-0.125,0.125
			c-0.042,0.042-0.084,0.083-0.125,0.125c-0.042,0.042-0.084,0.083-0.125,0.125c-0.042,0.042-0.084,0.083-0.125,0.125
			c-0.042,0.042-0.084,0.083-0.125,0.125c-0.042,0.042-0.084,0.083-0.125,0.125c-0.042,0.042-0.084,0.083-0.125,0.125
			c-0.042,0.042-0.084,0.083-0.125,0.125c-0.042,0.042-0.084,0.083-0.125,0.125c-0.042,0.042-0.084,0.083-0.125,0.125
			c-0.042,0.042-0.084,0.083-0.125,0.125c-0.042,0.042-0.084,0.083-0.125,0.125c-0.042,0.042-0.084,0.083-0.125,0.125
			c-0.042,0.042-0.084,0.083-0.125,0.125c-0.042,0.042-0.084,0.083-0.125,0.125c-0.042,0.042-0.084,0.083-0.125,0.125
			c-0.042,0.042-0.084,0.083-0.125,0.125c-0.042,0.042-0.084,0.083-0.125,0.125c-0.042,0.042-0.084,0.083-0.125,0.125
			c-0.042,0.042-0.084,0.083-0.125,0.125c-0.042,0.042-0.084,0.083-0.125,0.125c-0.042,0.042-0.084,0.083-0.125,0.125
			c-0.042,0.042-0.084,0.083-0.125,0.125c-0.042,0.042-0.084,0.083-0.125,0.125C-28.31,77.57-29,79.122-29,80.826v46.348
			c0,3.324,2.615,5.826,5.94,5.826H36v-1h1v-1h1v-1h1v-1h1v4h23.415c1.694,0,3.239-0.592,4.351-1.732
			c0.043-0.041,0.084-0.021,0.125-0.063c0.043-0.041,0.084-0.052,0.125-0.095c0.043-0.041,0.084-0.066,0.125-0.108
			c0.043-0.041,0.084-0.075,0.125-0.117c0.043-0.041,0.084-0.079,0.125-0.12c0.043-0.041,0.084-0.082,0.125-0.123
			c0.043-0.041,0.084-0.082,0.125-0.125c0.043-0.041,0.084-0.082,0.125-0.125c0.043-0.041,0.084-0.082,0.125-0.123
			c0.043-0.041,0.084-0.084,0.125-0.125c0.043-0.041,0.084-0.084,0.125-0.125c0.043-0.041,0.084-0.084,0.125-0.125
			c0.043-0.041,0.084-0.084,0.125-0.125c0.043-0.041,0.084-0.084,0.125-0.125c0.043-0.041,0.084-0.084,0.125-0.125
			c0.043-0.041,0.084-0.084,0.125-0.125c0.043-0.041,0.084-0.084,0.125-0.125c0.043-0.041,0.084-0.084,0.125-0.125
			c0.043-0.041,0.084-0.084,0.125-0.125c0.043-0.041,0.084-0.084,0.125-0.125c0.043-0.041,0.084-0.084,0.125-0.125
			c0.043-0.041,0.084-0.084,0.125-0.125c0.043-0.041,0.084-0.084,0.125-0.125c0.043-0.041,0.084-0.084,0.125-0.125
			c0.043-0.041,0.084-0.084,0.125-0.125c0.043-0.041,0.084-0.084,0.125-0.125c0.043-0.041,0.084-0.084,0.125-0.125
			c0.043-0.041,0.084-0.084,0.125-0.125c0.043-0.041,0.084-0.084,0.125-0.125c0.043-0.041,0.084-0.084,0.125-0.125
			c0.043-0.041,0.084-0.084,0.125-0.125c0.043-0.041,0.084-0.084,0.125-0.125c0.043-0.041,0.084-0.084,0.125-0.125
			c0.043-0.041,0.084-0.084,0.125-0.125c0.043-0.041,0.084-0.084,0.125-0.125c0.043-0.041,0.084-0.084,0.125-0.125
			c0.043-0.041,0.084-0.084,0.125-0.125c0.043-0.041,0.084-0.084,0.125-0.125c0.043-0.041,0.084-0.084,0.125-0.125
			c0.043-0.041,0.084-0.084,0.125-0.125c0.043-0.041,0.084-0.084,0.125-0.125c0.043-0.041,0.084-0.084,0.125-0.125
			c0.043-0.041,0.084-0.084,0.125-0.125c0.043-0.041,0.084-0.084,0.125-0.125c0.043-0.041,0.084-0.084,0.125-0.125
			c0.043-0.041,0.084-0.084,0.125-0.125c0.043-0.041,0.084-0.084,0.125-0.125c0.043-0.041,0.084-0.084,0.125-0.125
			c0.043-0.041,0.084-0.084,0.125-0.125c0.043-0.041,0.084-0.084,0.125-0.125c0.043-0.041,0.084-0.084,0.125-0.125
			c0.043-0.041,0.084-0.084,0.125-0.125c0.043-0.041,0.084-0.084,0.125-0.125c0.043-0.041,0.084-0.084,0.125-0.125
			c0.043-0.041,0.084-0.084,0.125-0.125c0.043-0.041,0.084-0.084,0.125-0.125c0.043-0.041,0.084-0.084,0.125-0.125
			c0.043-0.041,0.084-0.084,0.125-0.125c0.043-0.041,0.084-0.084,0.125-0.125c0.043-0.041,0.084-0.084,0.125-0.125
			c0.043-0.041,0.084-0.084,0.125-0.125c0.043-0.041,0.084-0.084,0.125-0.125c0.043-0.041,0.084-0.084,0.125-0.125
			c0.043-0.041,0.084-0.084,0.125-0.125c0.043-0.041,0.084-0.084,0.125-0.125c0.043-0.041,0.084-0.084,0.125-0.125
			c0.043-0.041,0.084-0.084,0.125-0.125c0.043-0.041,0.084-0.084,0.125-0.125c0.043-0.041,0.084-0.084,0.125-0.125
			c0.043-0.041,0.084-0.084,0.125-0.125c0.043-0.041,0.084-0.084,0.125-0.125c0.043-0.041,0.084-0.084,0.125-0.125
			c0.043-0.041,0.084-0.084,0.125-0.125c0.043-0.041,0.084-0.084,0.125-0.125c0.043-0.041,0.084-0.084,0.125-0.125
			c0.043-0.041,0.084-0.084,0.125-0.125c0.043-0.041,0.084-0.084,0.125-0.125c0.043-0.041,0.084-0.084,0.125-0.125
			c0.043-0.041,0.084-0.084,0.125-0.125c0.043-0.041,0.084-0.084,0.125-0.125c0.043-0.041,0.084-0.084,0.125-0.125
			c0.043-0.041,0.084-0.084,0.125-0.125c0.043-0.041,0.084-0.084,0.125-0.125c0.043-0.041,0.084-0.084,0.125-0.125
			c0.043-0.041,0.084-0.084,0.125-0.125c0.043-0.041,0.084-0.084,0.125-0.125c0.043-0.041,0.084-0.084,0.125-0.125
			c0.043-0.041,0.084-0.084,0.125-0.125c0.043-0.041,0.084-0.084,0.125-0.125c0.043-0.041,0.084-0.084,0.125-0.125
			c0.043-0.041,0.084-0.084,0.125-0.125c0.043-0.041,0.084-0.084,0.125-0.125c0.043-0.041,0.084-0.084,0.125-0.125
			c0.043-0.041,0.084-0.084,0.125-0.125c0.043-0.041,0.084-0.084,0.125-0.125c0.043-0.041,0.084-0.084,0.125-0.125
			c0.043-0.041,0.084-0.084,0.125-0.125c0.043-0.041,0.084-0.084,0.125-0.125c0.043-0.041,0.084-0.084,0.125-0.125
			c0.043-0.041,0.084-0.084,0.125-0.125c0.043-0.041,0.084-0.084,0.125-0.125c0.043-0.041,0.084-0.084,0.125-0.125
			c0.043-0.041,0.084-0.084,0.125-0.125c0.043-0.041,0.084-0.084,0.125-0.125c0.043-0.041,0.084-0.084,0.125-0.125
			c0.043-0.041,0.084-0.084,0.125-0.125c0.043-0.041,0.084-0.084,0.125-0.125c0.043-0.041,0.084-0.084,0.125-0.125
			c0.043-0.041,0.084-0.084,0.125-0.125c0.043-0.041,0.084-0.084,0.125-0.125c0.043-0.041,0.084-0.084,0.125-0.125
			c0.043-0.041,0.084-0.084,0.125-0.125c0.043-0.041,0.084-0.084,0.125-0.125c0.043-0.041,0.084-0.084,0.125-0.125
			c0.043-0.041,0.084-0.084,0.125-0.125c0.043-0.041,0.084-0.084,0.125-0.125c0.008-0.009-0.002-0.017,0-0.022
			c0.129-0.113,0.256-0.229,0.375-0.353c0.043-0.041,0.084-0.084,0.125-0.125c0.043-0.041,0.084-0.084,0.125-0.125
			c0.043-0.041,0.084-0.084,0.125-0.125c0.043-0.041,0.084-0.084,0.125-0.125c0.043-0.041,0.084-0.084,0.125-0.125
			c0.043-0.041,0.084-0.084,0.125-0.125c0.043-0.041,0.084-0.084,0.125-0.125c0.043-0.041,0.084-0.084,0.125-0.125
			c0.043-0.041,0.084-0.084,0.125-0.125c0.043-0.041,0.084-0.084,0.125-0.125c0.043-0.041,0.084-0.084,0.125-0.125
			c0.043-0.041,0.084-0.084,0.125-0.125c0.043-0.041,0.084-0.084,0.125-0.125c0.043-0.041,0.084-0.084,0.125-0.125
			c0.043-0.041,0.084-0.084,0.125-0.125c0.043-0.041,0.084-0.084,0.125-0.125c0.043-0.041,0.084-0.084,0.125-0.125
			c0.043-0.041,0.084-0.084,0.125-0.125c0.043-0.041,0.084-0.084,0.125-0.125c0.043-0.041,0.084-0.084,0.125-0.125
			c0.043-0.041,0.084-0.084,0.125-0.125c0.043-0.041,0.084-0.084,0.125-0.125c0.043-0.041,0.084-0.084,0.125-0.125
			c0.043-0.041,0.084-0.084,0.125-0.125c0.043-0.041,0.084-0.084,0.125-0.125c0.043-0.041,0.084-0.084,0.125-0.125
			c0.043-0.041,0.084-0.084,0.125-0.125c0.043-0.041,0.084-0.084,0.125-0.125c0.043-0.041,0.084-0.084,0.125-0.125
			c0.043-0.041,0.084-0.084,0.125-0.125c0.043-0.041,0.084-0.084,0.125-0.125c0.043-0.041,0.084-0.084,0.125-0.125
			c0.043-0.041,0.084-0.084,0.125-0.125c0.043-0.041,0.084-0.084,0.125-0.125c0.043-0.041,0.084-0.084,0.125-0.125
			c0.043-0.041,0.084-0.084,0.125-0.125c0.043-0.041,0.084-0.084,0.125-0.125c0.043-0.041,0.084-0.084,0.125-0.125
			c0.043-0.041,0.084-0.084,0.125-0.125c0.043-0.041,0.084-0.084,0.125-0.125c0.043-0.041,0.084-0.084,0.125-0.125
			c0.043-0.041,0.084-0.084,0.125-0.125c0.043-0.041,0.084-0.084,0.125-0.125c0.043-0.041,0.084-0.084,0.125-0.125
			c0.043-0.041,0.084-0.084,0.125-0.125c0.043-0.041,0.084-0.084,0.125-0.125c0.043-0.041,0.084-0.084,0.125-0.125
			c0.043-0.041,0.084-0.084,0.125-0.125c0.043-0.041,0.084-0.084,0.125-0.125c0.043-0.041,0.084-0.084,0.125-0.125
			c0.043-0.041,0.084-0.084,0.125-0.125c0.043-0.041,0.084-0.084,0.125-0.125c0.043-0.041,0.084-0.084,0.125-0.125
			c0.043-0.041,0.084-0.084,0.125-0.125c0.043-0.041,0.084-0.084,0.125-0.125c0.043-0.041,0.084-0.084,0.125-0.125
			c0.043-0.041,0.084-0.084,0.125-0.125c0.043-0.041,0.084-0.084,0.125-0.125c0.043-0.041,0.084-0.084,0.125-0.125
			c0.043-0.041,0.084-0.084,0.125-0.125c0.043-0.041,0.084-0.084,0.125-0.125c0.043-0.041,0.084-0.084,0.125-0.125
			c0.043-0.041,0.084-0.084,0.125-0.125c0.043-0.041,0.084-0.084,0.125-0.125c0.043-0.041,0.084-0.084,0.125-0.125
			c0.043-0.041,0.084-0.084,0.125-0.125c0.043-0.041,0.084-0.084,0.125-0.125c0.043-0.041,0.084-0.084,0.125-0.125
			c0.043-0.041,0.084-0.084,0.125-0.125c0.043-0.041,0.084-0.084,0.125-0.125c0.043-0.041,0.084-0.084,0.125-0.125
			c0.043-0.041,0.084-0.084,0.125-0.125c0.043-0.041,0.084-0.084,0.125-0.125c0.043-0.041,0.084-0.084,0.125-0.125
			c0.043-0.041,0.084-0.084,0.125-0.125c0.043-0.041,0.084-0.084,0.125-0.125c0.043-0.041,0.084-0.084,0.125-0.125
			c0.043-0.041,0.084-0.084,0.125-0.125c0.043-0.041,0.084-0.084,0.125-0.125c0.043-0.041,0.084-0.084,0.125-0.125
			c0.043-0.041,0.084-0.084,0.125-0.125c0.043-0.041,0.084-0.084,0.125-0.125c0.043-0.041,0.084-0.084,0.125-0.125
			c0.043-0.041,0.084-0.084,0.125-0.125c0.043-0.041,0.084-0.084,0.125-0.125c0.043-0.041,0.084-0.084,0.125-0.125
			c0.043-0.041,0.084-0.084,0.125-0.125c0.043-0.041,0.084-0.084,0.125-0.125c0.043-0.041,0.084-0.084,0.125-0.125
			c0.043-0.041,0.084-0.084,0.125-0.125c0.043-0.041,0.084-0.084,0.125-0.125c0.043-0.041,0.084-0.084,0.125-0.125
			c0.043-0.041,0.084-0.084,0.125-0.125c0.043-0.041,0.084-0.084,0.125-0.125c0.043-0.041,0.084-0.084,0.125-0.125
			c0.043-0.041,0.084-0.084,0.125-0.125c0.043-0.041,0.084-0.084,0.125-0.125c0.043-0.041,0.084-0.084,0.125-0.125
			c0.043-0.041,0.084-0.084,0.125-0.125c0.043-0.041,0.084-0.084,0.125-0.125c0.043-0.041,0.084-0.084,0.125-0.125
			c0.043-0.041,0.084-0.084,0.125-0.125c0.043-0.041,0.084-0.084,0.125-0.125c0.043-0.041,0.084-0.084,0.125-0.125
			c0.043-0.041,0.084-0.084,0.125-0.125c0.043-0.041,0.084-0.084,0.125-0.125c0.043-0.041,0.084-0.084,0.125-0.125
			c0.043-0.041,0.084-0.084,0.125-0.125c0.043-0.041,0.084-0.084,0.125-0.125c0.043-0.041,0.084-0.084,0.125-0.125
			c0.043-0.041,0.084-0.084,0.125-0.125c0.043-0.041,0.084-0.084,0.125-0.125c0.043-0.041,0.084-0.084,0.125-0.125
			c0.043-0.041,0.084-0.084,0.125-0.125c0.043-0.041,0.084-0.084,0.125-0.125c0.043-0.041,0.084-0.084,0.125-0.125
			c0.043-0.041,0.084-0.084,0.125-0.125c0.043-0.041,0.084-0.084,0.125-0.125c0.043-0.041,0.084-0.084,0.125-0.125
			c0.043-0.041,0.084-0.084,0.125-0.125c0.043-0.041,0.084-0.084,0.125-0.125c0.043-0.041,0.084-0.084,0.125-0.125
			c0.043-0.041,0.084-0.084,0.125-0.125c0.043-0.041,0.084-0.084,0.125-0.125c0.043-0.041,0.084-0.084,0.125-0.125
			c0.043-0.041,0.084-0.084,0.125-0.125c0.043-0.041,0.084-0.084,0.125-0.125c0.043-0.041,0.084-0.084,0.125-0.125
			c0.043-0.041,0.084-0.084,0.125-0.125c0.043-0.041,0.084-0.084,0.125-0.125c0.043-0.041,0.084-0.084,0.125-0.125
			c0.043-0.041,0.084-0.084,0.125-0.125c0.043-0.041,0.084-0.084,0.125-0.125c0.043-0.041,0.084-0.084,0.125-0.125
			c0.043-0.041,0.084-0.084,0.125-0.125c0.043-0.041,0.084-0.084,0.125-0.125c0.043-0.041,0.084-0.084,0.125-0.125
			c0.043-0.041,0.084-0.084,0.125-0.125c0.043-0.041,0.084-0.084,0.125-0.125c0.043-0.041,0.084-0.084,0.125-0.125
			c0.043-0.041,0.084-0.084,0.125-0.125c0.043-0.041,0.084-0.084,0.125-0.125c0.043-0.041,0.084-0.084,0.125-0.125
			c0.043-0.041,0.084-0.084,0.125-0.125c0.043-0.041,0.084-0.084,0.125-0.125c0.043-0.041,0.084-0.084,0.125-0.125
			c0.043-0.041,0.084-0.084,0.125-0.125c0.043-0.041,0.084-0.084,0.125-0.125c0.043-0.041,0.084-0.084,0.125-0.125
			c0.043-0.041,0.084-0.084,0.125-0.125c0.043-0.041,0.084-0.084,0.125-0.125c0.043-0.041,0.084-0.084,0.125-0.125
			c0.043-0.041,0.084-0.084,0.125-0.125c0.043-0.041,0.084-0.084,0.125-0.125c0.043-0.041,0.084-0.084,0.125-0.125
			c0.043-0.041,0.084-0.084,0.125-0.125c0.043-0.041,0.084-0.084,0.125-0.125c0.043-0.041,0.084-0.084,0.125-0.125
			c0.043-0.041,0.084-0.084,0.125-0.125c0.043-0.041,0.084-0.084,0.125-0.125c0.043-0.041,0.084-0.084,0.125-0.125
			c0.043-0.041,0.084-0.084,0.125-0.125c0.043-0.041,0.084-0.084,0.125-0.125c0.043-0.041,0.084-0.084,0.125-0.125
			c0.043-0.041,0.084-0.084,0.125-0.125c0.043-0.041,0.084-0.084,0.125-0.125c0.043-0.041,0.084-0.084,0.125-0.125
			c0.043-0.041,0.084-0.084,0.125-0.125c0.043-0.041,0.084-0.084,0.125-0.125c0.043-0.041,0.084-0.084,0.125-0.125
			c0.043-0.041,0.084-0.084,0.125-0.125c0.043-0.041,0.084-0.084,0.125-0.125c0.043-0.041,0.084-0.084,0.125-0.125
			c0.043-0.041,0.084-0.084,0.125-0.125c0.043-0.041,0.084-0.084,0.125-0.125c0.043-0.041,0.084-0.084,0.125-0.125
			c0.043-0.041,0.084-0.084,0.125-0.125c0.043-0.041,0.084-0.084,0.125-0.125c0.043-0.041,0.084-0.084,0.125-0.125
			c0.043-0.041,0.084-0.084,0.125-0.125c0.043-0.041,0.084-0.084,0.125-0.125c0.043-0.041,0.084-0.084,0.125-0.125
			c0.043-0.041,0.084-0.084,0.125-0.125c0.043-0.041,0.084-0.084,0.125-0.125c0.043-0.041,0.084-0.084,0.125-0.125
			c0.043-0.041,0.084-0.084,0.125-0.125c0.043-0.041,0.084-0.084,0.125-0.125c0.043-0.041,0.084-0.084,0.125-0.125
			c0.043-0.041,0.084-0.084,0.125-0.125c0.043-0.041,0.084-0.084,0.125-0.125c0.043-0.041,0.084-0.084,0.125-0.125
			c0.043-0.041,0.084-0.084,0.125-0.125c0.043-0.041,0.084-0.084,0.125-0.125c0.043-0.041,0.084-0.084,0.125-0.125
			c0.043-0.041,0.084-0.084,0.125-0.125c0.043-0.041,0.084-0.084,0.125-0.125c0.043-0.041,0.084-0.084,0.125-0.125
			c0.043-0.041,0.084-0.084,0.125-0.125c0.043-0.041,0.084-0.084,0.125-0.125c0.043-0.041,0.084-0.084,0.125-0.125
			c0.043-0.041,0.084-0.084,0.125-0.125c0.043-0.041,0.084-0.084,0.125-0.125c0.043-0.041,0.084-0.084,0.125-0.125
			c0.043-0.041,0.084-0.084,0.125-0.125c0.043-0.041,0.084-0.084,0.125-0.125c0.043-0.041,0.084-0.084,0.125-0.125
			c0.043-0.041,0.084-0.084,0.125-0.125c0.043-0.041,0.084-0.084,0.125-0.125c0.043-0.041,0.084-0.084,0.125-0.125
			c0.043-0.041,0.084-0.084,0.125-0.125c0.043-0.041,0.084-0.084,0.125-0.125c0.043-0.041,0.084-0.084,0.125-0.125
			c0.043-0.041,0.084-0.084,0.125-0.125c0.043-0.041,0.084-0.084,0.125-0.125c0.043-0.041,0.084-0.084,0.125-0.125
			c0.043-0.041,0.084-0.084,0.125-0.125c0.043-0.041,0.084-0.084,0.125-0.125c0.043-0.041,0.084-0.084,0.125-0.125
			c0.043-0.041,0.084-0.084,0.125-0.125c0.043-0.041,0.084-0.084,0.125-0.125c0.043-0.041,0.084-0.084,0.125-0.125
			c0.043-0.041,0.084-0.084,0.125-0.125c0.043-0.041,0.084-0.084,0.125-0.125c0.043-0.041,0.084-0.084,0.125-0.125
			c0.043-0.041,0.084-0.084,0.125-0.125c0.043-0.041,0.084-0.084,0.125-0.125c0.043-0.041,0.084-0.084,0.125-0.125
			c0.043-0.041,0.084-0.084,0.125-0.125c0.043-0.041,0.084-0.084,0.125-0.125c0.043-0.041-0.041-0.084,0-0.125
			c1.142-1.108,1.734-2.65,1.734-4.344V37.076z"/>
	</g>
</g>
<g>
	<path fill="#FFFFFF" d="M15,37.076v46.348C15,86.748,17.365,90,20.689,90H79V31H20.689C17.365,31,15,33.752,15,37.076z M22,43.431
		C22,40.11,24.394,38,27.713,38h38.723C69.754,38,72,40.11,72,43.431v33.708C72,80.456,69.754,83,66.436,83H27.713
		C24.394,83,22,80.456,22,77.139V43.431z"/>
	<path fill="#FFFFFF" d="M107.165,31H84v59h23.165c3.323,0,5.835-3.252,5.835-6.576V37.076C113,33.752,110.488,31,107.165,31z
		 M108,85H90v-3h18V85z M108,77H90v-3h18V77z M108,71H90v-3h18V71z M89.709,60.284c0-1.663,1.35-3.01,3.01-3.01
		c1.661,0,3.01,1.347,3.01,3.01c0,1.661-1.349,3.01-3.01,3.01C91.059,63.294,89.709,61.945,89.709,60.284z M104.557,63.294
		c-1.66,0-3.01-1.349-3.01-3.01c0-1.663,1.35-3.01,3.01-3.01c1.661,0,3.01,1.347,3.01,3.01
		C107.566,61.945,106.218,63.294,104.557,63.294z M108,53H90v-3h18V53z M108,46H90v-3h18V46z M108,39H90v-3h18V39z"/>
	<path fill="#FFFFFF" d="M27.713,80h38.723C68.098,80,69,78.799,69,77.139V43.431C69,41.768,68.098,40,66.436,40H27.713
		C26.051,40,25,41.768,25,43.431v33.708C25,78.799,26.051,80,27.713,80z"/>
</g>
</svg>
