<?xml version="1.0" encoding="utf-8"?>
<!-- Generator: Adobe Illustrator 16.0.3, SVG Export Plug-In . SVG Version: 6.00 Build 0)  -->
<!DOCTYPE svg PUBLIC "-//W3C//DTD SVG 1.1//EN" "http://www.w3.org/Graphics/SVG/1.1/DTD/svg11.dtd">
<svg version="1.1" id="Layer_1" xmlns="http://www.w3.org/2000/svg" xmlns:xlink="http://www.w3.org/1999/xlink" x="0px" y="0px"
	 width="128px" height="128px" viewBox="0 0 128 128" enable-background="new 0 0 128 128" xml:space="preserve">
<path fill="#444953" class="bg" d="M128,25c0-13.807-11.193-25-25-25H25C11.194,0,0,11.193,0,25v78c0,13.807,11.194,25,25,25h78
	c13.807,0,25-11.193,25-25V25z"/>
<g>
	<g>
		<g>
			<defs>
				<path id="SVGID_1_" d="M128,25c0-13.807-11.193-25-25-25H25C11.194,0,0,11.193,0,25v78c0,13.807,11.194,25,25,25h78
					c13.807,0,25-11.193,25-25V25z"/>
			</defs>
			<clipPath id="SVGID_2_">
				<use xlink:href="#SVGID_1_"  overflow="visible"/>
			</clipPath>
			<polygon clip-path="url(#SVGID_2_)" fill="#353A42" class="shadow" points="101,36 101,23 29,23 -1,53 -1,54 -2,54 -2,55 -3,55 -3,56 -4,56
				-4,57 -5,57 -5,58 -6,58 -6,59 -7,59 -7,60 -8,60 -8,61 -9,61 -9,62 -10,62 -10,63 -11,63 -11,64 -12,64 -12,65 -13,65 -13,66 
				-14,66 -14,67 -15,67 -15,68 -16,68 -16,69 -17,69 -17,70 -18,70 -18,71 -19,71 -19,72 -20,72 -20,73 -21,73 -21,74 -22,74 
				-22,75 -23,75 -23,76 -24,76 -24,77 -25,77 -25,78 -26,78 -26,79 -27,79 -27,80 -28,80 -28,81 -29,81 -29,82 -30,82 -30,83 
				-31,83 -31,84 -32,84 -32,85 -33,85 -33,86 -34,86 -34,87 -35,87 -35,88 -36,88 -36,89 -37,89 -37,90 -38,90 -38,91 -39,91 
				-39,92 -40,92 -40,93 -41,93 -41,94 -42,94 -42,95 -43,95 -43,96 -44,96 -44,97 -45,97 -45,98 -46,98 -46,99 -47,99 -47,100 
				-48,100 -48,101 -49,101 -49,102 -50,102 -50,103 -51,103 -51,104 -52,104 -52,105 -53,105 -53,106 -54,106 -54,107 -55,107 
				-55,108 -56,108 -56,109 -57,109 -57,110 -58,110 -58,111 -59,111 -59,112 -60,112 -60,113 -61,113 -61,114 -62,114 -62,115 
				-63,115 -63,116 -64,116 -64,117 -65,117 -65,118 -66,118 -66,131 -47,131 -47,142 -16,142 -16,143 56,143 56,142 57,142 57,141 
				58,141 58,140 59,140 59,139 60,139 60,138 61,138 61,137 62,137 62,136 63,136 63,135 64,135 64,134 65,134 65,133 66,133 
				66,132 67,132 67,131 68,131 68,130 69,130 69,129 70,129 70,128 71,128 101,98 101,83 84,83 101,66 101,53 84,53 			"/>
		</g>
	</g>
</g>
<rect x="29" y="23" fill="#FFFFFF" width="72" height="13"/>
<rect x="29" y="83" fill="#FFFFFF" width="72" height="15"/>
<rect x="29" y="53" fill="#FFFFFF" width="72" height="13"/>
</svg>
