<?xml version="1.0" encoding="utf-8"?>
<!-- Generator: Adobe Illustrator 16.0.3, SVG Export Plug-In . SVG Version: 6.00 Build 0)  -->
<!DOCTYPE svg PUBLIC "-//W3C//DTD SVG 1.1//EN" "http://www.w3.org/Graphics/SVG/1.1/DTD/svg11.dtd">
<svg version="1.1" id="Layer_1" xmlns="http://www.w3.org/2000/svg" xmlns:xlink="http://www.w3.org/1999/xlink" x="0px" y="0px"
	 width="128px" height="128px" viewBox="0 0 128 128" enable-background="new 0 0 128 128" xml:space="preserve">
<path fill="#444953" d="M128,25c0-13.807-11.182-25-24.99-25H25.002C11.193,0,0,11.193,0,25v78c0,13.807,11.193,25,25.002,25h78.008
	c13.809,0,24.99-11.193,24.99-25V25z"/>
<g>
	<defs>
		<path id="SVGID_1_" d="M128,25c0-13.807-11.182-25-24.99-25H25.002C11.193,0,0,11.193,0,25v78c0,13.807,11.193,25,25.002,25
			h78.008c13.809,0,24.99-11.193,24.99-25V25z"/>
	</defs>
	<clipPath id="SVGID_2_">
		<use xlink:href="#SVGID_1_"  overflow="visible"/>
	</clipPath>
	<path clip-path="url(#SVGID_2_)" fill="#353A42" d="M101.743,59.375c0-20.711-16.791-37.5-37.503-37.5
		c-0.105,0-0.209,0.003-0.313,0.004c-0.104-0.001-0.208-0.004-0.313-0.004c-10.388,0-19.788,4.225-26.58,11.047
		c-0.042,0.042-0.083,0.083-0.125,0.125s-0.083,0.083-0.125,0.125s-0.083,0.083-0.125,0.125s-0.083,0.083-0.125,0.125
		s-0.083,0.083-0.125,0.125s-0.083,0.083-0.125,0.125s-0.083,0.083-0.125,0.125s-0.083,0.083-0.125,0.125s-0.083,0.083-0.125,0.125
		s-0.083,0.083-0.125,0.125s-0.083,0.083-0.125,0.125s-0.083,0.083-0.125,0.125s-0.083,0.083-0.125,0.125s-0.083,0.083-0.125,0.125
		s-0.083,0.083-0.125,0.125s-0.083,0.083-0.125,0.125s-0.083,0.083-0.125,0.125s-0.083,0.083-0.125,0.125s-0.083,0.083-0.125,0.125
		s-0.083,0.083-0.125,0.125s-0.083,0.083-0.125,0.125s-0.083,0.083-0.125,0.125s-0.083,0.083-0.125,0.125
		c-0.04,0.04-0.08,0.08-0.12,0.12c-0.043,0.043-0.087,0.086-0.13,0.13c-0.042,0.042-0.083,0.083-0.125,0.125
		c-0.042,0.042-0.083,0.083-0.125,0.125c-0.042,0.042-0.083,0.083-0.125,0.125c-0.042,0.042-0.083,0.083-0.125,0.125
		c-0.042,0.042-0.083,0.083-0.125,0.125c-0.042,0.042-0.083,0.083-0.125,0.125c-0.042,0.042-0.083,0.083-0.125,0.125
		c-0.042,0.042-0.083,0.083-0.125,0.125c-0.042,0.042-0.083,0.083-0.125,0.125c-0.041,0.041-0.081,0.081-0.121,0.122
		c-0.043,0.042-0.086,0.085-0.129,0.128c-0.042,0.042-0.083,0.083-0.125,0.125s-0.083,0.083-0.124,0.124
		c-0.042,0.042-0.084,0.084-0.126,0.126c-0.042,0.042-0.083,0.083-0.125,0.125s-0.083,0.083-0.125,0.125s-0.083,0.083-0.125,0.125
		s-0.083,0.083-0.125,0.125s-0.083,0.083-0.125,0.125s-0.083,0.083-0.125,0.125s-0.083,0.083-0.125,0.125s-0.083,0.083-0.125,0.125
		s-0.083,0.083-0.125,0.125s-0.083,0.083-0.125,0.125s-0.083,0.083-0.125,0.125s-0.083,0.083-0.125,0.125s-0.083,0.083-0.125,0.125
		s-0.083,0.083-0.125,0.125s-0.083,0.083-0.125,0.125s-0.083,0.083-0.125,0.125s-0.083,0.083-0.125,0.125s-0.083,0.083-0.125,0.125
		s-0.083,0.083-0.125,0.125s-0.083,0.083-0.125,0.125s-0.083,0.083-0.125,0.125s-0.083,0.083-0.125,0.125s-0.083,0.083-0.125,0.125
		s-0.083,0.083-0.125,0.125s-0.083,0.083-0.125,0.125s-0.083,0.083-0.125,0.125c-0.04,0.04-0.08,0.08-0.12,0.12
		c-0.043,0.043-0.087,0.086-0.13,0.13c-0.042,0.042-0.083,0.083-0.125,0.125c-0.042,0.042-0.083,0.083-0.125,0.125
		c-0.042,0.042-0.083,0.083-0.125,0.125c-0.042,0.042-0.083,0.083-0.125,0.125c-0.042,0.042-0.083,0.083-0.125,0.125
		c-0.042,0.042-0.083,0.083-0.125,0.125c-0.042,0.042-0.083,0.083-0.125,0.125c-0.042,0.042-0.083,0.083-0.125,0.125
		c-0.042,0.042-0.083,0.083-0.125,0.125c-0.041,0.041-0.081,0.081-0.121,0.122c-0.043,0.042-0.086,0.085-0.129,0.128
		c-0.042,0.042-0.083,0.083-0.125,0.125s-0.083,0.083-0.125,0.125s-0.083,0.083-0.125,0.125s-0.083,0.083-0.125,0.125
		s-0.083,0.083-0.125,0.125s-0.083,0.083-0.125,0.125s-0.083,0.083-0.125,0.125s-0.083,0.083-0.125,0.125s-0.083,0.083-0.125,0.125
		s-0.083,0.083-0.125,0.125s-0.083,0.083-0.125,0.125s-0.083,0.083-0.125,0.125s-0.083,0.083-0.125,0.125s-0.083,0.083-0.125,0.125
		s-0.083,0.083-0.125,0.125s-0.083,0.083-0.125,0.125s-0.083,0.083-0.125,0.125s-0.083,0.083-0.125,0.125s-0.083,0.083-0.125,0.125
		s-0.083,0.083-0.125,0.125s-0.083,0.083-0.125,0.125s-0.083,0.083-0.125,0.125s-0.083,0.083-0.125,0.125s-0.083,0.083-0.125,0.125
		s-0.083,0.083-0.125,0.125s-0.083,0.083-0.125,0.125s-0.083,0.083-0.125,0.125s-0.083,0.083-0.125,0.125s-0.083,0.083-0.125,0.125
		s-0.083,0.083-0.125,0.125s-0.083,0.083-0.125,0.125s-0.083,0.083-0.125,0.125s-0.083,0.083-0.125,0.125s-0.083,0.083-0.125,0.125
		s-0.083,0.083-0.125,0.125s-0.083,0.083-0.125,0.125s-0.083,0.083-0.125,0.125s-0.083,0.083-0.125,0.125s-0.083,0.083-0.125,0.125
		s-0.083,0.083-0.125,0.125s-0.083,0.083-0.125,0.125s-0.083,0.083-0.125,0.125s-0.083,0.083-0.125,0.125s-0.083,0.083-0.125,0.125
		s-0.083,0.083-0.125,0.125s-0.083,0.083-0.125,0.125s-0.083,0.083-0.125,0.125s-0.083,0.083-0.125,0.125s-0.083,0.083-0.125,0.125
		s-0.083,0.083-0.125,0.125s-0.083,0.083-0.125,0.125s-0.083,0.083-0.125,0.125s-0.083,0.083-0.125,0.125s-0.083,0.083-0.125,0.125
		s-0.083,0.083-0.125,0.125s-0.083,0.083-0.125,0.125s-0.083,0.083-0.125,0.125s-0.083,0.083-0.125,0.125s-0.083,0.083-0.125,0.125
		s-0.083,0.083-0.125,0.125s-0.083,0.083-0.125,0.125s-0.083,0.083-0.125,0.125s-0.083,0.083-0.125,0.125s-0.083,0.083-0.125,0.125
		s-0.083,0.083-0.125,0.125s-0.083,0.083-0.125,0.125s-0.083,0.083-0.125,0.125s-0.083,0.083-0.125,0.125s-0.083,0.083-0.125,0.125
		s-0.083,0.083-0.125,0.125s-0.083,0.083-0.125,0.125s-0.083,0.083-0.125,0.125s-0.083,0.083-0.125,0.125s-0.083,0.083-0.125,0.125
		s-0.083,0.083-0.125,0.125s-0.083,0.083-0.125,0.125s-0.083,0.083-0.125,0.125s-0.083,0.083-0.125,0.125s-0.083,0.083-0.125,0.125
		s-0.083,0.083-0.125,0.125s-0.083,0.083-0.125,0.125s-0.083,0.083-0.124,0.124c-0.042,0.042-0.084,0.084-0.126,0.126
		c-0.042,0.042-0.083,0.083-0.125,0.125s-0.083,0.083-0.125,0.125s-0.083,0.083-0.125,0.125s-0.083,0.083-0.125,0.125
		s-0.083,0.083-0.125,0.125s-0.083,0.083-0.125,0.125s-0.083,0.083-0.125,0.125s-0.083,0.083-0.125,0.125s-0.083,0.083-0.125,0.125
		s-0.083,0.083-0.125,0.125s-0.083,0.083-0.125,0.125s-0.083,0.083-0.125,0.125s-0.083,0.083-0.125,0.125s-0.083,0.083-0.125,0.125
		s-0.083,0.083-0.125,0.125s-0.083,0.083-0.125,0.125s-0.083,0.083-0.125,0.125s-0.083,0.083-0.125,0.125s-0.083,0.083-0.125,0.125
		s-0.083,0.083-0.125,0.125s-0.083,0.083-0.125,0.125s-0.083,0.083-0.125,0.125s-0.083,0.083-0.125,0.125s-0.083,0.083-0.125,0.125
		s-0.083,0.083-0.125,0.125s-0.083,0.083-0.125,0.125c-0.04,0.04-0.08,0.08-0.12,0.12c-0.043,0.043-0.087,0.086-0.13,0.13
		c-0.042,0.042-0.083,0.083-0.125,0.125c-0.042,0.042-0.083,0.083-0.125,0.125c-0.042,0.042-0.083,0.083-0.125,0.125
		c-0.042,0.042-0.083,0.083-0.125,0.125c-0.042,0.042-0.083,0.083-0.125,0.125c-0.042,0.042-0.083,0.083-0.125,0.125
		c-0.042,0.042-0.083,0.083-0.125,0.125c-0.042,0.042-0.083,0.083-0.125,0.125c-0.042,0.042-0.083,0.083-0.125,0.125
		c-0.041,0.041-0.081,0.081-0.121,0.122c-0.043,0.042-0.086,0.085-0.129,0.128c-0.042,0.042-0.083,0.083-0.125,0.125
		s-0.083,0.083-0.124,0.124c-0.042,0.042-0.084,0.084-0.126,0.126c-0.042,0.042-0.083,0.083-0.125,0.125s-0.083,0.083-0.125,0.125
		s-0.083,0.083-0.125,0.125s-0.083,0.083-0.125,0.125s-0.083,0.083-0.125,0.125s-0.083,0.083-0.125,0.125s-0.083,0.083-0.125,0.125
		s-0.083,0.083-0.125,0.125s-0.083,0.083-0.125,0.125s-0.083,0.083-0.125,0.125s-0.083,0.083-0.125,0.125s-0.083,0.083-0.125,0.125
		s-0.083,0.083-0.125,0.125s-0.083,0.083-0.125,0.125s-0.083,0.083-0.125,0.125s-0.083,0.083-0.125,0.125s-0.083,0.083-0.125,0.125
		s-0.083,0.083-0.125,0.125s-0.083,0.083-0.125,0.125s-0.083,0.083-0.125,0.125s-0.083,0.083-0.125,0.125s-0.083,0.083-0.125,0.125
		s-0.083,0.083-0.125,0.125s-0.083,0.083-0.125,0.125s-0.083,0.083-0.125,0.125s-0.083,0.083-0.125,0.125
		c-0.041,0.041-0.082,0.082-0.123,0.123c-0.042,0.042-0.085,0.085-0.128,0.127c-0.042,0.042-0.083,0.083-0.125,0.125
		c-0.042,0.042-0.083,0.083-0.125,0.125c-0.042,0.042-0.083,0.083-0.125,0.125c-0.042,0.042-0.083,0.083-0.125,0.125
		c-0.042,0.042-0.083,0.083-0.125,0.125c-0.042,0.042-0.083,0.083-0.125,0.125c-0.042,0.042-0.083,0.083-0.125,0.125
		c-0.042,0.042-0.083,0.083-0.125,0.125c-0.042,0.042-0.083,0.083-0.125,0.125c-0.04,0.041-0.081,0.081-0.121,0.122
		c-0.043,0.042-0.086,0.085-0.129,0.128c-0.042,0.042-0.083,0.083-0.125,0.125c-0.042,0.042-0.083,0.083-0.125,0.125
		c-0.042,0.042-0.083,0.083-0.125,0.125c-0.042,0.042-0.083,0.083-0.125,0.125c-0.042,0.042-0.083,0.083-0.125,0.125
		c-0.042,0.042-0.083,0.083-0.125,0.125c-0.042,0.042-0.083,0.083-0.125,0.125c-0.042,0.042-0.083,0.083-0.125,0.125
		c-0.042,0.042-0.083,0.083-0.125,0.125c-0.042,0.042-0.083,0.083-0.125,0.125c-0.042,0.042-0.083,0.083-0.125,0.125
		c-0.042,0.042-0.083,0.083-0.125,0.125c-0.042,0.042-0.083,0.083-0.125,0.125c-0.042,0.042-0.083,0.083-0.125,0.125
		c-0.042,0.042-0.083,0.083-0.125,0.125c-0.042,0.041-0.083,0.083-0.125,0.125c-0.042,0.041-0.083,0.083-0.125,0.125
		c-0.042,0.041-0.083,0.083-0.125,0.125c-0.042,0.041-0.083,0.083-0.125,0.125c-0.042,0.041-0.083,0.083-0.125,0.125
		c-0.042,0.041-0.083,0.083-0.125,0.125c-0.042,0.041-0.083,0.083-0.125,0.125c-0.042,0.041-0.083,0.083-0.125,0.125
		c-0.042,0.041-0.083,0.083-0.125,0.125c-0.042,0.041-0.083,0.083-0.125,0.125c-0.042,0.041-0.083,0.083-0.125,0.125
		c-0.041,0.04-0.082,0.081-0.123,0.122c-0.042,0.043-0.085,0.085-0.128,0.128c-0.042,0.041-0.083,0.083-0.125,0.125
		c-0.042,0.041-0.083,0.083-0.125,0.125c-0.042,0.041-0.083,0.083-0.125,0.125c-0.042,0.041-0.083,0.083-0.125,0.125
		c-0.042,0.041-0.083,0.083-0.125,0.125c-0.042,0.041-0.083,0.083-0.125,0.125c-0.042,0.041-0.083,0.083-0.125,0.125
		c-0.042,0.041-0.083,0.083-0.125,0.125c-0.042,0.041-0.083,0.083-0.125,0.125c-0.042,0.041-0.083,0.083-0.125,0.125
		c-0.042,0.041-0.083,0.083-0.125,0.125c-0.042,0.041-0.083,0.083-0.125,0.125c-0.042,0.041-0.083,0.083-0.125,0.125
		c-0.042,0.041-0.083,0.083-0.125,0.125c-0.042,0.041-0.083,0.083-0.125,0.125c-0.042,0.041-0.083,0.083-0.125,0.125
		c-0.042,0.041-0.083,0.083-0.125,0.125c-0.042,0.041-0.083,0.083-0.125,0.125c-0.042,0.041-0.083,0.083-0.125,0.125
		c-0.042,0.041-0.083,0.083-0.125,0.125c-0.042,0.041-0.083,0.083-0.125,0.125c-0.042,0.041-0.083,0.083-0.125,0.125
		c-0.042,0.041-0.083,0.083-0.125,0.125c-0.042,0.041-0.083,0.083-0.125,0.125c-0.042,0.041-0.083,0.083-0.125,0.125
		c-0.042,0.041-0.083,0.083-0.125,0.125c-0.042,0.041-0.083,0.083-0.125,0.125c-0.042,0.041-0.083,0.083-0.125,0.125
		c-0.042,0.041-0.083,0.083-0.125,0.125c-0.042,0.041-0.083,0.083-0.125,0.125c-0.042,0.041-0.083,0.083-0.125,0.125
		c-0.042,0.041-0.083,0.083-0.125,0.125c-0.042,0.041-0.083,0.083-0.125,0.125c-0.042,0.041-0.083,0.083-0.125,0.125
		c-0.042,0.041-0.083,0.083-0.125,0.125c-0.042,0.041-0.083,0.083-0.125,0.125c-0.042,0.041-0.083,0.083-0.125,0.125
		c-0.042,0.041-0.083,0.083-0.125,0.125c-0.042,0.041-0.083,0.083-0.125,0.125c-0.042,0.041-0.083,0.083-0.125,0.125
		c-0.042,0.041-0.083,0.083-0.125,0.125c-0.041,0.04-0.082,0.081-0.123,0.122c-0.042,0.043-0.085,0.085-0.127,0.128
		c-0.042,0.041-0.083,0.083-0.125,0.125c-0.042,0.041-0.083,0.083-0.125,0.125c-0.042,0.041-0.083,0.083-0.125,0.125
		c-0.042,0.041-0.083,0.083-0.125,0.125c-0.042,0.041-0.083,0.083-0.125,0.125c-0.042,0.041-0.083,0.083-0.125,0.125
		c-6.824,6.791-11.049,16.19-11.049,26.577c0,20.711,16.792,37.5,37.504,37.5c0.104,0,0.207-0.003,0.313-0.004
		c0.104,0.001,0.207,0.004,0.313,0.004c10.388,0,19.788-4.225,26.58-11.048c0.042-0.041,0.083-0.083,0.125-0.125
		c0.042-0.041,0.083-0.083,0.125-0.125c0.042-0.041,0.083-0.083,0.125-0.125c0.042-0.041,0.083-0.083,0.125-0.125
		c0.042-0.041,0.083-0.083,0.125-0.125c0.042-0.041,0.083-0.083,0.125-0.125c0.042-0.041,0.083-0.083,0.125-0.125
		c0.042-0.041,0.083-0.083,0.125-0.125c0.042-0.041,0.083-0.083,0.125-0.125c0.042-0.041,0.083-0.083,0.125-0.125
		c0.042-0.041,0.083-0.083,0.125-0.125c0.042-0.041,0.083-0.083,0.125-0.125c0.042-0.041,0.083-0.083,0.125-0.125
		c0.042-0.041,0.083-0.083,0.125-0.125c0.042-0.041,0.083-0.083,0.125-0.125c0.042-0.041,0.083-0.083,0.125-0.125
		c0.042-0.041,0.083-0.083,0.125-0.125c0.04-0.04,0.08-0.079,0.12-0.119c0.043-0.044,0.087-0.087,0.13-0.131
		c0.042-0.041,0.083-0.083,0.125-0.125c0.042-0.041,0.083-0.083,0.125-0.125c0.042-0.041,0.083-0.083,0.125-0.125
		c0.042-0.041,0.083-0.083,0.125-0.125c0.042-0.041,0.083-0.083,0.125-0.125c0.042-0.041,0.083-0.083,0.125-0.125
		c0.042-0.041,0.083-0.083,0.125-0.125c0.042-0.041,0.083-0.083,0.125-0.125c0.042-0.041,0.083-0.083,0.125-0.125
		c0.041-0.04,0.081-0.08,0.121-0.121c0.043-0.043,0.086-0.085,0.129-0.129c0.042-0.041,0.083-0.083,0.125-0.125
		c0.042-0.041,0.083-0.083,0.125-0.125c0.042-0.041,0.083-0.083,0.125-0.125c0.042-0.041,0.083-0.083,0.125-0.125
		c0.042-0.041,0.083-0.083,0.125-0.125c0.042-0.041,0.083-0.083,0.125-0.125c0.042-0.041,0.083-0.083,0.125-0.125
		c0.042-0.041,0.083-0.083,0.125-0.125c0.042-0.041,0.083-0.083,0.125-0.125c0.042-0.041,0.083-0.083,0.125-0.125
		c0.042-0.041,0.083-0.083,0.125-0.125c0.042-0.041,0.083-0.083,0.125-0.125c0.042-0.041,0.083-0.083,0.125-0.125
		c0.042-0.041,0.083-0.083,0.125-0.125c0.042-0.041,0.083-0.083,0.125-0.125c0.042-0.041,0.083-0.083,0.125-0.125
		c0.042-0.041,0.083-0.083,0.125-0.125c0.042-0.041,0.083-0.083,0.125-0.125c0.042-0.041,0.083-0.083,0.125-0.125
		c0.042-0.041,0.083-0.083,0.125-0.125c0.042-0.041,0.083-0.083,0.125-0.125c0.042-0.041,0.083-0.083,0.125-0.125
		c0.042-0.041,0.083-0.083,0.125-0.125c0.042-0.041,0.083-0.083,0.125-0.125c0.042-0.041,0.083-0.083,0.125-0.125
		c0.042-0.041,0.083-0.083,0.125-0.125c0.042-0.041,0.083-0.083,0.125-0.125c0.042-0.041,0.083-0.083,0.125-0.125
		c0.042-0.041,0.083-0.083,0.125-0.125c0.042-0.041,0.083-0.083,0.125-0.125c0.042-0.041,0.083-0.083,0.125-0.125
		c0.042-0.041,0.083-0.083,0.125-0.125c0.042-0.041,0.083-0.083,0.125-0.125c0.042-0.041,0.083-0.083,0.125-0.125
		c0.042-0.041,0.083-0.083,0.125-0.125c0.042-0.041,0.083-0.083,0.125-0.125c0.042-0.041,0.083-0.083,0.125-0.125
		c0.042-0.041,0.083-0.083,0.125-0.125c0.042-0.041,0.083-0.083,0.125-0.125c0.042-0.041,0.083-0.083,0.125-0.125
		c0.042-0.041,0.083-0.083,0.125-0.125c0.042-0.041,0.083-0.083,0.125-0.125c0.042-0.041,0.083-0.083,0.125-0.125
		c0.042-0.041,0.083-0.083,0.125-0.125c0.042-0.041,0.083-0.083,0.125-0.125c0.042-0.041,0.083-0.083,0.125-0.125
		c0.042-0.041,0.083-0.083,0.125-0.125c0.042-0.041,0.083-0.083,0.125-0.125c0.042-0.041,0.083-0.083,0.125-0.125
		c0.042-0.041,0.083-0.083,0.125-0.125c0.042-0.041,0.083-0.083,0.125-0.125c0.042-0.041,0.083-0.083,0.125-0.125
		c0.042-0.041,0.083-0.083,0.125-0.125c0.042-0.041,0.083-0.083,0.125-0.125c0.042-0.041,0.083-0.083,0.125-0.125
		c0.042-0.041,0.083-0.083,0.125-0.125c0.042-0.041,0.083-0.083,0.125-0.125c0.042-0.041,0.083-0.083,0.125-0.125
		c0.042-0.041,0.083-0.083,0.125-0.125c0.042-0.041,0.083-0.083,0.125-0.125c0.042-0.041,0.083-0.083,0.125-0.125
		c0.042-0.041,0.083-0.083,0.125-0.125c0.042-0.041,0.083-0.083,0.125-0.125c0.042-0.041,0.083-0.083,0.125-0.125
		c0.042-0.041,0.083-0.083,0.125-0.125c0.042-0.041,0.083-0.083,0.125-0.125c0.042-0.041,0.083-0.083,0.125-0.125
		c0.042-0.041,0.083-0.083,0.125-0.125c0.042-0.041,0.083-0.083,0.125-0.125c0.042-0.041,0.083-0.083,0.125-0.125
		c0.042-0.041,0.083-0.083,0.125-0.125c0.042-0.041,0.083-0.083,0.125-0.125c0.042-0.041,0.083-0.083,0.125-0.125
		c0.042-0.041,0.083-0.083,0.125-0.125c0.042-0.041,0.083-0.083,0.125-0.125c0.042-0.041,0.083-0.083,0.125-0.125
		c0.042-0.041,0.083-0.083,0.125-0.125c0.042-0.041,0.083-0.083,0.125-0.125c0.042-0.041,0.083-0.083,0.125-0.125
		c0.042-0.041,0.083-0.083,0.125-0.125c0.042-0.041,0.083-0.083,0.125-0.125c0.042-0.041,0.083-0.082,0.124-0.123
		c0.042-0.042,0.084-0.084,0.126-0.127c0.042-0.041,0.083-0.083,0.125-0.125c0.042-0.041,0.084-0.083,0.125-0.125
		c0.042-0.041,0.084-0.083,0.125-0.125c0.042-0.041,0.084-0.083,0.125-0.125c0.042-0.041,0.084-0.083,0.125-0.125
		c0.042-0.041,0.084-0.083,0.125-0.125c0.042-0.041,0.084-0.083,0.125-0.125c0.042-0.041,0.084-0.083,0.125-0.125
		c0.042-0.041,0.084-0.083,0.125-0.125c0.042-0.041,0.084-0.083,0.125-0.125c0.042-0.041,0.084-0.083,0.125-0.125
		c0.042-0.041,0.084-0.083,0.125-0.125c0.042-0.041,0.084-0.083,0.125-0.125c0.042-0.041,0.084-0.083,0.125-0.125
		c0.042-0.041,0.084-0.083,0.125-0.125c0.042-0.041,0.084-0.083,0.125-0.125c0.042-0.041,0.084-0.083,0.125-0.125
		c0.042-0.041,0.084-0.083,0.125-0.125c0.042-0.041,0.084-0.083,0.125-0.125c0.042-0.041,0.084-0.083,0.125-0.125
		c0.042-0.041,0.084-0.083,0.125-0.125c0.042-0.041,0.084-0.083,0.125-0.125c0.042-0.041,0.084-0.083,0.125-0.125
		c0.042-0.041,0.084-0.083,0.125-0.125c0.042-0.041,0.084-0.083,0.125-0.125c0.042-0.041,0.084-0.083,0.125-0.125
		c0.041-0.04,0.081-0.079,0.12-0.119c0.044-0.044,0.088-0.087,0.131-0.131c0.042-0.041,0.083-0.083,0.125-0.125
		c0.042-0.041,0.083-0.083,0.125-0.125c0.042-0.041,0.083-0.083,0.125-0.125c0.042-0.041,0.083-0.083,0.125-0.125
		c0.042-0.041,0.083-0.083,0.125-0.125c0.042-0.041,0.083-0.083,0.125-0.125c0.042-0.041,0.083-0.083,0.125-0.125
		c0.042-0.041,0.083-0.083,0.125-0.125c0.042-0.041,0.083-0.083,0.125-0.125c0.04-0.04,0.081-0.08,0.121-0.121
		c0.043-0.043,0.086-0.085,0.129-0.129c0.042-0.041,0.084-0.083,0.125-0.125c0.042-0.041,0.083-0.082,0.124-0.123
		c0.042-0.042,0.084-0.084,0.126-0.127c0.042-0.041,0.084-0.083,0.125-0.125c0.042-0.041,0.084-0.083,0.125-0.125
		c0.042-0.041,0.084-0.083,0.125-0.125c0.042-0.041,0.084-0.083,0.125-0.125c0.042-0.041,0.084-0.083,0.125-0.125
		c0.042-0.041,0.084-0.083,0.125-0.125c0.042-0.041,0.084-0.083,0.125-0.125c0.042-0.041,0.084-0.083,0.125-0.125
		c0.042-0.041,0.084-0.083,0.125-0.125c0.042-0.041,0.084-0.083,0.125-0.125c0.042-0.041,0.084-0.083,0.125-0.125
		c0.042-0.041,0.084-0.083,0.125-0.125c0.042-0.041,0.084-0.083,0.125-0.125c0.042-0.041,0.084-0.083,0.125-0.125
		c0.042-0.041,0.084-0.083,0.125-0.125c0.042-0.041,0.084-0.083,0.125-0.125c0.042-0.041,0.084-0.083,0.125-0.125
		c0.042-0.041,0.084-0.083,0.125-0.125c0.042-0.041,0.084-0.083,0.125-0.125c0.042-0.041,0.084-0.083,0.125-0.125
		c0.042-0.041,0.084-0.083,0.125-0.125c0.042-0.041,0.084-0.083,0.125-0.125c0.042-0.041,0.084-0.083,0.125-0.125
		c0.042-0.041,0.084-0.083,0.125-0.125c0.042-0.041,0.084-0.083,0.125-0.125c0.04-0.04,0.081-0.079,0.12-0.119
		c0.044-0.044,0.088-0.087,0.131-0.131c0.042-0.041,0.083-0.083,0.125-0.125c0.042-0.041,0.083-0.083,0.125-0.125
		c0.042-0.041,0.083-0.083,0.125-0.125c0.042-0.041,0.083-0.083,0.125-0.125c0.042-0.041,0.083-0.083,0.125-0.125
		c0.042-0.041,0.083-0.083,0.125-0.125c0.042-0.041,0.083-0.083,0.125-0.125c0.042-0.041,0.083-0.083,0.125-0.125
		c0.042-0.041,0.083-0.083,0.125-0.125c0.042-0.041,0.083-0.083,0.125-0.125c0.041-0.04,0.081-0.08,0.121-0.121
		c0.043-0.043,0.086-0.085,0.129-0.129c0.042-0.041,0.084-0.083,0.125-0.125c0.042-0.041,0.084-0.083,0.125-0.125
		c0.042-0.041,0.084-0.083,0.125-0.125c0.042-0.041,0.084-0.083,0.125-0.125c0.042-0.041,0.084-0.083,0.125-0.125
		c0.042-0.041,0.084-0.083,0.125-0.125c0.042-0.041,0.084-0.083,0.125-0.125c0.042-0.041,0.084-0.083,0.125-0.125
		c0.042-0.041,0.084-0.083,0.125-0.125c0.042-0.041,0.084-0.083,0.125-0.125c0.042-0.041,0.084-0.083,0.125-0.125
		c0.042-0.041,0.084-0.083,0.125-0.125c0.042-0.041,0.084-0.083,0.125-0.125c0.042-0.041,0.084-0.083,0.125-0.125
		c0.042-0.041,0.084-0.083,0.125-0.125c0.042-0.041,0.084-0.083,0.125-0.125c0.042-0.041,0.084-0.083,0.125-0.125
		c0.042-0.041,0.084-0.083,0.125-0.125c0.042-0.041,0.084-0.083,0.125-0.125c0.042-0.041,0.084-0.083,0.125-0.125
		c0.042-0.041,0.084-0.083,0.125-0.125c0.042-0.041,0.084-0.083,0.125-0.125c0.042-0.041,0.084-0.083,0.125-0.125
		c0.042-0.041,0.084-0.083,0.125-0.125c0.042-0.041,0.084-0.083,0.125-0.125c0.042-0.041,0.084-0.083,0.125-0.125
		c0.042-0.041,0.084-0.083,0.125-0.125c0.042-0.041,0.084-0.083,0.125-0.125c0.042-0.041,0.084-0.083,0.125-0.125
		c0.042-0.041,0.084-0.083,0.125-0.125c0.042-0.041,0.084-0.083,0.125-0.125c0.042-0.041,0.084-0.083,0.125-0.125
		c0.042-0.041,0.084-0.083,0.125-0.125c0.042-0.041,0.084-0.083,0.125-0.125c0.042-0.041,0.084-0.083,0.125-0.125
		c0.042-0.041,0.084-0.083,0.125-0.125c0.042-0.041,0.084-0.083,0.125-0.125c0.042-0.041,0.084-0.083,0.125-0.125
		c0.042-0.041,0.084-0.083,0.125-0.125c0.042-0.041,0.084-0.083,0.125-0.125c0.042-0.041,0.084-0.083,0.125-0.125
		c0.042-0.041,0.084-0.083,0.125-0.125c0.042-0.041,0.084-0.083,0.125-0.125c0.042-0.041,0.084-0.083,0.125-0.125
		c0.042-0.041,0.084-0.083,0.125-0.125c0.042-0.041,0.084-0.083,0.125-0.125c0.042-0.041,0.084-0.083,0.125-0.125
		c0.042-0.041,0.084-0.083,0.125-0.125c0.042-0.041,0.084-0.083,0.125-0.125c0.042-0.041,0.084-0.083,0.125-0.125
		c0.042-0.041,0.084-0.083,0.125-0.125c0.042-0.041,0.084-0.083,0.125-0.125c0.042-0.041,0.084-0.083,0.125-0.125
		c0.042-0.041,0.084-0.083,0.125-0.125c0.042-0.041,0.084-0.083,0.125-0.125c0.042-0.041,0.084-0.083,0.125-0.125
		c0.042-0.041,0.084-0.083,0.125-0.125c0.042-0.041,0.084-0.083,0.125-0.125c0.042-0.041,0.084-0.083,0.125-0.125
		c0.042-0.041,0.084-0.083,0.125-0.125c0.042-0.041,0.084-0.083,0.125-0.125c0.042-0.041,0.084-0.083,0.125-0.125
		c0.042-0.041,0.084-0.083,0.125-0.125c0.042-0.041,0.084-0.083,0.125-0.125c0.042-0.041,0.084-0.083,0.125-0.125
		c0.042-0.041,0.084-0.083,0.125-0.125c0.042-0.041,0.084-0.083,0.125-0.125c0.042-0.041,0.084-0.083,0.125-0.125
		c0.042-0.041,0.084-0.083,0.125-0.125c0.042-0.041,0.084-0.083,0.125-0.125c0.042-0.041,0.084-0.083,0.125-0.125
		c0.042-0.041,0.084-0.083,0.125-0.125c0.042-0.041,0.084-0.083,0.125-0.125c0.042-0.041,0.084-0.083,0.125-0.125
		c0.042-0.041,0.084-0.083,0.125-0.125c0.042-0.041,0.084-0.083,0.125-0.125c0.042-0.041,0.084-0.083,0.125-0.125
		c0.042-0.041,0.084-0.083,0.125-0.125c0.042-0.041,0.084-0.083,0.125-0.125c0.042-0.041,0.084-0.083,0.125-0.125
		c0.042-0.041,0.084-0.083,0.125-0.125c0.042-0.041,0.083-0.082,0.124-0.123c0.042-0.042,0.084-0.084,0.126-0.127
		c0.042-0.041,0.084-0.083,0.125-0.125c0.042-0.041,0.084-0.083,0.125-0.125c0.042-0.041,0.084-0.083,0.125-0.125
		c0.042-0.041,0.084-0.083,0.125-0.125c0.042-0.041,0.084-0.083,0.125-0.125c0.042-0.041,0.084-0.083,0.125-0.125
		c0.042-0.041,0.084-0.083,0.125-0.125c0.042-0.041,0.084-0.083,0.125-0.125c0.042-0.041,0.084-0.083,0.125-0.125
		c0.042-0.041,0.084-0.083,0.125-0.125c0.042-0.041,0.084-0.083,0.125-0.125c0.042-0.041,0.084-0.083,0.125-0.125
		c0.042-0.041,0.084-0.083,0.125-0.125c0.042-0.041,0.084-0.083,0.125-0.125c0.042-0.041,0.084-0.083,0.125-0.125
		c0.042-0.041,0.084-0.083,0.125-0.125c0.042-0.041,0.084-0.083,0.125-0.125c0.042-0.041,0.084-0.083,0.125-0.125
		c0.042-0.041,0.084-0.083,0.125-0.125c0.042-0.041,0.084-0.083,0.125-0.125c0.042-0.041,0.084-0.083,0.125-0.125
		c0.042-0.041,0.084-0.083,0.125-0.125c0.042-0.041,0.084-0.083,0.125-0.125c0.042-0.041,0.084-0.083,0.125-0.125
		c0.042-0.041,0.084-0.083,0.125-0.125c0.042-0.041,0.084-0.083,0.125-0.125c0.041-0.04,0.081-0.079,0.12-0.119
		c0.044-0.044,0.088-0.087,0.131-0.131c0.042-0.041,0.083-0.083,0.125-0.125c0.042-0.041,0.083-0.083,0.125-0.125
		c0.042-0.041,0.083-0.083,0.125-0.125c0.042-0.041,0.083-0.083,0.125-0.125c0.042-0.041,0.083-0.083,0.125-0.125
		c0.042-0.041,0.083-0.083,0.125-0.125c0.042-0.041,0.083-0.083,0.125-0.125c0.042-0.041,0.083-0.083,0.125-0.125
		c0.042-0.041,0.083-0.083,0.125-0.125c0.04-0.04,0.081-0.08,0.121-0.121c0.043-0.043,0.086-0.085,0.129-0.129
		c0.042-0.041,0.084-0.083,0.125-0.125c0.042-0.041,0.083-0.082,0.124-0.123c0.042-0.042,0.084-0.084,0.126-0.127
		C97.519,79.161,101.743,69.762,101.743,59.375z"/>
</g>
<g>
	<path fill="#FFFFFF" d="M64.24,21.875c-0.105,0-0.209,0.003-0.313,0.004c-0.104-0.001-0.208-0.004-0.313-0.004
		c-20.712,0-37.503,16.789-37.503,37.5s16.791,37.5,37.503,37.5c0.104,0,0.208-0.003,0.313-0.004
		c0.104,0.001,0.208,0.004,0.313,0.004c20.712,0,37.503-16.789,37.503-37.5S84.952,21.875,64.24,21.875z M84.83,38.162
		c5.666,5.666,8.787,13.2,8.787,21.213c0,4.027-0.789,7.934-2.292,11.542l-20.684-11.94c-0.802-1.063-1.431-1.819-1.714-2.102
		c-0.845-0.844-3.248-2.375-5.001-2.375c-0.272,0-0.562,0.041-0.856,0.106L40.208,41.407c0.854-1.137,1.793-2.222,2.816-3.245
		c5.593-5.593,13.005-8.703,20.902-8.783C71.824,29.459,79.236,32.569,84.83,38.162z M43.024,80.588
		c-5.667-5.666-8.788-13.199-8.788-21.213c0-3.994,0.775-7.869,2.256-11.453l6.516,3.762c-0.339,1.125-0.457,2.45-0.245,3.802
		c0.455,2.916,2.804,6.027,4.897,5.7c1.67-0.26,2.826-2.651,2.996-5.086l6.084,3.512c-2.789,3.797-7.064,10.511-7.064,14.701
		c0,3.131,1.543,4.07,2.666,3.688c3.668-1.25,7.335-3.5,11.585-3.5c4.251,0,7.918,2.25,11.585,3.5
		c1.123,0.383,2.666-0.557,2.666-3.688c0-0.777-0.15-1.644-0.408-2.561l9.818,5.668c-0.839,1.109-1.758,2.168-2.758,3.168
		c-5.594,5.593-13.006,8.703-20.903,8.783C56.029,89.291,48.617,86.181,43.024,80.588z"/>
	<path fill="#FFFFFF" d="M70.178,50.5c2.363,0,4.418-3.833,4.418-7.125c0-3.833-2.251-7.125-4.418-7.125
		c-2.168,0-4.418,3.292-4.418,7.125C65.76,46.667,67.813,50.5,70.178,50.5z"/>
	<path fill="#FFFFFF" d="M80.193,61.186c2.094,0.327,4.443-2.785,4.898-5.7c0.529-3.396-1.008-6.622-2.928-6.922
		c-1.919-0.3-4.367,2.305-4.898,5.7C76.811,57.18,78.1,60.859,80.193,61.186z"/>
	<path fill="#FFFFFF" d="M57.676,50.5c2.365,0,4.418-3.833,4.418-7.125c0-3.833-2.25-7.125-4.418-7.125
		c-2.166,0-4.417,3.292-4.417,7.125C53.259,46.667,55.313,50.5,57.676,50.5z"/>
</g>
</svg>
