<?xml version="1.0" encoding="utf-8"?>
<!-- Generator: Adobe Illustrator 16.0.3, SVG Export Plug-In . SVG Version: 6.00 Build 0)  -->
<!DOCTYPE svg PUBLIC "-//W3C//DTD SVG 1.1//EN" "http://www.w3.org/Graphics/SVG/1.1/DTD/svg11.dtd">
<svg version="1.1" id="Layer_1" xmlns="http://www.w3.org/2000/svg" xmlns:xlink="http://www.w3.org/1999/xlink" x="0px" y="0px"
	 width="128px" height="128px" viewBox="0 0 128 128" enable-background="new 0 0 128 128" xml:space="preserve">
<path fill="#444953" d="M128,25c0-13.807-11.193-25-25-25H25C11.193,0,0,11.193,0,25v78c0,13.807,11.193,25,25,25h78
	c13.807,0,25-11.193,25-25V25z"/>
<g>
	<defs>
		<path id="SVGID_1_" d="M128,25c0-13.807-11.193-25-25-25H25C11.193,0,0,11.193,0,25v78c0,13.807,11.193,25,25,25h78
			c13.807,0,25-11.193,25-25V25z"/>
	</defs>
	<clipPath id="SVGID_2_">
		<use xlink:href="#SVGID_1_"  overflow="visible"/>
	</clipPath>
	<path clip-path="url(#SVGID_2_)" fill="#353A42" d="M101.421,59.375c0-20.711-16.79-37.5-37.5-37.5
		c-10.387,0-19.786,4.225-26.578,11.047c-0.042,0.042-0.083,0.083-0.125,0.125s-0.083,0.083-0.125,0.125s-0.083,0.083-0.125,0.125
		s-0.083,0.083-0.125,0.125s-0.083,0.083-0.125,0.125s-0.083,0.083-0.125,0.125s-0.083,0.083-0.125,0.125s-0.083,0.083-0.125,0.125
		s-0.083,0.083-0.125,0.125s-0.083,0.083-0.125,0.125s-0.083,0.083-0.125,0.125s-0.083,0.083-0.125,0.125s-0.083,0.083-0.125,0.125
		s-0.083,0.083-0.125,0.125s-0.083,0.083-0.125,0.125s-0.083,0.083-0.125,0.125s-0.083,0.083-0.125,0.125s-0.083,0.083-0.125,0.125
		s-0.083,0.083-0.125,0.125s-0.083,0.083-0.125,0.125s-0.083,0.083-0.125,0.125s-0.083,0.083-0.125,0.125s-0.083,0.083-0.125,0.125
		s-0.083,0.083-0.125,0.125s-0.083,0.083-0.125,0.125s-0.083,0.083-0.125,0.125s-0.083,0.083-0.125,0.125s-0.083,0.083-0.125,0.125
		s-0.083,0.083-0.125,0.125s-0.083,0.083-0.125,0.125s-0.083,0.083-0.125,0.125s-0.083,0.083-0.125,0.125s-0.083,0.083-0.125,0.125
		s-0.083,0.083-0.125,0.125s-0.083,0.083-0.125,0.125s-0.083,0.083-0.125,0.125s-0.083,0.083-0.125,0.125s-0.083,0.083-0.125,0.125
		s-0.083,0.083-0.125,0.125s-0.083,0.083-0.125,0.125s-0.083,0.083-0.125,0.125s-0.083,0.083-0.125,0.125s-0.083,0.083-0.125,0.125
		s-0.083,0.083-0.125,0.125s-0.083,0.083-0.125,0.125s-0.083,0.083-0.125,0.125s-0.083,0.083-0.125,0.125s-0.083,0.083-0.125,0.125
		s-0.083,0.083-0.125,0.125s-0.083,0.083-0.125,0.125s-0.083,0.083-0.125,0.125s-0.083,0.083-0.125,0.125s-0.083,0.083-0.125,0.125
		s-0.083,0.083-0.125,0.125s-0.083,0.083-0.125,0.125s-0.083,0.083-0.125,0.125s-0.083,0.083-0.125,0.125s-0.083,0.083-0.125,0.125
		s-0.083,0.083-0.125,0.125s-0.083,0.083-0.125,0.125s-0.083,0.083-0.125,0.125s-0.083,0.083-0.125,0.125s-0.083,0.083-0.125,0.125
		s-0.083,0.083-0.125,0.125s-0.083,0.083-0.125,0.125s-0.083,0.083-0.125,0.125s-0.083,0.083-0.125,0.125s-0.083,0.083-0.125,0.125
		s-0.083,0.083-0.125,0.125s-0.083,0.083-0.125,0.125s-0.083,0.083-0.125,0.125s-0.083,0.083-0.125,0.125s-0.083,0.083-0.125,0.125
		s-0.083,0.083-0.125,0.125s-0.083,0.083-0.125,0.125s-0.083,0.083-0.125,0.125s-0.083,0.083-0.125,0.125s-0.083,0.083-0.125,0.125
		s-0.083,0.083-0.125,0.125s-0.083,0.083-0.125,0.125s-0.083,0.083-0.125,0.125s-0.083,0.083-0.125,0.125s-0.083,0.083-0.125,0.125
		s-0.083,0.083-0.125,0.125s-0.083,0.083-0.125,0.125s-0.083,0.083-0.125,0.125s-0.083,0.083-0.125,0.125s-0.083,0.083-0.125,0.125
		s-0.083,0.083-0.125,0.125s-0.083,0.083-0.125,0.125s-0.083,0.083-0.125,0.125s-0.083,0.083-0.125,0.125s-0.083,0.083-0.125,0.125
		s-0.083,0.083-0.125,0.125s-0.083,0.083-0.125,0.125s-0.083,0.083-0.125,0.125s-0.083,0.083-0.125,0.125s-0.083,0.083-0.125,0.125
		s-0.083,0.083-0.125,0.125s-0.083,0.083-0.125,0.125s-0.083,0.083-0.125,0.125s-0.083,0.083-0.125,0.125s-0.083,0.083-0.125,0.125
		s-0.083,0.083-0.125,0.125s-0.083,0.083-0.125,0.125s-0.083,0.083-0.125,0.125s-0.083,0.083-0.125,0.125s-0.083,0.083-0.125,0.125
		s-0.083,0.083-0.125,0.125s-0.083,0.083-0.125,0.125s-0.083,0.083-0.125,0.125s-0.083,0.083-0.125,0.125s-0.083,0.083-0.125,0.125
		s-0.083,0.083-0.125,0.125s-0.083,0.083-0.125,0.125s-0.083,0.083-0.125,0.125s-0.083,0.083-0.125,0.125s-0.083,0.083-0.125,0.125
		s-0.083,0.083-0.125,0.125s-0.083,0.083-0.125,0.125s-0.083,0.083-0.125,0.125s-0.083,0.083-0.125,0.125s-0.083,0.083-0.125,0.125
		s-0.083,0.083-0.125,0.125s-0.083,0.083-0.125,0.125s-0.083,0.083-0.125,0.125s-0.083,0.083-0.125,0.125s-0.083,0.083-0.125,0.125
		s-0.083,0.083-0.125,0.125s-0.083,0.083-0.125,0.125s-0.083,0.083-0.125,0.125s-0.083,0.083-0.125,0.125s-0.083,0.083-0.125,0.125
		s-0.083,0.083-0.125,0.125s-0.083,0.083-0.125,0.125s-0.083,0.083-0.125,0.125s-0.083,0.083-0.125,0.125s-0.083,0.083-0.125,0.125
		s-0.083,0.083-0.125,0.125s-0.083,0.083-0.125,0.125s-0.083,0.083-0.125,0.125s-0.083,0.083-0.125,0.125s-0.083,0.083-0.125,0.125
		s-0.083,0.083-0.125,0.125s-0.083,0.083-0.125,0.125s-0.083,0.083-0.125,0.125s-0.083,0.083-0.125,0.125s-0.083,0.083-0.125,0.125
		s-0.083,0.083-0.125,0.125s-0.083,0.083-0.125,0.125s-0.083,0.083-0.125,0.125s-0.083,0.083-0.125,0.125s-0.083,0.083-0.125,0.125
		s-0.083,0.083-0.125,0.125s-0.083,0.083-0.125,0.125s-0.083,0.083-0.125,0.125s-0.083,0.083-0.125,0.125s-0.083,0.083-0.125,0.125
		s-0.083,0.083-0.125,0.125s-0.083,0.083-0.125,0.125s-0.083,0.083-0.125,0.125s-0.083,0.083-0.125,0.125s-0.083,0.083-0.125,0.125
		s-0.083,0.083-0.125,0.125s-0.083,0.083-0.125,0.125s-0.083,0.083-0.125,0.125s-0.083,0.083-0.125,0.125s-0.083,0.083-0.125,0.125
		s-0.083,0.083-0.125,0.125s-0.083,0.083-0.125,0.125s-0.083,0.083-0.125,0.125s-0.083,0.083-0.125,0.125s-0.083,0.083-0.125,0.125
		s-0.083,0.083-0.125,0.125s-0.083,0.083-0.125,0.125s-0.083,0.083-0.125,0.125s-0.083,0.083-0.125,0.125s-0.083,0.083-0.125,0.125
		s-0.083,0.083-0.125,0.125s-0.083,0.083-0.125,0.125s-0.083,0.083-0.125,0.125s-0.083,0.083-0.125,0.125s-0.083,0.083-0.125,0.125
		s-0.083,0.083-0.125,0.125s-0.083,0.083-0.125,0.125s-0.083,0.083-0.125,0.125s-0.083,0.083-0.125,0.125s-0.083,0.083-0.125,0.125
		s-0.083,0.083-0.125,0.125s-0.083,0.083-0.125,0.125s-0.083,0.083-0.125,0.125s-0.083,0.083-0.125,0.125s-0.083,0.083-0.125,0.125
		s-0.083,0.083-0.125,0.125s-0.083,0.083-0.125,0.125s-0.083,0.083-0.125,0.125s-0.083,0.083-0.125,0.125s-0.083,0.083-0.125,0.125
		s-0.083,0.083-0.125,0.125s-0.083,0.083-0.125,0.125s-0.083,0.083-0.125,0.125s-0.083,0.083-0.125,0.125s-0.083,0.083-0.125,0.125
		s-0.083,0.083-0.125,0.125s-0.083,0.083-0.125,0.125s-0.083,0.083-0.125,0.125s-0.083,0.083-0.125,0.125s-0.083,0.083-0.125,0.125
		s-0.083,0.083-0.125,0.125s-0.083,0.083-0.125,0.125s-0.083,0.083-0.125,0.125s-0.083,0.083-0.125,0.125s-0.083,0.083-0.125,0.125
		s-0.083,0.083-0.125,0.125s-0.083,0.083-0.125,0.125s-0.083,0.083-0.125,0.125s-0.083,0.083-0.125,0.125s-0.083,0.083-0.125,0.125
		s-0.083,0.083-0.125,0.125s-0.083,0.083-0.125,0.125s-0.083,0.083-0.125,0.125s-0.083,0.083-0.125,0.125s-0.083,0.083-0.125,0.125
		s-0.083,0.083-0.125,0.125s-0.083,0.083-0.125,0.125s-0.083,0.083-0.125,0.125s-0.083,0.083-0.125,0.125s-0.083,0.083-0.125,0.125
		s-0.083,0.083-0.125,0.125s-0.083,0.083-0.125,0.125s-0.083,0.083-0.125,0.125s-0.083,0.083-0.125,0.125s-0.083,0.083-0.125,0.125
		s-0.083,0.083-0.125,0.125s-0.083,0.083-0.125,0.125s-0.083,0.083-0.125,0.125s-0.083,0.083-0.125,0.125s-0.083,0.083-0.125,0.125
		s-0.083,0.083-0.125,0.125s-0.083,0.083-0.125,0.125s-0.083,0.083-0.125,0.125s-0.083,0.083-0.125,0.125s-0.083,0.083-0.125,0.125
		s-0.083,0.083-0.125,0.125s-0.083,0.083-0.125,0.125s-0.083,0.083-0.125,0.125s-0.083,0.083-0.125,0.125s-0.083,0.083-0.125,0.125
		s-0.083,0.083-0.125,0.125s-0.083,0.083-0.125,0.125s-0.083,0.083-0.125,0.125s-0.083,0.083-0.125,0.125s-0.083,0.083-0.125,0.125
		s-0.083,0.083-0.125,0.125s-0.083,0.083-0.125,0.125s-0.083,0.083-0.125,0.125s-0.083,0.083-0.125,0.125
		c-0.042,0.042-0.083,0.084-0.125,0.125c-0.042,0.042-0.083,0.084-0.125,0.125c-0.042,0.042-0.083,0.084-0.125,0.125
		c-0.042,0.042-0.083,0.084-0.125,0.125c-0.042,0.042-0.083,0.084-0.125,0.125c-0.042,0.042-0.083,0.084-0.125,0.125
		c-0.042,0.042-0.083,0.084-0.125,0.125c-0.042,0.042-0.083,0.084-0.125,0.125c-0.042,0.042-0.083,0.084-0.125,0.125
		c-0.042,0.042-0.083,0.084-0.125,0.125c-0.042,0.042-0.083,0.084-0.125,0.125c-0.042,0.042-0.083,0.084-0.125,0.125
		c-0.042,0.042-0.083,0.084-0.125,0.125c-0.042,0.042-0.083,0.084-0.125,0.125c-0.042,0.042-0.083,0.084-0.125,0.125
		c-0.042,0.042-0.083,0.084-0.125,0.125c-0.042,0.042-0.083,0.084-0.125,0.125c-0.042,0.042-0.083,0.084-0.125,0.125
		c-0.042,0.042-0.083,0.084-0.125,0.125c-0.042,0.042-0.083,0.084-0.125,0.125c-0.042,0.042-0.083,0.084-0.125,0.125
		c-0.042,0.042-0.083,0.084-0.125,0.125c-0.042,0.042-0.083,0.084-0.125,0.125c-0.042,0.042-0.083,0.084-0.125,0.125
		c-0.042,0.042-0.083,0.084-0.125,0.125c-0.042,0.042-0.083,0.084-0.125,0.125c-0.042,0.042-0.083,0.084-0.125,0.125
		c-0.042,0.042-0.083,0.084-0.125,0.125c-0.042,0.042-0.083,0.084-0.125,0.125c-0.042,0.042-0.083,0.084-0.125,0.125
		c-0.042,0.042-0.083,0.084-0.125,0.125c-0.042,0.042-0.083,0.084-0.125,0.125c-0.042,0.042-0.083,0.084-0.125,0.125
		c-0.042,0.042-0.083,0.084-0.125,0.125c-0.042,0.042-0.083,0.084-0.125,0.125c-0.042,0.042-0.083,0.084-0.125,0.125
		c-0.042,0.042-0.083,0.084-0.125,0.125c-0.042,0.042-0.083,0.084-0.125,0.125c-0.042,0.042-0.083,0.084-0.125,0.125
		c-0.042,0.042-0.083,0.084-0.125,0.125c-0.042,0.042-0.083,0.084-0.125,0.125c-0.042,0.042-0.083,0.084-0.125,0.125
		c-0.042,0.042-0.083,0.084-0.125,0.125c-0.042,0.042-0.083,0.084-0.125,0.125c-0.042,0.042-0.083,0.084-0.125,0.125
		c-0.042,0.042-0.083,0.084-0.125,0.125c-0.042,0.042-0.083,0.084-0.125,0.125c-0.042,0.042-0.083,0.084-0.125,0.125
		c-0.042,0.042-0.083,0.084-0.125,0.125c-0.042,0.042-0.083,0.084-0.125,0.125c-0.042,0.042-0.083,0.084-0.125,0.125
		c-0.042,0.042-0.083,0.084-0.125,0.125c-0.042,0.042-0.083,0.084-0.125,0.125c-0.042,0.042-0.083,0.084-0.125,0.125
		c-0.042,0.042-0.083,0.084-0.125,0.125c-0.042,0.042-0.083,0.084-0.125,0.125c-0.042,0.042-0.083,0.084-0.125,0.125
		c-0.042,0.042-0.083,0.084-0.125,0.125c-0.042,0.042-0.083,0.084-0.125,0.125c-0.042,0.042-0.083,0.084-0.125,0.125
		c-0.042,0.042-0.083,0.084-0.125,0.125c-0.042,0.042-0.083,0.084-0.125,0.125c-6.823,6.791-11.047,16.19-11.047,26.578
		c0,20.711,16.79,37.5,37.5,37.5c10.387,0,19.786-4.225,26.578-11.047c0.042-0.042,0.083-0.084,0.125-0.125
		c0.042-0.042,0.083-0.084,0.125-0.125c0.042-0.042,0.083-0.084,0.125-0.125c0.042-0.042,0.083-0.084,0.125-0.125
		c0.042-0.042,0.083-0.084,0.125-0.125c0.042-0.042,0.083-0.084,0.125-0.125c0.042-0.042,0.083-0.084,0.125-0.125
		c0.042-0.042,0.083-0.084,0.125-0.125c0.042-0.042,0.083-0.084,0.125-0.125c0.042-0.042,0.083-0.084,0.125-0.125
		c0.042-0.042,0.083-0.084,0.125-0.125c0.042-0.042,0.083-0.084,0.125-0.125c0.042-0.042,0.083-0.084,0.125-0.125
		c0.042-0.042,0.083-0.084,0.125-0.125c0.042-0.042,0.083-0.084,0.125-0.125c0.042-0.042,0.083-0.084,0.125-0.125
		c0.042-0.042,0.083-0.084,0.125-0.125c0.042-0.042,0.083-0.084,0.125-0.125c0.042-0.042,0.083-0.084,0.125-0.125
		c0.042-0.042,0.083-0.084,0.125-0.125c0.042-0.042,0.083-0.084,0.125-0.125c0.042-0.042,0.083-0.084,0.125-0.125
		c0.042-0.042,0.083-0.084,0.125-0.125c0.042-0.042,0.083-0.084,0.125-0.125c0.042-0.042,0.083-0.084,0.125-0.125
		c0.042-0.042,0.083-0.084,0.125-0.125c0.042-0.042,0.083-0.084,0.125-0.125c0.042-0.042,0.083-0.084,0.125-0.125
		c0.042-0.042,0.083-0.084,0.125-0.125c0.042-0.042,0.083-0.084,0.125-0.125c0.042-0.042,0.083-0.084,0.125-0.125
		c0.042-0.042,0.083-0.084,0.125-0.125c0.042-0.042,0.083-0.084,0.125-0.125c0.042-0.042,0.083-0.084,0.125-0.125
		c0.042-0.042,0.083-0.084,0.125-0.125c0.042-0.042,0.083-0.084,0.125-0.125c0.042-0.042,0.083-0.084,0.125-0.125
		c0.042-0.042,0.083-0.084,0.125-0.125c0.042-0.042,0.083-0.084,0.125-0.125c0.042-0.042,0.083-0.084,0.125-0.125
		c0.042-0.042,0.083-0.084,0.125-0.125c0.042-0.042,0.083-0.084,0.125-0.125c0.042-0.042,0.083-0.084,0.125-0.125
		c0.042-0.042,0.083-0.084,0.125-0.125c0.042-0.042,0.083-0.084,0.125-0.125c0.042-0.042,0.083-0.084,0.125-0.125
		c0.042-0.042,0.083-0.084,0.125-0.125c0.042-0.042,0.083-0.084,0.125-0.125c0.042-0.042,0.083-0.084,0.125-0.125
		c0.042-0.042,0.083-0.084,0.125-0.125c0.042-0.042,0.083-0.084,0.125-0.125c0.042-0.042,0.083-0.084,0.125-0.125
		c0.042-0.042,0.083-0.084,0.125-0.125c0.042-0.042,0.083-0.084,0.125-0.125c0.042-0.042,0.083-0.084,0.125-0.125
		c0.042-0.042,0.083-0.084,0.125-0.125c0.042-0.042,0.083-0.084,0.125-0.125c0.042-0.042,0.083-0.084,0.125-0.125
		c0.042-0.042,0.083-0.084,0.125-0.125c0.042-0.042,0.083-0.084,0.125-0.125c0.042-0.042,0.083-0.084,0.125-0.125
		c0.042-0.042,0.083-0.084,0.125-0.125c0.042-0.042,0.083-0.084,0.125-0.125c0.042-0.042,0.083-0.084,0.125-0.125
		c0.042-0.042,0.083-0.084,0.125-0.125c0.042-0.042,0.083-0.084,0.125-0.125c0.042-0.042,0.083-0.084,0.125-0.125
		c0.042-0.042,0.083-0.084,0.125-0.125c0.042-0.042,0.083-0.084,0.125-0.125c0.042-0.042,0.083-0.084,0.125-0.125
		c0.042-0.042,0.083-0.084,0.125-0.125c0.042-0.042,0.083-0.084,0.125-0.125c0.042-0.042,0.083-0.084,0.125-0.125
		c0.042-0.042,0.083-0.084,0.125-0.125c0.042-0.042,0.083-0.084,0.125-0.125c0.042-0.042,0.083-0.084,0.125-0.125
		c0.042-0.042,0.083-0.084,0.125-0.125c0.042-0.042,0.083-0.084,0.125-0.125c0.042-0.042,0.083-0.084,0.125-0.125
		c0.042-0.042,0.083-0.084,0.125-0.125c0.042-0.042,0.083-0.084,0.125-0.125c0.042-0.042,0.083-0.084,0.125-0.125
		c0.042-0.042,0.083-0.084,0.125-0.125c0.042-0.042,0.083-0.084,0.125-0.125c0.042-0.042,0.083-0.084,0.125-0.125
		c0.042-0.042,0.083-0.084,0.125-0.125c0.042-0.042,0.083-0.084,0.125-0.125c0.042-0.042,0.083-0.084,0.125-0.125
		c0.042-0.042,0.083-0.084,0.125-0.125c0.042-0.042,0.083-0.084,0.125-0.125c0.042-0.042,0.083-0.084,0.125-0.125
		c0.042-0.042,0.083-0.084,0.125-0.125c0.042-0.042,0.083-0.084,0.125-0.125c0.042-0.042,0.083-0.084,0.125-0.125
		c0.042-0.042,0.083-0.084,0.125-0.125c0.042-0.042,0.083-0.084,0.125-0.125c0.042-0.042,0.083-0.084,0.125-0.125
		c0.042-0.042,0.083-0.084,0.125-0.125c0.042-0.042,0.083-0.084,0.125-0.125c0.042-0.042,0.083-0.084,0.125-0.125
		c0.042-0.042,0.083-0.084,0.125-0.125c0.042-0.042,0.083-0.084,0.125-0.125c0.042-0.042,0.083-0.084,0.125-0.125
		c0.042-0.042,0.083-0.084,0.125-0.125c0.042-0.042,0.083-0.084,0.125-0.125c0.042-0.042,0.083-0.084,0.125-0.125
		c0.042-0.042,0.083-0.084,0.125-0.125c0.042-0.042,0.083-0.084,0.125-0.125c0.042-0.042,0.083-0.084,0.125-0.125
		c0.042-0.042,0.083-0.084,0.125-0.125c0.042-0.042,0.083-0.084,0.125-0.125c0.042-0.042,0.083-0.084,0.125-0.125
		c0.042-0.042,0.083-0.084,0.125-0.125c0.042-0.042,0.083-0.084,0.125-0.125c0.042-0.042,0.083-0.084,0.125-0.125
		c0.042-0.042,0.083-0.084,0.125-0.125c0.042-0.042,0.083-0.084,0.125-0.125c0.042-0.042,0.084-0.084,0.125-0.125
		c0.042-0.042,0.084-0.084,0.125-0.125c0.042-0.042,0.084-0.084,0.125-0.125c0.042-0.042,0.084-0.084,0.125-0.125
		c0.042-0.042,0.084-0.084,0.125-0.125c0.042-0.042,0.084-0.084,0.125-0.125c0.042-0.042,0.084-0.084,0.125-0.125
		c0.042-0.042,0.084-0.084,0.125-0.125c0.042-0.042,0.084-0.084,0.125-0.125c0.042-0.042,0.084-0.084,0.125-0.125
		c0.042-0.042,0.084-0.084,0.125-0.125c0.042-0.042,0.084-0.084,0.125-0.125c0.042-0.042,0.084-0.084,0.125-0.125
		c0.042-0.042,0.084-0.084,0.125-0.125c0.042-0.042,0.084-0.084,0.125-0.125c0.042-0.042,0.084-0.084,0.125-0.125
		c0.042-0.042,0.084-0.084,0.125-0.125c0.042-0.042,0.084-0.084,0.125-0.125c0.042-0.042,0.084-0.084,0.125-0.125
		c0.042-0.042,0.084-0.084,0.125-0.125c0.042-0.042,0.084-0.084,0.125-0.125c0.042-0.042,0.084-0.084,0.125-0.125
		c0.042-0.042,0.084-0.084,0.125-0.125c0.042-0.042,0.084-0.084,0.125-0.125c0.042-0.042,0.084-0.084,0.125-0.125
		c0.042-0.042,0.084-0.084,0.125-0.125c0.042-0.042,0.084-0.084,0.125-0.125c0.042-0.042,0.084-0.084,0.125-0.125
		c0.042-0.042,0.084-0.084,0.125-0.125c0.042-0.042,0.084-0.084,0.125-0.125c0.042-0.042,0.084-0.084,0.125-0.125
		c0.042-0.042,0.084-0.084,0.125-0.125c0.042-0.042,0.084-0.084,0.125-0.125c0.042-0.042,0.084-0.084,0.125-0.125
		c0.042-0.042,0.084-0.084,0.125-0.125c0.042-0.042,0.084-0.084,0.125-0.125c0.042-0.042,0.084-0.084,0.125-0.125
		c0.042-0.042,0.084-0.084,0.125-0.125c0.042-0.042,0.084-0.084,0.125-0.125c0.042-0.042,0.084-0.084,0.125-0.125
		c0.042-0.042,0.084-0.084,0.125-0.125c0.042-0.042,0.084-0.084,0.125-0.125c0.042-0.042,0.084-0.084,0.125-0.125
		c0.042-0.042,0.084-0.084,0.125-0.125c0.043-0.043,0.085-0.085,0.127-0.127c0.041-0.041,0.082-0.082,0.123-0.123
		c0.042-0.042,0.084-0.084,0.125-0.125c0.042-0.042,0.084-0.084,0.125-0.125c0.042-0.042,0.084-0.084,0.125-0.125
		c0.042-0.042,0.084-0.084,0.125-0.125c0.042-0.042,0.084-0.084,0.125-0.125c0.042-0.042,0.084-0.084,0.125-0.125
		c0.042-0.042,0.084-0.084,0.125-0.125c0.042-0.042,0.084-0.084,0.125-0.125c0.042-0.042,0.084-0.084,0.125-0.125
		c0.042-0.042,0.084-0.084,0.125-0.125c0.042-0.042,0.084-0.084,0.125-0.125c0.042-0.042,0.084-0.084,0.125-0.125
		c0.042-0.042,0.084-0.084,0.125-0.125c0.042-0.042,0.084-0.084,0.125-0.125c0.042-0.042,0.084-0.084,0.125-0.125
		c0.042-0.042,0.084-0.084,0.125-0.125c0.042-0.042,0.084-0.084,0.125-0.125c0.042-0.042,0.084-0.084,0.125-0.125
		c0.042-0.042,0.084-0.084,0.125-0.125c0.042-0.042,0.084-0.084,0.125-0.125c0.042-0.042,0.084-0.084,0.125-0.125
		c0.042-0.042,0.084-0.084,0.125-0.125c0.042-0.042,0.084-0.084,0.125-0.125c0.042-0.042,0.084-0.084,0.125-0.125
		c0.042-0.042,0.084-0.084,0.125-0.125c0.042-0.042,0.084-0.084,0.125-0.125c0.042-0.042,0.084-0.084,0.125-0.125
		c0.042-0.042,0.084-0.084,0.125-0.125c0.042-0.042,0.084-0.084,0.125-0.125c0.042-0.042,0.084-0.084,0.125-0.125
		c0.042-0.042,0.084-0.084,0.125-0.125c0.042-0.042,0.084-0.084,0.125-0.125c0.042-0.042,0.084-0.084,0.125-0.125
		c0.042-0.042,0.084-0.084,0.125-0.125c0.042-0.042,0.084-0.084,0.125-0.125c0.042-0.042,0.084-0.084,0.125-0.125
		c0.042-0.042,0.084-0.084,0.125-0.125c0.042-0.042,0.084-0.084,0.125-0.125c0.042-0.042,0.084-0.084,0.125-0.125
		c0.042-0.042,0.084-0.084,0.125-0.125c0.042-0.042,0.084-0.084,0.125-0.125c0.042-0.042,0.084-0.084,0.125-0.125
		c0.042-0.042,0.084-0.084,0.125-0.125c0.042-0.042,0.084-0.084,0.125-0.125c0.042-0.042,0.084-0.084,0.125-0.125
		c0.042-0.042,0.084-0.084,0.125-0.125c0.042-0.042,0.084-0.084,0.125-0.125c0.042-0.042,0.084-0.084,0.125-0.125
		c0.042-0.042,0.084-0.084,0.125-0.125c0.042-0.042,0.084-0.084,0.125-0.125c0.042-0.042,0.084-0.084,0.125-0.125
		c0.042-0.042,0.084-0.084,0.125-0.125c0.042-0.042,0.084-0.084,0.125-0.125c0.042-0.042,0.084-0.084,0.125-0.125
		c0.042-0.042,0.084-0.084,0.125-0.125c0.042-0.042,0.084-0.084,0.125-0.125c0.042-0.042,0.084-0.084,0.125-0.125
		c0.042-0.042,0.084-0.084,0.125-0.125c0.042-0.042,0.084-0.084,0.125-0.125c0.042-0.042,0.084-0.084,0.125-0.125
		c0.042-0.042,0.084-0.084,0.125-0.125c0.042-0.042,0.084-0.084,0.125-0.125c0.042-0.042,0.084-0.084,0.125-0.125
		c0.042-0.042,0.084-0.084,0.125-0.125c0.042-0.042,0.084-0.084,0.125-0.125c0.042-0.042,0.084-0.084,0.125-0.125
		c0.042-0.042,0.084-0.084,0.125-0.125c0.042-0.042,0.084-0.084,0.125-0.125c0.042-0.042,0.084-0.084,0.125-0.125
		c0.042-0.042,0.084-0.084,0.125-0.125c0.042-0.042,0.084-0.084,0.125-0.125c0.042-0.042,0.084-0.084,0.125-0.125
		c0.042-0.042,0.084-0.084,0.125-0.125c0.042-0.042,0.084-0.084,0.125-0.125c0.042-0.042,0.084-0.084,0.125-0.125
		c0.042-0.042,0.084-0.084,0.125-0.125c0.042-0.042,0.084-0.084,0.125-0.125c0.042-0.042,0.084-0.084,0.125-0.125
		c0.042-0.042,0.084-0.084,0.125-0.125c0.042-0.042,0.084-0.084,0.125-0.125c0.042-0.042,0.084-0.084,0.125-0.125
		c0.042-0.042,0.084-0.084,0.125-0.125c0.042-0.042,0.084-0.084,0.125-0.125c0.042-0.042,0.084-0.084,0.125-0.125
		c0.042-0.042,0.084-0.084,0.125-0.125c0.042-0.042,0.084-0.084,0.125-0.125c0.042-0.042,0.084-0.084,0.125-0.125
		c0.042-0.042,0.084-0.084,0.125-0.125c0.042-0.042,0.084-0.084,0.125-0.125c0.042-0.042,0.084-0.084,0.125-0.125
		c0.042-0.042,0.084-0.084,0.125-0.125c0.042-0.042,0.084-0.084,0.125-0.125c0.042-0.042,0.084-0.084,0.125-0.125
		c0.042-0.042,0.084-0.084,0.125-0.125c0.042-0.042,0.084-0.084,0.125-0.125c0.042-0.042,0.084-0.084,0.125-0.125
		c0.042-0.042,0.084-0.084,0.125-0.125c0.042-0.042,0.084-0.084,0.125-0.125c0.042-0.042,0.084-0.084,0.125-0.125
		c0.042-0.042,0.084-0.084,0.125-0.125c0.042-0.042,0.084-0.084,0.125-0.125c0.042-0.042,0.084-0.084,0.125-0.125
		c0.042-0.042,0.084-0.084,0.125-0.125c0.042-0.042,0.084-0.084,0.125-0.125c0.042-0.042,0.084-0.084,0.125-0.125
		c0.042-0.042,0.084-0.084,0.125-0.125c0.042-0.042,0.084-0.084,0.125-0.125c0.042-0.042,0.084-0.084,0.125-0.125
		c0.042-0.042,0.084-0.084,0.125-0.125c0.042-0.042,0.084-0.084,0.125-0.125c0.042-0.042,0.084-0.084,0.125-0.125
		c0.042-0.042,0.084-0.084,0.125-0.125c0.042-0.042,0.084-0.084,0.125-0.125c0.042-0.042,0.084-0.084,0.125-0.125
		c0.042-0.042,0.084-0.084,0.125-0.125c0.042-0.042,0.084-0.084,0.125-0.125c0.042-0.042,0.084-0.084,0.125-0.125
		c0.042-0.042,0.084-0.084,0.125-0.125c0.042-0.042,0.084-0.084,0.125-0.125c0.042-0.042,0.084-0.084,0.125-0.125
		c0.042-0.042,0.084-0.084,0.125-0.125c0.042-0.042,0.084-0.084,0.125-0.125c0.042-0.042,0.084-0.084,0.125-0.125
		c0.042-0.042,0.084-0.084,0.125-0.125c0.042-0.042,0.084-0.084,0.125-0.125c0.042-0.042,0.084-0.084,0.125-0.125
		c0.042-0.042,0.084-0.084,0.125-0.125c0.042-0.042,0.084-0.084,0.125-0.125c0.042-0.042,0.084-0.084,0.125-0.125
		c0.042-0.042,0.084-0.084,0.125-0.125c0.042-0.042,0.084-0.084,0.125-0.125c0.042-0.042,0.084-0.084,0.125-0.125
		c0.042-0.042,0.084-0.084,0.125-0.125c0.042-0.042,0.084-0.084,0.125-0.125c0.042-0.042,0.084-0.084,0.125-0.125
		c0.042-0.042,0.084-0.084,0.125-0.125c0.042-0.042,0.084-0.084,0.125-0.125c0.042-0.042,0.084-0.084,0.125-0.125
		c0.042-0.042,0.084-0.084,0.125-0.125c0.042-0.042,0.084-0.084,0.125-0.125c0.042-0.042,0.084-0.084,0.125-0.125
		c0.042-0.042,0.084-0.084,0.125-0.125c0.042-0.042,0.084-0.084,0.125-0.125c0.042-0.042,0.084-0.084,0.125-0.125
		c0.042-0.042,0.084-0.084,0.125-0.125c0.042-0.042,0.084-0.084,0.125-0.125c0.042-0.042,0.084-0.084,0.125-0.125
		c0.042-0.042,0.084-0.084,0.125-0.125c0.042-0.042,0.084-0.084,0.125-0.125c0.042-0.042,0.084-0.084,0.125-0.125
		c0.042-0.042,0.084-0.084,0.125-0.125c0.042-0.042,0.084-0.084,0.125-0.125c0.042-0.042,0.084-0.084,0.125-0.125
		c0.042-0.042,0.084-0.084,0.125-0.125c0.042-0.042,0.084-0.084,0.125-0.125c0.042-0.042,0.084-0.084,0.125-0.125
		C97.196,79.162,101.421,69.763,101.421,59.375z"/>
</g>
<g>
	<path fill="#FFFFFF" d="M83,58.625C83,58.28,82.721,58,82.375,58h-1.75C80.279,58,80,58.28,80,58.625v7.75
		C80,66.721,80.279,67,80.625,67h1.75C82.721,67,83,66.721,83,66.375V58.625z"/>
	<path fill="#FFFFFF" d="M88,58.625C88,58.28,87.721,58,87.375,58h-1.75C85.279,58,85,58.28,85,58.625v7.75
		C85,66.721,85.279,67,85.625,67h1.75C87.721,67,88,66.721,88,66.375V58.625z"/>
	<path fill="#FFFFFF" d="M77.869,43.688c-3.659,0-5.011-1.729-5.011-5.813c-4.791,4.75-2.36,10.25,3.875,10.25
		c6.469,0,6.042,2.875,6.042,5.875C89.265,46.844,82.108,43.688,77.869,43.688z"/>
	<path fill="#FFFFFF" d="M63.921,21.875c-20.71,0-37.5,16.789-37.5,37.5s16.79,37.5,37.5,37.5c20.71,0,37.5-16.789,37.5-37.5
		S84.631,21.875,63.921,21.875z M42.708,80.588c-5.667-5.666-8.787-13.199-8.787-21.213c0-6.719,2.195-12.851,6.245-18.077
		L56.618,58H40.483C40.138,58,40,57.78,40,58.125v7.5C40,65.971,40.138,66,40.483,66h24.884l16.881,17.006
		c-5.227,4.049-11.607,6.307-18.327,6.307C55.908,89.313,48.374,86.254,42.708,80.588z M87.567,77.719L75.975,66h0.759
		C77.078,66,77,65.971,77,65.625v-7.5C77,57.78,77.078,58,76.733,58h-9.509L45.453,35.979c5.252-4.119,11.689-6.479,18.468-6.479
		c8.013,0,15.547,3.058,21.213,8.725c5.667,5.666,8.787,13.106,8.787,21.119C93.921,66.123,91.687,72.466,87.567,77.719z"/>
</g>
</svg>
