<?xml version="1.0" encoding="utf-8"?>
<!-- Generator: Adobe Illustrator 16.0.3, SVG Export Plug-In . SVG Version: 6.00 Build 0)  -->
<!DOCTYPE svg PUBLIC "-//W3C//DTD SVG 1.1//EN" "http://www.w3.org/Graphics/SVG/1.1/DTD/svg11.dtd">
<svg version="1.1" id="Layer_1" xmlns="http://www.w3.org/2000/svg" xmlns:xlink="http://www.w3.org/1999/xlink" x="0px" y="0px"
	 width="128px" height="128px" viewBox="0 0 128 128" enable-background="new 0 0 128 128" xml:space="preserve">
<path fill="#444953" class="bg" d="M128,25c0-13.807-11.193-25-25.002-25H25.002C11.194,0,0,11.193,0,25v78c0,13.807,11.194,25,25.002,25
	h77.996C116.807,128,128,116.807,128,103V25z"/>
<g>
	<g>
		<defs>
			<path id="SVGID_1_" d="M128,25c0-13.807-11.193-25-25.002-25H25.002C11.194,0,0,11.193,0,25v78c0,13.807,11.194,25,25.002,25
				h77.996C116.807,128,128,116.807,128,103V25z"/>
		</defs>
		<clipPath id="SVGID_2_">
			<use xlink:href="#SVGID_1_"  overflow="visible"/>
		</clipPath>
		<path clip-path="url(#SVGID_2_)" fill="#353A42" class="shadow" enable-background="new    " d="M90.871,22H37.129
			c-0.675,0-1.281,0.065-1.715,0.555c-0.042,0.042-0.085-0.044-0.125,0c-0.042,0.042-0.085,0.018-0.125,0.063
			c-0.042,0.042-0.085,0.049-0.125,0.094c-0.042,0.042-0.085,0.065-0.125,0.109c-0.042,0.042-0.085,0.073-0.125,0.117
			c-0.042,0.042-0.085,0.077-0.125,0.121c-0.042,0.042-0.085,0.079-0.125,0.123c-0.042,0.042-0.085,0.08-0.125,0.124
			c-0.042,0.042-0.085,0.08-0.125,0.125c-0.042,0.042-0.085,0.08-0.125,0.124c-0.042,0.042-0.086,0.081-0.125,0.125
			c-0.042,0.042-0.085,0.081-0.125,0.125c-0.042,0.042-0.085,0.081-0.125,0.125c-0.042,0.042-0.085,0.081-0.125,0.125
			c-0.042,0.042-0.085,0.081-0.125,0.125c-0.042,0.042-0.085,0.081-0.125,0.125c-0.042,0.042-0.085,0.081-0.125,0.125
			c-0.042,0.042-0.085,0.081-0.125,0.125c-0.042,0.042-0.085,0.081-0.125,0.125c-0.042,0.042-0.085,0.081-0.125,0.125
			c-0.042,0.042-0.085,0.081-0.125,0.125c-0.042,0.042-0.085,0.081-0.125,0.125c-0.042,0.042-0.085,0.081-0.125,0.125
			c-0.042,0.042-0.085,0.081-0.125,0.125c-0.042,0.042-0.085,0.081-0.125,0.125c-0.042,0.042-0.085,0.081-0.125,0.125
			c-0.042,0.042-0.085,0.081-0.125,0.125c-0.042,0.042-0.085,0.081-0.125,0.125c-0.042,0.042-0.085,0.081-0.125,0.125
			c-0.042,0.042-0.085,0.081-0.125,0.125c-0.042,0.042-0.085,0.081-0.125,0.125c-0.042,0.041-0.085,0.08-0.125,0.124
			c-0.042,0.042-0.086,0.081-0.125,0.126c-0.042,0.042-0.086,0.081-0.125,0.125c-0.042,0.042-0.086,0.081-0.125,0.125
			c-0.042,0.042-0.086,0.081-0.125,0.125c-0.042,0.042-0.086,0.081-0.125,0.125c-0.042,0.042-0.086,0.081-0.125,0.125
			c-0.042,0.042-0.086,0.081-0.125,0.125c-0.042,0.042-0.086,0.081-0.125,0.125c-0.042,0.042-0.085,0.08-0.125,0.125
			c-0.042,0.042-0.086,0.081-0.126,0.125c-0.042,0.042-0.085,0.081-0.125,0.125c-0.042,0.042-0.085,0.081-0.125,0.125
			c-0.042,0.042-0.085,0.081-0.125,0.125c-0.042,0.042-0.085,0.081-0.125,0.125c-0.042,0.042-0.085,0.081-0.125,0.125
			c-0.042,0.042-0.085,0.081-0.125,0.125c-0.042,0.042-0.085,0.081-0.125,0.125c-0.042,0.042-0.085,0.081-0.125,0.125
			c-0.042,0.042-0.085,0.08-0.125,0.125c-0.042,0.042-0.086,0.081-0.125,0.125c-0.042,0.042-0.085,0.081-0.125,0.125
			c-0.042,0.042-0.085,0.081-0.125,0.125c-0.042,0.042-0.085,0.081-0.125,0.125c-0.042,0.042-0.085,0.081-0.125,0.125
			c-0.042,0.042-0.085,0.081-0.125,0.125c-0.042,0.042-0.085,0.081-0.125,0.125c-0.042,0.042-0.085,0.081-0.125,0.125
			c-0.042,0.042-0.085,0.081-0.125,0.125c-0.042,0.042-0.085,0.081-0.125,0.125c-0.042,0.042-0.085,0.081-0.125,0.125
			c-0.042,0.042-0.085,0.081-0.125,0.125c-0.042,0.042-0.085,0.081-0.125,0.125c-0.042,0.042-0.085,0.081-0.125,0.125
			c-0.042,0.042-0.085,0.081-0.125,0.125c-0.042,0.042-0.085,0.081-0.125,0.125c-0.042,0.042-0.085,0.081-0.125,0.125
			c-0.042,0.042-0.085,0.081-0.125,0.125c-0.042,0.042-0.085,0.081-0.125,0.125c-0.042,0.042-0.085,0.081-0.125,0.125
			c-0.042,0.042-0.085,0.081-0.125,0.125c-0.042,0.041-0.085,0.08-0.125,0.124c-0.042,0.042-0.086,0.081-0.125,0.126
			c-0.042,0.042-0.086,0.081-0.125,0.125c-0.042,0.042-0.086,0.081-0.125,0.125c-0.042,0.042-0.086,0.081-0.125,0.125
			c-0.042,0.042-0.086,0.081-0.125,0.125c-0.042,0.042-0.086,0.081-0.125,0.125c-0.042,0.042-0.086,0.081-0.125,0.125
			c-0.042,0.042-0.085,0.08-0.125,0.125c-0.042,0.042-0.086,0.081-0.126,0.125c-0.042,0.042-0.085,0.081-0.125,0.125
			c-0.042,0.042-0.085,0.081-0.125,0.125c-0.042,0.042-0.085,0.081-0.125,0.125c-0.042,0.042-0.085,0.081-0.125,0.125
			c-0.042,0.042-0.085,0.081-0.125,0.125c-0.042,0.042-0.085,0.081-0.125,0.125c-0.042,0.042-0.085,0.081-0.125,0.125
			c-0.042,0.042-0.085,0.081-0.125,0.125c-0.042,0.042-0.085,0.081-0.125,0.125c-0.042,0.042-0.085,0.08-0.125,0.125
			c-0.042,0.042-0.086,0.081-0.125,0.125c-0.042,0.042-0.085,0.081-0.125,0.125c-0.042,0.042-0.085,0.081-0.125,0.125
			c-0.042,0.042-0.085,0.081-0.125,0.125c-0.042,0.042-0.085,0.081-0.125,0.125c-0.042,0.042-0.085,0.081-0.125,0.125
			c-0.042,0.042-0.085,0.081-0.125,0.125c-0.042,0.042-0.085,0.081-0.125,0.125c-0.042,0.042-0.085,0.081-0.125,0.125
			c-0.042,0.042-0.085,0.081-0.125,0.125c-0.042,0.042-0.085,0.081-0.125,0.125c-0.042,0.042-0.085,0.081-0.125,0.125
			c-0.042,0.042-0.085,0.081-0.125,0.125c-0.042,0.042-0.085,0.081-0.125,0.125c-0.042,0.042-0.085,0.081-0.125,0.125
			c-0.042,0.042-0.085,0.081-0.125,0.125c-0.042,0.042-0.085,0.081-0.125,0.125c-0.042,0.042-0.085,0.081-0.125,0.125
			c-0.042,0.042-0.085,0.081-0.125,0.125c-0.042,0.042-0.085,0.081-0.125,0.125c-0.042,0.042-0.085,0.081-0.125,0.125
			c-0.042,0.041-0.085,0.08-0.125,0.124c-0.042,0.042-0.086,0.081-0.125,0.126c-0.042,0.042-0.086,0.081-0.125,0.125
			c-0.042,0.042-0.086,0.081-0.125,0.125c-0.042,0.042-0.086,0.081-0.125,0.125c-0.042,0.042-0.086,0.081-0.125,0.125
			c-0.042,0.042-0.086,0.081-0.125,0.125c-0.042,0.042-0.086,0.081-0.125,0.125c-0.042,0.042-0.086,0.081-0.125,0.125
			c-0.042,0.042-0.085,0.08-0.125,0.125c-0.042,0.042-0.086,0.081-0.126,0.125c-0.042,0.042-0.085,0.081-0.125,0.125
			c-0.042,0.042-0.085,0.081-0.125,0.125c-0.042,0.042-0.085,0.081-0.125,0.125c-0.042,0.042-0.085,0.081-0.125,0.125
			c-0.042,0.042-0.085,0.081-0.125,0.125c-0.042,0.042-0.085,0.081-0.125,0.125c-0.042,0.042-0.085,0.081-0.125,0.125
			c-0.042,0.042-0.085,0.081-0.125,0.125c-0.042,0.042-0.085,0.08-0.125,0.125c-0.042,0.042-0.086,0.081-0.125,0.125
			c-0.042,0.042-0.085,0.081-0.125,0.125c-0.042,0.042-0.085,0.081-0.125,0.125c-0.042,0.042-0.085,0.081-0.125,0.125
			c-0.042,0.042-0.085,0.081-0.125,0.125c-0.042,0.042-0.085,0.081-0.125,0.125c-0.042,0.042-0.085,0.081-0.125,0.125
			c-0.042,0.042-0.085,0.081-0.125,0.125c-0.042,0.042-0.085,0.081-0.125,0.125c-0.042,0.042-0.085,0.081-0.125,0.125
			c-0.042,0.042-0.085,0.081-0.125,0.125c-0.042,0.042-0.085,0.081-0.125,0.125c-0.042,0.042-0.085,0.081-0.125,0.125
			c-0.042,0.042-0.085,0.081-0.125,0.125c-0.042,0.042-0.085,0.081-0.125,0.125c-0.042,0.042-0.085,0.081-0.125,0.125
			c-0.042,0.042-0.085,0.081-0.125,0.125c-0.042,0.042-0.085,0.081-0.125,0.125c-0.042,0.042-0.085,0.081-0.125,0.125
			c-0.042,0.042-0.085,0.081-0.125,0.125c-0.042,0.042-0.085,0.081-0.125,0.125c-0.042,0.041-0.085,0.08-0.125,0.124
			c-0.042,0.042-0.086,0.081-0.125,0.126c-0.042,0.042-0.086,0.081-0.125,0.125c-0.042,0.042-0.086,0.081-0.125,0.125
			c-0.042,0.042-0.086,0.081-0.125,0.125c-0.042,0.042-0.086,0.081-0.125,0.125c-0.042,0.042-0.086,0.081-0.125,0.125
			c-0.042,0.042-0.086,0.081-0.125,0.125c-0.042,0.042-0.085,0.08-0.125,0.125c-0.042,0.042-0.086,0.081-0.126,0.125
			c-0.042,0.042-0.085,0.081-0.125,0.125c-0.042,0.042-0.085,0.081-0.125,0.125c-0.042,0.042-0.085,0.081-0.125,0.125
			c-0.042,0.042-0.085,0.081-0.125,0.125c-0.042,0.042-0.085,0.081-0.125,0.125c-0.042,0.042-0.085,0.081-0.125,0.125
			c-0.042,0.042-0.085,0.081-0.125,0.125c-0.042,0.042-0.085,0.081-0.125,0.125c-0.042,0.042-0.085,0.081-0.125,0.125
			c-0.042,0.042-0.085,0.08-0.125,0.125c-0.042,0.042-0.086,0.081-0.125,0.125c-0.042,0.042-0.085,0.081-0.125,0.125
			c-0.042,0.042-0.085,0.081-0.125,0.125c-0.042,0.042-0.085,0.081-0.125,0.125c-0.042,0.042-0.085,0.081-0.125,0.125
			c-0.042,0.042-0.085,0.081-0.125,0.125c-0.042,0.042-0.085,0.081-0.125,0.125c-0.042,0.042-0.085,0.081-0.125,0.125
			c-0.042,0.042-0.085,0.081-0.125,0.125c-0.042,0.042-0.085,0.081-0.125,0.125c-0.042,0.042-0.085,0.081-0.125,0.125
			c-0.042,0.042-0.085,0.081-0.125,0.125c-0.042,0.042-0.085,0.081-0.125,0.125c-0.042,0.042-0.085,0.081-0.125,0.125
			c-0.042,0.042-0.085,0.081-0.125,0.125c-0.042,0.042-0.085,0.081-0.125,0.125c-0.042,0.042-0.085,0.081-0.125,0.125
			c-0.042,0.042-0.085,0.081-0.125,0.125c-0.042,0.042-0.085,0.081-0.125,0.125c-0.042,0.042-0.085,0.081-0.125,0.125
			c-0.042,0.042-0.085,0.081-0.125,0.125c-0.042,0.041-0.085,0.08-0.125,0.124c-0.042,0.042-0.086,0.081-0.125,0.126
			c-0.042,0.042-0.086,0.081-0.125,0.125c-0.042,0.042-0.086,0.081-0.125,0.125c-0.042,0.042-0.086,0.081-0.125,0.125
			c-0.042,0.042-0.086,0.081-0.125,0.125c-0.042,0.042-0.086,0.081-0.125,0.125c-0.042,0.042-0.086,0.081-0.125,0.125
			c-0.042,0.042-0.086,0.081-0.125,0.125c-0.042,0.042-0.085,0.08-0.125,0.125c-0.042,0.042-0.086,0.081-0.126,0.125
			c-0.042,0.042-0.085,0.081-0.125,0.125c-0.042,0.042-0.085,0.081-0.125,0.125c-0.042,0.042-0.085,0.081-0.125,0.125
			c-0.042,0.042-0.085,0.081-0.125,0.125c-0.042,0.042-0.085,0.081-0.125,0.125c-0.042,0.042-0.085,0.081-0.125,0.125
			c-0.042,0.042-0.085,0.081-0.125,0.125c-0.042,0.042-0.085,0.081-0.125,0.125c-0.042,0.042-0.085,0.08-0.125,0.125
			c-0.042,0.042-0.086,0.081-0.125,0.125c-0.042,0.042-0.085,0.081-0.125,0.125c-0.042,0.042-0.085,0.081-0.125,0.125
			c-0.042,0.042-0.085,0.081-0.125,0.125c-0.042,0.042-0.085,0.081-0.125,0.125c-0.042,0.042-0.085,0.081-0.125,0.125
			c-0.042,0.042-0.085,0.081-0.125,0.125c-0.042,0.042-0.085,0.081-0.125,0.125c-0.042,0.042-0.085,0.081-0.125,0.125
			c-0.042,0.042-0.085,0.081-0.125,0.125c-0.042,0.042-0.085,0.081-0.125,0.125c-0.042,0.042-0.085,0.081-0.125,0.125
			c-0.042,0.042-0.085,0.081-0.125,0.125c-0.042,0.042-0.085,0.081-0.125,0.125c-0.042,0.042-0.085,0.081-0.125,0.125
			c-0.042,0.042-0.085,0.081-0.125,0.125c-0.042,0.042-0.085,0.081-0.125,0.125c-0.042,0.042-0.085,0.081-0.125,0.125
			c-0.042,0.042-0.085,0.081-0.125,0.125c-0.042,0.042-0.085,0.081-0.125,0.125c-0.042,0.042-0.085,0.081-0.125,0.125
			c-0.042,0.041-0.085,0.08-0.125,0.124c-0.042,0.042-0.086,0.081-0.125,0.126c-0.042,0.042-0.086,0.081-0.125,0.125
			c-0.042,0.042-0.086,0.081-0.125,0.125c-0.042,0.042-0.086,0.081-0.125,0.125c-0.042,0.042-0.086,0.081-0.125,0.125
			c-0.042,0.042-0.086,0.081-0.125,0.125c-0.042,0.042-0.086,0.081-0.125,0.125c-0.042,0.042-0.085,0.08-0.125,0.125
			c-0.042,0.042-0.086,0.081-0.126,0.125c-0.042,0.042-0.085,0.081-0.125,0.125c-0.042,0.042-0.085,0.081-0.125,0.125
			c-0.042,0.042-0.085,0.081-0.125,0.125c-0.042,0.042-0.085,0.081-0.125,0.125c-0.042,0.042-0.085,0.081-0.125,0.125
			c-0.042,0.042-0.085,0.081-0.125,0.125c-0.042,0.042-0.085,0.081-0.125,0.125c-0.042,0.042-0.085,0.081-0.125,0.125
			c-0.042,0.042-0.085,0.081-0.125,0.125c-0.042,0.042-0.085,0.08-0.125,0.125c-0.042,0.042-0.086,0.081-0.125,0.125
			c-0.042,0.042-0.085,0.081-0.125,0.125c-0.042,0.042-0.085,0.081-0.125,0.125c-0.042,0.042-0.085,0.081-0.125,0.125
			c-0.042,0.042-0.085,0.081-0.125,0.125c-0.042,0.042-0.085,0.081-0.125,0.125c-0.042,0.042-0.085,0.081-0.125,0.125
			c-0.042,0.042-0.085,0.081-0.125,0.125c-0.042,0.042-0.085,0.081-0.125,0.125c-0.042,0.042-0.085,0.081-0.125,0.125
			c-0.042,0.042-0.085,0.081-0.125,0.125c-0.042,0.042-0.085,0.081-0.125,0.125c-0.042,0.042-0.085,0.081-0.125,0.125
			c-0.042,0.042-0.085,0.081-0.125,0.125c-0.042,0.042-0.085,0.081-0.125,0.125c-0.042,0.042-0.085,0.081-0.125,0.125
			c-0.042,0.042-0.085,0.081-0.125,0.125c-0.042,0.042-0.085,0.081-0.125,0.125c-0.042,0.042-0.085,0.081-0.125,0.125
			c-0.042,0.042-0.085,0.081-0.125,0.125c-0.042,0.042-0.085,0.081-0.125,0.125c-0.042,0.041-0.085,0.08-0.125,0.124
			c-0.042,0.042-0.086,0.081-0.125,0.126c-0.042,0.042-0.086,0.081-0.125,0.125c-0.042,0.042-0.086,0.081-0.125,0.125
			c-0.042,0.042-0.086,0.081-0.125,0.125c-0.042,0.042-0.086,0.081-0.125,0.125c-0.042,0.042-0.086,0.081-0.125,0.125
			c-0.042,0.042-0.086,0.081-0.125,0.125c-0.042,0.042-0.085,0.08-0.125,0.125c-0.042,0.042-0.086,0.081-0.126,0.125
			c-0.042,0.042-0.085,0.081-0.125,0.125c-0.042,0.042-0.085,0.081-0.125,0.125c-0.042,0.042-0.085,0.081-0.125,0.125
			c-0.042,0.042-0.085,0.081-0.125,0.125c-0.042,0.042-0.085,0.081-0.125,0.125c-0.042,0.042-0.085,0.081-0.125,0.125
			c-0.042,0.042-0.085,0.081-0.125,0.125c-0.042,0.042-0.085,0.081-0.125,0.125c-0.042,0.042-0.085,0.081-0.125,0.125
			c-0.042,0.042-0.085,0.08-0.125,0.125c-0.042,0.042-0.086,0.081-0.125,0.125c-0.042,0.042-0.207,0.081-0.247,0.125
			C-2.568,60.155-3,60.83-3,61.567v70C-3,132.947-1.69,134-0.375,134h53.742c0.688,0,1.302-0.292,1.737-0.764
			c0.043-0.041,0.085-0.082,0.125-0.125c0.043-0.041,0.085-0.082,0.125-0.125c0.043-0.041,0.085-0.082,0.125-0.125
			c0.043-0.041,0.085-0.082,0.125-0.125c0.043-0.041,0.085-0.082,0.125-0.125c0.043-0.041,0.085-0.082,0.125-0.125
			c0.043-0.041,0.085-0.082,0.125-0.125c0.043-0.041,0.085-0.082,0.125-0.125c0.043-0.041,0.085-0.082,0.125-0.125
			c0.043-0.041,0.085-0.082,0.125-0.125c0.043-0.041,0.085-0.082,0.125-0.125c0.043-0.041,0.085-0.082,0.125-0.125
			c0.043-0.041,0.085-0.082,0.125-0.125c0.043-0.041,0.085-0.082,0.125-0.125c0.043-0.041,0.085-0.082,0.125-0.125
			c0.043-0.041,0.085-0.082,0.125-0.125c0.043-0.041,0.085-0.082,0.125-0.125c0.043-0.041,0.085-0.082,0.125-0.125
			c0.043-0.041,0.085-0.082,0.125-0.125c0.043-0.041,0.085-0.082,0.125-0.125c0.043-0.041,0.085-0.082,0.125-0.125
			c0.043-0.041,0.085-0.082,0.125-0.125c0.043-0.041,0.085-0.082,0.125-0.125c0.043-0.041,0.084-0.082,0.125-0.125
			c0.043-0.041,0.086-0.082,0.126-0.125c0.043-0.041,0.084-0.082,0.125-0.125c0.043-0.041,0.084-0.082,0.125-0.125
			c0.043-0.041,0.084-0.082,0.125-0.125c0.043-0.041,0.084-0.082,0.125-0.125c0.043-0.041,0.084-0.082,0.125-0.125
			c0.043-0.041,0.084-0.082,0.125-0.125c0.043-0.041,0.084-0.082,0.124-0.125c0.043-0.041,0.085-0.082,0.126-0.125
			c0.043-0.041,0.085-0.082,0.125-0.125c0.043-0.041,0.085-0.082,0.125-0.125c0.043-0.041,0.085-0.082,0.125-0.125
			c0.043-0.041,0.085-0.082,0.125-0.125c0.043-0.041,0.085-0.082,0.125-0.125c0.043-0.041,0.085-0.082,0.125-0.125
			c0.043-0.041,0.085-0.082,0.125-0.125c0.043-0.041,0.085-0.082,0.125-0.125c0.043-0.041,0.085-0.082,0.125-0.125
			c0.043-0.041,0.085-0.082,0.125-0.125c0.043-0.041,0.085-0.082,0.125-0.125c0.043-0.041,0.085-0.082,0.125-0.125
			c0.043-0.041,0.085-0.082,0.125-0.125c0.043-0.041,0.085-0.082,0.125-0.125c0.043-0.041,0.085-0.082,0.125-0.125
			c0.043-0.041,0.085-0.082,0.125-0.125c0.043-0.041,0.085-0.082,0.125-0.125c0.043-0.041,0.085-0.082,0.125-0.125
			c0.043-0.041,0.085-0.082,0.125-0.125c0.043-0.041,0.085-0.082,0.125-0.125c0.043-0.041,0.085-0.082,0.125-0.125
			c0.043-0.041,0.085-0.082,0.125-0.125c0.043-0.041,0.085-0.082,0.125-0.125c0.043-0.041,0.085-0.082,0.125-0.125
			c0.043-0.041,0.085-0.082,0.125-0.125c0.043-0.041,0.085-0.082,0.125-0.125c0.043-0.041,0.085-0.082,0.125-0.125
			c0.043-0.041,0.085-0.082,0.125-0.125c0.043-0.041,0.085-0.082,0.125-0.125c0.043-0.041,0.085-0.082,0.125-0.125
			c0.043-0.041,0.085-0.082,0.125-0.125c0.043-0.041,0.085-0.082,0.125-0.125c0.043-0.041,0.085-0.082,0.125-0.125
			c0.043-0.041,0.085-0.082,0.125-0.125c0.043-0.041,0.085-0.082,0.125-0.125c0.043-0.041,0.085-0.082,0.125-0.125
			c0.043-0.041,0.085-0.082,0.125-0.125c0.043-0.041,0.085-0.082,0.125-0.125c0.043-0.041,0.085-0.082,0.125-0.125
			c0.043-0.041,0.085-0.082,0.125-0.125c0.043-0.041,0.085-0.082,0.125-0.125c0.043-0.041,0.085-0.082,0.125-0.125
			c0.043-0.041,0.084-0.082,0.125-0.125c0.043-0.041,0.084-0.082,0.125-0.125c0.043-0.041,0.084-0.082,0.125-0.125
			c0.043-0.041,0.084-0.082,0.125-0.125c0.043-0.041,0.084-0.082,0.125-0.125c0.043-0.041,0.084-0.082,0.125-0.125
			c0.043-0.041,0.084-0.082,0.125-0.125c0.043-0.041,0.084-0.082,0.125-0.125c0.043-0.041,0.084-0.082,0.125-0.125
			c0.043-0.041,0.084-0.082,0.125-0.125c0.043-0.041,0.084-0.082,0.125-0.125c0.043-0.041,0.084-0.082,0.125-0.125
			c0.043-0.041,0.084-0.082,0.125-0.125c0.043-0.041,0.084-0.082,0.125-0.125c0.043-0.041,0.084-0.082,0.125-0.125
			c0.043-0.041,0.084-0.082,0.125-0.125c0.043-0.041,0.084-0.082,0.125-0.125c0.043-0.041,0.084-0.082,0.125-0.125
			c0.043-0.041,0.084-0.082,0.125-0.125c0.043-0.041,0.084-0.082,0.125-0.125c0.043-0.041,0.084-0.082,0.125-0.125
			c0.043-0.041,0.084-0.082,0.125-0.125c0.043-0.041,0.084-0.082,0.125-0.125c0.043-0.041,0.084-0.082,0.125-0.125
			c0.043-0.041,0.084-0.082,0.125-0.125c0.043-0.041,0.084-0.082,0.125-0.125c0.043-0.041,0.084-0.082,0.125-0.125
			c0.043-0.041,0.084-0.082,0.125-0.125c0.043-0.041,0.084-0.082,0.125-0.125c0.043-0.041,0.084-0.082,0.125-0.125
			c0.043-0.041,0.084-0.082,0.123-0.125c0.045-0.041,0.086-0.082,0.127-0.125c0.043-0.041,0.084-0.082,0.125-0.125
			c0.043-0.041,0.084-0.082,0.125-0.125c0.043-0.041,0.084-0.082,0.125-0.125c0.043-0.041,0.084-0.082,0.125-0.125
			c0.043-0.041,0.084-0.082,0.125-0.125c0.043-0.041,0.084-0.082,0.125-0.125c0.043-0.041,0.084-0.082,0.125-0.125
			c0.043-0.041,0.084-0.082,0.125-0.125c0.043-0.041,0.084-0.082,0.125-0.125c0.043-0.041,0.086-0.082,0.125-0.125
			c0.043-0.041,0.086-0.082,0.125-0.125c0.043-0.041,0.086-0.082,0.125-0.125c0.043-0.041,0.086-0.082,0.125-0.125
			c0.043-0.041,0.086-0.082,0.125-0.125c0.043-0.041,0.086-0.082,0.125-0.125c0.043-0.041,0.086-0.082,0.125-0.125
			c0.043-0.041,0.086-0.082,0.125-0.125c0.043-0.041,0.084-0.082,0.125-0.125c0.043-0.041,0.086-0.082,0.125-0.125
			c0.043-0.041,0.086-0.082,0.125-0.125c0.043-0.041,0.086-0.082,0.125-0.125c0.043-0.041,0.086-0.082,0.125-0.125
			c0.043-0.041,0.086-0.082,0.125-0.125c0.043-0.041,0.086-0.082,0.125-0.125c0.043-0.041,0.086-0.082,0.125-0.125
			c0.043-0.041,0.086-0.082,0.125-0.125c0.043-0.041,0.086-0.082,0.125-0.125c0.043-0.041,0.086-0.082,0.125-0.125
			c0.043-0.041,0.086-0.082,0.125-0.125c0.043-0.041,0.086-0.082,0.125-0.125c0.043-0.041,0.086-0.082,0.125-0.125
			c0.043-0.041,0.086-0.082,0.125-0.125c0.043-0.041,0.086-0.082,0.125-0.125c0.043-0.041,0.086-0.082,0.125-0.125
			c0.043-0.041,0.086-0.082,0.125-0.125c0.043-0.041,0.086-0.082,0.125-0.125c0.043-0.041,0.086-0.082,0.125-0.125
			c0.043-0.041,0.086-0.082,0.125-0.125c0.043-0.041,0.086-0.082,0.125-0.125c0.043-0.041,0.086-0.082,0.125-0.125
			c0.043-0.041,0.086-0.082,0.125-0.125c0.043-0.041,0.086-0.082,0.125-0.125c0.043-0.041,0.086-0.082,0.125-0.125
			c0.043-0.041,0.086-0.082,0.125-0.125c0.043-0.041,0.086-0.082,0.125-0.125c0.043-0.041,0.086-0.082,0.125-0.125
			c0.043-0.041,0.086-0.082,0.125-0.125c0.043-0.041,0.086-0.082,0.125-0.125c0.043-0.041,0.086-0.082,0.125-0.125
			c0.043-0.041,0.086-0.082,0.125-0.125c0.043-0.041,0.086-0.082,0.125-0.125c0.043-0.041,0.086-0.082,0.125-0.125
			c0.043-0.041,0.086-0.082,0.125-0.125c0.043-0.041,0.086-0.082,0.125-0.125c0.043-0.041,0.086-0.082,0.125-0.125
			c0.043-0.041,0.086-0.082,0.125-0.125c0.043-0.041,0.086-0.082,0.125-0.125c0.043-0.041,0.086-0.082,0.125-0.125
			c0.043-0.041,0.086-0.082,0.125-0.125c0.043-0.041,0.086-0.082,0.125-0.125c0.043-0.041,0.086-0.082,0.125-0.125
			c0.043-0.041,0.086-0.082,0.125-0.125c0.043-0.041,0.086-0.082,0.125-0.125c0.043-0.041,0.086-0.082,0.125-0.125
			c0.043-0.041,0.086-0.082,0.125-0.125c0.043-0.041,0.086-0.082,0.125-0.125c0.043-0.041,0.086-0.082,0.125-0.125
			c0.043-0.041,0.086-0.082,0.125-0.125c0.043-0.041,0.086-0.082,0.125-0.125c0.043-0.041,0.086-0.082,0.125-0.125
			c0.043-0.041,0.086-0.082,0.125-0.125c0.043-0.041,0.086-0.082,0.125-0.125c0.043-0.041,0.086-0.082,0.125-0.125
			c0.043-0.041,0.086-0.082,0.125-0.125c0.043-0.041,0.086-0.082,0.125-0.125c0.043-0.041,0.086-0.082,0.125-0.125
			c0.043-0.041,0.086-0.082,0.125-0.125c0.043-0.041,0.086-0.082,0.125-0.125c0.043-0.041,0.086-0.082,0.125-0.125
			c0.043-0.041,0.086-0.082,0.125-0.125c0.043-0.041,0.084-0.082,0.125-0.125c0.043-0.041,0.086-0.082,0.125-0.125
			c0.045-0.041,0.086-0.082,0.125-0.125c0.045-0.041,0.086-0.082,0.125-0.125c0.045-0.041,0.086-0.082,0.125-0.125
			c0.045-0.041,0.086-0.082,0.125-0.125c0.045-0.041,0.086-0.082,0.125-0.125c0.045-0.041,0.086-0.082,0.125-0.125
			c0.043-0.041,0.086-0.082,0.125-0.125c0.043-0.041,0.086-0.082,0.127-0.125c0.043-0.041,0.084-0.082,0.125-0.125
			c0.043-0.041,0.084-0.082,0.125-0.125c0.043-0.041,0.084-0.082,0.125-0.125c0.043-0.041,0.084-0.082,0.125-0.125
			c0.043-0.041,0.084-0.082,0.125-0.125c0.043-0.041,0.084-0.082,0.125-0.125c0.043-0.041,0.084-0.082,0.125-0.125
			c0.043-0.041,0.084-0.082,0.125-0.125c0.043-0.041,0.084-0.082,0.125-0.125c0.043-0.041,0.084-0.082,0.123-0.125
			c0.045-0.041,0.086-0.082,0.127-0.125c0.043-0.041,0.084-0.082,0.125-0.125c0.043-0.041,0.084-0.082,0.125-0.125
			c0.043-0.041,0.084-0.082,0.125-0.125c0.043-0.041,0.084-0.082,0.125-0.125c0.043-0.041,0.084-0.082,0.125-0.125
			c0.043-0.041,0.084-0.082,0.125-0.125c0.043-0.041,0.084-0.082,0.125-0.125c0.043-0.041,0.084-0.082,0.125-0.125
			c0.043-0.041,0.084-0.082,0.125-0.125c0.043-0.041,0.084-0.082,0.125-0.125c0.043-0.041,0.084-0.082,0.125-0.125
			c0.043-0.041,0.084-0.082,0.125-0.125c0.043-0.041,0.084-0.082,0.125-0.125c0.043-0.041,0.084-0.082,0.125-0.125
			c0.043-0.041,0.084-0.082,0.125-0.125c0.043-0.041,0.084-0.082,0.125-0.125c0.043-0.041,0.084-0.082,0.125-0.125
			c0.043-0.041,0.084-0.082,0.125-0.125c0.043-0.041,0.084-0.082,0.125-0.125c0.043-0.041,0.084-0.082,0.125-0.125
			c0.043-0.041,0.084-0.082,0.125-0.125c0.043-0.041,0.084-0.082,0.125-0.125c0.043-0.041,0.084-0.082,0.125-0.125
			c0.043-0.041,0.084-0.082,0.125-0.125c0.043-0.041,0.084-0.082,0.125-0.125c0.043-0.041,0.084-0.082,0.125-0.125
			c0.043-0.041,0.084-0.082,0.125-0.125c0.043-0.041,0.084-0.082,0.125-0.125c0.043-0.041,0.084-0.082,0.125-0.125
			c0.043-0.041,0.084-0.082,0.125-0.125c0.043-0.041,0.084-0.082,0.125-0.125c0.043-0.041,0.084-0.082,0.125-0.125
			c0.043-0.041,0.084-0.082,0.125-0.125c0.043-0.041,0.084-0.082,0.125-0.125c0.043-0.041,0.084-0.082,0.125-0.125
			c0.043-0.041,0.084-0.082,0.125-0.125c0.043-0.041,0.084-0.082,0.125-0.125c0.043-0.041,0.084-0.082,0.125-0.125
			c0.043-0.041,0.084-0.082,0.125-0.125c0.043-0.041,0.084-0.082,0.125-0.125c0.043-0.041,0.084-0.082,0.125-0.125
			c0.043-0.041,0.084-0.082,0.125-0.125c0.043-0.041,0.084-0.082,0.125-0.125c0.043-0.041,0.084-0.082,0.125-0.125
			c0.043-0.041,0.084-0.082,0.125-0.125c0.043-0.041,0.084-0.082,0.125-0.125c0.043-0.041,0.084-0.082,0.125-0.125
			c0.043-0.041,0.084-0.082,0.125-0.125c0.043-0.041,0.084-0.082,0.125-0.125c0.043-0.041,0.084-0.082,0.125-0.125
			c0.043-0.041,0.084-0.082,0.125-0.125c0.043-0.041,0.084-0.082,0.125-0.125c0.043-0.041,0.084-0.082,0.125-0.125
			c0.043-0.041,0.084-0.082,0.125-0.125c0.043-0.041,0.084-0.082,0.125-0.125c0.043-0.041,0.084-0.082,0.125-0.125
			c0.043-0.041,0.084-0.082,0.125-0.125c0.043-0.041,0.084-0.082,0.125-0.125c0.043-0.041,0.084-0.082,0.125-0.125
			c0.043-0.041,0.084-0.082,0.125-0.125c0.043-0.041,0.084-0.082,0.125-0.125c0.043-0.041,0.084-0.082,0.123-0.125
			c0.045-0.041,0.086-0.082,0.127-0.125c0.043-0.041,0.084-0.082,0.125-0.125c0.043-0.041,0.084-0.082,0.125-0.125
			c0.043-0.041,0.084-0.082,0.125-0.125c0.043-0.041,0.084-0.082,0.125-0.125c0.043-0.041,0.084-0.082,0.125-0.125
			c0.043-0.041,0.084-0.082,0.125-0.125c0.043-0.041,0.084-0.082,0.125-0.125c0.043-0.041,0.084-0.082,0.125-0.125
			c0.043-0.041,0.084-0.082,0.125-0.125c0.043-0.041,0.086-0.082,0.125-0.125c0.043-0.041,0.086-0.082,0.125-0.125
			c0.043-0.041,0.086-0.082,0.125-0.125c0.043-0.041,0.086-0.082,0.125-0.125c0.043-0.041,0.086-0.082,0.125-0.125
			c0.043-0.041,0.086-0.082,0.125-0.125c0.043-0.041,0.086-0.082,0.125-0.125c0.043-0.041,0.086-0.082,0.125-0.125
			c0.043-0.041,0.084-0.082,0.125-0.125c0.043-0.041,0.086-0.082,0.125-0.125c0.043-0.041,0.086-0.082,0.125-0.125
			c0.043-0.041,0.086-0.082,0.125-0.125c0.043-0.041,0.086-0.082,0.125-0.125c0.043-0.041,0.086-0.082,0.125-0.125
			c0.043-0.041,0.086-0.082,0.125-0.125c0.043-0.041,0.086-0.082,0.125-0.125c0.043-0.041,0.086-0.082,0.125-0.125
			c0.043-0.041,0.086-0.082,0.125-0.125c0.043-0.041-0.041-0.082,0-0.125C92.826,95.422,93,94.792,93,94.066v-70
			C93,22.686,92.188,22,90.871,22z"/>
	</g>
</g>
<g>
	<path fill="#FFFFFF" d="M68.682,47H59v9h9.682c0.92,0,1.68-0.441,2.176-0.937C71.566,54.357,72,52.901,72,51.129v-0.11
		c0-1.735-0.434-2.775-1.143-3.481C70.359,47.043,69.6,47,68.682,47z"/>
	<path fill="#FFFFFF" d="M93,24.067C93,22.686,92.188,22,90.871,22H37.129C35.813,22,35,22.686,35,24.067v70
		C35,95.447,35.813,97,37.129,97h53.742C92.188,97,93,95.447,93,94.066V24.067z M80,51.212c0,3.458-0.854,6.423-2.421,8.585
		C75.949,62.049,73.005,64,68.947,64C68.904,64,59,64,59,64v12.078C59,76.77,58.984,78,58.293,78h-5.526
		C52.076,78,51,76.77,51,76.078V39.774C51,39.083,52.076,39,52.767,39c0,0,12.036,0,16.047,0c3.774,0,7.133,1.251,8.765,3.502
		C79.145,44.665,80,47.441,80,50.936V51.212z"/>
</g>
</svg>
