<?xml version="1.0" encoding="utf-8"?>
<!-- Generator: Adobe Illustrator 16.0.3, SVG Export Plug-In . SVG Version: 6.00 Build 0)  -->
<!DOCTYPE svg PUBLIC "-//W3C//DTD SVG 1.1//EN" "http://www.w3.org/Graphics/SVG/1.1/DTD/svg11.dtd">
<svg version="1.1" id="Layer_1" xmlns="http://www.w3.org/2000/svg" xmlns:xlink="http://www.w3.org/1999/xlink" x="0px" y="0px"
	 width="128px" height="128px" viewBox="0 0 128 128" enable-background="new 0 0 128 128" xml:space="preserve">
<path fill="#444953" class="bg" d="M128,25c0-13.807-11.182-25-24.99-25H25.002C11.194,0,0,11.193,0,25v78c0,13.807,11.194,25,25.002,25h78.007
	c13.81,0,24.99-11.193,24.99-25L128,25L128,25z"/>
<g>
	<g>
		<defs>
			<path id="SVGID_1_" d="M128,25c0-13.807-11.182-25-24.99-25H25.002C11.194,0,0,11.193,0,25v78c0,13.807,11.194,25,25.002,25
				h78.007c13.81,0,24.99-11.193,24.99-25L128,25L128,25z"/>
		</defs>
		<clipPath id="SVGID_2_">
			<use xlink:href="#SVGID_1_"  overflow="visible"/>
		</clipPath>
		<path clip-path="url(#SVGID_2_)" fill="#353A42" class="shadow" d="M101.743,59.375c0-20.711-16.791-37.5-37.503-37.5
			c-0.104,0-0.208,0.003-0.313,0.004c-0.104-0.001-0.208-0.004-0.313-0.004c-10.388,0-19.788,4.225-26.58,11.047
			c-0.042,0.042-0.083,0.083-0.125,0.125s-0.083,0.083-0.125,0.125s-0.083,0.083-0.125,0.125s-0.083,0.083-0.125,0.125
			s-0.083,0.083-0.125,0.125s-0.083,0.083-0.125,0.125s-0.083,0.083-0.125,0.125s-0.083,0.083-0.125,0.125s-0.083,0.083-0.125,0.125
			s-0.083,0.083-0.125,0.125s-0.083,0.083-0.125,0.125s-0.083,0.083-0.125,0.125s-0.083,0.083-0.125,0.125s-0.083,0.083-0.125,0.125
			s-0.083,0.083-0.125,0.125s-0.083,0.083-0.125,0.125s-0.083,0.083-0.125,0.125s-0.083,0.083-0.125,0.125s-0.083,0.083-0.125,0.125
			s-0.083,0.083-0.125,0.125s-0.083,0.083-0.125,0.125s-0.083,0.083-0.125,0.125s-0.083,0.083-0.125,0.125
			c-0.041,0.041-0.082,0.082-0.123,0.123c-0.042,0.042-0.085,0.085-0.127,0.127s-0.083,0.083-0.125,0.125s-0.083,0.083-0.125,0.125
			s-0.083,0.083-0.125,0.125s-0.083,0.083-0.125,0.125s-0.083,0.083-0.125,0.125s-0.083,0.083-0.125,0.125s-0.083,0.083-0.125,0.125
			s-0.083,0.083-0.125,0.125s-0.083,0.083-0.125,0.125c-0.042,0.041-0.083,0.082-0.124,0.123c-0.042,0.042-0.084,0.084-0.127,0.127
			c-0.042,0.042-0.083,0.083-0.125,0.125s-0.083,0.083-0.125,0.125s-0.083,0.083-0.125,0.125s-0.083,0.083-0.125,0.125
			s-0.083,0.083-0.125,0.125s-0.083,0.083-0.125,0.125s-0.083,0.083-0.125,0.125s-0.083,0.083-0.125,0.125s-0.083,0.083-0.125,0.125
			s-0.083,0.083-0.125,0.125s-0.083,0.083-0.125,0.125s-0.083,0.083-0.125,0.125s-0.083,0.083-0.125,0.125s-0.083,0.083-0.125,0.125
			s-0.083,0.083-0.125,0.125s-0.083,0.083-0.125,0.125s-0.083,0.083-0.125,0.125s-0.083,0.083-0.125,0.125s-0.083,0.083-0.125,0.125
			s-0.083,0.083-0.125,0.125s-0.083,0.083-0.125,0.125s-0.083,0.083-0.125,0.125s-0.083,0.083-0.125,0.125s-0.083,0.083-0.125,0.125
			s-0.083,0.083-0.125,0.125s-0.083,0.083-0.125,0.125s-0.083,0.083-0.125,0.125s-0.083,0.083-0.125,0.125
			c-0.041,0.041-0.082,0.082-0.123,0.123c-0.042,0.042-0.085,0.085-0.127,0.127s-0.083,0.083-0.125,0.125s-0.083,0.083-0.125,0.125
			s-0.083,0.083-0.125,0.125s-0.083,0.083-0.125,0.125s-0.083,0.083-0.125,0.125s-0.083,0.083-0.125,0.125s-0.083,0.083-0.125,0.125
			s-0.083,0.083-0.125,0.125s-0.083,0.083-0.125,0.125s-0.083,0.083-0.125,0.125c-0.042,0.041-0.083,0.082-0.124,0.123
			c-0.042,0.042-0.084,0.084-0.126,0.126s-0.084,0.083-0.126,0.125s-0.083,0.083-0.125,0.125s-0.083,0.083-0.125,0.125
			s-0.083,0.083-0.125,0.125s-0.083,0.083-0.125,0.125s-0.083,0.083-0.125,0.125s-0.083,0.083-0.125,0.125s-0.083,0.083-0.125,0.125
			s-0.083,0.083-0.125,0.125s-0.083,0.083-0.125,0.125s-0.083,0.083-0.125,0.125s-0.083,0.083-0.125,0.125s-0.083,0.083-0.125,0.125
			s-0.083,0.083-0.125,0.125s-0.083,0.083-0.125,0.125s-0.083,0.083-0.125,0.125s-0.083,0.083-0.125,0.125s-0.083,0.083-0.125,0.125
			s-0.083,0.083-0.125,0.125s-0.083,0.083-0.125,0.125s-0.083,0.083-0.125,0.125s-0.083,0.083-0.125,0.125s-0.083,0.083-0.125,0.125
			s-0.083,0.083-0.125,0.125s-0.083,0.083-0.125,0.125s-0.083,0.083-0.125,0.125s-0.083,0.083-0.125,0.125
			c-0.041,0.041-0.082,0.082-0.123,0.123c-0.042,0.042-0.085,0.085-0.127,0.127s-0.083,0.083-0.125,0.125s-0.083,0.083-0.125,0.125
			s-0.083,0.083-0.125,0.125s-0.083,0.083-0.125,0.125s-0.083,0.083-0.125,0.125s-0.083,0.083-0.125,0.125s-0.083,0.083-0.125,0.125
			s-0.083,0.083-0.125,0.125s-0.083,0.083-0.125,0.125c-0.042,0.041-0.083,0.082-0.124,0.123c-0.042,0.042-0.084,0.084-0.127,0.127
			c-0.042,0.042-0.083,0.083-0.125,0.125s-0.083,0.083-0.125,0.125s-0.083,0.083-0.125,0.125s-0.083,0.083-0.125,0.125
			s-0.083,0.083-0.125,0.125s-0.083,0.083-0.125,0.125s-0.083,0.083-0.125,0.125s-0.083,0.083-0.125,0.125s-0.083,0.083-0.125,0.125
			s-0.083,0.083-0.125,0.125s-0.083,0.083-0.125,0.125s-0.083,0.083-0.125,0.125s-0.083,0.083-0.125,0.125s-0.083,0.083-0.125,0.125
			s-0.083,0.083-0.125,0.125s-0.083,0.083-0.125,0.125s-0.083,0.083-0.125,0.125s-0.083,0.083-0.125,0.125s-0.083,0.083-0.125,0.125
			s-0.083,0.083-0.125,0.125s-0.083,0.083-0.125,0.125s-0.083,0.083-0.125,0.125s-0.083,0.083-0.125,0.125s-0.083,0.083-0.125,0.125
			s-0.083,0.083-0.125,0.125s-0.083,0.083-0.125,0.125s-0.083,0.083-0.125,0.125s-0.083,0.083-0.125,0.125
			c-0.041,0.041-0.082,0.082-0.123,0.123c-0.042,0.042-0.085,0.085-0.127,0.127s-0.083,0.083-0.125,0.125s-0.083,0.083-0.125,0.125
			s-0.083,0.083-0.125,0.125s-0.083,0.083-0.125,0.125s-0.083,0.083-0.125,0.125s-0.083,0.083-0.125,0.125s-0.083,0.083-0.125,0.125
			s-0.083,0.083-0.125,0.125s-0.083,0.083-0.125,0.125s-0.083,0.083-0.125,0.125c-0.042,0.041-0.083,0.082-0.124,0.123
			c-0.042,0.042-0.084,0.084-0.126,0.126s-0.084,0.083-0.126,0.125s-0.083,0.083-0.125,0.125s-0.083,0.083-0.125,0.125
			s-0.083,0.083-0.125,0.125s-0.083,0.083-0.125,0.125s-0.083,0.083-0.125,0.125s-0.083,0.083-0.125,0.125s-0.083,0.083-0.125,0.125
			s-0.083,0.083-0.125,0.125s-0.083,0.083-0.125,0.125s-0.083,0.083-0.125,0.125s-0.083,0.083-0.125,0.125s-0.083,0.083-0.125,0.125
			s-0.083,0.083-0.125,0.125s-0.083,0.083-0.125,0.125s-0.083,0.083-0.125,0.125s-0.083,0.083-0.125,0.125s-0.083,0.083-0.125,0.125
			s-0.083,0.083-0.125,0.125s-0.083,0.083-0.125,0.125s-0.083,0.083-0.125,0.125s-0.083,0.083-0.125,0.125s-0.083,0.083-0.125,0.125
			s-0.083,0.083-0.125,0.125s-0.083,0.083-0.125,0.125s-0.083,0.083-0.125,0.125s-0.083,0.083-0.125,0.125
			c-0.041,0.041-0.082,0.082-0.123,0.123c-0.042,0.042-0.085,0.085-0.127,0.127s-0.083,0.083-0.125,0.125s-0.083,0.083-0.125,0.125
			s-0.083,0.083-0.125,0.125s-0.083,0.083-0.125,0.125s-0.083,0.083-0.125,0.125s-0.083,0.083-0.125,0.125s-0.083,0.083-0.125,0.125
			s-0.083,0.083-0.125,0.125s-0.083,0.083-0.125,0.125c-0.042,0.041-0.083,0.082-0.124,0.123c-0.042,0.042-0.084,0.084-0.127,0.127
			c-0.042,0.042-0.083,0.083-0.125,0.125s-0.083,0.083-0.125,0.125s-0.083,0.083-0.125,0.125s-0.083,0.083-0.125,0.125
			s-0.083,0.083-0.125,0.125s-0.083,0.083-0.125,0.125s-0.083,0.083-0.125,0.125s-0.083,0.083-0.125,0.125s-0.083,0.083-0.125,0.125
			s-0.083,0.083-0.125,0.125s-0.083,0.083-0.125,0.125s-0.083,0.083-0.125,0.125s-0.083,0.083-0.125,0.125s-0.083,0.083-0.125,0.125
			s-0.083,0.083-0.125,0.125s-0.083,0.083-0.125,0.125s-0.083,0.083-0.125,0.125s-0.083,0.083-0.125,0.125s-0.083,0.083-0.125,0.125
			s-0.083,0.083-0.125,0.125s-0.083,0.083-0.125,0.125s-0.083,0.083-0.125,0.125s-0.083,0.083-0.125,0.125s-0.083,0.083-0.125,0.125
			s-0.083,0.083-0.125,0.125s-0.083,0.083-0.125,0.125s-0.083,0.083-0.125,0.125s-0.083,0.083-0.125,0.125
			c-0.041,0.041-0.082,0.082-0.123,0.123c-0.042,0.042-0.085,0.085-0.127,0.127s-0.083,0.083-0.125,0.125s-0.083,0.083-0.125,0.125
			s-0.083,0.083-0.125,0.125s-0.083,0.083-0.125,0.125s-0.083,0.083-0.125,0.125s-0.083,0.083-0.125,0.125s-0.083,0.083-0.125,0.125
			s-0.083,0.083-0.125,0.125s-0.083,0.083-0.125,0.125s-0.083,0.083-0.125,0.125c-0.042,0.041-0.083,0.082-0.124,0.123
			c-0.042,0.042-0.084,0.084-0.126,0.126s-0.084,0.083-0.126,0.125s-0.083,0.083-0.125,0.125s-0.083,0.083-0.125,0.125
			s-0.083,0.083-0.125,0.125s-0.083,0.083-0.125,0.125s-0.083,0.083-0.125,0.125s-0.083,0.083-0.125,0.125s-0.083,0.083-0.125,0.125
			s-0.083,0.083-0.125,0.125s-0.083,0.083-0.125,0.125s-0.083,0.083-0.125,0.125s-0.083,0.083-0.125,0.125s-0.083,0.083-0.125,0.125
			s-0.083,0.083-0.125,0.125s-0.083,0.083-0.125,0.125c-0.042,0.041-0.083,0.083-0.125,0.125c-0.042,0.041-0.083,0.083-0.125,0.125
			c-0.042,0.041-0.083,0.083-0.125,0.125c-0.042,0.041-0.083,0.083-0.125,0.125c-0.042,0.041-0.083,0.083-0.125,0.125
			c-0.042,0.041-0.083,0.083-0.125,0.125c-0.042,0.041-0.083,0.083-0.125,0.125c-0.042,0.041-0.083,0.083-0.125,0.125
			c-0.042,0.041-0.083,0.083-0.125,0.125c-0.042,0.041-0.083,0.083-0.125,0.125c-0.042,0.041-0.083,0.083-0.125,0.125
			c-0.041,0.04-0.082,0.081-0.123,0.122c-0.042,0.043-0.085,0.085-0.127,0.128c-0.042,0.041-0.083,0.083-0.125,0.125
			c-0.042,0.041-0.083,0.083-0.125,0.125c-0.042,0.041-0.083,0.083-0.125,0.125c-0.042,0.041-0.083,0.083-0.125,0.125
			c-0.042,0.041-0.083,0.083-0.125,0.125c-0.042,0.041-0.083,0.083-0.125,0.125c-0.042,0.041-0.083,0.083-0.125,0.125
			c-0.042,0.041-0.083,0.083-0.125,0.125c-0.042,0.041-0.083,0.083-0.125,0.125c-0.042,0.041-0.083,0.083-0.125,0.125
			C1.986,67.96,1.945,68,1.904,68.042c-0.042,0.042-0.084,0.084-0.127,0.127c-0.042,0.041-0.083,0.082-0.125,0.124
			s-0.083,0.084-0.125,0.126c-0.042,0.041-0.083,0.083-0.125,0.125c-0.042,0.041-0.083,0.083-0.125,0.125
			c-0.042,0.041-0.083,0.083-0.125,0.125c-0.042,0.041-0.083,0.083-0.125,0.125c-0.042,0.041-0.083,0.083-0.125,0.125
			c-0.042,0.041-0.083,0.083-0.125,0.125c-0.042,0.041-0.083,0.083-0.125,0.125c-0.042,0.041-0.083,0.083-0.125,0.125
			c-0.042,0.041-0.083,0.083-0.125,0.125c-0.042,0.041-0.083,0.083-0.125,0.125c-0.042,0.041-0.083,0.083-0.125,0.125
			c-0.042,0.041-0.083,0.083-0.125,0.125c-0.042,0.041-0.083,0.083-0.125,0.125c-0.042,0.041-0.083,0.083-0.125,0.125
			c-0.042,0.041-0.083,0.083-0.125,0.125c-0.042,0.041-0.083,0.083-0.125,0.125c-0.042,0.041-0.083,0.083-0.125,0.125
			c-0.042,0.041-0.083,0.083-0.125,0.125c-0.042,0.041-0.083,0.083-0.125,0.125c-0.042,0.041-0.083,0.083-0.125,0.125
			c-0.042,0.041-0.083,0.083-0.125,0.125c-0.042,0.041-0.083,0.083-0.125,0.125c-0.042,0.041-0.083,0.083-0.125,0.125
			c-0.042,0.041-0.083,0.083-0.125,0.125c-0.042,0.041-0.083,0.083-0.125,0.125c-0.042,0.041-0.083,0.083-0.125,0.125
			c-0.041,0.04-0.082,0.081-0.123,0.122c-0.042,0.043-0.085,0.085-0.127,0.128c-0.042,0.041-0.083,0.083-0.125,0.125
			c-0.042,0.041-0.083,0.083-0.125,0.125c-0.042,0.041-0.083,0.083-0.125,0.125c-0.042,0.041-0.083,0.083-0.125,0.125
			c-0.042,0.041-0.083,0.083-0.125,0.125c-0.042,0.041-0.083,0.083-0.125,0.125c-0.042,0.041-0.083,0.083-0.125,0.125
			c-6.824,6.791-11.049,16.19-11.049,26.577c0,20.711,16.792,37.5,37.504,37.5c0.104,0,0.208-0.003,0.313-0.004
			c0.104,0.001,0.208,0.004,0.313,0.004c10.388,0,19.789-4.225,26.58-11.048c0.042-0.041,0.083-0.083,0.125-0.125
			c0.042-0.041,0.083-0.083,0.125-0.125c0.042-0.041,0.083-0.083,0.125-0.125c0.042-0.041,0.083-0.083,0.125-0.125
			c0.042-0.041,0.083-0.083,0.125-0.125c0.042-0.041,0.083-0.083,0.125-0.125c0.042-0.041,0.083-0.083,0.125-0.125
			c0.042-0.041,0.083-0.083,0.125-0.125c0.042-0.041,0.083-0.083,0.125-0.125c0.042-0.041,0.083-0.083,0.125-0.125
			c0.042-0.041,0.083-0.083,0.125-0.125c0.042-0.041,0.083-0.083,0.125-0.125c0.042-0.041,0.083-0.083,0.125-0.125
			c0.042-0.041,0.083-0.083,0.125-0.125c0.042-0.041,0.083-0.083,0.125-0.125c0.042-0.041,0.083-0.083,0.125-0.125
			c0.042-0.041,0.083-0.083,0.125-0.125c0.041-0.04,0.082-0.081,0.123-0.122c0.042-0.043,0.085-0.085,0.127-0.128
			c0.042-0.041,0.083-0.083,0.125-0.125c0.042-0.041,0.083-0.083,0.125-0.125c0.042-0.041,0.083-0.083,0.125-0.125
			c0.042-0.041,0.083-0.083,0.125-0.125c0.042-0.041,0.083-0.083,0.125-0.125c0.042-0.041,0.083-0.083,0.125-0.125
			c0.041-0.04,0.082-0.081,0.123-0.122c0.043-0.043,0.085-0.085,0.128-0.128c0.042-0.041,0.083-0.083,0.125-0.125
			c0.041-0.041,0.082-0.081,0.123-0.123c0.042-0.042,0.085-0.084,0.127-0.127c0.042-0.041,0.083-0.082,0.125-0.124
			s0.084-0.084,0.125-0.126c0.042-0.041,0.083-0.083,0.125-0.125c0.042-0.041,0.083-0.083,0.125-0.125
			c0.042-0.041,0.083-0.083,0.125-0.125c0.042-0.041,0.083-0.083,0.125-0.125c0.042-0.041,0.083-0.083,0.125-0.125
			c0.042-0.041,0.083-0.083,0.125-0.125c0.042-0.041,0.083-0.083,0.125-0.125c0.042-0.041,0.083-0.083,0.125-0.125
			c0.042-0.041,0.083-0.083,0.125-0.125c0.042-0.041,0.083-0.083,0.125-0.125c0.042-0.041,0.083-0.083,0.125-0.125
			c0.042-0.041,0.083-0.083,0.125-0.125c0.042-0.041,0.083-0.083,0.125-0.125c0.042-0.041,0.083-0.083,0.125-0.125
			c0.042-0.041,0.083-0.083,0.125-0.125c0.042-0.041,0.083-0.083,0.125-0.125c0.042-0.041,0.083-0.083,0.125-0.125
			c0.042-0.041,0.083-0.083,0.125-0.125c0.042-0.041,0.083-0.083,0.125-0.125c0.042-0.041,0.083-0.083,0.125-0.125
			c0.042-0.041,0.083-0.083,0.125-0.125c0.042-0.041,0.083-0.083,0.125-0.125c0.042-0.041,0.083-0.083,0.125-0.125
			c0.042-0.041,0.083-0.083,0.125-0.125c0.042-0.041,0.083-0.083,0.125-0.125c0.042-0.041,0.083-0.083,0.125-0.125
			c0.042-0.041,0.083-0.083,0.125-0.125c0.042-0.041,0.083-0.083,0.125-0.125c0.042-0.041,0.083-0.083,0.125-0.125
			c0.042-0.041,0.083-0.083,0.125-0.125c0.042-0.041,0.083-0.083,0.125-0.125c0.042-0.041,0.083-0.083,0.125-0.125
			c0.042-0.041,0.083-0.083,0.125-0.125c0.042-0.041,0.083-0.083,0.125-0.125c0.042-0.041,0.083-0.083,0.125-0.125
			c0.042-0.041,0.083-0.083,0.125-0.125c0.042-0.041,0.083-0.083,0.125-0.125c0.042-0.041,0.083-0.081,0.124-0.123
			c0.042-0.042,0.084-0.084,0.127-0.127c0.042-0.041,0.083-0.082,0.125-0.124s0.083-0.084,0.125-0.126
			c0.042-0.041,0.083-0.083,0.125-0.125c0.042-0.041,0.083-0.083,0.125-0.125c0.042-0.041,0.083-0.083,0.125-0.125
			c0.042-0.041,0.083-0.083,0.125-0.125c0.042-0.041,0.083-0.083,0.125-0.125c0.042-0.041,0.083-0.083,0.125-0.125
			c0.042-0.041,0.083-0.083,0.125-0.125c0.042-0.041,0.083-0.083,0.125-0.125c0.042-0.041,0.083-0.083,0.125-0.125
			c0.042-0.041,0.083-0.083,0.125-0.125c0.042-0.041,0.083-0.083,0.125-0.125c0.042-0.041,0.083-0.083,0.125-0.125
			c0.042-0.041,0.083-0.083,0.125-0.125c0.042-0.041,0.083-0.083,0.125-0.125c0.042-0.041,0.083-0.083,0.125-0.125
			c0.042-0.041,0.083-0.083,0.125-0.125c0.042-0.041,0.083-0.083,0.125-0.125c0.042-0.041,0.083-0.083,0.125-0.125
			c0.042-0.041,0.083-0.083,0.125-0.125c0.042-0.041,0.083-0.083,0.125-0.125c0.042-0.041,0.083-0.083,0.125-0.125
			c0.042-0.041,0.083-0.083,0.125-0.125c0.042-0.041,0.083-0.083,0.125-0.125c0.042-0.041,0.083-0.083,0.125-0.125
			c0.042-0.041,0.083-0.083,0.125-0.125c0.042-0.041,0.083-0.083,0.125-0.125c0.042-0.041,0.083-0.083,0.125-0.125
			c0.042-0.041,0.083-0.083,0.125-0.125c0.042-0.041,0.083-0.083,0.125-0.125c0.042-0.041,0.083-0.083,0.125-0.125
			c0.042-0.041,0.083-0.083,0.125-0.125c0.042-0.041,0.083-0.083,0.125-0.125c0.042-0.041,0.083-0.083,0.125-0.125
			c0.042-0.041,0.083-0.083,0.125-0.125c0.042-0.041,0.083-0.083,0.125-0.125c0.042-0.041,0.083-0.083,0.125-0.125
			c0.042-0.041,0.083-0.083,0.125-0.125c0.041-0.041,0.082-0.081,0.123-0.123c0.043-0.042,0.086-0.084,0.127-0.127
			c0.043-0.041,0.084-0.082,0.125-0.124c0.043-0.042,0.084-0.084,0.127-0.126c0.041-0.041,0.082-0.083,0.125-0.125
			c0.041-0.041,0.082-0.083,0.125-0.125c0.041-0.041,0.082-0.083,0.125-0.125c0.041-0.041,0.082-0.083,0.125-0.125
			c0.041-0.041,0.082-0.083,0.125-0.125c0.041-0.041,0.082-0.083,0.125-0.125c0.041-0.041,0.082-0.083,0.125-0.125
			c0.041-0.041,0.082-0.083,0.125-0.125c0.041-0.041,0.082-0.083,0.125-0.125c0.041-0.041,0.082-0.083,0.125-0.125
			c0.041-0.041,0.082-0.083,0.125-0.125c0.041-0.041,0.082-0.083,0.125-0.125c0.041-0.041,0.082-0.083,0.125-0.125
			c0.041-0.041,0.082-0.083,0.125-0.125c0.041-0.041,0.082-0.083,0.125-0.125c0.041-0.041,0.082-0.083,0.125-0.125
			c0.041-0.041,0.082-0.083,0.125-0.125c0.041-0.041,0.082-0.083,0.125-0.125c0.041-0.041,0.082-0.083,0.125-0.125
			c0.041-0.041,0.082-0.083,0.125-0.125c0.041-0.041,0.082-0.083,0.125-0.125c0.041-0.041,0.082-0.083,0.125-0.125
			c0.041-0.041,0.082-0.083,0.125-0.125c0.041-0.041,0.082-0.083,0.125-0.125c0.041-0.041,0.082-0.083,0.125-0.125
			c0.039-0.039,0.08-0.079,0.119-0.119c0.043-0.044,0.088-0.087,0.131-0.131c0.041-0.041,0.084-0.083,0.125-0.125
			c0.041-0.041,0.084-0.083,0.125-0.125c0.041-0.041,0.084-0.083,0.125-0.125c0.041-0.041,0.084-0.083,0.125-0.125
			c0.041-0.041,0.084-0.083,0.125-0.125c0.041-0.041,0.084-0.083,0.125-0.125c0.041-0.041,0.084-0.083,0.125-0.125
			c0.041-0.041,0.084-0.083,0.125-0.125c0.041-0.041,0.084-0.083,0.125-0.125c0.041-0.041,0.084-0.083,0.125-0.125
			c0.041-0.041,0.082-0.081,0.123-0.123c0.043-0.042,0.084-0.084,0.127-0.127c0.041-0.041,0.082-0.082,0.125-0.124
			c0.041-0.042,0.084-0.084,0.125-0.126c0.041-0.041,0.084-0.083,0.125-0.125c0.041-0.041,0.084-0.083,0.125-0.125
			c0.041-0.041,0.084-0.083,0.125-0.125c0.041-0.041,0.084-0.083,0.125-0.125c0.041-0.041,0.084-0.083,0.125-0.125
			c0.041-0.041,0.084-0.083,0.125-0.125c0.041-0.041,0.084-0.083,0.125-0.125c0.041-0.041,0.084-0.083,0.125-0.125
			c0.041-0.041,0.084-0.083,0.125-0.125c0.041-0.041,0.084-0.083,0.125-0.125c0.041-0.041,0.084-0.083,0.125-0.125
			c0.041-0.041,0.084-0.083,0.125-0.125c0.041-0.041,0.084-0.083,0.125-0.125c0.041-0.041,0.084-0.083,0.125-0.125
			c0.041-0.041,0.084-0.083,0.125-0.125c0.041-0.041,0.084-0.083,0.125-0.125c0.041-0.041,0.084-0.083,0.125-0.125
			c0.041-0.041,0.084-0.083,0.125-0.125c0.041-0.041,0.084-0.083,0.125-0.125c0.041-0.041,0.084-0.083,0.125-0.125
			c0.041-0.041,0.084-0.083,0.125-0.125c0.041-0.041,0.084-0.083,0.125-0.125c0.041-0.041,0.084-0.083,0.125-0.125
			c0.041-0.041,0.084-0.083,0.125-0.125c0.041-0.041,0.084-0.083,0.125-0.125c0.041-0.041,0.084-0.083,0.125-0.125
			c0.041-0.04,0.08-0.079,0.119-0.119c0.045-0.044,0.088-0.087,0.131-0.131c0.043-0.041,0.084-0.083,0.125-0.125
			c0.043-0.041,0.084-0.083,0.125-0.125c0.043-0.041,0.084-0.083,0.125-0.125c0.043-0.041,0.084-0.083,0.125-0.125
			c0.043-0.041,0.084-0.083,0.125-0.125c0.043-0.041,0.084-0.083,0.125-0.125c0.043-0.041,0.084-0.083,0.125-0.125
			c0.043-0.041,0.084-0.083,0.125-0.125c0.043-0.041,0.084-0.083,0.125-0.125c0.041-0.04,0.082-0.08,0.121-0.121
			c0.043-0.043,0.086-0.085,0.129-0.129c0.043-0.041,0.084-0.082,0.125-0.124c0.043-0.042,0.084-0.084,0.125-0.126
			c0.043-0.041,0.084-0.083,0.125-0.125c0.043-0.041,0.084-0.083,0.125-0.125c0.043-0.041,0.084-0.083,0.125-0.125
			c0.043-0.041,0.084-0.083,0.125-0.125c0.043-0.041,0.084-0.083,0.125-0.125c0.043-0.041,0.084-0.083,0.125-0.125
			c0.043-0.041,0.084-0.083,0.125-0.125c0.043-0.041,0.084-0.083,0.125-0.125c0.043-0.041,0.084-0.083,0.125-0.125
			c0.043-0.041,0.084-0.083,0.125-0.125c0.043-0.041,0.084-0.083,0.125-0.125c0.043-0.041,0.084-0.083,0.125-0.125
			c0.043-0.041,0.084-0.083,0.125-0.125c0.043-0.041,0.084-0.083,0.125-0.125c0.043-0.041,0.084-0.083,0.125-0.125
			c0.043-0.041,0.084-0.083,0.125-0.125c0.043-0.041,0.084-0.083,0.125-0.125c0.043-0.041,0.084-0.083,0.125-0.125
			c0.043-0.041,0.084-0.083,0.125-0.125c0.043-0.041,0.084-0.083,0.125-0.125c0.043-0.041,0.084-0.083,0.125-0.125
			c0.043-0.041,0.084-0.083,0.125-0.125c0.043-0.041,0.084-0.083,0.125-0.125c0.043-0.041,0.084-0.083,0.125-0.125
			c0.043-0.041,0.084-0.083,0.125-0.125c0.043-0.041,0.084-0.083,0.125-0.125c0.043-0.041,0.084-0.083,0.125-0.125
			c0.043-0.041,0.084-0.083,0.125-0.125c0.043-0.041,0.084-0.083,0.125-0.125c0.043-0.041,0.084-0.083,0.125-0.125
			c0.043-0.041,0.084-0.083,0.125-0.125c0.043-0.041,0.084-0.083,0.125-0.125c0.043-0.041,0.084-0.083,0.125-0.125
			c0.043-0.041,0.084-0.083,0.125-0.125c0.043-0.041,0.084-0.083,0.125-0.125c0.043-0.041,0.084-0.083,0.125-0.125
			c0.043-0.041,0.084-0.083,0.125-0.125c0.043-0.041,0.084-0.083,0.125-0.125c0.043-0.041,0.084-0.083,0.125-0.125
			c0.043-0.041,0.084-0.082,0.125-0.124c0.043-0.042,0.084-0.084,0.125-0.126c0.043-0.041,0.084-0.083,0.125-0.125
			c0.043-0.041,0.084-0.083,0.125-0.125c0.043-0.041,0.084-0.083,0.125-0.125c0.043-0.041,0.084-0.083,0.125-0.125
			c0.043-0.041,0.084-0.083,0.125-0.125c0.043-0.041,0.084-0.083,0.125-0.125c0.043-0.041,0.084-0.083,0.125-0.125
			c0.043-0.041,0.084-0.083,0.125-0.125c0.043-0.041,0.084-0.083,0.125-0.125c0.043-0.041,0.084-0.083,0.125-0.125
			c0.043-0.041,0.084-0.083,0.125-0.125c0.043-0.041,0.084-0.083,0.125-0.125c0.043-0.041,0.084-0.083,0.125-0.125
			c0.043-0.041,0.084-0.083,0.125-0.125c0.043-0.041,0.084-0.083,0.125-0.125c0.043-0.041,0.084-0.083,0.125-0.125
			c0.043-0.041,0.084-0.083,0.125-0.125c0.043-0.041,0.084-0.083,0.125-0.125c0.043-0.041,0.084-0.083,0.125-0.125
			c0.043-0.041,0.084-0.083,0.125-0.125c0.043-0.041,0.084-0.083,0.125-0.125c0.043-0.041,0.084-0.083,0.125-0.125
			c0.043-0.041,0.084-0.083,0.125-0.125c0.043-0.041,0.084-0.083,0.125-0.125c0.043-0.041,0.084-0.083,0.125-0.125
			c0.043-0.041,0.084-0.083,0.125-0.125c0.043-0.041,0.084-0.083,0.125-0.125c0.043-0.041,0.084-0.083,0.125-0.125
			c0.043-0.041,0.084-0.083,0.125-0.125c0.043-0.041,0.084-0.083,0.125-0.125c0.043-0.041,0.084-0.083,0.125-0.125
			c0.043-0.041,0.084-0.083,0.125-0.125c0.043-0.041,0.084-0.083,0.125-0.125c0.043-0.041,0.084-0.083,0.125-0.125
			c0.043-0.041,0.084-0.083,0.125-0.125c0.043-0.041,0.084-0.083,0.125-0.125c0.043-0.041,0.084-0.083,0.125-0.125
			c0.043-0.041,0.084-0.083,0.125-0.125c0.043-0.041,0.084-0.083,0.125-0.125c0.043-0.041,0.084-0.082,0.125-0.124
			c0.043-0.042,0.084-0.084,0.125-0.126c0.043-0.041,0.084-0.083,0.125-0.125c0.043-0.041,0.084-0.083,0.125-0.125
			c0.043-0.041,0.084-0.083,0.125-0.125c0.043-0.041,0.084-0.083,0.125-0.125c0.043-0.041,0.084-0.083,0.125-0.125
			c0.043-0.041,0.084-0.083,0.125-0.125c0.043-0.041,0.084-0.083,0.125-0.125c0.043-0.041,0.084-0.083,0.125-0.125
			c0.043-0.041,0.084-0.083,0.125-0.125c0.043-0.041,0.084-0.083,0.125-0.125c0.043-0.041,0.084-0.083,0.125-0.125
			c0.043-0.041,0.084-0.083,0.125-0.125c0.043-0.041,0.084-0.083,0.125-0.125c0.043-0.041,0.084-0.083,0.125-0.125
			c0.043-0.041,0.084-0.083,0.125-0.125c0.043-0.041,0.084-0.083,0.125-0.125c0.043-0.041,0.084-0.083,0.125-0.125
			c0.043-0.041,0.084-0.083,0.125-0.125c0.043-0.041,0.084-0.083,0.125-0.125c0.043-0.041,0.084-0.083,0.125-0.125
			c0.043-0.041,0.084-0.083,0.125-0.125c0.043-0.041,0.084-0.083,0.125-0.125c0.043-0.041,0.084-0.083,0.125-0.125
			c0.043-0.041,0.084-0.083,0.125-0.125c0.043-0.041,0.084-0.083,0.125-0.125c0.041-0.04,0.082-0.079,0.121-0.119
			c0.043-0.044,0.088-0.087,0.131-0.131c0.041-0.041,0.082-0.083,0.125-0.125c0.041-0.041,0.082-0.083,0.125-0.125
			c0.041-0.041,0.082-0.083,0.125-0.125c0.041-0.041,0.082-0.083,0.125-0.125c0.041-0.041,0.082-0.083,0.125-0.125
			c0.041-0.041,0.082-0.083,0.125-0.125c0.041-0.041,0.082-0.083,0.125-0.125c0.041-0.041,0.082-0.083,0.125-0.125
			c0.041-0.041,0.082-0.083,0.125-0.125c0.041-0.041,0.082-0.083,0.125-0.125c0.039-0.04,0.08-0.08,0.121-0.121
			c0.043-0.043,0.086-0.085,0.129-0.129c0.041-0.041,0.082-0.082,0.125-0.124c0.041-0.042,0.084-0.084,0.125-0.126
			C97.52,79.161,101.743,69.762,101.743,59.375z"/>
	</g>
</g>
<g>
	<path fill="#FFFFFF" d="M64.24,21.875c-0.104,0-0.208,0.003-0.313,0.004c-0.104-0.001-0.208-0.004-0.313-0.004
		c-20.712,0-37.503,16.789-37.503,37.5s16.791,37.5,37.503,37.5c0.104,0,0.208-0.003,0.313-0.004
		c0.105,0.001,0.208,0.004,0.313,0.004c20.712,0,37.503-16.789,37.503-37.5S84.952,21.875,64.24,21.875z M43.024,80.588
		c-5.667-5.666-8.788-13.199-8.788-21.213c0-8.013,3.121-15.547,8.788-21.213c5.593-5.593,13.005-8.703,20.902-8.783
		c7.897,0.08,15.311,3.19,20.903,8.783c5.666,5.666,8.787,13.2,8.787,21.213c0,8.014-3.121,15.547-8.787,21.213
		c-5.595,5.594-13.006,8.703-20.903,8.783C56.03,89.291,48.617,86.182,43.024,80.588z"/>
	<path fill="#FFFFFF" d="M63.927,54.5c-1.752,0-4.156,1.531-5,2.375c-1.251,1.25-9.251,11.709-9.251,17.438
		c0,3.131,1.543,4.07,2.667,3.688c3.667-1.25,7.334-3.5,11.584-3.5c4.251,0,7.919,2.25,11.585,3.5
		c1.123,0.383,2.666-0.558,2.666-3.688c0-5.729-8-16.188-9.25-17.438C68.083,56.031,65.68,54.5,63.927,54.5z"/>
	<path fill="#FFFFFF" d="M70.178,50.5c2.363,0,4.418-3.833,4.418-7.125c0-3.833-2.252-7.125-4.418-7.125
		c-2.168,0-4.418,3.292-4.418,7.125C65.76,46.667,67.813,50.5,70.178,50.5z"/>
	<path fill="#FFFFFF" d="M82.164,48.564c-1.919-0.3-4.367,2.305-4.898,5.7c-0.455,2.916,0.834,6.595,2.928,6.922
		c2.095,0.327,4.443-2.785,4.898-5.7C85.621,52.09,84.084,48.864,82.164,48.564z"/>
	<path fill="#FFFFFF" d="M57.676,50.5c2.364,0,4.417-3.833,4.417-7.125c0-3.833-2.25-7.125-4.417-7.125s-4.417,3.292-4.417,7.125
		C53.259,46.667,55.313,50.5,57.676,50.5z"/>
	<path fill="#FFFFFF" d="M50.588,54.264c-0.53-3.396-2.979-6-4.898-5.7c-1.919,0.3-3.458,3.526-2.927,6.922
		c0.455,2.916,2.804,6.027,4.898,5.7C49.755,60.859,51.043,57.18,50.588,54.264z"/>
</g>
</svg>
