<?xml version="1.0" encoding="utf-8"?>
<!-- Generator: Adobe Illustrator 16.0.3, SVG Export Plug-In . SVG Version: 6.00 Build 0)  -->
<!DOCTYPE svg PUBLIC "-//W3C//DTD SVG 1.1//EN" "http://www.w3.org/Graphics/SVG/1.1/DTD/svg11.dtd">
<svg version="1.1" id="Layer_1" xmlns="http://www.w3.org/2000/svg" xmlns:xlink="http://www.w3.org/1999/xlink" x="0px" y="0px"
	 width="128px" height="128px" viewBox="0 0 128 128" enable-background="new 0 0 128 128" xml:space="preserve">
<path fill="#444953" d="M128,25c0-13.808-11.194-25-25-25H25C11.194,0,0,11.192,0,25v78c0,13.808,11.194,25,25,25h78
	c13.806,0,25-11.192,25-25V25z"/>
<g>
	<defs>
		<path id="SVGID_1_" d="M128,25c0-13.808-11.194-25-25-25H25C11.194,0,0,11.192,0,25v78c0,13.808,11.194,25,25,25h78
			c13.806,0,25-11.192,25-25V25z"/>
	</defs>
	<clipPath id="SVGID_2_">
		<use xlink:href="#SVGID_1_"  overflow="visible"/>
	</clipPath>
	<path clip-path="url(#SVGID_2_)" fill="#353A42" d="M101.064,57.962c0.217-9.627-3.413-18.677-10.219-25.483
		c-7.285-7.285-16.492-11.054-25.917-10.612c-0.528,0.025-0.98,0.315-1.234,0.737c-0.203,0.127-0.377,0.295-0.5,0.5
		c-0.203,0.127-0.377,0.295-0.5,0.5c-0.203,0.127-0.377,0.295-0.5,0.5c-0.203,0.127-0.377,0.295-0.5,0.5
		c-0.203,0.127-0.377,0.295-0.5,0.5c-0.203,0.127-0.377,0.295-0.5,0.5c-0.203,0.127-0.377,0.295-0.5,0.5
		c-0.203,0.127-0.377,0.295-0.5,0.5c-0.203,0.127-0.377,0.295-0.5,0.5c-0.203,0.127-0.377,0.295-0.5,0.5
		c-0.203,0.127-0.377,0.295-0.5,0.5c-0.203,0.127-0.377,0.295-0.5,0.5c-0.203,0.127-0.377,0.295-0.5,0.5
		c-0.203,0.127-0.377,0.295-0.5,0.5c-0.203,0.127-0.377,0.295-0.5,0.5c-0.203,0.127-0.377,0.295-0.5,0.5
		c-0.203,0.127-0.377,0.295-0.5,0.5c-0.203,0.127-0.377,0.295-0.5,0.5c-0.203,0.127-0.377,0.295-0.5,0.5
		c-0.203,0.127-0.377,0.295-0.5,0.5c-0.203,0.127-0.377,0.295-0.5,0.5c-0.203,0.127-0.377,0.295-0.5,0.5
		c-0.203,0.127-0.377,0.295-0.5,0.5c-0.203,0.127-0.377,0.295-0.5,0.5c-0.203,0.127-0.377,0.295-0.5,0.5
		c-0.203,0.127-0.377,0.295-0.5,0.5c-0.203,0.127-0.377,0.295-0.5,0.5c-0.203,0.127-0.377,0.295-0.5,0.5
		c-0.104,0.065-0.201,0.14-0.286,0.227c-0.74-2.155-1.485-4.309-2.249-6.456c-0.14-0.385-0.496-0.788-0.858-0.977
		c-0.686-0.36-3.585-1.327-5.488-0.802c-0.297,0.081-0.359,0.221-0.299,0.465c-0.065,0.015-0.138,0.018-0.201,0.035
		c-0.297,0.081-0.359,0.221-0.299,0.465c-0.065,0.015-0.138,0.018-0.201,0.035c-0.297,0.081-0.359,0.221-0.299,0.465
		c-0.065,0.015-0.138,0.018-0.201,0.035c-0.201,0.055-0.289,0.139-0.312,0.26c-0.076-0.216-0.148-0.419-0.208-0.591
		c-0.125-0.354-0.302-0.469-0.656-0.29c-1.536,0.79-3.161,1.438-4.585,2.383c-1.008,0.662-1.925,1.437-2.765,2.299
		c-0.171,0.162-0.335,0.331-0.5,0.5c-0.171,0.162-0.335,0.331-0.5,0.5c-0.171,0.162-0.335,0.331-0.5,0.5
		c-0.171,0.162-0.335,0.331-0.5,0.5c-0.171,0.162-0.335,0.331-0.5,0.5c-0.171,0.162-0.335,0.331-0.5,0.5
		c-0.171,0.162-0.335,0.331-0.5,0.5c-0.171,0.162-0.335,0.331-0.5,0.5c-0.171,0.162-0.335,0.331-0.5,0.5
		c-0.171,0.162-0.335,0.331-0.5,0.5c-0.171,0.162-0.335,0.331-0.5,0.5c-0.171,0.162-0.335,0.331-0.5,0.5
		c-0.171,0.162-0.335,0.331-0.5,0.5c-0.171,0.162-0.335,0.331-0.5,0.5c-0.171,0.162-0.335,0.331-0.5,0.5
		c-0.171,0.162-0.335,0.331-0.5,0.5c-0.171,0.162-0.335,0.331-0.5,0.5c-0.171,0.162-0.335,0.331-0.5,0.5
		c-0.171,0.162-0.335,0.331-0.5,0.5c-0.171,0.162-0.335,0.331-0.5,0.5c-0.171,0.162-0.335,0.331-0.5,0.5
		c-0.171,0.162-0.335,0.331-0.5,0.5c-0.171,0.162-0.335,0.331-0.5,0.5c-0.171,0.162-0.335,0.331-0.5,0.5
		c-0.171,0.162-0.335,0.331-0.5,0.5c-0.171,0.162-0.335,0.331-0.5,0.5c-0.171,0.162-0.335,0.331-0.5,0.5
		c-0.171,0.162-0.335,0.331-0.5,0.5c-0.171,0.162-0.335,0.331-0.5,0.5c-0.171,0.162-0.335,0.331-0.5,0.5
		c-0.171,0.162-0.335,0.331-0.5,0.5c-0.171,0.162-0.335,0.331-0.5,0.5c-0.171,0.162-0.335,0.331-0.5,0.5
		c-0.171,0.162-0.335,0.331-0.5,0.5c-0.171,0.162-0.335,0.331-0.5,0.5c-0.171,0.162-0.335,0.331-0.5,0.5
		c-0.171,0.162-0.335,0.331-0.5,0.5c-0.171,0.162-0.335,0.331-0.5,0.5c-0.171,0.162-0.335,0.331-0.5,0.5
		c-0.171,0.162-0.335,0.331-0.5,0.5c-0.171,0.162-0.335,0.331-0.5,0.5c-0.171,0.162-0.335,0.331-0.5,0.5
		c-0.171,0.162-0.335,0.331-0.5,0.5c-0.171,0.162-0.335,0.331-0.5,0.5c-0.171,0.162-0.335,0.331-0.5,0.5
		c-0.171,0.162-0.335,0.331-0.5,0.5c-0.171,0.162-0.335,0.331-0.5,0.5c-0.171,0.162-0.335,0.331-0.5,0.5
		c-0.171,0.162-0.335,0.331-0.5,0.5c-0.171,0.162-0.335,0.331-0.5,0.5c-0.171,0.162-0.335,0.331-0.5,0.5
		c-0.171,0.162-0.335,0.331-0.5,0.5c-0.171,0.162-0.335,0.331-0.5,0.5c-0.171,0.162-0.335,0.331-0.5,0.5
		c-0.171,0.162-0.335,0.331-0.5,0.5c-0.171,0.162-0.335,0.331-0.5,0.5c-0.171,0.162-0.335,0.331-0.5,0.5
		c-0.171,0.162-0.335,0.331-0.5,0.5c-0.171,0.162-0.335,0.331-0.5,0.5c-0.171,0.162-0.335,0.331-0.5,0.5
		c-0.171,0.162-0.335,0.331-0.5,0.5c-0.171,0.162-0.335,0.331-0.5,0.5c-0.171,0.162-0.335,0.331-0.5,0.5
		c-0.171,0.162-0.335,0.331-0.5,0.5c-0.171,0.162-0.335,0.331-0.5,0.5c-0.171,0.162-0.335,0.331-0.5,0.5
		c-0.171,0.162-0.335,0.331-0.5,0.5c-0.171,0.162-0.335,0.331-0.5,0.5c-0.171,0.162-0.335,0.331-0.5,0.5
		c-0.171,0.162-0.335,0.331-0.5,0.5c-0.171,0.162-0.335,0.331-0.5,0.5c-0.171,0.162-0.335,0.331-0.5,0.5
		c-0.171,0.162-0.335,0.331-0.5,0.5c-0.171,0.162-0.335,0.331-0.5,0.5c-0.171,0.162-0.335,0.331-0.5,0.5
		c-0.171,0.162-0.335,0.331-0.5,0.5c-0.171,0.162-0.335,0.331-0.5,0.5c-0.171,0.162-0.335,0.331-0.5,0.5
		c-0.171,0.162-0.335,0.331-0.5,0.5c-0.171,0.162-0.335,0.331-0.5,0.5c-0.171,0.162-0.335,0.331-0.5,0.5
		c-0.171,0.162-0.335,0.331-0.5,0.5c-0.171,0.162-0.335,0.331-0.5,0.5c-0.171,0.162-0.335,0.331-0.5,0.5
		c-0.171,0.162-0.335,0.331-0.5,0.5c-0.171,0.162-0.335,0.331-0.5,0.5c-0.171,0.162-0.335,0.331-0.5,0.5
		c-0.171,0.162-0.335,0.331-0.5,0.5c-0.171,0.162-0.335,0.331-0.5,0.5c-0.171,0.162-0.335,0.331-0.5,0.5
		c-0.171,0.162-0.335,0.331-0.5,0.5c-0.171,0.162-0.335,0.331-0.5,0.5c-0.171,0.162-0.335,0.331-0.5,0.5
		c-0.171,0.162-0.335,0.331-0.5,0.5c-0.171,0.162-0.335,0.331-0.5,0.5c-0.171,0.162-0.335,0.331-0.5,0.5
		c-0.171,0.162-0.335,0.331-0.5,0.5c-0.171,0.162-0.335,0.331-0.5,0.5c-0.171,0.162-0.335,0.331-0.5,0.5
		c-0.171,0.162-0.335,0.331-0.5,0.5c-0.171,0.162-0.335,0.331-0.5,0.5c-0.171,0.162-0.335,0.331-0.5,0.5
		c-0.171,0.162-0.335,0.331-0.5,0.5c-0.171,0.162-0.335,0.331-0.5,0.5c-0.171,0.162-0.335,0.331-0.5,0.5
		c-0.171,0.162-0.335,0.331-0.5,0.5c-0.171,0.162-0.335,0.331-0.5,0.5c-0.171,0.162-0.335,0.331-0.5,0.5
		c-0.171,0.162-0.335,0.331-0.5,0.5c-0.171,0.162-0.335,0.331-0.5,0.5c-0.171,0.162-0.335,0.331-0.5,0.5
		c-0.171,0.162-0.335,0.331-0.5,0.5c-0.171,0.162-0.335,0.331-0.5,0.5c-0.171,0.162-0.335,0.331-0.5,0.5
		c-0.171,0.162-0.335,0.331-0.5,0.5c-0.171,0.162-0.335,0.331-0.5,0.5c-0.171,0.162-0.335,0.331-0.5,0.5
		c-0.171,0.162-0.335,0.331-0.5,0.5c-0.171,0.162-0.335,0.331-0.5,0.5c-0.171,0.162-0.335,0.331-0.5,0.5
		c-0.171,0.162-0.335,0.331-0.5,0.5c-0.171,0.162-0.335,0.331-0.5,0.5c-0.171,0.162-0.335,0.331-0.5,0.5
		c-0.171,0.162-0.335,0.331-0.5,0.5c-0.171,0.162-0.335,0.331-0.5,0.5c-0.171,0.162-0.335,0.331-0.5,0.5
		c-0.171,0.162-0.335,0.331-0.5,0.5c-0.171,0.162-0.335,0.331-0.5,0.5c-0.171,0.162-0.335,0.331-0.5,0.5
		c-0.171,0.162-0.335,0.331-0.5,0.5c-0.171,0.162-0.335,0.331-0.5,0.5c-0.171,0.162-0.335,0.331-0.5,0.5
		c-0.171,0.162-0.335,0.331-0.5,0.5c-0.171,0.162-0.335,0.331-0.5,0.5c-0.171,0.162-0.335,0.331-0.5,0.5
		c-0.171,0.162-0.335,0.331-0.5,0.5c-0.171,0.162-0.335,0.331-0.5,0.5c-0.171,0.162-0.335,0.331-0.5,0.5
		c-0.171,0.162-0.335,0.331-0.5,0.5c-0.171,0.162-0.335,0.331-0.5,0.5c-0.171,0.162-0.335,0.331-0.5,0.5
		c-0.171,0.162-0.335,0.331-0.5,0.5c-0.171,0.162-0.335,0.331-0.5,0.5c-0.171,0.162-0.335,0.331-0.5,0.5
		c-0.171,0.162-0.335,0.331-0.5,0.5c-0.171,0.162-0.335,0.331-0.5,0.5c-0.171,0.162-0.335,0.331-0.5,0.5
		c-0.171,0.162-0.335,0.331-0.5,0.5c-0.171,0.162-0.335,0.331-0.5,0.5c-0.171,0.162-0.335,0.331-0.5,0.5
		c-0.171,0.162-0.335,0.331-0.5,0.5c-0.171,0.162-0.335,0.331-0.5,0.5c-0.171,0.162-0.335,0.331-0.5,0.5
		c-0.171,0.162-0.335,0.331-0.5,0.5c-0.171,0.162-0.335,0.331-0.5,0.5c-0.171,0.162-0.335,0.331-0.5,0.5
		c-0.171,0.162-0.335,0.331-0.5,0.5c-0.171,0.162-0.335,0.331-0.5,0.5c-0.171,0.162-0.335,0.331-0.5,0.5
		c-0.171,0.162-0.335,0.331-0.5,0.5c-0.171,0.162-0.335,0.331-0.5,0.5c-0.171,0.162-0.335,0.331-0.5,0.5
		c-0.171,0.162-0.335,0.331-0.5,0.5c-0.171,0.162-0.335,0.331-0.5,0.5c-0.171,0.162-0.335,0.331-0.5,0.5
		c-0.171,0.162-0.335,0.331-0.5,0.5c-0.171,0.162-0.335,0.331-0.5,0.5c-0.171,0.162-0.335,0.331-0.5,0.5
		c-0.171,0.162-0.335,0.331-0.5,0.5c-0.171,0.162-0.335,0.331-0.5,0.5c-0.171,0.162-0.335,0.331-0.5,0.5
		c-0.171,0.162-0.335,0.331-0.5,0.5c-0.171,0.162-0.335,0.331-0.5,0.5c-0.171,0.162-0.335,0.331-0.5,0.5
		c-0.818,0.77-1.567,1.62-2.229,2.562c-1.339,1.888-2.231,3.973-2.16,6.237c0.275,8.867,8.133,26.419,17.844,36.127
		c9.708,9.708,27.26,17.568,36.127,17.846c2.265,0.069,4.348-0.825,6.238-2.163c0.942-0.663,1.791-1.412,2.56-2.229
		c0.169-0.165,0.339-0.329,0.5-0.5c0.169-0.165,0.339-0.329,0.5-0.5c0.169-0.165,0.339-0.329,0.5-0.5
		c0.169-0.165,0.339-0.329,0.5-0.5c0.169-0.165,0.339-0.329,0.5-0.5c0.169-0.165,0.339-0.329,0.5-0.5
		c0.169-0.165,0.339-0.329,0.5-0.5c0.169-0.165,0.339-0.329,0.5-0.5c0.169-0.165,0.339-0.329,0.5-0.5
		c0.169-0.165,0.339-0.329,0.5-0.5c0.169-0.165,0.339-0.329,0.5-0.5c0.169-0.165,0.339-0.329,0.5-0.5
		c0.169-0.165,0.339-0.329,0.5-0.5c0.169-0.165,0.339-0.329,0.5-0.5c0.169-0.165,0.339-0.329,0.5-0.5
		c0.169-0.165,0.339-0.329,0.5-0.5c0.169-0.165,0.339-0.329,0.5-0.5c0.169-0.165,0.339-0.329,0.5-0.5
		c0.169-0.165,0.339-0.329,0.5-0.5c0.169-0.165,0.339-0.329,0.5-0.5c0.169-0.165,0.339-0.329,0.5-0.5
		c0.169-0.165,0.339-0.329,0.5-0.5c0.169-0.165,0.339-0.329,0.5-0.5c0.169-0.165,0.339-0.329,0.5-0.5
		c0.169-0.165,0.339-0.329,0.5-0.5c0.169-0.165,0.339-0.329,0.5-0.5c0.169-0.165,0.339-0.329,0.5-0.5
		c0.169-0.165,0.339-0.329,0.5-0.5c0.169-0.165,0.339-0.329,0.5-0.5c0.169-0.165,0.339-0.329,0.5-0.5
		c0.169-0.165,0.339-0.329,0.5-0.5c0.169-0.165,0.339-0.329,0.5-0.5c0.169-0.165,0.339-0.329,0.5-0.5
		c0.169-0.165,0.339-0.329,0.5-0.5c0.169-0.165,0.339-0.329,0.5-0.5c0.169-0.165,0.339-0.329,0.5-0.5
		c0.169-0.165,0.339-0.329,0.5-0.5c0.169-0.165,0.339-0.329,0.5-0.5c0.169-0.165,0.339-0.329,0.5-0.5
		c0.169-0.165,0.339-0.329,0.5-0.5c0.169-0.165,0.339-0.329,0.5-0.5c0.169-0.165,0.339-0.329,0.5-0.5
		c0.169-0.165,0.339-0.329,0.5-0.5c0.169-0.165,0.339-0.329,0.5-0.5c0.169-0.165,0.339-0.329,0.5-0.5
		c0.169-0.165,0.339-0.329,0.5-0.5c0.169-0.165,0.339-0.329,0.5-0.5c0.169-0.165,0.339-0.329,0.5-0.5
		c0.169-0.165,0.339-0.329,0.5-0.5c0.169-0.165,0.339-0.329,0.5-0.5c0.169-0.165,0.339-0.329,0.5-0.5
		c0.169-0.165,0.339-0.329,0.5-0.5c0.169-0.165,0.339-0.329,0.5-0.5c0.169-0.165,0.339-0.329,0.5-0.5
		c0.169-0.165,0.339-0.329,0.5-0.5c0.169-0.165,0.339-0.329,0.5-0.5c0.169-0.165,0.339-0.329,0.5-0.5
		c0.169-0.165,0.339-0.329,0.5-0.5c0.169-0.165,0.339-0.329,0.5-0.5c0.169-0.165,0.339-0.329,0.5-0.5
		c0.169-0.165,0.339-0.329,0.5-0.5c0.169-0.165,0.339-0.329,0.5-0.5c0.169-0.165,0.339-0.329,0.5-0.5
		c0.169-0.165,0.339-0.329,0.5-0.5c0.169-0.165,0.339-0.329,0.5-0.5c0.169-0.165,0.339-0.329,0.5-0.5
		c0.169-0.165,0.339-0.329,0.5-0.5c0.169-0.165,0.339-0.329,0.5-0.5c0.169-0.165,0.339-0.329,0.5-0.5
		c0.169-0.165,0.339-0.329,0.5-0.5c0.169-0.165,0.339-0.329,0.5-0.5c0.169-0.165,0.339-0.329,0.5-0.5
		c0.169-0.165,0.339-0.329,0.5-0.5c0.169-0.165,0.339-0.329,0.5-0.5c0.169-0.165,0.339-0.329,0.5-0.5
		c0.169-0.165,0.339-0.329,0.5-0.5c0.169-0.165,0.339-0.329,0.5-0.5c0.169-0.165,0.339-0.329,0.5-0.5
		c0.169-0.165,0.339-0.329,0.5-0.5c0.169-0.165,0.339-0.329,0.5-0.5c0.169-0.165,0.339-0.329,0.5-0.5
		c0.169-0.165,0.339-0.329,0.5-0.5c0.169-0.165,0.339-0.329,0.5-0.5c0.169-0.165,0.339-0.329,0.5-0.5
		c0.169-0.165,0.339-0.329,0.5-0.5c0.169-0.165,0.339-0.329,0.5-0.5c0.169-0.165,0.339-0.329,0.5-0.5
		c0.169-0.165,0.339-0.329,0.5-0.5c0.169-0.165,0.339-0.329,0.5-0.5c0.169-0.165,0.339-0.329,0.5-0.5
		c0.169-0.165,0.339-0.329,0.5-0.5c0.169-0.165,0.339-0.329,0.5-0.5c0.169-0.165,0.339-0.329,0.5-0.5
		c0.169-0.165,0.339-0.329,0.5-0.5c0.169-0.165,0.339-0.329,0.5-0.5c0.169-0.165,0.339-0.329,0.5-0.5
		c0.169-0.165,0.339-0.329,0.5-0.5c0.169-0.165,0.339-0.329,0.5-0.5c0.169-0.165,0.339-0.329,0.5-0.5
		c0.169-0.165,0.339-0.329,0.5-0.5c0.169-0.165,0.339-0.329,0.5-0.5c0.169-0.165,0.339-0.329,0.5-0.5
		c0.169-0.165,0.339-0.329,0.5-0.5c0.169-0.165,0.339-0.329,0.5-0.5c0.169-0.165,0.339-0.329,0.5-0.5
		c0.169-0.165,0.339-0.329,0.5-0.5c0.169-0.165,0.339-0.329,0.5-0.5c0.169-0.165,0.339-0.329,0.5-0.5
		c0.169-0.165,0.339-0.329,0.5-0.5c0.169-0.165,0.339-0.329,0.5-0.5c0.169-0.165,0.339-0.329,0.5-0.5
		c0.169-0.165,0.339-0.329,0.5-0.5c0.169-0.165,0.339-0.329,0.5-0.5c0.169-0.165,0.339-0.329,0.5-0.5
		c0.169-0.165,0.339-0.329,0.5-0.5c0.169-0.165,0.339-0.329,0.5-0.5c0.169-0.165,0.339-0.329,0.5-0.5
		c0.169-0.165,0.339-0.329,0.5-0.5c0.169-0.165,0.339-0.329,0.5-0.5c0.169-0.165,0.339-0.329,0.5-0.5
		c0.169-0.165,0.339-0.329,0.5-0.5c0.169-0.165,0.339-0.329,0.5-0.5c0.169-0.165,0.339-0.329,0.5-0.5
		c0.169-0.165,0.339-0.329,0.5-0.5c0.169-0.165,0.339-0.329,0.5-0.5c0.169-0.165,0.339-0.329,0.5-0.5
		c0.169-0.165,0.339-0.329,0.5-0.5c0.169-0.165,0.339-0.329,0.5-0.5c0.169-0.165,0.339-0.329,0.5-0.5
		c0.169-0.165,0.339-0.329,0.5-0.5c0.169-0.165,0.339-0.329,0.5-0.5c0.169-0.165,0.339-0.329,0.5-0.5
		c0.169-0.165,0.339-0.329,0.5-0.5c0.169-0.165,0.339-0.329,0.5-0.5c0.169-0.165,0.339-0.329,0.5-0.5
		c0.169-0.165,0.339-0.329,0.5-0.5c0.169-0.165,0.339-0.329,0.5-0.5c0.169-0.165,0.339-0.329,0.5-0.5
		c0.169-0.165,0.339-0.329,0.5-0.5c0.169-0.165,0.339-0.329,0.5-0.5c0.169-0.165,0.339-0.329,0.5-0.5
		c0.169-0.165,0.339-0.329,0.5-0.5c0.169-0.165,0.339-0.329,0.5-0.5c0.169-0.165,0.339-0.329,0.5-0.5
		c0.169-0.165,0.339-0.329,0.5-0.5c0.169-0.165,0.339-0.329,0.5-0.5c0.169-0.165,0.339-0.329,0.5-0.5
		c0.169-0.165,0.339-0.329,0.5-0.5c0.169-0.165,0.339-0.329,0.5-0.5c0.169-0.165,0.339-0.329,0.5-0.5
		c0.169-0.165,0.339-0.329,0.5-0.5c0.169-0.165,0.339-0.329,0.5-0.5c0.169-0.165,0.339-0.329,0.5-0.5
		c0.169-0.165,0.339-0.329,0.5-0.5c0.169-0.165,0.339-0.329,0.5-0.5c0.169-0.165,0.339-0.329,0.5-0.5
		c0.169-0.165,0.339-0.329,0.5-0.5c0.169-0.165,0.339-0.329,0.5-0.5c0.169-0.165,0.339-0.329,0.5-0.5
		c0.169-0.165,0.339-0.329,0.5-0.5c0.169-0.165,0.339-0.329,0.5-0.5c0.169-0.165,0.339-0.329,0.5-0.5
		c0.169-0.165,0.339-0.329,0.5-0.5c0.169-0.165,0.339-0.329,0.5-0.5c0.169-0.165,0.339-0.329,0.5-0.5
		c0.169-0.165,0.339-0.329,0.5-0.5c0.169-0.165,0.339-0.329,0.5-0.5c0.169-0.165,0.339-0.329,0.5-0.5
		c0.169-0.165,0.339-0.329,0.5-0.5c0.169-0.165,0.339-0.329,0.5-0.5c0.169-0.165,0.339-0.329,0.5-0.5
		c0.169-0.165,0.339-0.329,0.5-0.5c0.169-0.165,0.339-0.329,0.5-0.5c0.169-0.165,0.339-0.329,0.5-0.5
		c0.862-0.84,1.636-1.757,2.3-2.764c0.946-1.425,1.594-3.05,2.381-4.585c0.181-0.354,0.066-0.531-0.288-0.658
		c-0.172-0.061-0.374-0.132-0.59-0.208c0.12-0.023,0.203-0.111,0.259-0.311c0.018-0.064,0.021-0.136,0.035-0.202
		c0.244,0.061,0.382-0.001,0.465-0.298c0.018-0.064,0.021-0.136,0.035-0.202c0.244,0.061,0.382-0.001,0.465-0.298
		c0.018-0.064,0.021-0.136,0.035-0.202c0.244,0.061,0.382-0.001,0.465-0.298c0.523-1.904-0.441-4.802-0.802-5.489
		c-0.19-0.363-0.592-0.717-0.977-0.854c-2.352-0.839-4.712-1.653-7.074-2.463c0.186-0.123,0.339-0.287,0.457-0.477
		c0.204-0.125,0.374-0.296,0.5-0.5c0.204-0.125,0.374-0.296,0.5-0.5c0.204-0.125,0.374-0.296,0.5-0.5
		c0.204-0.125,0.374-0.296,0.5-0.5c0.204-0.125,0.374-0.296,0.5-0.5c0.204-0.125,0.374-0.296,0.5-0.5
		c0.204-0.125,0.374-0.296,0.5-0.5c0.204-0.125,0.374-0.296,0.5-0.5c0.204-0.125,0.374-0.296,0.5-0.5
		c0.204-0.125,0.374-0.296,0.5-0.5c0.204-0.125,0.374-0.296,0.5-0.5c0.204-0.125,0.374-0.296,0.5-0.5
		c0.204-0.125,0.374-0.296,0.5-0.5c0.204-0.125,0.374-0.296,0.5-0.5c0.204-0.125,0.374-0.296,0.5-0.5
		c0.204-0.125,0.374-0.296,0.5-0.5c0.204-0.125,0.374-0.296,0.5-0.5c0.204-0.125,0.374-0.296,0.5-0.5
		c0.204-0.125,0.374-0.296,0.5-0.5c0.204-0.125,0.374-0.296,0.5-0.5c0.204-0.125,0.374-0.296,0.5-0.5
		c0.204-0.125,0.374-0.296,0.5-0.5c0.204-0.125,0.374-0.296,0.5-0.5c0.204-0.125,0.374-0.296,0.5-0.5
		c0.204-0.125,0.374-0.296,0.5-0.5c0.204-0.125,0.374-0.296,0.5-0.5c0.204-0.125,0.374-0.296,0.5-0.5
		c0.204-0.125,0.374-0.296,0.5-0.5C100.761,58.965,101.052,58.501,101.064,57.962z"/>
</g>
<g>
	<path fill="#FFFFFF" d="M47.431,48.604c0.24,0.571,0.496,0.686,1.029,0.409c0.561-0.292,3.175-2.383,3.404-4.159
		c0.029-0.227,0.052-0.5-0.017-0.725c-0.361-1.171-0.738-2.338-1.136-3.498c-1.171-3.423-2.339-6.848-3.552-10.256
		c-0.14-0.385-0.496-0.788-0.858-0.977c-0.686-0.36-3.585-1.327-5.488-0.802c-0.335,0.092-0.381,0.25-0.277,0.559
		C41.329,31.464,47.054,47.71,47.431,48.604z"/>
	<path fill="#FFFFFF" d="M93.561,84.529c-3.754-1.321-18.629-6.579-19.902-7.063c-0.325-0.123-0.535-0.079-0.771,0.156
		c-5.608,5.608-15.702-5.21-18.84-8.348c-3.137-3.135-13.954-13.229-8.346-18.837c0.235-0.237,0.279-0.446,0.156-0.771
		c-0.483-1.273-5.742-16.148-7.064-19.902c-0.125-0.354-0.302-0.469-0.656-0.29c-1.536,0.79-3.161,1.438-4.585,2.383
		c-1.752,1.152-3.263,2.608-4.494,4.36c-1.339,1.888-2.231,3.973-2.16,6.237c0.275,8.867,8.133,26.419,17.844,36.127
		c9.708,9.708,27.26,17.568,36.127,17.846c2.265,0.069,4.348-0.825,6.238-2.163c1.752-1.233,3.206-2.742,4.36-4.494
		c0.946-1.425,1.594-3.05,2.381-4.585C94.029,84.833,93.915,84.656,93.561,84.529z"/>
	<path fill="#FFFFFF" d="M92.95,76.167c-3.409-1.216-6.833-2.383-10.256-3.554c-1.161-0.398-2.329-0.775-3.5-1.137
		c-0.223-0.067-0.496-0.044-0.723-0.015c-1.775,0.229-3.867,2.844-4.158,3.404c-0.277,0.533-0.163,0.787,0.408,1.027
		c0.894,0.377,17.14,6.104,19.448,6.894c0.31,0.106,0.466,0.06,0.56-0.275c0.523-1.904-0.441-4.802-0.802-5.489
		C93.737,76.658,93.335,76.304,92.95,76.167z"/>
	<path fill="#FFFFFF" d="M63.263,36.625c5.983-0.283,11.848,2.135,16.517,6.804c4.346,4.346,6.665,10.123,6.525,16.267
		c-0.017,0.704,0.542,1.286,1.242,1.3c0.01,0.002,0.021,0.002,0.029,0.002c0.689,0,1.256-0.552,1.271-1.244
		c0.154-6.846-2.427-13.284-7.267-18.125c-5.183-5.179-11.727-7.863-18.436-7.544c-0.702,0.033-1.244,0.629-1.21,1.329
		C61.967,36.117,62.564,36.658,63.263,36.625z"/>
	<path fill="#FFFFFF" d="M90.846,32.479c-7.285-7.285-16.492-11.054-25.917-10.612c-0.842,0.04-1.492,0.754-1.452,1.596
		s0.754,1.494,1.596,1.452c8.561-0.408,16.944,3.052,23.615,9.721c6.212,6.213,9.525,14.473,9.327,23.258
		c-0.019,0.844,0.648,1.54,1.49,1.561c0.012,0,0.025,0,0.035,0c0.827,0,1.506-0.66,1.525-1.492
		C101.281,48.335,97.652,39.286,90.846,32.479z"/>
</g>
</svg>
