<?xml version="1.0" encoding="utf-8"?>
<!-- Generator: Adobe Illustrator 16.0.0, SVG Export Plug-In . SVG Version: 6.00 Build 0)  -->
<!DOCTYPE svg PUBLIC "-//W3C//DTD SVG 1.1//EN" "http://www.w3.org/Graphics/SVG/1.1/DTD/svg11.dtd">
<svg version="1.1" id="Layer_1" xmlns="http://www.w3.org/2000/svg" xmlns:xlink="http://www.w3.org/1999/xlink" x="0px" y="0px"
	 width="512px" height="512px" viewBox="0 0 512 512" enable-background="new 0 0 512 512" xml:space="preserve">
<g id="Search">
	<path fill="#9FD522" d="M512,100C512,44.771,467.229,0,412,0H100C44.771,0,0,44.771,0,100v312c0,55.229,44.771,100,100,100h312
		c55.229,0,100-44.771,100-100V100z"/>
	<g>
		<defs>
			<path id="SVGID_1_" d="M512,99.948C512,44.748,467.061,0,411.853,0H99.964C44.755,0,0,44.748,0,99.948v311.837
				C0,466.984,44.755,512,99.964,512h311.888C467.061,512,512,466.984,512,411.785V99.948z"/>
		</defs>
		<clipPath id="SVGID_2_">
			<use xlink:href="#SVGID_1_"  overflow="visible"/>
		</clipPath>
		<path opacity="0.3" clip-path="url(#SVGID_2_)" fill="#444953" d="M399.331,348.069l-48.99-48.984
			c15.185-21.747,24.104-48.175,24.104-76.65c0-74.023-60.235-134.242-134.27-134.242c-37.147,0-70.817,15.162-95.15,39.618
			c-0.167,0.167-0.333,0.333-0.5,0.5c-0.167,0.167-0.333,0.333-0.5,0.5c-0.167,0.167-0.333,0.333-0.5,0.5
			c-0.167,0.167-0.333,0.333-0.5,0.5c-0.167,0.167-0.333,0.333-0.5,0.5c-0.167,0.167-0.333,0.333-0.5,0.5
			c-0.167,0.167-0.333,0.333-0.5,0.5c-0.167,0.167-0.333,0.333-0.5,0.5c-0.167,0.167-0.333,0.333-0.5,0.5
			c-0.167,0.167-0.333,0.333-0.5,0.5c-0.167,0.167-0.333,0.333-0.5,0.5c-0.167,0.167-0.333,0.333-0.5,0.5
			c-0.167,0.167-0.333,0.333-0.5,0.5c-0.167,0.167-0.333,0.333-0.5,0.5c-0.167,0.167-0.333,0.333-0.5,0.5
			c-0.167,0.167-0.333,0.333-0.5,0.5c-0.167,0.167-0.333,0.333-0.5,0.5c-0.167,0.167-0.333,0.333-0.5,0.5
			c-0.167,0.167-0.333,0.333-0.5,0.5c-0.167,0.167-0.333,0.333-0.5,0.5c-0.167,0.167-0.333,0.333-0.5,0.5
			c-0.167,0.167-0.333,0.333-0.5,0.5c-0.167,0.167-0.333,0.333-0.5,0.5c-0.167,0.167-0.333,0.333-0.5,0.5
			c-0.167,0.167-0.333,0.333-0.5,0.5c-0.167,0.167-0.333,0.333-0.5,0.5c-0.167,0.167-0.333,0.333-0.5,0.5
			c-0.167,0.167-0.333,0.333-0.5,0.5c-0.167,0.167-0.333,0.333-0.5,0.5c-0.167,0.167-0.333,0.333-0.5,0.5
			c-0.167,0.167-0.333,0.333-0.5,0.5c-0.167,0.167-0.333,0.333-0.5,0.5c-0.167,0.167-0.333,0.333-0.5,0.5
			c-0.167,0.167-0.333,0.333-0.5,0.5c-0.167,0.167-0.333,0.333-0.5,0.5c-0.167,0.167-0.333,0.333-0.5,0.5
			c-0.167,0.167-0.333,0.333-0.5,0.5c-0.167,0.167-0.333,0.333-0.5,0.5c-0.167,0.167-0.333,0.333-0.5,0.5
			c-0.167,0.167-0.333,0.333-0.5,0.5c-0.167,0.167-0.333,0.333-0.5,0.5c-0.167,0.167-0.333,0.333-0.5,0.5
			c-0.167,0.167-0.333,0.333-0.5,0.5c-0.167,0.167-0.333,0.333-0.5,0.5c-0.167,0.167-0.333,0.333-0.5,0.5
			c-0.167,0.167-0.333,0.333-0.5,0.5c-0.167,0.167-0.333,0.333-0.5,0.5c-0.167,0.167-0.333,0.333-0.5,0.5
			c-0.167,0.167-0.333,0.333-0.5,0.5c-0.167,0.167-0.333,0.333-0.5,0.5c-0.167,0.167-0.333,0.333-0.5,0.5
			c-0.167,0.167-0.333,0.333-0.5,0.5c-0.167,0.167-0.333,0.333-0.5,0.5c-0.167,0.167-0.333,0.333-0.5,0.5
			c-0.167,0.167-0.333,0.333-0.5,0.5c-0.167,0.167-0.333,0.333-0.5,0.5c-0.167,0.167-0.333,0.333-0.5,0.5
			c-0.167,0.167-0.333,0.333-0.5,0.5c-0.167,0.167-0.333,0.333-0.5,0.5c-0.167,0.167-0.333,0.333-0.5,0.5
			c-0.167,0.167-0.333,0.333-0.5,0.5c-0.167,0.167-0.333,0.333-0.5,0.5c-0.167,0.167-0.333,0.333-0.5,0.5
			c-0.167,0.167-0.333,0.333-0.5,0.5c-0.167,0.167-0.333,0.333-0.5,0.5c-0.167,0.167-0.333,0.333-0.5,0.5
			c-0.167,0.167-0.333,0.333-0.5,0.5c-0.167,0.167-0.333,0.333-0.5,0.5c-0.167,0.167-0.333,0.333-0.5,0.5
			c-0.167,0.167-0.333,0.333-0.5,0.5c-0.167,0.167-0.333,0.333-0.5,0.5c-0.167,0.167-0.333,0.333-0.5,0.5
			c-0.167,0.167-0.333,0.333-0.5,0.5c-0.167,0.167-0.333,0.333-0.5,0.5c-0.167,0.167-0.333,0.333-0.5,0.5
			c-0.167,0.167-0.333,0.333-0.5,0.5c-0.167,0.167-0.333,0.333-0.5,0.5c-0.167,0.167-0.333,0.333-0.5,0.5
			c-0.167,0.167-0.333,0.333-0.5,0.5c-0.167,0.167-0.333,0.333-0.5,0.5c-0.167,0.167-0.333,0.333-0.5,0.5
			c-0.167,0.167-0.333,0.333-0.5,0.5c-0.167,0.167-0.333,0.333-0.5,0.5c-0.167,0.167-0.333,0.333-0.5,0.5
			c-0.167,0.167-0.333,0.333-0.5,0.5c-0.167,0.167-0.333,0.333-0.5,0.5c-0.167,0.167-0.333,0.333-0.5,0.5
			c-0.167,0.167-0.333,0.333-0.5,0.5c-0.167,0.167-0.333,0.333-0.5,0.5c-0.167,0.167-0.333,0.333-0.5,0.5
			c-0.167,0.167-0.333,0.333-0.5,0.5c-0.167,0.167-0.333,0.333-0.5,0.5c-0.167,0.167-0.333,0.333-0.5,0.5
			c-0.167,0.167-0.333,0.333-0.5,0.5c-0.167,0.167-0.333,0.333-0.5,0.5c-0.167,0.167-0.333,0.333-0.5,0.5
			c-0.167,0.167-0.333,0.333-0.5,0.5c-0.167,0.167-0.333,0.333-0.5,0.5c-0.167,0.167-0.333,0.333-0.5,0.5
			c-0.167,0.167-0.333,0.333-0.5,0.5c-0.167,0.167-0.333,0.333-0.5,0.5c-0.167,0.167-0.333,0.333-0.5,0.5
			c-0.167,0.167-0.333,0.333-0.5,0.5c-0.167,0.167-0.333,0.333-0.5,0.5c-0.167,0.167-0.333,0.333-0.5,0.5
			c-0.167,0.167-0.333,0.333-0.5,0.5c-0.167,0.167-0.333,0.333-0.5,0.5c-0.167,0.167-0.333,0.333-0.5,0.5
			c-0.167,0.167-0.333,0.333-0.5,0.5c-0.167,0.167-0.333,0.333-0.5,0.5c-0.167,0.167-0.333,0.333-0.5,0.5
			c-0.167,0.167-0.333,0.333-0.5,0.5c-0.167,0.167-0.333,0.333-0.5,0.5c-0.167,0.167-0.333,0.333-0.5,0.5
			c-0.167,0.167-0.333,0.333-0.5,0.5c-0.167,0.167-0.333,0.333-0.5,0.5c-0.167,0.167-0.333,0.333-0.5,0.5
			c-0.167,0.167-0.333,0.333-0.5,0.5c-0.167,0.167-0.333,0.333-0.5,0.5c-0.167,0.167-0.333,0.333-0.5,0.5
			c-0.167,0.167-0.333,0.333-0.5,0.5c-0.167,0.167-0.333,0.333-0.5,0.5c-0.167,0.167-0.333,0.333-0.5,0.5
			c-0.167,0.167-0.333,0.333-0.5,0.5c-0.167,0.167-0.333,0.333-0.5,0.5c-0.167,0.167-0.333,0.333-0.5,0.5
			c-0.167,0.167-0.333,0.333-0.5,0.5c-0.167,0.167-0.333,0.333-0.5,0.5c-0.167,0.167-0.333,0.333-0.5,0.5
			c-0.167,0.167-0.333,0.333-0.5,0.5c-0.167,0.167-0.333,0.333-0.5,0.5c-0.167,0.167-0.333,0.333-0.5,0.5
			c-0.167,0.167-0.333,0.333-0.5,0.5c-0.167,0.167-0.333,0.333-0.5,0.5c-0.167,0.167-0.333,0.333-0.5,0.5
			c-0.167,0.167-0.333,0.333-0.5,0.5c-0.167,0.167-0.333,0.333-0.5,0.5c-0.167,0.167-0.333,0.333-0.5,0.5
			c-0.167,0.167-0.333,0.333-0.5,0.5c-0.167,0.167-0.333,0.333-0.5,0.5c-0.167,0.167-0.333,0.333-0.5,0.5
			c-0.167,0.167-0.333,0.333-0.5,0.5c-0.167,0.167-0.333,0.333-0.5,0.5c-0.167,0.167-0.333,0.333-0.5,0.5
			c-0.167,0.167-0.333,0.333-0.5,0.5c-0.167,0.167-0.333,0.333-0.5,0.5c-0.167,0.167-0.333,0.333-0.5,0.5
			c-0.167,0.167-0.333,0.333-0.5,0.5c-0.167,0.167-0.333,0.333-0.5,0.5c-0.167,0.167-0.333,0.333-0.5,0.5
			c-0.167,0.167-0.333,0.333-0.5,0.5c-0.167,0.167-0.333,0.333-0.5,0.5c-0.167,0.167-0.333,0.333-0.5,0.5
			c-0.167,0.167-0.333,0.333-0.5,0.5c-0.167,0.167-0.333,0.333-0.5,0.5c-0.167,0.167-0.333,0.333-0.5,0.5
			c-0.167,0.167-0.333,0.333-0.5,0.5c-0.167,0.167-0.333,0.333-0.5,0.5c-0.167,0.167-0.333,0.333-0.5,0.5
			c-0.167,0.167-0.333,0.333-0.5,0.5c-0.167,0.167-0.333,0.333-0.5,0.5c-0.167,0.167-0.333,0.333-0.5,0.5
			c-0.167,0.167-0.333,0.333-0.5,0.5c-0.167,0.167-0.333,0.333-0.5,0.5c-0.167,0.167-0.333,0.333-0.5,0.5
			c-0.167,0.167-0.333,0.333-0.5,0.5c-0.167,0.167-0.333,0.333-0.5,0.5c-0.167,0.167-0.333,0.333-0.5,0.5
			c-0.167,0.167-0.333,0.333-0.5,0.5c-0.167,0.167-0.333,0.333-0.5,0.5c-0.167,0.167-0.333,0.333-0.5,0.5
			c-0.167,0.167-0.333,0.333-0.5,0.5c-0.167,0.167-0.333,0.333-0.5,0.5c-0.167,0.167-0.333,0.333-0.5,0.5
			c-0.167,0.167-0.333,0.333-0.5,0.5c-0.167,0.167-0.333,0.333-0.5,0.5c-0.167,0.167-0.333,0.333-0.5,0.5
			c-0.167,0.167-0.333,0.333-0.5,0.5c-0.167,0.167-0.333,0.333-0.5,0.5c-0.167,0.167-0.333,0.333-0.5,0.5
			c-0.167,0.167-0.333,0.333-0.5,0.5c-0.167,0.167-0.333,0.333-0.5,0.5c-0.167,0.167-0.333,0.333-0.5,0.5
			c-0.167,0.167-0.333,0.333-0.5,0.5c-0.167,0.167-0.333,0.333-0.5,0.5c-0.167,0.167-0.333,0.333-0.5,0.5
			c-0.167,0.167-0.333,0.333-0.5,0.5c-0.167,0.167-0.333,0.333-0.5,0.5c-0.167,0.167-0.333,0.333-0.5,0.5
			c-0.167,0.167-0.333,0.333-0.5,0.5c-0.167,0.167-0.333,0.333-0.5,0.5c-0.167,0.167-0.333,0.333-0.5,0.5
			c-0.167,0.167-0.333,0.333-0.5,0.5c-0.167,0.167-0.333,0.333-0.5,0.5c-0.167,0.167-0.333,0.333-0.5,0.5
			c-0.167,0.167-0.333,0.333-0.5,0.5c-0.167,0.167-0.333,0.333-0.5,0.5c-0.167,0.167-0.333,0.333-0.5,0.5
			c-0.167,0.167-0.333,0.333-0.5,0.5c-0.167,0.167-0.333,0.333-0.5,0.5c-0.167,0.167-0.333,0.333-0.5,0.5
			c-0.167,0.167-0.333,0.333-0.5,0.5c-0.167,0.167-0.333,0.333-0.5,0.5c-0.167,0.167-0.333,0.333-0.5,0.5
			c-0.168,0.167-0.336,0.335-0.504,0.504c-0.166,0.165-0.331,0.331-0.496,0.497c-0.167,0.166-0.333,0.333-0.5,0.5
			c-0.167,0.166-0.333,0.333-0.5,0.5c-0.167,0.166-0.333,0.333-0.5,0.5c-0.167,0.166-0.333,0.333-0.5,0.5
			c-0.167,0.166-0.333,0.333-0.5,0.5c-0.167,0.166-0.333,0.333-0.5,0.5c-0.167,0.166-0.333,0.333-0.5,0.5
			c-0.167,0.166-0.333,0.333-0.5,0.5c-0.167,0.166-0.333,0.333-0.5,0.5c-0.167,0.166-0.333,0.333-0.5,0.5
			c-0.167,0.166-0.333,0.333-0.5,0.5c-0.167,0.166-0.333,0.333-0.5,0.5c-0.167,0.166-0.333,0.333-0.5,0.5
			c-0.167,0.166-0.333,0.333-0.5,0.5c-0.167,0.166-0.333,0.333-0.5,0.5c-0.167,0.166-0.333,0.333-0.5,0.5
			c-0.167,0.166-0.333,0.333-0.5,0.5c-0.167,0.166-0.333,0.333-0.5,0.5c-0.167,0.166-0.333,0.333-0.5,0.5
			c-0.167,0.166-0.333,0.333-0.5,0.5c-0.167,0.166-0.333,0.333-0.5,0.5c-0.167,0.166-0.333,0.333-0.5,0.5
			c-0.167,0.166-0.333,0.333-0.5,0.5c-0.167,0.166-0.333,0.333-0.5,0.5c-0.167,0.166-0.333,0.333-0.5,0.5
			c-0.167,0.166-0.333,0.333-0.5,0.5c-0.167,0.166-0.333,0.333-0.5,0.5c-0.167,0.166-0.333,0.333-0.5,0.5
			c-0.167,0.166-0.333,0.333-0.5,0.5c-0.167,0.166-0.333,0.333-0.5,0.5c-0.167,0.166-0.333,0.333-0.5,0.5
			c-0.167,0.166-0.333,0.333-0.5,0.5c-0.167,0.166-0.333,0.333-0.5,0.5c-0.167,0.166-0.333,0.333-0.5,0.5
			c-0.167,0.166-0.333,0.333-0.5,0.5c-0.167,0.166-0.333,0.333-0.5,0.5c-0.167,0.166-0.333,0.333-0.5,0.5
			c-0.167,0.166-0.333,0.333-0.5,0.5c-0.167,0.166-0.333,0.333-0.5,0.5c-0.167,0.166-0.333,0.333-0.5,0.5
			c-0.167,0.166-0.333,0.333-0.5,0.5c-0.167,0.166-0.333,0.333-0.5,0.5c-0.167,0.166-0.333,0.333-0.5,0.5
			c-0.167,0.166-0.333,0.333-0.5,0.5c-0.167,0.166-0.333,0.333-0.5,0.5c-0.167,0.166-0.333,0.333-0.5,0.5
			c-0.167,0.166-0.333,0.333-0.5,0.5c-0.167,0.166-0.333,0.333-0.5,0.5c-0.167,0.166-0.333,0.333-0.5,0.5
			c-0.167,0.166-0.333,0.333-0.5,0.5c-0.167,0.166-0.333,0.333-0.5,0.5c-0.167,0.166-0.333,0.333-0.5,0.5
			c-0.167,0.166-0.333,0.333-0.5,0.5c-0.167,0.166-0.333,0.333-0.5,0.5c-0.167,0.166-0.333,0.333-0.5,0.5
			c-0.167,0.166-0.333,0.333-0.5,0.5c-0.167,0.166-0.333,0.333-0.5,0.5c-0.167,0.166-0.333,0.333-0.5,0.5
			c-0.167,0.166-0.333,0.333-0.5,0.5c-0.167,0.166-0.333,0.333-0.5,0.5c-0.167,0.166-0.333,0.333-0.5,0.5
			c-0.167,0.166-0.333,0.333-0.5,0.5c-0.167,0.166-0.333,0.333-0.5,0.5c-0.167,0.166-0.333,0.333-0.5,0.5
			c-0.167,0.166-0.333,0.333-0.5,0.5c-0.167,0.166-0.333,0.333-0.5,0.5c-0.167,0.166-0.333,0.333-0.5,0.5
			c-0.167,0.166-0.333,0.333-0.5,0.5c-0.167,0.166-0.333,0.333-0.5,0.5c-0.167,0.166-0.333,0.333-0.5,0.5
			c-0.167,0.166-0.333,0.333-0.5,0.5c-0.167,0.166-0.333,0.333-0.5,0.5c-0.167,0.166-0.333,0.333-0.5,0.5
			c-0.167,0.166-0.333,0.333-0.5,0.5c-0.167,0.166-0.333,0.333-0.5,0.5c-0.167,0.166-0.333,0.333-0.5,0.5
			c-0.167,0.166-0.333,0.333-0.5,0.5c-0.167,0.166-0.333,0.333-0.5,0.5c-0.167,0.166-0.333,0.333-0.5,0.5
			c-0.167,0.166-0.333,0.333-0.5,0.5c-0.167,0.166-0.333,0.333-0.5,0.5c-0.167,0.166-0.333,0.333-0.5,0.5
			c-0.167,0.166-0.333,0.333-0.5,0.5c-0.167,0.166-0.333,0.333-0.5,0.5c-0.167,0.166-0.333,0.333-0.5,0.5
			c-0.167,0.166-0.333,0.333-0.5,0.5c-0.167,0.166-0.333,0.333-0.5,0.5c-0.167,0.166-0.333,0.333-0.5,0.5
			c-0.167,0.166-0.333,0.333-0.5,0.5c-0.167,0.166-0.333,0.333-0.5,0.5c-0.167,0.166-0.333,0.333-0.5,0.5
			c-0.167,0.166-0.333,0.333-0.5,0.5c-0.167,0.166-0.333,0.333-0.5,0.5c-0.167,0.166-0.333,0.333-0.5,0.5
			c-0.167,0.166-0.333,0.333-0.5,0.5c-0.167,0.166-0.333,0.333-0.5,0.5c-0.167,0.166-0.333,0.333-0.5,0.5
			c-0.167,0.166-0.333,0.333-0.5,0.5c-0.167,0.166-0.333,0.333-0.5,0.5c-0.167,0.166-0.333,0.333-0.5,0.5
			c-0.167,0.166-0.333,0.333-0.5,0.5c-0.167,0.166-0.333,0.333-0.5,0.5c-0.167,0.166-0.333,0.333-0.5,0.5
			c-0.167,0.166-0.333,0.333-0.5,0.5c-0.167,0.166-0.333,0.333-0.5,0.5c-0.167,0.166-0.333,0.333-0.5,0.5
			c-0.167,0.166-0.333,0.333-0.5,0.5c-0.167,0.166-0.333,0.333-0.5,0.5c-0.167,0.166-0.333,0.333-0.5,0.5
			c-0.167,0.166-0.333,0.333-0.5,0.5c-0.167,0.166-0.333,0.333-0.5,0.5c-0.167,0.166-0.333,0.333-0.5,0.5
			c-0.167,0.166-0.333,0.333-0.5,0.5c-0.167,0.166-0.333,0.333-0.5,0.5c-0.167,0.166-0.333,0.333-0.5,0.5
			c-0.167,0.166-0.333,0.333-0.5,0.5c-0.167,0.166-0.333,0.333-0.5,0.5c-0.167,0.166-0.333,0.333-0.5,0.5
			c-0.167,0.166-0.333,0.333-0.5,0.5c-0.167,0.166-0.333,0.333-0.5,0.5c-0.167,0.166-0.333,0.333-0.5,0.5
			c-0.167,0.166-0.333,0.333-0.5,0.5c-0.167,0.166-0.333,0.333-0.5,0.5c-0.167,0.166-0.333,0.333-0.5,0.5
			c-0.167,0.166-0.333,0.333-0.5,0.5c-0.167,0.166-0.333,0.333-0.5,0.5c-0.167,0.166-0.333,0.333-0.5,0.5
			c-0.167,0.166-0.333,0.333-0.5,0.5c-0.167,0.166-0.333,0.333-0.5,0.5c-0.167,0.166-0.333,0.333-0.5,0.5
			c-0.167,0.166-0.333,0.333-0.5,0.5c-0.167,0.166-0.333,0.333-0.5,0.5c-0.167,0.166-0.333,0.333-0.5,0.5
			c-0.167,0.166-0.333,0.333-0.5,0.5c-0.167,0.166-0.333,0.333-0.5,0.5c-0.167,0.166-0.333,0.333-0.5,0.5
			c-0.167,0.166-0.333,0.333-0.5,0.5c-0.167,0.166-0.333,0.333-0.5,0.5c-0.167,0.166-0.333,0.333-0.5,0.5
			c-0.167,0.166-0.333,0.333-0.5,0.5c-0.167,0.166-0.333,0.333-0.5,0.5c-0.167,0.166-0.333,0.333-0.5,0.5
			c-0.167,0.166-0.333,0.333-0.5,0.5c-0.167,0.166-0.333,0.333-0.5,0.5c-0.167,0.166-0.333,0.333-0.5,0.5
			c-0.167,0.166-0.333,0.333-0.5,0.5c-0.167,0.166-0.333,0.333-0.5,0.5c-0.167,0.166-0.333,0.333-0.5,0.5
			c-0.167,0.166-0.333,0.333-0.5,0.5c-0.167,0.166-0.333,0.333-0.5,0.5c-0.167,0.166-0.333,0.333-0.5,0.5
			c-0.167,0.166-0.333,0.333-0.5,0.5c-0.167,0.166-0.333,0.333-0.5,0.5c-0.167,0.166-0.333,0.333-0.5,0.5
			c-0.167,0.166-0.333,0.333-0.5,0.5c-0.167,0.166-0.333,0.333-0.5,0.5c-0.167,0.166-0.333,0.333-0.5,0.5
			c-0.167,0.166-0.333,0.333-0.5,0.5c-0.167,0.166-0.333,0.333-0.5,0.5c-0.167,0.166-0.333,0.333-0.5,0.5
			c-0.167,0.166-0.333,0.333-0.5,0.5c-0.167,0.166-0.333,0.333-0.5,0.5c-0.167,0.166-0.333,0.333-0.5,0.5
			c-0.167,0.166-0.333,0.333-0.5,0.5c-0.167,0.166-0.333,0.333-0.5,0.5c-0.167,0.166-0.333,0.333-0.5,0.5
			c-0.167,0.166-0.333,0.333-0.5,0.5c-0.167,0.166-0.333,0.333-0.5,0.5c-0.167,0.166-0.333,0.333-0.5,0.5
			c-0.167,0.166-0.333,0.333-0.5,0.5c-0.167,0.166-0.333,0.333-0.5,0.5c-0.167,0.166-0.333,0.333-0.5,0.5
			c-0.167,0.166-0.333,0.333-0.5,0.5c-0.167,0.166-0.333,0.333-0.5,0.5c-0.167,0.166-0.333,0.333-0.5,0.5
			c-0.167,0.166-0.333,0.333-0.5,0.5c-0.167,0.166-0.333,0.333-0.5,0.5c-0.167,0.166-0.333,0.333-0.5,0.5
			c-0.167,0.166-0.333,0.333-0.5,0.5c-0.167,0.166-0.333,0.333-0.5,0.5c-0.167,0.166-0.333,0.333-0.5,0.5
			c-0.167,0.166-0.333,0.333-0.5,0.5c-0.167,0.166-0.333,0.333-0.5,0.5c-0.167,0.166-0.333,0.333-0.5,0.5
			c-0.167,0.166-0.333,0.333-0.5,0.5c-0.167,0.166-0.333,0.333-0.5,0.5c-0.167,0.166-0.333,0.333-0.5,0.5
			c-0.167,0.166-0.333,0.333-0.5,0.5c-0.167,0.166-0.333,0.333-0.5,0.5c-0.167,0.166-0.333,0.333-0.5,0.5
			c-0.167,0.166-0.333,0.333-0.5,0.5c-0.167,0.166-0.333,0.333-0.5,0.5c-0.167,0.166-0.333,0.333-0.5,0.5
			c-0.167,0.166-0.333,0.333-0.5,0.5c-0.167,0.166-0.333,0.333-0.5,0.5c-0.167,0.166-0.333,0.333-0.5,0.5
			c-0.167,0.166-0.333,0.333-0.5,0.5c-0.167,0.166-0.333,0.333-0.5,0.5c-0.167,0.166-0.333,0.333-0.5,0.5
			c-0.167,0.166-0.333,0.333-0.5,0.5c-0.167,0.166-0.333,0.333-0.5,0.5c-0.167,0.166-0.333,0.333-0.5,0.5
			c-0.167,0.166-0.333,0.333-0.5,0.5c-0.167,0.166-0.333,0.333-0.5,0.5c-0.167,0.166-0.333,0.333-0.5,0.5
			c-0.167,0.166-0.333,0.333-0.5,0.5c-0.167,0.166-0.333,0.333-0.5,0.5c-0.167,0.166-0.333,0.333-0.5,0.5
			c-0.167,0.166-0.333,0.333-0.5,0.5c-0.167,0.166-0.333,0.333-0.5,0.5c-0.167,0.166-0.333,0.333-0.5,0.5
			c-0.167,0.166-0.333,0.333-0.5,0.5c-0.167,0.166-0.333,0.333-0.5,0.5c-24.459,24.327-39.623,57.987-39.623,95.124
			c0,74.022,60.234,134.243,134.272,134.243c28.476,0,54.908-8.918,76.66-24.096l48.998,48.992
			c4.621,4.624,10.691,6.939,16.75,6.939c6.06,0,12.13-2.315,16.747-6.939c0.085-0.085,0.155-0.178,0.238-0.264
			c0.085-0.082,0.178-0.152,0.262-0.236c0.085-0.085,0.155-0.178,0.238-0.264c0.085-0.082,0.178-0.152,0.262-0.236
			c0.085-0.085,0.155-0.178,0.238-0.264c0.085-0.082,0.178-0.152,0.262-0.236c0.085-0.085,0.155-0.178,0.238-0.264
			c0.085-0.082,0.178-0.152,0.262-0.236c0.085-0.085,0.155-0.178,0.238-0.264c0.085-0.082,0.178-0.152,0.262-0.236
			c0.085-0.085,0.155-0.178,0.238-0.264c0.085-0.082,0.178-0.152,0.262-0.236c0.085-0.085,0.155-0.178,0.238-0.264
			c0.085-0.082,0.178-0.152,0.262-0.236c0.085-0.085,0.155-0.178,0.238-0.264c0.085-0.082,0.178-0.152,0.262-0.236
			c0.085-0.085,0.155-0.178,0.238-0.264c0.085-0.082,0.178-0.152,0.262-0.236c0.085-0.085,0.155-0.178,0.238-0.264
			c0.085-0.082,0.178-0.152,0.262-0.236c0.085-0.085,0.155-0.178,0.238-0.264c0.085-0.082,0.178-0.152,0.262-0.236
			c0.085-0.085,0.155-0.178,0.238-0.264c0.085-0.082,0.178-0.152,0.262-0.236c0.085-0.085,0.155-0.178,0.238-0.264
			c0.085-0.082,0.178-0.152,0.262-0.236c0.085-0.085,0.155-0.178,0.238-0.264c0.085-0.082,0.178-0.152,0.262-0.236
			c0.085-0.085,0.155-0.178,0.238-0.264c0.085-0.082,0.178-0.152,0.262-0.236c0.085-0.085,0.155-0.178,0.238-0.264
			c0.085-0.082,0.178-0.152,0.262-0.236c0.085-0.085,0.155-0.178,0.238-0.264c0.085-0.082,0.178-0.152,0.262-0.236
			c0.085-0.085,0.155-0.178,0.238-0.264c0.085-0.082,0.178-0.152,0.262-0.236c0.085-0.085,0.155-0.178,0.238-0.264
			c0.085-0.082,0.178-0.152,0.262-0.236c0.085-0.085,0.155-0.178,0.238-0.264c0.085-0.082,0.178-0.152,0.262-0.236
			c0.085-0.085,0.155-0.178,0.238-0.264c0.085-0.082,0.178-0.152,0.262-0.236c0.085-0.085,0.155-0.178,0.238-0.264
			c0.085-0.082,0.178-0.152,0.262-0.236c0.085-0.085,0.155-0.178,0.238-0.264c0.085-0.082,0.178-0.152,0.262-0.236
			c0.085-0.085,0.155-0.178,0.238-0.264c0.085-0.082,0.178-0.152,0.262-0.236c0.085-0.085,0.155-0.178,0.238-0.264
			c0.085-0.082,0.178-0.152,0.262-0.236c0.085-0.085,0.155-0.178,0.238-0.264c0.085-0.082,0.178-0.152,0.262-0.236
			c0.085-0.085,0.155-0.178,0.238-0.264c0.085-0.082,0.178-0.152,0.262-0.236c0.085-0.085,0.155-0.178,0.238-0.264
			c0.085-0.082,0.178-0.152,0.262-0.236c0.085-0.085,0.155-0.178,0.238-0.264c0.085-0.082,0.178-0.152,0.262-0.236
			c0.085-0.085,0.155-0.178,0.238-0.264c0.085-0.082,0.178-0.152,0.262-0.236c0.085-0.085,0.155-0.178,0.238-0.264
			c0.085-0.082,0.178-0.152,0.262-0.236c0.085-0.085,0.155-0.178,0.238-0.264c0.085-0.082,0.178-0.152,0.262-0.236
			c0.085-0.085,0.155-0.178,0.238-0.264c0.085-0.082,0.178-0.152,0.262-0.236c0.085-0.085,0.155-0.178,0.238-0.264
			c0.085-0.082,0.178-0.152,0.262-0.236c0.085-0.085,0.155-0.178,0.238-0.264c0.085-0.082,0.178-0.152,0.262-0.236
			c0.085-0.085,0.155-0.178,0.238-0.264c0.085-0.082,0.178-0.152,0.262-0.236c0.085-0.085,0.155-0.178,0.238-0.264
			c0.085-0.082,0.178-0.152,0.262-0.236c0.085-0.085,0.155-0.178,0.238-0.264c0.085-0.082,0.178-0.152,0.262-0.236
			c0.085-0.085,0.155-0.178,0.238-0.264c0.085-0.082,0.178-0.152,0.262-0.236c0.085-0.085,0.155-0.178,0.238-0.264
			c0.085-0.082,0.178-0.152,0.262-0.236c0.085-0.085,0.155-0.178,0.238-0.264c0.085-0.082,0.178-0.152,0.262-0.236
			c0.085-0.085,0.155-0.178,0.238-0.264c0.085-0.082,0.178-0.152,0.262-0.236c0.085-0.085,0.155-0.178,0.238-0.264
			c0.085-0.082,0.178-0.152,0.262-0.236c0.085-0.085,0.155-0.178,0.238-0.264c0.085-0.082,0.178-0.152,0.262-0.236
			c0.085-0.085,0.155-0.178,0.238-0.264c0.085-0.082,0.178-0.152,0.262-0.236c0.085-0.085,0.155-0.178,0.238-0.264
			c0.085-0.082,0.178-0.152,0.262-0.236c0.085-0.085,0.155-0.178,0.238-0.264c0.085-0.082,0.178-0.152,0.262-0.236
			c0.085-0.085,0.155-0.178,0.238-0.264c0.085-0.082,0.178-0.152,0.262-0.236c0.085-0.085,0.155-0.178,0.238-0.264
			c0.085-0.082,0.178-0.152,0.262-0.236c0.085-0.085,0.155-0.178,0.238-0.264c0.085-0.082,0.178-0.152,0.262-0.236
			c0.085-0.085,0.155-0.178,0.238-0.264c0.085-0.082,0.178-0.152,0.262-0.236c0.085-0.085,0.155-0.178,0.238-0.264
			c0.085-0.082,0.178-0.152,0.262-0.236c0.085-0.085,0.155-0.178,0.238-0.264c0.085-0.082,0.178-0.152,0.262-0.236
			c0.085-0.085,0.155-0.178,0.238-0.264c0.085-0.082,0.178-0.152,0.262-0.236c0.085-0.085,0.155-0.178,0.238-0.264
			c0.085-0.082,0.178-0.152,0.262-0.236c0.085-0.085,0.155-0.178,0.238-0.264c0.085-0.082,0.178-0.152,0.262-0.236
			c0.085-0.085,0.155-0.178,0.238-0.264c0.085-0.082,0.178-0.152,0.262-0.236c0.085-0.085,0.155-0.178,0.238-0.264
			c0.085-0.082,0.178-0.152,0.262-0.236c0.085-0.085,0.155-0.178,0.238-0.264c0.085-0.082,0.178-0.152,0.262-0.236
			c0.085-0.085,0.155-0.178,0.238-0.264c0.085-0.082,0.178-0.152,0.262-0.236c0.085-0.085,0.155-0.178,0.238-0.264
			c0.085-0.082,0.178-0.152,0.262-0.236c0.085-0.085,0.155-0.178,0.238-0.264c0.085-0.082,0.178-0.152,0.262-0.236
			c0.085-0.085,0.155-0.178,0.238-0.264c0.085-0.082,0.178-0.152,0.262-0.236c0.085-0.085,0.155-0.178,0.238-0.264
			c0.085-0.082,0.178-0.152,0.262-0.236c0.085-0.085,0.155-0.178,0.238-0.264c0.085-0.082,0.178-0.152,0.262-0.236
			c0.085-0.085,0.155-0.178,0.238-0.264c0.085-0.082,0.178-0.152,0.262-0.236c0.085-0.085,0.155-0.178,0.238-0.264
			c0.085-0.082,0.178-0.152,0.262-0.236c0.085-0.085,0.155-0.178,0.238-0.264c0.085-0.082,0.178-0.152,0.262-0.236
			c0.085-0.085,0.155-0.178,0.238-0.264c0.085-0.082,0.178-0.152,0.262-0.236c0.085-0.085,0.155-0.178,0.238-0.264
			c0.085-0.082,0.178-0.152,0.262-0.236c0.085-0.085,0.155-0.178,0.238-0.264c0.085-0.082,0.178-0.152,0.262-0.236
			c0.085-0.085,0.155-0.178,0.238-0.264c0.085-0.082,0.178-0.152,0.262-0.236c0.085-0.085,0.155-0.178,0.238-0.264
			c0.085-0.082,0.178-0.152,0.262-0.236c0.085-0.085,0.155-0.178,0.238-0.264c0.085-0.082,0.178-0.152,0.262-0.236
			c0.085-0.085,0.155-0.178,0.238-0.264c0.085-0.082,0.178-0.152,0.262-0.236c0.085-0.085,0.155-0.178,0.238-0.264
			c0.085-0.082,0.178-0.152,0.262-0.236c0.085-0.085,0.155-0.178,0.238-0.264c0.085-0.082,0.178-0.152,0.262-0.236
			c0.085-0.085,0.155-0.178,0.238-0.264c0.085-0.082,0.178-0.152,0.262-0.236c0.085-0.085,0.155-0.178,0.238-0.264
			c0.085-0.082,0.178-0.152,0.262-0.236c0.085-0.085,0.155-0.178,0.238-0.264c0.085-0.082,0.178-0.152,0.262-0.236
			c0.085-0.085,0.155-0.178,0.238-0.264c0.085-0.082,0.178-0.152,0.262-0.236c0.085-0.085,0.155-0.178,0.238-0.264
			c0.085-0.082,0.178-0.152,0.262-0.236c0.085-0.085,0.155-0.178,0.238-0.264c0.085-0.082,0.178-0.152,0.262-0.236
			c0.085-0.085,0.155-0.178,0.238-0.264c0.085-0.082,0.178-0.152,0.262-0.236c0.085-0.085,0.155-0.178,0.238-0.264
			c0.085-0.082,0.178-0.152,0.262-0.236c0.085-0.085,0.155-0.178,0.238-0.264c0.085-0.082,0.178-0.152,0.262-0.236
			c0.085-0.085,0.155-0.178,0.238-0.264c0.085-0.082,0.178-0.152,0.262-0.236c0.085-0.085,0.155-0.178,0.238-0.264
			c0.085-0.082,0.178-0.152,0.262-0.236c0.085-0.085,0.155-0.178,0.238-0.264c0.085-0.082,0.178-0.152,0.262-0.236
			c0.085-0.085,0.155-0.178,0.238-0.264c0.085-0.082,0.178-0.152,0.262-0.236c0.085-0.085,0.155-0.178,0.238-0.264
			c0.085-0.082,0.178-0.152,0.262-0.236c0.085-0.085,0.155-0.178,0.238-0.264c0.085-0.082,0.178-0.152,0.262-0.236
			c0.085-0.085,0.155-0.178,0.238-0.264c0.085-0.082,0.178-0.152,0.262-0.236c0.085-0.085,0.155-0.178,0.238-0.264
			c0.085-0.082,0.178-0.152,0.262-0.236c0.085-0.085,0.155-0.178,0.238-0.264c0.085-0.082,0.178-0.152,0.262-0.236
			c0.085-0.085,0.155-0.178,0.238-0.264c0.085-0.082,0.178-0.152,0.262-0.236c0.085-0.085,0.155-0.178,0.238-0.264
			c0.085-0.082,0.178-0.152,0.262-0.236c0.085-0.085,0.155-0.178,0.238-0.264c0.085-0.082,0.178-0.152,0.262-0.236
			c0.085-0.085,0.155-0.178,0.238-0.264c0.085-0.082,0.178-0.152,0.262-0.236c0.085-0.085,0.155-0.178,0.238-0.264
			c0.085-0.082,0.178-0.152,0.262-0.236c0.085-0.085,0.155-0.178,0.238-0.264c0.085-0.082,0.178-0.152,0.262-0.236
			c0.085-0.085,0.155-0.178,0.238-0.264c0.085-0.082,0.178-0.152,0.262-0.236c0.085-0.085,0.155-0.178,0.238-0.264
			c0.085-0.082,0.178-0.152,0.262-0.236c0.085-0.085,0.155-0.178,0.238-0.264c0.085-0.082,0.178-0.152,0.262-0.236
			c0.085-0.085,0.155-0.178,0.238-0.264c0.085-0.082,0.178-0.152,0.262-0.236c0.085-0.085,0.155-0.178,0.238-0.264
			c0.085-0.082,0.178-0.152,0.262-0.236c0.085-0.085,0.155-0.178,0.238-0.264c0.085-0.082,0.178-0.152,0.262-0.236
			c0.085-0.085,0.155-0.178,0.238-0.264c0.085-0.082,0.178-0.152,0.262-0.236c0.085-0.085,0.155-0.178,0.238-0.264
			c0.085-0.082,0.178-0.152,0.262-0.236c0.085-0.085,0.155-0.178,0.238-0.264c0.085-0.082,0.178-0.152,0.262-0.236
			c0.085-0.085,0.155-0.178,0.238-0.264c0.085-0.082,0.178-0.152,0.262-0.236c0.085-0.085,0.155-0.178,0.238-0.264
			c0.085-0.082,0.178-0.152,0.262-0.236c0.085-0.085,0.155-0.178,0.238-0.264c0.085-0.082,0.178-0.152,0.262-0.236
			c0.085-0.085,0.155-0.178,0.238-0.264c0.085-0.082,0.178-0.152,0.262-0.236c0.085-0.085,0.155-0.178,0.238-0.264
			c0.085-0.082,0.178-0.152,0.262-0.236c0.085-0.085,0.155-0.178,0.238-0.264c0.085-0.082,0.178-0.152,0.262-0.236
			c0.085-0.085,0.155-0.178,0.238-0.264c0.085-0.082,0.178-0.152,0.262-0.236c0.085-0.085,0.155-0.178,0.238-0.264
			c0.085-0.082,0.178-0.152,0.262-0.236c0.085-0.085,0.155-0.178,0.238-0.264c0.085-0.082,0.178-0.152,0.262-0.236
			c0.085-0.085,0.155-0.178,0.238-0.264c0.085-0.082,0.178-0.152,0.262-0.236c0.085-0.085,0.155-0.178,0.238-0.264
			c0.085-0.082,0.178-0.152,0.262-0.236c0.085-0.085,0.155-0.178,0.238-0.264c0.085-0.082,0.178-0.152,0.262-0.236
			c0.085-0.085,0.155-0.178,0.238-0.264c0.085-0.082,0.178-0.152,0.262-0.236c0.085-0.085,0.155-0.178,0.238-0.264
			c0.085-0.082,0.178-0.152,0.262-0.236c0.085-0.085,0.155-0.178,0.238-0.264c0.085-0.082,0.178-0.152,0.262-0.236
			c0.085-0.085,0.155-0.178,0.238-0.264c0.085-0.082,0.178-0.152,0.262-0.236c0.085-0.085,0.155-0.178,0.238-0.264
			c0.085-0.082,0.178-0.152,0.262-0.236c0.085-0.085,0.155-0.178,0.238-0.264c0.085-0.082,0.178-0.152,0.262-0.236
			c0.085-0.085,0.155-0.178,0.238-0.264c0.085-0.082,0.178-0.152,0.262-0.236c0.085-0.085,0.155-0.178,0.238-0.264
			c0.085-0.082,0.178-0.152,0.262-0.236c0.085-0.085,0.155-0.178,0.238-0.264c0.085-0.082,0.178-0.152,0.262-0.236
			c0.085-0.085,0.155-0.178,0.238-0.264c0.085-0.082,0.178-0.152,0.262-0.236c0.085-0.085,0.155-0.178,0.238-0.264
			c0.085-0.082,0.178-0.152,0.262-0.236c0.085-0.085,0.155-0.178,0.238-0.264c0.085-0.082,0.178-0.152,0.262-0.236
			c0.085-0.085,0.155-0.178,0.238-0.264c0.085-0.082,0.178-0.152,0.262-0.236c0.085-0.085,0.155-0.178,0.238-0.264
			c0.085-0.082,0.178-0.152,0.262-0.236c0.085-0.085,0.155-0.178,0.238-0.264c0.085-0.082,0.178-0.152,0.262-0.236
			c0.085-0.085,0.155-0.178,0.238-0.264c0.085-0.082,0.178-0.152,0.262-0.236c0.085-0.085,0.155-0.178,0.238-0.264
			c0.085-0.082,0.178-0.152,0.262-0.236c0.085-0.085,0.155-0.178,0.238-0.264c0.085-0.082,0.178-0.152,0.262-0.236
			c0.085-0.085,0.155-0.178,0.238-0.264c0.085-0.082,0.178-0.152,0.262-0.236c0.085-0.085,0.155-0.178,0.238-0.264
			c0.085-0.082,0.178-0.152,0.262-0.236c0.085-0.085,0.155-0.178,0.238-0.264c0.085-0.082,0.178-0.152,0.262-0.236
			c0.085-0.085,0.155-0.178,0.238-0.264c0.085-0.082,0.178-0.152,0.262-0.236c0.085-0.085,0.155-0.178,0.238-0.264
			c0.085-0.082,0.178-0.152,0.262-0.236c0.085-0.085,0.155-0.178,0.238-0.264c0.085-0.082,0.178-0.152,0.262-0.236
			c0.085-0.085,0.155-0.178,0.238-0.264c0.085-0.082,0.178-0.152,0.262-0.236c0.085-0.085,0.155-0.178,0.238-0.264
			c0.085-0.082,0.178-0.152,0.262-0.236c0.085-0.085,0.155-0.178,0.238-0.264c0.085-0.082,0.178-0.152,0.262-0.236
			c0.085-0.085,0.155-0.178,0.238-0.264c0.085-0.082,0.178-0.152,0.262-0.236c0.085-0.085,0.155-0.178,0.238-0.264
			c0.085-0.082,0.178-0.152,0.262-0.236c0.085-0.085,0.155-0.178,0.238-0.264c0.085-0.082,0.178-0.152,0.262-0.236
			c0.085-0.085,0.155-0.178,0.238-0.264c0.085-0.082,0.178-0.152,0.262-0.236c0.085-0.085,0.155-0.178,0.238-0.264
			c0.085-0.082,0.178-0.152,0.262-0.236c0.085-0.085,0.155-0.178,0.238-0.264c0.085-0.082,0.178-0.152,0.262-0.236
			c0.085-0.085,0.155-0.178,0.238-0.264c0.085-0.082,0.178-0.152,0.262-0.236c0.085-0.085,0.155-0.178,0.238-0.264
			c0.085-0.082,0.178-0.152,0.262-0.236c0.085-0.085,0.155-0.178,0.238-0.264c0.085-0.082,0.178-0.152,0.262-0.236
			c0.085-0.085,0.155-0.178,0.238-0.264c0.085-0.082,0.178-0.152,0.262-0.236c0.085-0.085,0.155-0.178,0.238-0.264
			c0.085-0.082,0.178-0.152,0.262-0.236c0.085-0.085,0.155-0.178,0.238-0.264c0.085-0.082,0.178-0.152,0.262-0.236
			c0.085-0.085,0.155-0.178,0.238-0.264c0.085-0.082,0.178-0.152,0.262-0.236c0.085-0.085,0.155-0.178,0.238-0.264
			c0.085-0.082,0.178-0.152,0.262-0.236c0.085-0.085,0.155-0.178,0.238-0.264c0.085-0.082,0.178-0.152,0.262-0.236
			c0.085-0.085,0.155-0.178,0.238-0.264c0.085-0.082,0.178-0.152,0.262-0.236c0.085-0.085,0.155-0.178,0.238-0.264
			c0.085-0.082,0.178-0.152,0.262-0.236c0.085-0.085,0.155-0.178,0.238-0.264c0.085-0.082,0.178-0.152,0.262-0.236
			c0.085-0.085,0.155-0.178,0.238-0.264c0.085-0.082,0.178-0.152,0.262-0.236c0.085-0.085,0.155-0.178,0.238-0.264
			c0.085-0.082,0.178-0.152,0.262-0.236c0.085-0.085,0.155-0.178,0.238-0.264c0.085-0.082,0.178-0.152,0.262-0.236
			c0.085-0.085,0.155-0.178,0.238-0.264c0.085-0.082,0.178-0.152,0.262-0.236c0.085-0.085,0.155-0.178,0.238-0.264
			c0.085-0.082,0.178-0.152,0.262-0.236c0.085-0.085,0.155-0.178,0.238-0.264c0.085-0.082,0.178-0.152,0.262-0.236
			c0.085-0.085,0.155-0.178,0.238-0.264c0.085-0.082,0.178-0.152,0.262-0.236c0.085-0.085,0.155-0.178,0.238-0.264
			c0.085-0.082,0.178-0.152,0.262-0.236c0.085-0.085,0.155-0.178,0.238-0.264c0.085-0.082,0.178-0.152,0.262-0.236
			c0.085-0.085,0.155-0.178,0.238-0.264c0.085-0.082,0.178-0.152,0.262-0.236c0.085-0.085,0.155-0.178,0.238-0.264
			c0.085-0.082,0.178-0.152,0.262-0.236c0.085-0.085,0.155-0.178,0.238-0.264c0.085-0.082,0.178-0.152,0.262-0.236
			c0.085-0.085,0.155-0.178,0.238-0.264c0.085-0.082,0.178-0.152,0.262-0.236c0.085-0.085,0.155-0.178,0.238-0.264
			c0.085-0.082,0.178-0.152,0.262-0.236c0.085-0.085,0.155-0.178,0.238-0.264c0.085-0.082,0.178-0.152,0.262-0.236
			c0.085-0.085,0.155-0.178,0.238-0.264c0.085-0.082,0.178-0.152,0.262-0.236c0.085-0.085,0.155-0.178,0.238-0.264
			c0.085-0.082,0.178-0.152,0.262-0.236c0.085-0.085,0.155-0.178,0.238-0.264c0.085-0.082,0.178-0.152,0.262-0.236
			c0.085-0.085,0.155-0.178,0.238-0.264c0.085-0.082,0.178-0.152,0.262-0.236c0.085-0.085,0.155-0.178,0.238-0.264
			c0.085-0.082,0.178-0.152,0.262-0.236c0.085-0.085,0.155-0.178,0.238-0.264c0.085-0.082,0.178-0.152,0.262-0.236
			c0.085-0.085,0.155-0.178,0.238-0.264c0.085-0.082,0.178-0.152,0.262-0.236c0.085-0.085,0.155-0.178,0.238-0.264
			c0.085-0.082,0.178-0.152,0.262-0.236c0.085-0.085,0.155-0.178,0.238-0.264c0.085-0.082,0.178-0.152,0.262-0.236
			c0.085-0.085,0.155-0.178,0.238-0.264c0.085-0.082,0.178-0.152,0.262-0.236c0.085-0.085,0.155-0.178,0.238-0.264
			c0.085-0.082,0.178-0.152,0.262-0.236c0.085-0.085,0.155-0.178,0.238-0.264c0.085-0.082,0.178-0.152,0.262-0.236
			c0.085-0.085,0.155-0.178,0.238-0.264c0.085-0.082,0.178-0.152,0.262-0.236c0.085-0.085,0.155-0.178,0.238-0.264
			c0.085-0.082,0.178-0.152,0.262-0.236c0.085-0.085,0.155-0.178,0.238-0.264c0.085-0.082,0.178-0.152,0.262-0.236
			c0.085-0.085,0.155-0.178,0.238-0.264c0.085-0.082,0.178-0.152,0.262-0.236c0.085-0.085,0.155-0.178,0.238-0.264
			c0.085-0.082,0.178-0.152,0.262-0.236c0.085-0.085,0.155-0.178,0.238-0.264c0.085-0.082,0.178-0.152,0.262-0.236
			c0.085-0.085,0.155-0.178,0.238-0.264c0.085-0.082,0.178-0.152,0.262-0.236c0.085-0.085,0.155-0.178,0.238-0.264
			c0.085-0.082,0.178-0.152,0.262-0.236c0.085-0.085,0.155-0.178,0.238-0.264c0.085-0.082,0.178-0.152,0.262-0.236
			c0.085-0.085,0.155-0.178,0.238-0.264c0.085-0.082,0.178-0.152,0.262-0.236c0.085-0.085,0.155-0.178,0.238-0.264
			c0.085-0.082,0.178-0.152,0.262-0.236c0.085-0.085,0.155-0.178,0.238-0.264c0.085-0.082,0.178-0.152,0.262-0.236
			c0.085-0.085,0.155-0.178,0.238-0.264c0.085-0.082,0.178-0.152,0.262-0.236c0.085-0.085,0.155-0.178,0.238-0.264
			c0.085-0.082,0.178-0.152,0.262-0.236c0.085-0.085,0.155-0.178,0.238-0.264c0.085-0.082,0.178-0.152,0.262-0.236
			c0.085-0.085,0.155-0.178,0.238-0.264c0.085-0.082,0.178-0.152,0.262-0.236c0.085-0.085,0.155-0.178,0.238-0.264
			c0.085-0.082,0.178-0.152,0.262-0.236c0.085-0.085,0.155-0.178,0.238-0.264c0.085-0.082,0.178-0.152,0.262-0.236
			c0.085-0.085,0.155-0.178,0.238-0.264c0.085-0.082,0.178-0.152,0.262-0.236c0.085-0.085,0.155-0.178,0.238-0.264
			c0.085-0.082,0.178-0.152,0.262-0.236c0.085-0.085,0.155-0.178,0.238-0.264c0.085-0.082,0.178-0.152,0.262-0.236
			c0.085-0.085,0.155-0.178,0.238-0.264c0.085-0.082,0.178-0.152,0.262-0.236c0.085-0.085,0.155-0.178,0.238-0.264
			c0.085-0.082,0.178-0.152,0.262-0.236c0.085-0.085,0.155-0.178,0.238-0.264c0.085-0.082,0.178-0.152,0.262-0.236
			c0.085-0.085,0.155-0.178,0.238-0.264c0.085-0.082,0.178-0.152,0.262-0.236c0.085-0.085,0.155-0.178,0.238-0.264
			c0.085-0.082,0.178-0.152,0.262-0.236c0.085-0.085,0.155-0.178,0.238-0.264c0.085-0.082,0.178-0.152,0.262-0.236
			c0.085-0.085,0.155-0.178,0.238-0.264c0.085-0.082,0.178-0.152,0.262-0.236c0.085-0.085,0.155-0.178,0.238-0.264
			c0.085-0.082,0.178-0.152,0.262-0.236c0.085-0.085,0.155-0.178,0.238-0.264c0.085-0.082,0.178-0.152,0.262-0.236
			c0.085-0.085,0.155-0.178,0.238-0.264c0.085-0.082,0.178-0.152,0.262-0.236c0.085-0.085,0.155-0.178,0.238-0.264
			c0.085-0.082,0.178-0.152,0.262-0.236c0.085-0.085,0.155-0.178,0.238-0.264c0.085-0.082,0.178-0.152,0.262-0.236
			c0.085-0.085,0.155-0.178,0.238-0.264c0.085-0.082,0.178-0.152,0.262-0.236c0.085-0.085,0.155-0.178,0.238-0.264
			c0.085-0.082,0.178-0.152,0.262-0.236c0.085-0.085,0.155-0.178,0.238-0.264c0.085-0.082,0.178-0.152,0.262-0.236
			c0.085-0.085,0.155-0.178,0.238-0.264c0.085-0.082,0.178-0.152,0.262-0.236c0.085-0.085,0.155-0.178,0.238-0.264
			c0.085-0.082,0.178-0.152,0.262-0.236c0.085-0.085,0.155-0.178,0.238-0.264c0.085-0.082,0.178-0.152,0.262-0.236
			c0.085-0.085,0.155-0.178,0.238-0.264c0.085-0.082,0.178-0.152,0.262-0.236c0.085-0.085,0.155-0.178,0.238-0.264
			c0.085-0.082,0.178-0.152,0.262-0.236c0.085-0.085,0.155-0.178,0.238-0.264c0.085-0.082,0.178-0.152,0.262-0.236
			c0.085-0.085,0.155-0.178,0.238-0.264c0.085-0.082,0.178-0.152,0.262-0.236c0.085-0.085,0.155-0.178,0.238-0.264
			c0.085-0.082,0.178-0.152,0.262-0.236c0.085-0.085,0.155-0.178,0.238-0.264c0.085-0.082,0.178-0.152,0.262-0.236
			c0.085-0.085,0.155-0.178,0.238-0.264c0.085-0.082,0.178-0.152,0.262-0.236c0.085-0.085,0.155-0.178,0.238-0.264
			c0.085-0.082,0.178-0.152,0.262-0.236c0.085-0.085,0.155-0.178,0.238-0.264c0.085-0.082,0.178-0.152,0.262-0.236
			c0.085-0.085,0.155-0.178,0.238-0.264c0.085-0.082,0.178-0.152,0.262-0.236c0.085-0.085,0.155-0.178,0.238-0.264
			c0.085-0.082,0.178-0.152,0.262-0.236c0.085-0.085,0.155-0.178,0.238-0.264c0.085-0.082,0.178-0.152,0.262-0.236
			c0.085-0.085,0.155-0.178,0.238-0.264c0.085-0.082,0.178-0.152,0.262-0.236c0.085-0.085,0.155-0.178,0.238-0.264
			c0.085-0.082,0.178-0.152,0.262-0.236c0.085-0.085,0.155-0.178,0.238-0.264c0.085-0.082,0.178-0.152,0.262-0.236
			c0.085-0.085,0.155-0.178,0.238-0.264c0.085-0.082,0.178-0.152,0.262-0.236c0.085-0.085,0.155-0.178,0.238-0.264
			c0.085-0.082,0.178-0.152,0.262-0.236c0.085-0.085,0.155-0.178,0.238-0.264c0.085-0.082,0.178-0.152,0.262-0.236
			c0.085-0.085,0.155-0.178,0.238-0.264c0.085-0.082,0.178-0.152,0.262-0.236c0.085-0.085,0.155-0.178,0.238-0.264
			c0.085-0.082,0.178-0.152,0.262-0.236c0.085-0.085,0.155-0.178,0.238-0.264c0.085-0.082,0.178-0.152,0.262-0.236
			c0.085-0.085,0.155-0.178,0.238-0.264c0.085-0.082,0.178-0.152,0.262-0.236c0.085-0.085,0.155-0.178,0.238-0.264
			c0.085-0.082,0.178-0.152,0.262-0.236c0.085-0.085,0.155-0.178,0.238-0.264c0.085-0.082,0.178-0.152,0.262-0.236
			c0.085-0.085,0.155-0.178,0.238-0.264c0.085-0.082,0.178-0.152,0.262-0.236c0.085-0.085,0.155-0.178,0.238-0.264
			c0.085-0.082,0.178-0.152,0.262-0.236c0.085-0.085,0.155-0.178,0.238-0.264c0.085-0.082,0.178-0.152,0.262-0.236
			c0.085-0.085,0.155-0.178,0.238-0.264c0.085-0.082,0.178-0.152,0.262-0.236c0.085-0.085,0.155-0.178,0.238-0.264
			c0.085-0.082,0.178-0.152,0.262-0.236c0.085-0.085,0.155-0.178,0.238-0.264c0.085-0.082,0.178-0.152,0.262-0.236
			c0.085-0.085,0.155-0.178,0.238-0.264c0.085-0.082,0.178-0.152,0.262-0.236c0.085-0.085,0.155-0.178,0.238-0.264
			c0.085-0.082,0.178-0.152,0.262-0.236c0.085-0.085,0.155-0.178,0.238-0.264c0.085-0.082,0.178-0.152,0.262-0.236
			c0.085-0.085,0.155-0.178,0.238-0.264c0.085-0.082,0.178-0.152,0.262-0.236c0.085-0.085,0.155-0.178,0.238-0.264
			c0.085-0.082,0.178-0.152,0.262-0.236c0.085-0.085,0.155-0.178,0.238-0.264c0.085-0.082,0.178-0.152,0.262-0.236
			c0.085-0.085,0.155-0.178,0.238-0.264c0.085-0.082,0.178-0.152,0.262-0.236c0.085-0.085,0.155-0.178,0.238-0.264
			c0.085-0.082,0.178-0.152,0.262-0.236c0.085-0.085,0.155-0.178,0.238-0.264c0.085-0.082,0.178-0.152,0.262-0.236
			c0.085-0.085,0.155-0.178,0.238-0.264c0.085-0.082,0.178-0.152,0.262-0.236c0.085-0.085,0.155-0.178,0.238-0.264
			c0.085-0.082,0.178-0.152,0.262-0.236c0.085-0.085,0.155-0.178,0.238-0.264c0.085-0.082,0.178-0.152,0.262-0.236
			c0.085-0.085,0.155-0.178,0.238-0.264c0.085-0.082,0.178-0.152,0.262-0.236c0.085-0.085,0.155-0.178,0.238-0.264
			c0.085-0.082,0.178-0.152,0.262-0.236c0.085-0.085,0.155-0.178,0.238-0.264c0.085-0.082,0.178-0.152,0.262-0.236
			c0.085-0.085,0.155-0.178,0.238-0.264c0.085-0.082,0.178-0.152,0.262-0.236c0.085-0.085,0.155-0.178,0.238-0.264
			c0.085-0.082,0.178-0.152,0.262-0.236c0.085-0.085,0.155-0.178,0.238-0.264c0.085-0.082,0.178-0.152,0.262-0.236
			c0.085-0.085,0.155-0.178,0.238-0.264c0.085-0.082,0.178-0.152,0.262-0.236c0.085-0.085,0.155-0.178,0.238-0.264
			c0.085-0.082,0.178-0.152,0.262-0.236c0.085-0.085,0.155-0.178,0.238-0.264c0.085-0.082,0.178-0.152,0.262-0.236
			c0.085-0.085,0.155-0.178,0.238-0.264c0.085-0.082,0.178-0.152,0.262-0.236c0.085-0.085,0.155-0.178,0.238-0.264
			c0.085-0.082,0.178-0.152,0.262-0.236c0.085-0.085,0.155-0.178,0.238-0.264c0.085-0.082,0.178-0.152,0.262-0.236
			c0.085-0.085,0.155-0.178,0.238-0.264c0.085-0.082,0.178-0.152,0.262-0.236c0.085-0.085,0.155-0.178,0.238-0.264
			c0.085-0.082,0.178-0.152,0.262-0.236c0.085-0.085,0.155-0.178,0.238-0.264c0.085-0.082,0.178-0.152,0.262-0.236
			c0.085-0.085,0.155-0.178,0.238-0.264c0.085-0.082,0.178-0.152,0.262-0.236c0.085-0.085,0.155-0.178,0.238-0.264
			c0.085-0.082,0.178-0.152,0.262-0.236c0.085-0.085,0.155-0.178,0.238-0.264c0.085-0.082,0.178-0.152,0.262-0.236
			c0.085-0.085,0.155-0.178,0.238-0.264c0.085-0.082,0.178-0.152,0.262-0.236c0.085-0.085,0.155-0.178,0.238-0.264
			c0.085-0.082,0.178-0.152,0.262-0.236c0.085-0.085,0.155-0.178,0.238-0.264c0.085-0.082,0.178-0.152,0.262-0.236
			c0.085-0.085,0.155-0.178,0.238-0.264c0.085-0.082,0.178-0.152,0.262-0.236c0.085-0.085,0.155-0.178,0.238-0.264
			c0.085-0.082,0.178-0.152,0.262-0.236c0.085-0.085,0.155-0.178,0.238-0.264c0.085-0.082,0.178-0.152,0.262-0.236
			c0.085-0.085,0.155-0.178,0.238-0.264c0.085-0.082,0.178-0.152,0.262-0.236c0.085-0.085,0.155-0.178,0.238-0.264
			c0.085-0.082,0.178-0.152,0.262-0.236c0.085-0.085,0.155-0.178,0.238-0.264c0.085-0.082,0.178-0.152,0.262-0.236
			c0.085-0.085,0.155-0.178,0.238-0.264c0.085-0.082,0.178-0.152,0.262-0.236c0.085-0.085,0.155-0.178,0.238-0.264
			c0.085-0.082,0.178-0.152,0.262-0.236c0.085-0.085,0.155-0.178,0.238-0.264c0.085-0.082,0.178-0.152,0.262-0.236
			c0.085-0.085,0.155-0.178,0.238-0.264c0.085-0.082,0.178-0.152,0.262-0.236c0.085-0.085,0.155-0.178,0.238-0.264
			c0.085-0.082,0.178-0.152,0.262-0.236c0.085-0.085,0.155-0.178,0.238-0.264c0.085-0.082,0.178-0.152,0.262-0.236
			c0.085-0.085,0.155-0.178,0.238-0.264c0.085-0.082,0.178-0.152,0.262-0.236c0.085-0.085,0.155-0.178,0.238-0.264
			c0.085-0.082,0.178-0.152,0.262-0.236c0.085-0.085,0.155-0.178,0.238-0.264c0.085-0.082,0.178-0.152,0.262-0.236
			c0.085-0.085,0.155-0.178,0.238-0.264c0.085-0.082,0.178-0.152,0.262-0.236c0.085-0.085,0.155-0.178,0.238-0.264
			c0.085-0.082,0.178-0.152,0.262-0.236c0.085-0.085,0.155-0.178,0.238-0.264c0.085-0.082,0.178-0.152,0.262-0.236
			c0.085-0.085,0.155-0.178,0.238-0.264c0.085-0.082,0.178-0.152,0.262-0.236c0.085-0.085,0.155-0.178,0.238-0.264
			c0.085-0.082,0.178-0.152,0.262-0.236c0.085-0.085,0.155-0.178,0.238-0.264c0.085-0.082,0.178-0.152,0.262-0.236
			c0.085-0.085,0.155-0.178,0.238-0.264c0.085-0.082,0.178-0.152,0.262-0.236c0.085-0.085,0.155-0.178,0.238-0.264
			c0.085-0.082,0.178-0.152,0.262-0.236c0.085-0.085,0.155-0.178,0.238-0.264c0.085-0.082,0.178-0.152,0.262-0.236
			c0.085-0.085,0.155-0.178,0.238-0.264c0.085-0.082,0.178-0.152,0.262-0.236c0.085-0.085,0.155-0.178,0.238-0.264
			c0.085-0.082,0.178-0.152,0.262-0.236c0.085-0.085,0.155-0.178,0.238-0.264c0.085-0.082,0.178-0.152,0.262-0.236
			c0.085-0.085,0.155-0.178,0.238-0.264c0.085-0.082,0.178-0.152,0.262-0.236c0.085-0.085,0.155-0.178,0.238-0.264
			c0.085-0.082,0.178-0.152,0.262-0.236c0.085-0.085,0.155-0.178,0.238-0.264c0.085-0.082,0.178-0.152,0.262-0.236
			c0.085-0.085,0.155-0.178,0.238-0.264c0.085-0.082,0.178-0.152,0.262-0.236c0.085-0.085,0.155-0.178,0.238-0.264
			c0.085-0.082,0.178-0.152,0.262-0.236c0.085-0.085,0.155-0.178,0.238-0.264c0.085-0.082,0.178-0.152,0.262-0.236
			c0.085-0.085,0.155-0.178,0.238-0.264c0.085-0.082,0.178-0.152,0.262-0.236c0.085-0.085,0.155-0.178,0.238-0.264
			c0.085-0.082,0.178-0.152,0.262-0.236c0.085-0.085,0.155-0.178,0.238-0.264c0.085-0.082,0.178-0.152,0.262-0.236
			c0.085-0.085,0.155-0.178,0.238-0.264c0.085-0.082,0.178-0.152,0.262-0.236c0.085-0.085,0.155-0.178,0.238-0.264
			c0.085-0.082,0.178-0.152,0.262-0.236c0.085-0.085,0.155-0.178,0.238-0.264c0.085-0.082,0.178-0.152,0.262-0.236
			c0.085-0.085,0.155-0.178,0.238-0.264c0.085-0.082,0.178-0.152,0.262-0.236c0.085-0.085,0.155-0.178,0.238-0.264
			c0.085-0.082,0.178-0.152,0.262-0.236c0.085-0.085,0.155-0.178,0.238-0.264c0.085-0.082,0.178-0.152,0.262-0.236
			c0.085-0.085,0.155-0.178,0.238-0.264c0.085-0.082,0.178-0.152,0.262-0.236c0.085-0.085,0.155-0.178,0.238-0.264
			c0.085-0.082,0.178-0.152,0.262-0.236c0.085-0.085,0.155-0.178,0.238-0.264c0.085-0.082,0.178-0.152,0.262-0.236
			c0.085-0.085,0.155-0.178,0.238-0.264c0.085-0.082,0.178-0.152,0.262-0.236c0.085-0.085,0.155-0.178,0.238-0.264
			c0.085-0.082,0.178-0.152,0.262-0.236c0.085-0.085,0.155-0.178,0.238-0.264c0.085-0.082,0.178-0.152,0.262-0.236
			c0.085-0.085,0.155-0.178,0.238-0.264c0.085-0.082,0.178-0.152,0.262-0.236c0.085-0.085,0.155-0.178,0.238-0.264
			c0.085-0.082,0.178-0.152,0.262-0.236c0.085-0.085,0.155-0.178,0.238-0.264c0.085-0.082,0.178-0.152,0.262-0.236
			c0.085-0.085,0.155-0.178,0.238-0.264c0.085-0.082,0.178-0.152,0.262-0.236c0.085-0.085,0.155-0.178,0.238-0.264
			c0.085-0.082,0.178-0.152,0.262-0.236c0.085-0.085,0.155-0.178,0.238-0.264c0.085-0.082,0.178-0.152,0.262-0.236
			c0.085-0.085,0.155-0.178,0.238-0.264c0.085-0.082,0.178-0.152,0.262-0.236c0.085-0.085,0.155-0.178,0.238-0.264
			c0.085-0.082,0.178-0.152,0.262-0.236c0.085-0.085,0.155-0.178,0.238-0.264c0.085-0.082,0.178-0.152,0.262-0.236
			c0.085-0.085,0.155-0.178,0.238-0.264c0.085-0.082,0.178-0.152,0.262-0.236c0.085-0.085,0.155-0.178,0.238-0.264
			c0.085-0.082,0.178-0.152,0.262-0.236c0.085-0.085,0.155-0.178,0.238-0.264c0.085-0.082,0.178-0.152,0.262-0.236
			c0.085-0.085,0.155-0.178,0.238-0.264c0.085-0.082,0.178-0.152,0.262-0.236c0.085-0.085,0.155-0.178,0.238-0.264
			c0.085-0.082,0.178-0.152,0.262-0.236c0.085-0.085,0.155-0.178,0.238-0.264c0.085-0.082,0.178-0.152,0.262-0.236
			c0.085-0.085,0.155-0.178,0.238-0.264c0.085-0.082,0.178-0.152,0.262-0.236c0.085-0.085,0.155-0.178,0.238-0.264
			c0.085-0.082,0.178-0.152,0.262-0.236c0.085-0.085,0.155-0.178,0.238-0.264c0.085-0.082,0.178-0.152,0.262-0.236
			c0.085-0.085,0.155-0.178,0.238-0.264c0.085-0.082,0.178-0.152,0.262-0.236c0.085-0.085,0.155-0.178,0.238-0.264
			c0.085-0.082,0.178-0.152,0.262-0.236c0.085-0.085,0.155-0.178,0.238-0.264c0.085-0.082,0.178-0.152,0.262-0.236
			c0.085-0.085,0.155-0.178,0.238-0.264c0.085-0.082,0.178-0.152,0.262-0.236c0.085-0.085,0.155-0.178,0.238-0.264
			c0.085-0.082,0.178-0.152,0.262-0.236c0.085-0.085,0.155-0.178,0.238-0.264c0.085-0.082,0.178-0.152,0.262-0.236
			c0.085-0.085,0.155-0.178,0.238-0.264c0.085-0.082,0.178-0.152,0.262-0.236c0.085-0.085,0.155-0.178,0.238-0.264
			c0.085-0.082,0.178-0.152,0.262-0.236c0.085-0.085,0.155-0.178,0.238-0.264c0.085-0.082,0.178-0.152,0.262-0.236
			c0.085-0.085,0.155-0.178,0.238-0.264c0.085-0.082,0.178-0.152,0.262-0.236c0.085-0.085,0.155-0.178,0.238-0.264
			c0.085-0.082,0.178-0.152,0.262-0.236c0.085-0.085,0.155-0.178,0.238-0.264c0.085-0.082,0.178-0.152,0.262-0.236
			c0.085-0.085,0.155-0.178,0.238-0.264c0.085-0.082,0.178-0.152,0.262-0.236c0.085-0.085,0.155-0.178,0.238-0.264
			c0.085-0.082,0.178-0.152,0.262-0.236c0.085-0.085,0.155-0.178,0.238-0.264c0.085-0.082,0.178-0.152,0.262-0.236
			c0.085-0.085,0.155-0.178,0.238-0.264c0.085-0.082,0.178-0.152,0.262-0.236c0.085-0.085,0.155-0.178,0.238-0.264
			c0.085-0.082,0.178-0.152,0.262-0.236c0.085-0.085,0.155-0.178,0.238-0.264c0.085-0.082,0.178-0.152,0.262-0.236
			c0.085-0.085,0.155-0.178,0.238-0.264c0.085-0.082,0.178-0.152,0.262-0.236c0.085-0.085,0.155-0.178,0.238-0.264
			c0.085-0.082,0.178-0.152,0.262-0.236c0.085-0.085,0.155-0.178,0.238-0.264c0.085-0.082,0.178-0.152,0.262-0.236
			c0.085-0.085,0.155-0.178,0.238-0.264c0.085-0.082,0.178-0.152,0.262-0.236c0.085-0.085,0.155-0.178,0.238-0.264
			c0.085-0.082,0.178-0.152,0.262-0.236c0.085-0.085,0.155-0.178,0.238-0.264c0.085-0.082,0.178-0.152,0.262-0.236
			c0.085-0.085,0.155-0.178,0.238-0.264c0.085-0.082,0.178-0.152,0.262-0.236c0.085-0.085,0.155-0.178,0.238-0.264
			c0.085-0.082,0.178-0.152,0.262-0.236c0.085-0.085,0.155-0.178,0.238-0.264c0.085-0.082,0.178-0.152,0.262-0.236
			c0.085-0.085,0.155-0.178,0.238-0.264c0.085-0.082,0.178-0.152,0.262-0.236c0.085-0.085,0.155-0.178,0.238-0.264
			c0.085-0.082,0.178-0.152,0.262-0.236c0.085-0.085,0.155-0.178,0.238-0.264c0.085-0.082,0.178-0.152,0.262-0.236
			c0.085-0.085,0.155-0.178,0.238-0.264c0.085-0.082,0.178-0.152,0.262-0.236c0.085-0.085,0.155-0.178,0.238-0.264
			c0.085-0.082,0.178-0.152,0.262-0.236c0.085-0.085,0.155-0.178,0.238-0.264c0.085-0.082,0.178-0.152,0.262-0.236
			c0.085-0.085,0.155-0.178,0.238-0.264c0.085-0.082,0.178-0.152,0.262-0.236c0.085-0.085,0.155-0.178,0.238-0.264
			c0.085-0.082,0.178-0.152,0.262-0.236c0.085-0.085,0.155-0.178,0.238-0.264c0.085-0.082,0.178-0.152,0.262-0.236
			c0.085-0.085,0.155-0.178,0.238-0.264c0.085-0.082,0.178-0.152,0.262-0.236c0.085-0.085,0.155-0.178,0.238-0.264
			c0.085-0.082,0.178-0.152,0.262-0.236c0.085-0.085,0.155-0.178,0.238-0.264c0.085-0.082,0.178-0.152,0.262-0.236
			c0.085-0.085,0.155-0.178,0.238-0.264c0.085-0.082,0.178-0.152,0.262-0.236c0.085-0.085,0.155-0.178,0.238-0.264
			c0.085-0.082,0.178-0.152,0.262-0.236c0.085-0.085,0.155-0.178,0.238-0.264c0.085-0.082,0.178-0.152,0.262-0.236
			c0.085-0.085,0.155-0.178,0.238-0.264c0.085-0.082,0.178-0.152,0.262-0.236c0.085-0.085,0.155-0.178,0.238-0.264
			c0.085-0.082,0.178-0.152,0.262-0.236c0.085-0.085,0.155-0.178,0.238-0.264c0.085-0.082,0.178-0.152,0.262-0.236
			c0.085-0.085,0.155-0.178,0.238-0.264c0.085-0.082,0.178-0.152,0.262-0.236c0.085-0.085,0.155-0.178,0.238-0.264
			c0.085-0.082,0.178-0.152,0.262-0.236c0.085-0.085,0.155-0.178,0.238-0.264c0.085-0.082,0.178-0.152,0.262-0.236
			c0.085-0.085,0.155-0.178,0.238-0.264c0.085-0.082,0.178-0.152,0.262-0.236c0.085-0.085,0.155-0.178,0.238-0.264
			c0.085-0.082,0.178-0.152,0.262-0.236c0.085-0.085,0.155-0.178,0.238-0.264c0.085-0.082,0.178-0.152,0.262-0.236
			c0.085-0.085,0.155-0.178,0.238-0.264c0.085-0.082,0.178-0.152,0.262-0.236c0.085-0.085,0.155-0.178,0.238-0.264
			c0.085-0.082,0.178-0.152,0.262-0.236c0.085-0.085,0.155-0.178,0.238-0.264c0.085-0.082,0.178-0.152,0.262-0.236
			c0.085-0.085,0.155-0.178,0.238-0.264c0.085-0.082,0.178-0.152,0.262-0.236c0.085-0.085,0.155-0.178,0.238-0.264
			c0.085-0.082,0.178-0.152,0.262-0.236c0.085-0.085,0.155-0.178,0.238-0.264c0.085-0.082,0.178-0.152,0.262-0.236
			c0.085-0.085,0.155-0.178,0.238-0.264c0.085-0.082,0.178-0.152,0.262-0.236C408.598,372.324,408.598,357.319,399.331,348.069z"/>
	</g>
	<path fill="#FFFFFF" d="M399.331,348.069l-48.99-48.984c15.185-21.747,24.104-48.175,24.104-76.65
		c0-74.023-60.235-134.242-134.27-134.242c-74.038,0-134.272,60.219-134.272,134.242c0,74.022,60.234,134.243,134.272,134.243
		c28.476,0,54.908-8.918,76.66-24.096l48.998,48.992c4.621,4.624,10.691,6.939,16.75,6.939c6.06,0,12.13-2.315,16.747-6.939
		C408.598,372.324,408.598,357.319,399.331,348.069z M240.176,311.058c-48.869,0-88.634-39.756-88.634-88.623
		c0-48.867,39.765-88.622,88.634-88.622c48.867,0,88.63,39.755,88.63,88.622C328.806,271.302,289.043,311.058,240.176,311.058z"/>
</g>
</svg>
