<?xml version="1.0" encoding="utf-8"?>
<!-- Generator: Adobe Illustrator 16.0.3, SVG Export Plug-In . SVG Version: 6.00 Build 0)  -->
<!DOCTYPE svg PUBLIC "-//W3C//DTD SVG 1.1//EN" "http://www.w3.org/Graphics/SVG/1.1/DTD/svg11.dtd">
<svg version="1.1" id="Layer_1" xmlns="http://www.w3.org/2000/svg" xmlns:xlink="http://www.w3.org/1999/xlink" x="0px" y="0px"
	 width="25.669px" height="15.669px" viewBox="0 0 25.669 15.669" enable-background="new 0 0 25.669 15.669" xml:space="preserve">
<g>
	<g opacity="0.4">
		<path d="M12.834,1c0.726,0,1.451,0.275,2.005,0.83l9,9c1.106,1.105,1.106,2.9,0,4.008c-1.107,1.107-2.902,1.107-4.01,0l-9-9
			c-1.106-1.106-1.106-2.901,0-4.008C11.383,1.275,12.109,1,12.834,1z"/>
		<path d="M11.834,1c0.726,0,1.451,0.275,2.005,0.83c1.106,1.106,1.106,2.901,0,4.008l-9,9c-1.107,1.107-2.902,1.107-4.01,0
			c-1.106-1.107-1.106-2.902,0-4.008l9-9C10.383,1.275,11.109,1,11.834,1z"/>
	</g>
	<g>
		<g>
			<path fill="#E5E5E5" d="M13.834,0c0.726,0,1.451,0.275,2.005,0.83l9,9c1.106,1.105,1.106,2.9,0,4.008
				c-1.107,1.107-2.902,1.107-4.01,0l-9-9c-1.106-1.106-1.106-2.901,0-4.008C12.383,0.275,13.109,0,13.834,0z"/>
		</g>
		<g>
			<path fill="#E5E5E5" d="M12.834,0c0.726,0,1.451,0.275,2.005,0.83c1.106,1.106,1.106,2.901,0,4.008l-9,9
				c-1.107,1.107-2.902,1.107-4.01,0c-1.106-1.107-1.106-2.902,0-4.008l9-9C11.383,0.275,12.109,0,12.834,0z"/>
		</g>
	</g>
</g>
</svg>
