<?xml version="1.0" encoding="utf-8"?>
<!-- Generator: Adobe Illustrator 16.0.3, SVG Export Plug-In . SVG Version: 6.00 Build 0)  -->
<!DOCTYPE svg PUBLIC "-//W3C//DTD SVG 1.1//EN" "http://www.w3.org/Graphics/SVG/1.1/DTD/svg11.dtd">
<svg version="1.1" id="Layer_1" xmlns="http://www.w3.org/2000/svg" xmlns:xlink="http://www.w3.org/1999/xlink" x="0px" y="0px"
	 width="128px" height="128px" viewBox="0 0 128 128" enable-background="new 0 0 128 128" xml:space="preserve">
<path fill="#444953" d="M128,25.06C128,11.22,116.781,0,102.941,0H25.059C11.219,0,0,11.22,0,25.06v77.881
	C0,116.78,11.219,128,25.059,128h77.883c13.84,0,25.059-11.22,25.059-25.06V25.06z"/>
<g>
	<defs>
		<path id="SVGID_1_" d="M128,25.06C128,11.22,116.781,0,102.941,0H25.059C11.219,0,0,11.22,0,25.06v77.881
			C0,116.78,11.219,128,25.059,128h77.883c13.84,0,25.059-11.22,25.059-25.06V25.06z"/>
	</defs>
	<clipPath id="SVGID_2_">
		<use xlink:href="#SVGID_1_"  overflow="visible"/>
	</clipPath>
	<path clip-path="url(#SVGID_2_)" fill="#353A42" d="M87.77,93.861c0-1.031-0.835-1.861-1.865-1.861H83.19
		c0.014,0,0.024-0.049,0.038-0.064c0.043-0.039,0.084-0.09,0.124-0.133c0.044-0.041,0.085-0.087,0.126-0.131
		c0.043-0.04,0.084-0.084,0.124-0.127c0.044-0.041,0.085-0.083,0.126-0.126c0.043-0.041,0.085-0.082,0.125-0.126
		c0.044-0.04,0.085-0.082,0.126-0.126c0.043-0.04,0.084-0.081,0.125-0.125c0.044-0.041,0.086-0.083,0.126-0.127
		c0.043-0.04,0.084-0.081,0.125-0.124c0.043-0.04,0.084-0.081,0.125-0.125c0.044-0.041,0.086-0.082,0.126-0.127
		c0.044-0.04,0.085-0.081,0.125-0.124c0.043-0.04,0.084-0.081,0.124-0.124c0.045-0.041,0.087-0.083,0.128-0.127
		c0.043-0.041,0.084-0.082,0.124-0.125c0.043-0.04,0.085-0.082,0.125-0.125c0.044-0.041,0.009-0.083,0.05-0.127
		C85.769,89.334,86,88.692,86,87.975V23.281C86,21.909,85.042,21,83.668,21H46.291c-0.718,0-1.36,0.207-1.813,0.693
		c-0.043,0.041-0.085,0.031-0.126,0.075c-0.044,0.041-0.086,0.057-0.127,0.101c-0.043,0.04-0.083,0.068-0.123,0.11
		c-0.044,0.041-0.085,0.076-0.126,0.12c-0.044,0.041-0.086,0.08-0.127,0.124c-0.043,0.04-0.083,0.079-0.124,0.122
		c-0.043,0.041-0.085,0.081-0.125,0.125c-0.044,0.041-0.086,0.083-0.127,0.127c-0.043,0.04-0.083,0.08-0.123,0.123
		c-0.044,0.041-0.085,0.082-0.126,0.126c-0.044,0.041-0.086,0.083-0.127,0.127c-0.043,0.04-0.083,0.081-0.123,0.123
		c-0.044,0.041-0.085,0.082-0.126,0.126c-0.044,0.041-0.085,0.083-0.126,0.126c-0.043,0.041-0.084,0.082-0.124,0.125
		c-0.043,0.04-0.085,0.082-0.125,0.125c-0.044,0.041-0.085,0.083-0.126,0.127c-0.042,0.04-0.083,0.081-0.123,0.123
		c-0.044,0.041-0.085,0.083-0.126,0.126c-0.044,0.041-0.085,0.083-0.126,0.127c-0.042,0.04-0.083,0.081-0.123,0.123
		c-0.044,0.041-0.086,0.083-0.126,0.126c-0.044,0.041-0.086,0.083-0.126,0.126c-0.042,0.04-0.083,0.081-0.123,0.123
		c-0.043,0.041-0.085,0.082-0.125,0.125c-0.044,0.041-0.086,0.083-0.127,0.127c-0.042,0.04-0.083,0.081-0.123,0.123
		c-0.044,0.041-0.085,0.083-0.126,0.126c-0.043,0.041-0.085,0.083-0.126,0.127c-0.043,0.04-0.083,0.081-0.124,0.124
		c-0.043,0.041-0.085,0.082-0.125,0.125c-0.043,0.041-0.085,0.083-0.126,0.126c-0.043,0.04-0.083,0.081-0.124,0.124
		c-0.044,0.041-0.085,0.083-0.126,0.126c-0.044,0.041-0.085,0.083-0.126,0.127c-0.042,0.04-0.083,0.081-0.123,0.123
		c-0.044,0.041-0.085,0.083-0.126,0.126c-0.044,0.041-0.085,0.083-0.126,0.127c-0.043,0.04-0.083,0.081-0.124,0.124
		c-0.043,0.041-0.085,0.082-0.125,0.125c-0.044,0.041-0.086,0.083-0.127,0.127c-0.042,0.04-0.083,0.081-0.123,0.123
		c-0.044,0.041-0.085,0.083-0.126,0.126c-0.044,0.041-0.086,0.083-0.127,0.127c-0.042,0.04-0.083,0.081-0.123,0.123
		c-0.044,0.041-0.086,0.083-0.127,0.126c-0.043,0.041-0.084,0.082-0.125,0.125c-0.043,0.04-0.083,0.081-0.124,0.124
		c-0.044,0.041-0.085,0.083-0.126,0.126c-0.044,0.041-0.085,0.083-0.126,0.127c-0.042,0.04-0.083,0.081-0.123,0.123
		c-0.044,0.041-0.085,0.083-0.126,0.126c-0.044,0.041-0.085,0.083-0.126,0.127c-0.042,0.04-0.083,0.081-0.123,0.123
		c-0.044,0.041-0.085,0.083-0.126,0.126c-0.044,0.041-0.085,0.083-0.126,0.127c-0.042,0.04-0.083,0.081-0.123,0.123
		c-0.044,0.041-0.085,0.083-0.126,0.126c-0.043,0.041-0.085,0.083-0.126,0.127c-0.042,0.04-0.083,0.081-0.123,0.123
		c-0.044,0.041-0.085,0.083-0.126,0.126c-0.043,0.041-0.085,0.083-0.126,0.127c-0.042,0.04-0.083,0.081-0.124,0.124
		c-0.043,0.041-0.085,0.082-0.125,0.125c-0.043,0.041-0.085,0.083-0.126,0.126c-0.043,0.04-0.083,0.081-0.124,0.124
		c-0.044,0.041-0.085,0.083-0.126,0.126c-0.044,0.041-0.085,0.083-0.126,0.127c-0.042,0.04-0.083,0.081-0.123,0.123
		c-0.044,0.041-0.085,0.083-0.126,0.126c-0.044,0.041-0.085,0.083-0.126,0.127c-0.043,0.04-0.083,0.081-0.124,0.124
		c-0.043,0.041-0.085,0.082-0.125,0.125c-0.044,0.041-0.086,0.083-0.127,0.127c-0.042,0.04-0.083,0.081-0.123,0.123
		c-0.044,0.041-0.085,0.083-0.126,0.126c-0.044,0.041-0.086,0.083-0.127,0.127c-0.042,0.04-0.083,0.081-0.123,0.123
		c-0.044,0.041-0.086,0.083-0.127,0.126c-0.043,0.041-0.084,0.082-0.125,0.125c-0.043,0.04-0.083,0.081-0.124,0.124
		c-0.044,0.041-0.085,0.083-0.126,0.126c-0.044,0.041-0.085,0.083-0.126,0.127c-0.042,0.04-0.083,0.081-0.123,0.123
		c-0.044,0.041-0.085,0.083-0.126,0.126c-0.044,0.041-0.085,0.083-0.126,0.127c-0.042,0.04-0.083,0.081-0.123,0.123
		c-0.044,0.041-0.085,0.083-0.126,0.126c-0.044,0.041-0.085,0.083-0.126,0.127c-0.042,0.04-0.083,0.081-0.123,0.123
		c-0.044,0.041-0.085,0.083-0.126,0.126c-0.043,0.041-0.085,0.083-0.126,0.127c-0.042,0.04-0.083,0.081-0.123,0.123
		c-0.044,0.041-0.085,0.083-0.126,0.126c-0.043,0.041-0.085,0.083-0.126,0.127c-0.043,0.04-0.083,0.081-0.124,0.124
		c-0.043,0.041-0.085,0.082-0.125,0.125c-0.043,0.041-0.085,0.082-0.126,0.126c-0.043,0.04-0.083,0.081-0.124,0.124
		c-0.044,0.041-0.085,0.083-0.126,0.126c-0.044,0.041-0.085,0.083-0.126,0.127c-0.042,0.04-0.083,0.081-0.123,0.123
		c-0.044,0.041-0.086,0.083-0.127,0.126c-0.043,0.041-0.085,0.083-0.126,0.126c-0.042,0.04-0.083,0.081-0.123,0.123
		c-0.044,0.041-0.085,0.083-0.126,0.126c-0.044,0.041-0.085,0.082-0.126,0.125c-0.043,0.04-0.084,0.081-0.124,0.124
		c-0.044,0.041-0.086,0.083-0.127,0.126c-0.043,0.041-0.084,0.082-0.125,0.125c-0.043,0.04-0.084,0.081-0.124,0.124
		c-0.044,0.041-0.086,0.083-0.127,0.126c-0.043,0.041-0.084,0.082-0.125,0.125c-0.043,0.04-0.083,0.081-0.124,0.124
		c-0.044,0.041-0.086,0.083-0.127,0.127c-0.043,0.04-0.084,0.082-0.125,0.125c-0.043,0.04-0.084,0.081-0.124,0.124
		c-0.044,0.041-0.086,0.083-0.127,0.127c-0.043,0.04-0.084,0.082-0.125,0.125c-0.043,0.041-0.084,0.082-0.125,0.125
		c-0.043,0.041-0.085,0.082-0.126,0.125c-0.043,0.041-0.085,0.083-0.125,0.126c-0.043,0.04-0.084,0.081-0.124,0.124
		c-0.044,0.041-0.086,0.083-0.126,0.126c-0.044,0.041-0.085,0.082-0.125,0.125c-0.043,0.04-0.084,0.081-0.124,0.124
		c-0.044,0.041-0.086,0.083-0.126,0.126c-0.043,0.041-0.084,0.082-0.125,0.125c-0.043,0.04-0.084,0.082-0.125,0.125
		c-0.043,0.041-0.085,0.082-0.126,0.125c-0.043,0.041-0.084,0.082-0.125,0.126c-0.043,0.04-0.084,0.081-0.124,0.124
		c-0.044,0.041-0.086,0.083-0.127,0.126c-0.043,0.041-0.084,0.082-0.125,0.126c-0.043,0.04-0.084,0.081-0.124,0.124
		c-0.044,0.041-0.086,0.083-0.127,0.127c-0.043,0.04-0.084,0.082-0.125,0.125c-0.043,0.04-0.084,0.081-0.124,0.124
		c-0.044,0.041-0.085,0.083-0.126,0.126c-0.044,0.041-0.085,0.082-0.126,0.125c-0.043,0.04-0.084,0.081-0.124,0.124
		c-0.044,0.041-0.086,0.083-0.127,0.126c-0.043,0.041-0.084,0.082-0.125,0.125c-0.043,0.041-0.084,0.082-0.125,0.125
		c-0.044,0.041-0.085,0.083-0.126,0.126c-0.043,0.041-0.084,0.082-0.125,0.125c-0.043,0.04-0.084,0.081-0.125,0.124
		c-0.044,0.041-0.086,0.083-0.127,0.127c-0.043,0.04-0.084,0.082-0.125,0.125c-0.043,0.04-0.084,0.081-0.124,0.124
		c-0.044,0.041-0.086,0.083-0.127,0.127c-0.043,0.04-0.084,0.082-0.125,0.125c-0.043,0.041-0.084,0.082-0.125,0.125
		c-0.043,0.041-0.085,0.082-0.126,0.125c-0.043,0.041-0.085,0.083-0.125,0.126c-0.043,0.04-0.084,0.081-0.124,0.124
		c-0.044,0.041-0.086,0.083-0.126,0.126c-0.044,0.041-0.085,0.082-0.125,0.125c-0.043,0.04-0.084,0.081-0.124,0.124
		c-0.044,0.041-0.086,0.083-0.126,0.126c-0.044,0.041-0.085,0.082-0.125,0.125c-0.043,0.04-0.083,0.081-0.124,0.124
		c-0.044,0.041-0.086,0.083-0.127,0.126c-0.043,0.041-0.084,0.082-0.125,0.126c-0.043,0.04-0.084,0.081-0.124,0.124
		c-0.044,0.041-0.086,0.083-0.127,0.126c-0.043,0.041-0.084,0.082-0.125,0.126c-0.043,0.04-0.084,0.081-0.124,0.124
		c-0.044,0.041-0.086,0.083-0.127,0.126c-0.043,0.041-0.084,0.082-0.125,0.125c-0.043,0.04-0.084,0.081-0.124,0.124
		c-0.044,0.041-0.086,0.083-0.127,0.126c-0.043,0.041-0.084,0.082-0.125,0.125c-0.043,0.04-0.084,0.081-0.124,0.124
		c-0.044,0.041-0.086,0.083-0.127,0.126c-0.043,0.041-0.084,0.082-0.125,0.125c-0.043,0.041-0.084,0.082-0.125,0.125
		c-0.043,0.041-0.085,0.083-0.126,0.126c-0.043,0.041-0.084,0.082-0.125,0.125c-0.043,0.04-0.084,0.081-0.125,0.124
		c-0.044,0.041-0.086,0.083-0.127,0.127c-0.043,0.04-0.084,0.082-0.125,0.125c-0.043,0.04-0.084,0.081-0.124,0.124
		c-0.044,0.041-0.086,0.083-0.127,0.127c-0.043,0.04-0.084,0.082-0.125,0.125c-0.043,0.041-0.084,0.082-0.125,0.125
		c-0.043,0.041-0.085,0.082-0.126,0.125c-0.043,0.041-0.085,0.083-0.125,0.126c-0.043,0.04-0.084,0.081-0.124,0.124
		c-0.044,0.041-0.086,0.083-0.126,0.126c-0.044,0.041-0.085,0.082-0.125,0.125c-0.043,0.04-0.084,0.081-0.124,0.124
		c-0.044,0.041-0.086,0.083-0.126,0.126c-0.044,0.041-0.085,0.082-0.125,0.125c-0.043,0.04-0.083,0.081-0.124,0.124
		c-0.044,0.041-0.086,0.083-0.127,0.126c-0.043,0.041-0.084,0.082-0.125,0.126c-0.043,0.04-0.084,0.081-0.124,0.124
		c-0.044,0.041-0.086,0.083-0.127,0.126c-0.043,0.041-0.084,0.082-0.125,0.126c-0.043,0.04-0.084,0.081-0.125,0.124
		c-0.043,0.041-0.085,0.082-0.125,0.126c-0.044,0.041-0.085,0.082-0.126,0.125c-0.043,0.04-0.084,0.081-0.124,0.124
		c-0.044,0.041-0.086,0.083-0.127,0.126c-0.043,0.041-0.084,0.082-0.125,0.125c-0.043,0.04-0.084,0.081-0.124,0.124
		c-0.044,0.041-0.086,0.083-0.127,0.126c-0.043,0.041-0.084,0.082-0.125,0.125c-0.043,0.041-0.084,0.082-0.125,0.125
		c-0.044,0.041-0.085,0.083-0.126,0.126c-0.043,0.041-0.084,0.082-0.125,0.125c-0.043,0.04-0.084,0.081-0.125,0.124
		c-0.044,0.041-0.086,0.083-0.127,0.127c-0.043,0.04-0.084,0.082-0.125,0.125c-0.043,0.04-0.084,0.081-0.124,0.124
		c-0.044,0.041-0.086,0.083-0.127,0.127c-0.043,0.041-0.084,0.082-0.125,0.125c-0.043,0.04-0.084,0.081-0.124,0.124
		c-0.044,0.041-0.085,0.083-0.126,0.126c-0.043,0.041-0.085,0.083-0.125,0.126c-0.043,0.04-0.084,0.081-0.124,0.124
		c-0.044,0.041-0.086,0.083-0.126,0.126c-0.044,0.041-0.085,0.082-0.125,0.125c-0.043,0.04-0.084,0.081-0.124,0.124
		c-0.044,0.041-0.086,0.083-0.126,0.126c-0.044,0.041-0.085,0.082-0.125,0.125c-0.043,0.04-0.083,0.081-0.124,0.124
		c-0.044,0.041-0.086,0.083-0.127,0.126c-0.043,0.041-0.084,0.082-0.125,0.126c-0.043,0.04-0.084,0.081-0.124,0.124
		c-0.044,0.041-0.086,0.083-0.127,0.126c-0.043,0.041-0.084,0.082-0.125,0.126c-0.043,0.04-0.084,0.081-0.125,0.124
		c-0.043,0.041-0.085,0.082-0.125,0.126c-0.044,0.041-0.085,0.082-0.126,0.125c-0.043,0.04-0.084,0.081-0.124,0.124
		c-0.044,0.041-0.086,0.083-0.127,0.126c-0.043,0.041-0.084,0.082-0.125,0.125c-0.043,0.04-0.084,0.081-0.124,0.124
		c-0.044,0.041-0.086,0.083-0.127,0.126c-0.043,0.041-0.084,0.082-0.125,0.125c-0.043,0.04-0.083,0.081-0.124,0.124
		c-0.044,0.041-0.086,0.083-0.127,0.127c-0.043,0.04-0.084,0.082-0.125,0.125c-0.043,0.04-0.084,0.081-0.124,0.124
		c-0.044,0.041-0.086,0.083-0.127,0.127c-0.043,0.04-0.084,0.082-0.125,0.125c-0.043,0.04-0.084,0.081-0.124,0.124
		c-0.044,0.041-0.086,0.083-0.127,0.127c-0.043,0.041-0.084,0.082-0.125,0.125c-0.043,0.04-0.084,0.081-0.124,0.124
		c-0.044,0.041-0.086,0.083-0.126,0.127c-0.043,0.04-0.085,0.082-0.125,0.125c-0.043,0.041-0.084,0.082-0.125,0.125
		c-0.044,0.041-0.086,0.083-0.127,0.127c-0.043,0.041-0.084,0.082-0.125,0.125c-0.043,0.041-0.085,0.082-0.125,0.125
		c-0.044,0.041-0.085,0.083-0.126,0.126c-0.042,0.04-0.083,0.081-0.124,0.124c-0.043,0.04-0.084,0.081-0.125,0.125
		c-0.044,0.041-0.086,0.083-0.127,0.127c-0.043,0.04-0.084,0.081-0.125,0.125c-0.043,0.04-0.084,0.081-0.125,0.124
		c-0.044,0.041-0.086,0.083-0.127,0.127c-0.043,0.04-0.084,0.081-0.125,0.125c-0.043,0.04-0.084,0.082-0.125,0.125
		c-0.044,0.041-0.085,0.083-0.126,0.126c-0.043,0.041-0.084,0.082-0.125,0.125c-0.043,0.041-0.084,0.082-0.125,0.125
		c-0.044,0.041-0.086,0.083-0.127,0.127c-0.043,0.041-0.084,0.082-0.125,0.125c-0.043,0.041-0.084,0.082-0.125,0.125
		c-0.044,0.041-0.086,0.083-0.127,0.127c-0.043,0.041-0.084,0.082-0.125,0.125c-0.043,0.04-0.084,0.081-0.124,0.124
		C9.852,56.214,9.81,56.256,9.769,56.3c-0.043,0.041-0.084,0.082-0.124,0.125c-0.043,0.04-0.084,0.081-0.125,0.124
		c-0.044,0.041-0.086,0.083-0.127,0.127c-0.043,0.041-0.084,0.082-0.124,0.125c-0.043,0.04-0.084,0.081-0.125,0.124
		c-0.044,0.041-0.086,0.083-0.127,0.126c-0.043,0.041-0.084,0.082-0.125,0.125c-0.043,0.04-0.084,0.081-0.124,0.124
		c-0.044,0.041-0.086,0.083-0.127,0.127c-0.043,0.041-0.084,0.082-0.125,0.125c-0.043,0.041-0.084,0.082-0.125,0.125
		c-0.044,0.041-0.086,0.083-0.127,0.127c-0.043,0.041-0.084,0.082-0.125,0.125c-0.043,0.041-0.084,0.082-0.125,0.125
		c-0.044,0.041-0.085,0.083-0.126,0.126c-0.043,0.04-0.083,0.081-0.124,0.124c-0.043,0.04-0.085,0.082-0.125,0.125
		c-0.044,0.041-0.086,0.083-0.127,0.127c-0.043,0.04-0.084,0.081-0.125,0.125c-0.043,0.04-0.084,0.081-0.125,0.124
		c-0.044,0.041-0.086,0.083-0.127,0.127c-0.043,0.04-0.084,0.081-0.125,0.125c-0.043,0.04-0.084,0.082-0.125,0.125
		c-0.044,0.041-0.085,0.083-0.126,0.126c-0.043,0.041-0.084,0.082-0.125,0.125c-0.043,0.041-0.084,0.082-0.125,0.125
		c-0.044,0.041-0.086,0.083-0.127,0.127c-0.043,0.041-0.084,0.082-0.125,0.125c-0.043,0.041-0.084,0.082-0.125,0.125
		c-0.044,0.041-0.086,0.083-0.127,0.127c-0.043,0.041-0.084,0.082-0.125,0.125c-0.043,0.04-0.084,0.081-0.124,0.124
		c-0.044,0.041-0.086,0.083-0.127,0.127C5.591,60.475,5.55,60.516,5.51,60.56c-0.043,0.04-0.084,0.081-0.125,0.124
		c-0.044,0.041-0.086,0.083-0.127,0.127c-0.043,0.041-0.084,0.082-0.124,0.125c-0.043,0.04-0.084,0.081-0.125,0.125
		c-0.044,0.041-0.085,0.083-0.126,0.126c-0.043,0.04-0.085,0.082-0.125,0.125c-0.043,0.041-0.084,0.082-0.125,0.125
		c-0.044,0.041-0.086,0.083-0.127,0.127c-0.043,0.041-0.084,0.082-0.125,0.125c-0.043,0.041-0.084,0.082-0.125,0.125
		c-0.044,0.041-0.086,0.083-0.127,0.127c-0.043,0.04-0.084,0.081-0.124,0.124c-0.043,0.041-0.085,0.082-0.125,0.125
		c-0.044,0.041-0.085,0.083-0.126,0.126c-0.043,0.04-0.084,0.081-0.125,0.125c-0.043,0.04-0.084,0.081-0.125,0.124
		c-0.044,0.041-0.086,0.083-0.127,0.127c-0.043,0.04-0.084,0.081-0.125,0.125c-0.043,0.04-0.084,0.081-0.125,0.124
		c-0.044,0.041-0.086,0.083-0.127,0.127c-0.043,0.04-0.084,0.082-0.125,0.125c-0.043,0.04-0.084,0.081-0.124,0.124
		c-0.044,0.041-0.086,0.083-0.127,0.126c-0.043,0.041-0.084,0.082-0.125,0.125c-0.043,0.041-0.084,0.082-0.125,0.125
		c-0.044,0.041-0.086,0.083-0.127,0.127c-0.043,0.041-0.084,0.082-0.125,0.125c-0.043,0.041-0.084,0.082-0.125,0.125
		c-0.044,0.041-0.086,0.083-0.127,0.127c-0.043,0.041-0.084,0.082-0.125,0.125c-0.043,0.04-0.084,0.081-0.124,0.124
		c-0.044,0.041-0.086,0.083-0.127,0.127c-0.043,0.041-0.084,0.082-0.125,0.125c-0.043,0.04-0.084,0.081-0.124,0.124
		c-0.044,0.041-0.086,0.083-0.127,0.127c-0.043,0.041-0.084,0.082-0.124,0.125c-0.043,0.04-0.085,0.082-0.125,0.125
		c-0.044,0.041-0.062,0.083-0.103,0.127C0.285,65.775,0,66.417,0,67.135v64.693c0,0.968,0.535,1.797,1.343,2.207
		c-0.005,0.006-0.021,0.013-0.027,0.019c-0.044,0.041-0.093,0.083-0.134,0.128c-0.043,0.039-0.087,0.08-0.127,0.124
		c-0.043,0.04-0.086,0.081-0.126,0.124c-0.044,0.04-0.086,0.082-0.126,0.126c-0.044,0.04-0.086,0.081-0.125,0.125
		c-0.044,0.04-0.086,0.081-0.125,0.125c-0.044,0.04-0.086,0.082-0.127,0.127c-0.043,0.04-0.085,0.081-0.125,0.125
		c-0.043,0.039-0.085,0.08-0.125,0.124c-0.044,0.04-0.087,0.082-0.127,0.127c-0.043,0.04-0.084,0.081-0.124,0.124
		c-0.043,0.04-0.085,0.081-0.125,0.125c-0.044,0.04-0.086,0.082-0.127,0.127c-0.043,0.04-0.084,0.081-0.124,0.124
		c-0.044,0.04-0.085,0.081-0.125,0.125c-0.044,0.041-0.086,0.082-0.126,0.127c-0.043,0.04-0.085,0.08-0.125,0.124
		c-0.043,0.04-0.085,0.081-0.125,0.125c-0.377,0.345-0.619,1.05-0.619,1.599c0,1.029,0.834,2.092,1.864,2.092h41.758
		c0.544,0,1.03-0.453,1.371-0.83c0.044-0.041,0.085-0.188,0.125-0.231c0.044-0.04,0.086-0.136,0.126-0.18
		c0.043-0.04,0.084-0.107,0.124-0.151c0.044-0.04,0.085-0.094,0.125-0.138c0.044-0.04,0.086-0.089,0.126-0.133
		c0.043-0.04,0.084-0.085,0.124-0.129c0.044-0.04,0.085-0.082,0.125-0.126c0.044-0.04,0.086-0.083,0.126-0.127
		c0.043-0.04,0.085-0.082,0.125-0.126c0.043-0.04,0.085-0.081,0.125-0.125c0.044-0.04,0.085-0.081,0.125-0.125
		c0.044-0.04,0.085-0.081,0.125-0.125c0.043-0.04,0.085-0.081,0.125-0.125c0.044-0.041,0.086-0.082,0.126-0.127
		c0.043-0.04,0.085-0.08,0.125-0.124c0.043-0.04,0.085-0.081,0.125-0.125c0.044-0.041,0.086-0.083,0.127-0.127
		c0.043-0.04,0.084-0.08,0.124-0.124c0.043-0.04,0.085-0.081,0.125-0.125c0.044-0.04,0.086-0.082,0.126-0.127
		c0.043-0.039,0.085-0.08,0.125-0.124c0.043-0.04,0.085-0.081,0.125-0.125c0.044-0.04,0.086-0.082,0.126-0.127
		c0.043-0.039,0.085-0.08,0.125-0.124c0.044-0.04,0.085-0.081,0.125-0.125c0.044-0.041,0.086-0.082,0.126-0.127
		c0.043-0.04,0.085-0.08,0.125-0.124c0.043-0.04,0.085-0.081,0.125-0.125c0.044-0.04,0.086-0.082,0.126-0.127
		c0.043-0.039,0.084-0.08,0.124-0.123c0.044-0.04,0.086-0.082,0.126-0.126c0.044-0.04,0.087-0.082,0.127-0.127
		c0.043-0.04,0.084-0.08,0.124-0.124c0.044-0.04,0.085-0.081,0.125-0.125c0.044-0.04,0.086-0.082,0.126-0.126
		c0.043-0.04,0.084-0.081,0.124-0.125c0.044-0.04,0.085-0.081,0.125-0.125c0.044-0.04,0.086-0.082,0.126-0.126
		c0.043-0.04,0.084-0.081,0.124-0.125c0.044-0.04,0.085-0.081,0.125-0.125c0.044-0.04,0.086-0.082,0.126-0.126
		c0.043-0.04,0.085-0.081,0.125-0.125c0.043-0.04,0.085-0.081,0.125-0.125c0.044-0.04,0.085-0.081,0.125-0.125
		c0.044-0.04,0.085-0.081,0.125-0.125c0.043-0.04,0.085-0.081,0.125-0.125c0.044-0.041,0.086-0.082,0.126-0.127
		c0.044-0.04,0.085-0.081,0.125-0.125c0.043-0.039,0.084-0.08,0.124-0.124c0.044-0.04,0.086-0.082,0.126-0.127
		c0.044-0.04,0.085-0.081,0.125-0.125c0.043-0.039,0.084-0.08,0.124-0.123c0.045-0.041,0.087-0.083,0.127-0.128
		c0.044-0.04,0.085-0.081,0.125-0.125c0.043-0.039,0.084-0.08,0.124-0.123c0.045-0.041,0.087-0.083,0.127-0.128
		c0.044-0.04,0.085-0.081,0.125-0.125c0.043-0.039,0.084-0.08,0.124-0.124c0.044-0.04,0.086-0.082,0.127-0.127
		c0.043-0.04,0.085-0.081,0.125-0.125c0.043-0.039,0.085-0.08,0.124-0.123c0.044-0.041,0.087-0.083,0.127-0.128
		c0.043-0.039,0.084-0.08,0.124-0.124c0.043-0.039,0.085-0.08,0.125-0.124c0.044-0.041,0.087-0.083,0.127-0.128
		c0.043-0.04,0.084-0.081,0.124-0.124c0.043-0.04,0.084-0.08,0.124-0.124c0.044-0.041,0.087-0.083,0.127-0.127
		c0.043-0.04,0.085-0.081,0.125-0.125c0.043-0.04,0.084-0.08,0.124-0.124c0.044-0.041,0.087-0.082,0.127-0.127
		c0.043-0.04,0.085-0.081,0.125-0.125c0.043-0.04,0.084-0.08,0.124-0.124c0.044-0.041,0.087-0.083,0.127-0.127
		c0.043-0.04,0.085-0.082,0.125-0.126c0.043-0.039,0.084-0.08,0.124-0.123c0.044-0.04,0.086-0.081,0.126-0.126
		c0.044-0.04,0.086-0.081,0.126-0.126c0.043-0.039,0.084-0.08,0.124-0.123c0.044-0.041,0.087-0.083,0.127-0.128
		c0.044-0.04,0.085-0.081,0.125-0.125c0.043-0.039,0.084-0.08,0.124-0.124c0.044-0.04,0.086-0.082,0.126-0.127
		c0.044-0.04,0.085-0.081,0.125-0.125c0.043-0.039,0.084-0.08,0.124-0.123c0.045-0.041,0.087-0.083,0.127-0.128
		c0.044-0.04,0.085-0.081,0.125-0.125c0.043-0.039,0.084-0.08,0.124-0.123c0.045-0.041,0.087-0.083,0.127-0.128
		c0.044-0.04,0.085-0.081,0.125-0.125c0.043-0.039,0.084-0.08,0.124-0.124c0.044-0.04,0.086-0.082,0.127-0.127
		c0.043-0.04,0.085-0.081,0.125-0.125c0.043-0.039,0.084-0.08,0.124-0.123c0.044-0.041,0.087-0.083,0.127-0.128
		c0.043-0.039,0.085-0.08,0.125-0.124c0.043-0.039,0.085-0.08,0.125-0.124c0.044-0.041,0.087-0.083,0.127-0.128
		c0.043-0.04,0.084-0.081,0.124-0.124c0.043-0.04,0.084-0.08,0.124-0.124c0.044-0.041,0.087-0.083,0.127-0.127
		c0.043-0.04,0.085-0.081,0.125-0.125c0.043-0.04,0.084-0.08,0.124-0.124c0.044-0.041,0.087-0.082,0.127-0.127
		c0.043-0.04,0.085-0.081,0.125-0.125c0.043-0.04,0.085-0.081,0.125-0.125c0.044-0.04,0.086-0.082,0.126-0.126
		c0.044-0.04,0.085-0.081,0.125-0.125c0.043-0.04,0.084-0.081,0.124-0.124c0.044-0.04,0.086-0.082,0.126-0.126
		c0.044-0.04,0.086-0.081,0.126-0.126c0.043-0.039,0.084-0.08,0.124-0.123c0.044-0.041,0.087-0.083,0.127-0.128
		c0.044-0.04,0.085-0.081,0.125-0.125c0.043-0.039,0.084-0.08,0.124-0.124c0.044-0.04,0.086-0.082,0.126-0.127
		c0.044-0.04,0.085-0.081,0.125-0.125c0.043-0.039,0.084-0.08,0.124-0.123c0.045-0.041,0.087-0.083,0.127-0.128
		c0.044-0.04,0.085-0.081,0.125-0.125c0.043-0.039,0.084-0.08,0.124-0.123c0.045-0.041,0.087-0.083,0.127-0.128
		c0.044-0.04,0.085-0.081,0.125-0.125c0.043-0.039,0.084-0.08,0.123-0.123c0.044-0.041,0.087-0.083,0.127-0.128
		c0.043-0.04,0.085-0.081,0.125-0.125c0.043-0.039,0.084-0.08,0.124-0.123c0.044-0.041,0.087-0.083,0.127-0.128
		c0.043-0.039,0.085-0.08,0.125-0.124c0.044-0.04,0.085-0.081,0.125-0.125c0.044-0.04,0.086-0.082,0.126-0.126
		c0.043-0.04,0.085-0.081,0.125-0.125c0.043-0.04,0.084-0.08,0.124-0.124c0.044-0.041,0.087-0.083,0.127-0.127
		c0.043-0.04,0.085-0.081,0.125-0.125c0.043-0.04,0.084-0.08,0.124-0.124c0.044-0.041,0.087-0.082,0.127-0.127
		c0.043-0.04,0.085-0.081,0.125-0.125c0.043-0.04,0.085-0.081,0.125-0.125c0.044-0.04,0.086-0.082,0.126-0.126
		c0.044-0.04,0.085-0.081,0.125-0.125c0.043-0.04,0.084-0.081,0.124-0.124c0.044-0.04,0.086-0.082,0.126-0.126
		c0.044-0.04,0.086-0.081,0.126-0.126c0.043-0.039,0.084-0.08,0.124-0.123c0.045-0.041,0.087-0.083,0.128-0.128
		c0.043-0.04,0.084-0.081,0.124-0.125c0.043-0.039,0.084-0.08,0.124-0.123c0.045-0.041,0.087-0.083,0.127-0.128
		c0.044-0.04,0.085-0.081,0.125-0.125c0.043-0.039,0.084-0.08,0.124-0.124c0.044-0.04,0.086-0.082,0.126-0.126
		c0.044-0.04,0.085-0.081,0.125-0.126c0.043-0.039,0.084-0.08,0.124-0.124c0.044-0.04,0.086-0.082,0.126-0.126
		c0.044-0.04,0.086-0.082,0.126-0.126c0.043-0.04,0.084-0.08,0.124-0.124c0.044-0.04,0.086-0.082,0.126-0.126
		c0.044-0.04,0.086-0.082,0.126-0.126c0.043-0.039,0.084-0.08,0.124-0.124c0.044-0.04,0.086-0.082,0.126-0.126
		c0.043-0.04,0.085-0.081,0.125-0.125c0.044-0.04,0.085-0.081,0.125-0.125c0.044-0.04,0.086-0.082,0.126-0.126
		c0.043-0.04,0.085-0.081,0.125-0.125c0.043-0.04,0.085-0.081,0.125-0.125c0.044-0.04,0.086-0.081,0.126-0.126
		c0.044-0.04,0.085-0.082,0.125-0.126c0.043-0.039,0.084-0.08,0.123-0.123c0.044-0.04,0.086-0.082,0.127-0.126
		c0.044-0.041,0.086-0.082,0.126-0.126c0.043-0.04,0.085-0.081,0.125-0.125c0.044-0.04,0.086-0.081,0.125-0.125
		c0.044-0.04,0.086-0.082,0.125-0.126c0.043-0.039,0.084-0.079,0.123-0.122c0.046-0.042,0.09-0.085,0.131-0.131
		c0.043-0.039,0.083-0.079,0.122-0.122c0.043-0.04,0.085-0.081,0.124-0.124c0.045-0.041,0.087-0.083,0.128-0.127
		c0.043-0.041,0.085-0.082,0.125-0.126c0.043-0.04,0.084-0.08,0.123-0.123c0.045-0.041,0.087-0.083,0.128-0.127
		c0.044-0.041,0.085-0.082,0.125-0.126c0.043-0.04,0.084-0.08,0.123-0.123c0.045-0.041,0.087-0.082,0.127-0.127
		c0.044-0.04,0.086-0.082,0.126-0.126c0.043-0.039,0.084-0.08,0.123-0.123c0.045-0.041,0.087-0.083,0.128-0.128
		c0.044-0.04,0.085-0.081,0.125-0.125c0.043-0.04,0.084-0.08,0.123-0.123c0.045-0.041,0.087-0.082,0.127-0.127
		c0.044-0.04,0.086-0.082,0.126-0.126c0.043-0.039,0.084-0.08,0.124-0.124c0.044-0.04,0.086-0.082,0.126-0.126
		c0.044-0.04,0.085-0.081,0.125-0.125c0.044-0.04,0.085-0.08,0.125-0.124c0.045-0.041,0.087-0.083,0.127-0.128
		c0.044-0.04,0.085-0.081,0.125-0.125c0.043-0.04,0.084-0.08,0.123-0.123c0.045-0.041,0.087-0.083,0.128-0.128
		c0.044-0.039,0.085-0.081,0.125-0.125c0.043-0.04,0.085-0.081,0.124-0.125c0.044-0.04,0.086-0.081,0.126-0.125
		c0.043-0.04,0.085-0.081,0.125-0.126c0.043-0.039,0.084-0.08,0.124-0.123c0.044-0.04,0.085-0.081,0.125-0.125
		c0.045-0.041,0.087-0.082,0.127-0.127c0.043-0.039,0.084-0.08,0.123-0.124c0.045-0.04,0.087-0.082,0.127-0.126
		c0.044-0.04,0.086-0.082,0.126-0.126c0.043-0.039,0.084-0.08,0.124-0.123c0.044-0.041,0.086-0.083,0.126-0.127
		c0.044-0.04,0.086-0.082,0.126-0.126c0.043-0.039,0.084-0.08,0.123-0.124c0.045-0.04,0.087-0.082,0.127-0.126
		c0.044-0.04,0.086-0.082,0.126-0.126c0.043-0.039,0.084-0.08,0.124-0.123c0.044-0.041,0.086-0.083,0.126-0.127
		c0.044-0.04,0.086-0.082,0.126-0.126c0.043-0.039,0.084-0.08,0.123-0.124c0.045-0.04,0.087-0.082,0.127-0.126
		c0.044-0.04,0.086-0.082,0.126-0.126c0.043-0.039,0.084-0.08,0.124-0.123c0.044-0.041,0.086-0.082,0.126-0.127
		c0.044-0.04,0.086-0.082,0.126-0.126c0.043-0.039,0.084-0.08,0.124-0.124c0.044-0.04,0.086-0.082,0.126-0.126
		c0.044-0.04,0.085-0.081,0.125-0.125c0.044-0.04,0.085-0.08,0.125-0.124c0.045-0.041,0.087-0.083,0.127-0.128
		c0.044-0.04,0.085-0.081,0.125-0.125c0.043-0.04,0.084-0.08,0.123-0.123c0.045-0.041,0.087-0.083,0.128-0.128
		c0.044-0.039,0.085-0.081,0.125-0.125c0.043-0.04,0.085-0.081,0.124-0.125c0.044-0.04,0.086-0.081,0.126-0.125
		c0.043-0.04,0.085-0.081,0.125-0.126c0.043-0.039,0.084-0.08,0.124-0.123c0.044-0.04,0.085-0.081,0.125-0.125
		c0.045-0.041,0.087-0.082,0.127-0.127c0.043-0.039,0.084-0.08,0.123-0.124c0.045-0.04,0.087-0.082,0.127-0.126
		c0.044-0.04,0.086-0.082,0.126-0.126c0.043-0.039,0.084-0.08,0.124-0.123c0.044-0.041,0.086-0.083,0.126-0.127
		c0.044-0.04,0.086-0.082,0.126-0.126c0.043-0.039,0.084-0.08,0.123-0.124c0.045-0.04,0.087-0.082,0.127-0.126
		c0.044-0.04,0.086-0.082,0.126-0.126c0.043-0.039,0.084-0.08,0.124-0.123c0.044-0.041,0.086-0.083,0.126-0.127
		c0.044-0.04,0.086-0.082,0.126-0.126c0.043-0.039,0.084-0.08,0.123-0.124c0.045-0.04,0.087-0.082,0.127-0.126
		c0.044-0.04,0.086-0.082,0.126-0.126c0.043-0.039,0.084-0.08,0.124-0.123c0.044-0.041,0.086-0.082,0.126-0.127
		c0.044-0.04,0.085-0.081,0.125-0.125c0.044-0.04,0.085-0.08,0.125-0.124c0.044-0.041,0.087-0.083,0.127-0.128
		c0.044-0.04,0.085-0.081,0.125-0.125c0.043-0.039,0.084-0.08,0.124-0.123c0.044-0.041,0.086-0.082,0.126-0.127
		c0.044-0.04,0.086-0.082,0.126-0.126c0.043-0.04,0.084-0.08,0.123-0.123c0.045-0.041,0.087-0.083,0.128-0.128
		c0.044-0.039,0.085-0.081,0.125-0.125c0.043-0.04,0.085-0.081,0.124-0.125c0.044-0.04,0.086-0.081,0.126-0.125
		c0.043-0.04,0.085-0.081,0.125-0.126c0.043-0.039,0.084-0.08,0.124-0.123c0.044-0.04,0.085-0.081,0.125-0.125
		c0.045-0.041,0.087-0.082,0.127-0.127c0.043-0.039,0.084-0.08,0.123-0.124c0.045-0.04,0.087-0.082,0.127-0.126
		c0.044-0.04,0.086-0.082,0.126-0.126c0.043-0.039,0.084-0.08,0.124-0.123c0.044-0.041,0.086-0.083,0.126-0.127
		c0.044-0.04,0.086-0.082,0.126-0.126c0.043-0.039,0.084-0.08,0.123-0.124c0.045-0.04,0.087-0.082,0.127-0.126
		c0.044-0.04,0.086-0.082,0.126-0.126c0.043-0.039,0.084-0.08,0.124-0.123c0.044-0.041,0.086-0.083,0.126-0.127
		c0.044-0.04,0.086-0.082,0.126-0.126c0.043-0.039,0.084-0.08,0.123-0.124c0.045-0.04,0.087-0.082,0.127-0.126
		c0.044-0.04,0.086-0.082,0.126-0.126c0.043-0.039,0.084-0.08,0.124-0.123c0.044-0.041,0.086-0.082,0.126-0.127
		c0.044-0.04,0.085-0.081,0.125-0.125c0.044-0.04,0.085-0.08,0.125-0.124c0.044-0.041,0.087-0.083,0.127-0.128
		c0.044-0.04,0.085-0.081,0.125-0.125c0.043-0.039,0.084-0.08,0.124-0.123c0.044-0.041,0.086-0.082,0.126-0.127
		c0.044-0.04,0.086-0.082,0.126-0.126c0.043-0.04,0.084-0.08,0.123-0.123c0.045-0.041,0.087-0.083,0.128-0.128
		c0.044-0.039,0.085-0.081,0.125-0.125c0.043-0.04,0.085-0.081,0.124-0.125c0.044-0.04,0.086-0.081,0.126-0.125
		c0.043-0.04,0.085-0.081,0.125-0.126c0.043-0.039,0.084-0.08,0.124-0.123c0.044-0.04,0.085-0.081,0.125-0.125
		c0.045-0.041,0.087-0.082,0.127-0.127c0.043-0.039,0.084-0.08,0.123-0.124c0.045-0.04,0.087-0.082,0.127-0.126
		c0.044-0.04,0.086-0.082,0.126-0.126c0.043-0.039,0.084-0.08,0.124-0.123c0.044-0.041,0.086-0.083,0.126-0.127
		c0.044-0.04,0.086-0.082,0.126-0.126c0.043-0.039,0.084-0.08,0.123-0.124c0.045-0.04,0.087-0.082,0.127-0.126
		c0.044-0.04,0.086-0.082,0.126-0.126c0.043-0.039,0.084-0.08,0.124-0.123c0.044-0.041,0.086-0.083,0.126-0.127
		c0.044-0.04,0.086-0.082,0.126-0.126c0.043-0.039,0.084-0.08,0.123-0.124c0.045-0.04,0.087-0.082,0.127-0.126
		c0.044-0.04,0.086-0.082,0.126-0.126c0.043-0.039,0.084-0.08,0.124-0.123c0.044-0.041,0.086-0.082,0.126-0.127
		c0.044-0.04,0.085-0.081,0.125-0.125c0.044-0.04,0.085-0.08,0.125-0.124c0.044-0.041,0.087-0.083,0.127-0.128
		c0.044-0.04,0.085-0.081,0.125-0.125c0.043-0.039,0.084-0.08,0.124-0.123c0.044-0.041,0.086-0.082,0.126-0.127
		c0.044-0.04,0.086-0.082,0.126-0.126c0.043-0.04,0.084-0.08,0.123-0.123c0.045-0.041,0.087-0.083,0.128-0.128
		c0.044-0.039,0.085-0.081,0.125-0.125c0.043-0.04,0.085-0.081,0.124-0.125c0.044-0.04,0.086-0.081,0.126-0.125
		c0.043-0.04,0.085-0.081,0.125-0.126c0.043-0.039,0.084-0.08,0.124-0.123c0.044-0.04,0.085-0.081,0.125-0.125
		c0.045-0.041,0.087-0.082,0.127-0.127c0.043-0.039,0.084-0.08,0.123-0.124c0.045-0.04,0.087-0.082,0.127-0.126
		c0.044-0.04,0.086-0.082,0.126-0.126c0.043-0.039,0.084-0.08,0.124-0.123c0.044-0.041,0.086-0.083,0.126-0.127
		c0.044-0.04,0.086-0.082,0.126-0.126c0.043-0.039,0.084-0.08,0.123-0.124c0.045-0.04,0.087-0.082,0.127-0.126
		c0.044-0.04,0.086-0.082,0.126-0.126c0.043-0.039,0.084-0.071,0.124-0.114C87.527,94.894,87.77,94.41,87.77,93.861z"/>
</g>
<g>
	<path fill="#FFFFFF" d="M86,23.485C86,22.112,84.888,21,83.515,21H45.485C44.113,21,43,22.112,43,23.485v65.031
		C43,89.888,44.113,91,45.485,91h38.029C84.888,91,86,89.888,86,88.516V23.485z M83,88H59V60.421c1-0.43,1-0.825,1-1.744v-7.685
		c0-0.919,0-1.65-1-2.08V24h24V88z M46,24h11v24.912c-1,0.43-1,1.161-1,2.08v7.685c0,0.919,0,1.314,1,1.744V88H46V24z"/>
	<path fill="#FFFFFF" d="M85.904,92H44.146c-1.029,0-1.864,0.97-1.864,2c0,1.029,0.835,2,1.864,2h41.758c1.03,0,1.865-0.971,1.865-2
		C87.77,92.97,86.935,92,85.904,92z"/>
	<path fill="#FFFFFF" d="M70.808,33.305c0.159,0,0.318-0.061,0.438-0.182l1.759-1.758c0.242-0.242,0.242-0.636,0-0.878
		c-0.242-0.242-0.636-0.242-0.879,0l-1.757,1.758c-0.243,0.243-0.243,0.636,0,0.878C70.489,33.245,70.649,33.305,70.808,33.305z"/>
	<path fill="#FFFFFF" d="M75.641,34.002l-1.758,1.758c-0.242,0.243-0.242,0.637,0,0.879c0.122,0.121,0.281,0.181,0.439,0.181
		c0.16,0,0.318-0.06,0.44-0.182l1.757-1.758c0.243-0.242,0.243-0.636,0-0.878C76.276,33.76,75.884,33.76,75.641,34.002z"/>
	<path fill="#FFFFFF" d="M70.808,36.82c0.159,0,0.318-0.06,0.438-0.182l1.759-1.758c0.242-0.242,0.242-0.636,0-0.878
		c-0.242-0.242-0.636-0.242-0.879,0l-1.757,1.758c-0.243,0.243-0.243,0.637,0,0.878C70.489,36.76,70.649,36.82,70.808,36.82z"/>
	<path fill="#FFFFFF" d="M78.88,28.127c-1.74-1.74-4.545-1.758-6.302,0l6.302,6.302C80.639,32.671,80.62,29.867,78.88,28.127z"/>
</g>
</svg>
