<?xml version="1.0" encoding="utf-8"?>
<!-- Generator: Adobe Illustrator 16.0.3, SVG Export Plug-In . SVG Version: 6.00 Build 0)  -->
<!DOCTYPE svg PUBLIC "-//W3C//DTD SVG 1.1//EN" "http://www.w3.org/Graphics/SVG/1.1/DTD/svg11.dtd">
<svg version="1.1" id="Layer_1" xmlns="http://www.w3.org/2000/svg" xmlns:xlink="http://www.w3.org/1999/xlink" x="0px" y="0px"
	 width="512px" height="512px" viewBox="0 0 512 512" enable-background="new 0 0 512 512" xml:space="preserve">
<path fill="#444953" d="M512,100C512,44.771,467.229,0,412,0H100C44.771,0,0,44.771,0,100v312c0,55.229,44.771,100,100,100h312
	c55.229,0,100-44.771,100-100V100z"/>
<path fill="#353A42" d="M408.195,175.859c0.523-19.891-10.785-39.4-29.514-50.9c-19.714-12.101-43.98-13.196-66.077-3.442
	l-7.267-7.264c-8.086-8.099-20.688-8.817-29.668-2.302c-24.579-19.258-59.806-36.923-87.281-10.692
	c0.006,0.006,0.013,0.013,0.02,0.02c-0.174,0.161-0.348,0.316-0.52,0.48c0.006,0.006,0.013,0.013,0.02,0.02
	c-0.174,0.161-0.348,0.316-0.52,0.48c0.006,0.006,0.013,0.013,0.02,0.02c-0.174,0.161-0.348,0.316-0.52,0.48
	c0.006,0.006,0.013,0.013,0.02,0.02c-0.174,0.161-0.348,0.316-0.52,0.48c0.006,0.006,0.013,0.013,0.02,0.02
	c-0.174,0.161-0.348,0.316-0.52,0.48c0.006,0.006,0.013,0.013,0.02,0.02c-0.174,0.161-0.348,0.316-0.52,0.48
	c0.006,0.006,0.013,0.013,0.02,0.02c-0.174,0.161-0.348,0.316-0.52,0.48c0.006,0.006,0.013,0.013,0.02,0.02
	c-0.174,0.161-0.348,0.316-0.52,0.48c0.006,0.006,0.013,0.013,0.02,0.02c-0.174,0.161-0.348,0.316-0.52,0.48
	c0.006,0.006,0.013,0.013,0.02,0.02c-0.174,0.161-0.348,0.316-0.52,0.48c0.006,0.006,0.013,0.013,0.02,0.02
	c-0.174,0.161-0.348,0.316-0.52,0.48c0.006,0.006,0.013,0.013,0.02,0.02c-0.174,0.161-0.348,0.316-0.52,0.48
	c0.006,0.006,0.013,0.013,0.02,0.02c-0.144,0.133-0.286,0.262-0.431,0.398l-0.096-0.096c-3.59-3.59-9.403-3.765-12.993-0.175
	c-0.088,0.088-0.165,0.183-0.249,0.274c-0.083,0.077-0.17,0.146-0.251,0.226c-0.088,0.088-0.165,0.183-0.249,0.274
	c-0.083,0.077-0.17,0.146-0.251,0.226c-0.088,0.088-0.165,0.183-0.249,0.274c-0.083,0.077-0.17,0.146-0.251,0.226
	c-0.088,0.088-0.165,0.183-0.249,0.274c-0.083,0.077-0.17,0.146-0.251,0.226c-0.088,0.088-0.165,0.183-0.249,0.274
	c-0.083,0.077-0.17,0.146-0.251,0.226c-0.088,0.088-0.165,0.183-0.249,0.274c-0.083,0.077-0.17,0.146-0.251,0.226
	c-0.088,0.088-0.165,0.183-0.249,0.274c-0.083,0.077-0.17,0.146-0.251,0.226c-0.088,0.088-0.165,0.183-0.249,0.274
	c-0.083,0.077-0.17,0.146-0.251,0.226c-0.088,0.088-0.165,0.183-0.249,0.274c-0.083,0.077-0.17,0.146-0.251,0.226
	c-0.088,0.088-0.165,0.183-0.249,0.274c-0.083,0.077-0.17,0.146-0.251,0.226c-0.088,0.088-0.165,0.183-0.249,0.274
	c-0.083,0.077-0.17,0.146-0.251,0.226c-0.088,0.088-0.165,0.183-0.249,0.274c-0.083,0.077-0.17,0.146-0.251,0.226
	c-0.088,0.088-0.165,0.183-0.249,0.274c-0.083,0.077-0.17,0.146-0.251,0.226c-0.088,0.088-0.165,0.183-0.249,0.274
	c-0.083,0.077-0.17,0.146-0.251,0.226c-0.088,0.088-0.165,0.183-0.249,0.274c-0.083,0.077-0.17,0.146-0.251,0.226
	c-0.088,0.088-0.165,0.183-0.249,0.274c-0.083,0.077-0.17,0.146-0.251,0.226c-0.088,0.088-0.165,0.183-0.249,0.274
	c-0.083,0.077-0.17,0.146-0.251,0.226c-0.088,0.088-0.165,0.183-0.249,0.274c-0.083,0.077-0.17,0.146-0.251,0.226
	c-0.088,0.088-0.165,0.183-0.249,0.274c-0.083,0.077-0.17,0.146-0.251,0.226c-0.088,0.088-0.165,0.183-0.249,0.274
	c-0.083,0.077-0.17,0.146-0.251,0.226c-0.088,0.088-0.165,0.183-0.249,0.274c-0.083,0.077-0.17,0.146-0.251,0.226
	c-0.088,0.088-0.165,0.183-0.249,0.274c-0.083,0.077-0.17,0.146-0.251,0.226c-0.088,0.088-0.165,0.183-0.249,0.274
	c-0.083,0.077-0.17,0.146-0.251,0.226c-0.088,0.088-0.165,0.183-0.249,0.274c-0.083,0.077-0.17,0.146-0.251,0.226
	c-0.088,0.088-0.165,0.183-0.249,0.274c-0.083,0.077-0.17,0.146-0.251,0.226c-0.088,0.088-0.165,0.183-0.249,0.274
	c-0.083,0.077-0.17,0.146-0.251,0.226c-0.088,0.088-0.165,0.183-0.249,0.274c-0.083,0.077-0.17,0.146-0.251,0.226
	c-0.088,0.088-0.165,0.183-0.249,0.274c-0.083,0.077-0.17,0.146-0.251,0.226c-0.088,0.088-0.165,0.183-0.249,0.274
	c-0.083,0.077-0.17,0.146-0.251,0.226c-0.088,0.088-0.165,0.183-0.249,0.274c-0.083,0.077-0.17,0.146-0.251,0.226
	c-0.088,0.088-0.165,0.183-0.249,0.274c-0.083,0.077-0.17,0.146-0.251,0.226c-0.088,0.088-0.165,0.183-0.249,0.274
	c-0.083,0.077-0.17,0.146-0.251,0.226c-0.088,0.088-0.165,0.183-0.249,0.274c-0.083,0.077-0.17,0.146-0.251,0.226
	c-0.088,0.088-0.165,0.183-0.249,0.274c-0.083,0.077-0.17,0.146-0.251,0.226c-0.088,0.088-0.165,0.183-0.249,0.274
	c-0.083,0.077-0.17,0.146-0.251,0.226c-0.088,0.088-0.165,0.183-0.249,0.274c-0.083,0.077-0.17,0.146-0.251,0.226
	c-0.088,0.088-0.165,0.183-0.249,0.274c-0.083,0.077-0.17,0.146-0.251,0.226c-0.088,0.088-0.165,0.183-0.249,0.274
	c-0.083,0.077-0.17,0.146-0.251,0.226c-0.088,0.088-0.165,0.183-0.249,0.274c-0.083,0.077-0.17,0.146-0.251,0.226
	c-0.088,0.088-0.165,0.183-0.249,0.274c-0.083,0.077-0.17,0.146-0.251,0.226c-0.088,0.088-0.165,0.183-0.249,0.274
	c-0.083,0.077-0.17,0.146-0.251,0.226c-0.088,0.088-0.165,0.183-0.249,0.274c-0.083,0.077-0.17,0.146-0.251,0.226
	c-0.088,0.088-0.165,0.183-0.249,0.274c-0.083,0.077-0.17,0.146-0.251,0.226c-0.088,0.088-0.165,0.183-0.249,0.274
	c-0.083,0.077-0.17,0.146-0.251,0.226c-0.088,0.088-0.165,0.183-0.249,0.274c-0.083,0.077-0.17,0.146-0.251,0.226
	c-0.088,0.088-0.165,0.183-0.249,0.274c-0.083,0.077-0.17,0.146-0.251,0.226c-0.088,0.088-0.165,0.183-0.249,0.274
	c-0.083,0.077-0.17,0.146-0.251,0.226c-0.088,0.088-0.165,0.183-0.249,0.274c-0.083,0.077-0.17,0.146-0.251,0.226
	c-0.088,0.088-0.165,0.183-0.249,0.274c-0.083,0.077-0.17,0.146-0.251,0.226c-0.088,0.088-0.165,0.183-0.249,0.274
	c-0.083,0.077-0.17,0.146-0.251,0.226c-0.088,0.088-0.165,0.183-0.249,0.274c-0.083,0.077-0.17,0.146-0.251,0.226
	c-0.088,0.088-0.165,0.183-0.249,0.274c-0.083,0.077-0.17,0.146-0.251,0.226c-0.088,0.088-0.165,0.183-0.249,0.274
	c-0.083,0.077-0.17,0.146-0.251,0.226c-0.088,0.088-0.165,0.183-0.249,0.274c-0.083,0.077-0.17,0.146-0.251,0.226
	c-0.088,0.088-0.165,0.183-0.249,0.274c-0.083,0.077-0.17,0.146-0.251,0.226c-0.088,0.088-0.165,0.183-0.249,0.274
	c-0.083,0.077-0.17,0.146-0.251,0.226c-0.088,0.088-0.165,0.183-0.249,0.274c-0.083,0.077-0.17,0.146-0.251,0.226
	c-0.088,0.088-0.165,0.183-0.249,0.274c-0.083,0.077-0.17,0.146-0.251,0.226c-0.088,0.088-0.165,0.183-0.249,0.274
	c-0.083,0.077-0.17,0.146-0.251,0.226c-0.088,0.088-0.165,0.183-0.249,0.274c-0.083,0.077-0.17,0.146-0.251,0.226
	c-0.088,0.088-0.165,0.183-0.249,0.274c-0.083,0.077-0.17,0.146-0.251,0.226c-0.088,0.088-0.165,0.183-0.249,0.274
	c-0.083,0.077-0.17,0.146-0.251,0.226c-0.088,0.088-0.165,0.183-0.249,0.274c-0.083,0.077-0.17,0.146-0.251,0.226
	c-0.088,0.088-0.165,0.183-0.249,0.274c-0.083,0.077-0.17,0.146-0.251,0.226c-0.088,0.088-0.165,0.183-0.249,0.274
	c-0.083,0.077-0.17,0.146-0.251,0.226c-0.088,0.088-0.165,0.183-0.249,0.274c-0.083,0.077-0.17,0.146-0.251,0.226
	c-0.088,0.088-0.165,0.183-0.249,0.274c-0.083,0.077-0.17,0.146-0.251,0.226c-0.088,0.088-0.165,0.183-0.249,0.274
	c-0.083,0.077-0.17,0.146-0.251,0.226c-0.088,0.088-0.165,0.183-0.249,0.274c-0.083,0.077-0.17,0.146-0.251,0.226
	c-0.088,0.088-0.165,0.183-0.249,0.274c-0.083,0.077-0.17,0.146-0.251,0.226c-0.088,0.088-0.165,0.183-0.249,0.274
	c-0.083,0.077-0.17,0.146-0.251,0.226c-0.088,0.088-0.165,0.183-0.249,0.274c-0.083,0.077-0.17,0.146-0.251,0.226
	c-0.088,0.088-0.165,0.183-0.249,0.274c-0.083,0.077-0.17,0.146-0.251,0.226c-0.088,0.088-0.165,0.183-0.249,0.274
	c-0.083,0.077-0.17,0.146-0.251,0.226c-0.088,0.088-0.165,0.183-0.249,0.274c-0.083,0.077-0.17,0.146-0.251,0.226
	c-0.088,0.088-0.165,0.183-0.249,0.274c-0.083,0.077-0.17,0.146-0.251,0.226c-0.088,0.088-0.165,0.183-0.249,0.274
	c-0.083,0.077-0.17,0.146-0.251,0.226c-0.088,0.088-0.165,0.183-0.249,0.274c-0.083,0.077-0.17,0.146-0.251,0.226
	c-0.088,0.088-0.165,0.183-0.249,0.274c-0.083,0.077-0.17,0.146-0.251,0.226c-0.088,0.088-0.165,0.183-0.249,0.274
	c-0.083,0.077-0.17,0.146-0.251,0.226c-0.088,0.088-0.165,0.183-0.249,0.274c-0.083,0.077-0.17,0.146-0.251,0.226
	c-0.088,0.088-0.165,0.183-0.249,0.274c-0.083,0.077-0.17,0.146-0.251,0.226c-0.088,0.088-0.165,0.183-0.249,0.274
	c-0.083,0.077-0.17,0.146-0.251,0.226c-0.088,0.088-0.165,0.183-0.249,0.274c-0.083,0.077-0.17,0.146-0.251,0.226
	c-0.088,0.088-0.165,0.183-0.249,0.274c-0.083,0.077-0.17,0.146-0.251,0.226c-0.088,0.088-0.165,0.183-0.249,0.274
	c-0.083,0.077-0.17,0.146-0.251,0.226c-0.088,0.088-0.165,0.183-0.249,0.274c-0.083,0.077-0.17,0.146-0.251,0.226
	c-0.088,0.088-0.165,0.183-0.249,0.274c-0.083,0.077-0.17,0.146-0.251,0.226c-0.088,0.088-0.165,0.183-0.249,0.274
	c-0.083,0.077-0.17,0.146-0.251,0.226c-0.088,0.088-0.165,0.183-0.249,0.274c-0.083,0.077-0.17,0.146-0.251,0.226
	c-0.088,0.088-0.165,0.183-0.249,0.274c-0.083,0.077-0.17,0.146-0.251,0.226c-0.088,0.088-0.165,0.183-0.249,0.274
	c-0.083,0.077-0.17,0.146-0.251,0.226c-0.088,0.088-0.165,0.183-0.249,0.274c-0.083,0.077-0.17,0.146-0.251,0.226
	c-0.088,0.088-0.165,0.183-0.249,0.274c-0.083,0.077-0.17,0.146-0.251,0.226c-0.088,0.088-0.165,0.183-0.249,0.274
	c-0.083,0.077-0.17,0.146-0.251,0.226c-0.088,0.088-0.165,0.183-0.249,0.274c-0.083,0.077-0.17,0.146-0.251,0.226
	c-0.088,0.088-0.165,0.183-0.249,0.274c-0.083,0.077-0.17,0.146-0.251,0.226c-0.088,0.088-0.165,0.183-0.249,0.274
	c-0.083,0.077-0.17,0.146-0.251,0.226c-0.088,0.088-0.165,0.183-0.249,0.274c-0.083,0.077-0.17,0.146-0.251,0.226
	c-0.088,0.088-0.165,0.183-0.249,0.274c-0.083,0.077-0.17,0.146-0.251,0.226c-0.088,0.088-0.165,0.183-0.249,0.274
	c-0.083,0.077-0.17,0.146-0.251,0.226c-0.088,0.088-0.165,0.183-0.249,0.274c-0.083,0.077-0.17,0.146-0.251,0.226
	c-0.088,0.088-0.165,0.183-0.249,0.274c-0.083,0.077-0.17,0.146-0.251,0.226c-0.088,0.088-0.165,0.183-0.249,0.274
	c-0.083,0.077-0.17,0.146-0.251,0.226c-0.088,0.088-0.165,0.183-0.249,0.274c-0.083,0.077-0.17,0.146-0.251,0.226
	c-0.088,0.088-0.165,0.183-0.249,0.274c-0.083,0.077-0.17,0.146-0.251,0.226c-0.088,0.088-0.165,0.183-0.249,0.274
	c-0.083,0.077-0.17,0.146-0.251,0.226c-0.088,0.088-0.165,0.183-0.249,0.274c-0.083,0.077-0.17,0.146-0.251,0.226
	c-0.088,0.088-0.165,0.183-0.249,0.274c-0.083,0.077-0.17,0.146-0.251,0.226c-0.088,0.088-0.165,0.183-0.249,0.274
	c-0.083,0.077-0.17,0.146-0.251,0.226c-0.088,0.088-0.165,0.183-0.249,0.274c-0.083,0.077-0.17,0.146-0.251,0.226
	c-0.088,0.088-0.165,0.183-0.249,0.274c-0.083,0.077-0.17,0.146-0.251,0.226c-0.088,0.088-0.165,0.183-0.249,0.274
	c-0.083,0.077-0.17,0.146-0.251,0.226c-0.088,0.088-0.165,0.183-0.249,0.274c-0.083,0.077-0.17,0.146-0.251,0.226
	c-0.088,0.088-0.165,0.183-0.249,0.274c-0.083,0.077-0.17,0.146-0.251,0.226c-0.088,0.088-0.165,0.183-0.249,0.274
	c-0.083,0.077-0.17,0.146-0.251,0.226c-0.088,0.088-0.165,0.183-0.249,0.274c-0.083,0.077-0.17,0.146-0.251,0.226
	c-0.088,0.088-0.165,0.183-0.249,0.274c-0.083,0.077-0.17,0.146-0.251,0.226c-0.088,0.088-0.165,0.183-0.249,0.274
	c-0.083,0.077-0.17,0.146-0.251,0.226c-0.088,0.088-0.165,0.183-0.249,0.274c-0.083,0.077-0.17,0.146-0.251,0.226
	c-0.088,0.088-0.165,0.183-0.249,0.274c-0.083,0.077-0.17,0.146-0.251,0.226c-0.088,0.088-0.165,0.183-0.249,0.274
	c-0.083,0.077-0.17,0.146-0.251,0.226c-0.088,0.088-0.165,0.183-0.249,0.274c-0.083,0.077-0.17,0.146-0.251,0.226
	c-0.088,0.088-0.165,0.183-0.249,0.274c-0.083,0.077-0.17,0.146-0.251,0.226c-0.088,0.088-0.165,0.183-0.249,0.274
	c-0.083,0.077-0.17,0.146-0.251,0.226c-0.088,0.088-0.165,0.183-0.249,0.274c-0.083,0.077-0.17,0.146-0.251,0.226
	c-0.088,0.088-0.165,0.183-0.249,0.274c-0.083,0.077-0.17,0.146-0.251,0.226c-0.088,0.088-0.165,0.183-0.249,0.274
	c-0.083,0.077-0.17,0.146-0.251,0.226c-0.088,0.088-0.165,0.183-0.249,0.274c-0.083,0.077-0.17,0.146-0.251,0.226
	c-0.088,0.088-0.165,0.183-0.249,0.274c-0.083,0.077-0.17,0.146-0.251,0.226c-0.088,0.088-0.165,0.183-0.249,0.274
	c-0.083,0.077-0.17,0.146-0.251,0.226c-0.088,0.088-0.165,0.183-0.249,0.274c-0.083,0.077-0.17,0.146-0.251,0.226
	c-0.088,0.088-0.165,0.183-0.249,0.274c-0.083,0.077-0.17,0.146-0.251,0.226c-0.088,0.088-0.165,0.183-0.249,0.274
	c-0.083,0.077-0.17,0.146-0.251,0.226c-0.088,0.088-0.165,0.183-0.249,0.274c-0.083,0.077-0.17,0.146-0.251,0.226
	c-0.088,0.088-0.165,0.183-0.249,0.274c-0.083,0.077-0.17,0.146-0.251,0.226c-0.088,0.088-0.165,0.183-0.249,0.274
	c-0.083,0.077-0.17,0.146-0.251,0.226c-0.088,0.088-0.165,0.183-0.249,0.274c-0.083,0.077-0.17,0.146-0.251,0.226
	c-0.088,0.088-0.165,0.183-0.249,0.274c-0.083,0.077-0.17,0.146-0.251,0.226c-0.088,0.088-0.165,0.183-0.249,0.274
	c-0.083,0.077-0.17,0.146-0.251,0.226c-0.088,0.088-0.165,0.183-0.249,0.274c-0.083,0.077-0.17,0.146-0.251,0.226
	c-0.088,0.088-0.165,0.183-0.249,0.274c-0.083,0.077-0.17,0.146-0.251,0.226c-0.088,0.088-0.165,0.183-0.249,0.274
	c-0.083,0.077-0.17,0.146-0.251,0.226c-0.088,0.088-0.165,0.183-0.249,0.274c-0.083,0.077-0.17,0.146-0.251,0.226
	c-0.088,0.088-0.165,0.183-0.249,0.274c-0.083,0.077-0.17,0.146-0.251,0.226c-0.088,0.088-0.165,0.183-0.249,0.274
	c-0.083,0.077-0.17,0.146-0.251,0.226c-0.088,0.088-0.165,0.183-0.249,0.274c-0.083,0.077-0.17,0.146-0.251,0.226
	c-0.088,0.088-0.165,0.183-0.249,0.274c-0.083,0.077-0.17,0.146-0.251,0.226c-0.088,0.088-0.165,0.183-0.249,0.274
	c-0.083,0.077-0.17,0.146-0.251,0.226c-0.088,0.088-0.165,0.183-0.249,0.274c-0.083,0.077-0.17,0.146-0.251,0.226
	c-0.088,0.088-0.165,0.183-0.249,0.274c-0.083,0.077-0.17,0.146-0.251,0.226c-0.088,0.088-0.165,0.183-0.249,0.274
	c-0.083,0.077-0.17,0.146-0.251,0.226c-0.088,0.088-0.165,0.183-0.249,0.274c-0.083,0.077-0.17,0.146-0.251,0.226
	c-0.088,0.088-0.165,0.183-0.249,0.274c-0.083,0.077-0.17,0.146-0.251,0.226c-0.088,0.088-0.165,0.183-0.249,0.274
	c-0.083,0.077-0.17,0.146-0.251,0.226c-0.088,0.088-0.165,0.183-0.249,0.274c-0.083,0.077-0.17,0.146-0.251,0.226
	c-0.088,0.088-0.165,0.183-0.249,0.274c-0.083,0.077-0.17,0.146-0.251,0.226c-0.088,0.088-0.165,0.183-0.249,0.274
	c-0.083,0.077-0.17,0.146-0.251,0.226c-0.088,0.088-0.165,0.183-0.249,0.274c-0.083,0.077-0.17,0.146-0.251,0.226
	c-0.088,0.088-0.165,0.183-0.249,0.274c-0.083,0.077-0.17,0.146-0.251,0.226c-0.088,0.088-0.165,0.183-0.249,0.274
	c-0.083,0.077-0.17,0.146-0.251,0.226c-0.088,0.088-0.165,0.183-0.249,0.274c-0.083,0.077-0.17,0.146-0.251,0.226
	c-0.088,0.088-0.165,0.183-0.249,0.274c-0.083,0.077-0.17,0.146-0.251,0.226c-0.088,0.088-0.165,0.183-0.249,0.274
	c-0.083,0.077-0.17,0.146-0.251,0.226c-0.088,0.088-0.165,0.183-0.249,0.274c-0.083,0.077-0.17,0.146-0.251,0.226
	c-0.088,0.088-0.165,0.183-0.249,0.274c-0.083,0.077-0.17,0.146-0.251,0.226c-0.088,0.088-0.165,0.183-0.249,0.274
	c-0.083,0.077-0.17,0.146-0.251,0.226c-0.088,0.088-0.165,0.183-0.249,0.274c-0.083,0.077-0.17,0.146-0.251,0.226
	c-0.088,0.088-0.165,0.183-0.249,0.274c-0.083,0.077-0.17,0.146-0.251,0.226c-0.088,0.088-0.165,0.183-0.249,0.274
	c-0.083,0.077-0.17,0.146-0.251,0.226c-0.088,0.088-0.165,0.183-0.249,0.274c-0.083,0.077-0.17,0.146-0.251,0.226
	c-0.088,0.088-0.165,0.183-0.249,0.274c-0.083,0.077-0.17,0.146-0.251,0.226c-0.088,0.088-0.165,0.183-0.249,0.274
	c-0.083,0.077-0.17,0.146-0.251,0.226c-0.088,0.088-0.165,0.183-0.249,0.274c-0.083,0.077-0.17,0.146-0.251,0.226
	c-0.088,0.088-0.165,0.183-0.249,0.274c-0.083,0.077-0.17,0.146-0.251,0.226c-0.088,0.088-0.165,0.183-0.249,0.274
	c-0.083,0.077-0.17,0.146-0.251,0.226c-0.088,0.088-0.165,0.183-0.249,0.274c-0.083,0.077-0.17,0.146-0.251,0.226
	c-0.088,0.088-0.165,0.183-0.249,0.274c-0.083,0.077-0.17,0.146-0.251,0.226c-0.088,0.088-0.165,0.183-0.249,0.274
	c-0.083,0.077-0.17,0.146-0.251,0.226c-0.088,0.088-0.165,0.183-0.249,0.274c-0.083,0.077-0.17,0.146-0.251,0.226
	c-0.088,0.088-0.165,0.183-0.249,0.274c-0.083,0.077-0.17,0.146-0.251,0.226c-0.088,0.088-0.165,0.183-0.249,0.274
	c-0.083,0.077-0.17,0.146-0.251,0.226c-0.088,0.088-0.165,0.183-0.249,0.274c-0.083,0.077-0.17,0.146-0.251,0.226
	c-0.088,0.088-0.165,0.183-0.249,0.274c-0.083,0.077-0.17,0.146-0.251,0.226c-0.088,0.088-0.165,0.183-0.249,0.274
	c-0.083,0.077-0.17,0.146-0.251,0.226c-0.088,0.088-0.165,0.183-0.249,0.274c-0.083,0.077-0.17,0.146-0.251,0.226
	c-0.088,0.088-0.165,0.183-0.249,0.274c-0.083,0.077-0.17,0.146-0.251,0.226c-0.088,0.088-0.165,0.183-0.249,0.274
	c-0.083,0.077-0.17,0.146-0.251,0.226c-0.088,0.088-0.165,0.183-0.249,0.274c-0.083,0.077-0.17,0.146-0.251,0.226
	c-0.088,0.088-0.165,0.183-0.249,0.274c-0.083,0.077-0.17,0.146-0.251,0.226c-0.088,0.088-0.165,0.183-0.249,0.274
	c-0.083,0.077-0.17,0.146-0.251,0.226c-0.088,0.088-0.165,0.183-0.249,0.274c-0.083,0.077-0.17,0.146-0.251,0.226
	c-0.088,0.088-0.165,0.183-0.249,0.274c-0.083,0.077-0.17,0.146-0.251,0.226c-0.088,0.088-0.165,0.183-0.249,0.274
	c-0.083,0.077-0.17,0.146-0.251,0.226c-0.088,0.088-0.165,0.183-0.249,0.274c-0.083,0.077-0.17,0.146-0.251,0.226
	c-0.088,0.088-0.165,0.183-0.249,0.274c-0.083,0.077-0.17,0.146-0.251,0.226c-0.088,0.088-0.165,0.183-0.249,0.274
	c-0.083,0.077-0.17,0.146-0.251,0.226c-0.088,0.088-0.165,0.183-0.249,0.274c-0.083,0.077-0.17,0.146-0.251,0.226
	c-0.088,0.088-0.165,0.183-0.249,0.274c-0.083,0.077-0.17,0.146-0.251,0.226c-0.088,0.088-0.165,0.183-0.249,0.274
	c-0.083,0.077-0.17,0.146-0.251,0.226c-0.088,0.088-0.165,0.183-0.249,0.274c-0.083,0.077-0.17,0.146-0.251,0.226
	c-0.088,0.088-0.165,0.183-0.249,0.274c-0.083,0.077-0.17,0.146-0.251,0.226c-0.088,0.088-0.165,0.183-0.249,0.274
	c-0.083,0.077-0.17,0.146-0.251,0.226c-0.088,0.088-0.165,0.183-0.249,0.274c-0.083,0.077-0.17,0.146-0.251,0.226
	c-0.088,0.088-0.165,0.183-0.249,0.274c-0.083,0.077-0.17,0.146-0.251,0.226c-0.088,0.088-0.165,0.183-0.249,0.274
	c-0.083,0.077-0.17,0.146-0.251,0.226c-0.088,0.088-0.165,0.183-0.249,0.274c-0.083,0.077-0.17,0.146-0.251,0.226
	c-0.088,0.088-0.165,0.183-0.249,0.274c-0.083,0.077-0.17,0.146-0.251,0.226c-0.088,0.088-0.165,0.183-0.249,0.274
	c-0.083,0.077-0.17,0.146-0.251,0.226c-0.088,0.088-0.165,0.183-0.249,0.274c-0.083,0.077-0.17,0.146-0.251,0.226
	c-0.088,0.088-0.165,0.183-0.249,0.274c-0.083,0.077-0.17,0.146-0.251,0.226c-0.088,0.088-0.165,0.183-0.249,0.274
	c-0.083,0.077-0.17,0.146-0.251,0.226c-0.088,0.088-0.165,0.183-0.249,0.274c-0.083,0.077-0.17,0.146-0.251,0.226
	c-0.088,0.088-0.165,0.183-0.249,0.274c-0.083,0.077-0.17,0.146-0.251,0.226c-0.088,0.088-0.165,0.183-0.249,0.274
	c-0.083,0.077-0.17,0.146-0.251,0.226c-0.088,0.088-0.165,0.183-0.249,0.274c-0.083,0.077-0.17,0.146-0.251,0.226
	c-0.088,0.088-0.165,0.183-0.249,0.274c-0.083,0.077-0.17,0.146-0.251,0.226c-0.088,0.088-0.165,0.183-0.249,0.274
	c-0.083,0.077-0.17,0.146-0.251,0.226c-0.088,0.088-0.165,0.183-0.249,0.274c-0.083,0.077-0.17,0.146-0.251,0.226
	c-0.088,0.088-0.165,0.183-0.249,0.274c-0.083,0.077-0.17,0.146-0.251,0.226c-0.088,0.088-0.165,0.183-0.249,0.274
	c-0.083,0.077-0.17,0.146-0.251,0.226c-0.088,0.088-0.165,0.183-0.249,0.274c-0.083,0.077-0.17,0.146-0.251,0.226
	c-0.088,0.088-0.165,0.183-0.249,0.274c-0.083,0.077-0.17,0.146-0.251,0.226c-0.088,0.088-0.165,0.183-0.249,0.274
	c-0.083,0.077-0.17,0.146-0.251,0.226c-0.088,0.088-0.165,0.183-0.249,0.274c-0.083,0.077-0.17,0.146-0.251,0.226
	c-0.088,0.088-0.165,0.183-0.249,0.274c-0.083,0.077-0.17,0.146-0.251,0.226c-0.088,0.088-0.165,0.183-0.249,0.274
	c-0.083,0.077-0.17,0.146-0.251,0.226c-0.088,0.088-0.165,0.183-0.249,0.274c-0.083,0.077-0.17,0.146-0.251,0.226
	c-0.088,0.088-0.165,0.183-0.249,0.274c-0.083,0.077-0.17,0.146-0.251,0.226c-0.088,0.088-0.165,0.183-0.249,0.274
	c-0.083,0.077-0.17,0.146-0.251,0.226c-0.088,0.088-0.165,0.183-0.249,0.274c-0.083,0.077-0.17,0.146-0.251,0.226
	c-0.088,0.088-0.165,0.183-0.249,0.274c-0.083,0.077-0.17,0.146-0.251,0.226c-0.088,0.088-0.165,0.183-0.249,0.274
	c-0.083,0.077-0.17,0.146-0.251,0.226c-0.088,0.088-0.165,0.183-0.249,0.274c-0.083,0.077-0.17,0.146-0.251,0.226
	c-0.088,0.088-0.165,0.183-0.249,0.274c-0.083,0.077-0.17,0.146-0.251,0.226c-0.088,0.088-0.165,0.183-0.249,0.274
	c-0.083,0.077-0.17,0.146-0.251,0.226c-0.088,0.088-0.165,0.183-0.249,0.274c-0.083,0.077-0.17,0.146-0.251,0.226
	c-0.088,0.088-0.165,0.183-0.249,0.274c-0.083,0.077-0.17,0.146-0.251,0.226c-0.088,0.088-0.165,0.183-0.249,0.274
	c-0.083,0.077-0.17,0.146-0.251,0.226c-0.088,0.088-0.165,0.183-0.249,0.274c-0.083,0.077-0.17,0.146-0.251,0.226
	c-0.088,0.088-0.165,0.183-0.249,0.274c-0.083,0.077-0.17,0.146-0.251,0.226c-0.088,0.088-0.165,0.183-0.249,0.274
	c-0.083,0.077-0.17,0.146-0.251,0.226c-0.088,0.088-0.165,0.183-0.249,0.274c-0.083,0.077-0.17,0.146-0.251,0.226
	c-0.088,0.088-0.165,0.183-0.249,0.274c-0.083,0.077-0.17,0.146-0.251,0.226c-0.088,0.088-0.165,0.183-0.249,0.274
	c-0.083,0.077-0.17,0.146-0.251,0.226c-0.088,0.088-0.165,0.183-0.249,0.274c-0.083,0.077-0.17,0.146-0.251,0.226
	c-0.088,0.088-0.165,0.183-0.249,0.274c-0.083,0.077-0.17,0.146-0.251,0.226c-0.088,0.088-0.165,0.183-0.249,0.274
	c-0.083,0.077-0.17,0.146-0.251,0.226c-0.088,0.088-0.165,0.183-0.249,0.274c-0.083,0.077-0.17,0.146-0.251,0.226
	c-0.088,0.088-0.165,0.183-0.249,0.274c-0.083,0.077-0.17,0.146-0.251,0.226c-0.088,0.088-0.165,0.183-0.249,0.274
	c-0.083,0.077-0.17,0.146-0.251,0.226c-0.088,0.088-0.165,0.183-0.249,0.274c-0.083,0.077-0.17,0.146-0.251,0.226
	c-0.088,0.088-0.165,0.183-0.249,0.274c-0.083,0.077-0.17,0.146-0.251,0.226c-0.088,0.088-0.165,0.183-0.249,0.274
	c-0.083,0.077-0.17,0.146-0.251,0.226c-0.088,0.088-0.165,0.183-0.249,0.274c-0.083,0.077-0.17,0.146-0.251,0.226
	c-0.088,0.088-0.165,0.183-0.249,0.274c-0.083,0.077-0.17,0.146-0.251,0.226c-0.088,0.088-0.165,0.183-0.249,0.274
	c-0.083,0.077-0.17,0.146-0.251,0.226c-0.088,0.088-0.165,0.183-0.249,0.274c-0.083,0.077-0.17,0.146-0.251,0.226
	c-0.088,0.088-0.165,0.183-0.249,0.274c-0.083,0.077-0.17,0.146-0.251,0.226c-0.088,0.088-0.165,0.183-0.249,0.274
	c-0.083,0.077-0.17,0.146-0.251,0.226c-0.088,0.088-0.165,0.183-0.249,0.274c-0.083,0.077-0.17,0.146-0.251,0.226
	c-0.088,0.088-0.165,0.183-0.249,0.274c-0.083,0.077-0.17,0.146-0.251,0.226c-0.088,0.088-0.165,0.183-0.249,0.274
	c-0.083,0.077-0.17,0.146-0.251,0.226c-0.088,0.088-0.165,0.183-0.249,0.274c-0.083,0.077-0.17,0.146-0.251,0.226
	c-0.088,0.088-0.165,0.183-0.249,0.274c-0.083,0.077-0.17,0.146-0.251,0.226c-0.088,0.088-0.165,0.183-0.249,0.274
	c-0.083,0.077-0.17,0.146-0.251,0.226c-0.088,0.088-0.165,0.183-0.249,0.274c-0.083,0.077-0.17,0.146-0.251,0.226
	c-0.088,0.088-0.165,0.183-0.249,0.274c-0.083,0.077-0.17,0.146-0.251,0.226c-0.088,0.088-0.165,0.183-0.249,0.274
	c-0.083,0.077-0.17,0.146-0.251,0.226c-0.088,0.088-0.165,0.183-0.249,0.274c-0.083,0.077-0.17,0.146-0.251,0.226
	c-0.088,0.088-0.165,0.183-0.249,0.274c-0.083,0.077-0.17,0.146-0.251,0.226c-0.088,0.088-0.165,0.183-0.249,0.274
	c-0.083,0.077-0.17,0.146-0.251,0.226c-0.088,0.088-0.165,0.183-0.249,0.274c-0.083,0.077-0.17,0.146-0.251,0.226
	c-0.088,0.088-0.165,0.183-0.249,0.274c-0.083,0.077-0.17,0.146-0.251,0.226c-0.088,0.088-0.165,0.183-0.249,0.274
	c-0.083,0.077-0.17,0.146-0.251,0.226c-0.088,0.088-0.165,0.183-0.249,0.274c-0.083,0.077-0.17,0.146-0.251,0.226
	c-0.088,0.088-0.165,0.183-0.249,0.274c-0.083,0.077-0.17,0.146-0.251,0.226c-0.088,0.088-0.165,0.183-0.249,0.274
	c-0.083,0.077-0.17,0.146-0.251,0.226c-0.088,0.088-0.165,0.183-0.249,0.274c-0.083,0.077-0.17,0.146-0.251,0.226
	c-0.088,0.088-0.165,0.183-0.249,0.274c-0.083,0.077-0.17,0.146-0.251,0.226c-0.088,0.088-0.165,0.183-0.249,0.274
	c-0.083,0.077-0.17,0.146-0.251,0.226c-0.088,0.088-0.165,0.183-0.249,0.274c-0.083,0.077-0.17,0.146-0.251,0.226
	c-0.088,0.088-0.165,0.183-0.249,0.274c-0.083,0.077-0.17,0.146-0.251,0.226c-0.088,0.088-0.165,0.183-0.249,0.274
	c-0.083,0.077-0.17,0.146-0.251,0.226c-0.088,0.088-0.165,0.183-0.249,0.274c-0.083,0.077-0.17,0.146-0.251,0.226
	c-0.088,0.088-0.165,0.183-0.249,0.274c-0.083,0.077-0.17,0.146-0.251,0.226c-0.088,0.088-0.165,0.183-0.249,0.274
	c-0.083,0.077-0.17,0.146-0.251,0.226c-0.088,0.088-0.165,0.183-0.249,0.274c-0.083,0.077-0.17,0.146-0.251,0.226
	c-0.088,0.088-0.165,0.183-0.249,0.274c-0.083,0.077-0.17,0.146-0.251,0.226c-0.088,0.088-0.165,0.183-0.249,0.274
	c-0.083,0.077-0.17,0.146-0.251,0.226c-0.088,0.088-0.165,0.183-0.249,0.274c-0.083,0.077-0.17,0.146-0.251,0.226
	c-0.088,0.088-0.165,0.183-0.249,0.274c-0.083,0.077-0.17,0.146-0.251,0.226c-0.088,0.088-0.165,0.183-0.249,0.274
	c-0.083,0.077-0.17,0.146-0.251,0.226c-0.088,0.088-0.165,0.183-0.249,0.274c-0.083,0.077-0.17,0.146-0.251,0.226
	c-0.088,0.088-0.165,0.183-0.249,0.274c-0.083,0.077-0.17,0.146-0.251,0.226c-0.088,0.088-0.165,0.183-0.249,0.274
	c-0.083,0.077-0.17,0.146-0.251,0.226c-0.088,0.088-0.165,0.183-0.249,0.274c-0.083,0.077-0.17,0.146-0.251,0.226
	c-0.088,0.088-0.165,0.183-0.249,0.274c-0.083,0.077-0.17,0.146-0.251,0.226c-0.088,0.088-0.165,0.183-0.249,0.274
	c-0.083,0.077-0.17,0.146-0.251,0.227c-0.089,0.09-0.166,0.186-0.251,0.275c-0.082,0.076-0.169,0.146-0.249,0.227
	c-0.088,0.089-0.165,0.183-0.249,0.271c-0.083,0.077-0.17,0.146-0.251,0.229c-0.088,0.089-0.165,0.183-0.249,0.271
	c-0.083,0.077-0.17,0.146-0.251,0.229c-0.088,0.089-0.165,0.183-0.249,0.271c-0.083,0.077-0.17,0.146-0.251,0.229
	c-0.088,0.089-0.165,0.183-0.249,0.271c-0.083,0.077-0.17,0.146-0.251,0.229c-0.088,0.089-0.165,0.183-0.249,0.271
	c-0.083,0.077-0.17,0.146-0.251,0.229c-0.088,0.089-0.165,0.183-0.249,0.271c-0.083,0.077-0.17,0.146-0.251,0.229
	c-0.088,0.089-0.165,0.183-0.249,0.271c-0.083,0.077-0.17,0.146-0.251,0.229c-0.088,0.089-0.165,0.183-0.249,0.271
	c-0.083,0.077-0.17,0.146-0.251,0.229c-0.088,0.089-0.165,0.183-0.249,0.271c-0.083,0.077-0.17,0.146-0.251,0.229
	c-0.088,0.089-0.165,0.183-0.249,0.271c-0.083,0.077-0.17,0.146-0.251,0.229c-0.088,0.089-0.165,0.183-0.249,0.271
	c-0.083,0.077-0.17,0.146-0.251,0.229c-0.088,0.089-0.165,0.183-0.249,0.271c-0.083,0.077-0.17,0.146-0.251,0.229
	c-0.088,0.089-0.165,0.183-0.249,0.271c-0.083,0.077-0.17,0.146-0.251,0.229c-0.088,0.089-0.165,0.183-0.249,0.271
	c-0.083,0.077-0.17,0.146-0.251,0.229c-0.088,0.089-0.165,0.183-0.249,0.271c-0.083,0.077-0.17,0.146-0.251,0.229
	c-0.088,0.089-0.165,0.183-0.249,0.271c-0.083,0.077-0.17,0.146-0.251,0.229c-0.088,0.089-0.165,0.183-0.249,0.271
	c-0.083,0.077-0.17,0.146-0.251,0.229c-0.088,0.089-0.165,0.183-0.249,0.271c-0.083,0.077-0.17,0.146-0.251,0.229
	c-0.088,0.089-0.165,0.183-0.249,0.271c-0.083,0.077-0.17,0.146-0.251,0.229c-0.088,0.089-0.165,0.183-0.249,0.271
	c-0.083,0.077-0.17,0.146-0.251,0.229c-0.088,0.089-0.165,0.183-0.249,0.271c-0.083,0.077-0.17,0.146-0.251,0.229
	c-0.088,0.089-0.165,0.183-0.249,0.271c-0.083,0.077-0.17,0.146-0.251,0.229c-0.088,0.089-0.165,0.183-0.249,0.271
	c-0.083,0.077-0.17,0.146-0.251,0.229c-0.088,0.089-0.165,0.183-0.249,0.271c-0.083,0.077-0.17,0.146-0.251,0.229
	c-0.088,0.089-0.165,0.183-0.249,0.271c-0.083,0.077-0.17,0.146-0.251,0.229c-0.088,0.089-0.165,0.183-0.249,0.271
	c-0.083,0.077-0.17,0.146-0.251,0.229c-0.088,0.089-0.165,0.183-0.249,0.271c-0.083,0.077-0.17,0.146-0.251,0.229
	c-0.088,0.089-0.165,0.183-0.249,0.271c-0.083,0.077-0.17,0.146-0.251,0.229c-0.088,0.089-0.165,0.183-0.249,0.271
	c-0.083,0.077-0.17,0.146-0.251,0.229c-0.088,0.089-0.165,0.183-0.249,0.271c-0.083,0.077-0.17,0.146-0.251,0.229
	c-0.088,0.089-0.165,0.183-0.249,0.271c-0.083,0.077-0.17,0.146-0.251,0.229c-0.088,0.089-0.165,0.183-0.249,0.271
	c-0.083,0.077-0.17,0.146-0.251,0.229c-0.088,0.089-0.165,0.183-0.249,0.271c-0.083,0.077-0.17,0.146-0.251,0.229
	c-0.088,0.089-0.165,0.183-0.249,0.271c-0.083,0.077-0.17,0.146-0.251,0.229c-0.088,0.089-0.165,0.183-0.249,0.271
	c-0.083,0.077-0.17,0.146-0.251,0.229c-0.088,0.089-0.165,0.183-0.249,0.271c-0.083,0.077-0.17,0.146-0.251,0.229
	c-0.088,0.089-0.165,0.183-0.249,0.271c-0.083,0.077-0.17,0.146-0.251,0.229c-0.088,0.089-0.165,0.183-0.249,0.271
	c-0.046,0.043-0.092,0.086-0.139,0.127V412c0,55.229,44.771,100,100,100h175.999c0.103-0.1,0.206-0.197,0.303-0.303
	c0.169-0.164,0.341-0.326,0.5-0.5c0.169-0.164,0.341-0.326,0.5-0.5c0.169-0.164,0.341-0.326,0.5-0.5
	c0.169-0.164,0.341-0.326,0.5-0.5c0.169-0.164,0.341-0.326,0.5-0.5c0.169-0.164,0.341-0.326,0.5-0.5
	c0.169-0.164,0.341-0.326,0.5-0.5c0.169-0.164,0.341-0.326,0.5-0.5c0.169-0.164,0.341-0.326,0.5-0.5
	c0.169-0.164,0.341-0.326,0.5-0.5c0.169-0.164,0.341-0.326,0.5-0.5c0.169-0.164,0.341-0.326,0.5-0.5
	c0.169-0.164,0.341-0.326,0.5-0.5c0.169-0.164,0.341-0.326,0.5-0.5c0.169-0.164,0.341-0.326,0.5-0.5
	c0.169-0.164,0.341-0.326,0.5-0.5c0.169-0.164,0.341-0.326,0.5-0.5c0.169-0.164,0.341-0.326,0.5-0.5
	c0.169-0.164,0.341-0.326,0.5-0.5c0.169-0.164,0.341-0.326,0.5-0.5c0.169-0.164,0.341-0.326,0.5-0.5
	c0.169-0.164,0.341-0.326,0.5-0.5c0.169-0.164,0.341-0.326,0.5-0.5c0.169-0.164,0.341-0.326,0.5-0.5
	c0.169-0.164,0.341-0.326,0.5-0.5c0.169-0.164,0.341-0.326,0.5-0.5c0.169-0.164,0.341-0.326,0.5-0.5
	c0.169-0.164,0.341-0.326,0.5-0.5c0.169-0.164,0.341-0.326,0.5-0.5c0.169-0.164,0.341-0.326,0.5-0.5
	c0.169-0.164,0.341-0.326,0.5-0.5c0.169-0.164,0.341-0.326,0.5-0.5c0.169-0.164,0.341-0.326,0.5-0.5
	c0.169-0.164,0.341-0.326,0.5-0.5c0.169-0.164,0.341-0.326,0.5-0.5c0.169-0.164,0.341-0.326,0.5-0.5
	c0.169-0.164,0.341-0.326,0.5-0.5c0.169-0.164,0.341-0.326,0.5-0.5c0.169-0.164,0.341-0.326,0.5-0.5
	c0.169-0.164,0.341-0.326,0.5-0.5c0.169-0.164,0.341-0.326,0.5-0.5c0.169-0.164,0.341-0.326,0.5-0.5
	c0.169-0.164,0.341-0.326,0.5-0.5c0.169-0.164,0.341-0.326,0.5-0.5c0.169-0.164,0.341-0.326,0.5-0.5
	c0.169-0.164,0.341-0.326,0.5-0.5c0.169-0.164,0.341-0.326,0.5-0.5c0.169-0.164,0.341-0.326,0.5-0.5
	c0.169-0.164,0.341-0.326,0.5-0.5c0.169-0.164,0.341-0.326,0.5-0.5c0.169-0.164,0.341-0.326,0.5-0.5
	c0.169-0.164,0.341-0.326,0.5-0.5c0.169-0.164,0.341-0.326,0.5-0.5c0.169-0.164,0.341-0.326,0.5-0.5
	c0.169-0.164,0.341-0.326,0.5-0.5c0.169-0.164,0.341-0.326,0.5-0.5c0.169-0.164,0.341-0.326,0.5-0.5
	c0.169-0.164,0.341-0.326,0.5-0.5c0.169-0.164,0.341-0.326,0.5-0.5c0.169-0.164,0.341-0.326,0.5-0.5
	c0.169-0.164,0.341-0.326,0.5-0.5c0.169-0.164,0.341-0.326,0.5-0.5c0.169-0.164,0.341-0.326,0.5-0.5
	c0.169-0.164,0.341-0.326,0.5-0.5c0.169-0.164,0.341-0.326,0.5-0.5c0.169-0.164,0.341-0.326,0.5-0.5
	c0.169-0.164,0.341-0.326,0.5-0.5c0.169-0.164,0.341-0.326,0.5-0.5c0.169-0.164,0.341-0.326,0.5-0.5
	c0.169-0.164,0.341-0.326,0.5-0.5c0.169-0.164,0.341-0.326,0.5-0.5c0.169-0.164,0.341-0.326,0.5-0.5
	c0.169-0.164,0.341-0.326,0.5-0.5c0.169-0.164,0.341-0.326,0.5-0.5c0.169-0.164,0.341-0.326,0.5-0.5
	c0.169-0.164,0.341-0.326,0.5-0.5c0.169-0.164,0.341-0.326,0.5-0.5c0.169-0.164,0.341-0.326,0.5-0.5
	c0.169-0.164,0.341-0.326,0.5-0.5c0.169-0.164,0.341-0.326,0.5-0.5c0.169-0.164,0.341-0.326,0.5-0.5
	c0.169-0.164,0.341-0.326,0.5-0.5c0.169-0.164,0.341-0.326,0.5-0.5c0.169-0.164,0.341-0.326,0.5-0.5
	c0.169-0.164,0.341-0.326,0.5-0.5c0.169-0.164,0.341-0.326,0.5-0.5c0.169-0.164,0.341-0.326,0.5-0.5
	c0.169-0.164,0.341-0.326,0.5-0.5c0.169-0.164,0.341-0.326,0.5-0.5c0.169-0.164,0.341-0.326,0.5-0.5
	c0.169-0.164,0.341-0.326,0.5-0.5c0.169-0.164,0.341-0.326,0.5-0.5c0.169-0.164,0.341-0.326,0.5-0.5
	c0.169-0.164,0.341-0.326,0.5-0.5c0.169-0.164,0.341-0.326,0.5-0.5c0.169-0.164,0.341-0.326,0.5-0.5
	c0.169-0.164,0.341-0.326,0.5-0.5c0.169-0.164,0.341-0.326,0.5-0.5c0.169-0.164,0.341-0.326,0.5-0.5
	c0.169-0.164,0.341-0.326,0.5-0.5c0.169-0.164,0.341-0.326,0.5-0.5c0.169-0.164,0.341-0.326,0.5-0.5
	c0.169-0.164,0.341-0.326,0.5-0.5c0.169-0.164,0.341-0.326,0.5-0.5c0.169-0.164,0.341-0.326,0.5-0.5
	c0.169-0.164,0.341-0.326,0.5-0.5c0.169-0.164,0.341-0.326,0.5-0.5c0.169-0.164,0.341-0.326,0.5-0.5
	c0.169-0.164,0.341-0.326,0.5-0.5c0.169-0.164,0.341-0.326,0.5-0.5c0.169-0.164,0.341-0.326,0.5-0.5
	c0.169-0.164,0.341-0.326,0.5-0.5c0.169-0.164,0.341-0.326,0.5-0.5c0.169-0.164,0.341-0.326,0.5-0.5
	c0.169-0.164,0.341-0.326,0.5-0.5c0.169-0.164,0.341-0.326,0.5-0.5c0.169-0.164,0.341-0.326,0.5-0.5
	c0.169-0.164,0.341-0.326,0.5-0.5c0.169-0.164,0.341-0.326,0.5-0.5c0.169-0.164,0.341-0.326,0.5-0.5
	c0.169-0.164,0.341-0.326,0.5-0.5c0.169-0.164,0.341-0.326,0.5-0.5c0.169-0.164,0.341-0.326,0.5-0.5
	c0.169-0.164,0.341-0.326,0.5-0.5c0.169-0.164,0.341-0.326,0.5-0.5c0.169-0.164,0.341-0.326,0.5-0.5
	c0.169-0.164,0.341-0.326,0.5-0.5c0.169-0.164,0.341-0.326,0.5-0.5c0.169-0.164,0.341-0.326,0.5-0.5
	c0.169-0.164,0.341-0.326,0.5-0.5c0.169-0.164,0.341-0.326,0.5-0.5c0.169-0.164,0.341-0.326,0.5-0.5
	c0.169-0.164,0.341-0.326,0.5-0.5c0.169-0.164,0.341-0.326,0.5-0.5c0.169-0.164,0.341-0.326,0.5-0.5
	c0.169-0.164,0.341-0.326,0.5-0.5c0.169-0.164,0.341-0.326,0.5-0.5c0.169-0.164,0.341-0.326,0.5-0.5
	c0.169-0.164,0.341-0.326,0.5-0.5c0.169-0.164,0.341-0.326,0.5-0.5c0.169-0.164,0.341-0.326,0.5-0.5
	c0.169-0.164,0.341-0.326,0.5-0.5c0.169-0.164,0.341-0.326,0.5-0.5c0.169-0.164,0.341-0.326,0.5-0.5
	c0.169-0.164,0.341-0.326,0.5-0.5c0.169-0.164,0.341-0.326,0.5-0.5c0.169-0.164,0.341-0.326,0.5-0.5
	c0.169-0.164,0.341-0.326,0.5-0.5c0.169-0.164,0.341-0.326,0.5-0.5c0.169-0.164,0.341-0.326,0.5-0.5
	c0.169-0.164,0.341-0.326,0.5-0.5c0.169-0.164,0.341-0.326,0.5-0.5c0.169-0.164,0.341-0.326,0.5-0.5
	c0.169-0.164,0.341-0.326,0.5-0.5c0.169-0.164,0.341-0.326,0.5-0.5c0.169-0.164,0.341-0.326,0.5-0.5
	c0.169-0.164,0.341-0.326,0.5-0.5c0.169-0.164,0.341-0.326,0.5-0.5c0.169-0.164,0.341-0.326,0.5-0.5
	c0.169-0.164,0.341-0.326,0.5-0.5c0.169-0.164,0.341-0.326,0.5-0.5c0.169-0.164,0.341-0.326,0.5-0.5
	c0.169-0.164,0.341-0.326,0.5-0.5c0.169-0.164,0.341-0.326,0.5-0.5c0.169-0.164,0.341-0.326,0.5-0.5
	c0.169-0.164,0.341-0.326,0.5-0.5c0.169-0.164,0.341-0.326,0.5-0.5c0.169-0.164,0.341-0.326,0.5-0.5
	c0.169-0.164,0.341-0.326,0.5-0.5c0.169-0.164,0.341-0.326,0.5-0.5c0.169-0.164,0.341-0.326,0.5-0.5
	c0.169-0.164,0.341-0.326,0.5-0.5c0.169-0.164,0.341-0.326,0.5-0.5c0.169-0.164,0.341-0.326,0.5-0.5
	c0.169-0.164,0.341-0.326,0.5-0.5c0.169-0.164,0.341-0.326,0.5-0.5c0.169-0.164,0.341-0.326,0.5-0.5
	c0.169-0.164,0.341-0.326,0.5-0.5c0.169-0.164,0.341-0.326,0.5-0.5c0.169-0.164,0.341-0.326,0.5-0.5
	c0.169-0.164,0.341-0.326,0.5-0.5c0.169-0.164,0.341-0.326,0.5-0.5c0.169-0.164,0.341-0.326,0.5-0.5
	c0.169-0.164,0.341-0.326,0.5-0.5c0.169-0.164,0.341-0.326,0.5-0.5c0.169-0.164,0.341-0.326,0.5-0.5
	c0.169-0.164,0.341-0.326,0.5-0.5c0.169-0.164,0.341-0.326,0.5-0.5c0.169-0.164,0.341-0.326,0.5-0.5
	c0.169-0.164,0.341-0.326,0.5-0.5c0.169-0.164,0.341-0.326,0.5-0.5c0.169-0.164,0.341-0.326,0.5-0.5
	c0.169-0.164,0.341-0.326,0.5-0.5c0.169-0.164,0.341-0.326,0.5-0.5c0.169-0.164,0.341-0.326,0.5-0.5
	c0.169-0.164,0.341-0.326,0.5-0.5c0.169-0.164,0.341-0.326,0.5-0.5c0.169-0.164,0.341-0.326,0.5-0.5
	c0.169-0.164,0.341-0.326,0.5-0.5c0.169-0.164,0.341-0.326,0.5-0.5c0.169-0.164,0.341-0.326,0.5-0.5
	c0.169-0.164,0.341-0.326,0.5-0.5c0.169-0.164,0.341-0.326,0.5-0.5c0.169-0.164,0.341-0.326,0.5-0.5
	c0.169-0.164,0.341-0.326,0.5-0.5c0.169-0.164,0.341-0.326,0.5-0.5c0.169-0.164,0.341-0.326,0.5-0.5
	c0.169-0.164,0.341-0.326,0.5-0.5c0.169-0.164,0.341-0.326,0.5-0.5c0.169-0.164,0.341-0.326,0.5-0.5
	c0.169-0.164,0.341-0.326,0.5-0.5c0.169-0.164,0.341-0.326,0.5-0.5c0.169-0.164,0.341-0.326,0.5-0.5
	c0.169-0.164,0.341-0.326,0.5-0.5c0.169-0.164,0.341-0.326,0.5-0.5c0.169-0.164,0.341-0.326,0.5-0.5
	c0.169-0.164,0.341-0.326,0.5-0.5c0.169-0.164,0.341-0.326,0.5-0.5c0.169-0.164,0.341-0.326,0.5-0.5
	c0.169-0.164,0.341-0.326,0.5-0.5c0.169-0.164,0.341-0.326,0.5-0.5c0.169-0.164,0.341-0.326,0.5-0.5
	c0.169-0.164,0.341-0.326,0.5-0.5c0.169-0.164,0.341-0.326,0.5-0.5c0.169-0.164,0.341-0.326,0.5-0.5
	c0.169-0.164,0.341-0.326,0.5-0.5c0.169-0.164,0.341-0.326,0.5-0.5c0.169-0.164,0.341-0.326,0.5-0.5
	c0.169-0.164,0.341-0.326,0.5-0.5c0.169-0.164,0.341-0.326,0.5-0.5c0.169-0.164,0.341-0.326,0.5-0.5
	c0.169-0.164,0.341-0.326,0.5-0.5c0.169-0.164,0.341-0.326,0.5-0.5c0.169-0.164,0.341-0.326,0.5-0.5
	c0.169-0.164,0.341-0.326,0.5-0.5c0.169-0.164,0.341-0.326,0.5-0.5c0.169-0.164,0.341-0.326,0.5-0.5
	c0.169-0.164,0.341-0.326,0.5-0.5c0.169-0.164,0.341-0.326,0.5-0.5c0.169-0.164,0.341-0.326,0.5-0.5
	c0.169-0.164,0.341-0.326,0.5-0.5c0.169-0.164,0.341-0.326,0.5-0.5c0.169-0.164,0.341-0.326,0.5-0.5
	c0.169-0.164,0.341-0.326,0.5-0.5c0.169-0.164,0.341-0.326,0.5-0.5c0.169-0.164,0.341-0.326,0.5-0.5
	c0.169-0.164,0.341-0.326,0.5-0.5c0.169-0.164,0.341-0.326,0.5-0.5c0.169-0.164,0.341-0.326,0.5-0.5
	c0.169-0.164,0.341-0.326,0.5-0.5c0.169-0.164,0.341-0.326,0.5-0.5c0.169-0.164,0.341-0.326,0.5-0.5
	c0.169-0.164,0.341-0.326,0.5-0.5c0.169-0.164,0.341-0.326,0.5-0.5c0.169-0.164,0.341-0.326,0.5-0.5
	c0.169-0.164,0.341-0.326,0.5-0.5c0.169-0.164,0.341-0.326,0.5-0.5c2.198-2.139,3.535-5.088,3.502-8.656
	C408.294,373.029,406.906,224.077,408.195,175.859z"/>
<g>
	<path fill="#FFFFFF" d="M225.289,208.912c-3.538-3.64-9.353-3.716-12.985-0.167c-3.635,3.545-3.699,9.36-0.152,12.99
		c3.526,3.634,9.351,3.706,12.968,0.161C228.771,218.356,228.841,212.542,225.289,208.912z"/>
	<path fill="#FFFFFF" d="M179.395,240.822c-3.633,3.541-3.697,9.355-0.15,13c3.545,3.629,9.358,3.702,12.993,0.161
		c3.635-3.549,3.705-9.374,0.172-12.999C188.854,237.346,183.039,237.273,179.395,240.822z"/>
	<path fill="#FFFFFF" d="M146.498,272.908c-3.617,3.531-3.699,9.347-0.164,12.978c3.555,3.636,9.39,3.712,13.004,0.171
		c3.635-3.554,3.715-9.365,0.168-12.99C155.954,269.423,150.141,269.355,146.498,272.908z"/>
	<path fill="#FFFFFF" d="M184.993,184.03c4.521-2.302,6.317-7.83,4.004-12.357c-2.317-4.509-7.846-6.309-12.367-3.988
		c-4.523,2.306-6.297,7.838-3.984,12.353C174.944,184.555,180.481,186.35,184.993,184.03z"/>
	<path fill="#FFFFFF" d="M148.092,192.591c-2.305-4.523-7.841-6.313-12.373-3.993c-4.515,2.302-6.309,7.834-3.996,12.37
		c2.317,4.51,7.845,6.296,12.369,3.985C148.606,202.642,150.4,197.11,148.092,192.591z"/>
	<path fill="#FFFFFF" d="M94.806,209.512c-4.505,2.307-6.309,7.839-3.992,12.357c2.308,4.519,7.854,6.309,12.365,4.002
		c4.516-2.319,6.317-7.848,3.992-12.357C104.875,208.983,99.329,207.192,94.806,209.512z"/>
	<path fill="#FFFFFF" d="M264.388,246.202c-4.372-2.589-9.987-1.167-12.592,3.208c-2.584,4.366-1.147,9.992,3.215,12.585
		c4.359,2.591,9.987,1.157,12.572-3.202C270.186,254.422,268.758,248.791,264.388,246.202z"/>
	<path fill="#FFFFFF" d="M240.921,285.695c-4.361-2.598-9.997-1.164-12.603,3.209c-2.6,4.361-1.146,9.998,3.217,12.6
		c4.357,2.59,9.985,1.154,12.599-3.217C246.719,293.927,245.282,288.287,240.921,285.695z"/>
	<path fill="#FFFFFF" d="M217.445,325.195c-4.359-2.596-9.995-1.161-12.601,3.213c-2.585,4.357-1.166,9.992,3.205,12.582
		c4.369,2.598,10.005,1.148,12.589-3.204C223.223,333.416,221.815,327.786,217.445,325.195z"/>
	<path fill="#FFFFFF" d="M408.194,175.859c0.523-19.891-10.785-39.4-29.514-50.9c-19.714-12.101-43.98-13.196-66.077-3.442
		l-7.267-7.264c-8.086-8.099-20.688-8.817-29.668-2.302c-24.579-19.258-59.806-36.923-87.281-10.692
		c17.855,17.867,138.072,138.079,155.95,155.946c23.638-24.773,11.61-55.828-5.08-79.716c7.413-9.024,7.001-22.319-1.429-30.745
		l-3.598-3.599c10.533-2.141,20.999-0.597,30.025,4.949c10.363,6.368,16.64,16.198,16.369,26.276
		c-1.295,48.715,0.054,194.235,0.104,200.437c0.072,7.574,6.229,12.193,13.784,12.193c0.047,0,0.092,0,0.137,0
		c7.608,0,13.719-4.844,13.648-12.459C408.294,373.029,406.905,224.077,408.194,175.859z"/>
	<path fill="#FFFFFF" d="M336.831,262.617l-154.95-155.036c-3.59-3.59-9.403-3.765-12.993-0.175c-3.59,3.59-3.59,9.055,0,12.645
		l155.95,155.454c1.794,1.793,4.146,1.496,6.496,1.496c0.055,0,0.113,0,0.186,0c5.073,0,9.191-2.961,9.191-8.035
		C340.711,265.869,339.178,264.279,336.831,262.617z"/>
</g>
</svg>
