<?xml version="1.0" encoding="utf-8"?>
<!-- Generator: Adobe Illustrator 16.0.3, SVG Export Plug-In . SVG Version: 6.00 Build 0)  -->
<!DOCTYPE svg PUBLIC "-//W3C//DTD SVG 1.1//EN" "http://www.w3.org/Graphics/SVG/1.1/DTD/svg11.dtd">
<svg version="1.1" id="Layer_1" xmlns="http://www.w3.org/2000/svg" xmlns:xlink="http://www.w3.org/1999/xlink" x="0px" y="0px"
	 width="128px" height="128px" viewBox="0 0 128 128" enable-background="new 0 0 128 128" xml:space="preserve">
<path fill="#444953" class="bg" d="M128,24.998C128,11.192,116.818,0,103.01,0H25.002C11.194,0,0,11.192,0,24.998v77.993
	C0,116.796,11.194,128,25.002,128h78.007c13.809,0,24.99-11.204,24.99-25.01V24.998z"/>
<g>
	<defs>
		<path id="SVGID_1_" d="M128,24.998C128,11.192,116.818,0,103.01,0H25.002C11.194,0,0,11.192,0,24.998v77.993
			C0,116.796,11.194,128,25.002,128h78.007c13.809,0,24.99-11.204,24.99-25.01V24.998z"/>
	</defs>
	<clipPath id="SVGID_2_">
		<use xlink:href="#SVGID_1_"  overflow="visible"/>
	</clipPath>
	<path clip-path="url(#SVGID_2_)" fill="#353A42" class="shadow" d="M101.431,59.369c0-20.709-16.791-37.496-37.504-37.496
		c-10.388,0-19.789,4.224-26.58,11.046c-0.042,0.042-0.083,0.083-0.125,0.125c-0.042,0.042-0.083,0.083-0.125,0.125
		c-0.042,0.042-0.083,0.083-0.125,0.125c-0.042,0.042-0.083,0.083-0.125,0.125c-0.042,0.042-0.083,0.083-0.125,0.125
		c-0.042,0.042-0.083,0.083-0.125,0.125c-0.042,0.042-0.083,0.083-0.125,0.125c-0.042,0.042-0.083,0.083-0.125,0.125
		c-0.041,0.041-0.082,0.082-0.123,0.123c-0.042,0.042-0.085,0.084-0.127,0.127c-0.042,0.042-0.083,0.083-0.125,0.125
		c-0.042,0.042-0.083,0.083-0.125,0.125c-0.042,0.042-0.083,0.083-0.125,0.125c-0.042,0.042-0.083,0.083-0.125,0.125
		c-0.042,0.042-0.083,0.083-0.125,0.125c-0.042,0.042-0.083,0.083-0.125,0.125c-0.042,0.042-0.083,0.083-0.125,0.125
		c-0.042,0.042-0.083,0.083-0.125,0.125c-0.042,0.042-0.083,0.083-0.125,0.125c-0.042,0.042-0.083,0.083-0.125,0.125
		c-0.042,0.042-0.083,0.083-0.125,0.125c-0.042,0.042-0.083,0.083-0.125,0.125c-0.042,0.042-0.083,0.083-0.125,0.125
		c-0.042,0.042-0.083,0.083-0.125,0.125c-0.042,0.042-0.083,0.083-0.125,0.125c-0.041,0.041-0.082,0.082-0.123,0.122
		c-0.042,0.042-0.085,0.085-0.128,0.128c-0.042,0.042-0.083,0.083-0.125,0.125c-0.042,0.042-0.083,0.083-0.125,0.125
		c-0.042,0.042-0.083,0.083-0.125,0.125c-0.042,0.042-0.083,0.083-0.125,0.125c-0.042,0.042-0.083,0.083-0.125,0.125
		c-0.042,0.042-0.083,0.083-0.125,0.125c-0.042,0.042-0.083,0.083-0.125,0.125c-0.042,0.042-0.083,0.083-0.125,0.125
		c-0.042,0.042-0.083,0.083-0.125,0.125c-0.041,0.041-0.082,0.082-0.123,0.122c-0.042,0.042-0.085,0.085-0.127,0.127
		c-0.041,0.041-0.082,0.082-0.123,0.123c-0.042,0.042-0.084,0.084-0.126,0.126c-0.042,0.042-0.084,0.083-0.125,0.125
		c-0.042,0.042-0.083,0.083-0.125,0.125c-0.042,0.042-0.083,0.083-0.125,0.125c-0.042,0.042-0.083,0.083-0.125,0.125
		c-0.042,0.042-0.084,0.084-0.125,0.126c-0.042,0.041-0.083,0.083-0.125,0.124c-0.042,0.042-0.083,0.083-0.125,0.125
		c-0.042,0.042-0.083,0.083-0.125,0.125c-0.042,0.042-0.083,0.083-0.125,0.125c-0.041,0.041-0.082,0.082-0.123,0.123
		c-0.042,0.042-0.085,0.084-0.127,0.127c-0.042,0.042-0.083,0.083-0.125,0.125c-0.042,0.042-0.083,0.083-0.125,0.125
		c-0.042,0.042-0.083,0.083-0.125,0.125c-0.042,0.042-0.083,0.083-0.125,0.125c-0.042,0.042-0.083,0.083-0.125,0.125
		c-0.042,0.041-0.083,0.082-0.124,0.124c-0.042,0.042-0.084,0.084-0.126,0.126c-0.042,0.042-0.083,0.083-0.125,0.125
		c-0.042,0.042-0.083,0.083-0.125,0.125c-0.042,0.042-0.083,0.083-0.125,0.125c-0.042,0.042-0.083,0.083-0.125,0.125
		c-0.042,0.042-0.083,0.083-0.125,0.125c-0.042,0.042-0.083,0.083-0.125,0.125c-0.042,0.042-0.083,0.083-0.125,0.125
		c-0.042,0.042-0.083,0.083-0.125,0.125c-0.042,0.042-0.083,0.083-0.125,0.125c-0.041,0.041-0.082,0.081-0.123,0.122
		c-0.043,0.042-0.085,0.085-0.128,0.128c-0.042,0.042-0.083,0.083-0.125,0.125c-0.042,0.042-0.083,0.083-0.125,0.125
		c-0.042,0.042-0.083,0.083-0.125,0.125c-0.042,0.042-0.083,0.083-0.125,0.125c-0.042,0.042-0.083,0.083-0.125,0.125
		c-0.042,0.042-0.083,0.083-0.125,0.125c-0.042,0.042-0.083,0.083-0.125,0.125c-0.042,0.042-0.083,0.083-0.125,0.125
		c-0.042,0.042-0.083,0.083-0.125,0.125c-0.041,0.04-0.081,0.08-0.121,0.121c-0.043,0.042-0.086,0.085-0.128,0.128
		c-0.042,0.042-0.084,0.083-0.125,0.125c-0.042,0.042-0.083,0.083-0.125,0.125c-0.042,0.042-0.083,0.083-0.125,0.125
		c-0.042,0.042-0.083,0.083-0.125,0.125c-0.042,0.042-0.083,0.083-0.125,0.125c-0.042,0.042-0.083,0.083-0.125,0.125
		c-0.042,0.042-0.083,0.083-0.125,0.125c-0.042,0.042-0.083,0.083-0.125,0.125c-0.042,0.042-0.083,0.083-0.125,0.125
		c-0.042,0.042-0.083,0.083-0.125,0.125c-0.041,0.041-0.082,0.082-0.123,0.123c-0.042,0.042-0.085,0.084-0.127,0.127
		c-0.042,0.042-0.083,0.083-0.125,0.125c-0.042,0.042-0.083,0.083-0.125,0.125c-0.042,0.042-0.083,0.083-0.125,0.125
		c-0.042,0.042-0.083,0.083-0.125,0.125c-0.042,0.042-0.083,0.083-0.125,0.125c-0.042,0.042-0.083,0.083-0.125,0.125
		c-0.042,0.042-0.083,0.083-0.125,0.125c-0.042,0.042-0.083,0.083-0.125,0.125c-0.042,0.042-0.083,0.083-0.125,0.125
		c-0.042,0.042-0.083,0.083-0.125,0.125c-0.042,0.042-0.083,0.083-0.125,0.125c-0.042,0.042-0.083,0.083-0.125,0.125
		c-0.042,0.042-0.083,0.083-0.125,0.125c-0.042,0.042-0.083,0.083-0.125,0.125c-0.042,0.042-0.083,0.083-0.125,0.125
		c-0.041,0.041-0.082,0.082-0.123,0.122c-0.042,0.042-0.085,0.085-0.128,0.128c-0.042,0.042-0.083,0.083-0.125,0.125
		c-0.042,0.042-0.083,0.083-0.125,0.125c-0.042,0.042-0.083,0.083-0.125,0.125c-0.042,0.042-0.083,0.083-0.125,0.125
		c-0.042,0.042-0.083,0.083-0.125,0.125c-0.042,0.042-0.083,0.083-0.125,0.125c-0.042,0.042-0.083,0.083-0.125,0.125
		c-0.042,0.042-0.083,0.083-0.125,0.125c-0.042,0.042-0.083,0.083-0.125,0.125c-0.041,0.041-0.082,0.082-0.123,0.123
		c-0.042,0.042-0.083,0.083-0.125,0.125c-0.042,0.042-0.084,0.084-0.127,0.127c-0.042,0.042-0.083,0.083-0.125,0.125
		c-0.042,0.042-0.084,0.083-0.125,0.125c-0.042,0.042-0.083,0.083-0.125,0.125c-0.042,0.042-0.083,0.083-0.125,0.125
		c-0.042,0.042-0.083,0.083-0.125,0.125c-0.042,0.042-0.083,0.083-0.125,0.125c-0.042,0.042-0.083,0.083-0.125,0.125
		c-0.042,0.042-0.083,0.083-0.125,0.125c-0.042,0.042-0.083,0.083-0.125,0.125c-0.042,0.042-0.083,0.083-0.125,0.125
		c-0.041,0.041-0.082,0.082-0.123,0.123c-0.042,0.042-0.085,0.084-0.127,0.127c-0.042,0.042-0.083,0.083-0.125,0.125
		c-0.042,0.042-0.083,0.083-0.125,0.125c-0.042,0.042-0.083,0.083-0.125,0.125c-0.042,0.042-0.083,0.083-0.125,0.125
		c-0.042,0.042-0.083,0.083-0.125,0.125c-0.042,0.041-0.083,0.082-0.124,0.124c-0.042,0.042-0.084,0.084-0.126,0.126
		c-0.042,0.042-0.083,0.083-0.125,0.125c-0.042,0.042-0.083,0.083-0.125,0.125c-0.042,0.042-0.083,0.083-0.125,0.125
		c-0.042,0.042-0.083,0.083-0.125,0.125c-0.042,0.042-0.083,0.083-0.125,0.125c-0.042,0.042-0.083,0.083-0.125,0.125
		c-0.042,0.042-0.083,0.083-0.125,0.125c-0.042,0.042-0.083,0.083-0.125,0.125c-0.041,0.041-0.082,0.081-0.123,0.122
		c-0.043,0.042-0.085,0.085-0.128,0.128c-0.042,0.042-0.083,0.083-0.125,0.125c-0.042,0.042-0.083,0.083-0.125,0.125
		c-0.042,0.042-0.083,0.083-0.125,0.125c-0.042,0.042-0.083,0.083-0.125,0.125c-0.042,0.042-0.083,0.083-0.125,0.125
		c-0.042,0.042-0.083,0.083-0.125,0.125c-0.042,0.042-0.083,0.083-0.125,0.125c-0.042,0.042-0.083,0.083-0.125,0.125
		c-0.042,0.042-0.083,0.083-0.125,0.125c-0.042,0.042-0.083,0.083-0.125,0.125c-0.041,0.04-0.081,0.08-0.121,0.121
		c-0.043,0.042-0.086,0.085-0.128,0.128c-0.042,0.042-0.084,0.083-0.125,0.125c-0.042,0.042-0.083,0.083-0.125,0.125
		c-0.042,0.042-0.083,0.083-0.125,0.125c-0.042,0.042-0.083,0.083-0.125,0.125c-0.042,0.042-0.083,0.083-0.125,0.125
		c-0.042,0.042-0.083,0.083-0.125,0.125c-0.042,0.042-0.083,0.083-0.125,0.125c-0.042,0.042-0.083,0.083-0.125,0.125
		c-0.042,0.042-0.083,0.083-0.125,0.125c-0.042,0.042-0.083,0.083-0.125,0.125c-0.041,0.041-0.082,0.082-0.123,0.123
		c-0.042,0.042-0.085,0.084-0.127,0.127c-0.042,0.042-0.083,0.083-0.125,0.125c-0.042,0.042-0.083,0.083-0.125,0.125
		c-0.042,0.042-0.083,0.083-0.125,0.125c-0.042,0.042-0.083,0.083-0.125,0.125c-0.042,0.042-0.083,0.083-0.125,0.125
		c-0.042,0.042-0.083,0.083-0.125,0.125c-0.042,0.042-0.083,0.083-0.125,0.125c-0.042,0.042-0.083,0.083-0.125,0.125
		c-0.042,0.042-0.083,0.083-0.125,0.125c-0.042,0.042-0.083,0.083-0.125,0.125c-0.042,0.042-0.083,0.083-0.125,0.125
		c-0.042,0.042-0.083,0.083-0.125,0.125c-0.042,0.042-0.083,0.083-0.125,0.125c-0.042,0.042-0.083,0.083-0.125,0.125
		c-0.042,0.042-0.083,0.083-0.125,0.125c-0.041,0.041-0.082,0.082-0.123,0.122c-0.042,0.042-0.085,0.085-0.128,0.128
		c-0.042,0.042-0.083,0.083-0.125,0.125c-0.042,0.042-0.083,0.083-0.125,0.125c-0.042,0.042-0.083,0.083-0.125,0.125
		c-0.042,0.042-0.083,0.083-0.125,0.125c-0.042,0.042-0.083,0.083-0.125,0.125c-0.042,0.042-0.083,0.083-0.125,0.125
		c-0.042,0.042-0.083,0.083-0.125,0.125c-0.042,0.042-0.083,0.083-0.125,0.125c-0.042,0.042-0.083,0.083-0.125,0.125
		c-0.041,0.041-0.082,0.082-0.123,0.123c-0.042,0.042-0.084,0.084-0.127,0.127c-0.041,0.041-0.082,0.082-0.123,0.123
		c-0.042,0.042-0.084,0.084-0.126,0.126s-0.084,0.083-0.125,0.125c-0.042,0.042-0.083,0.083-0.125,0.125
		c-0.042,0.042-0.083,0.083-0.125,0.125c-0.042,0.042-0.083,0.083-0.125,0.125c-0.042,0.042-0.083,0.083-0.125,0.125
		c-0.042,0.042-0.084,0.085-0.127,0.127c-0.041,0.041-0.082,0.082-0.123,0.124c-0.042,0.042-0.083,0.083-0.125,0.125
		c-0.041,0.041-0.082,0.081-0.123,0.122c-0.042,0.042-0.085,0.085-0.127,0.127c-0.042,0.042-0.083,0.083-0.125,0.125
		c-0.042,0.042-0.083,0.083-0.125,0.125c-0.042,0.042-0.083,0.083-0.125,0.125c-0.042,0.042-0.083,0.083-0.125,0.125
		c-0.042,0.042-0.083,0.083-0.125,0.125c-0.042,0.042-0.083,0.083-0.125,0.125c-0.042,0.041-0.083,0.083-0.124,0.124
		c-0.042,0.042-0.084,0.084-0.126,0.126c-0.041,0.04-0.081,0.081-0.121,0.121c-0.043,0.042-0.086,0.085-0.129,0.128
		C9.302,60.958,9.261,61,9.219,61.042c-0.042,0.042-0.083,0.083-0.125,0.125c-0.042,0.042-0.083,0.083-0.125,0.125
		c-0.042,0.042-0.083,0.083-0.125,0.125c-0.042,0.042-0.083,0.083-0.125,0.125c-0.042,0.042-0.083,0.083-0.125,0.125
		c-0.041,0.041-0.082,0.082-0.123,0.123c-0.043,0.042-0.085,0.085-0.128,0.127C8.302,61.958,8.26,62,8.219,62.042
		s-0.083,0.083-0.125,0.125S8.01,62.25,7.969,62.292s-0.083,0.083-0.125,0.125S7.76,62.5,7.719,62.542s-0.083,0.083-0.125,0.125
		S7.51,62.75,7.469,62.792s-0.083,0.083-0.125,0.125S7.26,63,7.219,63.042s-0.083,0.083-0.125,0.125
		c-0.041,0.041-0.082,0.082-0.123,0.123c-0.042,0.042-0.084,0.084-0.126,0.126C6.802,63.458,6.76,63.5,6.719,63.542
		c-0.042,0.042-0.083,0.083-0.125,0.125c-0.042,0.042-0.083,0.083-0.125,0.125c-0.042,0.042-0.083,0.083-0.125,0.125
		C6.302,63.958,6.26,64,6.219,64.042c-0.042,0.042-0.083,0.083-0.125,0.125c-0.042,0.042-0.083,0.083-0.125,0.125
		c-0.042,0.042-0.083,0.083-0.125,0.125C5.802,64.458,5.76,64.5,5.719,64.542c-0.042,0.042-0.083,0.083-0.125,0.125
		c-0.041,0.041-0.082,0.082-0.123,0.123c-0.042,0.042-0.085,0.084-0.127,0.127C5.302,64.958,5.26,65,5.219,65.041
		c-0.042,0.042-0.083,0.084-0.125,0.125c-0.042,0.042-0.083,0.084-0.125,0.125c-0.042,0.042-0.083,0.084-0.125,0.125
		C4.802,65.458,4.76,65.5,4.719,65.541c-0.042,0.042-0.083,0.084-0.125,0.125c-0.042,0.042-0.083,0.084-0.125,0.125
		c-0.042,0.042-0.083,0.084-0.125,0.125C4.302,65.958,4.26,66,4.219,66.041c-0.042,0.042-0.083,0.084-0.125,0.125
		c-0.042,0.042-0.083,0.084-0.125,0.125c-0.042,0.042-0.083,0.084-0.125,0.125C3.802,66.458,3.76,66.5,3.719,66.541
		c-0.042,0.042-0.083,0.084-0.125,0.125c-0.041,0.041-0.082,0.082-0.123,0.123c-0.042,0.042-0.085,0.085-0.128,0.127
		C3.302,66.958,3.26,67,3.218,67.041c-0.042,0.042-0.083,0.084-0.125,0.125c-0.042,0.042-0.083,0.084-0.125,0.125
		c-0.042,0.042-0.083,0.084-0.125,0.125C2.802,67.458,2.76,67.5,2.718,67.541c-0.042,0.042-0.083,0.084-0.125,0.125
		c-0.042,0.042-0.083,0.084-0.125,0.125c-0.042,0.042-0.083,0.084-0.125,0.125C2.302,67.958,2.26,68,2.218,68.041
		c-0.042,0.042-0.083,0.084-0.125,0.125c-0.041,0.041-0.082,0.082-0.123,0.123c-0.042,0.043-0.084,0.085-0.127,0.127
		C1.802,68.458,1.76,68.5,1.718,68.541c-0.042,0.042-0.083,0.083-0.125,0.125c-0.042,0.041-0.084,0.083-0.125,0.125
		c-0.042,0.042-0.083,0.084-0.125,0.125C1.301,68.958,1.26,69,1.218,69.041c-0.042,0.042-0.083,0.084-0.125,0.125
		c-0.042,0.042-0.083,0.084-0.125,0.125c-0.042,0.042-0.083,0.084-0.125,0.125C0.801,69.458,0.76,69.5,0.718,69.541
		c-0.042,0.042-0.083,0.084-0.125,0.125c-0.041,0.041-0.082,0.082-0.123,0.123c-0.042,0.042-0.085,0.084-0.127,0.127
		c-0.042,0.042-0.083,0.083-0.125,0.125c-0.042,0.042-0.083,0.083-0.125,0.125c-0.042,0.042-0.083,0.083-0.125,0.125
		c-0.042,0.042-0.083,0.083-0.125,0.125c-0.042,0.042-0.083,0.083-0.125,0.125c-0.042,0.041-0.083,0.082-0.124,0.124
		c-0.042,0.042-0.084,0.084-0.126,0.126c-0.041,0.04-0.081,0.08-0.121,0.121c-0.043,0.043-0.086,0.086-0.129,0.129
		c-0.042,0.041-0.083,0.083-0.125,0.125c-0.042,0.041-0.083,0.083-0.125,0.125c-0.042,0.041-0.083,0.083-0.125,0.125
		c-0.042,0.041-0.083,0.083-0.125,0.125c-0.042,0.041-0.083,0.083-0.125,0.125c-0.042,0.041-0.083,0.083-0.125,0.125
		c-0.042,0.041-0.083,0.083-0.125,0.125c-0.042,0.041-0.083,0.083-0.125,0.125c-0.041,0.04-0.082,0.081-0.123,0.122
		c-0.043,0.042-0.085,0.085-0.128,0.128c-0.042,0.041-0.083,0.083-0.125,0.125c-0.042,0.041-0.083,0.083-0.125,0.125
		c-0.042,0.041-0.083,0.083-0.125,0.125c-0.042,0.041-0.083,0.083-0.125,0.125c-6.823,6.79-11.048,16.188-11.048,26.574
		c0,20.709,16.792,37.497,37.504,37.497c10.388,0,19.789-4.225,26.58-11.047c0.042-0.042,0.083-0.083,0.125-0.125
		c0.042-0.042,0.083-0.083,0.125-0.125c0.042-0.042,0.083-0.083,0.125-0.125c0.042-0.042,0.083-0.083,0.125-0.125
		c0.042-0.042,0.083-0.083,0.125-0.125c0.042-0.042,0.083-0.083,0.125-0.125c0.042-0.042,0.083-0.083,0.125-0.125
		c0.042-0.042,0.083-0.083,0.125-0.125c0.042-0.042,0.083-0.083,0.125-0.125c0.042-0.042,0.083-0.083,0.125-0.125
		c0.042-0.042,0.083-0.083,0.125-0.125c0.042-0.042,0.083-0.083,0.125-0.125c0.042-0.042,0.083-0.083,0.125-0.125
		c0.042-0.042,0.083-0.083,0.125-0.125c0.042-0.042,0.083-0.083,0.125-0.125c0.042-0.042,0.083-0.083,0.125-0.125
		c0.042-0.041,0.083-0.082,0.124-0.124c0.041-0.04,0.082-0.081,0.123-0.122c0.043-0.043,0.086-0.086,0.129-0.129
		c0.042-0.041,0.083-0.083,0.125-0.125c0.041-0.04,0.082-0.081,0.123-0.122c0.043-0.043,0.085-0.085,0.128-0.128
		c0.042-0.041,0.083-0.083,0.125-0.125c0.042-0.041,0.083-0.083,0.125-0.125c0.042-0.041,0.083-0.083,0.125-0.125
		c0.042-0.041,0.083-0.083,0.125-0.125c0.042-0.041,0.083-0.083,0.125-0.125c0.041-0.04,0.082-0.081,0.123-0.122
		c0.042-0.043,0.085-0.085,0.127-0.128c0.042-0.041,0.083-0.083,0.125-0.125c0.042-0.041,0.083-0.083,0.125-0.125
		c0.042-0.041,0.083-0.081,0.123-0.123c0.042-0.042,0.084-0.084,0.126-0.126c0.042-0.042,0.084-0.084,0.126-0.126
		c0.042-0.041,0.083-0.083,0.125-0.125c0.042-0.041,0.083-0.083,0.125-0.125c0.042-0.041,0.083-0.083,0.125-0.125
		c0.042-0.041,0.083-0.083,0.125-0.125c0.042-0.041,0.083-0.083,0.125-0.125c0.042-0.041,0.083-0.083,0.125-0.125
		c0.042-0.041,0.083-0.083,0.125-0.125c0.042-0.041,0.083-0.083,0.125-0.125c0.042-0.041,0.083-0.083,0.125-0.125
		c0.042-0.041,0.083-0.083,0.125-0.125c0.042-0.041,0.083-0.083,0.125-0.125c0.042-0.041,0.083-0.083,0.125-0.125
		c0.042-0.041,0.083-0.083,0.125-0.125c0.042-0.041,0.083-0.083,0.125-0.125c0.042-0.041,0.083-0.083,0.125-0.125
		c0.042-0.041,0.083-0.083,0.125-0.125c0.042-0.041,0.083-0.083,0.125-0.125c0.042-0.041,0.083-0.083,0.125-0.125
		c0.042-0.041,0.083-0.083,0.125-0.125c0.042-0.041,0.083-0.083,0.125-0.125c0.042-0.041,0.083-0.083,0.125-0.125
		c0.042-0.041,0.083-0.083,0.125-0.125c0.042-0.041,0.083-0.083,0.125-0.125c0.042-0.041,0.083-0.083,0.125-0.125
		c0.042-0.041,0.083-0.083,0.125-0.125c0.042-0.041,0.083-0.083,0.125-0.125c0.042-0.041,0.083-0.083,0.125-0.125
		c0.042-0.041,0.083-0.083,0.125-0.125c0.042-0.041,0.083-0.083,0.125-0.125c0.042-0.041,0.083-0.083,0.125-0.125
		c0.042-0.041,0.083-0.083,0.125-0.125c0.042-0.041,0.083-0.083,0.125-0.125c0.042-0.041,0.083-0.083,0.125-0.125
		c0.042-0.041,0.083-0.083,0.125-0.125c0.042-0.041,0.083-0.083,0.125-0.125c0.04-0.039,0.08-0.079,0.12-0.119
		c0.043-0.043,0.087-0.087,0.13-0.13c0.042-0.042,0.083-0.083,0.125-0.125c0.041-0.041,0.082-0.082,0.123-0.123
		c0.042-0.042,0.084-0.085,0.127-0.127c0.042-0.041,0.083-0.083,0.125-0.124c0.042-0.042,0.084-0.084,0.125-0.126
		c0.042-0.042,0.083-0.083,0.125-0.125c0.042-0.042,0.083-0.083,0.125-0.125c0.042-0.042,0.083-0.083,0.125-0.125
		c0.042-0.042,0.083-0.083,0.125-0.125c0.042-0.042,0.083-0.083,0.125-0.125c0.042-0.042,0.083-0.083,0.125-0.125
		c0.042-0.042,0.083-0.083,0.125-0.125c0.042-0.042,0.083-0.083,0.125-0.125c0.042-0.042,0.083-0.083,0.125-0.125
		c0.042-0.042,0.083-0.083,0.125-0.125c0.042-0.042,0.083-0.083,0.125-0.125c0.042-0.042,0.083-0.083,0.125-0.125
		c0.042-0.042,0.083-0.083,0.125-0.125c0.042-0.042,0.083-0.083,0.125-0.125c0.042-0.042,0.083-0.083,0.125-0.125
		c0.042-0.042,0.083-0.083,0.125-0.125c0.042-0.042,0.083-0.083,0.125-0.125c0.042-0.042,0.083-0.083,0.125-0.125
		c0.042-0.042,0.083-0.083,0.125-0.125c0.042-0.042,0.083-0.083,0.125-0.125c0.042-0.042,0.083-0.083,0.125-0.125
		c0.042-0.041,0.083-0.082,0.124-0.124c0.042-0.042,0.084-0.084,0.126-0.126c0.041-0.04,0.081-0.08,0.121-0.121
		c0.043-0.043,0.086-0.086,0.129-0.129c0.042-0.041,0.083-0.083,0.125-0.125c0.042-0.041,0.083-0.083,0.125-0.125
		c0.042-0.041,0.083-0.083,0.125-0.125c0.042-0.041,0.083-0.083,0.125-0.125c0.042-0.041,0.083-0.083,0.125-0.125
		c0.042-0.041,0.083-0.083,0.125-0.125c0.042-0.041,0.083-0.083,0.125-0.125c0.042-0.041,0.083-0.083,0.125-0.125
		c0.042-0.041,0.083-0.083,0.125-0.125c0.042-0.041,0.083-0.083,0.125-0.125c0.042-0.041,0.083-0.083,0.125-0.125
		c0.042-0.041,0.083-0.083,0.125-0.125c0.042-0.041,0.083-0.082,0.124-0.123c0.042-0.042,0.084-0.084,0.126-0.126
		s0.084-0.084,0.126-0.126c0.042-0.041,0.083-0.083,0.125-0.125c0.042-0.041,0.083-0.083,0.125-0.125
		c0.042-0.041,0.083-0.083,0.125-0.125c0.042-0.041,0.083-0.083,0.125-0.125c0.042-0.041,0.083-0.083,0.125-0.125
		c0.042-0.041,0.083-0.083,0.125-0.125c0.042-0.041,0.083-0.083,0.125-0.125c0.042-0.041,0.083-0.083,0.125-0.125
		c0.042-0.041,0.083-0.083,0.125-0.125c0.042-0.041,0.083-0.083,0.125-0.125c0.042-0.041,0.083-0.083,0.125-0.125
		c0.042-0.041,0.083-0.083,0.125-0.125c0.042-0.041,0.083-0.083,0.125-0.125c0.042-0.041,0.083-0.083,0.125-0.125
		c0.042-0.041,0.083-0.083,0.125-0.125c0.042-0.041,0.083-0.083,0.125-0.125c0.042-0.041,0.083-0.083,0.125-0.125
		c0.042-0.041,0.083-0.083,0.125-0.125c0.042-0.041,0.083-0.083,0.125-0.125c0.042-0.041,0.083-0.083,0.125-0.125
		c0.042-0.041,0.083-0.083,0.125-0.125c0.042-0.041,0.083-0.083,0.125-0.125c0.042-0.041,0.083-0.083,0.125-0.125
		c0.042-0.041,0.083-0.083,0.125-0.125c0.042-0.041,0.083-0.083,0.125-0.125c0.042-0.041,0.083-0.083,0.125-0.125
		c0.04-0.039,0.08-0.079,0.12-0.119c0.043-0.044,0.087-0.087,0.13-0.131c0.042-0.041,0.084-0.083,0.125-0.125
		c0.042-0.041,0.084-0.083,0.125-0.125c0.042-0.041,0.084-0.083,0.125-0.125c0.042-0.041,0.084-0.083,0.125-0.125
		c0.042-0.041,0.084-0.083,0.125-0.125c0.042-0.041,0.084-0.083,0.125-0.125c0.042-0.041,0.084-0.083,0.125-0.125
		c0.042-0.041,0.084-0.083,0.125-0.125c0.04-0.039,0.08-0.079,0.12-0.119c0.044-0.043,0.087-0.087,0.13-0.13
		c0.041-0.041,0.083-0.082,0.123-0.123c0.043-0.042,0.085-0.085,0.128-0.127c0.041-0.041,0.082-0.083,0.124-0.124
		c0.042-0.042,0.084-0.084,0.126-0.126c0.041-0.042,0.083-0.083,0.125-0.125c0.041-0.042,0.083-0.083,0.125-0.125
		c0.041-0.042,0.083-0.083,0.125-0.125c0.041-0.042,0.083-0.083,0.125-0.125c0.041-0.042,0.083-0.083,0.125-0.125
		c0.041-0.042,0.083-0.083,0.125-0.125c0.041-0.042,0.083-0.083,0.125-0.125c0.041-0.042,0.083-0.083,0.125-0.125
		c0.041-0.042,0.083-0.083,0.125-0.125c0.041-0.042,0.083-0.083,0.125-0.125c0.041-0.042,0.083-0.083,0.125-0.125
		c0.041-0.042,0.083-0.083,0.125-0.125c0.041-0.042,0.083-0.083,0.125-0.125c0.041-0.042,0.083-0.083,0.125-0.125
		c0.041-0.042,0.083-0.083,0.125-0.125c0.041-0.042,0.083-0.083,0.125-0.125c0.041-0.042,0.083-0.083,0.125-0.125
		c0.041-0.042,0.083-0.083,0.125-0.125c0.041-0.042,0.083-0.083,0.125-0.125c0.041-0.042,0.083-0.083,0.125-0.125
		c0.041-0.042,0.083-0.083,0.125-0.125c0.041-0.041,0.082-0.082,0.123-0.124c0.043-0.042,0.085-0.084,0.127-0.126
		c0.04-0.04,0.08-0.08,0.121-0.121c0.043-0.043,0.086-0.086,0.129-0.129c0.04-0.04,0.08-0.079,0.12-0.119
		c0.043-0.044,0.087-0.087,0.13-0.131c0.042-0.041,0.084-0.083,0.125-0.125c0.042-0.041,0.084-0.083,0.125-0.125
		c0.042-0.041,0.084-0.083,0.125-0.125c0.042-0.041,0.084-0.083,0.125-0.125c0.042-0.041,0.084-0.083,0.125-0.125
		c0.042-0.041,0.084-0.083,0.125-0.125c0.042-0.041,0.084-0.083,0.125-0.125c0.042-0.041,0.084-0.083,0.125-0.125
		c0.042-0.041,0.084-0.083,0.125-0.125c0.042-0.041,0.084-0.083,0.125-0.125c0.041-0.04,0.081-0.08,0.121-0.121
		c0.043-0.042,0.086-0.085,0.129-0.128c0.042-0.042,0.084-0.084,0.126-0.126c0.041-0.041,0.083-0.083,0.125-0.125
		c0.041-0.041,0.083-0.083,0.125-0.125c0.041-0.041,0.083-0.083,0.125-0.125c0.041-0.041,0.083-0.083,0.125-0.125
		c0.041-0.041,0.083-0.083,0.125-0.125c0.041-0.041,0.083-0.083,0.125-0.125c0.041-0.041,0.083-0.083,0.125-0.125
		c0.041-0.041,0.083-0.083,0.125-0.125c0.041-0.041,0.083-0.083,0.125-0.125c0.041-0.041,0.083-0.083,0.125-0.125
		c0.041-0.041,0.083-0.083,0.125-0.125c0.041-0.041,0.083-0.083,0.125-0.125c0.041-0.041,0.083-0.083,0.125-0.125
		c0.041-0.041,0.083-0.083,0.125-0.125c0.041-0.041,0.083-0.083,0.125-0.125c0.041-0.041,0.083-0.083,0.125-0.125
		c0.041-0.041,0.083-0.083,0.125-0.125c0.041-0.041,0.083-0.083,0.125-0.125c0.041-0.041,0.083-0.083,0.125-0.125
		c0.041-0.041,0.083-0.083,0.125-0.125c0.041-0.041,0.083-0.083,0.125-0.125c0.041-0.041,0.083-0.083,0.125-0.125
		c0.041-0.041,0.083-0.083,0.125-0.125c0.041-0.041,0.083-0.083,0.125-0.125c0.041-0.041,0.083-0.083,0.125-0.125
		c0.041-0.041,0.083-0.083,0.125-0.125c0.041-0.041,0.083-0.083,0.125-0.125c0.041-0.041,0.083-0.083,0.125-0.125
		c0.041-0.041,0.083-0.083,0.125-0.125c0.041-0.041,0.083-0.083,0.125-0.125c0.041-0.041,0.083-0.083,0.125-0.125
		c0.041-0.041,0.083-0.083,0.125-0.125c0.041-0.041,0.083-0.083,0.125-0.125c0.041-0.041,0.083-0.083,0.125-0.125
		c0.041-0.041,0.083-0.083,0.125-0.125c0.04-0.039,0.079-0.079,0.119-0.119c0.044-0.043,0.087-0.087,0.13-0.13
		c0.042-0.042,0.084-0.083,0.125-0.125c0.042-0.042,0.084-0.083,0.125-0.125c0.042-0.042,0.084-0.083,0.125-0.125
		c0.042-0.041,0.084-0.083,0.125-0.124c0.042-0.042,0.084-0.084,0.126-0.126c0.041-0.042,0.083-0.083,0.125-0.125
		c0.041-0.042,0.083-0.083,0.125-0.125c0.041-0.042,0.083-0.083,0.125-0.125c0.041-0.042,0.083-0.083,0.125-0.125
		c0.041-0.042,0.083-0.083,0.125-0.125c0.041-0.042,0.083-0.083,0.125-0.125c0.041-0.042,0.083-0.083,0.125-0.125
		c0.041-0.042,0.083-0.083,0.125-0.125c0.041-0.042,0.083-0.083,0.125-0.125c0.041-0.042,0.083-0.083,0.125-0.125
		c0.041-0.042,0.083-0.083,0.125-0.125c0.041-0.042,0.083-0.083,0.125-0.125c0.041-0.042,0.083-0.083,0.125-0.125
		c0.041-0.042,0.083-0.083,0.125-0.125c0.041-0.042,0.083-0.083,0.125-0.125c0.041-0.042,0.083-0.083,0.125-0.125
		c0.041-0.042,0.083-0.083,0.125-0.125c0.041-0.042,0.083-0.083,0.125-0.125c0.041-0.042,0.083-0.083,0.125-0.125
		c0.041-0.042,0.083-0.083,0.125-0.125c0.041-0.042,0.083-0.083,0.125-0.125c0.041-0.041,0.082-0.082,0.123-0.124
		c0.042-0.042,0.085-0.084,0.127-0.126c0.04-0.04,0.08-0.08,0.121-0.121c0.043-0.043,0.086-0.086,0.129-0.129
		c0.041-0.041,0.083-0.083,0.125-0.125c0.041-0.041,0.083-0.083,0.125-0.125c0.041-0.041,0.083-0.083,0.125-0.125
		c0.041-0.041,0.083-0.083,0.125-0.125c0.041-0.041,0.083-0.083,0.125-0.125c0.041-0.041,0.083-0.083,0.125-0.125
		c0.041-0.041,0.083-0.083,0.125-0.125c0.041-0.041,0.083-0.083,0.125-0.125c0.042-0.041,0.083-0.083,0.125-0.125
		s0.083-0.083,0.125-0.125c0.041-0.041,0.083-0.083,0.125-0.125c0.041-0.041,0.083-0.083,0.125-0.125
		c0.041-0.041,0.083-0.083,0.125-0.125c0.041-0.041,0.083-0.082,0.124-0.124c0.042-0.042,0.084-0.084,0.126-0.126
		c0.041-0.041,0.083-0.083,0.125-0.125c0.041-0.041,0.083-0.082,0.124-0.124c0.042-0.042,0.084-0.084,0.126-0.126
		c0.041-0.041,0.083-0.083,0.125-0.125c0.041-0.041,0.083-0.083,0.125-0.125c0.041-0.041,0.083-0.083,0.125-0.125
		c0.041-0.041,0.083-0.083,0.125-0.125c0.041-0.041,0.083-0.083,0.125-0.125c0.041-0.041,0.083-0.083,0.125-0.125
		c0.041-0.041,0.083-0.083,0.125-0.125c0.041-0.041,0.083-0.083,0.125-0.125c0.041-0.041,0.083-0.083,0.125-0.125
		c0.041-0.041,0.083-0.083,0.125-0.125c0.041-0.041,0.083-0.083,0.125-0.125c0.041-0.041,0.083-0.083,0.125-0.125
		c0.041-0.041,0.083-0.083,0.125-0.125c0.041-0.041,0.083-0.083,0.125-0.125c0.041-0.041,0.083-0.083,0.125-0.125
		c0.041-0.041,0.083-0.083,0.125-0.125c0.041-0.041,0.083-0.083,0.125-0.125c0.041-0.041,0.083-0.083,0.125-0.125
		c0.041-0.041,0.083-0.083,0.125-0.125c0.041-0.041,0.083-0.083,0.125-0.125c0.041-0.041,0.083-0.083,0.125-0.125
		c0.041-0.041,0.083-0.083,0.125-0.125c0.041-0.041,0.083-0.083,0.125-0.125c0.04-0.039,0.08-0.079,0.12-0.119
		c0.043-0.044,0.087-0.087,0.13-0.131c0.042-0.041,0.084-0.083,0.125-0.125c0.042-0.041,0.084-0.083,0.125-0.125
		c0.042-0.041,0.084-0.083,0.125-0.125c0.042-0.041,0.084-0.083,0.125-0.125c0.042-0.041,0.084-0.083,0.125-0.125
		c0.042-0.041,0.084-0.083,0.125-0.125c0.042-0.041,0.084-0.083,0.125-0.125c0.042-0.041,0.084-0.083,0.125-0.125
		c0.04-0.039,0.08-0.079,0.12-0.119c0.042-0.042,0.084-0.084,0.126-0.126c0.044-0.043,0.087-0.086,0.13-0.129
		C97.206,79.154,101.431,69.755,101.431,59.369z"/>
</g>
<g>
	<path fill="#FFFFFF" d="M78,58.62c0-0.345-0.279-0.62-0.625-0.62h-36.75C40.28,58,40,58.274,40,58.62v7.75
		C40,66.713,40.28,67,40.625,67h36.75C77.721,67,78,66.713,78,66.369V58.62z"/>
	<path fill="#FFFFFF" d="M83,58.62c0-0.345-0.279-0.62-0.625-0.62h-1.75C80.279,58,80,58.274,80,58.62v7.75
		C80,66.713,80.279,67,80.625,67h1.75C82.721,67,83,66.713,83,66.369V58.62z"/>
	<path fill="#FFFFFF" d="M88,58.62c0-0.345-0.279-0.62-0.625-0.62h-1.75C85.279,58,85,58.274,85,58.62v7.75
		C85,66.713,85.279,67,85.625,67h1.75C87.721,67,88,66.713,88,66.369V58.62z"/>
	<path fill="#FFFFFF" d="M77.877,43.683c-3.66,0-5.012-1.729-5.012-5.812c-4.791,4.75-2.36,10.249,3.875,10.249
		c6.47,0,6.043,2.875,6.043,5.874C89.273,46.839,82.116,43.683,77.877,43.683z"/>
	<path fill="#FFFFFF" d="M63.927,21.873c-20.712,0-37.503,16.787-37.503,37.496s16.791,37.497,37.503,37.497
		c20.713,0,37.504-16.788,37.504-37.497S84.64,21.873,63.927,21.873z M85.143,80.58c-5.667,5.666-13.201,8.786-21.216,8.786
		c-8.014,0-15.548-3.12-21.215-8.786c-5.667-5.665-8.788-13.198-8.788-21.211c0-8.012,3.121-15.545,8.788-21.21
		c5.667-5.666,13.201-8.787,21.215-8.787c8.015,0,15.549,3.121,21.216,8.787c5.666,5.665,8.787,13.198,8.787,21.21
		C93.93,67.382,90.809,74.915,85.143,80.58z"/>
</g>
</svg>
