<?xml version="1.0" encoding="utf-8"?>
<!-- Generator: Adobe Illustrator 16.0.0, SVG Export Plug-In . SVG Version: 6.00 Build 0)  -->
<!DOCTYPE svg PUBLIC "-//W3C//DTD SVG 1.1//EN" "http://www.w3.org/Graphics/SVG/1.1/DTD/svg11.dtd">
<svg version="1.1" id="Layer_1" xmlns="http://www.w3.org/2000/svg" xmlns:xlink="http://www.w3.org/1999/xlink" x="0px" y="0px"
	 width="512px" height="512px" viewBox="0 0 512 512" enable-background="new 0 0 512 512" xml:space="preserve">
<g id="BK_1_">
	<path fill="#008ACE" d="M512,100C512,44.771,467.229,0,412,0H100C44.771,0,0,44.771,0,100v312c0,55.229,44.771,100,100,100h312
		c55.229,0,100-44.771,100-100V100z"/>
	<g>
		<defs>
			<path id="SVGID_1_" d="M512,99.948C512,44.748,467.061,0,411.853,0H99.964C44.755,0,0,44.748,0,99.948v311.837
				C0,466.984,44.755,512,99.964,512h311.888C467.061,512,512,466.984,512,411.785V99.948z"/>
		</defs>
		<clipPath id="SVGID_2_">
			<use xlink:href="#SVGID_1_"  overflow="visible"/>
		</clipPath>
		<path opacity="0.3" clip-path="url(#SVGID_2_)" fill="#444953" d="M375.526,255.921c-8.886-11.598-21.25-20.118-37.063-25.575
			c0.116-0.116,0.229-0.236,0.346-0.353c0.168-0.165,0.334-0.333,0.5-0.5c0.168-0.165,0.334-0.333,0.5-0.5
			c0.168-0.165,0.334-0.333,0.5-0.5c0.168-0.165,0.334-0.333,0.5-0.5c0.168-0.165,0.334-0.333,0.5-0.5
			c0.168-0.165,0.334-0.333,0.5-0.5c0.168-0.165,0.334-0.333,0.5-0.5c0.168-0.165,0.334-0.333,0.5-0.5
			c0.168-0.165,0.334-0.333,0.5-0.5c0.168-0.165,0.334-0.333,0.5-0.5c0.168-0.165,0.334-0.333,0.5-0.5
			c0.168-0.165,0.334-0.333,0.5-0.5c0.168-0.165,0.334-0.333,0.5-0.5c0.168-0.165,0.334-0.333,0.5-0.5
			c0.168-0.165,0.334-0.333,0.5-0.5c0.168-0.165,0.334-0.333,0.5-0.5c0.168-0.165,0.334-0.333,0.5-0.5
			c0.168-0.165,0.334-0.333,0.5-0.5c0.168-0.165,0.334-0.333,0.5-0.5c0.168-0.165,0.334-0.333,0.5-0.5
			c0.168-0.165,0.334-0.333,0.5-0.5c0.168-0.165,0.334-0.333,0.5-0.5c0.168-0.165,0.334-0.333,0.5-0.5
			c0.168-0.165,0.334-0.333,0.5-0.5c0.168-0.165,0.334-0.333,0.5-0.5c0.168-0.165,0.334-0.333,0.5-0.5
			c0.168-0.165,0.334-0.333,0.5-0.5c0.168-0.165,0.334-0.333,0.5-0.5c0.168-0.165,0.334-0.333,0.5-0.5
			c0.168-0.165,0.334-0.333,0.5-0.5c0.168-0.165,0.334-0.333,0.5-0.5c3.68-3.626,6.97-7.677,9.862-12.16
			c7.57-11.725,11.354-24.61,11.354-38.655c0-12.953-3.07-24.646-9.206-35.078c-6.138-10.432-13.808-18.781-23.013-25.055
			c-9.206-6.27-19.638-10.5-31.299-12.478C300.349,89.094,282.654,88,258.924,88H139v1l0,0l0,0h-1v1l0,0l0,0h-1v1l0,0l0,0h-1v1l0,0
			l0,0h-1v1l0,0l0,0h-1v1l0,0l0,0h-1v1l0,0l0,0h-1v1l0,0l0,0h-1v1l0,0l0,0h-1v1l0,0l0,0h-1v1l0,0l0,0h-1v1l0,0l0,0h-1v1l0,0l0,0h-1
			v1l0,0l0,0h-1v1l0,0l0,0h-1v1l0,0l0,0h-1v1l0,0l0,0h-1v1l0,0l0,0h-1v1l0,0l0,0h-1v1l0,0l0,0h-1v1l0,0l0,0h-1v1l0,0l0,0h-1v1l0,0
			l0,0h-1v1l0,0l0,0h-1v1l0,0l0,0h-1v1l0,0l0,0h-1v1l0,0l0,0h-1v1l0,0l0,0h-1v1l0,0l0,0h-1v1l0,0l0,0h-1v1l0,0l0,0h-1v1l0,0l0,0h-1
			v1l0,0l0,0h-1v1l0,0l0,0h-1v1l0,0l0,0h-1v1l0,0l0,0h-1v1l0,0l0,0h-1v1l0,0l0,0h-1v1l0,0l0,0h-1v1l0,0l0,0h-1v1l0,0l0,0h-1v1l0,0
			l0,0h-1v1l0,0l0,0h-1v1l0,0l0,0h-1v1l0,0l0,0h-1v1l0,0l0,0h-1v1l0,0l0,0h-1v1l0,0l0,0h-1v1l0,0l0,0h-1v1l0,0l0,0h-1v1l0,0l0,0h-1
			v1l0,0l0,0h-1v1l0,0l0,0h-1v1l0,0l0,0h-1v1l0,0l0,0h-1v1l0,0l0,0h-1v1l0,0l0,0h-1v1l0,0l0,0h-1v1l0,0l0,0h-1v1l0,0l0,0h-1v1l0,0
			l0,0h-1v1l0,0l0,0h-1v1l0,0l0,0h-1v1l0,0l0,0h-1v1l0,0l0,0h-1v1l0,0l0,0h-1v1l0,0l0,0h-1v1l0,0l0,0h-1v1l0,0l0,0h-1v1l0,0l0,0h-1
			v1l0,0l0,0h-1v1l0,0l0,0h-1v1l0,0l0,0h-1v1l0,0l0,0h-1v1l0,0l0,0h-1v1l0,0l0,0h-1v1l0,0l0,0h-1v1l0,0l0,0h-1v1l0,0l0,0h-1v1l0,0
			l0,0h-1v1l0,0l0,0h-1v1l0,0l0,0h-1v1l0,0l0,0h-1v1l0,0l0,0h-1v1l0,0l0,0h-1v1l0,0l0,0h-1v1l0,0l0,0h-1v1l0,0l0,0h-1v1l0,0l0,0h-1
			v1l0,0l0,0h-1v1l0,0l0,0h-1v1l0,0l0,0h-1v1l0,0l0,0h-1v1l0,0l0,0h-1v1l0,0l0,0h-1v1l0,0l0,0h-1v1l0,0l0,0h-1v1l0,0l0,0h-1v1l0,0
			l0,0h-1v1l0,0l0,0h-1v1l0,0l0,0h-1v1l0,0l0,0h-1v1l0,0l0,0h-1v1l0,0l0,0h-1v1l0,0l0,0h-1v1l0,0l0,0h-1v1l0,0l0,0h-1v1l0,0l0,0h-1
			v1l0,0l0,0h-1v1l0,0l0,0h-1v1l0,0l0,0h-1v1l0,0l0,0h-1v1l0,0l0,0h-1v1l0,0l0,0h-1v1l0,0l0,0h-1v1l0,0l0,0h-1v1l0,0l0,0h-1v1l0,0
			l0,0h-1v1l0,0l0,0h-1v1l0,0l0,0h-1v1l0,0l0,0h-1v1l0,0l0,0h-1v1l0,0l0,0h-1v1l0,0l0,0h-1v1l0,0l0,0h-1v1l0,0l0,0h-1v1l0,0l0,0h-1
			v1l0,0l0,0h-1v1l0,0l0,0h-1v1l0,0l0,0H9v1l0,0l0,0H8v1l0,0l0,0H7v1l0,0l0,0H6v1l0,0l0,0H5v1l0,0l0,0H4v1l0,0l0,0H3v1l0,0l0,0H2v1
			l0,0l0,0H1v1l0,0l0,0H0v1l0,0l0,0h-1v1l0,0l0,0h-1v1l0,0l0,0h-1v1l0,0l0,0h-1v1l0,0l0,0h-1v1l0,0l0,0h-1v1l0,0l0,0h-1v1l0,0l0,0
			h-1v1l0,0l0,0h-1v1l0,0l0,0h-1v1l0,0l0,0h-1v1l0,0l0,0h-1v1l0,0l0,0h-1v1l0,0l0,0h-1v1l0,0l0,0h-1v1l0,0l0,0h-1v1l0,0l0,0h-1v1
			l0,0l0,0h-1v1l0,0l0,0h-1v1l0,0l0,0h-1v1l0,0l0,0h-1v1l0,0l0,0h-1v1l0,0l0,0h-1v1l0,0l0,0h-1v1l0,0l0,0h-1v1l0,0l0,0h-1v1l0,0l0,0
			h-1v1l0,0l0,0h-1v1l0,0l0,0h-1v1l0,0l0,0h-1v1l0,0l0,0h-1v1l0,0l0,0h-1v1l0,0l0,0h-1v1l0,0l0,0h-1v1l0,0l0,0h-1v1l0,0l0,0h-1v1
			l0,0l0,0h-1v1l0,0l0,0h-1v1l0,0l0,0h-1v1l0,0l0,0h-1v1l0,0l0,0h-1v1l0,0l0,0h-1v1l0,0l0,0h-1v1l0,0l0,0h-1v1l0,0l0,0h-1v1l0,0l0,0
			h-1v1l0,0l0,0h-1v1l0,0l0,0h-1v1l0,0l0,0h-1v1l0,0l0,0h-1v1l0,0l0,0h-1v1l0,0l0,0h-1v1l0,0l0,0h-1v1l0,0l0,0h-1v1l0,0l0,0h-1v1
			l0,0l0,0h-1v1l0,0l0,0h-1v1l0,0l0,0h-1v1l0,0l0,0h-1v1l0,0l0,0h-1v1l0,0l0,0h-1v1l0,0l0,0h-1v1l0,0l0,0h-1v1l0,0l0,0h-1v1l0,0l0,0
			h-1v1l0,0l0,0h-1v1l0,0l0,0h-1v1l0,0l0,0h-1v1l0,0l0,0h-1v1l0,0l0,0h-1v1l0,0l0,0h-1v300H31.127
			c38.591,0,62.935-0.928,73.03-2.021c16.091-1.771,29.627-6.498,40.605-14.203c3.592-2.52,6.931-5.317,10.027-8.394
			c0.168-0.165,0.333-0.331,0.5-0.497c0.168-0.165,0.333-0.333,0.5-0.499c0.168-0.165,0.333-0.333,0.5-0.499
			c0.168-0.165,0.333-0.333,0.5-0.499c0.168-0.165,0.333-0.334,0.5-0.5c0.168-0.165,0.333-0.334,0.5-0.5
			c0.168-0.165,0.333-0.334,0.5-0.5c0.168-0.165,0.333-0.334,0.5-0.5c0.168-0.165,0.333-0.334,0.5-0.5
			c0.168-0.165,0.333-0.334,0.5-0.5c0.168-0.165,0.333-0.334,0.5-0.5c0.168-0.165,0.333-0.334,0.5-0.5
			c0.168-0.165,0.333-0.334,0.5-0.5c0.168-0.165,0.333-0.334,0.5-0.5c0.168-0.165,0.333-0.334,0.5-0.5
			c0.168-0.165,0.333-0.334,0.5-0.5c0.168-0.165,0.333-0.334,0.5-0.5c0.168-0.165,0.333-0.334,0.5-0.5
			c0.168-0.165,0.333-0.334,0.5-0.5c0.168-0.165,0.333-0.334,0.5-0.5c0.168-0.165,0.333-0.334,0.5-0.5
			c0.168-0.165,0.333-0.334,0.5-0.5c0.168-0.165,0.333-0.334,0.5-0.5c0.168-0.165,0.333-0.334,0.5-0.5
			c0.168-0.165,0.333-0.334,0.5-0.5c0.168-0.165,0.333-0.334,0.5-0.5c0.168-0.165,0.333-0.334,0.5-0.5
			c0.168-0.165,0.333-0.334,0.5-0.5c0.168-0.165,0.333-0.334,0.5-0.5c0.168-0.165,0.333-0.334,0.5-0.5
			c0.168-0.165,0.333-0.334,0.5-0.5c0.168-0.165,0.333-0.334,0.5-0.5c0.168-0.165,0.333-0.334,0.5-0.5
			c0.168-0.165,0.333-0.334,0.5-0.5c0.168-0.165,0.333-0.334,0.5-0.5c0.168-0.165,0.333-0.334,0.5-0.5
			c0.168-0.165,0.333-0.334,0.5-0.5c0.168-0.165,0.333-0.334,0.5-0.5c0.168-0.165,0.333-0.334,0.5-0.5
			c0.168-0.165,0.333-0.334,0.5-0.5c0.168-0.165,0.333-0.334,0.5-0.5c0.168-0.165,0.333-0.334,0.5-0.5
			c0.168-0.165,0.333-0.334,0.5-0.5c0.168-0.165,0.333-0.334,0.5-0.5c0.168-0.165,0.333-0.334,0.5-0.5
			c0.168-0.165,0.333-0.334,0.5-0.5c0.168-0.165,0.333-0.334,0.5-0.5c0.168-0.165,0.333-0.334,0.5-0.5
			c0.168-0.165,0.333-0.334,0.5-0.5c0.168-0.165,0.333-0.334,0.5-0.5c0.168-0.165,0.333-0.334,0.5-0.5
			c0.168-0.165,0.333-0.334,0.5-0.5c0.168-0.165,0.333-0.334,0.5-0.5c0.168-0.165,0.333-0.334,0.5-0.5
			c0.168-0.165,0.333-0.334,0.5-0.5c0.168-0.165,0.333-0.334,0.5-0.5c0.168-0.165,0.333-0.334,0.5-0.5
			c0.168-0.165,0.333-0.334,0.5-0.5c0.168-0.165,0.333-0.334,0.5-0.5c0.168-0.165,0.333-0.334,0.5-0.5
			c0.168-0.165,0.333-0.334,0.5-0.5c0.168-0.165,0.333-0.334,0.5-0.5c0.168-0.165,0.333-0.334,0.5-0.5
			c0.168-0.165,0.333-0.334,0.5-0.5c0.168-0.165,0.333-0.334,0.5-0.5c0.168-0.165,0.333-0.334,0.5-0.5
			c0.168-0.165,0.333-0.334,0.5-0.5c0.168-0.165,0.333-0.334,0.5-0.5c0.168-0.165,0.333-0.334,0.5-0.5
			c0.168-0.165,0.333-0.334,0.5-0.5c0.168-0.165,0.333-0.334,0.5-0.5c0.168-0.165,0.333-0.334,0.5-0.5
			c0.168-0.165,0.333-0.334,0.5-0.5c0.168-0.165,0.333-0.334,0.5-0.5c0.168-0.165,0.333-0.334,0.5-0.5
			c0.168-0.165,0.333-0.334,0.5-0.5c0.168-0.165,0.333-0.334,0.5-0.5c0.168-0.165,0.333-0.334,0.5-0.5
			c0.168-0.165,0.333-0.334,0.5-0.5c0.168-0.165,0.333-0.334,0.5-0.5c0.168-0.165,0.333-0.334,0.5-0.5
			c0.168-0.165,0.333-0.334,0.5-0.5c0.168-0.165,0.333-0.334,0.5-0.5c0.168-0.165,0.333-0.334,0.5-0.5
			c0.168-0.165,0.333-0.334,0.5-0.5c0.168-0.165,0.333-0.334,0.5-0.5c0.168-0.165,0.333-0.334,0.5-0.5
			c0.168-0.165,0.333-0.334,0.5-0.5c0.168-0.165,0.333-0.334,0.5-0.5c0.168-0.165,0.333-0.334,0.5-0.5
			c0.168-0.165,0.333-0.334,0.5-0.5c0.168-0.165,0.333-0.334,0.5-0.5c0.168-0.165,0.333-0.334,0.5-0.5
			c0.168-0.165,0.333-0.334,0.5-0.5c0.168-0.165,0.333-0.334,0.5-0.5c0.168-0.165,0.333-0.334,0.5-0.5
			c0.168-0.165,0.333-0.334,0.5-0.5c0.168-0.165,0.333-0.334,0.5-0.5c0.168-0.165,0.333-0.334,0.5-0.5
			c0.168-0.165,0.333-0.334,0.5-0.5c0.168-0.165,0.333-0.334,0.5-0.5c0.168-0.165,0.333-0.334,0.5-0.5
			c0.168-0.165,0.333-0.334,0.5-0.5c0.168-0.165,0.333-0.334,0.5-0.5c0.168-0.165,0.333-0.334,0.5-0.5
			c0.168-0.165,0.333-0.334,0.5-0.5c0.168-0.165,0.333-0.334,0.5-0.5c0.168-0.165,0.333-0.334,0.5-0.5
			c0.168-0.165,0.333-0.334,0.5-0.5c0.168-0.165,0.333-0.334,0.5-0.5c0.168-0.165,0.333-0.334,0.5-0.5
			c0.168-0.165,0.333-0.334,0.5-0.5c0.168-0.165,0.333-0.334,0.5-0.5c0.168-0.165,0.333-0.334,0.5-0.5
			c0.168-0.165,0.333-0.334,0.5-0.5c0.168-0.165,0.333-0.334,0.5-0.5c0.168-0.165,0.333-0.334,0.5-0.5
			c0.168-0.165,0.333-0.334,0.5-0.5c0.168-0.165,0.333-0.334,0.5-0.5c0.168-0.165,0.333-0.334,0.5-0.5
			c0.168-0.165,0.333-0.334,0.5-0.5c0.168-0.165,0.333-0.334,0.5-0.5c0.168-0.165,0.333-0.334,0.5-0.5
			c0.168-0.165,0.333-0.334,0.5-0.5c0.168-0.165,0.333-0.334,0.5-0.5c0.168-0.165,0.333-0.334,0.5-0.5
			c0.168-0.165,0.333-0.334,0.5-0.5c0.168-0.165,0.333-0.334,0.5-0.5c0.168-0.165,0.333-0.334,0.5-0.5
			c0.168-0.165,0.333-0.334,0.5-0.5c0.168-0.165,0.333-0.334,0.5-0.5c0.168-0.165,0.333-0.334,0.5-0.5
			c0.168-0.165,0.333-0.334,0.5-0.5c0.168-0.165,0.333-0.334,0.5-0.5c0.168-0.165,0.333-0.334,0.5-0.5
			c0.168-0.165,0.333-0.334,0.5-0.5c0.168-0.165,0.333-0.334,0.5-0.5c0.168-0.165,0.333-0.334,0.5-0.5
			c0.168-0.165,0.333-0.334,0.5-0.5c0.168-0.165,0.333-0.334,0.5-0.5c0.168-0.165,0.333-0.334,0.5-0.5
			c0.168-0.165,0.333-0.334,0.5-0.5c0.168-0.165,0.333-0.334,0.5-0.5c0.168-0.165,0.333-0.334,0.5-0.5
			c0.168-0.165,0.333-0.334,0.5-0.5c0.168-0.165,0.333-0.334,0.5-0.5c0.168-0.165,0.333-0.334,0.5-0.5
			c0.168-0.165,0.333-0.334,0.5-0.5c0.168-0.165,0.333-0.334,0.5-0.5c0.168-0.165,0.333-0.334,0.5-0.5
			c0.168-0.165,0.333-0.334,0.5-0.5c0.168-0.165,0.333-0.334,0.5-0.5c0.168-0.165,0.333-0.334,0.5-0.5
			c0.168-0.165,0.333-0.334,0.5-0.5c0.168-0.165,0.333-0.334,0.5-0.5c0.168-0.165,0.333-0.334,0.5-0.5
			c0.168-0.165,0.333-0.334,0.5-0.5c0.168-0.165,0.333-0.334,0.5-0.5c0.168-0.165,0.333-0.334,0.5-0.5
			c0.168-0.165,0.333-0.334,0.5-0.5c0.168-0.165,0.333-0.334,0.5-0.5c0.168-0.165,0.333-0.334,0.5-0.5
			c0.168-0.165,0.333-0.334,0.5-0.5c0.168-0.165,0.333-0.334,0.5-0.5c0.168-0.165,0.333-0.334,0.5-0.5
			c0.168-0.165,0.333-0.334,0.5-0.5c0.168-0.165,0.333-0.334,0.5-0.5c0.168-0.165,0.333-0.334,0.5-0.5
			c0.168-0.165,0.333-0.334,0.5-0.5c0.168-0.165,0.333-0.334,0.5-0.5c0.168-0.165,0.333-0.334,0.5-0.5
			c0.168-0.165,0.333-0.334,0.5-0.5c0.168-0.165,0.333-0.334,0.5-0.5c0.168-0.165,0.333-0.334,0.5-0.5
			c0.168-0.165,0.333-0.334,0.5-0.5c0.168-0.165,0.333-0.334,0.5-0.5c0.168-0.165,0.333-0.334,0.5-0.5
			c0.168-0.165,0.333-0.334,0.5-0.5c0.168-0.165,0.333-0.334,0.5-0.5c0.168-0.165,0.333-0.334,0.5-0.5
			c0.168-0.165,0.333-0.334,0.5-0.5c0.168-0.165,0.333-0.334,0.5-0.5c0.168-0.165,0.333-0.334,0.5-0.5
			c0.168-0.165,0.333-0.334,0.5-0.5c0.168-0.165,0.333-0.334,0.5-0.5c0.168-0.165,0.333-0.334,0.5-0.5
			c0.168-0.165,0.333-0.334,0.5-0.5c0.168-0.165,0.333-0.334,0.5-0.5c0.168-0.165,0.333-0.334,0.5-0.5
			c0.168-0.165,0.333-0.334,0.5-0.5c0.168-0.165,0.333-0.334,0.5-0.5c0.168-0.165,0.333-0.334,0.5-0.5
			c0.168-0.165,0.333-0.334,0.5-0.5c0.169-0.165,0.333-0.334,0.5-0.5c0.169-0.165,0.333-0.334,0.5-0.5
			c0.169-0.165,0.333-0.334,0.5-0.5c0.169-0.165,0.333-0.334,0.5-0.5c0.169-0.165,0.333-0.334,0.5-0.5
			c0.169-0.165,0.333-0.334,0.5-0.5c0.169-0.165,0.333-0.334,0.5-0.5c0.169-0.165,0.333-0.334,0.5-0.5
			c0.169-0.165,0.333-0.334,0.5-0.5c0.169-0.165,0.333-0.334,0.5-0.5c0.169-0.165,0.333-0.334,0.5-0.5
			c0.169-0.165,0.333-0.334,0.5-0.5c0.169-0.165,0.333-0.334,0.5-0.5c0.169-0.165,0.333-0.334,0.5-0.5
			c0.169-0.165,0.333-0.334,0.5-0.5c0.169-0.165,0.333-0.334,0.5-0.5c0.169-0.165,0.333-0.334,0.5-0.5
			c0.169-0.165,0.333-0.334,0.5-0.5c0.169-0.165,0.333-0.334,0.5-0.5c0.169-0.165,0.333-0.334,0.5-0.5
			c0.169-0.165,0.333-0.334,0.5-0.5c0.169-0.165,0.333-0.334,0.5-0.5c0.169-0.165,0.333-0.334,0.5-0.5
			c0.169-0.165,0.333-0.334,0.5-0.5c0.169-0.165,0.333-0.334,0.5-0.5c0.169-0.165,0.333-0.334,0.5-0.5
			c0.169-0.165,0.333-0.334,0.5-0.5c0.169-0.165,0.333-0.334,0.5-0.5c0.169-0.165,0.333-0.334,0.5-0.5
			c0.169-0.165,0.333-0.334,0.5-0.5c0.169-0.165,0.333-0.334,0.5-0.5c0.169-0.165,0.333-0.334,0.5-0.5
			c0.169-0.165,0.333-0.334,0.5-0.5c0.169-0.165,0.333-0.334,0.5-0.5c0.169-0.165,0.333-0.334,0.5-0.5
			c0.169-0.165,0.333-0.334,0.5-0.5c0.169-0.165,0.333-0.334,0.5-0.5c0.169-0.165,0.333-0.334,0.5-0.5
			c0.169-0.165,0.333-0.334,0.5-0.5c0.169-0.165,0.333-0.334,0.5-0.5c0.169-0.165,0.333-0.334,0.5-0.5
			c0.169-0.165,0.333-0.334,0.5-0.5c0.169-0.165,0.333-0.334,0.5-0.5c0.169-0.165,0.333-0.334,0.5-0.5
			c0.169-0.165,0.333-0.334,0.5-0.5c0.169-0.165,0.333-0.334,0.5-0.5c0.169-0.165,0.333-0.334,0.5-0.5
			c0.169-0.165,0.333-0.334,0.5-0.5c0.169-0.165,0.333-0.334,0.5-0.5c0.169-0.165,0.333-0.334,0.5-0.5
			c0.169-0.165,0.333-0.334,0.5-0.5c0.169-0.165,0.333-0.334,0.5-0.5c0.169-0.165,0.333-0.334,0.5-0.5
			c0.169-0.165,0.333-0.334,0.5-0.5c0.169-0.165,0.333-0.334,0.5-0.5c0.169-0.165,0.333-0.334,0.5-0.5
			c0.169-0.165,0.333-0.334,0.5-0.5c0.169-0.165,0.333-0.334,0.5-0.5c0.169-0.165,0.333-0.334,0.5-0.5
			c0.169-0.165,0.333-0.334,0.5-0.5c0.169-0.165,0.333-0.334,0.5-0.5c0.169-0.165,0.333-0.334,0.5-0.5
			c0.169-0.165,0.333-0.334,0.5-0.5c0.169-0.165,0.333-0.334,0.5-0.5c0.169-0.165,0.333-0.334,0.5-0.5
			c0.169-0.165,0.333-0.334,0.5-0.5c0.169-0.165,0.333-0.334,0.5-0.5c0.169-0.165,0.333-0.334,0.5-0.5
			c0.169-0.165,0.333-0.334,0.5-0.5c0.169-0.165,0.333-0.334,0.5-0.5c0.169-0.165,0.333-0.334,0.5-0.5
			c0.169-0.165,0.333-0.334,0.5-0.5c0.169-0.165,0.333-0.334,0.5-0.5c0.169-0.165,0.333-0.334,0.5-0.5
			c0.169-0.165,0.333-0.334,0.5-0.5c0.169-0.165,0.333-0.334,0.5-0.5c0.169-0.165,0.333-0.334,0.5-0.5
			c0.169-0.165,0.333-0.334,0.5-0.5c0.169-0.165,0.333-0.334,0.5-0.5c0.169-0.165,0.333-0.334,0.5-0.5
			c0.169-0.165,0.333-0.334,0.5-0.5c0.169-0.165,0.333-0.334,0.5-0.5c0.169-0.165,0.333-0.334,0.5-0.5
			c0.169-0.165,0.333-0.334,0.5-0.5c0.169-0.165,0.333-0.334,0.5-0.5c0.169-0.165,0.333-0.334,0.5-0.5
			c0.169-0.165,0.333-0.334,0.5-0.5c0.169-0.165,0.333-0.334,0.5-0.5c0.169-0.165,0.333-0.334,0.5-0.5
			c0.169-0.165,0.333-0.334,0.5-0.5c0.169-0.165,0.333-0.334,0.5-0.5c0.169-0.165,0.333-0.334,0.5-0.5
			c0.169-0.165,0.333-0.334,0.5-0.5c0.169-0.165,0.333-0.334,0.5-0.5c0.169-0.165,0.333-0.334,0.5-0.5
			c0.169-0.165,0.333-0.334,0.5-0.5c0.169-0.165,0.333-0.334,0.5-0.5c0.169-0.165,0.333-0.334,0.5-0.5
			c0.169-0.165,0.333-0.334,0.5-0.5c0.169-0.165,0.333-0.334,0.5-0.5c0.169-0.165,0.333-0.334,0.5-0.5
			c0.169-0.165,0.333-0.334,0.5-0.5c0.169-0.165,0.333-0.334,0.5-0.5c0.169-0.165,0.333-0.334,0.5-0.5
			c0.169-0.165,0.333-0.334,0.5-0.5c0.169-0.165,0.333-0.334,0.5-0.5c0.169-0.165,0.333-0.334,0.5-0.5
			c0.169-0.165,0.333-0.334,0.5-0.5c0.169-0.165,0.333-0.334,0.5-0.5c0.169-0.165,0.333-0.334,0.5-0.5
			c0.169-0.165,0.333-0.334,0.5-0.5c0.169-0.165,0.333-0.334,0.5-0.5c0.169-0.165,0.333-0.334,0.5-0.5
			c0.169-0.165,0.333-0.334,0.5-0.5c0.169-0.165,0.333-0.334,0.5-0.5c0.169-0.165,0.333-0.334,0.5-0.5
			c0.169-0.165,0.333-0.334,0.5-0.5c0.169-0.165,0.333-0.334,0.5-0.5c0.169-0.165,0.333-0.334,0.5-0.5
			c0.169-0.165,0.333-0.334,0.5-0.5c0.169-0.165,0.333-0.334,0.5-0.5c0.169-0.165,0.333-0.334,0.5-0.5
			c0.169-0.165,0.333-0.334,0.5-0.5c0.169-0.165,0.333-0.334,0.5-0.5c0.169-0.165,0.333-0.334,0.5-0.5
			c0.169-0.165,0.333-0.334,0.5-0.5c0.169-0.165,0.333-0.334,0.5-0.5c0.169-0.165,0.333-0.334,0.5-0.5
			c0.169-0.165,0.333-0.334,0.5-0.5c0.169-0.165,0.333-0.334,0.5-0.5c0.169-0.165,0.333-0.334,0.5-0.5
			c0.169-0.165,0.333-0.334,0.5-0.5c0.169-0.165,0.333-0.334,0.5-0.5c0.169-0.165,0.333-0.334,0.5-0.5
			c0.169-0.165,0.333-0.334,0.5-0.5c0.169-0.165,0.333-0.334,0.5-0.5c0.169-0.165,0.333-0.334,0.5-0.5
			c0.169-0.165,0.333-0.334,0.5-0.5c0.169-0.165,0.333-0.334,0.5-0.5c0.169-0.165,0.333-0.334,0.5-0.5
			c0.169-0.165,0.333-0.334,0.5-0.5c0.169-0.165,0.333-0.334,0.5-0.5c0.169-0.165,0.333-0.334,0.5-0.5
			c0.169-0.165,0.333-0.334,0.5-0.5c0.169-0.165,0.333-0.334,0.5-0.5c0.169-0.165,0.333-0.334,0.5-0.5
			c0.169-0.165,0.333-0.334,0.5-0.5c0.169-0.165,0.333-0.334,0.5-0.5c0.169-0.165,0.333-0.334,0.5-0.5
			c0.169-0.165,0.333-0.334,0.5-0.5c0.169-0.165,0.333-0.334,0.5-0.5c0.169-0.165,0.333-0.334,0.5-0.5
			c0.169-0.165,0.333-0.334,0.5-0.5c0.169-0.165,0.333-0.334,0.5-0.5c0.169-0.165,0.333-0.334,0.5-0.5
			c0.169-0.165,0.333-0.334,0.5-0.5c0.169-0.165,0.333-0.334,0.5-0.5c0.169-0.165,0.333-0.334,0.5-0.5
			c0.169-0.165,0.333-0.334,0.5-0.5c0.169-0.165,0.333-0.334,0.5-0.5c0.169-0.165,0.333-0.334,0.5-0.5
			c0.169-0.165,0.333-0.334,0.5-0.5c0.169-0.165,0.333-0.334,0.5-0.5c0.169-0.165,0.333-0.334,0.5-0.5
			c0.169-0.165,0.333-0.334,0.5-0.5c0.169-0.165,0.333-0.334,0.5-0.5c0.169-0.165,0.333-0.334,0.5-0.5
			c0.169-0.165,0.333-0.334,0.5-0.5c0.169-0.165,0.333-0.334,0.5-0.5c0.169-0.165,0.333-0.334,0.5-0.5
			c0.169-0.165,0.333-0.334,0.5-0.5c0.169-0.165,0.333-0.334,0.5-0.5c0.169-0.165,0.333-0.334,0.5-0.5
			c0.169-0.165,0.333-0.334,0.5-0.5c0.169-0.165,0.333-0.334,0.5-0.5c0.169-0.165,0.333-0.334,0.5-0.5
			c0.169-0.165,0.333-0.334,0.5-0.5c0.169-0.165,0.333-0.334,0.5-0.5c0.169-0.165,0.333-0.334,0.5-0.5
			c0.169-0.165,0.333-0.334,0.5-0.5c0.169-0.165,0.333-0.334,0.5-0.5c0.169-0.165,0.333-0.334,0.5-0.5
			c0.169-0.165,0.333-0.334,0.5-0.5c0.169-0.165,0.333-0.334,0.5-0.5c0.169-0.165,0.333-0.334,0.5-0.5
			c0.169-0.165,0.333-0.334,0.5-0.5c0.169-0.165,0.333-0.334,0.5-0.5c0.169-0.165,0.333-0.334,0.5-0.5
			c0.169-0.165,0.333-0.334,0.5-0.5c0.169-0.165,0.333-0.334,0.5-0.5c0.169-0.165,0.333-0.334,0.5-0.5
			c0.169-0.165,0.333-0.334,0.5-0.5c0.169-0.165,0.333-0.334,0.5-0.5c0.169-0.165,0.333-0.334,0.5-0.5
			c0.169-0.165,0.333-0.334,0.5-0.5c0.169-0.165,0.333-0.334,0.5-0.5c0.169-0.165,0.333-0.334,0.5-0.5
			c0.169-0.165,0.333-0.334,0.5-0.5c0.169-0.165,0.333-0.334,0.5-0.5c0.169-0.165,0.333-0.334,0.5-0.5
			c0.169-0.165,0.333-0.334,0.5-0.5c0.169-0.165,0.333-0.334,0.5-0.5c0.169-0.165,0.333-0.334,0.5-0.5
			c0.169-0.165,0.333-0.334,0.5-0.5c0.169-0.165,0.333-0.334,0.5-0.5c0.169-0.165,0.333-0.334,0.5-0.5
			c0.169-0.165,0.333-0.334,0.5-0.5c0.169-0.165,0.333-0.334,0.5-0.5c0.169-0.165,0.333-0.334,0.5-0.5
			c0.169-0.165,0.333-0.334,0.5-0.5c0.169-0.165,0.333-0.334,0.5-0.5c0.169-0.165,0.333-0.334,0.5-0.5
			c0.169-0.165,0.333-0.334,0.5-0.5c0.169-0.165,0.333-0.334,0.5-0.5c0.169-0.165,0.333-0.334,0.5-0.5
			c0.169-0.165,0.333-0.334,0.5-0.5c0.169-0.165,0.333-0.334,0.5-0.5c0.169-0.165,0.333-0.334,0.5-0.5
			c0.169-0.165,0.333-0.334,0.5-0.5c0.169-0.165,0.333-0.334,0.5-0.5c0.169-0.165,0.333-0.334,0.5-0.5
			c0.169-0.165,0.333-0.334,0.5-0.5c0.169-0.165,0.333-0.334,0.5-0.5c0.169-0.165,0.333-0.334,0.5-0.5
			c0.169-0.165,0.333-0.334,0.5-0.5c0.169-0.165,0.333-0.334,0.5-0.5c6.588-6.427,12.073-14.087,16.452-22.983
			c6.341-12.886,9.514-26.145,9.514-39.782C390.256,283.808,385.346,268.739,375.526,255.921z"/>
	</g>
	<g>
		<path fill="#FFFFFF" d="M139.049,88.206h119.875c23.73,0,41.425,0.991,53.085,2.965c11.661,1.978,22.093,6.104,31.299,12.375
			c9.205,6.274,16.875,14.624,23.013,25.055c6.136,10.431,9.206,22.125,9.206,35.078c0,14.045-3.784,26.93-11.354,38.655
			c-7.568,11.729-17.83,20.524-30.787,26.385c18.274,5.318,32.323,14.388,42.142,27.203c9.819,12.818,14.729,27.887,14.729,45.201
			c0,13.638-3.173,26.896-9.514,39.782c-6.342,12.886-15.004,23.182-25.979,30.884c-10.979,7.705-24.515,12.444-40.605,14.215
			c-10.095,1.094-34.438,1.774-73.03,2.046H139.049V88.206z M199.6,138.111v69.336h39.686c23.591,0,38.254-0.339,43.981-1.022
			c10.362-1.228,18.514-4.807,24.445-10.738c5.932-5.932,8.899-13.735,8.899-23.419c0-9.271-2.557-16.804-7.673-22.6
			c-5.114-5.795-12.718-9.307-22.809-10.534c-6.003-0.681-23.254-1.023-51.755-1.023H199.6z M199.6,257.354v80.175h56.051
			c21.817,0,35.661-0.612,41.527-1.841c9-1.636,16.329-5.624,21.99-11.964c5.658-6.341,8.489-14.828,8.489-25.464
			c0-9-2.184-16.636-6.548-22.907c-4.365-6.271-10.671-10.842-18.92-13.704c-8.254-2.863-26.152-4.295-53.698-4.295H199.6z"/>
	</g>
</g>
</svg>
