<?xml version="1.0" encoding="utf-8"?>
<!-- Generator: Adobe Illustrator 16.0.0, SVG Export Plug-In . SVG Version: 6.00 Build 0)  -->
<!DOCTYPE svg PUBLIC "-//W3C//DTD SVG 1.1//EN" "http://www.w3.org/Graphics/SVG/1.1/DTD/svg11.dtd">
<svg version="1.1" id="Layer_1" xmlns="http://www.w3.org/2000/svg" xmlns:xlink="http://www.w3.org/1999/xlink" x="0px" y="0px"
	 width="512px" height="512px" viewBox="0 0 512 512" enable-background="new 0 0 512 512" xml:space="preserve">
<g id="Facebook_1_">
	<path fill="#265999" d="M512,100C512,44.771,467.229,0,412,0H100C44.771,0,0,44.771,0,100v312c0,55.229,44.771,100,100,100h312
		c55.229,0,100-44.771,100-100V100z"/>
	<g>
		<defs>
			<path id="SVGID_1_" d="M512,99.948C512,44.748,467.061,0,411.853,0H99.964C44.755,0,0,44.748,0,99.948v311.837
				C0,466.984,44.755,512,99.964,512h311.888C467.061,512,512,466.984,512,411.785V99.948z"/>
		</defs>
		<clipPath id="SVGID_2_">
			<use xlink:href="#SVGID_1_"  overflow="visible"/>
		</clipPath>
		<path opacity="0.3" clip-path="url(#SVGID_2_)" fill="#444953" d="M327.222,94.112c-8.739-2.08-19.559-4.159-33.279-4.159
			c-18.72,0-40.342,5.409-56.563,20.377c-0.643,0.598-1.269,1.212-1.885,1.836c-0.168,0.166-0.334,0.333-0.5,0.5
			c-0.168,0.166-0.334,0.333-0.5,0.5c-0.168,0.166-0.334,0.333-0.5,0.5c-0.168,0.166-0.334,0.333-0.5,0.5
			c-0.168,0.166-0.334,0.333-0.5,0.5c-0.168,0.166-0.334,0.333-0.5,0.5c-0.168,0.166-0.334,0.333-0.5,0.5
			c-0.168,0.166-0.334,0.333-0.5,0.5c-0.168,0.166-0.334,0.333-0.5,0.5c-0.168,0.166-0.334,0.333-0.5,0.5
			c-0.168,0.166-0.334,0.333-0.5,0.5c-0.168,0.166-0.334,0.333-0.5,0.5c-0.168,0.166-0.334,0.333-0.5,0.5
			c-0.168,0.166-0.334,0.333-0.5,0.5c-0.168,0.166-0.334,0.333-0.5,0.5c-0.168,0.166-0.334,0.333-0.5,0.5
			c-0.168,0.166-0.334,0.333-0.5,0.5c-0.168,0.166-0.334,0.333-0.5,0.5c-0.168,0.166-0.334,0.333-0.5,0.5
			c-0.168,0.166-0.334,0.333-0.5,0.5c-0.168,0.166-0.334,0.333-0.5,0.5c-0.168,0.166-0.334,0.333-0.5,0.5
			c-0.168,0.166-0.334,0.333-0.5,0.5c-0.168,0.166-0.334,0.333-0.5,0.5c-0.168,0.166-0.334,0.333-0.5,0.5
			c-0.168,0.166-0.334,0.333-0.5,0.5c-0.168,0.166-0.334,0.333-0.5,0.5c-0.168,0.166-0.334,0.333-0.5,0.5
			c-0.168,0.166-0.334,0.333-0.5,0.5c-0.168,0.166-0.334,0.333-0.5,0.5c-0.168,0.166-0.334,0.333-0.5,0.5
			c-0.168,0.166-0.334,0.333-0.5,0.5c-0.168,0.166-0.334,0.333-0.5,0.5c-0.168,0.166-0.334,0.333-0.5,0.5
			c-0.168,0.166-0.334,0.333-0.5,0.5c-0.168,0.166-0.334,0.333-0.5,0.5c-0.168,0.166-0.334,0.333-0.5,0.5
			c-0.168,0.166-0.334,0.333-0.5,0.5c-0.168,0.166-0.334,0.333-0.5,0.5c-0.168,0.166-0.334,0.333-0.5,0.5
			c-0.168,0.166-0.334,0.333-0.5,0.5c-0.168,0.166-0.334,0.333-0.5,0.5c-0.168,0.166-0.334,0.333-0.5,0.5
			c-0.168,0.166-0.334,0.333-0.5,0.5c-0.168,0.166-0.334,0.333-0.5,0.5c-0.168,0.166-0.334,0.333-0.5,0.5
			c-0.168,0.166-0.334,0.333-0.5,0.5c-0.168,0.166-0.334,0.333-0.5,0.5c-0.168,0.166-0.334,0.333-0.5,0.5
			c-0.168,0.166-0.334,0.333-0.5,0.5c-0.168,0.166-0.334,0.333-0.5,0.5c-0.168,0.166-0.334,0.333-0.5,0.5
			c-0.168,0.166-0.334,0.333-0.5,0.5c-0.168,0.166-0.334,0.333-0.5,0.5c-0.168,0.166-0.334,0.333-0.5,0.5
			c-0.168,0.166-0.334,0.333-0.5,0.5c-0.168,0.166-0.334,0.333-0.5,0.5c-0.168,0.166-0.334,0.333-0.5,0.5
			c-0.168,0.166-0.334,0.333-0.5,0.5c-0.168,0.166-0.334,0.333-0.5,0.5c-0.168,0.166-0.334,0.333-0.5,0.5
			c-0.168,0.166-0.334,0.333-0.5,0.5c-0.168,0.166-0.334,0.333-0.5,0.5c-0.168,0.166-0.334,0.333-0.5,0.5
			c-0.168,0.166-0.334,0.333-0.5,0.5c-0.168,0.166-0.334,0.333-0.5,0.5c-0.168,0.166-0.334,0.333-0.5,0.5
			c-0.168,0.166-0.334,0.333-0.5,0.5c-0.168,0.166-0.334,0.333-0.5,0.5c-0.168,0.166-0.334,0.333-0.5,0.5
			c-0.168,0.166-0.334,0.333-0.5,0.5c-0.168,0.166-0.334,0.333-0.5,0.5c-0.168,0.166-0.334,0.333-0.5,0.5
			c-0.168,0.166-0.334,0.333-0.5,0.5c-0.168,0.166-0.334,0.333-0.5,0.5c-0.168,0.166-0.334,0.333-0.5,0.5
			c-0.168,0.166-0.334,0.333-0.5,0.5c-0.168,0.166-0.334,0.333-0.5,0.5c-0.168,0.166-0.334,0.333-0.5,0.5
			c-0.168,0.166-0.334,0.333-0.5,0.5c-0.168,0.166-0.334,0.333-0.5,0.5c-0.168,0.166-0.334,0.333-0.5,0.5
			c-0.168,0.166-0.334,0.333-0.5,0.5c-0.168,0.166-0.334,0.333-0.5,0.5c-0.168,0.166-0.334,0.333-0.5,0.5
			c-0.168,0.166-0.334,0.333-0.5,0.5c-0.168,0.166-0.334,0.333-0.5,0.5c-0.168,0.166-0.334,0.333-0.5,0.5
			c-0.168,0.166-0.334,0.333-0.5,0.5c-0.168,0.166-0.334,0.333-0.5,0.5c-0.168,0.166-0.334,0.333-0.5,0.5
			c-0.168,0.166-0.334,0.333-0.5,0.5c-0.168,0.166-0.334,0.333-0.5,0.5c-0.168,0.166-0.334,0.333-0.5,0.5
			c-0.168,0.166-0.334,0.333-0.5,0.5c-0.168,0.166-0.334,0.333-0.5,0.5c-0.168,0.166-0.334,0.333-0.5,0.5
			c-0.168,0.166-0.334,0.333-0.5,0.5c-0.168,0.166-0.334,0.333-0.5,0.5c-0.168,0.166-0.334,0.333-0.5,0.5
			c-0.168,0.166-0.334,0.333-0.5,0.5c-0.168,0.166-0.334,0.333-0.5,0.5c-0.168,0.166-0.334,0.333-0.5,0.5
			c-0.168,0.166-0.334,0.333-0.5,0.5c-0.168,0.166-0.334,0.333-0.5,0.5c-0.168,0.166-0.334,0.333-0.5,0.5
			c-0.168,0.166-0.334,0.333-0.5,0.5c-0.168,0.166-0.334,0.333-0.5,0.5c-0.168,0.166-0.334,0.333-0.5,0.5
			c-0.168,0.166-0.334,0.333-0.5,0.5c-0.168,0.166-0.334,0.333-0.5,0.5c-0.168,0.166-0.334,0.333-0.5,0.5
			c-0.168,0.166-0.334,0.333-0.5,0.5c-0.168,0.166-0.334,0.333-0.5,0.5c-0.168,0.166-0.334,0.333-0.5,0.5
			c-0.168,0.166-0.334,0.333-0.5,0.5c-0.168,0.166-0.334,0.333-0.5,0.5c-0.168,0.166-0.334,0.333-0.5,0.5
			c-0.168,0.166-0.334,0.333-0.5,0.5c-0.168,0.166-0.334,0.333-0.5,0.5c-0.168,0.166-0.334,0.333-0.5,0.5
			c-0.168,0.166-0.334,0.333-0.5,0.5c-0.168,0.166-0.334,0.333-0.5,0.5c-0.168,0.166-0.334,0.333-0.5,0.5
			c-0.168,0.166-0.334,0.333-0.5,0.5c-0.168,0.166-0.334,0.333-0.5,0.5c-0.168,0.166-0.334,0.333-0.5,0.5
			c-0.168,0.166-0.334,0.333-0.5,0.5c-0.168,0.166-0.334,0.333-0.5,0.5c-0.168,0.166-0.334,0.333-0.5,0.5
			c-0.168,0.166-0.334,0.333-0.5,0.5c-0.168,0.166-0.334,0.333-0.5,0.5c-0.168,0.166-0.334,0.333-0.5,0.5
			c-0.168,0.166-0.334,0.333-0.5,0.5c-0.168,0.166-0.334,0.333-0.5,0.5c-0.168,0.166-0.334,0.333-0.5,0.5
			c-0.168,0.166-0.334,0.333-0.5,0.5c-0.168,0.166-0.334,0.333-0.5,0.5c-0.168,0.166-0.334,0.333-0.5,0.5
			c-0.168,0.166-0.334,0.333-0.5,0.5c-0.168,0.166-0.334,0.333-0.5,0.5c-0.168,0.166-0.334,0.333-0.5,0.5
			c-0.168,0.166-0.334,0.333-0.5,0.5c-0.168,0.166-0.334,0.333-0.5,0.5c-0.168,0.166-0.334,0.333-0.5,0.5
			c-0.168,0.166-0.334,0.333-0.5,0.5c-0.168,0.166-0.334,0.333-0.5,0.5c-0.168,0.166-0.334,0.333-0.5,0.5
			c-0.168,0.166-0.334,0.333-0.5,0.5c-0.168,0.166-0.334,0.333-0.5,0.5c-0.168,0.166-0.334,0.333-0.5,0.5
			c-0.168,0.166-0.334,0.333-0.5,0.5c-0.168,0.166-0.334,0.333-0.5,0.5c-0.168,0.166-0.334,0.333-0.5,0.5
			c-0.168,0.166-0.334,0.333-0.5,0.5c-0.168,0.166-0.334,0.333-0.5,0.5c-0.168,0.166-0.334,0.333-0.5,0.5
			c-0.168,0.166-0.334,0.333-0.5,0.5c-0.168,0.166-0.334,0.333-0.5,0.5c-0.168,0.166-0.334,0.333-0.5,0.5
			c-0.168,0.166-0.334,0.333-0.5,0.5c-0.168,0.166-0.334,0.333-0.5,0.5c-0.168,0.166-0.334,0.333-0.5,0.5
			c-0.168,0.166-0.334,0.333-0.5,0.5c-0.168,0.166-0.334,0.333-0.5,0.5c-0.168,0.166-0.334,0.333-0.5,0.5
			c-0.168,0.166-0.334,0.333-0.5,0.5c-0.168,0.166-0.334,0.333-0.5,0.5c-0.168,0.166-0.334,0.333-0.5,0.5
			c-0.168,0.166-0.334,0.333-0.5,0.5c-0.168,0.166-0.334,0.333-0.5,0.5c-0.168,0.166-0.334,0.333-0.5,0.5
			c-0.168,0.166-0.334,0.333-0.5,0.5c-0.168,0.166-0.334,0.333-0.5,0.5c-0.168,0.166-0.334,0.333-0.5,0.5
			c-0.168,0.166-0.334,0.333-0.5,0.5c-0.168,0.166-0.334,0.333-0.5,0.5c-0.168,0.166-0.334,0.333-0.5,0.5
			c-0.168,0.166-0.334,0.333-0.5,0.5c-0.168,0.166-0.334,0.333-0.5,0.5c-0.168,0.166-0.334,0.333-0.5,0.5
			c-0.168,0.166-0.334,0.333-0.5,0.5c-0.168,0.166-0.334,0.333-0.5,0.5c-0.168,0.166-0.334,0.333-0.5,0.5
			c-0.168,0.166-0.334,0.333-0.5,0.5c-0.168,0.166-0.334,0.333-0.5,0.5c-0.168,0.166-0.334,0.333-0.5,0.5
			c-0.168,0.166-0.334,0.333-0.5,0.5c-0.168,0.166-0.334,0.333-0.5,0.5c-0.168,0.166-0.334,0.333-0.5,0.5
			c-0.168,0.166-0.334,0.333-0.5,0.5c-0.168,0.166-0.334,0.333-0.5,0.5c-0.168,0.166-0.334,0.333-0.5,0.5
			c-0.168,0.166-0.334,0.333-0.5,0.5c-0.168,0.166-0.334,0.333-0.5,0.5c-0.168,0.166-0.334,0.333-0.5,0.5
			c-0.168,0.166-0.334,0.333-0.5,0.5c-0.168,0.166-0.334,0.333-0.5,0.5c-0.168,0.166-0.334,0.333-0.5,0.5
			c-0.168,0.166-0.334,0.333-0.5,0.5c-0.168,0.166-0.334,0.333-0.5,0.5c-0.168,0.166-0.334,0.333-0.5,0.5
			c-0.168,0.166-0.334,0.333-0.5,0.5c-0.168,0.166-0.334,0.333-0.5,0.5c-0.168,0.166-0.334,0.333-0.5,0.5
			c-0.168,0.166-0.334,0.333-0.5,0.5c-0.168,0.166-0.334,0.333-0.5,0.5c-0.168,0.166-0.334,0.333-0.5,0.5
			c-0.168,0.166-0.334,0.333-0.5,0.5c-0.168,0.166-0.334,0.333-0.5,0.5c-0.168,0.166-0.334,0.333-0.5,0.5
			c-0.168,0.166-0.334,0.333-0.5,0.5c-0.168,0.166-0.334,0.333-0.5,0.5c-0.168,0.166-0.334,0.333-0.5,0.5
			c-0.168,0.166-0.334,0.333-0.5,0.5c-0.168,0.166-0.334,0.333-0.5,0.5c-0.168,0.166-0.334,0.333-0.5,0.5
			c-0.168,0.166-0.334,0.333-0.5,0.5c-0.168,0.166-0.334,0.333-0.5,0.5c-0.168,0.166-0.334,0.333-0.5,0.5
			c-0.168,0.166-0.334,0.333-0.5,0.5c-0.168,0.166-0.334,0.333-0.5,0.5c-0.168,0.166-0.334,0.333-0.5,0.5
			c-0.168,0.166-0.334,0.333-0.5,0.5c-0.168,0.166-0.334,0.333-0.5,0.5c-0.168,0.166-0.334,0.333-0.5,0.5
			c-0.168,0.166-0.334,0.333-0.5,0.5c-0.168,0.166-0.334,0.333-0.5,0.5c-0.168,0.166-0.334,0.333-0.5,0.5
			c-0.168,0.166-0.334,0.333-0.5,0.5c-0.168,0.166-0.334,0.333-0.5,0.5c-0.168,0.166-0.334,0.333-0.5,0.5
			c-0.168,0.166-0.334,0.333-0.5,0.5c-0.168,0.166-0.334,0.333-0.5,0.5c-0.168,0.166-0.334,0.333-0.5,0.5
			c-0.168,0.166-0.334,0.333-0.5,0.5c-0.168,0.166-0.334,0.333-0.5,0.5c-0.168,0.166-0.334,0.333-0.5,0.5
			c-0.168,0.166-0.334,0.333-0.5,0.5c-0.168,0.166-0.334,0.333-0.5,0.5c-0.168,0.166-0.334,0.333-0.5,0.5
			c-0.168,0.166-0.334,0.333-0.5,0.5c-0.168,0.166-0.334,0.333-0.5,0.5c-0.168,0.166-0.334,0.333-0.5,0.5
			c-0.168,0.166-0.334,0.333-0.5,0.5c-0.168,0.166-0.334,0.333-0.5,0.5c-0.168,0.166-0.334,0.333-0.5,0.5
			c-0.168,0.166-0.334,0.333-0.5,0.5c-0.168,0.166-0.334,0.333-0.5,0.5c-0.168,0.166-0.334,0.333-0.5,0.5
			c-0.168,0.166-0.334,0.333-0.5,0.5c-0.168,0.166-0.334,0.333-0.5,0.5c-0.168,0.166-0.334,0.333-0.5,0.5
			c-0.168,0.166-0.334,0.333-0.5,0.5c-0.168,0.166-0.334,0.333-0.5,0.5c-0.168,0.166-0.334,0.333-0.5,0.5
			c-0.168,0.166-0.334,0.333-0.5,0.5c-0.168,0.166-0.334,0.333-0.5,0.5c-0.168,0.166-0.334,0.333-0.5,0.5
			c-0.168,0.166-0.334,0.333-0.5,0.5c-0.168,0.166-0.334,0.333-0.5,0.5c-0.168,0.166-0.334,0.333-0.5,0.5
			c-0.168,0.166-0.334,0.333-0.5,0.5c-0.168,0.166-0.334,0.333-0.5,0.5c-0.168,0.166-0.334,0.333-0.5,0.5
			c-0.168,0.166-0.334,0.333-0.5,0.5c-0.168,0.166-0.334,0.333-0.5,0.5c-0.168,0.166-0.334,0.333-0.5,0.5
			c-0.168,0.166-0.334,0.333-0.5,0.5c-0.168,0.166-0.334,0.333-0.5,0.5c-0.168,0.166-0.334,0.333-0.5,0.5
			c-0.168,0.166-0.334,0.333-0.5,0.5c-0.168,0.166-0.334,0.333-0.5,0.5c-0.168,0.166-0.334,0.333-0.5,0.5
			c-0.168,0.166-0.334,0.333-0.5,0.5c-0.168,0.166-0.334,0.333-0.5,0.5c-0.168,0.166-0.334,0.333-0.5,0.5
			c-0.168,0.166-0.334,0.333-0.5,0.5c-0.168,0.165-0.334,0.332-0.5,0.5c-0.168,0.165-0.334,0.332-0.5,0.5
			c-0.168,0.165-0.334,0.332-0.5,0.5c-0.168,0.165-0.334,0.332-0.5,0.5c-0.168,0.165-0.334,0.332-0.5,0.5
			c-0.168,0.165-0.334,0.332-0.5,0.5c-0.168,0.165-0.334,0.332-0.5,0.5c-0.168,0.165-0.334,0.332-0.5,0.5
			c-0.168,0.165-0.334,0.332-0.5,0.5c-0.168,0.165-0.334,0.332-0.5,0.5c-0.168,0.165-0.334,0.332-0.5,0.5
			c-0.168,0.165-0.334,0.332-0.5,0.5c-0.168,0.165-0.334,0.332-0.5,0.5c-0.168,0.165-0.334,0.332-0.5,0.5
			c-0.168,0.165-0.334,0.332-0.5,0.5c-0.168,0.165-0.334,0.332-0.5,0.5c-0.168,0.165-0.334,0.332-0.5,0.5
			c-0.168,0.165-0.334,0.332-0.5,0.5c-0.168,0.165-0.334,0.332-0.5,0.5c-0.168,0.165-0.334,0.332-0.5,0.5
			c-0.168,0.165-0.334,0.332-0.5,0.5c-0.168,0.165-0.334,0.332-0.5,0.5c-0.168,0.165-0.334,0.332-0.5,0.5
			c-0.168,0.165-0.334,0.332-0.5,0.5c-0.168,0.165-0.334,0.332-0.5,0.5c-0.168,0.165-0.334,0.332-0.5,0.5
			c-0.168,0.165-0.334,0.332-0.5,0.5c-0.168,0.165-0.334,0.332-0.5,0.5c-0.168,0.165-0.334,0.332-0.5,0.5
			c-0.168,0.165-0.334,0.332-0.5,0.5c-0.168,0.165-0.334,0.332-0.5,0.5c-0.168,0.165-0.334,0.332-0.5,0.5
			c-0.168,0.165-0.334,0.332-0.5,0.5c-0.168,0.165-0.334,0.332-0.5,0.5c-0.168,0.165-0.334,0.332-0.5,0.5
			c-0.168,0.165-0.334,0.332-0.5,0.5c-0.168,0.165-0.334,0.332-0.5,0.5c-0.168,0.165-0.334,0.332-0.5,0.5
			c-0.168,0.165-0.334,0.332-0.5,0.5c-0.168,0.165-0.334,0.332-0.5,0.5c-0.168,0.165-0.334,0.332-0.5,0.5
			c-0.168,0.165-0.334,0.332-0.5,0.5c-0.168,0.165-0.334,0.332-0.5,0.5c-0.168,0.165-0.334,0.332-0.5,0.5
			c-0.168,0.165-0.334,0.332-0.5,0.5c-0.168,0.165-0.334,0.332-0.5,0.5c-0.168,0.165-0.334,0.332-0.5,0.5
			c-0.168,0.165-0.334,0.332-0.5,0.5c-0.168,0.165-0.334,0.332-0.5,0.5c-0.168,0.165-0.334,0.332-0.5,0.5
			c-0.168,0.165-0.334,0.332-0.5,0.5c-0.168,0.165-0.334,0.332-0.5,0.5c-0.168,0.165-0.334,0.332-0.5,0.5
			c-0.168,0.165-0.334,0.332-0.5,0.5c-0.168,0.165-0.334,0.332-0.5,0.5c-0.168,0.165-0.334,0.332-0.5,0.5
			c-0.168,0.165-0.334,0.332-0.5,0.5c-0.168,0.165-0.334,0.332-0.5,0.5c-0.168,0.165-0.334,0.332-0.5,0.5
			c-0.168,0.165-0.334,0.332-0.5,0.5c-0.168,0.165-0.334,0.332-0.5,0.5c-0.168,0.165-0.334,0.332-0.5,0.5
			c-0.168,0.165-0.334,0.332-0.5,0.5c-0.168,0.165-0.334,0.332-0.5,0.5c-0.168,0.165-0.334,0.332-0.5,0.5
			c-0.168,0.165-0.334,0.332-0.5,0.5c-0.168,0.165-0.334,0.332-0.5,0.5c-0.168,0.165-0.334,0.332-0.5,0.5
			c-0.168,0.165-0.334,0.332-0.5,0.5c-0.168,0.165-0.334,0.332-0.5,0.5c-0.168,0.165-0.334,0.332-0.5,0.5
			c-0.168,0.165-0.334,0.332-0.5,0.5c-0.168,0.165-0.334,0.332-0.5,0.5c-0.168,0.165-0.334,0.332-0.5,0.5
			c-0.168,0.165-0.334,0.332-0.5,0.5c-0.168,0.165-0.334,0.332-0.5,0.5c-0.168,0.165-0.334,0.332-0.5,0.5
			c-0.168,0.165-0.334,0.332-0.5,0.5c-0.168,0.165-0.334,0.332-0.5,0.5c-0.168,0.165-0.334,0.332-0.5,0.5
			c-0.168,0.165-0.334,0.332-0.5,0.5c-0.168,0.165-0.334,0.332-0.5,0.5c-0.168,0.165-0.334,0.332-0.5,0.5
			c-0.168,0.165-0.334,0.332-0.5,0.5c-0.168,0.165-0.334,0.332-0.5,0.5c-0.168,0.165-0.334,0.332-0.5,0.5
			c-0.168,0.165-0.334,0.332-0.5,0.5c-0.168,0.165-0.334,0.332-0.5,0.5c-0.168,0.165-0.334,0.332-0.5,0.5
			c-0.168,0.165-0.334,0.332-0.5,0.5c-0.168,0.165-0.334,0.332-0.5,0.5c-0.168,0.165-0.334,0.332-0.5,0.5
			c-0.168,0.165-0.334,0.332-0.5,0.5c-0.168,0.165-0.334,0.332-0.5,0.5c-0.168,0.165-0.334,0.332-0.5,0.5
			c-0.168,0.165-0.334,0.332-0.5,0.5c-0.168,0.165-0.334,0.332-0.5,0.5c-0.168,0.165-0.334,0.332-0.5,0.5
			c-0.168,0.165-0.334,0.332-0.5,0.5c-0.168,0.165-0.334,0.332-0.5,0.5c-0.168,0.165-0.334,0.332-0.5,0.5
			c-0.168,0.165-0.334,0.332-0.5,0.5c-0.168,0.165-0.334,0.332-0.5,0.5c-0.168,0.165-0.334,0.332-0.5,0.5
			c-0.168,0.165-0.334,0.332-0.5,0.5c-0.168,0.165-0.334,0.332-0.5,0.5c-0.168,0.165-0.334,0.332-0.5,0.5
			c-0.168,0.165-0.334,0.332-0.5,0.5c-0.168,0.165-0.334,0.332-0.5,0.5c-0.168,0.165-0.334,0.332-0.5,0.5
			c-0.168,0.165-0.334,0.332-0.5,0.5c-0.168,0.165-0.334,0.332-0.5,0.5c-0.168,0.165-0.334,0.332-0.5,0.5
			c-0.168,0.165-0.334,0.332-0.5,0.5c-0.168,0.165-0.334,0.332-0.5,0.5c-0.168,0.165-0.334,0.332-0.5,0.5
			c-0.168,0.165-0.334,0.332-0.5,0.5c-0.168,0.165-0.334,0.332-0.5,0.5c-0.168,0.165-0.334,0.332-0.5,0.5
			c-0.168,0.165-0.334,0.332-0.5,0.5c-0.168,0.165-0.334,0.332-0.5,0.5c-0.168,0.165-0.334,0.332-0.5,0.5
			c-0.168,0.165-0.334,0.332-0.5,0.5c-0.168,0.165-0.334,0.332-0.5,0.5c-0.168,0.165-0.334,0.332-0.5,0.5
			c-0.168,0.165-0.334,0.332-0.5,0.5c-0.168,0.165-0.334,0.332-0.5,0.5c-0.168,0.165-0.334,0.332-0.5,0.5
			c-0.168,0.165-0.334,0.332-0.5,0.5c-0.168,0.165-0.334,0.332-0.5,0.5c-0.168,0.165-0.334,0.332-0.5,0.5
			c-0.168,0.165-0.334,0.332-0.5,0.5c-0.168,0.165-0.334,0.332-0.5,0.5c-0.168,0.165-0.334,0.332-0.5,0.5
			c-0.168,0.165-0.334,0.332-0.5,0.5c-0.168,0.165-0.334,0.332-0.5,0.5c-0.168,0.165-0.334,0.332-0.5,0.5
			c-0.168,0.165-0.334,0.332-0.5,0.5c-0.168,0.165-0.334,0.332-0.5,0.5c-0.168,0.165-0.334,0.332-0.5,0.5
			c-0.168,0.165-0.334,0.332-0.5,0.5c-0.168,0.165-0.334,0.332-0.5,0.5c-0.168,0.165-0.334,0.332-0.5,0.5
			c-0.168,0.165-0.334,0.332-0.5,0.5c-0.168,0.165-0.334,0.332-0.5,0.5c-0.168,0.165-0.334,0.332-0.5,0.5
			c-0.168,0.165-0.334,0.332-0.5,0.5c-0.168,0.165-0.334,0.332-0.5,0.5c-0.168,0.165-0.334,0.332-0.5,0.5
			c-0.168,0.165-0.334,0.332-0.5,0.5c-0.168,0.165-0.334,0.332-0.5,0.5c-0.168,0.165-0.334,0.332-0.5,0.5
			c-0.168,0.165-0.334,0.332-0.5,0.5c-0.168,0.165-0.334,0.332-0.5,0.5c-0.168,0.165-0.334,0.332-0.5,0.5
			c-0.168,0.165-0.334,0.332-0.5,0.5c-0.168,0.165-0.334,0.332-0.5,0.5c-0.168,0.165-0.334,0.332-0.5,0.5
			c-0.168,0.165-0.334,0.332-0.5,0.5c-0.168,0.165-0.334,0.332-0.5,0.5c-0.168,0.165-0.334,0.332-0.5,0.5
			c-0.168,0.165-0.334,0.332-0.5,0.5c-0.168,0.165-0.334,0.332-0.5,0.5c-0.168,0.165-0.334,0.332-0.5,0.5
			c-0.168,0.165-0.334,0.332-0.5,0.5c-0.168,0.165-0.334,0.332-0.5,0.5c-0.168,0.165-0.334,0.332-0.5,0.5
			c-0.168,0.165-0.334,0.332-0.5,0.5c-0.168,0.165-0.334,0.332-0.5,0.5c-0.168,0.165-0.334,0.332-0.5,0.5
			c-0.168,0.165-0.334,0.363-0.5,0.531C-1.117,348.686-8.192,366-11.227,383H-12l0,0l0,0v1h-1l0,0l0,0v1h-1l0,0l0,0v1h-1l0,0l0,0v1
			h-1l0,0l0,0v1h-1l0,0l0,0v1h-1l0,0l0,0v1h-1l0,0l0,0v1h-1l0,0l0,0v1h-1l0,0l0,0v1h-1l0,0l0,0v1h-1l0,0l0,0v1h-1l0,0l0,0v1h-1l0,0
			l0,0v1h-1l0,0l0,0v1h-1l0,0l0,0v1h-1l0,0l0,0v1h-1l0,0l0,0v1h-1l0,0l0,0v1h-1l0,0l0,0v1h-1l0,0l0,0v1h-1l0,0l0,0v1h-1l0,0l0,0v1
			h-1l0,0l0,0v1h-1l0,0l0,0v1h-1l0,0l0,0v1h-1l0,0l0,0v1h-1l0,0l0,0v1h-1l0,0l0,0v47h27v157h63v-1h1l0,0l0,0v-1h1l0,0l0,0v-1h1l0,0
			l0,0v-1h1l0,0l0,0v-1h1l0,0l0,0v-1h1l0,0l0,0v-1h1l0,0l0,0v-1h1l0,0l0,0v-1h1l0,0l0,0v-1h1l0,0l0,0v-1h1l0,0l0,0v-1h1l0,0l0,0v-1
			h1l0,0l0,0v-1h1l0,0l0,0v-1h1l0,0l0,0v-1h1l0,0l0,0v-1h1l0,0l0,0v-1h1l0,0l0,0v-1h1l0,0l0,0v-1h1l0,0l0,0v-1h1l0,0l0,0v-1h1l0,0
			l0,0v-1h1l0,0l0,0v-1h1l0,0l0,0v-1h1l0,0l0,0v-1h1l0,0l0,0v-1h1l0,0l0,0v-1h1l0,0l0,0v-1h1l0,0l0,0v-1h1l0,0l0,0v-1h1l0,0l0,0v-1
			h1l0,0l0,0v-1h1l0,0l0,0v-1h1l0,0l0,0v-1h1l0,0l0,0v-1h1l0,0l0,0v-1h1l0,0l0,0v-1h1l0,0l0,0v-1h1l0,0l0,0v-1h1l0,0l0,0v-1h1l0,0
			l0,0v-1h1l0,0l0,0v-1h1l0,0l0,0v-1h1l0,0l0,0v-1h1l0,0l0,0v-1h1l0,0l0,0v-1h1l0,0l0,0v-1h1l0,0l0,0v-1h1l0,0l0,0v-1h1l0,0l0,0v-1
			h1l0,0l0,0v-1h1l0,0l0,0v-1h1l0,0l0,0v-1h1l0,0l0,0v-1h1l0,0l0,0v-1h1l0,0l0,0v-1h1l0,0l0,0v-1h1l0,0l0,0v-1h1l0,0l0,0v-1h1l0,0
			l0,0v-1h1l0,0l0,0v-1h1l0,0l0,0v-1h1l0,0l0,0v-1h1l0,0l0,0v-1h1l0,0l0,0v-1h1l0,0l0,0v-1h1l0,0l0,0v-1h1l0,0l0,0v-1h1l0,0l0,0v-1
			h1l0,0l0,0v-1h1l0,0l0,0v-1h1l0,0l0,0v-1h1l0,0l0,0v-1h1l0,0l0,0v-1h1l0,0l0,0v-1h1l0,0l0,0v-1h1l0,0l0,0v-1h1l0,0l0,0v-1h1l0,0
			l0,0v-1h1l0,0l0,0v-1h1l0,0l0,0v-1h1l0,0l0,0v-1h1l0,0l0,0v-1h1l0,0l0,0v-1h1l0,0l0,0v-1h1l0,0l0,0v-1h1l0,0l0,0v-1h1l0,0l0,0v-1
			h1l0,0l0,0v-1h1l0,0l0,0v-1h1l0,0l0,0v-1h1l0,0l0,0v-1h1l0,0l0,0v-1h1l0,0l0,0v-1h1l0,0l0,0v-1h1l0,0l0,0v-1h1l0,0l0,0v-1h1l0,0
			l0,0v-1h1l0,0l0,0v-1h1l0,0l0,0v-1h1l0,0l0,0v-1h1l0,0l0,0v-1h1l0,0l0,0v-1h1l0,0l0,0v-1h1l0,0l0,0v-1h1l0,0l0,0v-1h1l0,0l0,0v-1
			h1l0,0l0,0v-1h1l0,0l0,0v-1h1l0,0l0,0v-1h1l0,0l0,0v-1h1l0,0l0,0v-1h1l0,0l0,0v-1h1l0,0l0,0v-1h1l0,0l0,0v-1h1l0,0l0,0v-1h1l0,0
			l0,0v-1h1l0,0l0,0v-1h1l0,0l0,0v-1h1l0,0l0,0v-1h1l0,0l0,0v-1h1l0,0l0,0v-1h1l0,0l0,0v-1h1l0,0l0,0v-1h1l0,0l0,0v-1h1l0,0l0,0v-1
			h1l0,0l0,0v-1h1l0,0l0,0v-1h1l0,0l0,0v-1h1l0,0l0,0v-1h1l0,0l0,0v-1h1l0,0l0,0v-1h1l0,0l0,0v-1h1l0,0l0,0v-1h1l0,0l0,0v-1h1l0,0
			l0,0v-1h1l0,0l0,0v-1h1l0,0l0,0v-1h1l0,0l0,0v-1h1l0,0l0,0v-1h1l0,0l0,0v-1h1l0,0l0,0v-1h1l0,0l0,0v-1h1l0,0l0,0v-1h1l0,0l0,0v-1
			h1l0,0l0,0v-1h1l0,0l0,0v-1h1l0,0l0,0v-1h1l0,0l0,0v-1h1l0,0l0,0v-1h1l0,0l0,0v-1h1l0,0l0,0v-1h1l0,0l0,0v-1h1l0,0l0,0v-1h1l0,0
			l0,0v-1h1l0,0l0,0v-1h1l0,0l0,0v-1h1l0,0l0,0v-1h1l0,0l0,0v-1h1l0,0l0,0v-1h1l0,0l0,0v-1h1l0,0l0,0v-1h1l0,0l0,0v-1h1l0,0l0,0v-1
			h1l0,0l0,0v-1h1l0,0l0,0v-1h1l0,0l0,0v-1h1l0,0l0,0v-1h1l0,0l0,0v-1h1l0,0l0,0v-1h1l0,0l0,0v-1h1l0,0l0,0v-1h1l0,0l0,0v-1h1l0,0
			l0,0v-1h1l0,0l0,0v-1h1l0,0l0,0v-1h1l0,0l0,0v-1h1l0,0l0,0v-1h1l0,0l0,0v-1h1l0,0l0,0v-1h1l0,0l0,0v-1h1l0,0l0,0v-1h1l0,0l0,0v-1
			h1l0,0l0,0v-1h1l0,0l0,0v-1h1l0,0l0,0v-1h1l0,0l0,0v-1h1l0,0l0,0v-1h1l0,0l0,0v-1h1l0,0l0,0v-1h1l0,0l0,0v-1h1l0,0l0,0v-1h1l0,0
			l0,0v-1h1l0,0l0,0v-1h1l0,0l0,0v-1h1l0,0l0,0v-1h1l0,0l0,0v-1h1l0,0l0,0v-1h1l0,0l0,0v-1h1l0,0l0,0v-1h1l0,0l0,0v-1h1l0,0l0,0v-1
			h1l0,0l0,0v-1h1l0,0l0,0v-1h1l0,0l0,0v-1h1l0,0l0,0v-1h1l0,0l0,0v-1h1l0,0l0,0v-1h1l0,0l0,0v-1h1l0,0l0,0v-1h1l0,0l0,0v-1h1l0,0
			l0,0v-1h1l0,0l0,0v-1h1l0,0l0,0v-1h1l0,0l0,0v-1h1l0,0l0,0v-1h1l0,0l0,0v-1h1l0,0l0,0v-1h1l0,0l0,0v-1h1l0,0l0,0v-1h1l0,0l0,0v-1
			h1l0,0l0,0v-1h1l0,0l0,0v-1h1l0,0l0,0v-1h1l0,0l0,0V273h1l0,0l0,0v-1h1l0,0l0,0v-1h1l0,0l0,0v-1h1l0,0l0,0v-1h1l0,0l0,0v-1h1l0,0
			l0,0v-1h1l0,0l0,0v-1h1l0,0l0,0v-1h1l0,0l0,0v-1h1l0,0l0,0v-1h1l0,0l0,0v-1h1l0,0l0,0v-1h1l0,0l0,0v-1h1l0,0l0,0v-1h1l0,0l0,0v-1
			h1l0,0l0,0v-1h1l0,0l0,0v-1h1l0,0l0,0v-1h1l0,0l0,0v-1h1l0,0l0,0v-1h1l0,0l0,0v-1h1l0,0l0,0v-1h1l0,0l0,0v-1h1l0,0l0,0v-1h1l0,0
			l0,0v-1h1l0,0l0,0v-1h1l0,0l0,0v-1h1l0,0l0,0v-1h1l0,0l0,0v-1h1l0,0l0,0v-1h1l0,0l0,0v-1h1l0,0l0,0v-1h1l0,0l0,0v-1h1l0,0l0,0v-1
			h1l0,0l0,0v-1h1l0,0l0,0v-1h1l0,0l0,0v-1h1l0,0l0,0v-1h1l0,0l0,0v-1h1l0,0l0,0v-1h1v-47h-35.261l0.016-0.088
			c0.153,0.046,0.316,0.198,0.468,0.244l0.032-0.58c0.153,0.046,0.316,0.116,0.468,0.162l0.032-0.621
			c0.153,0.046,0.316,0.095,0.468,0.142l0.032-0.631c0.153,0.046,0.316,0.09,0.468,0.137l0.032-0.634
			c0.153,0.046,0.316,0.089,0.468,0.135l0.032-0.634c0.153,0.046,0.316,0.088,0.468,0.135l0.032-0.635
			c0.153,0.046,0.316,0.088,0.468,0.135l0.032-0.635c0.153,0.046,0.316,0.088,0.468,0.135l0.032-0.635
			c0.153,0.046,0.316,0.088,0.468,0.135l0.032-0.635c0.153,0.046,0.316,0.088,0.468,0.135l0.032-0.635
			c0.153,0.046,0.316,0.088,0.468,0.135l0.032-0.635c0.153,0.046,0.316,0.088,0.468,0.135l0.032-0.635
			c0.153,0.046,0.316,0.088,0.468,0.135l0.032-0.635c0.153,0.046,0.316,0.088,0.468,0.135l0.032-0.635
			c0.153,0.046,0.316,0.088,0.468,0.135l0.032-0.635c0.153,0.046,0.316,0.088,0.468,0.135l0.032-0.635
			c0.153,0.046,0.316,0.088,0.468,0.135l0.032-0.635c0.153,0.046,0.316,0.088,0.468,0.135l0.032-0.635
			c0.153,0.046,0.316,0.088,0.468,0.135l0.032-0.635c0.153,0.046,0.316,0.088,0.468,0.135l0.032-0.635
			c0.153,0.046,0.316,0.088,0.468,0.135l0.032-0.635c0.153,0.046,0.316,0.088,0.468,0.135l0.032-0.635
			c0.153,0.046,0.316,0.088,0.468,0.135l0.032-0.635c0.153,0.046,0.316,0.088,0.468,0.135l0.032-0.635
			c0.153,0.046,0.316,0.088,0.468,0.135l0.032-0.635c0.153,0.046,0.316,0.088,0.468,0.135l0.032-0.635
			c0.153,0.046,0.316,0.088,0.468,0.135l0.032-0.635c0.153,0.046,0.316,0.088,0.468,0.135l0.032-0.635
			c0.153,0.046,0.316,0.088,0.468,0.135l0.032-0.635c0.153,0.046,0.316,0.088,0.468,0.135l0.032-0.635
			c0.153,0.046,0.316,0.088,0.468,0.135l0.032-0.635c0.153,0.046,0.316,0.088,0.468,0.135l0.032-0.635
			c0.153,0.046,0.316,0.088,0.468,0.135l0.032-0.635c0.153,0.046,0.316,0.088,0.468,0.135l0.032-0.635
			c0.153,0.046,0.316,0.088,0.468,0.135l0.032-0.635c0.153,0.046,0.316,0.088,0.468,0.135l0.032-0.635
			c0.153,0.046,0.316,0.088,0.468,0.135l0.032-0.635c0.153,0.046,0.316,0.088,0.468,0.135l0.032-0.635
			c0.153,0.046,0.316,0.088,0.468,0.135l0.032-0.635c0.153,0.046,0.316,0.088,0.468,0.135l0.032-0.635
			c0.153,0.046,0.316,0.088,0.468,0.135l0.032-0.635c0.153,0.046,0.316,0.088,0.468,0.135l0.032-0.635
			c0.153,0.046,0.316,0.088,0.468,0.135l0.032-0.635c0.153,0.046,0.316,0.088,0.468,0.135l0.032-0.635
			c0.153,0.046,0.316,0.088,0.468,0.135l0.032-0.635c0.153,0.046,0.316,0.088,0.468,0.135l0.032-0.635
			c0.153,0.046,0.316,0.088,0.468,0.135l0.032-0.635c0.153,0.046,0.316,0.088,0.468,0.135l0.032-0.635
			c0.153,0.046,0.316,0.088,0.468,0.135l0.032-0.635c0.153,0.046,0.316,0.088,0.468,0.135l0.032-0.635
			c0.153,0.046,0.316,0.088,0.468,0.135l0.032-0.635c0.153,0.046,0.316,0.088,0.468,0.135l0.032-0.635
			c0.153,0.046,0.316,0.088,0.468,0.135l0.032-0.635c0.153,0.046,0.316,0.088,0.468,0.135l0.032-0.635
			c0.153,0.046,0.316,0.088,0.468,0.135l0.032-0.635c0.153,0.046,0.316,0.088,0.468,0.135l0.032-0.635
			c0.153,0.046,0.316,0.088,0.468,0.135l0.032-0.635c0.153,0.046,0.316,0.088,0.468,0.135l0.032-0.635
			c0.153,0.046,0.316,0.088,0.468,0.135l0.032-0.635c0.153,0.046,0.316,0.088,0.468,0.135l0.032-0.635
			c0.153,0.046,0.316,0.088,0.468,0.135l0.032-0.635c0.153,0.046,0.316,0.088,0.468,0.135l0.032-0.635
			c0.153,0.046,0.316,0.088,0.468,0.135l0.032-0.635c0.153,0.046,0.316,0.088,0.468,0.135l0.032-0.635
			c0.153,0.046,0.316,0.088,0.468,0.135l0.032-0.635c0.153,0.046,0.316,0.088,0.468,0.135l0.032-0.635
			c0.153,0.046,0.316,0.088,0.468,0.135l0.032-0.635c0.153,0.046,0.316,0.088,0.468,0.135l0.032-0.635
			c0.153,0.046,0.316,0.088,0.468,0.135l0.032-0.635c0.153,0.046,0.316,0.088,0.468,0.135l0.032-0.635
			c0.153,0.046,0.316,0.088,0.468,0.135l0.032-0.635c0.153,0.046,0.316,0.088,0.468,0.135l0.032-0.635
			c0.153,0.046,0.316,0.088,0.468,0.135l0.032-0.635c0.153,0.046,0.316,0.088,0.468,0.135l0.032-0.635
			c0.153,0.046,0.316,0.088,0.468,0.135l0.032-0.635c0.153,0.046,0.316,0.088,0.468,0.135l0.032-0.635
			c0.153,0.046,0.316,0.088,0.468,0.135l0.032-0.635c0.153,0.046,0.316,0.088,0.468,0.135l0.032-0.635
			c0.153,0.046,0.316,0.088,0.468,0.135l0.032-0.635c0.153,0.046,0.316,0.088,0.468,0.135l0.032-0.635
			c0.153,0.046,0.316,0.088,0.468,0.135l0.032-0.635c0.153,0.046,0.316,0.088,0.468,0.135l0.032-0.635
			c0.153,0.046,0.316,0.088,0.468,0.135l0.032-0.635c0.153,0.046,0.316,0.088,0.468,0.135l0.032-0.635
			c0.153,0.046,0.316,0.088,0.468,0.135l0.032-0.635c0.153,0.046,0.316,0.088,0.468,0.135l0.032-0.635
			c0.153,0.046,0.316,0.088,0.468,0.135l0.032-0.635c0.153,0.046,0.316,0.088,0.468,0.135L327.222,94.112z"/>
	</g>
	<g>
		<path fill="#FFFFFF" d="M212.002,389.796V233.011h-27.04v-46.574h27.04v-7.908c0-24.536,7.481-51.563,25.378-68.2
			c16.221-14.968,37.843-20.377,56.563-20.377c13.721,0,24.54,2.079,33.279,4.159l-2.499,48.653
			c-5.401-1.661-12.062-2.91-20.381-2.91c-20.799,0-29.538,16.217-29.538,36.184v10.398h40.761v46.574h-40.342v156.785H212.002z"/>
	</g>
</g>
</svg>
