<?xml version="1.0" encoding="utf-8"?>
<!-- Generator: Adobe Illustrator 16.0.3, SVG Export Plug-In . SVG Version: 6.00 Build 0)  -->
<!DOCTYPE svg PUBLIC "-//W3C//DTD SVG 1.1//EN" "http://www.w3.org/Graphics/SVG/1.1/DTD/svg11.dtd">
<svg version="1.1" id="Layer_1" xmlns="http://www.w3.org/2000/svg" xmlns:xlink="http://www.w3.org/1999/xlink" x="0px" y="0px"
	 width="512px" height="512px" viewBox="0 0 512 512" enable-background="new 0 0 512 512" xml:space="preserve">
<g id="BK">
	<g>
		<path fill="#444953" d="M512,100C512,44.771,467.229,0,412,0H100C44.771,0,0,44.771,0,100v312c0,55.229,44.771,100,100,100h312
			c55.229,0,100-44.771,100-100V100z"/>
	</g>
	<g>
		<g>
			<defs>
				<path id="SVGID_1_" d="M512,99.948C512,44.748,467.061,0,411.853,0H99.964C44.755,0,0,44.748,0,99.948v311.837
					C0,466.984,44.755,512,99.964,512h311.888C467.061,512,512,466.984,512,411.785V99.948z"/>
			</defs>
			<clipPath id="SVGID_2_">
				<use xlink:href="#SVGID_1_"  overflow="visible"/>
			</clipPath>
			<path clip-path="url(#SVGID_2_)" fill="#353A42" enable-background="new    " d="M375.526,255.921
				c-8.886-11.598-21.25-20.117-37.063-25.575c0.115-0.116,0.229-0.235,0.346-0.353c0.168-0.165,0.334-0.333,0.5-0.5
				c0.168-0.165,0.334-0.333,0.5-0.5c0.168-0.165,0.334-0.333,0.5-0.5c0.168-0.165,0.334-0.333,0.5-0.5
				c0.168-0.165,0.334-0.333,0.5-0.5c0.168-0.165,0.334-0.333,0.5-0.5c0.168-0.165,0.334-0.333,0.5-0.5
				c0.168-0.165,0.334-0.333,0.5-0.5c0.168-0.165,0.334-0.333,0.5-0.5c0.168-0.165,0.334-0.333,0.5-0.5
				c0.168-0.165,0.334-0.333,0.5-0.5c0.168-0.165,0.334-0.333,0.5-0.5c0.168-0.165,0.334-0.333,0.5-0.5
				c0.168-0.165,0.334-0.333,0.5-0.5c0.168-0.165,0.334-0.333,0.5-0.5c0.168-0.165,0.334-0.333,0.5-0.5
				c0.168-0.165,0.334-0.333,0.5-0.5c0.168-0.165,0.334-0.333,0.5-0.5c0.168-0.165,0.334-0.333,0.5-0.5
				c0.168-0.165,0.334-0.333,0.5-0.5c0.168-0.165,0.334-0.333,0.5-0.5c0.168-0.165,0.334-0.333,0.5-0.5
				c0.168-0.165,0.334-0.333,0.5-0.5c0.168-0.165,0.334-0.333,0.5-0.5c0.168-0.165,0.334-0.333,0.5-0.5
				c0.168-0.165,0.334-0.333,0.5-0.5c0.168-0.165,0.334-0.333,0.5-0.5c0.168-0.165,0.334-0.333,0.5-0.5
				c0.168-0.165,0.334-0.333,0.5-0.5c0.168-0.165,0.334-0.333,0.5-0.5c0.168-0.165,0.334-0.333,0.5-0.5
				c3.68-3.625,6.97-7.677,9.862-12.16c7.569-11.725,11.354-24.61,11.354-38.656c0-12.953-3.07-24.646-9.206-35.078
				c-6.138-10.431-13.808-18.781-23.013-25.055c-9.206-6.27-19.638-10.499-31.299-12.477C300.349,89.094,282.654,88,258.924,88H139
				v1l0,0l0,0h-1v1l0,0l0,0h-1v1l0,0l0,0h-1v1l0,0l0,0h-1v1l0,0l0,0h-1v1l0,0l0,0h-1v1l0,0l0,0h-1v1l0,0l0,0h-1v1l0,0l0,0h-1v1l0,0
				l0,0h-1v1l0,0l0,0h-1v1l0,0l0,0h-1v1l0,0l0,0h-1v1l0,0l0,0h-1v1l0,0l0,0h-1v1l0,0l0,0h-1v1l0,0l0,0h-1v1l0,0l0,0h-1v1l0,0l0,0h-1
				v1l0,0l0,0h-1v1l0,0l0,0h-1v1l0,0l0,0h-1v1l0,0l0,0h-1v1l0,0l0,0h-1v1l0,0l0,0h-1v1l0,0l0,0h-1v1l0,0l0,0h-1v1l0,0l0,0h-1v1l0,0
				l0,0h-1v1l0,0l0,0h-1v1l0,0l0,0h-1v1l0,0l0,0h-1v1l0,0l0,0h-1v1l0,0l0,0h-1v1l0,0l0,0h-1v1l0,0l0,0h-1v1l0,0l0,0h-1v1l0,0l0,0h-1
				v1l0,0l0,0h-1v1l0,0l0,0h-1v1l0,0l0,0h-1v1l0,0l0,0h-1v1l0,0l0,0h-1v1l0,0l0,0h-1v1l0,0l0,0h-1v1l0,0l0,0h-1v1l0,0l0,0h-1v1l0,0
				l0,0h-1v1l0,0l0,0h-1v1l0,0l0,0h-1v1l0,0l0,0h-1v1l0,0l0,0h-1v1l0,0l0,0h-1v1l0,0l0,0h-1v1l0,0l0,0h-1v1l0,0l0,0h-1v1l0,0l0,0h-1
				v1l0,0l0,0h-1v1l0,0l0,0h-1v1l0,0l0,0h-1v1l0,0l0,0h-1v1l0,0l0,0h-1v1l0,0l0,0h-1v1l0,0l0,0h-1v1l0,0l0,0h-1v1l0,0l0,0h-1v1l0,0
				l0,0h-1v1l0,0l0,0h-1v1l0,0l0,0h-1v1l0,0l0,0h-1v1l0,0l0,0h-1v1l0,0l0,0h-1v1l0,0l0,0h-1v1l0,0l0,0h-1v1l0,0l0,0h-1v1l0,0l0,0h-1
				v1l0,0l0,0h-1v1l0,0l0,0h-1v1l0,0l0,0h-1v1l0,0l0,0h-1v1l0,0l0,0h-1v1l0,0l0,0h-1v1l0,0l0,0h-1v1l0,0l0,0h-1v1l0,0l0,0h-1v1l0,0
				l0,0h-1v1l0,0l0,0h-1v1l0,0l0,0h-1v1l0,0l0,0h-1v1l0,0l0,0h-1v1l0,0l0,0h-1v1l0,0l0,0h-1v1l0,0l0,0h-1v1l0,0l0,0h-1v1l0,0l0,0h-1
				v1l0,0l0,0h-1v1l0,0l0,0h-1v1l0,0l0,0h-1v1l0,0l0,0h-1v1l0,0l0,0h-1v1l0,0l0,0h-1v1l0,0l0,0h-1v1l0,0l0,0h-1v1l0,0l0,0h-1v1l0,0
				l0,0h-1v1l0,0l0,0h-1v1l0,0l0,0h-1v1l0,0l0,0h-1v1l0,0l0,0h-1v1l0,0l0,0h-1v1l0,0l0,0h-1v1l0,0l0,0h-1v1l0,0l0,0h-1v1l0,0l0,0h-1
				v1l0,0l0,0h-1v1l0,0l0,0h-1v1l0,0l0,0h-1v1l0,0l0,0h-1v1l0,0l0,0h-1v1l0,0l0,0h-1v1l0,0l0,0h-1v1l0,0l0,0h-1v1l0,0l0,0h-1v1l0,0
				l0,0h-1v1l0,0l0,0h-1v1l0,0l0,0h-1v1l0,0l0,0h-1v1l0,0l0,0h-1v1l0,0l0,0h-1v1l0,0l0,0H9v1l0,0l0,0H8v1l0,0l0,0H7v1l0,0l0,0H6v1
				l0,0l0,0H5v1l0,0l0,0H4v1l0,0l0,0H3v1l0,0l0,0H2v1l0,0l0,0H1v1l0,0l0,0H0v1l0,0l0,0h-1v1l0,0l0,0h-1v1l0,0l0,0h-1v1l0,0l0,0h-1v1
				l0,0l0,0h-1v1l0,0l0,0h-1v1l0,0l0,0h-1v1l0,0l0,0h-1v1l0,0l0,0h-1v1l0,0l0,0h-1v1l0,0l0,0h-1v1l0,0l0,0h-1v1l0,0l0,0h-1v1l0,0
				l0,0h-1v1l0,0l0,0h-1v1l0,0l0,0h-1v1l0,0l0,0h-1v1l0,0l0,0h-1v1l0,0l0,0h-1v1l0,0l0,0h-1v1l0,0l0,0h-1v1l0,0l0,0h-1v1l0,0l0,0h-1
				v1l0,0l0,0h-1v1l0,0l0,0h-1v1l0,0l0,0h-1v1l0,0l0,0h-1v1l0,0l0,0h-1v1l0,0l0,0h-1v1l0,0l0,0h-1v1l0,0l0,0h-1v1l0,0l0,0h-1v1l0,0
				l0,0h-1v1l0,0l0,0h-1v1l0,0l0,0h-1v1l0,0l0,0h-1v1l0,0l0,0h-1v1l0,0l0,0h-1v1l0,0l0,0h-1v1l0,0l0,0h-1v1l0,0l0,0h-1v1l0,0l0,0h-1
				v1l0,0l0,0h-1v1l0,0l0,0h-1v1l0,0l0,0h-1v1l0,0l0,0h-1v1l0,0l0,0h-1v1l0,0l0,0h-1v1l0,0l0,0h-1v1l0,0l0,0h-1v1l0,0l0,0h-1v1l0,0
				l0,0h-1v1l0,0l0,0h-1v1l0,0l0,0h-1v1l0,0l0,0h-1v1l0,0l0,0h-1v1l0,0l0,0h-1v1l0,0l0,0h-1v1l0,0l0,0h-1v1l0,0l0,0h-1v1l0,0l0,0h-1
				v1l0,0l0,0h-1v1l0,0l0,0h-1v1l0,0l0,0h-1v1l0,0l0,0h-1v1l0,0l0,0h-1v1l0,0l0,0h-1v1l0,0l0,0h-1v1l0,0l0,0h-1v1l0,0l0,0h-1v1l0,0
				l0,0h-1v300H31.127c38.591,0,62.935-0.928,73.03-2.021c16.091-1.771,29.627-6.497,40.604-14.202
				c3.592-2.521,6.931-5.317,10.027-8.395c0.168-0.165,0.333-0.331,0.5-0.497c0.168-0.165,0.333-0.333,0.5-0.499
				c0.168-0.165,0.333-0.333,0.5-0.499c0.168-0.165,0.333-0.333,0.5-0.499c0.168-0.165,0.333-0.334,0.5-0.5
				c0.168-0.165,0.333-0.334,0.5-0.5c0.168-0.165,0.333-0.334,0.5-0.5c0.168-0.165,0.333-0.334,0.5-0.5
				c0.168-0.165,0.333-0.334,0.5-0.5c0.168-0.165,0.333-0.334,0.5-0.5c0.168-0.165,0.333-0.334,0.5-0.5
				c0.168-0.165,0.333-0.334,0.5-0.5c0.168-0.165,0.333-0.334,0.5-0.5c0.168-0.165,0.333-0.334,0.5-0.5
				c0.168-0.165,0.333-0.334,0.5-0.5c0.168-0.165,0.333-0.334,0.5-0.5c0.168-0.165,0.333-0.334,0.5-0.5
				c0.168-0.165,0.333-0.334,0.5-0.5c0.168-0.165,0.333-0.334,0.5-0.5c0.168-0.165,0.333-0.334,0.5-0.5
				c0.168-0.165,0.333-0.334,0.5-0.5c0.168-0.165,0.333-0.334,0.5-0.5c0.168-0.165,0.333-0.334,0.5-0.5
				c0.168-0.165,0.333-0.334,0.5-0.5c0.168-0.165,0.333-0.334,0.5-0.5c0.168-0.165,0.333-0.334,0.5-0.5
				c0.168-0.165,0.333-0.334,0.5-0.5c0.168-0.165,0.333-0.334,0.5-0.5c0.168-0.165,0.333-0.334,0.5-0.5
				c0.168-0.165,0.333-0.334,0.5-0.5c0.168-0.165,0.333-0.334,0.5-0.5c0.168-0.165,0.333-0.334,0.5-0.5
				c0.168-0.165,0.333-0.334,0.5-0.5c0.168-0.165,0.333-0.334,0.5-0.5c0.168-0.165,0.333-0.334,0.5-0.5
				c0.168-0.165,0.333-0.334,0.5-0.5c0.168-0.165,0.333-0.334,0.5-0.5c0.168-0.165,0.333-0.334,0.5-0.5
				c0.168-0.165,0.333-0.334,0.5-0.5c0.168-0.165,0.333-0.334,0.5-0.5c0.168-0.165,0.333-0.334,0.5-0.5
				c0.168-0.165,0.333-0.334,0.5-0.5c0.168-0.165,0.333-0.334,0.5-0.5c0.168-0.165,0.333-0.334,0.5-0.5
				c0.168-0.165,0.333-0.334,0.5-0.5c0.168-0.165,0.333-0.334,0.5-0.5c0.168-0.165,0.333-0.334,0.5-0.5
				c0.168-0.165,0.333-0.334,0.5-0.5c0.168-0.165,0.333-0.334,0.5-0.5c0.168-0.165,0.333-0.334,0.5-0.5
				c0.168-0.165,0.333-0.334,0.5-0.5c0.168-0.165,0.333-0.334,0.5-0.5c0.168-0.165,0.333-0.334,0.5-0.5
				c0.168-0.165,0.333-0.334,0.5-0.5c0.168-0.165,0.333-0.334,0.5-0.5c0.168-0.165,0.333-0.334,0.5-0.5
				c0.168-0.165,0.333-0.334,0.5-0.5c0.168-0.165,0.333-0.334,0.5-0.5c0.168-0.165,0.333-0.334,0.5-0.5
				c0.168-0.165,0.333-0.334,0.5-0.5c0.168-0.165,0.333-0.334,0.5-0.5c0.168-0.165,0.333-0.334,0.5-0.5
				c0.168-0.165,0.333-0.334,0.5-0.5c0.168-0.165,0.333-0.334,0.5-0.5c0.168-0.165,0.333-0.334,0.5-0.5
				c0.168-0.165,0.333-0.334,0.5-0.5c0.168-0.165,0.333-0.334,0.5-0.5c0.168-0.165,0.333-0.334,0.5-0.5
				c0.168-0.165,0.333-0.334,0.5-0.5c0.168-0.165,0.333-0.334,0.5-0.5c0.168-0.165,0.333-0.334,0.5-0.5
				c0.168-0.165,0.333-0.334,0.5-0.5c0.168-0.165,0.333-0.334,0.5-0.5c0.168-0.165,0.333-0.334,0.5-0.5
				c0.168-0.165,0.333-0.334,0.5-0.5c0.168-0.165,0.333-0.334,0.5-0.5c0.168-0.165,0.333-0.334,0.5-0.5
				c0.168-0.165,0.333-0.334,0.5-0.5c0.168-0.165,0.333-0.334,0.5-0.5c0.168-0.165,0.333-0.334,0.5-0.5
				c0.168-0.165,0.333-0.334,0.5-0.5c0.168-0.165,0.333-0.334,0.5-0.5c0.168-0.165,0.333-0.334,0.5-0.5
				c0.168-0.165,0.333-0.334,0.5-0.5c0.168-0.165,0.333-0.334,0.5-0.5c0.168-0.165,0.333-0.334,0.5-0.5
				c0.168-0.165,0.333-0.334,0.5-0.5c0.168-0.165,0.333-0.334,0.5-0.5c0.168-0.165,0.333-0.334,0.5-0.5
				c0.168-0.165,0.333-0.334,0.5-0.5c0.168-0.165,0.333-0.334,0.5-0.5c0.168-0.165,0.333-0.334,0.5-0.5
				c0.168-0.165,0.333-0.334,0.5-0.5c0.168-0.165,0.333-0.334,0.5-0.5c0.168-0.165,0.333-0.334,0.5-0.5
				c0.168-0.165,0.333-0.334,0.5-0.5c0.168-0.165,0.333-0.334,0.5-0.5c0.168-0.165,0.333-0.334,0.5-0.5
				c0.168-0.165,0.333-0.334,0.5-0.5c0.168-0.165,0.333-0.334,0.5-0.5c0.168-0.165,0.333-0.334,0.5-0.5
				c0.168-0.165,0.333-0.334,0.5-0.5c0.168-0.165,0.333-0.334,0.5-0.5c0.168-0.165,0.333-0.334,0.5-0.5
				c0.168-0.165,0.333-0.334,0.5-0.5c0.168-0.165,0.333-0.334,0.5-0.5c0.168-0.165,0.333-0.334,0.5-0.5
				c0.168-0.165,0.333-0.334,0.5-0.5c0.168-0.165,0.333-0.334,0.5-0.5c0.168-0.165,0.333-0.334,0.5-0.5
				c0.168-0.165,0.333-0.334,0.5-0.5c0.168-0.165,0.333-0.334,0.5-0.5c0.168-0.165,0.333-0.334,0.5-0.5
				c0.168-0.165,0.333-0.334,0.5-0.5c0.168-0.165,0.333-0.334,0.5-0.5c0.168-0.165,0.333-0.334,0.5-0.5
				c0.168-0.165,0.333-0.334,0.5-0.5c0.168-0.165,0.333-0.334,0.5-0.5c0.168-0.165,0.333-0.334,0.5-0.5
				c0.168-0.165,0.333-0.334,0.5-0.5c0.168-0.165,0.333-0.334,0.5-0.5c0.168-0.165,0.333-0.334,0.5-0.5
				c0.168-0.165,0.333-0.334,0.5-0.5c0.168-0.165,0.333-0.334,0.5-0.5c0.168-0.165,0.333-0.334,0.5-0.5
				c0.168-0.165,0.333-0.334,0.5-0.5c0.168-0.165,0.333-0.334,0.5-0.5c0.168-0.165,0.333-0.334,0.5-0.5
				c0.168-0.165,0.333-0.334,0.5-0.5c0.168-0.165,0.333-0.334,0.5-0.5c0.168-0.165,0.333-0.334,0.5-0.5
				c0.168-0.165,0.333-0.334,0.5-0.5c0.168-0.165,0.333-0.334,0.5-0.5c0.168-0.165,0.333-0.334,0.5-0.5
				c0.168-0.165,0.333-0.334,0.5-0.5c0.168-0.165,0.333-0.334,0.5-0.5c0.168-0.165,0.333-0.334,0.5-0.5
				c0.168-0.165,0.333-0.334,0.5-0.5c0.168-0.165,0.333-0.334,0.5-0.5c0.168-0.165,0.333-0.334,0.5-0.5
				c0.168-0.165,0.333-0.334,0.5-0.5c0.168-0.165,0.333-0.334,0.5-0.5c0.168-0.165,0.333-0.334,0.5-0.5
				c0.168-0.165,0.333-0.334,0.5-0.5c0.168-0.165,0.333-0.334,0.5-0.5c0.168-0.165,0.333-0.334,0.5-0.5
				c0.168-0.165,0.333-0.334,0.5-0.5c0.168-0.165,0.333-0.334,0.5-0.5c0.168-0.165,0.333-0.334,0.5-0.5
				c0.168-0.165,0.333-0.334,0.5-0.5c0.168-0.165,0.333-0.334,0.5-0.5c0.168-0.165,0.333-0.334,0.5-0.5
				c0.168-0.165,0.333-0.334,0.5-0.5c0.168-0.165,0.333-0.334,0.5-0.5c0.168-0.165,0.333-0.334,0.5-0.5
				c0.168-0.165,0.333-0.334,0.5-0.5c0.168-0.165,0.333-0.334,0.5-0.5c0.168-0.165,0.333-0.334,0.5-0.5
				c0.168-0.165,0.333-0.334,0.5-0.5c0.168-0.165,0.333-0.334,0.5-0.5c0.168-0.165,0.333-0.334,0.5-0.5
				c0.168-0.165,0.333-0.334,0.5-0.5c0.168-0.165,0.333-0.334,0.5-0.5c0.168-0.165,0.333-0.334,0.5-0.5
				c0.168-0.165,0.333-0.334,0.5-0.5c0.168-0.165,0.333-0.334,0.5-0.5c0.168-0.165,0.333-0.334,0.5-0.5
				c0.168-0.165,0.333-0.334,0.5-0.5c0.168-0.165,0.333-0.334,0.5-0.5c0.168-0.165,0.333-0.334,0.5-0.5
				c0.168-0.165,0.333-0.334,0.5-0.5c0.168-0.165,0.333-0.334,0.5-0.5c0.168-0.165,0.333-0.334,0.5-0.5
				c0.168-0.165,0.333-0.334,0.5-0.5c0.168-0.165,0.333-0.334,0.5-0.5c0.168-0.165,0.333-0.334,0.5-0.5
				c0.168-0.165,0.333-0.334,0.5-0.5c0.168-0.165,0.333-0.334,0.5-0.5c0.168-0.165,0.333-0.334,0.5-0.5
				c0.168-0.165,0.333-0.334,0.5-0.5c0.168-0.165,0.333-0.334,0.5-0.5c0.168-0.165,0.333-0.334,0.5-0.5
				c0.168-0.165,0.333-0.334,0.5-0.5c0.168-0.165,0.333-0.334,0.5-0.5c0.168-0.165,0.333-0.334,0.5-0.5
				c0.168-0.165,0.333-0.334,0.5-0.5c0.168-0.165,0.333-0.334,0.5-0.5c0.168-0.165,0.333-0.334,0.5-0.5
				c0.168-0.165,0.333-0.334,0.5-0.5c0.168-0.165,0.333-0.334,0.5-0.5c0.168-0.165,0.333-0.334,0.5-0.5
				c0.168-0.165,0.333-0.334,0.5-0.5c0.168-0.165,0.333-0.334,0.5-0.5c0.169-0.165,0.333-0.334,0.5-0.5
				c0.169-0.165,0.333-0.334,0.5-0.5c0.169-0.165,0.333-0.334,0.5-0.5c0.169-0.165,0.333-0.334,0.5-0.5
				c0.169-0.165,0.333-0.334,0.5-0.5c0.169-0.165,0.333-0.334,0.5-0.5c0.169-0.165,0.333-0.334,0.5-0.5
				c0.169-0.165,0.333-0.334,0.5-0.5c0.169-0.165,0.333-0.334,0.5-0.5c0.169-0.165,0.333-0.334,0.5-0.5
				c0.169-0.165,0.333-0.334,0.5-0.5c0.169-0.165,0.333-0.334,0.5-0.5c0.169-0.165,0.333-0.334,0.5-0.5
				c0.169-0.165,0.333-0.334,0.5-0.5c0.169-0.165,0.333-0.334,0.5-0.5c0.169-0.165,0.333-0.334,0.5-0.5
				c0.169-0.165,0.333-0.334,0.5-0.5c0.169-0.165,0.333-0.334,0.5-0.5c0.169-0.165,0.333-0.334,0.5-0.5
				c0.169-0.165,0.333-0.334,0.5-0.5c0.169-0.165,0.333-0.334,0.5-0.5c0.169-0.165,0.333-0.334,0.5-0.5
				c0.169-0.165,0.333-0.334,0.5-0.5c0.169-0.165,0.333-0.334,0.5-0.5c0.169-0.165,0.333-0.334,0.5-0.5
				c0.169-0.165,0.333-0.334,0.5-0.5c0.169-0.165,0.333-0.334,0.5-0.5c0.169-0.165,0.333-0.334,0.5-0.5
				c0.169-0.165,0.333-0.334,0.5-0.5c0.169-0.165,0.333-0.334,0.5-0.5c0.169-0.165,0.333-0.334,0.5-0.5
				c0.169-0.165,0.333-0.334,0.5-0.5c0.169-0.165,0.333-0.334,0.5-0.5c0.169-0.165,0.333-0.334,0.5-0.5
				c0.169-0.165,0.333-0.334,0.5-0.5c0.169-0.165,0.333-0.334,0.5-0.5c0.169-0.165,0.333-0.334,0.5-0.5
				c0.169-0.165,0.333-0.334,0.5-0.5c0.169-0.165,0.333-0.334,0.5-0.5c0.169-0.165,0.333-0.334,0.5-0.5
				c0.169-0.165,0.333-0.334,0.5-0.5c0.169-0.165,0.333-0.334,0.5-0.5c0.169-0.165,0.333-0.334,0.5-0.5
				c0.169-0.165,0.333-0.334,0.5-0.5c0.169-0.165,0.333-0.334,0.5-0.5c0.169-0.165,0.333-0.334,0.5-0.5
				c0.169-0.165,0.333-0.334,0.5-0.5c0.169-0.165,0.333-0.334,0.5-0.5c0.169-0.165,0.333-0.334,0.5-0.5
				c0.169-0.165,0.333-0.334,0.5-0.5c0.169-0.165,0.333-0.334,0.5-0.5c0.169-0.165,0.333-0.334,0.5-0.5
				c0.169-0.165,0.333-0.334,0.5-0.5c0.169-0.165,0.333-0.334,0.5-0.5c0.169-0.165,0.333-0.334,0.5-0.5
				c0.169-0.165,0.333-0.334,0.5-0.5c0.169-0.165,0.333-0.334,0.5-0.5c0.169-0.165,0.333-0.334,0.5-0.5
				c0.169-0.165,0.333-0.334,0.5-0.5c0.169-0.165,0.333-0.334,0.5-0.5c0.169-0.165,0.333-0.334,0.5-0.5
				c0.169-0.165,0.333-0.334,0.5-0.5c0.169-0.165,0.333-0.334,0.5-0.5c0.169-0.165,0.333-0.334,0.5-0.5
				c0.169-0.165,0.333-0.334,0.5-0.5c0.169-0.165,0.333-0.334,0.5-0.5c0.169-0.165,0.333-0.334,0.5-0.5
				c0.169-0.165,0.333-0.334,0.5-0.5c0.169-0.165,0.333-0.334,0.5-0.5c0.169-0.165,0.333-0.334,0.5-0.5
				c0.169-0.165,0.333-0.334,0.5-0.5c0.169-0.165,0.333-0.334,0.5-0.5c0.169-0.165,0.333-0.334,0.5-0.5
				c0.169-0.165,0.333-0.334,0.5-0.5c0.169-0.165,0.333-0.334,0.5-0.5c0.169-0.165,0.333-0.334,0.5-0.5
				c0.169-0.165,0.333-0.334,0.5-0.5c0.169-0.165,0.333-0.334,0.5-0.5c0.169-0.165,0.333-0.334,0.5-0.5
				c0.169-0.165,0.333-0.334,0.5-0.5c0.169-0.165,0.333-0.334,0.5-0.5c0.169-0.165,0.333-0.334,0.5-0.5
				c0.169-0.165,0.333-0.334,0.5-0.5c0.169-0.165,0.333-0.334,0.5-0.5c0.169-0.165,0.333-0.334,0.5-0.5
				c0.169-0.165,0.333-0.334,0.5-0.5c0.169-0.165,0.333-0.334,0.5-0.5c0.169-0.165,0.333-0.334,0.5-0.5
				c0.169-0.165,0.333-0.334,0.5-0.5c0.169-0.165,0.333-0.334,0.5-0.5c0.169-0.165,0.333-0.334,0.5-0.5
				c0.169-0.165,0.333-0.334,0.5-0.5c0.169-0.165,0.332-0.334,0.499-0.5c0.169-0.165,0.333-0.334,0.5-0.5
				c0.169-0.165,0.333-0.334,0.5-0.5c0.169-0.165,0.333-0.334,0.5-0.5c0.169-0.165,0.333-0.334,0.5-0.5
				c0.169-0.165,0.333-0.334,0.5-0.5c0.169-0.165,0.333-0.334,0.5-0.5c0.169-0.165,0.333-0.334,0.5-0.5
				c0.169-0.165,0.333-0.334,0.5-0.5c0.169-0.165,0.333-0.334,0.5-0.5c0.169-0.165,0.333-0.334,0.5-0.5
				c0.169-0.165,0.333-0.334,0.5-0.5c0.169-0.165,0.333-0.334,0.5-0.5c0.169-0.165,0.333-0.334,0.5-0.5
				c0.169-0.165,0.333-0.334,0.5-0.5c0.169-0.165,0.333-0.334,0.5-0.5c0.169-0.165,0.333-0.334,0.5-0.5
				c0.169-0.165,0.333-0.334,0.5-0.5c0.169-0.165,0.333-0.334,0.5-0.5c0.169-0.165,0.333-0.334,0.5-0.5
				c0.169-0.165,0.333-0.334,0.5-0.5c0.169-0.165,0.333-0.334,0.5-0.5c0.169-0.165,0.333-0.334,0.5-0.5
				c0.169-0.165,0.333-0.334,0.5-0.5c0.169-0.165,0.333-0.334,0.5-0.5c0.169-0.165,0.333-0.334,0.5-0.5
				c0.169-0.165,0.333-0.334,0.5-0.5c0.169-0.165,0.333-0.334,0.5-0.5c0.169-0.165,0.333-0.334,0.5-0.5
				c0.169-0.165,0.333-0.334,0.5-0.5c0.169-0.165,0.333-0.334,0.5-0.5c0.169-0.165,0.333-0.334,0.5-0.5
				c0.169-0.165,0.333-0.334,0.5-0.5c0.169-0.165,0.333-0.334,0.5-0.5c0.169-0.165,0.333-0.334,0.5-0.5
				c0.169-0.165,0.333-0.334,0.5-0.5c0.169-0.165,0.333-0.334,0.5-0.5c0.169-0.165,0.333-0.334,0.5-0.5
				c0.169-0.165,0.333-0.334,0.5-0.5c0.169-0.165,0.333-0.334,0.5-0.5c0.169-0.165,0.333-0.334,0.5-0.5
				c0.169-0.165,0.333-0.334,0.5-0.5c0.169-0.165,0.333-0.334,0.5-0.5c0.169-0.165,0.333-0.334,0.5-0.5
				c0.169-0.165,0.333-0.334,0.5-0.5c0.169-0.165,0.333-0.334,0.5-0.5c0.169-0.165,0.333-0.334,0.5-0.5
				c0.169-0.165,0.333-0.334,0.5-0.5c0.169-0.165,0.333-0.334,0.5-0.5c0.169-0.165,0.333-0.334,0.5-0.5
				c0.169-0.165,0.333-0.334,0.5-0.5c0.169-0.165,0.333-0.334,0.5-0.5c0.169-0.165,0.333-0.334,0.5-0.5
				c0.169-0.165,0.333-0.334,0.5-0.5c0.169-0.165,0.333-0.334,0.5-0.5c0.169-0.165,0.333-0.334,0.5-0.5
				c0.169-0.165,0.333-0.334,0.5-0.5c0.169-0.165,0.333-0.334,0.5-0.5c0.169-0.165,0.333-0.334,0.5-0.5
				c0.169-0.165,0.333-0.334,0.5-0.5c0.169-0.165,0.333-0.334,0.5-0.5c0.169-0.165,0.333-0.334,0.5-0.5
				c0.169-0.165,0.333-0.334,0.5-0.5c0.169-0.165,0.333-0.334,0.5-0.5c0.169-0.165,0.333-0.334,0.5-0.5
				c0.169-0.165,0.333-0.334,0.5-0.5c0.169-0.165,0.333-0.334,0.5-0.5c0.169-0.165,0.333-0.334,0.5-0.5
				c0.169-0.165,0.333-0.334,0.5-0.5c0.169-0.165,0.333-0.334,0.5-0.5c0.169-0.165,0.333-0.334,0.5-0.5
				c0.169-0.165,0.333-0.334,0.5-0.5c0.169-0.165,0.333-0.334,0.5-0.5c0.169-0.165,0.333-0.334,0.5-0.5
				c0.169-0.165,0.333-0.334,0.5-0.5c0.169-0.165,0.333-0.334,0.5-0.5c0.169-0.165,0.333-0.334,0.5-0.5
				c0.169-0.165,0.333-0.334,0.5-0.5c0.169-0.165,0.333-0.334,0.5-0.5c0.169-0.165,0.333-0.334,0.5-0.5
				c0.169-0.165,0.333-0.334,0.5-0.5c0.169-0.165,0.333-0.334,0.5-0.5c0.169-0.165,0.333-0.334,0.5-0.5
				c0.169-0.165,0.333-0.334,0.5-0.5c0.169-0.165,0.333-0.334,0.5-0.5c0.169-0.165,0.333-0.334,0.5-0.5
				c0.169-0.165,0.333-0.334,0.5-0.5c0.169-0.165,0.333-0.334,0.5-0.5c0.169-0.165,0.333-0.334,0.5-0.5
				c0.169-0.165,0.333-0.334,0.5-0.5c0.169-0.165,0.333-0.334,0.5-0.5c0.169-0.165,0.333-0.334,0.5-0.5
				c0.169-0.165,0.333-0.334,0.5-0.5c0.169-0.165,0.333-0.334,0.5-0.5c0.169-0.165,0.333-0.334,0.5-0.5
				c0.169-0.165,0.333-0.334,0.5-0.5c0.169-0.165,0.333-0.334,0.5-0.5c0.169-0.165,0.333-0.334,0.5-0.5
				c0.169-0.165,0.333-0.334,0.5-0.5c0.169-0.165,0.333-0.334,0.5-0.5c0.169-0.165,0.333-0.334,0.5-0.5
				c0.169-0.165,0.333-0.334,0.5-0.5c0.169-0.165,0.333-0.334,0.5-0.5c0.169-0.165,0.333-0.334,0.5-0.5
				c0.169-0.165,0.333-0.334,0.5-0.5c0.169-0.165,0.333-0.334,0.5-0.5c0.169-0.165,0.333-0.334,0.5-0.5
				c0.169-0.165,0.333-0.334,0.5-0.5c0.169-0.165,0.333-0.334,0.5-0.5c0.169-0.165,0.333-0.334,0.5-0.5
				c0.169-0.165,0.333-0.334,0.5-0.5c0.169-0.165,0.333-0.334,0.5-0.5c0.169-0.165,0.333-0.334,0.5-0.5
				c0.169-0.165,0.333-0.334,0.5-0.5c0.169-0.165,0.333-0.334,0.5-0.5c0.169-0.165,0.333-0.334,0.5-0.5
				c0.169-0.165,0.333-0.334,0.5-0.5c0.169-0.165,0.333-0.334,0.5-0.5c0.169-0.165,0.333-0.334,0.5-0.5
				c0.169-0.165,0.333-0.334,0.5-0.5c0.169-0.165,0.333-0.334,0.5-0.5c0.169-0.165,0.333-0.334,0.5-0.5
				c0.169-0.165,0.333-0.334,0.5-0.5c0.169-0.165,0.333-0.334,0.5-0.5c0.169-0.165,0.333-0.334,0.5-0.5
				c0.169-0.165,0.333-0.334,0.5-0.5c0.169-0.165,0.333-0.334,0.5-0.5c0.169-0.165,0.333-0.334,0.5-0.5
				c0.169-0.165,0.333-0.334,0.5-0.5c0.169-0.165,0.333-0.334,0.5-0.5c0.169-0.165,0.333-0.334,0.5-0.5
				c0.169-0.165,0.333-0.334,0.5-0.5c0.169-0.165,0.333-0.334,0.5-0.5c0.169-0.165,0.333-0.334,0.5-0.5
				c6.589-6.427,12.073-14.087,16.452-22.983c6.341-12.885,9.515-26.145,9.515-39.781
				C390.256,283.809,385.346,268.739,375.526,255.921z"/>
		</g>
	</g>
	<g>
		<path fill="#FFFFFF" d="M139.049,88.206h119.875c23.729,0,41.425,0.991,53.085,2.965c11.661,1.978,22.093,6.104,31.299,12.374
			c9.205,6.274,16.875,14.625,23.013,25.055c6.136,10.432,9.206,22.125,9.206,35.078c0,14.045-3.784,26.931-11.354,38.656
			c-7.568,11.729-17.83,20.524-30.787,26.385c18.273,5.318,32.323,14.388,42.142,27.202c9.819,12.818,14.729,27.888,14.729,45.201
			c0,13.638-3.173,26.896-9.515,39.782c-6.342,12.886-15.004,23.182-25.979,30.884c-10.979,7.705-24.516,12.444-40.605,14.215
			c-10.095,1.095-34.438,1.774-73.029,2.046h-102.08V88.206z M199.6,138.111v69.336h39.687c23.591,0,38.254-0.339,43.98-1.022
			c10.362-1.228,18.514-4.807,24.445-10.738c5.932-5.932,8.898-13.736,8.898-23.419c0-9.271-2.557-16.804-7.673-22.601
			c-5.114-5.794-12.718-9.306-22.809-10.534c-6.003-0.68-23.254-1.023-51.755-1.023L199.6,138.111L199.6,138.111z M199.6,257.354
			v80.176h56.051c21.817,0,35.661-0.612,41.527-1.842c9-1.636,16.329-5.623,21.99-11.963c5.657-6.342,8.488-14.828,8.488-25.465
			c0-9-2.184-16.636-6.548-22.906c-4.365-6.271-10.671-10.843-18.92-13.705c-8.254-2.862-26.151-4.295-53.697-4.295H199.6
			L199.6,257.354z"/>
	</g>
</g>
</svg>
