<?xml version="1.0" encoding="utf-8"?>
<!-- Generator: Adobe Illustrator 16.0.3, SVG Export Plug-In . SVG Version: 6.00 Build 0)  -->
<!DOCTYPE svg PUBLIC "-//W3C//DTD SVG 1.1//EN" "http://www.w3.org/Graphics/SVG/1.1/DTD/svg11.dtd">
<svg version="1.1" id="Layer_1" xmlns="http://www.w3.org/2000/svg" xmlns:xlink="http://www.w3.org/1999/xlink" x="0px" y="0px"
	 width="512px" height="512px" viewBox="0 0 512 512" enable-background="new 0 0 512 512" xml:space="preserve">
<g id="Facebook">
	<path fill="#444953" class="bg" d="M512,100C512,44.771,467.229,0,412,0H100C44.771,0,0,44.771,0,100v312c0,55.229,44.771,100,100,100h312
		c55.229,0,100-44.771,100-100V100z"/>
	<g>
		<g>
			<defs>
				<path id="SVGID_1_" d="M512,99.948C512,44.748,467.283,0,412.074,0H99.963C44.755,0,0,44.748,0,99.948v312.063
					C0,467.21,44.755,512,99.963,512h312.111C467.283,512,512,467.21,512,412.011V99.948z"/>
			</defs>
			<clipPath id="SVGID_2_">
				<use xlink:href="#SVGID_1_"  overflow="visible"/>
			</clipPath>
			<path clip-path="url(#SVGID_2_)" fill="#353A42" class="shadow" enable-background="new    " d="M327.22,94.112
				c-8.739-2.08-19.559-4.159-33.279-4.159c-18.72,0-40.342,5.409-56.563,20.377c-0.644,0.598-1.27,1.212-1.885,1.836
				c-0.167,0.166-0.334,0.332-0.5,0.5c-0.167,0.166-0.334,0.332-0.5,0.5c-0.167,0.166-0.334,0.332-0.5,0.5
				c-0.167,0.166-0.334,0.332-0.5,0.5c-0.167,0.166-0.334,0.332-0.5,0.5c-0.167,0.166-0.334,0.332-0.5,0.5
				c-0.167,0.166-0.334,0.332-0.5,0.5c-0.167,0.166-0.334,0.332-0.5,0.5c-0.167,0.166-0.334,0.332-0.5,0.5
				c-0.167,0.166-0.334,0.332-0.5,0.5c-0.167,0.166-0.334,0.332-0.5,0.5c-0.167,0.166-0.334,0.332-0.5,0.5
				c-0.167,0.166-0.334,0.332-0.5,0.5c-0.167,0.166-0.334,0.332-0.5,0.5c-0.167,0.166-0.334,0.332-0.5,0.5
				c-0.167,0.166-0.334,0.332-0.5,0.5c-0.167,0.166-0.334,0.332-0.5,0.5c-0.167,0.166-0.334,0.332-0.5,0.5
				c-0.167,0.166-0.334,0.332-0.5,0.5c-0.167,0.166-0.334,0.332-0.5,0.5c-0.167,0.166-0.334,0.332-0.5,0.5
				c-0.167,0.166-0.334,0.332-0.5,0.5c-0.167,0.166-0.334,0.332-0.5,0.5c-0.167,0.166-0.334,0.332-0.5,0.5
				c-0.167,0.166-0.334,0.332-0.5,0.5c-0.167,0.166-0.334,0.332-0.5,0.5c-0.167,0.166-0.334,0.332-0.5,0.5
				c-0.167,0.166-0.334,0.332-0.5,0.5c-0.167,0.166-0.334,0.332-0.5,0.5c-0.167,0.166-0.334,0.332-0.5,0.5
				c-0.167,0.166-0.334,0.332-0.5,0.5c-0.167,0.166-0.334,0.332-0.5,0.5c-0.167,0.166-0.334,0.332-0.5,0.5
				c-0.167,0.166-0.334,0.332-0.5,0.5c-0.167,0.166-0.334,0.332-0.5,0.5c-0.167,0.166-0.334,0.332-0.5,0.5
				c-0.167,0.166-0.334,0.332-0.5,0.5c-0.167,0.166-0.334,0.332-0.5,0.5c-0.167,0.166-0.334,0.332-0.5,0.5
				c-0.167,0.166-0.334,0.332-0.5,0.5c-0.167,0.166-0.334,0.332-0.5,0.5c-0.167,0.166-0.334,0.332-0.5,0.5
				c-0.167,0.166-0.334,0.332-0.5,0.5c-0.167,0.166-0.334,0.332-0.5,0.5c-0.167,0.166-0.334,0.332-0.5,0.5
				c-0.167,0.166-0.334,0.332-0.5,0.5c-0.167,0.166-0.334,0.332-0.5,0.5c-0.167,0.166-0.334,0.332-0.5,0.5
				c-0.167,0.166-0.334,0.332-0.5,0.5c-0.167,0.166-0.334,0.332-0.5,0.5c-0.167,0.166-0.334,0.332-0.5,0.5
				c-0.167,0.166-0.334,0.332-0.5,0.5c-0.167,0.166-0.334,0.332-0.5,0.5c-0.167,0.166-0.334,0.332-0.5,0.5
				c-0.167,0.166-0.334,0.332-0.5,0.5c-0.167,0.166-0.334,0.332-0.5,0.5c-0.167,0.166-0.334,0.332-0.5,0.5
				c-0.167,0.166-0.334,0.332-0.5,0.5c-0.167,0.166-0.334,0.332-0.5,0.5c-0.167,0.166-0.334,0.332-0.5,0.5
				c-0.167,0.166-0.334,0.332-0.5,0.5c-0.167,0.166-0.334,0.332-0.5,0.5c-0.167,0.166-0.334,0.332-0.5,0.5
				c-0.167,0.166-0.334,0.332-0.5,0.5c-0.167,0.166-0.334,0.332-0.5,0.5c-0.167,0.166-0.334,0.332-0.5,0.5
				c-0.167,0.166-0.334,0.332-0.5,0.5c-0.167,0.166-0.334,0.332-0.5,0.5c-0.167,0.166-0.334,0.332-0.5,0.5
				c-0.167,0.166-0.334,0.332-0.5,0.5c-0.167,0.166-0.334,0.332-0.5,0.5c-0.167,0.166-0.334,0.332-0.5,0.5
				c-0.167,0.166-0.334,0.332-0.5,0.5c-0.167,0.166-0.334,0.332-0.5,0.5c-0.167,0.166-0.334,0.332-0.5,0.5
				c-0.167,0.166-0.334,0.332-0.5,0.5c-0.167,0.166-0.334,0.332-0.5,0.5c-0.167,0.166-0.334,0.332-0.5,0.5
				c-0.167,0.166-0.334,0.332-0.5,0.5c-0.167,0.166-0.334,0.332-0.5,0.5c-0.167,0.166-0.334,0.332-0.5,0.5
				c-0.167,0.166-0.334,0.332-0.5,0.5c-0.167,0.166-0.334,0.332-0.5,0.5c-0.167,0.166-0.334,0.332-0.5,0.5
				c-0.167,0.166-0.334,0.332-0.5,0.5c-0.167,0.166-0.334,0.332-0.5,0.5c-0.167,0.166-0.334,0.332-0.5,0.5
				c-0.167,0.166-0.334,0.332-0.5,0.5c-0.167,0.166-0.334,0.332-0.5,0.5c-0.167,0.166-0.334,0.332-0.5,0.5
				c-0.167,0.166-0.334,0.332-0.5,0.5c-0.167,0.166-0.334,0.332-0.5,0.5c-0.167,0.166-0.334,0.332-0.5,0.5
				c-0.167,0.166-0.334,0.332-0.5,0.5c-0.167,0.166-0.334,0.332-0.5,0.5c-0.167,0.166-0.334,0.332-0.5,0.5
				c-0.167,0.166-0.334,0.332-0.5,0.5c-0.167,0.166-0.334,0.332-0.5,0.5c-0.167,0.166-0.334,0.332-0.5,0.5
				c-0.167,0.166-0.334,0.332-0.5,0.5c-0.167,0.166-0.334,0.332-0.5,0.5c-0.167,0.166-0.334,0.332-0.5,0.5
				c-0.167,0.166-0.334,0.332-0.5,0.5c-0.167,0.166-0.334,0.332-0.5,0.5c-0.167,0.166-0.334,0.332-0.5,0.5
				c-0.167,0.166-0.334,0.332-0.5,0.5c-0.167,0.166-0.334,0.332-0.5,0.5c-0.167,0.166-0.334,0.332-0.5,0.5
				c-0.167,0.166-0.334,0.332-0.5,0.5c-0.167,0.166-0.334,0.332-0.5,0.5c-0.167,0.166-0.334,0.332-0.5,0.5
				c-0.167,0.166-0.334,0.332-0.5,0.5c-0.167,0.166-0.334,0.332-0.5,0.5c-0.167,0.166-0.334,0.332-0.5,0.5
				c-0.167,0.166-0.334,0.332-0.5,0.5c-0.167,0.166-0.334,0.332-0.5,0.5c-0.167,0.166-0.334,0.332-0.5,0.5
				c-0.167,0.166-0.334,0.332-0.5,0.5c-0.167,0.166-0.334,0.332-0.5,0.5c-0.167,0.166-0.334,0.332-0.5,0.5
				c-0.167,0.166-0.334,0.332-0.5,0.5c-0.167,0.166-0.334,0.332-0.5,0.5c-0.167,0.166-0.334,0.332-0.5,0.5
				c-0.167,0.166-0.334,0.332-0.5,0.5c-0.167,0.166-0.334,0.332-0.5,0.5c-0.167,0.166-0.334,0.332-0.5,0.5
				c-0.167,0.166-0.334,0.332-0.5,0.5c-0.167,0.166-0.334,0.332-0.5,0.5c-0.167,0.166-0.334,0.332-0.5,0.5
				c-0.167,0.166-0.334,0.332-0.5,0.5c-0.167,0.166-0.334,0.332-0.5,0.5c-0.167,0.166-0.334,0.332-0.5,0.5
				c-0.167,0.166-0.334,0.332-0.5,0.5c-0.167,0.166-0.334,0.332-0.5,0.5c-0.167,0.166-0.334,0.332-0.5,0.5
				c-0.167,0.166-0.334,0.332-0.5,0.5c-0.167,0.166-0.334,0.332-0.5,0.5c-0.167,0.166-0.334,0.332-0.5,0.5
				c-0.167,0.166-0.334,0.332-0.5,0.5c-0.167,0.166-0.334,0.332-0.5,0.5c-0.167,0.166-0.334,0.332-0.5,0.5
				c-0.167,0.166-0.334,0.332-0.5,0.5c-0.167,0.166-0.334,0.332-0.5,0.5c-0.167,0.166-0.334,0.332-0.5,0.5
				c-0.167,0.166-0.334,0.332-0.5,0.5c-0.167,0.166-0.334,0.332-0.5,0.5c-0.167,0.166-0.334,0.332-0.5,0.5
				c-0.167,0.166-0.334,0.332-0.5,0.5c-0.167,0.166-0.334,0.332-0.5,0.5c-0.167,0.166-0.334,0.332-0.5,0.5
				c-0.167,0.166-0.334,0.332-0.5,0.5c-0.167,0.166-0.334,0.332-0.5,0.5c-0.167,0.166-0.334,0.332-0.5,0.5
				c-0.167,0.166-0.334,0.332-0.5,0.5c-0.167,0.166-0.334,0.332-0.5,0.5c-0.167,0.166-0.334,0.332-0.5,0.5
				c-0.167,0.166-0.334,0.332-0.5,0.5c-0.167,0.166-0.334,0.332-0.5,0.5c-0.167,0.166-0.334,0.332-0.5,0.5
				c-0.167,0.166-0.334,0.332-0.5,0.5c-0.167,0.166-0.334,0.332-0.5,0.5c-0.167,0.166-0.334,0.332-0.5,0.5
				c-0.167,0.166-0.334,0.332-0.5,0.5c-0.167,0.166-0.334,0.332-0.5,0.5c-0.167,0.166-0.334,0.332-0.5,0.5
				c-0.167,0.166-0.334,0.332-0.5,0.5c-0.167,0.166-0.334,0.332-0.5,0.5c-0.167,0.166-0.334,0.332-0.5,0.5
				c-0.167,0.166-0.334,0.332-0.5,0.5c-0.167,0.166-0.334,0.332-0.5,0.5c-0.167,0.166-0.334,0.332-0.5,0.5
				c-0.167,0.166-0.334,0.332-0.5,0.5c-0.167,0.166-0.334,0.332-0.5,0.5c-0.167,0.166-0.334,0.332-0.5,0.5
				c-0.167,0.166-0.334,0.332-0.5,0.5c-0.167,0.166-0.334,0.332-0.5,0.5c-0.167,0.166-0.334,0.332-0.5,0.5
				c-0.167,0.166-0.334,0.332-0.5,0.5c-0.167,0.166-0.334,0.332-0.5,0.5c-0.167,0.166-0.334,0.332-0.5,0.5
				c-0.167,0.166-0.334,0.332-0.5,0.5c-0.167,0.166-0.334,0.332-0.5,0.5c-0.167,0.166-0.334,0.332-0.5,0.5
				c-0.167,0.166-0.334,0.332-0.5,0.5c-0.167,0.166-0.334,0.332-0.5,0.5c-0.167,0.166-0.334,0.332-0.5,0.5
				c-0.167,0.166-0.334,0.332-0.5,0.5c-0.167,0.166-0.334,0.332-0.5,0.5c-0.167,0.166-0.334,0.332-0.5,0.5
				c-0.167,0.166-0.334,0.332-0.5,0.5c-0.167,0.166-0.334,0.332-0.5,0.5c-0.167,0.166-0.334,0.332-0.5,0.5
				c-0.167,0.166-0.334,0.332-0.5,0.5c-0.167,0.166-0.334,0.332-0.5,0.5c-0.167,0.166-0.334,0.332-0.5,0.5
				c-0.167,0.166-0.334,0.332-0.5,0.5c-0.167,0.166-0.334,0.332-0.5,0.5c-0.167,0.166-0.334,0.332-0.5,0.5
				c-0.167,0.166-0.334,0.332-0.5,0.5c-0.167,0.166-0.334,0.332-0.5,0.5c-0.167,0.166-0.334,0.332-0.5,0.5
				c-0.167,0.166-0.334,0.332-0.5,0.5c-0.167,0.166-0.334,0.332-0.5,0.5c-0.167,0.166-0.334,0.332-0.5,0.5
				c-0.167,0.166-0.334,0.332-0.5,0.5c-0.167,0.166-0.334,0.332-0.5,0.5c-0.167,0.166-0.334,0.332-0.5,0.5
				c-0.167,0.166-0.334,0.332-0.5,0.5c-0.167,0.166-0.334,0.332-0.5,0.5c-0.167,0.166-0.334,0.332-0.5,0.5
				c-0.167,0.166-0.334,0.332-0.5,0.5c-0.167,0.166-0.334,0.332-0.5,0.5c-0.167,0.166-0.334,0.332-0.5,0.5
				c-0.167,0.166-0.334,0.332-0.5,0.5c-0.167,0.166-0.334,0.332-0.5,0.5c-0.167,0.166-0.334,0.332-0.5,0.5
				c-0.167,0.166-0.334,0.332-0.5,0.5c-0.167,0.166-0.334,0.332-0.5,0.5c-0.167,0.166-0.334,0.332-0.5,0.5
				c-0.167,0.166-0.334,0.332-0.5,0.5c-0.167,0.166-0.334,0.332-0.5,0.5c-0.167,0.166-0.334,0.332-0.5,0.5
				c-0.167,0.166-0.334,0.332-0.5,0.5c-0.167,0.166-0.334,0.332-0.5,0.5c-0.167,0.166-0.334,0.332-0.5,0.5
				c-0.167,0.166-0.334,0.332-0.5,0.5c-0.167,0.166-0.334,0.332-0.5,0.5c-0.167,0.166-0.334,0.332-0.5,0.5
				c-0.167,0.166-0.334,0.332-0.5,0.5c-0.167,0.166-0.334,0.332-0.5,0.5c-0.167,0.166-0.334,0.332-0.5,0.5
				c-0.167,0.166-0.334,0.332-0.5,0.5c-0.167,0.166-0.334,0.332-0.5,0.5c-0.167,0.166-0.334,0.332-0.5,0.5
				c-0.167,0.166-0.334,0.332-0.5,0.5c-0.167,0.166-0.334,0.332-0.5,0.5c-0.167,0.166-0.334,0.332-0.5,0.5
				c-0.167,0.166-0.334,0.332-0.5,0.5c-0.167,0.166-0.334,0.332-0.5,0.5c-0.167,0.166-0.334,0.332-0.5,0.5
				c-0.167,0.166-0.334,0.332-0.5,0.5c-0.167,0.166-0.334,0.332-0.5,0.5c-0.167,0.166-0.334,0.332-0.5,0.5
				c-0.167,0.166-0.334,0.332-0.5,0.5c-0.167,0.166-0.334,0.332-0.5,0.5c-0.167,0.166-0.334,0.332-0.5,0.5
				c-0.167,0.166-0.334,0.332-0.5,0.5c-0.167,0.166-0.334,0.332-0.499,0.499c-0.168,0.166-0.335,0.333-0.501,0.501
				c-0.167,0.166-0.334,0.333-0.5,0.5c-0.167,0.166-0.334,0.333-0.5,0.5c-0.167,0.166-0.334,0.333-0.5,0.5
				c-0.167,0.166-0.334,0.333-0.5,0.5c-0.167,0.166-0.334,0.333-0.5,0.5c-0.167,0.166-0.334,0.333-0.5,0.5
				c-0.167,0.166-0.334,0.333-0.5,0.5c-0.167,0.166-0.334,0.333-0.5,0.5c-0.167,0.166-0.334,0.333-0.5,0.5
				c-0.167,0.166-0.334,0.333-0.5,0.5c-0.167,0.166-0.334,0.333-0.5,0.5c-0.167,0.166-0.334,0.333-0.5,0.5
				c-0.167,0.166-0.334,0.333-0.5,0.5c-0.167,0.166-0.334,0.333-0.5,0.5c-0.167,0.166-0.334,0.333-0.5,0.5
				c-0.167,0.166-0.334,0.333-0.5,0.5c-0.167,0.166-0.334,0.333-0.5,0.5c-0.167,0.166-0.334,0.333-0.5,0.5
				c-0.167,0.166-0.334,0.333-0.5,0.5c-0.167,0.166-0.334,0.333-0.5,0.5c-0.167,0.166-0.334,0.333-0.5,0.5
				c-0.167,0.166-0.334,0.333-0.5,0.5c-0.167,0.166-0.334,0.333-0.5,0.5c-0.167,0.166-0.334,0.333-0.5,0.5
				c-0.167,0.166-0.334,0.333-0.5,0.5c-0.167,0.166-0.334,0.333-0.5,0.5c-0.167,0.166-0.334,0.333-0.5,0.5
				c-0.167,0.166-0.334,0.333-0.5,0.5c-0.167,0.166-0.334,0.333-0.5,0.5c-0.167,0.166-0.334,0.333-0.5,0.5
				c-0.167,0.166-0.334,0.333-0.5,0.5c-0.167,0.166-0.334,0.333-0.5,0.5c-0.167,0.166-0.334,0.333-0.5,0.5
				c-0.167,0.166-0.334,0.333-0.5,0.5c-0.167,0.166-0.334,0.333-0.5,0.5c-0.167,0.166-0.334,0.333-0.5,0.5
				c-0.167,0.166-0.334,0.333-0.5,0.5c-0.167,0.166-0.334,0.333-0.5,0.5c-0.167,0.166-0.334,0.333-0.5,0.5
				c-0.167,0.166-0.334,0.333-0.5,0.5c-0.167,0.166-0.334,0.333-0.5,0.5c-0.167,0.166-0.334,0.333-0.5,0.5
				c-0.167,0.166-0.334,0.333-0.5,0.5c-0.167,0.166-0.334,0.333-0.5,0.5c-0.167,0.166-0.334,0.333-0.5,0.5
				c-0.167,0.166-0.334,0.333-0.5,0.5c-0.167,0.166-0.334,0.333-0.5,0.5c-0.167,0.166-0.334,0.333-0.5,0.5
				c-0.167,0.166-0.334,0.333-0.5,0.5c-0.167,0.166-0.334,0.333-0.5,0.5c-0.167,0.166-0.334,0.333-0.5,0.5
				c-0.167,0.166-0.334,0.333-0.5,0.5c-0.167,0.166-0.334,0.333-0.5,0.5c-0.167,0.166-0.334,0.333-0.5,0.5
				c-0.167,0.166-0.334,0.333-0.5,0.5c-0.167,0.166-0.334,0.333-0.5,0.5c-0.167,0.166-0.334,0.333-0.5,0.5
				c-0.167,0.166-0.334,0.333-0.5,0.5c-0.167,0.166-0.334,0.333-0.5,0.5c-0.167,0.166-0.334,0.333-0.5,0.5
				c-0.167,0.166-0.334,0.333-0.5,0.5c-0.167,0.166-0.334,0.333-0.5,0.5c-0.167,0.166-0.334,0.333-0.5,0.5
				c-0.167,0.166-0.334,0.333-0.5,0.5c-0.167,0.166-0.334,0.333-0.5,0.5c-0.167,0.166-0.334,0.333-0.5,0.5
				c-0.167,0.166-0.334,0.333-0.5,0.5c-0.167,0.166-0.334,0.333-0.5,0.5c-0.167,0.166-0.334,0.333-0.5,0.5
				c-0.167,0.166-0.334,0.333-0.5,0.5c-0.167,0.166-0.334,0.333-0.5,0.5c-0.167,0.166-0.334,0.333-0.5,0.5
				c-0.167,0.166-0.334,0.333-0.5,0.5c-0.167,0.166-0.334,0.333-0.5,0.5c-0.167,0.166-0.334,0.333-0.5,0.5
				c-0.167,0.166-0.334,0.333-0.5,0.5c-0.167,0.166-0.334,0.333-0.5,0.5c-0.167,0.166-0.334,0.333-0.5,0.5
				c-0.167,0.166-0.334,0.333-0.5,0.5c-0.167,0.166-0.334,0.333-0.5,0.5c-0.167,0.166-0.334,0.333-0.5,0.5
				c-0.167,0.166-0.334,0.333-0.5,0.5c-0.167,0.166-0.334,0.333-0.5,0.5c-0.167,0.166-0.334,0.333-0.5,0.5
				c-0.167,0.166-0.334,0.333-0.5,0.5c-0.167,0.166-0.334,0.333-0.5,0.5c-0.167,0.166-0.334,0.333-0.5,0.5
				c-0.167,0.166-0.334,0.333-0.5,0.5c-0.167,0.166-0.334,0.333-0.5,0.5c-0.167,0.166-0.334,0.333-0.5,0.5
				c-0.167,0.166-0.334,0.333-0.5,0.5c-0.167,0.166-0.334,0.333-0.5,0.5c-0.167,0.166-0.334,0.333-0.5,0.5
				c-0.167,0.166-0.334,0.333-0.5,0.5c-0.167,0.166-0.334,0.333-0.5,0.5c-0.167,0.166-0.334,0.333-0.5,0.5
				c-0.167,0.166-0.334,0.333-0.5,0.5c-0.167,0.166-0.334,0.333-0.5,0.5c-0.167,0.166-0.334,0.333-0.5,0.5
				c-0.167,0.166-0.334,0.333-0.5,0.5c-0.167,0.166-0.334,0.333-0.5,0.5c-0.167,0.166-0.334,0.333-0.5,0.5
				c-0.167,0.166-0.334,0.333-0.5,0.5c-0.167,0.166-0.334,0.333-0.5,0.5c-0.167,0.166-0.334,0.333-0.5,0.5
				c-0.167,0.166-0.334,0.333-0.5,0.5c-0.167,0.166-0.334,0.333-0.5,0.5c-0.167,0.166-0.334,0.333-0.5,0.5
				c-0.167,0.166-0.334,0.333-0.5,0.5c-0.167,0.166-0.334,0.333-0.5,0.5c-0.167,0.166-0.334,0.333-0.5,0.5
				c-0.167,0.166-0.334,0.333-0.5,0.5c-0.167,0.166-0.334,0.333-0.5,0.5c-0.167,0.166-0.334,0.333-0.5,0.5
				c-0.167,0.166-0.334,0.333-0.5,0.5c-0.167,0.166-0.334,0.333-0.5,0.5c-0.167,0.166-0.334,0.333-0.5,0.5
				c-0.167,0.166-0.334,0.333-0.5,0.5c-0.167,0.166-0.334,0.333-0.5,0.5c-0.167,0.166-0.334,0.333-0.5,0.5
				c-0.167,0.166-0.334,0.333-0.5,0.5c-0.167,0.166-0.334,0.333-0.5,0.5c-0.167,0.166-0.334,0.333-0.5,0.5
				c-0.167,0.166-0.334,0.333-0.5,0.5c-0.167,0.166-0.334,0.333-0.5,0.5c-0.167,0.166-0.334,0.333-0.5,0.5
				c-0.167,0.166-0.334,0.333-0.5,0.5c-0.167,0.166-0.334,0.333-0.5,0.5c-0.167,0.166-0.334,0.333-0.5,0.5
				c-0.167,0.166-0.334,0.333-0.5,0.5c-0.167,0.166-0.334,0.333-0.5,0.5c-0.167,0.166-0.334,0.333-0.5,0.5
				c-0.167,0.166-0.334,0.333-0.5,0.5c-0.167,0.166-0.334,0.333-0.5,0.5c-0.167,0.166-0.334,0.333-0.5,0.5
				c-0.167,0.166-0.334,0.333-0.5,0.5c-0.167,0.166-0.334,0.333-0.5,0.5c-0.167,0.166-0.334,0.333-0.5,0.5
				c-0.167,0.166-0.334,0.333-0.5,0.5c-0.167,0.166-0.334,0.333-0.5,0.5c-0.167,0.166-0.334,0.333-0.5,0.5
				c-0.167,0.166-0.334,0.333-0.5,0.5c-0.167,0.166-0.334,0.333-0.5,0.5c-0.167,0.166-0.334,0.333-0.5,0.5
				c-0.167,0.166-0.334,0.333-0.5,0.5c-0.167,0.166-0.334,0.333-0.5,0.5c-0.167,0.166-0.334,0.333-0.5,0.5
				c-0.167,0.166-0.334,0.333-0.5,0.5c-0.167,0.166-0.334,0.333-0.5,0.5c-0.167,0.166-0.334,0.333-0.5,0.5
				c-0.167,0.166-0.334,0.333-0.5,0.5c-0.167,0.166-0.334,0.333-0.5,0.5c-0.167,0.166-0.334,0.333-0.5,0.5
				c-0.167,0.166-0.334,0.333-0.5,0.5c-0.167,0.166-0.334,0.333-0.5,0.5c-0.167,0.166-0.334,0.333-0.5,0.5
				c-0.167,0.166-0.334,0.333-0.5,0.5c-0.167,0.166-0.334,0.333-0.5,0.5c-0.167,0.166-0.334,0.333-0.5,0.5
				c-0.167,0.166-0.334,0.333-0.5,0.5c-0.167,0.166-0.334,0.333-0.5,0.5c-0.167,0.166-0.334,0.333-0.5,0.5
				c-0.167,0.166-0.334,0.333-0.5,0.5c-0.167,0.166-0.334,0.333-0.5,0.5c-0.167,0.166-0.334,0.333-0.5,0.5
				c-0.167,0.166-0.334,0.333-0.5,0.5c-0.167,0.166-0.334,0.333-0.5,0.5c-0.167,0.166-0.334,0.333-0.5,0.5
				c-0.167,0.166-0.334,0.333-0.5,0.5c-0.167,0.166-0.334,0.333-0.5,0.5c-0.167,0.166-0.334,0.333-0.5,0.5
				c-0.167,0.166-0.334,0.333-0.5,0.5c-0.167,0.166-0.334,0.333-0.5,0.5c-0.167,0.166-0.334,0.333-0.5,0.5
				c-0.167,0.166-0.334,0.333-0.5,0.5c-0.167,0.166-0.334,0.333-0.5,0.5c-0.167,0.166-0.334,0.333-0.5,0.5
				c-0.167,0.166-0.334,0.333-0.5,0.5c-0.167,0.166-0.334,0.333-0.5,0.5c-0.167,0.166-0.334,0.333-0.5,0.5
				c-0.167,0.166-0.334,0.333-0.5,0.5c-0.167,0.166-0.334,0.333-0.5,0.5c-0.167,0.166-0.334,0.333-0.5,0.5
				c-0.167,0.166-0.334,0.333-0.5,0.5c-0.167,0.166-0.334,0.333-0.5,0.5c-0.167,0.166-0.334,0.333-0.5,0.5
				c-0.167,0.166-0.334,0.333-0.5,0.5c-0.167,0.166-0.334,0.333-0.5,0.5c-0.167,0.166-0.334,0.333-0.5,0.5
				c-0.167,0.166-0.334,0.333-0.5,0.5c-0.167,0.166-0.334,0.333-0.5,0.5c-0.167,0.166-0.334,0.333-0.5,0.5
				c-0.167,0.166-0.334,0.333-0.5,0.5c-0.167,0.166-0.334,0.333-0.5,0.5c-0.167,0.166-0.334,0.333-0.5,0.5
				c-0.167,0.166-0.334,0.333-0.5,0.5c-0.167,0.166-0.334,0.333-0.5,0.5c-0.167,0.166-0.334,0.333-0.5,0.5
				c-0.167,0.166-0.334,0.333-0.5,0.5c-0.167,0.166-0.334,0.364-0.5,0.531C-1.118,348.686-8.193,366-11.228,383H-12l0,0l0,0v1h-1
				l0,0l0,0v1h-1l0,0l0,0v1h-1l0,0l0,0v1h-1l0,0l0,0v1h-1l0,0l0,0v1h-1l0,0l0,0v1h-1l0,0l0,0v1h-1l0,0l0,0v1h-1l0,0l0,0v1h-1l0,0
				l0,0v1h-1l0,0l0,0v1h-1l0,0l0,0v1h-1l0,0l0,0v1h-1l0,0l0,0v1h-1l0,0l0,0v1h-1l0,0l0,0v1h-1l0,0l0,0v1h-1l0,0l0,0v1h-1l0,0l0,0v1
				h-1l0,0l0,0v1h-1l0,0l0,0v1h-1l0,0l0,0v1h-1l0,0l0,0v1h-1l0,0l0,0v1h-1l0,0l0,0v1h-1l0,0l0,0v1h-1l0,0l0,0v1h-1l0,0l0,0v47h27
				v157h63v-1h1l0,0l0,0v-1h1l0,0l0,0v-1h1l0,0l0,0v-1h1l0,0l0,0v-1h1l0,0l0,0v-1h1l0,0l0,0v-1h1l0,0l0,0v-1h1l0,0l0,0v-1h1l0,0l0,0
				v-1h1l0,0l0,0v-1h1l0,0l0,0v-1h1l0,0l0,0v-1h1l0,0l0,0v-1h1l0,0l0,0v-1h1l0,0l0,0v-1h1l0,0l0,0v-1h1l0,0l0,0v-1h1l0,0l0,0v-1h1
				l0,0l0,0v-1h1l0,0l0,0v-1h1l0,0l0,0v-1h1l0,0l0,0v-1h1l0,0l0,0v-1h1l0,0l0,0v-1h1l0,0l0,0v-1h1l0,0l0,0v-1h1l0,0l0,0v-1h1l0,0
				l0,0v-1h1l0,0l0,0v-1h1l0,0l0,0v-1h1l0,0l0,0v-1h1l0,0l0,0v-1h1l0,0l0,0v-1h1l0,0l0,0v-1h1l0,0l0,0v-1h1l0,0l0,0v-1h1l0,0l0,0v-1
				h1l0,0l0,0v-1h1l0,0l0,0v-1h1l0,0l0,0v-1h1l0,0l0,0v-1h1l0,0l0,0v-1h1l0,0l0,0v-1h1l0,0l0,0v-1h1l0,0l0,0v-1h1l0,0l0,0v-1h1l0,0
				l0,0v-1h1l0,0l0,0v-1h1l0,0l0,0v-1h1l0,0l0,0v-1h1l0,0l0,0v-1h1l0,0l0,0v-1h1l0,0l0,0v-1h1l0,0l0,0v-1h1l0,0l0,0v-1h1l0,0l0,0v-1
				h1l0,0l0,0v-1h1l0,0l0,0v-1h1l0,0l0,0v-1h1l0,0l0,0v-1h1l0,0l0,0v-1h1l0,0l0,0v-1h1l0,0l0,0v-1h1l0,0l0,0v-1h1l0,0l0,0v-1h1l0,0
				l0,0v-1h1l0,0l0,0v-1h1l0,0l0,0v-1h1l0,0l0,0v-1h1l0,0l0,0v-1h1l0,0l0,0v-1h1l0,0l0,0v-1h1l0,0l0,0v-1h1l0,0l0,0v-1h1l0,0l0,0v-1
				h1l0,0l0,0v-1h1l0,0l0,0v-1h1l0,0l0,0v-1h1l0,0l0,0v-1h1l0,0l0,0v-1h1l0,0l0,0v-1h1l0,0l0,0v-1h1l0,0l0,0v-1h1l0,0l0,0v-1h1l0,0
				l0,0v-1h1l0,0l0,0v-1h1l0,0l0,0v-1h1l0,0l0,0v-1h1l0,0l0,0v-1h1l0,0l0,0v-1h1l0,0l0,0v-1h1l0,0l0,0v-1h1l0,0l0,0v-1h1l0,0l0,0v-1
				h1l0,0l0,0v-1h1l0,0l0,0v-1h1l0,0l0,0v-1h1l0,0l0,0v-1h1l0,0l0,0v-1h1l0,0l0,0v-1h1l0,0l0,0v-1h1l0,0l0,0v-1h1l0,0l0,0v-1h1l0,0
				l0,0v-1h1l0,0l0,0v-1h1l0,0l0,0v-1h1l0,0l0,0v-1h1l0,0l0,0v-1h1l0,0l0,0v-1h1l0,0l0,0v-1h1l0,0l0,0v-1h1l0,0l0,0v-1h1l0,0l0,0v-1
				h1l0,0l0,0v-1h1l0,0l0,0v-1h1l0,0l0,0v-1h1l0,0l0,0v-1h1l0,0l0,0v-1h1l0,0l0,0v-1h1l0,0l0,0v-1h1l0,0l0,0v-1h1l0,0l0,0v-1h1l0,0
				l0,0v-1h1l0,0l0,0v-1h1l0,0l0,0v-1h1l0,0l0,0v-1h1l0,0l0,0v-1h1l0,0l0,0v-1h1l0,0l0,0v-1h1l0,0l0,0v-1h1l0,0l0,0v-1h1l0,0l0,0v-1
				h1l0,0l0,0v-1h1l0,0l0,0v-1h1l0,0l0,0v-1h1l0,0l0,0v-1h1l0,0l0,0v-1h1l0,0l0,0v-1h1l0,0l0,0v-1h1l0,0l0,0v-1h1l0,0l0,0v-1h1l0,0
				l0,0v-1h1l0,0l0,0v-1h1l0,0l0,0v-1h1l0,0l0,0v-1h1l0,0l0,0v-1h1l0,0l0,0v-1h1l0,0l0,0v-1h1l0,0l0,0v-1h1l0,0l0,0v-1h1l0,0l0,0v-1
				h1l0,0l0,0v-1h1l0,0l0,0v-1h1l0,0l0,0v-1h1l0,0l0,0v-1h1l0,0l0,0v-1h1l0,0l0,0v-1h1l0,0l0,0v-1h1l0,0l0,0v-1h1l0,0l0,0v-1h1l0,0
				l0,0v-1h1l0,0l0,0v-1h1l0,0l0,0v-1h1l0,0l0,0v-1h1l0,0l0,0v-1h1l0,0l0,0v-1h1l0,0l0,0v-1h1l0,0l0,0v-1h1l0,0l0,0v-1h1l0,0l0,0v-1
				h1l0,0l0,0v-1h1l0,0l0,0v-1h1l0,0l0,0v-1h1l0,0l0,0v-1h1l0,0l0,0v-1h1l0,0l0,0v-1h1l0,0l0,0v-1h1l0,0l0,0v-1h1l0,0l0,0v-1h1l0,0
				l0,0v-1h1l0,0l0,0v-1h1l0,0l0,0v-1h1l0,0l0,0v-1h1l0,0l0,0v-1h1l0,0l0,0v-1h1l0,0l0,0v-1h1l0,0l0,0v-1h1l0,0l0,0v-1h1l0,0l0,0v-1
				h1l0,0l0,0v-1h1l0,0l0,0v-1h1l0,0l0,0v-1h1l0,0l0,0v-1h1l0,0l0,0v-1h1l0,0l0,0v-1h1l0,0l0,0v-1h1l0,0l0,0v-1h1l0,0l0,0v-1h1l0,0
				l0,0v-1h1l0,0l0,0v-1h1l0,0l0,0v-1h1l0,0l0,0v-1h1l0,0l0,0v-1h1l0,0l0,0v-1h1l0,0l0,0v-1h1l0,0l0,0v-1h1l0,0l0,0v-1h1l0,0l0,0v-1
				h1l0,0l0,0v-1h1l0,0l0,0v-1h1l0,0l0,0v-1h1l0,0l0,0v-1h1l0,0l0,0v-1h1l0,0l0,0v-1h1l0,0l0,0v-1h1l0,0l0,0v-1h1l0,0l0,0v-1h1l0,0
				l0,0v-1h1l0,0l0,0v-1h1l0,0l0,0v-1h1l0,0l0,0v-1h1l0,0l0,0v-1h1l0,0l0,0v-1h1l0,0l0,0v-1h1l0,0l0,0V273h1l0,0l0,0v-1h1l0,0l0,0
				v-1h1l0,0l0,0v-1h1l0,0l0,0v-1h1l0,0l0,0v-1h1l0,0l0,0v-1h1l0,0l0,0v-1h1l0,0l0,0v-1h1l0,0l0,0v-1h1l0,0l0,0v-1h1l0,0l0,0v-1h1
				l0,0l0,0v-1h1l0,0l0,0v-1h1l0,0l0,0v-1h1l0,0l0,0v-1h1l0,0l0,0v-1h1l0,0l0,0v-1h1l0,0l0,0v-1h1l0,0l0,0v-1h1l0,0l0,0v-1h1l0,0
				l0,0v-1h1l0,0l0,0v-1h1l0,0l0,0v-1h1l0,0l0,0v-1h1l0,0l0,0v-1h1l0,0l0,0v-1h1l0,0l0,0v-1h1l0,0l0,0v-1h1l0,0l0,0v-1h1l0,0l0,0v-1
				h1l0,0l0,0v-1h1l0,0l0,0v-1h1l0,0l0,0v-1h1l0,0l0,0v-1h1l0,0l0,0v-1h1l0,0l0,0v-1h1l0,0l0,0v-1h1l0,0l0,0v-1h1l0,0l0,0v-1h1l0,0
				l0,0v-1h1v-47h-35.264l0.017-0.088c0.152,0.046,0.315,0.198,0.468,0.244l0.032-0.58c0.152,0.046,0.315,0.116,0.468,0.162
				l0.032-0.621c0.152,0.046,0.315,0.095,0.468,0.142l0.032-0.631c0.152,0.046,0.315,0.09,0.468,0.136l0.032-0.634
				c0.152,0.046,0.315,0.089,0.468,0.135l0.032-0.634c0.152,0.046,0.315,0.088,0.468,0.135l0.032-0.635
				c0.152,0.046,0.315,0.088,0.468,0.135l0.032-0.635c0.152,0.046,0.315,0.088,0.468,0.135l0.032-0.635
				c0.152,0.046,0.315,0.088,0.468,0.135l0.032-0.635c0.152,0.046,0.315,0.088,0.468,0.135l0.032-0.635
				c0.152,0.046,0.315,0.088,0.468,0.135l0.032-0.635c0.152,0.046,0.315,0.088,0.468,0.135l0.032-0.635
				c0.152,0.046,0.315,0.088,0.468,0.135l0.032-0.635c0.152,0.046,0.315,0.088,0.468,0.135l0.032-0.635
				c0.152,0.046,0.315,0.088,0.468,0.135l0.032-0.635c0.152,0.046,0.315,0.088,0.468,0.135l0.032-0.635
				c0.152,0.046,0.315,0.088,0.468,0.135l0.032-0.635c0.152,0.046,0.315,0.088,0.468,0.135l0.032-0.635
				c0.152,0.046,0.315,0.088,0.468,0.135l0.032-0.635c0.152,0.046,0.315,0.088,0.468,0.135l0.032-0.635
				c0.152,0.046,0.315,0.088,0.468,0.135l0.032-0.635c0.152,0.046,0.315,0.088,0.468,0.135l0.032-0.635
				c0.152,0.046,0.315,0.088,0.468,0.135l0.032-0.635c0.152,0.046,0.315,0.088,0.468,0.135l0.032-0.635
				c0.152,0.046,0.315,0.088,0.468,0.135l0.032-0.635c0.152,0.046,0.315,0.088,0.468,0.135l0.032-0.635
				c0.152,0.046,0.315,0.088,0.468,0.135l0.032-0.635c0.152,0.046,0.315,0.088,0.468,0.135l0.032-0.635
				c0.152,0.046,0.315,0.088,0.468,0.135l0.032-0.635c0.152,0.046,0.315,0.088,0.468,0.135l0.032-0.635
				c0.152,0.046,0.315,0.088,0.468,0.135l0.032-0.635c0.152,0.046,0.315,0.088,0.468,0.135l0.032-0.635
				c0.152,0.046,0.315,0.088,0.468,0.135l0.032-0.635c0.152,0.046,0.315,0.088,0.468,0.135l0.032-0.635
				c0.152,0.046,0.315,0.088,0.468,0.135l0.032-0.635c0.152,0.046,0.315,0.088,0.468,0.135l0.032-0.635
				c0.152,0.046,0.315,0.088,0.468,0.135l0.032-0.635c0.152,0.046,0.315,0.088,0.468,0.135l0.032-0.635
				c0.152,0.046,0.315,0.088,0.468,0.135l0.032-0.635c0.152,0.046,0.315,0.088,0.468,0.135l0.032-0.635
				c0.152,0.046,0.315,0.088,0.468,0.135l0.032-0.635c0.152,0.046,0.315,0.088,0.468,0.135l0.032-0.635
				c0.152,0.046,0.315,0.088,0.468,0.135l0.032-0.635c0.152,0.046,0.315,0.088,0.468,0.135l0.032-0.635
				c0.152,0.046,0.315,0.088,0.468,0.135l0.032-0.635c0.152,0.046,0.315,0.088,0.468,0.135l0.032-0.635
				c0.152,0.046,0.315,0.088,0.468,0.135l0.032-0.635c0.152,0.046,0.315,0.088,0.468,0.135l0.032-0.635
				c0.152,0.046,0.315,0.088,0.468,0.135l0.032-0.635c0.152,0.046,0.315,0.088,0.468,0.135l0.032-0.635
				c0.152,0.046,0.315,0.088,0.468,0.135l0.032-0.635c0.152,0.046,0.315,0.088,0.468,0.135l0.032-0.635
				c0.152,0.046,0.315,0.088,0.468,0.135l0.032-0.635c0.152,0.046,0.315,0.088,0.468,0.135l0.032-0.635
				c0.152,0.046,0.315,0.088,0.468,0.135l0.032-0.635c0.152,0.046,0.315,0.088,0.468,0.135l0.032-0.635
				c0.152,0.046,0.315,0.088,0.468,0.135l0.032-0.635c0.152,0.046,0.315,0.088,0.468,0.135l0.032-0.635
				c0.152,0.046,0.315,0.088,0.468,0.135l0.032-0.635c0.152,0.046,0.315,0.088,0.468,0.135l0.032-0.635
				c0.152,0.046,0.315,0.088,0.468,0.135l0.032-0.635c0.152,0.046,0.315,0.088,0.468,0.135l0.032-0.635
				c0.152,0.046,0.315,0.088,0.468,0.135l0.032-0.635c0.152,0.046,0.315,0.088,0.468,0.135l0.032-0.635
				c0.152,0.046,0.315,0.088,0.468,0.135l0.032-0.635c0.152,0.046,0.315,0.088,0.468,0.135l0.032-0.635
				c0.152,0.046,0.315,0.088,0.468,0.135l0.032-0.635c0.152,0.046,0.315,0.088,0.468,0.135l0.032-0.635
				c0.152,0.046,0.315,0.088,0.468,0.135l0.032-0.635c0.152,0.046,0.315,0.088,0.468,0.135l0.032-0.635
				c0.152,0.046,0.315,0.088,0.468,0.135l0.032-0.635c0.152,0.046,0.315,0.088,0.468,0.135l0.032-0.635
				c0.152,0.046,0.315,0.088,0.468,0.135l0.032-0.635c0.152,0.046,0.315,0.088,0.468,0.135l0.032-0.635
				c0.152,0.046,0.315,0.088,0.468,0.135l0.032-0.635c0.152,0.046,0.315,0.088,0.468,0.135l0.032-0.635
				c0.152,0.046,0.315,0.088,0.468,0.135l0.032-0.635c0.152,0.046,0.315,0.088,0.468,0.135l0.032-0.635
				c0.152,0.046,0.315,0.088,0.468,0.135l0.032-0.635c0.152,0.046,0.315,0.088,0.468,0.135l0.032-0.635
				c0.152,0.046,0.315,0.088,0.468,0.135l0.032-0.635c0.152,0.046,0.315,0.088,0.468,0.135l0.032-0.635
				c0.152,0.046,0.315,0.088,0.468,0.135l0.032-0.635c0.152,0.046,0.315,0.088,0.468,0.135l0.032-0.635
				c0.152,0.046,0.315,0.088,0.468,0.135l0.032-0.635c0.152,0.046,0.315,0.088,0.468,0.135l0.032-0.635
				c0.152,0.046,0.315,0.088,0.468,0.135l0.032-0.635c0.152,0.046,0.315,0.088,0.468,0.135L327.22,94.112z"/>
		</g>
	</g>
	<g>
		<path fill="#FFFFFF" d="M212.001,389.796V233.011h-27.04v-46.574h27.04v-7.907c0-24.537,7.479-51.563,25.377-68.2
			c16.221-14.968,37.843-20.377,56.563-20.377c13.722,0,24.54,2.08,33.279,4.159l-2.499,48.654c-5.401-1.661-12.063-2.91-20.38-2.91
			c-20.799,0-29.539,16.218-29.539,36.184v10.397h40.761v46.574h-40.342v156.785H212.001z"/>
	</g>
</g>
</svg>
