<?xml version="1.0" encoding="utf-8"?>
<!-- Generator: Adobe Illustrator 16.0.3, SVG Export Plug-In . SVG Version: 6.00 Build 0)  -->
<!DOCTYPE svg PUBLIC "-//W3C//DTD SVG 1.1//EN" "http://www.w3.org/Graphics/SVG/1.1/DTD/svg11.dtd">
<svg version="1.1" id="Layer_1" xmlns="http://www.w3.org/2000/svg" xmlns:xlink="http://www.w3.org/1999/xlink" x="0px" y="0px"
	 width="128px" height="128px" viewBox="0 0 128 128" enable-background="new 0 0 128 128" xml:space="preserve">
<path fill="#444953" d="M128,25c0-13.807-11.193-25-25-25H25C11.193,0,0,11.193,0,25v78c0,13.807,11.193,25,25,25h78
	c13.807,0,25-11.193,25-25V25z"/>
<g>
	<g>
		<defs>
			<path id="SVGID_1_" d="M128,25c0-13.807-11.193-25-25-25H25C11.193,0,0,11.193,0,25v78c0,13.807,11.193,25,25,25h78
				c13.807,0,25-11.193,25-25V25z"/>
		</defs>
		<clipPath id="SVGID_2_">
			<use xlink:href="#SVGID_1_"  overflow="visible"/>
		</clipPath>
		<path clip-path="url(#SVGID_2_)" fill="#353A42" enable-background="new    " d="M111.521,49.022
			c-3.453-0.006-5.756,0.894-7.347,2.382c-0.045,0.04-0.082,0.084-0.125,0.125c-0.045,0.04-0.082,0.084-0.125,0.125
			c-0.045,0.04-0.082,0.084-0.125,0.125c-0.045,0.04-0.082,0.084-0.125,0.125c-0.045,0.04-0.082,0.084-0.125,0.125
			c-0.045,0.04-0.082,0.084-0.125,0.125c-0.045,0.04-0.082,0.084-0.125,0.125c-0.045,0.04-0.082,0.084-0.125,0.125
			c-0.045,0.04-0.082,0.084-0.125,0.125c-0.045,0.04-0.082,0.084-0.125,0.125c-0.045,0.04-0.082,0.084-0.125,0.125
			c-0.045,0.04-0.082,0.084-0.125,0.125c-0.045,0.04-0.082,0.084-0.125,0.125c-0.045,0.04-0.082,0.084-0.125,0.125
			c-0.045,0.04-0.082,0.084-0.125,0.125c-0.045,0.04-0.082,0.084-0.125,0.125c-0.045,0.04-0.082,0.084-0.125,0.125
			c-0.045,0.04-0.082,0.084-0.125,0.125c-0.045,0.04-0.082,0.084-0.125,0.125c-0.045,0.04-0.082,0.084-0.125,0.125
			c-0.045,0.04-0.082,0.084-0.125,0.125c-0.045,0.04-0.082,0.084-0.125,0.125c-0.045,0.04-0.082,0.084-0.125,0.125
			c-0.045,0.04-0.082,0.084-0.125,0.125c-0.045,0.04-0.082,0.084-0.125,0.125c-0.045,0.04-0.082,0.084-0.125,0.125
			c-0.045,0.04-0.082,0.084-0.125,0.125c-0.045,0.04-0.082,0.084-0.125,0.125c-0.045,0.04-0.082,0.084-0.125,0.125
			c-0.045,0.04-0.082,0.084-0.125,0.125c-0.045,0.04-0.082,0.084-0.125,0.125c-0.045,0.04-0.082,0.084-0.125,0.125
			c-0.045,0.04-0.082,0.084-0.125,0.125c-0.045,0.04-0.082,0.084-0.125,0.125c-0.045,0.04-0.082,0.084-0.125,0.125
			c-0.045,0.04-0.082,0.084-0.125,0.125c-0.045,0.04-0.082,0.084-0.125,0.125c-0.045,0.04-0.082,0.084-0.125,0.125
			c-0.045,0.04-0.082,0.084-0.125,0.125c-0.045,0.04-0.082,0.084-0.125,0.125c-0.045,0.04-0.082,0.084-0.125,0.125
			c-0.045,0.04-0.082,0.084-0.125,0.125c-0.045,0.04-0.082,0.084-0.125,0.125c-0.045,0.04-0.082,0.084-0.125,0.125
			c-0.045,0.04-0.082,0.084-0.125,0.125c-0.045,0.04-0.082,0.084-0.125,0.125c-0.045,0.04-0.082,0.084-0.125,0.125
			c-0.045,0.04-0.082,0.084-0.125,0.125c-0.045,0.04-0.082,0.084-0.125,0.125c-0.045,0.04-0.082,0.084-0.125,0.125
			c-0.045,0.04-0.082,0.084-0.125,0.125c-0.045,0.04-0.082,0.084-0.125,0.125c-0.045,0.04-0.082,0.084-0.125,0.125
			c-0.045,0.04-0.082,0.084-0.125,0.125c-0.045,0.04-0.082,0.084-0.125,0.125c-0.045,0.04-0.082,0.084-0.125,0.125
			c-0.045,0.04-0.082,0.084-0.125,0.125c-0.045,0.04-0.082,0.084-0.125,0.125c-0.045,0.04-0.082,0.084-0.125,0.125
			c-0.045,0.04-0.082,0.084-0.125,0.125c-0.045,0.04-0.082,0.084-0.125,0.125c-0.045,0.04-0.082,0.084-0.125,0.125
			c-0.045,0.04-0.082,0.084-0.125,0.125c-0.045,0.04-0.082,0.084-0.125,0.125c-0.045,0.04-0.082,0.084-0.125,0.125
			c-0.045,0.04-0.082,0.084-0.125,0.125c-0.045,0.04-0.082,0.084-0.125,0.125c-0.045,0.04-0.082,0.084-0.125,0.125
			c-0.045,0.04-0.082,0.084-0.125,0.125c-0.045,0.04-0.082,0.084-0.125,0.125c-0.045,0.04-0.082,0.084-0.125,0.125
			c-0.045,0.04-0.082,0.084-0.125,0.125c-0.045,0.04-0.082,0.084-0.125,0.125c-0.045,0.04-0.082,0.084-0.125,0.125
			c-0.045,0.04-0.082,0.084-0.125,0.125c-0.045,0.04-0.082,0.084-0.125,0.125c-0.045,0.04-0.082,0.084-0.125,0.125
			c-0.045,0.04-0.082,0.084-0.125,0.125c-0.045,0.04-0.082,0.084-0.125,0.125c-0.045,0.04-0.082,0.084-0.125,0.125
			c-0.045,0.04-0.082,0.084-0.125,0.125c-0.045,0.04-0.082,0.084-0.125,0.125c-0.045,0.04-0.082,0.084-0.125,0.125
			c-0.045,0.04-0.082,0.084-0.125,0.125c-0.045,0.04-0.082,0.084-0.125,0.125c-0.045,0.04-0.082,0.084-0.125,0.125
			c-0.014,0.012-0.024,0.026-0.038,0.038c-0.084-0.011-0.169-0.023-0.254-0.035c-0.005-0.033-0.013-0.063-0.017-0.096
			c0.049-0.004,0.094-0.012,0.144-0.016c-0.005-0.038-0.014-0.072-0.019-0.109c0.049-0.004,0.094-0.012,0.144-0.016
			c-0.005-0.038-0.014-0.072-0.019-0.109c0.049-0.004,0.094-0.012,0.144-0.016c-0.005-0.038-0.014-0.072-0.019-0.109
			c0.049-0.004,0.094-0.012,0.144-0.016c-0.005-0.038-0.014-0.072-0.019-0.109c0.049-0.004,0.094-0.012,0.144-0.016
			c-0.005-0.038-0.014-0.072-0.019-0.109c0.049-0.004,0.094-0.012,0.144-0.016c-0.005-0.038-0.014-0.072-0.019-0.109
			c0.049-0.004,0.094-0.012,0.144-0.016c-0.005-0.038-0.014-0.072-0.019-0.109c0.049-0.004,0.094-0.012,0.144-0.016
			c-0.005-0.038-0.014-0.072-0.019-0.109c0.049-0.004,0.094-0.012,0.144-0.016c-0.005-0.038-0.014-0.072-0.019-0.109
			c0.049-0.004,0.094-0.012,0.144-0.016c-0.005-0.038-0.014-0.072-0.019-0.109c0.049-0.004,0.094-0.012,0.144-0.016
			c-0.005-0.038-0.014-0.072-0.019-0.109c0.049-0.004,0.094-0.012,0.144-0.016c-0.005-0.038-0.014-0.072-0.019-0.109
			c0.049-0.004,0.094-0.012,0.144-0.016c-0.005-0.038-0.014-0.072-0.019-0.109c0.049-0.004,0.094-0.012,0.144-0.016
			c-0.005-0.038-0.014-0.072-0.019-0.109c0.049-0.004,0.094-0.012,0.144-0.016c-0.005-0.038-0.014-0.072-0.019-0.109
			c0.049-0.004,0.094-0.012,0.144-0.016c-0.005-0.038-0.014-0.072-0.019-0.109c0.049-0.004,0.094-0.012,0.144-0.016
			c-0.005-0.038-0.014-0.072-0.019-0.109c0.049-0.004,0.094-0.012,0.144-0.016c-0.005-0.038-0.014-0.072-0.019-0.109
			c0.049-0.004,0.094-0.012,0.144-0.016c-0.005-0.038-0.014-0.072-0.019-0.109c0.049-0.004,0.094-0.012,0.144-0.016
			c-0.005-0.038-0.014-0.072-0.019-0.109c0.049-0.004,0.094-0.012,0.144-0.016c-0.005-0.038-0.014-0.072-0.019-0.109
			c0.049-0.004,0.094-0.012,0.144-0.016c-0.005-0.038-0.014-0.072-0.019-0.109c0.049-0.004,0.094-0.012,0.144-0.016
			c-0.005-0.038-0.014-0.072-0.019-0.109c0.049-0.004,0.094-0.012,0.144-0.016c-0.005-0.038-0.014-0.072-0.019-0.109
			c0.049-0.004,0.094-0.012,0.144-0.016c-0.005-0.038-0.014-0.072-0.019-0.109c0.049-0.004,0.094-0.012,0.144-0.016
			c-0.005-0.038-0.014-0.072-0.019-0.109c0.049-0.004,0.094-0.012,0.144-0.016c-0.005-0.038-0.014-0.072-0.019-0.109
			c0.049-0.004,0.094-0.012,0.144-0.016c-0.005-0.038-0.014-0.072-0.019-0.109c0.049-0.004,0.094-0.012,0.144-0.016
			c-0.005-0.038-0.014-0.072-0.019-0.109c0.049-0.004,0.094-0.012,0.144-0.016c-0.005-0.038-0.014-0.072-0.019-0.109
			c0.049-0.004,0.094-0.012,0.144-0.016c-0.005-0.038-0.014-0.072-0.019-0.109c0.049-0.004,0.094-0.012,0.144-0.016
			c-0.005-0.038-0.014-0.072-0.019-0.109c0.049-0.004,0.094-0.012,0.144-0.016c-0.005-0.038-0.014-0.072-0.019-0.109
			c0.049-0.004,0.094-0.012,0.144-0.016c-0.005-0.038-0.014-0.072-0.019-0.109c0.049-0.004,0.094-0.012,0.144-0.016
			c-0.005-0.038-0.014-0.072-0.019-0.109c0.049-0.004,0.094-0.012,0.144-0.016c-0.005-0.038-0.014-0.072-0.019-0.109
			c0.049-0.004,0.094-0.012,0.144-0.016c-0.005-0.038-0.014-0.072-0.019-0.109c0.049-0.004,0.094-0.012,0.144-0.016
			c-0.005-0.038-0.014-0.072-0.019-0.109c0.049-0.004,0.094-0.012,0.144-0.016c-0.005-0.038-0.014-0.072-0.019-0.109
			c0.049-0.004,0.094-0.012,0.144-0.016c-0.005-0.038-0.014-0.072-0.019-0.109c0.049-0.004,0.094-0.012,0.144-0.016
			c-0.005-0.038-0.014-0.072-0.019-0.109c0.049-0.004,0.094-0.012,0.144-0.016c-0.005-0.038-0.014-0.072-0.019-0.109
			c0.049-0.004,0.094-0.012,0.144-0.016c-0.005-0.038-0.014-0.072-0.019-0.109c0.049-0.004,0.094-0.012,0.144-0.016
			c-0.005-0.038-0.014-0.072-0.019-0.109c0.049-0.004,0.094-0.012,0.144-0.016c-0.005-0.038-0.014-0.072-0.019-0.109
			c0.049-0.004,0.094-0.012,0.144-0.016c-0.005-0.038-0.014-0.072-0.019-0.109c0.049-0.004,0.094-0.012,0.144-0.016
			c-0.005-0.038-0.014-0.072-0.019-0.109c0.049-0.004,0.094-0.012,0.144-0.016c-0.005-0.038-0.014-0.072-0.019-0.109
			c0.049-0.004,0.094-0.012,0.144-0.016c-0.005-0.038-0.014-0.072-0.019-0.109c0.049-0.004,0.094-0.012,0.144-0.016
			c-0.005-0.038-0.014-0.072-0.019-0.109c0.049-0.004,0.094-0.012,0.144-0.016c-0.005-0.038-0.014-0.072-0.019-0.109
			c0.049-0.004,0.094-0.012,0.144-0.016c-0.005-0.038-0.014-0.072-0.019-0.109c0.049-0.004,0.094-0.012,0.144-0.016
			c-0.005-0.038-0.014-0.072-0.019-0.109c0.049-0.004,0.094-0.012,0.144-0.016c-0.005-0.038-0.014-0.072-0.019-0.109
			c0.049-0.004,0.094-0.012,0.144-0.016c-0.005-0.038-0.014-0.072-0.019-0.109c0.049-0.004,0.094-0.012,0.144-0.016
			c-0.005-0.038-0.014-0.072-0.019-0.109c0.049-0.004,0.094-0.012,0.144-0.016c-0.005-0.038-0.014-0.072-0.019-0.109
			c0.049-0.004,0.094-0.012,0.144-0.016c-0.005-0.038-0.014-0.072-0.019-0.109c0.049-0.004,0.094-0.012,0.144-0.016
			c-0.005-0.038-0.014-0.072-0.019-0.109c0.049-0.004,0.094-0.012,0.144-0.016c-0.005-0.038-0.014-0.072-0.019-0.109
			c0.049-0.004,0.094-0.012,0.144-0.016c-0.005-0.038-0.014-0.072-0.019-0.109c0.049-0.004,0.094-0.012,0.144-0.016
			c-0.005-0.038-0.014-0.072-0.019-0.109c0.049-0.004,0.094-0.012,0.144-0.016c-0.005-0.038-0.014-0.072-0.019-0.109
			c0.049-0.004,0.094-0.012,0.144-0.016c-0.005-0.038-0.014-0.072-0.019-0.109c0.049-0.004,0.094-0.012,0.144-0.016
			c-0.005-0.038-0.014-0.072-0.019-0.109c0.049-0.004,0.094-0.012,0.144-0.016c-0.005-0.038-0.014-0.072-0.019-0.109
			c0.049-0.004,0.094-0.012,0.144-0.016c-0.005-0.038-0.014-0.072-0.019-0.109c0.049-0.004,0.094-0.012,0.144-0.016
			c-0.005-0.038-0.014-0.072-0.019-0.109c0.049-0.004,0.094-0.012,0.144-0.016c-0.005-0.038-0.014-0.072-0.019-0.109
			c0.049-0.004,0.094-0.012,0.144-0.016c-0.005-0.038-0.014-0.072-0.019-0.109c0.049-0.004,0.094-0.012,0.144-0.016
			c-0.005-0.038-0.014-0.072-0.019-0.109c0.049-0.004,0.094-0.012,0.144-0.016c-0.005-0.038-0.014-0.072-0.019-0.109
			c0.049-0.004,0.094-0.012,0.144-0.016c-0.005-0.038-0.014-0.072-0.019-0.109c0.049-0.004,0.094-0.012,0.144-0.016
			c-0.005-0.038-0.014-0.072-0.019-0.109c0.049-0.004,0.094-0.012,0.144-0.016c-0.005-0.038-0.014-0.072-0.019-0.109
			c0.049-0.004,0.094-0.012,0.144-0.016c-0.005-0.038-0.014-0.072-0.019-0.109c0.049-0.004,0.094-0.012,0.144-0.016
			c-0.005-0.038-0.014-0.072-0.019-0.109c0.049-0.004,0.094-0.012,0.144-0.016c-0.005-0.038-0.014-0.072-0.019-0.109
			c0.049-0.004,0.094-0.012,0.144-0.016c-0.005-0.038-0.014-0.072-0.019-0.109c0.049-0.004,0.094-0.012,0.144-0.016
			c-0.005-0.038-0.014-0.072-0.019-0.109c0.049-0.004,0.094-0.012,0.144-0.016c-0.005-0.038-0.014-0.072-0.019-0.109
			c0.049-0.004,0.094-0.012,0.144-0.016c-0.005-0.038-0.014-0.072-0.019-0.109c0.049-0.004,0.094-0.012,0.144-0.016
			c-0.005-0.038-0.014-0.072-0.019-0.109c0.049-0.004,0.094-0.012,0.144-0.016c-0.005-0.038-0.014-0.072-0.019-0.109
			c0.049-0.004,0.094-0.012,0.144-0.016c-0.005-0.038-0.014-0.072-0.019-0.109c0.049-0.004,0.094-0.012,0.144-0.016
			c-0.005-0.038-0.014-0.072-0.019-0.109c0.049-0.004,0.094-0.012,0.144-0.016c-0.005-0.038-0.014-0.072-0.019-0.109
			c0.049-0.004,0.094-0.012,0.144-0.016c-0.005-0.038-0.014-0.072-0.019-0.109c0.049-0.004,0.094-0.012,0.144-0.016
			c-0.005-0.038-0.014-0.072-0.019-0.109c0.049-0.004,0.094-0.012,0.144-0.016c-0.005-0.038-0.014-0.072-0.019-0.109
			c0.049-0.004,0.094-0.012,0.144-0.016c-0.005-0.038-0.014-0.072-0.019-0.109c0.049-0.004,0.094-0.012,0.144-0.016
			c-0.005-0.038-0.014-0.072-0.019-0.109c0.049-0.004,0.094-0.012,0.144-0.016c-0.005-0.038-0.014-0.072-0.019-0.109
			c0.049-0.004,0.094-0.012,0.144-0.016c-0.005-0.038-0.014-0.072-0.019-0.109c0.049-0.004,0.094-0.012,0.144-0.016
			c-0.005-0.038-0.014-0.072-0.019-0.109c0.049-0.004,0.094-0.012,0.144-0.016c-0.005-0.038-0.014-0.072-0.019-0.109
			c0.049-0.004,0.094-0.012,0.144-0.016c-0.005-0.038-0.014-0.072-0.019-0.109c0.049-0.004,0.094-0.012,0.144-0.016
			c-0.005-0.038-0.014-0.072-0.019-0.109c0.049-0.004,0.094-0.012,0.144-0.016c-0.005-0.038-0.014-0.072-0.019-0.109
			c0.049-0.004,0.094-0.012,0.144-0.016c-0.005-0.038-0.014-0.072-0.019-0.109c0.049-0.004,0.094-0.012,0.144-0.016
			c-0.005-0.038-0.014-0.072-0.019-0.109c0.049-0.004,0.094-0.012,0.144-0.016c-0.005-0.038-0.014-0.072-0.019-0.109
			c0.049-0.004,0.094-0.012,0.144-0.016c-0.005-0.038-0.014-0.072-0.019-0.109c0.049-0.004,0.094-0.012,0.144-0.016
			c-0.005-0.038-0.014-0.072-0.019-0.109c0.049-0.004,0.094-0.012,0.144-0.016c-0.005-0.038-0.014-0.072-0.019-0.109
			c0.049-0.004,0.094-0.012,0.144-0.016c-0.005-0.038-0.014-0.072-0.019-0.109c0.049-0.004,0.094-0.012,0.144-0.016
			c-0.005-0.038-0.014-0.072-0.019-0.109c0.049-0.004,0.094-0.012,0.144-0.016c-0.005-0.038-0.014-0.072-0.019-0.109
			c0.049-0.004,0.094-0.012,0.144-0.016c-0.005-0.038-0.014-0.072-0.019-0.109c0.049-0.004,0.094-0.012,0.144-0.016
			c-0.005-0.038-0.014-0.072-0.019-0.109c0.049-0.004,0.094-0.012,0.144-0.016c-0.005-0.038-0.014-0.072-0.019-0.109
			c0.049-0.004,0.094-0.012,0.144-0.016c-0.005-0.038-0.014-0.072-0.019-0.109c0.049-0.004,0.094-0.012,0.144-0.016
			c-0.005-0.038-0.014-0.072-0.019-0.109c0.049-0.004,0.094-0.012,0.144-0.016c-0.005-0.038-0.014-0.072-0.019-0.109
			c0.049-0.004,0.094-0.012,0.144-0.016c-0.005-0.038-0.014-0.072-0.019-0.109c0.049-0.004,0.094-0.012,0.144-0.016
			c-0.005-0.038-0.014-0.072-0.019-0.109c0.049-0.004,0.094-0.012,0.144-0.016c-0.005-0.038-0.014-0.072-0.019-0.109
			c0.049-0.004,0.094-0.012,0.144-0.016c-0.005-0.038-0.014-0.072-0.019-0.109c0.049-0.004,0.094-0.012,0.144-0.016
			c-0.005-0.038-0.014-0.072-0.019-0.109c0.049-0.004,0.094-0.012,0.144-0.016c-0.005-0.038-0.014-0.072-0.019-0.109
			c0.049-0.004,0.094-0.012,0.144-0.016c-0.005-0.038-0.014-0.072-0.019-0.109c0.049-0.004,0.094-0.012,0.144-0.016
			c-0.005-0.038-0.014-0.072-0.019-0.109c0.049-0.004,0.094-0.012,0.144-0.016c-0.005-0.038-0.014-0.072-0.019-0.109
			c0.049-0.004,0.094-0.012,0.144-0.016c-0.005-0.038-0.014-0.072-0.019-0.109c0.049-0.004,0.094-0.012,0.144-0.016
			c-0.005-0.038-0.014-0.072-0.019-0.109c0.049-0.004,0.094-0.012,0.144-0.016c-0.005-0.038-0.014-0.072-0.019-0.109
			c0.049-0.004,0.094-0.012,0.144-0.016c-0.005-0.038-0.014-0.072-0.019-0.109c0.049-0.004,0.094-0.012,0.144-0.016
			c-0.005-0.038-0.014-0.072-0.019-0.109c0.049-0.004,0.094-0.012,0.144-0.016c-0.005-0.038-0.014-0.072-0.019-0.109
			c0.049-0.004,0.094-0.012,0.144-0.016c-0.005-0.038-0.014-0.072-0.019-0.109c0.049-0.004,0.094-0.012,0.144-0.016
			c-0.005-0.038-0.014-0.072-0.019-0.109c0.049-0.004,0.094-0.012,0.144-0.016c-0.005-0.038-0.014-0.072-0.019-0.109
			c0.049-0.004,0.094-0.012,0.144-0.016c-0.005-0.038-0.014-0.072-0.019-0.109c0.049-0.004,0.094-0.012,0.144-0.016
			c-0.005-0.038-0.014-0.072-0.019-0.109c0.049-0.004,0.094-0.012,0.144-0.016c-0.005-0.038-0.014-0.072-0.019-0.109
			c0.049-0.004,0.094-0.012,0.144-0.016c-0.005-0.038-0.014-0.072-0.019-0.109c0.049-0.004,0.094-0.012,0.144-0.016
			c-0.005-0.038-0.014-0.072-0.019-0.109c0.049-0.004,0.094-0.012,0.144-0.016C108.998,34.503,102.048,31,96.936,31
			c-8.182,0-19.633,0-33.015,0s-24.834,0-33.015,0c-2.888,0-6.362,1.121-9.089,3.973c-0.042,0.042-0.084,0.082-0.125,0.125
			c-0.042,0.042-0.084,0.082-0.125,0.125c-0.042,0.042-0.084,0.082-0.125,0.125c-0.042,0.042-0.084,0.082-0.125,0.125
			c-0.042,0.042-0.084,0.082-0.125,0.125c-0.042,0.042-0.084,0.082-0.125,0.125c-0.042,0.042-0.084,0.082-0.125,0.125
			c-0.042,0.042-0.084,0.082-0.125,0.125c-0.042,0.042-0.084,0.082-0.125,0.125c-0.042,0.042-0.084,0.082-0.125,0.125
			c-0.042,0.042-0.084,0.082-0.125,0.125c-0.042,0.042-0.084,0.082-0.125,0.125c-0.042,0.042-0.084,0.082-0.125,0.125
			c-0.042,0.042-0.084,0.082-0.125,0.125c-0.042,0.042-0.084,0.082-0.125,0.125c-0.042,0.042-0.084,0.082-0.125,0.125
			c-0.042,0.042-0.084,0.082-0.125,0.125c-0.042,0.042-0.084,0.082-0.125,0.125c-0.042,0.042-0.084,0.082-0.125,0.125
			c-0.042,0.042-0.084,0.082-0.125,0.125c-0.042,0.042-0.084,0.082-0.125,0.125c-0.042,0.042-0.084,0.082-0.125,0.125
			c-0.042,0.042-0.084,0.082-0.125,0.125c-0.042,0.042-0.084,0.082-0.125,0.125c-0.042,0.042-0.084,0.082-0.125,0.125
			c-0.042,0.042-0.084,0.082-0.125,0.125c-0.042,0.042-0.084,0.082-0.125,0.125c-0.042,0.042-0.084,0.082-0.125,0.125
			c-0.042,0.042-0.084,0.082-0.125,0.125c-0.042,0.042-0.084,0.082-0.125,0.125c-0.042,0.042-0.084,0.082-0.125,0.125
			c-0.042,0.042-0.084,0.082-0.125,0.125c-0.042,0.042-0.084,0.082-0.125,0.125c-0.042,0.042-0.084,0.082-0.125,0.125
			c-0.042,0.042-0.084,0.082-0.125,0.125c-0.042,0.042-0.084,0.082-0.125,0.125c-0.042,0.042-0.084,0.082-0.125,0.125
			c-0.042,0.042-0.084,0.082-0.125,0.125c-0.042,0.042-0.084,0.082-0.125,0.125c-0.042,0.042-0.084,0.082-0.125,0.125
			c-0.042,0.042-0.084,0.082-0.125,0.125c-0.042,0.042-0.084,0.082-0.125,0.125c-0.042,0.042-0.084,0.082-0.125,0.125
			c-0.042,0.042-0.084,0.082-0.125,0.125c-0.042,0.042-0.084,0.082-0.125,0.125c-0.042,0.042-0.084,0.082-0.125,0.125
			c-0.042,0.042-0.084,0.082-0.125,0.125c-0.042,0.042-0.084,0.082-0.125,0.125c-0.042,0.042-0.084,0.082-0.125,0.125
			c-0.042,0.042-0.084,0.082-0.125,0.125c-0.042,0.042-0.084,0.082-0.125,0.125c-0.042,0.042-0.084,0.082-0.125,0.125
			c-0.042,0.042-0.084,0.082-0.125,0.125c-0.042,0.042-0.084,0.082-0.125,0.125c-0.042,0.042-0.084,0.082-0.125,0.125
			c-0.042,0.042-0.084,0.082-0.125,0.125c-0.042,0.042-0.084,0.082-0.125,0.125c-0.042,0.042-0.084,0.082-0.125,0.125
			c-0.042,0.042-0.084,0.082-0.125,0.125c-0.042,0.042-0.084,0.082-0.125,0.125c-0.042,0.042-0.084,0.082-0.125,0.125
			c-0.042,0.042-0.084,0.082-0.125,0.125c-0.042,0.042-0.084,0.082-0.125,0.125c-0.042,0.042-0.084,0.082-0.125,0.125
			c-0.042,0.042-0.084,0.082-0.125,0.125c-0.042,0.042-0.084,0.082-0.125,0.125c-0.042,0.042-0.084,0.082-0.125,0.125
			c-0.042,0.042-0.084,0.082-0.125,0.125c-0.042,0.042-0.084,0.082-0.125,0.125c-0.042,0.042-0.084,0.082-0.125,0.125
			c-0.042,0.042-0.084,0.082-0.125,0.125c-0.042,0.042-0.084,0.082-0.125,0.125c-0.042,0.042-0.084,0.082-0.125,0.125
			c-0.042,0.042-0.084,0.082-0.125,0.125c-0.042,0.042-0.084,0.082-0.125,0.125c-0.042,0.042-0.084,0.082-0.125,0.125
			c-0.042,0.042-0.084,0.082-0.125,0.125c-0.042,0.042-0.084,0.082-0.125,0.125c-0.042,0.042-0.084,0.082-0.125,0.125
			c-0.042,0.042-0.084,0.082-0.125,0.125c-0.042,0.042-0.084,0.082-0.125,0.125c-0.042,0.042-0.084,0.082-0.125,0.125
			c-0.042,0.042-0.084,0.082-0.125,0.125c-0.042,0.042-0.084,0.082-0.125,0.125c-0.042,0.042-0.084,0.082-0.125,0.125
			c-0.042,0.042-0.084,0.082-0.125,0.125c-0.042,0.042-0.084,0.082-0.125,0.125c-0.042,0.042-0.084,0.082-0.125,0.125
			c-0.042,0.042-0.084,0.082-0.125,0.125c-0.042,0.042-0.084,0.082-0.125,0.125c-0.042,0.042-0.084,0.082-0.125,0.125
			c-0.042,0.042-0.084,0.082-0.125,0.125c-0.042,0.042-0.084,0.082-0.125,0.125c-0.042,0.042-0.084,0.082-0.125,0.125
			c-0.042,0.042-0.084,0.082-0.125,0.125C9.9,46.89,9.857,46.93,9.816,46.973c-0.042,0.042-0.084,0.082-0.125,0.125
			C9.65,47.14,9.607,47.18,9.566,47.223c-0.042,0.042-0.084,0.082-0.125,0.125C9.4,47.39,9.357,47.43,9.316,47.473
			c-0.042,0.042-0.084,0.082-0.125,0.125C9.15,47.64,9.107,47.68,9.066,47.723c-0.042,0.042-0.084,0.082-0.125,0.125
			C8.9,47.89,8.857,47.93,8.816,47.973c-0.042,0.042-0.084,0.082-0.125,0.125C8.65,48.14,8.607,48.18,8.566,48.223
			c-0.042,0.042-0.084,0.082-0.125,0.125C8.4,48.39,8.357,48.43,8.316,48.473c-0.042,0.042-0.084,0.082-0.125,0.125
			C8.15,48.64,8.107,48.68,8.066,48.723c-0.042,0.042-0.084,0.082-0.125,0.125C7.9,48.89,7.857,48.93,7.816,48.973
			c-0.042,0.042-0.084,0.082-0.125,0.125C7.65,49.14,7.607,49.18,7.566,49.223c-0.042,0.042-0.084,0.082-0.125,0.125
			C7.4,49.39,7.357,49.43,7.316,49.473c-0.042,0.042-0.084,0.082-0.125,0.125C7.15,49.64,7.107,49.68,7.066,49.723
			c-0.042,0.042-0.084,0.082-0.125,0.125C6.9,49.89,6.857,49.93,6.816,49.973c-0.042,0.042-0.084,0.082-0.125,0.125
			C6.65,50.14,6.607,50.18,6.566,50.223c-0.042,0.042-0.084,0.082-0.125,0.125C6.4,50.39,6.357,50.43,6.316,50.473
			c-0.042,0.042-0.084,0.082-0.125,0.125C6.15,50.64,6.107,50.68,6.066,50.723c-0.042,0.042-0.084,0.082-0.125,0.125
			C5.9,50.89,5.857,50.93,5.816,50.973c-0.042,0.042-0.084,0.082-0.125,0.125C5.65,51.14,5.607,51.18,5.566,51.223
			c-0.042,0.042-0.084,0.082-0.125,0.125C5.4,51.39,5.357,51.43,5.316,51.473c-0.042,0.042-0.084,0.082-0.125,0.125
			C5.15,51.64,5.107,51.68,5.066,51.723c-0.042,0.042-0.084,0.082-0.125,0.125C4.9,51.89,4.857,51.93,4.816,51.973
			c-0.042,0.042-0.084,0.082-0.125,0.125C4.65,52.14,4.607,52.18,4.566,52.223c-0.042,0.042-0.084,0.082-0.125,0.125
			C4.4,52.39,4.357,52.43,4.316,52.473c-0.042,0.042-0.084,0.082-0.125,0.125C4.15,52.64,4.107,52.68,4.066,52.723
			c-0.042,0.042-0.084,0.082-0.125,0.125C3.9,52.89,3.857,52.93,3.816,52.973c-0.042,0.042-0.084,0.082-0.125,0.125
			C3.65,53.14,3.607,53.18,3.566,53.223c-0.042,0.042-0.084,0.082-0.125,0.125C3.4,53.39,3.357,53.43,3.316,53.473
			c-0.042,0.042-0.084,0.082-0.125,0.125C3.15,53.64,3.107,53.68,3.066,53.723c-0.042,0.042-0.084,0.082-0.125,0.125
			C2.9,53.89,2.857,53.93,2.816,53.973c-0.042,0.042-0.084,0.082-0.125,0.125C2.65,54.14,2.607,54.18,2.566,54.223
			c-0.042,0.042-0.084,0.082-0.125,0.125C2.4,54.39,2.357,54.43,2.316,54.473c-0.042,0.042-0.084,0.082-0.125,0.125
			C2.15,54.64,2.107,54.68,2.066,54.723c-0.042,0.042-0.084,0.082-0.125,0.125C1.9,54.89,1.857,54.93,1.817,54.973
			c-0.042,0.042-0.084,0.082-0.125,0.125C1.65,55.14,1.607,55.18,1.566,55.223c-0.042,0.042-0.084,0.082-0.125,0.125
			C1.4,55.39,1.357,55.43,1.316,55.473c-0.042,0.042-0.084,0.082-0.125,0.125C1.15,55.64,1.107,55.68,1.066,55.723
			c-0.042,0.042-0.084,0.082-0.125,0.125C0.9,55.89,0.857,55.93,0.816,55.973c-0.042,0.042-0.084,0.082-0.125,0.125
			C0.65,56.14,0.607,56.18,0.566,56.223c-0.042,0.042-0.084,0.082-0.125,0.125C0.4,56.39,0.357,56.43,0.316,56.473
			c-0.042,0.042-0.084,0.082-0.125,0.125C0.15,56.64,0.107,56.68,0.066,56.723c-0.042,0.042-0.084,0.082-0.125,0.125
			C-0.1,56.89-0.143,56.93-0.184,56.973c-0.042,0.042-0.084,0.082-0.125,0.125c-0.042,0.042-0.084,0.082-0.125,0.125
			c-0.042,0.042-0.084,0.082-0.125,0.125C-0.6,57.39-0.643,57.43-0.684,57.473c-0.042,0.042-0.084,0.082-0.125,0.125
			c-0.042,0.042-0.084,0.082-0.125,0.125c-0.042,0.042-0.084,0.082-0.125,0.125C-1.1,57.89-1.143,57.93-1.184,57.973
			c-0.042,0.042-0.084,0.082-0.125,0.125c-0.042,0.042-0.084,0.082-0.125,0.125c-0.042,0.042-0.084,0.082-0.125,0.125
			C-1.6,58.39-1.643,58.43-1.684,58.473c-0.042,0.042-0.084,0.082-0.125,0.125c-0.042,0.042-0.084,0.082-0.125,0.125
			c-0.042,0.042-0.084,0.082-0.125,0.125C-2.1,58.89-2.143,58.93-2.184,58.973c-0.042,0.042-0.084,0.082-0.125,0.125
			c-0.042,0.042-0.084,0.082-0.125,0.125c-0.042,0.042-0.084,0.082-0.125,0.125C-2.6,59.39-2.643,59.43-2.684,59.473
			c-0.042,0.042-0.084,0.082-0.125,0.125c-0.042,0.042-0.084,0.082-0.125,0.125c-0.042,0.042-0.084,0.082-0.125,0.125
			C-3.1,59.89-3.143,59.93-3.184,59.973c-0.042,0.042-0.084,0.082-0.125,0.125c-0.042,0.042-0.084,0.082-0.125,0.125
			c-0.042,0.042-0.084,0.082-0.125,0.125C-3.6,60.39-3.643,60.43-3.684,60.473c-0.042,0.042-0.084,0.082-0.125,0.125
			c-0.042,0.042-0.084,0.082-0.125,0.125c-0.042,0.042-0.084,0.082-0.125,0.125C-4.1,60.89-4.143,60.93-4.184,60.973
			c-0.042,0.042-0.084,0.082-0.125,0.125c-0.042,0.042-0.084,0.082-0.125,0.125c-0.042,0.042-0.084,0.082-0.125,0.125
			C-4.6,61.39-4.643,61.43-4.684,61.473c-0.042,0.042-0.084,0.082-0.125,0.125c-0.042,0.042-0.084,0.082-0.125,0.125
			c-0.042,0.042-0.084,0.082-0.125,0.125C-5.1,61.89-5.143,61.93-5.184,61.973c-0.042,0.042-0.084,0.082-0.125,0.125
			c-0.042,0.042-0.084,0.082-0.125,0.125c-0.042,0.042-0.084,0.082-0.125,0.125C-5.6,62.39-5.643,62.43-5.684,62.473
			c-0.042,0.042-0.084,0.082-0.125,0.125c-0.042,0.042-0.084,0.082-0.125,0.125c-0.042,0.042-0.084,0.082-0.125,0.125
			C-6.1,62.89-6.143,62.93-6.184,62.973c-0.042,0.042-0.084,0.082-0.125,0.125c-0.042,0.042-0.084,0.082-0.125,0.125
			c-0.042,0.042-0.084,0.082-0.125,0.125C-6.6,63.39-6.643,63.43-6.684,63.473c-0.042,0.042-0.084,0.082-0.125,0.125
			c-0.042,0.042-0.084,0.082-0.125,0.125c-0.042,0.042-0.084,0.082-0.125,0.125C-7.1,63.89-7.143,63.93-7.184,63.973
			c-0.042,0.042-0.084,0.082-0.125,0.125c-0.042,0.042-0.084,0.082-0.125,0.125c-0.042,0.042-0.084,0.082-0.125,0.125
			C-7.6,64.39-7.643,64.43-7.684,64.473c-0.042,0.042-0.084,0.082-0.125,0.125c-0.042,0.043-0.084,0.082-0.125,0.125
			c-0.042,0.043-0.084,0.082-0.125,0.125s-0.084,0.082-0.125,0.125c-0.042,0.043-0.084,0.082-0.125,0.125
			c-0.042,0.043-0.084,0.082-0.125,0.125c-0.042,0.043-0.084,0.082-0.125,0.125c-0.042,0.043-0.084,0.082-0.125,0.125
			c-0.042,0.043-0.084,0.082-0.125,0.125c-0.042,0.043-0.084,0.082-0.125,0.125c-0.042,0.043-0.084,0.082-0.125,0.125
			c-0.042,0.043-0.084,0.082-0.125,0.125c-0.042,0.043-0.084,0.082-0.125,0.125c-0.042,0.043-0.084,0.082-0.125,0.125
			c-0.042,0.043-0.084,0.082-0.125,0.125c-0.042,0.043-0.084,0.082-0.125,0.125c-0.042,0.043-0.084,0.082-0.125,0.125
			c-0.042,0.043-0.084,0.082-0.125,0.125c-0.042,0.043-0.084,0.082-0.125,0.125c-0.042,0.043-0.084,0.082-0.125,0.125
			c-0.042,0.043-0.084,0.082-0.125,0.125c-0.042,0.043-0.084,0.082-0.125,0.125c-0.042,0.043-0.084,0.082-0.125,0.125
			c-0.042,0.043-0.084,0.082-0.125,0.125c-0.042,0.043-0.084,0.082-0.125,0.125c-0.042,0.043-0.084,0.082-0.125,0.125
			c-0.042,0.043-0.084,0.082-0.125,0.125c-0.042,0.043-0.084,0.082-0.125,0.125c-0.042,0.043-0.084,0.082-0.125,0.125
			c-0.042,0.043-0.084,0.082-0.125,0.125c-0.042,0.043-0.084,0.082-0.125,0.125c-0.042,0.043-0.084,0.082-0.125,0.125
			c-0.042,0.043-0.084,0.082-0.125,0.125c-0.042,0.043-0.084,0.082-0.125,0.125c-0.042,0.043-0.084,0.082-0.125,0.125
			c-0.042,0.043-0.084,0.082-0.125,0.125c-0.042,0.043-0.084,0.082-0.125,0.125c-0.042,0.043-0.084,0.082-0.125,0.125
			c-0.042,0.043-0.084,0.082-0.125,0.125c-0.042,0.043-0.084,0.082-0.125,0.125c-0.042,0.043-0.084,0.082-0.125,0.125
			c-0.042,0.043-0.084,0.082-0.125,0.125c-0.054,0.057-0.108,0.111-0.162,0.168c-0.028,0.029-0.06,0.053-0.088,0.082
			c-0.042,0.043-0.084,0.082-0.125,0.125c-0.042,0.043-0.084,0.082-0.125,0.125c-0.042,0.043-0.084,0.082-0.125,0.125
			c-0.042,0.043-0.084,0.082-0.125,0.125c-0.042,0.043-0.084,0.082-0.125,0.125c-0.042,0.043-0.084,0.082-0.125,0.125
			c-0.042,0.043-0.084,0.082-0.125,0.125c-0.042,0.043-0.084,0.082-0.125,0.125c-0.042,0.043-0.084,0.082-0.125,0.125
			c-0.042,0.043-0.084,0.082-0.125,0.125c-0.042,0.043-0.084,0.082-0.125,0.125c-0.042,0.043-0.084,0.082-0.125,0.125
			c-0.042,0.043-0.084,0.082-0.125,0.125c-0.042,0.043-0.084,0.082-0.125,0.125c-0.042,0.043-0.084,0.082-0.125,0.125
			c-0.042,0.043-0.084,0.082-0.125,0.125c-0.042,0.043-0.084,0.082-0.125,0.125c-0.042,0.043-0.084,0.082-0.125,0.125
			c-0.042,0.043-0.084,0.082-0.125,0.125c-0.042,0.043-0.084,0.082-0.125,0.125c-0.042,0.043-0.084,0.082-0.125,0.125
			c-0.042,0.043-0.084,0.082-0.125,0.125c-0.042,0.043-0.084,0.082-0.125,0.125c-0.042,0.043-0.084,0.082-0.125,0.125
			c-0.042,0.043-0.084,0.082-0.125,0.125c-0.042,0.043-0.084,0.082-0.125,0.125c-0.042,0.043-0.084,0.082-0.125,0.125
			c-0.042,0.043-0.084,0.082-0.125,0.125c-0.042,0.043-0.084,0.082-0.125,0.125c-0.042,0.043-0.084,0.082-0.125,0.125
			c-0.042,0.043-0.084,0.082-0.125,0.125c-0.042,0.043-0.084,0.082-0.125,0.125c-0.042,0.043-0.084,0.082-0.125,0.125
			c-0.042,0.043-0.084,0.082-0.125,0.125c-0.042,0.043-0.084,0.082-0.125,0.125c-0.042,0.043-0.084,0.082-0.125,0.125
			c-0.042,0.043-0.084,0.082-0.125,0.125c-0.042,0.043-0.084,0.082-0.125,0.125c-0.042,0.043-0.084,0.082-0.125,0.125
			c-0.042,0.043-0.084,0.082-0.125,0.125c-0.042,0.043-0.084,0.082-0.125,0.125c-0.042,0.043-0.084,0.082-0.125,0.125
			c-0.042,0.043-0.084,0.082-0.125,0.125c-0.042,0.043-0.084,0.082-0.125,0.125c-0.042,0.043-0.084,0.082-0.125,0.125
			c-0.042,0.043-0.084,0.082-0.125,0.125c-0.042,0.043-0.084,0.082-0.125,0.125c-0.042,0.043-0.084,0.082-0.125,0.125
			c-0.042,0.043-0.084,0.082-0.125,0.125c-0.042,0.043-0.084,0.082-0.125,0.125c-0.042,0.043-0.084,0.082-0.125,0.125
			c-0.042,0.043-0.084,0.082-0.125,0.125c-0.042,0.043-0.084,0.082-0.125,0.125c-0.042,0.043-0.084,0.082-0.125,0.125
			c-0.042,0.043-0.084,0.082-0.125,0.125c-0.042,0.043-0.084,0.082-0.125,0.125c-0.042,0.043-0.084,0.082-0.125,0.125
			c-0.042,0.043-0.084,0.082-0.125,0.125c-0.042,0.043-0.084,0.082-0.125,0.125c-0.042,0.043-0.084,0.082-0.125,0.125
			c-0.042,0.043-0.084,0.082-0.125,0.125c-0.042,0.043-0.084,0.082-0.125,0.125c-0.042,0.043-0.084,0.082-0.125,0.125
			c-0.042,0.043-0.084,0.082-0.125,0.125c-0.042,0.043-0.084,0.082-0.125,0.125c-0.042,0.043-0.084,0.082-0.125,0.125
			c-0.042,0.043-0.084,0.082-0.125,0.125c-0.042,0.043-0.084,0.082-0.125,0.125c-0.042,0.043-0.084,0.082-0.125,0.125
			c-0.042,0.043-0.084,0.082-0.125,0.125c-0.042,0.043-0.084,0.082-0.125,0.125c-0.042,0.043-0.084,0.082-0.125,0.125
			c-0.042,0.043-0.084,0.082-0.125,0.125c-0.042,0.043-0.084,0.082-0.125,0.125c-0.042,0.043-0.084,0.082-0.125,0.125
			c-0.042,0.043-0.084,0.082-0.125,0.125c-0.042,0.043-0.084,0.082-0.125,0.125c-0.042,0.043-0.084,0.082-0.125,0.125
			c-0.042,0.043-0.084,0.082-0.125,0.125c-0.042,0.043-0.084,0.082-0.125,0.125c-0.042,0.043-0.084,0.082-0.125,0.125
			c-0.042,0.043-0.084,0.082-0.125,0.125c-0.042,0.043-0.084,0.082-0.125,0.125c-0.042,0.043-0.084,0.082-0.125,0.125
			c-0.042,0.043-0.084,0.082-0.125,0.125c-0.042,0.043-0.084,0.082-0.125,0.125c-0.042,0.043-0.084,0.082-0.125,0.125
			c-0.042,0.043-0.084,0.082-0.125,0.125c-0.042,0.043-0.084,0.082-0.125,0.125c-0.042,0.043-0.084,0.082-0.125,0.125
			c-0.042,0.043-0.084,0.082-0.125,0.125c-0.042,0.043-0.084,0.082-0.125,0.125c-0.042,0.043-0.084,0.082-0.125,0.125
			c-0.042,0.043-0.084,0.082-0.125,0.125c-0.042,0.043-0.084,0.082-0.125,0.125c-0.042,0.043-0.084,0.082-0.125,0.125
			c-0.042,0.043-0.084,0.082-0.125,0.125c-0.042,0.043-0.084,0.082-0.125,0.125c-0.042,0.043-0.084,0.082-0.125,0.125
			c-0.042,0.043-0.084,0.082-0.125,0.125c-0.042,0.043-0.084,0.082-0.125,0.125c-0.042,0.043-0.084,0.082-0.125,0.125
			c-0.042,0.043-0.084,0.082-0.125,0.125c-0.042,0.043-0.084,0.082-0.125,0.125c-0.042,0.043-0.084,0.082-0.125,0.125
			c-0.042,0.043-0.084,0.082-0.125,0.125c-0.042,0.043-0.084,0.082-0.125,0.125c-0.042,0.043-0.084,0.082-0.125,0.125
			c-0.042,0.043-0.084,0.082-0.125,0.125c-0.042,0.043-0.084,0.082-0.125,0.125c-0.042,0.043-0.084,0.082-0.125,0.125
			c-0.042,0.043-0.084,0.082-0.125,0.125c-0.042,0.043-0.084,0.082-0.125,0.125c-0.042,0.043-0.084,0.082-0.125,0.125
			c-0.042,0.043-0.084,0.082-0.125,0.125c-0.042,0.043-0.084,0.082-0.125,0.125c-0.042,0.043-0.084,0.082-0.125,0.125
			c-0.042,0.043-0.084,0.082-0.125,0.125c-0.042,0.043-0.084,0.082-0.125,0.125c-2.158,2.198-3.87,5.452-4.486,10.072
			c0.244,0.02,0.474,0.053,0.711,0.077c-0.002,0.002-0.003,0.004-0.005,0.005c-0.042,0.041-0.083,0.083-0.125,0.125
			c-0.042,0.041-0.083,0.083-0.125,0.125c-0.042,0.041-0.083,0.083-0.125,0.125c-0.042,0.041-0.083,0.083-0.125,0.125
			c-0.042,0.041-0.083,0.083-0.125,0.125c-0.042,0.041-0.083,0.083-0.125,0.125c-0.042,0.041-0.083,0.083-0.125,0.125
			c-0.042,0.041-0.083,0.083-0.125,0.125c-0.042,0.041-0.083,0.083-0.125,0.125c-0.042,0.041-0.083,0.083-0.125,0.125
			c-0.042,0.041-0.083,0.083-0.125,0.125c-0.042,0.041-0.083,0.083-0.125,0.125c-0.042,0.041-0.083,0.083-0.125,0.125
			c-0.042,0.041-0.083,0.083-0.125,0.125c-0.042,0.041-0.083,0.083-0.125,0.125c-0.042,0.041-0.083,0.083-0.125,0.125
			c-0.042,0.041-0.083,0.083-0.125,0.125c-0.042,0.041-0.083,0.083-0.125,0.125c-0.042,0.041-0.083,0.083-0.125,0.125
			c-0.042,0.041-0.083,0.083-0.125,0.125c-0.042,0.041-0.083,0.083-0.125,0.125c-0.042,0.041-0.083,0.083-0.125,0.125
			c-0.042,0.041-0.083,0.083-0.125,0.125c-0.042,0.041-0.083,0.083-0.125,0.125c-0.042,0.041-0.083,0.083-0.125,0.125
			c-0.042,0.041-0.083,0.083-0.125,0.125c-0.042,0.041-0.083,0.083-0.125,0.125c-0.042,0.041-0.083,0.083-0.125,0.125
			c-0.042,0.041-0.083,0.083-0.125,0.125c-0.042,0.041-0.083,0.083-0.125,0.125c-0.042,0.041-0.083,0.083-0.125,0.125
			c-0.042,0.041-0.083,0.083-0.125,0.125c-0.042,0.041-0.083,0.083-0.125,0.125c-0.042,0.041-0.083,0.083-0.125,0.125
			c-0.042,0.041-0.083,0.083-0.125,0.125c-0.042,0.041-0.083,0.083-0.125,0.125c-0.042,0.041-0.083,0.083-0.125,0.125
			c-0.042,0.041-0.083,0.083-0.125,0.125c-0.042,0.041-0.083,0.083-0.125,0.125c-0.042,0.041-0.083,0.083-0.125,0.125
			c-0.042,0.041-0.083,0.083-0.125,0.125c-0.042,0.041-0.083,0.083-0.125,0.125c-0.042,0.041-0.083,0.083-0.125,0.125
			c-3.91,3.708-2.091,13.753,4.444,13.753c0,2.865,0.781,8.856,1.27,11.526c0.193,1.055,0.82,2.189,1.679,3.031
			c0.93,0.703,2.082,1.313,3.092,1.313H-18v1h-1v1h-1v1h-1v1v6h6v-1h1v-1h1v-1h1v-1h1v-1h1v-1h1v-1h1v-1h1v-1h1v-1h0.75H-5h51v1h-1
			v1h-1v1h-1v1v6h6v-1h1v-1h1v-1h1v-1h1v-1h1v-1h1v-1h1v-1h1v-1h1v-1h1v-1h1v-1h1l38-38v-2.529c0-0.023-0.078-0.053-0.053-0.076
			c0.007-0.006-0.047-0.011-0.04-0.016c0.036-0.035,0.034-0.074,0.071-0.109c0.006-0.006,0-0.011,0.006-0.016
			c0.037-0.035,0.06-0.074,0.096-0.109c0.007-0.006,0.012-0.011,0.02-0.016c0.037-0.035,0.063-0.074,0.101-0.109
			c0.007-0.006,0.015-0.011,0.021-0.016c0.037-0.035,0.066-0.074,0.102-0.109c0.009-0.006,0.017-0.011,0.023-0.016
			c0.036-0.035,0.065-0.074,0.102-0.109c0.008-0.006,0.017-0.011,0.023-0.016c0.036-0.035,0.065-0.074,0.102-0.109
			c0.008-0.006,0.017-0.011,0.023-0.016c0.036-0.035,0.065-0.074,0.102-0.109c0.008-0.006,0.017-0.011,0.023-0.016
			c0.036-0.035,0.065-0.074,0.102-0.109c0.008-0.006,0.017-0.011,0.023-0.016c0.036-0.035,0.065-0.074,0.102-0.109
			c0.008-0.006,0.017-0.011,0.023-0.016c0.036-0.035,0.065-0.074,0.102-0.109c0.008-0.006,0.017-0.011,0.023-0.016
			c0.036-0.035,0.065-0.074,0.102-0.109c0.008-0.006,0.017-0.011,0.023-0.016c0.036-0.035,0.065-0.074,0.102-0.109
			c0.008-0.006,0.017-0.011,0.023-0.016c0.036-0.035,0.065-0.074,0.102-0.109c0.008-0.006,0.017-0.011,0.023-0.016
			c0.036-0.035,0.065-0.074,0.102-0.109c0.008-0.006,0.017-0.011,0.023-0.016c0.036-0.035,0.065-0.074,0.102-0.109
			c0.008-0.006,0.017-0.011,0.023-0.016c0.036-0.035,0.065-0.074,0.102-0.109c0.008-0.006,0.017-0.011,0.023-0.016
			c0.036-0.035,0.065-0.074,0.102-0.109c0.008-0.006,0.017-0.011,0.023-0.016c0.036-0.035,0.065-0.074,0.102-0.109
			c0.008-0.006,0.017-0.011,0.023-0.016c0.036-0.035,0.065-0.074,0.102-0.109c0.008-0.006,0.017-0.011,0.023-0.016
			c0.036-0.035,0.065-0.074,0.102-0.109c0.008-0.006,0.017-0.011,0.023-0.016c0.036-0.035,0.065-0.074,0.102-0.109
			c0.008-0.006,0.017-0.011,0.023-0.016c0.036-0.035,0.065-0.074,0.102-0.109c0.008-0.006,0.017-0.011,0.023-0.016
			c0.036-0.035,0.065-0.074,0.102-0.109c0.008-0.006,0.017-0.011,0.023-0.016c0.036-0.035,0.065-0.074,0.102-0.109
			c0.008-0.006,0.017-0.011,0.023-0.016c0.036-0.035,0.065-0.074,0.102-0.109c0.008-0.006,0.017-0.011,0.023-0.016
			c0.036-0.035,0.065-0.074,0.102-0.109c0.008-0.006,0.017-0.011,0.023-0.016c0.036-0.035,0.065-0.074,0.102-0.109
			c0.008-0.006,0.017-0.011,0.023-0.016c0.036-0.035,0.065-0.074,0.102-0.109c0.008-0.006,0.017-0.011,0.023-0.016
			c0.036-0.035,0.065-0.074,0.102-0.109c0.008-0.006,0.017-0.011,0.023-0.016c0.036-0.035,0.065-0.074,0.102-0.109
			c0.008-0.006,0.017-0.011,0.023-0.016c0.036-0.035,0.065-0.074,0.102-0.109c0.008-0.006,0.017-0.011,0.023-0.016
			c0.036-0.035,0.065-0.074,0.102-0.109c0.008-0.006,0.017-0.011,0.023-0.016c0.036-0.035,0.065-0.074,0.102-0.109
			c0.008-0.006,0.017-0.011,0.023-0.016c0.036-0.035,0.065-0.074,0.102-0.109c0.008-0.006,0.017-0.011,0.023-0.016
			c0.036-0.035,0.065-0.074,0.102-0.109c0.008-0.006,0.017-0.011,0.023-0.016c0.036-0.035,0.065-0.074,0.102-0.109
			c0.008-0.006,0.017-0.011,0.023-0.016c0.036-0.035,0.065-0.074,0.102-0.109c0.008-0.006,0.017-0.011,0.023-0.016
			c0.036-0.035,0.065-0.074,0.102-0.109c0.008-0.006,0.017-0.011,0.023-0.016c0.036-0.035,0.065-0.074,0.102-0.109
			c0.008-0.006,0.017-0.011,0.023-0.016c0.036-0.035,0.065-0.074,0.102-0.109c0.008-0.006,0.017-0.011,0.023-0.016
			c0.036-0.035,0.065-0.074,0.102-0.109c0.008-0.006,0.017-0.011,0.023-0.016c0.036-0.035,0.065-0.074,0.102-0.109
			c0.008-0.006,0.017-0.011,0.023-0.016c0.036-0.035,0.065-0.074,0.102-0.109c0.008-0.006,0.017-0.011,0.023-0.016
			c0.036-0.035,0.065-0.074,0.102-0.109c0.008-0.006,0.017-0.011,0.023-0.016c0.036-0.035,0.065-0.074,0.102-0.109
			c0.008-0.006,0.017-0.011,0.023-0.016c0.036-0.035,0.065-0.074,0.102-0.109c0.008-0.006,0.017-0.011,0.023-0.016
			c0.036-0.035,0.065-0.074,0.102-0.109c0.008-0.006,0.017-0.011,0.023-0.016c0.036-0.035,0.065-0.074,0.102-0.109
			c0.008-0.006,0.017-0.011,0.023-0.016c0.036-0.035,0.065-0.074,0.102-0.109c0.008-0.006,0.017-0.011,0.023-0.016
			c0.036-0.035,0.065-0.074,0.102-0.109c0.008-0.006,0.017-0.011,0.023-0.016c0.036-0.035,0.065-0.074,0.102-0.109
			c0.008-0.006,0.017-0.011,0.023-0.016c0.036-0.035,0.065-0.074,0.102-0.109c0.008-0.006,0.017-0.011,0.023-0.016
			c0.036-0.035,0.065-0.074,0.102-0.109c0.008-0.006,0.017-0.011,0.023-0.016c0.036-0.035,0.065-0.074,0.102-0.109
			c0.008-0.006,0.017-0.011,0.023-0.016c0.036-0.035,0.065-0.074,0.102-0.109c0.008-0.006,0.017-0.011,0.023-0.016
			c0.036-0.035,0.065-0.074,0.102-0.109c0.008-0.006,0.017-0.011,0.023-0.016c0.036-0.035,0.065-0.074,0.102-0.109
			c0.008-0.006,0.017-0.011,0.023-0.016c0.036-0.035,0.065-0.074,0.102-0.109c0.008-0.006,0.017-0.011,0.023-0.016
			c0.036-0.035,0.065-0.074,0.102-0.109c0.008-0.006,0.017-0.011,0.023-0.016c0.036-0.035,0.065-0.074,0.102-0.109
			c0.008-0.006,0.017-0.011,0.023-0.016c0.036-0.035,0.065-0.074,0.102-0.109c0.008-0.006,0.017-0.011,0.023-0.016
			c0.036-0.035,0.065-0.074,0.102-0.109c0.008-0.006,0.017-0.011,0.023-0.016c0.036-0.035,0.065-0.074,0.102-0.109
			c0.008-0.006,0.017-0.011,0.023-0.016c0.036-0.035,0.065-0.074,0.102-0.109c0.008-0.006,0.017-0.011,0.023-0.016
			c0.036-0.035,0.065-0.074,0.102-0.109c0.008-0.006,0.017-0.011,0.023-0.016c0.036-0.035,0.065-0.074,0.102-0.109
			c0.008-0.006,0.017-0.011,0.023-0.016c0.036-0.035,0.065-0.074,0.102-0.109c0.008-0.006,0.017-0.011,0.023-0.016
			c0.036-0.035,0.065-0.074,0.102-0.109c0.008-0.006,0.017-0.011,0.023-0.016c0.036-0.035,0.065-0.074,0.102-0.109
			c0.008-0.006,0.017-0.011,0.023-0.016c0.036-0.035,0.065-0.074,0.102-0.109c0.008-0.006,0.017-0.011,0.023-0.016
			c0.895-0.854,1.547-1.893,1.746-2.977c0.372-2.034,0.914-6,1.15-9.039c0.035-0.036,0.074-0.07,0.109-0.108
			c0.041-0.042,0.084-0.082,0.125-0.125c0.041-0.042,0.084-0.082,0.125-0.125c0.041-0.042,0.084-0.082,0.125-0.125
			c0.041-0.042,0.084-0.082,0.125-0.125c0.041-0.042,0.084-0.082,0.125-0.125c0.041-0.042,0.084-0.082,0.125-0.125
			c0.041-0.042,0.084-0.082,0.125-0.125c0.041-0.042,0.084-0.082,0.125-0.125c0.041-0.042,0.084-0.082,0.125-0.125
			c0.041-0.042,0.084-0.082,0.125-0.125c0.041-0.042,0.084-0.082,0.125-0.125c0.041-0.042,0.084-0.082,0.125-0.125
			c0.041-0.042,0.084-0.082,0.125-0.125c0.041-0.042,0.084-0.082,0.125-0.125c0.041-0.042,0.084-0.082,0.125-0.125
			c0.041-0.042,0.084-0.082,0.125-0.125c0.041-0.042,0.084-0.082,0.125-0.125c0.041-0.042,0.084-0.082,0.125-0.125
			c0.041-0.042,0.084-0.082,0.125-0.125c0.041-0.042,0.084-0.082,0.125-0.125c0.041-0.042,0.084-0.082,0.125-0.125
			c0.041-0.042,0.084-0.082,0.125-0.125c0.041-0.042,0.084-0.082,0.125-0.125c0.041-0.042,0.084-0.082,0.125-0.125
			c0.041-0.042,0.084-0.082,0.125-0.125c0.041-0.042,0.084-0.082,0.125-0.125c0.041-0.042,0.084-0.082,0.125-0.125
			c0.041-0.042,0.084-0.082,0.125-0.125c0.041-0.042,0.084-0.082,0.125-0.125c0.041-0.042,0.084-0.082,0.125-0.125
			c0.041-0.042,0.084-0.082,0.125-0.125c0.041-0.042,0.084-0.082,0.125-0.125c0.041-0.042,0.084-0.082,0.125-0.125
			C118.607,58.407,117.85,49.032,111.521,49.022z"/>
	</g>
</g>
<g>
	<rect x="29" y="84" fill="#FFFFFF" width="6" height="6"/>
	<path fill="#FFFFFF" d="M111.504,49.127c-7.668-0.013-9.684,4.419-10.723,9.943l-0.909,4.172c0,0-19.394-3.306-35.872-3.306
		c-16.479,0-35.872,3.306-35.872,3.306l-0.91-4.172c-1.04-5.523-3.054-9.956-10.723-9.943c-8.01,0.013-7.083,15.077,0.91,15.077
		c0,2.858,0.779,8.839,1.267,11.503c0.193,1.053,0.818,2.165,1.676,3.005C21.276,79.414,22.426,80,23.434,80h81.132
		c0.984,0,2.104-0.557,3.02-1.223c0.893-0.853,1.545-1.939,1.743-3.021c0.487-2.665,1.267-8.669,1.267-11.528
		C118.588,64.229,119.516,49.141,111.504,49.127z"/>
	<rect x="93" y="84" fill="#FFFFFF" width="6" height="6"/>
	<path fill="#FFFFFF" d="M31.411,56.449C42.137,54.322,55.298,54.037,64,54.037c8.701,0,21.863,0.286,32.589,2.413
		c0.308-2.371,1.185-5.238,3.671-7.586c2.365-2.232,5.756-3.557,10.11-3.9C108.984,34.566,102.049,31,96.947,31
		C88.783,31,77.354,31,64,31c-13.354,0-24.783,0-32.948,0c-5.102,0-12.037,3.566-13.423,13.963
		c4.356,0.344,7.746,1.653,10.111,3.885C30.227,51.196,31.104,54.078,31.411,56.449z M58,48.022l2.232-1.786
		c3.405-3.047,5.176-4.786,5.2-6.595c0-1.262-0.675-2.262-2.46-2.262c-1.333,0-2.468,0.667-3.277,1.262l-1.008-2.572
		c1.143-0.881,2.984-1.595,5.056-1.595c3.523,0,5.433,2.048,5.433,4.857c0,2.595-2.171,4.667-4.433,6.667L63,47.189V47h6v3H58
		V48.022z"/>
</g>
</svg>
