<?xml version="1.0" encoding="utf-8"?>
<!-- Generator: Adobe Illustrator 16.0.3, SVG Export Plug-In . SVG Version: 6.00 Build 0)  -->
<!DOCTYPE svg PUBLIC "-//W3C//DTD SVG 1.1//EN" "http://www.w3.org/Graphics/SVG/1.1/DTD/svg11.dtd">
<svg version="1.1" id="Layer_1" xmlns="http://www.w3.org/2000/svg" xmlns:xlink="http://www.w3.org/1999/xlink" x="0px" y="0px"
	 width="512px" height="512px" viewBox="0 0 512 512" enable-background="new 0 0 512 512" xml:space="preserve">
<path fill="#444953" class="bg" d="M512,100C512,44.771,467.229,0,412,0H100C44.771,0,0,44.771,0,100v312c0,55.229,44.771,100,100,100h312
	c55.229,0,100-44.771,100-100V100z"/>
<path fill="#353A42" class="shadow" d="M389.86,89H121.956c-4.271,0-8.104,1.781-10.824,4.632c-0.171,0.163-0.337,0.329-0.5,0.5
	c-0.171,0.163-0.337,0.329-0.5,0.5c-0.171,0.163-0.337,0.329-0.5,0.5c-0.171,0.163-0.337,0.329-0.5,0.5
	c-0.171,0.163-0.337,0.329-0.5,0.5c-0.171,0.163-0.337,0.329-0.5,0.5c-0.171,0.163-0.337,0.329-0.5,0.5
	c-0.171,0.163-0.337,0.329-0.5,0.5c-0.171,0.163-0.337,0.329-0.5,0.5c-0.171,0.163-0.337,0.329-0.5,0.5
	c-0.171,0.163-0.337,0.329-0.5,0.5c-0.171,0.163-0.337,0.329-0.5,0.5c-0.171,0.163-0.337,0.329-0.5,0.5
	c-0.171,0.163-0.337,0.329-0.5,0.5c-0.171,0.163-0.337,0.329-0.5,0.5c-0.171,0.163-0.337,0.329-0.5,0.5
	c-0.171,0.163-0.337,0.329-0.5,0.5c-0.171,0.163-0.337,0.329-0.5,0.5c-0.171,0.163-0.337,0.329-0.5,0.5
	c-0.171,0.163-0.337,0.329-0.5,0.5c-0.171,0.163-0.337,0.329-0.5,0.5c-0.171,0.163-0.337,0.329-0.5,0.5
	c-0.171,0.163-0.337,0.329-0.5,0.5c-0.171,0.163-0.337,0.329-0.5,0.5c-0.171,0.163-0.337,0.329-0.5,0.5
	c-0.171,0.163-0.337,0.329-0.5,0.5c-0.171,0.163-0.337,0.329-0.5,0.5c-0.171,0.163-0.337,0.329-0.5,0.5
	c-0.171,0.163-0.337,0.329-0.5,0.5c-0.171,0.163-0.337,0.329-0.5,0.5c-0.171,0.163-0.337,0.329-0.5,0.5
	c-0.171,0.163-0.337,0.329-0.5,0.5c-0.171,0.163-0.337,0.329-0.5,0.5c-0.171,0.163-0.337,0.329-0.5,0.5
	c-0.171,0.163-0.337,0.329-0.5,0.5c-0.171,0.163-0.337,0.329-0.5,0.5c-0.171,0.163-0.337,0.329-0.5,0.5
	c-0.171,0.163-0.337,0.329-0.5,0.5c-0.171,0.163-0.337,0.329-0.5,0.5c-0.171,0.163-0.337,0.329-0.5,0.5
	c-0.171,0.163-0.337,0.329-0.5,0.5c-0.171,0.163-0.337,0.329-0.5,0.5c-0.171,0.163-0.337,0.329-0.5,0.5
	c-0.171,0.163-0.337,0.329-0.5,0.5c-0.171,0.163-0.337,0.329-0.5,0.5c-0.171,0.163-0.337,0.329-0.5,0.5
	c-0.171,0.163-0.337,0.329-0.5,0.5c-0.171,0.163-0.337,0.329-0.5,0.5c-0.171,0.163-0.337,0.329-0.5,0.5
	c-0.171,0.163-0.337,0.329-0.5,0.5c-0.171,0.163-0.337,0.329-0.5,0.5c-0.171,0.163-0.337,0.329-0.5,0.5
	c-0.171,0.163-0.337,0.329-0.5,0.5c-0.171,0.163-0.337,0.329-0.5,0.5c-0.171,0.163-0.337,0.329-0.5,0.5
	c-0.171,0.163-0.337,0.329-0.5,0.5c-0.171,0.163-0.337,0.329-0.5,0.5c-0.171,0.163-0.337,0.329-0.5,0.5
	c-0.171,0.163-0.337,0.329-0.5,0.5c-0.171,0.163-0.337,0.329-0.5,0.5c-0.171,0.163-0.337,0.329-0.5,0.5
	c-0.171,0.163-0.337,0.329-0.5,0.5c-0.171,0.163-0.337,0.329-0.5,0.5c-0.171,0.163-0.337,0.329-0.5,0.5
	c-0.171,0.163-0.337,0.329-0.5,0.5c-0.171,0.163-0.337,0.329-0.5,0.5c-0.171,0.163-0.337,0.329-0.5,0.5
	c-0.171,0.163-0.337,0.329-0.5,0.5c-0.171,0.163-0.337,0.329-0.5,0.5c-0.171,0.163-0.337,0.329-0.5,0.5
	c-0.171,0.163-0.337,0.329-0.5,0.5c-0.171,0.163-0.337,0.329-0.5,0.5c-0.171,0.163-0.337,0.329-0.5,0.5
	c-0.171,0.163-0.337,0.329-0.5,0.5c-0.171,0.163-0.337,0.329-0.5,0.5c-0.171,0.163-0.337,0.329-0.5,0.5
	c-0.171,0.163-0.337,0.329-0.5,0.5c-0.171,0.163-0.337,0.329-0.5,0.5c-0.171,0.163-0.337,0.329-0.5,0.5
	c-0.171,0.163-0.337,0.329-0.5,0.5c-0.171,0.163-0.337,0.329-0.5,0.5c-0.171,0.163-0.337,0.329-0.5,0.5
	c-0.171,0.163-0.337,0.329-0.5,0.5c-0.171,0.163-0.337,0.329-0.5,0.5c-0.171,0.163-0.337,0.329-0.5,0.5
	c-0.171,0.163-0.337,0.329-0.5,0.5c-0.171,0.163-0.337,0.329-0.5,0.5c-0.171,0.163-0.337,0.329-0.5,0.5
	c-0.171,0.163-0.337,0.329-0.5,0.5c-0.171,0.163-0.337,0.329-0.5,0.5c-0.171,0.163-0.337,0.329-0.5,0.5
	c-0.171,0.163-0.337,0.329-0.5,0.5c-0.171,0.163-0.337,0.329-0.5,0.5c-0.171,0.163-0.337,0.329-0.5,0.5
	c-0.171,0.163-0.337,0.329-0.5,0.5c-0.171,0.163-0.337,0.329-0.5,0.5c-0.171,0.163-0.337,0.329-0.5,0.5
	c-0.171,0.163-0.337,0.329-0.5,0.5c-0.171,0.163-0.337,0.329-0.5,0.5c-0.171,0.163-0.337,0.329-0.5,0.5
	c-0.171,0.163-0.337,0.329-0.5,0.5c-0.171,0.163-0.337,0.329-0.5,0.5c-0.171,0.163-0.337,0.329-0.5,0.5
	c-0.171,0.163-0.337,0.329-0.5,0.5c-0.171,0.163-0.337,0.329-0.5,0.5c-0.171,0.163-0.337,0.329-0.5,0.5
	c-0.171,0.163-0.337,0.329-0.5,0.5c-0.171,0.163-0.337,0.329-0.5,0.5c-0.171,0.163-0.337,0.329-0.5,0.5
	c-0.171,0.163-0.337,0.329-0.5,0.5c-0.171,0.163-0.337,0.329-0.5,0.5c-0.171,0.163-0.337,0.329-0.5,0.5
	c-0.171,0.163-0.337,0.329-0.5,0.5c-0.171,0.163-0.337,0.329-0.5,0.5c-0.171,0.163-0.337,0.329-0.5,0.5
	c-0.171,0.163-0.337,0.329-0.5,0.5c-0.171,0.163-0.337,0.329-0.5,0.5c-0.171,0.163-0.337,0.329-0.5,0.5
	c-0.171,0.163-0.337,0.329-0.5,0.5c-0.171,0.163-0.337,0.329-0.5,0.5c-0.171,0.163-0.337,0.329-0.5,0.5
	c-0.171,0.163-0.337,0.329-0.5,0.5c-0.171,0.163-0.337,0.329-0.5,0.5c-0.171,0.163-0.337,0.329-0.5,0.5
	c-0.171,0.163-0.337,0.329-0.5,0.5c-0.171,0.163-0.337,0.329-0.5,0.5c-0.171,0.163-0.337,0.329-0.5,0.5
	c-0.171,0.163-0.337,0.329-0.5,0.5c-0.171,0.163-0.337,0.329-0.5,0.5c-0.171,0.163-0.337,0.329-0.5,0.5
	c-0.171,0.163-0.337,0.329-0.5,0.5c-0.171,0.163-0.337,0.329-0.5,0.5c-0.171,0.163-0.337,0.329-0.5,0.5
	c-0.171,0.163-0.337,0.329-0.5,0.5c-0.171,0.163-0.337,0.329-0.5,0.5c-0.171,0.163-0.337,0.329-0.5,0.5
	c-0.171,0.163-0.337,0.329-0.5,0.5c-0.171,0.163-0.337,0.329-0.5,0.5c-0.171,0.163-0.337,0.329-0.5,0.5
	c-0.171,0.163-0.337,0.329-0.5,0.5c-0.171,0.163-0.337,0.329-0.5,0.5c-0.171,0.163-0.337,0.329-0.5,0.5
	c-0.171,0.163-0.337,0.329-0.5,0.5c-0.171,0.163-0.337,0.329-0.5,0.5c-0.171,0.163-0.337,0.329-0.5,0.5
	c-0.171,0.163-0.337,0.329-0.5,0.5c-0.171,0.163-0.337,0.329-0.5,0.5c-0.171,0.163-0.337,0.329-0.5,0.5
	c-0.171,0.163-0.337,0.329-0.5,0.5c-0.171,0.163-0.337,0.329-0.5,0.5c-0.171,0.163-0.337,0.329-0.5,0.5
	c-0.171,0.163-0.337,0.329-0.5,0.5c-0.171,0.163-0.337,0.329-0.5,0.5c-0.171,0.163-0.337,0.329-0.5,0.5
	c-0.171,0.163-0.337,0.329-0.5,0.5c-0.171,0.163-0.337,0.329-0.5,0.5c-0.171,0.163-0.337,0.329-0.5,0.5
	c-0.171,0.163-0.337,0.329-0.5,0.5c-0.171,0.163-0.337,0.329-0.5,0.5c-0.171,0.163-0.337,0.329-0.5,0.5
	c-0.171,0.163-0.337,0.329-0.5,0.5c-0.171,0.163-0.337,0.329-0.5,0.5c-0.171,0.163-0.337,0.329-0.5,0.5
	c-0.171,0.163-0.337,0.329-0.5,0.5c-0.171,0.163-0.337,0.329-0.5,0.5c-0.171,0.163-0.337,0.329-0.5,0.5
	c-0.171,0.163-0.337,0.329-0.5,0.5c-0.171,0.163-0.337,0.329-0.5,0.5c-0.171,0.163-0.337,0.329-0.5,0.5
	c-0.171,0.163-0.337,0.329-0.5,0.5c-0.171,0.163-0.337,0.329-0.5,0.5c-0.171,0.163-0.337,0.329-0.5,0.5
	c-0.171,0.163-0.337,0.329-0.5,0.5c-0.171,0.163-0.337,0.329-0.5,0.5c-0.171,0.163-0.337,0.329-0.5,0.5
	c-0.171,0.163-0.337,0.329-0.5,0.5c-0.171,0.163-0.337,0.329-0.5,0.5c-0.171,0.163-0.337,0.329-0.5,0.5
	c-0.171,0.163-0.337,0.329-0.5,0.5c-0.171,0.163-0.337,0.329-0.5,0.5c-0.171,0.163-0.337,0.329-0.5,0.5
	c-0.171,0.163-0.337,0.329-0.5,0.5c-0.171,0.163-0.337,0.329-0.5,0.5c-0.171,0.163-0.337,0.329-0.5,0.5
	c-0.171,0.163-0.337,0.329-0.5,0.5c-0.171,0.163-0.337,0.329-0.5,0.5c-0.171,0.163-0.337,0.329-0.5,0.5
	c-0.171,0.163-0.337,0.329-0.5,0.5c-0.171,0.163-0.337,0.329-0.5,0.5c-0.171,0.163-0.337,0.329-0.5,0.5
	c-0.171,0.163-0.337,0.329-0.5,0.5c-0.171,0.163-0.337,0.329-0.5,0.5c-0.171,0.163-0.337,0.329-0.5,0.5
	c-0.171,0.163-0.337,0.329-0.5,0.5c-0.171,0.163-0.337,0.329-0.5,0.5c-0.171,0.163-0.337,0.329-0.5,0.5
	c-0.171,0.163-0.337,0.329-0.5,0.5c-0.171,0.163-0.337,0.329-0.5,0.5c-0.171,0.163-0.337,0.329-0.5,0.5
	c-0.171,0.163-0.337,0.329-0.5,0.5c-0.171,0.163-0.337,0.329-0.5,0.5c-0.171,0.163-0.337,0.329-0.5,0.5
	c-0.171,0.163-0.337,0.329-0.5,0.5c-0.171,0.163-0.337,0.329-0.5,0.5c-0.171,0.163-0.337,0.329-0.5,0.5
	c-0.171,0.163-0.337,0.329-0.5,0.5c-0.171,0.163-0.337,0.329-0.5,0.5c-0.171,0.163-0.337,0.329-0.5,0.5
	c-0.171,0.163-0.337,0.329-0.5,0.5c-0.171,0.163-0.337,0.329-0.5,0.5c-0.171,0.163-0.337,0.329-0.5,0.5
	c-0.171,0.163-0.337,0.329-0.5,0.5c-0.171,0.163-0.337,0.329-0.5,0.5c-0.171,0.163-0.337,0.329-0.5,0.5
	c-0.171,0.163-0.337,0.329-0.5,0.5c-0.171,0.163-0.337,0.329-0.5,0.5c-0.171,0.163-0.337,0.329-0.5,0.5
	c-0.171,0.163-0.337,0.329-0.5,0.5c-0.171,0.163-0.337,0.329-0.5,0.5c-0.171,0.163-0.337,0.329-0.5,0.5
	c-0.171,0.163-0.337,0.329-0.5,0.5c-0.171,0.163-0.337,0.329-0.5,0.5c-0.045,0.043-0.087,0.088-0.132,0.132V412
	c0,55.229,44.771,100,100,100h171.019c0.08-0.08,0.162-0.159,0.241-0.241c0.171-0.164,0.337-0.329,0.5-0.5
	c0.171-0.164,0.337-0.329,0.5-0.5c0.171-0.164,0.337-0.329,0.5-0.5c0.171-0.164,0.337-0.329,0.5-0.5
	c0.171-0.164,0.337-0.329,0.5-0.5c0.171-0.164,0.337-0.329,0.5-0.5c0.171-0.164,0.337-0.329,0.5-0.5
	c0.171-0.164,0.337-0.329,0.5-0.5c0.171-0.164,0.337-0.329,0.5-0.5c0.171-0.164,0.337-0.329,0.5-0.5
	c0.171-0.164,0.337-0.329,0.5-0.5c0.171-0.164,0.337-0.329,0.5-0.5c0.171-0.164,0.337-0.329,0.5-0.5
	c0.171-0.164,0.337-0.329,0.5-0.5c0.171-0.164,0.337-0.329,0.5-0.5c0.171-0.164,0.337-0.329,0.5-0.5
	c0.171-0.164,0.337-0.329,0.5-0.5c0.171-0.164,0.337-0.329,0.5-0.5c0.171-0.164,0.337-0.329,0.5-0.5
	c0.171-0.164,0.337-0.329,0.5-0.5c0.171-0.164,0.337-0.329,0.5-0.5c0.171-0.164,0.337-0.329,0.5-0.5
	c0.171-0.164,0.337-0.329,0.5-0.5c0.171-0.164,0.337-0.329,0.5-0.5c0.171-0.164,0.337-0.329,0.5-0.5
	c0.171-0.164,0.337-0.329,0.5-0.5c0.171-0.164,0.337-0.329,0.5-0.5c0.171-0.164,0.337-0.329,0.5-0.5
	c0.171-0.164,0.337-0.329,0.5-0.5c0.171-0.164,0.337-0.329,0.5-0.5c0.171-0.164,0.337-0.329,0.5-0.5
	c0.171-0.164,0.337-0.329,0.5-0.5c0.171-0.164,0.337-0.329,0.5-0.5c0.171-0.164,0.337-0.329,0.5-0.5
	c0.171-0.164,0.337-0.329,0.5-0.5c0.171-0.164,0.337-0.329,0.5-0.5c0.171-0.164,0.337-0.329,0.5-0.5
	c0.171-0.164,0.337-0.329,0.5-0.5c0.171-0.164,0.337-0.329,0.5-0.5c0.171-0.164,0.337-0.329,0.5-0.5
	c0.171-0.164,0.337-0.329,0.5-0.5c0.171-0.164,0.337-0.329,0.5-0.5c0.171-0.164,0.337-0.329,0.5-0.5
	c0.171-0.164,0.337-0.329,0.5-0.5c0.171-0.164,0.337-0.329,0.5-0.5c0.171-0.164,0.337-0.329,0.5-0.5
	c0.171-0.164,0.337-0.329,0.5-0.5c0.171-0.164,0.337-0.329,0.5-0.5c0.171-0.164,0.337-0.329,0.5-0.5
	c0.171-0.164,0.337-0.329,0.5-0.5c0.171-0.164,0.337-0.329,0.5-0.5c0.171-0.164,0.337-0.329,0.5-0.5
	c0.171-0.164,0.337-0.329,0.5-0.5c0.171-0.164,0.337-0.329,0.5-0.5c0.171-0.164,0.337-0.329,0.5-0.5
	c0.171-0.164,0.337-0.329,0.5-0.5c0.171-0.164,0.337-0.329,0.5-0.5c0.171-0.164,0.337-0.329,0.5-0.5
	c0.171-0.164,0.337-0.329,0.5-0.5c0.171-0.164,0.337-0.329,0.5-0.5c0.171-0.164,0.337-0.329,0.5-0.5
	c0.171-0.164,0.337-0.329,0.5-0.5c0.171-0.164,0.337-0.329,0.5-0.5c0.171-0.164,0.337-0.329,0.5-0.5
	c0.171-0.164,0.337-0.329,0.5-0.5c0.171-0.164,0.337-0.329,0.5-0.5c0.171-0.164,0.337-0.329,0.5-0.5
	c0.171-0.164,0.337-0.329,0.5-0.5c0.171-0.164,0.337-0.329,0.5-0.5c0.171-0.164,0.337-0.329,0.5-0.5
	c0.171-0.164,0.337-0.329,0.5-0.5c0.171-0.164,0.337-0.329,0.5-0.5c0.171-0.164,0.337-0.329,0.5-0.5
	c0.171-0.164,0.337-0.329,0.5-0.5c0.171-0.164,0.337-0.329,0.5-0.5c0.171-0.164,0.337-0.329,0.5-0.5
	c0.171-0.164,0.337-0.329,0.5-0.5c0.171-0.164,0.337-0.329,0.5-0.5c0.171-0.164,0.337-0.329,0.5-0.5
	c0.171-0.164,0.337-0.329,0.5-0.5c0.171-0.164,0.337-0.329,0.5-0.5c0.171-0.164,0.337-0.329,0.5-0.5
	c0.171-0.164,0.337-0.329,0.5-0.5c0.171-0.164,0.337-0.329,0.5-0.5c0.171-0.164,0.337-0.329,0.5-0.5
	c0.171-0.164,0.337-0.329,0.5-0.5c0.171-0.164,0.337-0.329,0.5-0.5c0.171-0.164,0.337-0.329,0.5-0.5
	c0.171-0.164,0.337-0.329,0.5-0.5c0.171-0.164,0.337-0.329,0.5-0.5c0.171-0.164,0.337-0.329,0.5-0.5
	c0.171-0.164,0.337-0.329,0.5-0.5c0.171-0.164,0.337-0.329,0.5-0.5c0.171-0.164,0.337-0.329,0.5-0.5
	c0.171-0.164,0.337-0.329,0.5-0.5c0.171-0.164,0.337-0.329,0.5-0.5c0.171-0.164,0.337-0.329,0.5-0.5
	c0.171-0.164,0.337-0.329,0.5-0.5c0.171-0.164,0.337-0.329,0.5-0.5c0.171-0.164,0.337-0.329,0.5-0.5
	c0.171-0.164,0.337-0.329,0.5-0.5c0.171-0.164,0.337-0.329,0.5-0.5c0.171-0.164,0.337-0.329,0.5-0.5
	c0.171-0.164,0.337-0.329,0.5-0.5c0.171-0.164,0.337-0.329,0.5-0.5c0.171-0.164,0.337-0.329,0.5-0.5
	c0.171-0.164,0.337-0.329,0.5-0.5c0.171-0.164,0.337-0.329,0.5-0.5c0.171-0.164,0.337-0.329,0.5-0.5
	c0.171-0.164,0.337-0.329,0.5-0.5c0.171-0.164,0.337-0.329,0.5-0.5c0.171-0.164,0.337-0.329,0.5-0.5
	c0.171-0.164,0.337-0.329,0.5-0.5c0.171-0.164,0.337-0.329,0.5-0.5c0.171-0.164,0.337-0.329,0.5-0.5
	c0.171-0.164,0.337-0.329,0.5-0.5c0.171-0.164,0.337-0.329,0.5-0.5c0.171-0.164,0.337-0.329,0.5-0.5
	c0.171-0.164,0.337-0.329,0.5-0.5c0.171-0.164,0.337-0.329,0.5-0.5c0.171-0.164,0.337-0.329,0.5-0.5
	c0.171-0.164,0.337-0.329,0.5-0.5c0.171-0.164,0.337-0.329,0.5-0.5c0.171-0.164,0.337-0.329,0.5-0.5
	c0.171-0.164,0.337-0.329,0.5-0.5c0.171-0.164,0.337-0.329,0.5-0.5c0.171-0.164,0.337-0.329,0.5-0.5
	c0.171-0.164,0.337-0.329,0.5-0.5c0.171-0.164,0.337-0.329,0.5-0.5c0.171-0.164,0.337-0.329,0.5-0.5
	c0.171-0.164,0.337-0.329,0.5-0.5c0.171-0.164,0.337-0.329,0.5-0.5c0.171-0.164,0.337-0.329,0.5-0.5
	c0.171-0.164,0.337-0.329,0.5-0.5c0.171-0.164,0.337-0.329,0.5-0.5c0.171-0.164,0.337-0.329,0.5-0.5
	c0.171-0.164,0.337-0.329,0.5-0.5c0.171-0.164,0.337-0.329,0.5-0.5c0.171-0.164,0.337-0.329,0.5-0.5
	c0.171-0.164,0.337-0.329,0.5-0.5c0.171-0.164,0.337-0.329,0.5-0.5c0.171-0.164,0.337-0.329,0.5-0.5
	c0.171-0.164,0.337-0.329,0.5-0.5c0.171-0.164,0.337-0.329,0.5-0.5c0.171-0.164,0.337-0.329,0.5-0.5
	c0.171-0.164,0.337-0.329,0.5-0.5c0.171-0.164,0.337-0.329,0.5-0.5c0.171-0.164,0.337-0.329,0.5-0.5
	c0.171-0.164,0.337-0.329,0.5-0.5c0.171-0.164,0.337-0.329,0.5-0.5c0.171-0.164,0.337-0.329,0.5-0.5
	c0.171-0.164,0.337-0.329,0.5-0.5c0.171-0.164,0.337-0.329,0.5-0.5c0.171-0.164,0.337-0.329,0.5-0.5
	c0.171-0.164,0.337-0.329,0.5-0.5c0.171-0.164,0.337-0.329,0.5-0.5c0.171-0.164,0.337-0.329,0.5-0.5
	c0.171-0.164,0.337-0.329,0.5-0.5c0.171-0.164,0.337-0.329,0.5-0.5c0.171-0.164,0.337-0.329,0.5-0.5
	c0.171-0.164,0.337-0.329,0.5-0.5c0.171-0.164,0.337-0.329,0.5-0.5c0.171-0.164,0.337-0.329,0.5-0.5
	c0.171-0.164,0.337-0.329,0.5-0.5c0.171-0.164,0.337-0.329,0.5-0.5c0.171-0.164,0.337-0.329,0.5-0.5
	c0.171-0.164,0.337-0.329,0.5-0.5c0.171-0.164,0.337-0.329,0.5-0.5c0.171-0.164,0.337-0.329,0.5-0.5
	c0.171-0.164,0.337-0.329,0.5-0.5c0.171-0.164,0.337-0.329,0.5-0.5c0.171-0.164,0.337-0.329,0.5-0.5
	c0.171-0.164,0.337-0.329,0.5-0.5c0.171-0.164,0.337-0.329,0.5-0.5c0.171-0.164,0.337-0.329,0.5-0.5
	c0.171-0.164,0.337-0.329,0.5-0.5c0.171-0.164,0.337-0.329,0.5-0.5c0.171-0.164,0.337-0.329,0.5-0.5
	c0.171-0.164,0.337-0.329,0.5-0.5c0.171-0.164,0.337-0.329,0.5-0.5c0.171-0.164,0.337-0.329,0.5-0.5
	c0.171-0.164,0.337-0.329,0.5-0.5c0.171-0.163,0.337-0.329,0.5-0.5c0.171-0.163,0.337-0.329,0.5-0.5
	c0.171-0.163,0.337-0.329,0.5-0.5c0.171-0.163,0.337-0.329,0.5-0.5c0.171-0.163,0.337-0.329,0.5-0.5
	c0.171-0.163,0.337-0.329,0.5-0.5c0.171-0.163,0.337-0.329,0.5-0.5c0.171-0.163,0.337-0.329,0.5-0.5
	c0.171-0.163,0.337-0.329,0.5-0.5c0.171-0.163,0.337-0.329,0.5-0.5c0.171-0.163,0.337-0.329,0.5-0.5
	c0.171-0.163,0.337-0.329,0.5-0.5c0.171-0.163,0.337-0.329,0.5-0.5c0.171-0.163,0.337-0.329,0.5-0.5
	c0.171-0.163,0.337-0.329,0.5-0.5c0.171-0.163,0.337-0.329,0.5-0.5c0.171-0.163,0.337-0.329,0.5-0.5
	c0.171-0.163,0.337-0.329,0.5-0.5c0.171-0.163,0.337-0.329,0.5-0.5c0.171-0.163,0.337-0.329,0.5-0.5
	c0.171-0.163,0.337-0.329,0.5-0.5c0.171-0.163,0.337-0.329,0.5-0.5c0.171-0.163,0.337-0.329,0.5-0.5
	c0.171-0.163,0.337-0.329,0.5-0.5c0.171-0.163,0.337-0.329,0.5-0.5c0.171-0.163,0.337-0.329,0.5-0.5
	c0.171-0.163,0.337-0.329,0.5-0.5c0.171-0.163,0.337-0.329,0.5-0.5c0.171-0.163,0.337-0.329,0.5-0.5
	c0.171-0.163,0.337-0.329,0.5-0.5c0.171-0.163,0.337-0.329,0.5-0.5c0.171-0.163,0.337-0.329,0.5-0.5
	c0.171-0.163,0.337-0.329,0.5-0.5c0.171-0.163,0.337-0.329,0.5-0.5c0.171-0.163,0.337-0.329,0.5-0.5
	c0.171-0.163,0.337-0.329,0.5-0.5c0.171-0.163,0.337-0.329,0.5-0.5c0.171-0.163,0.337-0.329,0.5-0.5
	c0.171-0.163,0.337-0.329,0.5-0.5c0.171-0.163,0.337-0.329,0.5-0.5c0.171-0.163,0.337-0.329,0.5-0.5
	c0.171-0.163,0.337-0.329,0.5-0.5c0.171-0.163,0.337-0.329,0.5-0.5c0.171-0.163,0.337-0.329,0.5-0.5
	c0.171-0.163,0.337-0.329,0.5-0.5c0.171-0.163,0.337-0.329,0.5-0.5c0.171-0.163,0.337-0.329,0.5-0.5
	c0.171-0.163,0.337-0.329,0.5-0.5c0.171-0.163,0.337-0.329,0.5-0.5c0.171-0.163,0.337-0.329,0.5-0.5
	c0.171-0.163,0.337-0.329,0.5-0.5c0.171-0.163,0.337-0.329,0.5-0.5c0.171-0.163,0.337-0.329,0.5-0.5
	c0.171-0.163,0.337-0.329,0.5-0.5c0.171-0.163,0.337-0.329,0.5-0.5c0.171-0.163,0.337-0.329,0.5-0.5
	c0.171-0.163,0.337-0.329,0.5-0.5c0.171-0.163,0.337-0.329,0.5-0.5c0.171-0.163,0.337-0.329,0.5-0.5
	c0.171-0.163,0.337-0.329,0.5-0.5c0.171-0.163,0.337-0.329,0.5-0.5c0.171-0.163,0.337-0.329,0.5-0.5
	c0.171-0.163,0.337-0.329,0.5-0.5c0.171-0.163,0.337-0.329,0.5-0.5c0.171-0.163,0.337-0.329,0.5-0.5
	c0.171-0.163,0.337-0.329,0.5-0.5c0.171-0.163,0.337-0.329,0.5-0.5c0.171-0.163,0.337-0.329,0.5-0.5
	c0.171-0.163,0.337-0.329,0.5-0.5c0.171-0.163,0.337-0.329,0.5-0.5c0.171-0.163,0.337-0.329,0.5-0.5
	c0.171-0.163,0.337-0.329,0.5-0.5c0.171-0.163,0.337-0.329,0.5-0.5c0.171-0.163,0.337-0.329,0.5-0.5
	c0.171-0.163,0.337-0.329,0.5-0.5c0.171-0.163,0.337-0.329,0.5-0.5c2.902-2.782,4.737-6.682,4.737-10.954v-267.86
	C405,95.666,398.142,89,389.86,89z"/>
<g>
	<rect x="152" y="208" fill="#FFFFFF" width="150" height="10"/>
	<circle fill="#FFFFFF" cx="167.124" cy="137.595" r="14.992"/>
	<circle fill="#FFFFFF" cx="207.109" cy="137.595" r="14.992"/>
	<circle fill="#FFFFFF" cx="247.095" cy="137.595" r="14.992"/>
	<circle fill="#FFFFFF" cx="287.081" cy="137.595" r="14.992"/>
	<path fill="#FFFFFF" d="M405,103.946C405,95.666,398.142,89,389.86,89H121.956C113.675,89,107,95.666,107,103.946v267.861
		c0,8.279,6.675,15.193,14.956,15.193H389.86c8.281,0,15.141-6.914,15.141-15.193V103.946L405,103.946z M122,104h210v67H122V104z
		 M122,372V181h210v191H122z M390,372h-48V181h48V372z M390,171h-48v-67h48V171z"/>
	<path fill="#FFFFFF" d="M152,345h150V245H152V345z M204.518,295l29.478-35h21.436l-23.73,26h20.671l-53.594,46.408L225.571,295
		H204.518z"/>
</g>
</svg>
