<?xml version="1.0" encoding="utf-8"?>
<!-- Generator: Adobe Illustrator 16.0.3, SVG Export Plug-In . SVG Version: 6.00 Build 0)  -->
<!DOCTYPE svg PUBLIC "-//W3C//DTD SVG 1.1//EN" "http://www.w3.org/Graphics/SVG/1.1/DTD/svg11.dtd">
<svg version="1.1" id="Layer_1" xmlns="http://www.w3.org/2000/svg" xmlns:xlink="http://www.w3.org/1999/xlink" x="0px" y="0px"
	 width="512px" height="512px" viewBox="0 0 512 512" enable-background="new 0 0 512 512" xml:space="preserve">
<path fill="#444953" d="M512,100C512,44.771,467.229,0,412,0H100C44.771,0,0,44.771,0,100v312c0,55.229,44.771,100,100,100h312
	c55.229,0,100-44.771,100-100V100z"/>
<g>
	<g>
		<defs>
			<path id="SVGID_1_" d="M512,99.948C512,44.748,467.061,0,411.853,0H99.964C44.755,0,0,44.748,0,99.948v311.837
				C0,466.984,44.755,512,99.964,512h311.888C467.061,512,512,466.984,512,411.785V99.948z"/>
		</defs>
		<clipPath id="SVGID_2_">
			<use xlink:href="#SVGID_1_"  overflow="visible"/>
		</clipPath>
		<path clip-path="url(#SVGID_2_)" fill="#353A42" enable-background="new    " d="M389.86,89H121.956
			c-4.271,0-8.104,1.781-10.824,4.632c-0.171,0.163-0.337,0.329-0.5,0.5c-0.171,0.163-0.337,0.329-0.5,0.5
			c-0.171,0.163-0.337,0.329-0.5,0.5c-0.171,0.163-0.337,0.329-0.5,0.5c-0.171,0.163-0.337,0.329-0.5,0.5
			c-0.171,0.163-0.337,0.329-0.5,0.5c-0.171,0.163-0.337,0.329-0.5,0.5c-0.171,0.163-0.337,0.329-0.5,0.5
			c-0.171,0.163-0.337,0.329-0.5,0.5c-0.171,0.163-0.337,0.329-0.5,0.5c-0.171,0.163-0.337,0.329-0.5,0.5
			c-0.171,0.163-0.337,0.329-0.5,0.5c-0.171,0.163-0.337,0.329-0.5,0.5c-0.171,0.163-0.337,0.329-0.5,0.5
			c-0.171,0.163-0.337,0.329-0.5,0.5c-0.171,0.163-0.337,0.329-0.5,0.5c-0.171,0.163-0.337,0.329-0.5,0.5
			c-0.171,0.163-0.337,0.329-0.5,0.5c-0.171,0.163-0.337,0.329-0.5,0.5c-0.171,0.163-0.337,0.329-0.5,0.5
			c-0.171,0.163-0.337,0.329-0.5,0.5c-0.171,0.163-0.337,0.329-0.5,0.5c-0.171,0.163-0.337,0.329-0.5,0.5
			c-0.171,0.163-0.337,0.329-0.5,0.5c-0.171,0.163-0.337,0.329-0.5,0.5c-0.171,0.163-0.337,0.329-0.5,0.5
			c-0.171,0.163-0.337,0.329-0.5,0.5c-0.171,0.163-0.337,0.329-0.5,0.5c-0.171,0.163-0.337,0.329-0.5,0.5
			c-0.171,0.163-0.337,0.329-0.5,0.5c-0.171,0.163-0.337,0.329-0.5,0.5c-0.171,0.163-0.337,0.329-0.5,0.5
			c-0.171,0.163-0.337,0.329-0.5,0.5c-0.171,0.163-0.337,0.329-0.5,0.5c-0.171,0.163-0.337,0.329-0.5,0.5
			c-0.171,0.163-0.337,0.329-0.5,0.5c-0.171,0.163-0.337,0.329-0.5,0.5c-0.171,0.163-0.337,0.329-0.5,0.5
			c-0.171,0.163-0.337,0.329-0.5,0.5c-0.171,0.163-0.337,0.329-0.5,0.5c-0.171,0.163-0.337,0.329-0.5,0.5
			c-0.171,0.163-0.337,0.329-0.5,0.5c-0.171,0.163-0.337,0.329-0.5,0.5c-0.171,0.163-0.337,0.329-0.5,0.5
			c-0.171,0.163-0.337,0.329-0.5,0.5c-0.171,0.163-0.337,0.329-0.5,0.5c-0.171,0.163-0.337,0.329-0.5,0.5
			c-0.171,0.163-0.337,0.329-0.5,0.5c-0.171,0.163-0.337,0.329-0.5,0.5c-0.171,0.163-0.337,0.329-0.5,0.5
			c-0.171,0.163-0.337,0.329-0.5,0.5c-0.171,0.163-0.337,0.329-0.5,0.5c-0.171,0.163-0.337,0.329-0.5,0.5
			c-0.171,0.163-0.337,0.329-0.5,0.5c-0.171,0.163-0.337,0.329-0.5,0.5c-0.171,0.163-0.337,0.329-0.5,0.5
			c-0.171,0.163-0.337,0.329-0.5,0.5c-0.171,0.163-0.337,0.329-0.5,0.5c-0.171,0.163-0.337,0.329-0.5,0.5
			c-0.171,0.163-0.337,0.329-0.5,0.5c-0.171,0.163-0.337,0.329-0.5,0.5c-0.171,0.163-0.337,0.329-0.5,0.5
			c-0.171,0.163-0.337,0.329-0.5,0.5c-0.171,0.163-0.337,0.329-0.5,0.5c-0.171,0.163-0.337,0.329-0.5,0.5
			c-0.171,0.163-0.337,0.329-0.5,0.5c-0.171,0.163-0.337,0.329-0.5,0.5c-0.171,0.163-0.337,0.329-0.5,0.5
			c-0.171,0.163-0.337,0.329-0.5,0.5c-0.171,0.163-0.337,0.329-0.5,0.5c-0.171,0.163-0.337,0.329-0.5,0.5
			c-0.171,0.163-0.337,0.329-0.5,0.5c-0.171,0.163-0.337,0.329-0.5,0.5c-0.171,0.163-0.337,0.329-0.5,0.5
			c-0.171,0.163-0.337,0.329-0.5,0.5c-0.171,0.163-0.337,0.329-0.5,0.5c-0.171,0.163-0.337,0.329-0.5,0.5
			c-0.171,0.163-0.337,0.329-0.5,0.5c-0.171,0.163-0.337,0.329-0.5,0.5c-0.171,0.163-0.337,0.329-0.5,0.5
			c-0.171,0.163-0.337,0.329-0.5,0.5c-0.171,0.163-0.337,0.329-0.5,0.5c-0.171,0.163-0.337,0.329-0.5,0.5
			c-0.171,0.163-0.337,0.329-0.5,0.5c-0.171,0.163-0.337,0.329-0.5,0.5c-0.171,0.163-0.337,0.329-0.5,0.5
			c-0.171,0.163-0.337,0.329-0.5,0.5c-0.171,0.163-0.337,0.329-0.5,0.5c-0.171,0.163-0.337,0.329-0.5,0.5
			c-0.171,0.163-0.337,0.329-0.5,0.5c-0.171,0.163-0.337,0.329-0.5,0.5c-0.171,0.163-0.337,0.329-0.5,0.5
			c-0.171,0.163-0.337,0.329-0.5,0.5c-0.171,0.163-0.337,0.329-0.5,0.5c-0.171,0.163-0.337,0.329-0.5,0.5
			c-0.171,0.163-0.337,0.329-0.5,0.5c-0.171,0.163-0.337,0.329-0.5,0.5c-0.171,0.163-0.337,0.329-0.5,0.5
			c-0.171,0.163-0.337,0.329-0.5,0.5c-0.171,0.163-0.337,0.329-0.5,0.5c-0.171,0.163-0.337,0.329-0.5,0.5
			c-0.171,0.163-0.337,0.329-0.5,0.5c-0.171,0.163-0.337,0.329-0.5,0.5c-0.171,0.163-0.337,0.329-0.5,0.5
			c-0.171,0.163-0.337,0.329-0.5,0.5c-0.171,0.163-0.337,0.329-0.5,0.5c-0.171,0.163-0.337,0.329-0.5,0.5
			c-0.171,0.163-0.337,0.329-0.5,0.5c-0.171,0.163-0.337,0.329-0.5,0.5c-0.171,0.163-0.337,0.329-0.5,0.5
			c-0.171,0.163-0.337,0.329-0.5,0.5c-0.171,0.163-0.337,0.329-0.5,0.5c-0.171,0.163-0.337,0.329-0.5,0.5
			c-0.171,0.163-0.337,0.329-0.5,0.5c-0.171,0.163-0.337,0.329-0.5,0.5c-0.171,0.163-0.337,0.329-0.5,0.5
			c-0.171,0.163-0.337,0.329-0.5,0.5c-0.171,0.163-0.337,0.329-0.5,0.5c-0.171,0.163-0.337,0.329-0.5,0.5
			c-0.171,0.163-0.337,0.329-0.5,0.5c-0.171,0.163-0.337,0.329-0.5,0.5c-0.171,0.163-0.337,0.329-0.5,0.5
			c-0.171,0.163-0.337,0.329-0.5,0.5c-0.171,0.163-0.337,0.329-0.5,0.5c-0.171,0.163-0.337,0.329-0.5,0.5
			c-0.171,0.163-0.337,0.329-0.5,0.5c-0.171,0.163-0.337,0.329-0.5,0.5c-0.171,0.163-0.337,0.329-0.5,0.5
			c-0.171,0.163-0.337,0.329-0.5,0.5c-0.171,0.163-0.337,0.329-0.5,0.5c-0.171,0.163-0.337,0.329-0.5,0.5
			c-0.171,0.163-0.337,0.329-0.5,0.5c-0.171,0.163-0.337,0.329-0.5,0.5c-0.171,0.163-0.337,0.329-0.5,0.5
			c-0.171,0.163-0.337,0.329-0.5,0.5c-0.171,0.163-0.337,0.329-0.5,0.5c-0.171,0.163-0.337,0.329-0.5,0.5
			c-0.171,0.163-0.337,0.329-0.5,0.5c-0.171,0.163-0.337,0.329-0.5,0.5c-0.171,0.163-0.337,0.329-0.5,0.5
			c-0.171,0.163-0.337,0.329-0.5,0.5c-0.171,0.163-0.337,0.329-0.5,0.5c-0.171,0.163-0.337,0.329-0.5,0.5
			c-0.171,0.163-0.337,0.329-0.5,0.5c-0.171,0.163-0.337,0.329-0.5,0.5c-0.171,0.163-0.337,0.329-0.5,0.5
			c-0.171,0.163-0.337,0.329-0.5,0.5c-0.171,0.163-0.337,0.329-0.5,0.5c-0.171,0.163-0.337,0.329-0.5,0.5
			c-0.171,0.163-0.337,0.329-0.5,0.5c-0.171,0.163-0.337,0.329-0.5,0.5c-0.171,0.163-0.337,0.329-0.5,0.5
			c-0.171,0.163-0.337,0.329-0.5,0.5c-0.171,0.163-0.337,0.329-0.5,0.5c-0.171,0.163-0.337,0.329-0.5,0.5
			c-0.171,0.163-0.337,0.329-0.5,0.5c-0.171,0.163-0.337,0.329-0.5,0.5c-0.171,0.163-0.337,0.329-0.5,0.5
			c-0.171,0.163-0.337,0.329-0.5,0.5c-0.171,0.163-0.337,0.329-0.5,0.5c-0.171,0.163-0.337,0.329-0.5,0.5
			c-0.171,0.163-0.337,0.329-0.5,0.5c-0.171,0.163-0.337,0.329-0.5,0.5c-0.171,0.163-0.337,0.329-0.5,0.5
			c-0.171,0.163-0.337,0.329-0.5,0.5c-0.171,0.163-0.337,0.329-0.5,0.5c-0.171,0.163-0.337,0.329-0.5,0.5
			c-0.171,0.163-0.337,0.329-0.5,0.5c-0.171,0.163-0.337,0.329-0.5,0.5c-0.171,0.163-0.337,0.329-0.5,0.5
			c-0.171,0.163-0.337,0.329-0.5,0.5c-0.171,0.163-0.337,0.329-0.5,0.5c-0.171,0.163-0.337,0.329-0.5,0.5
			c-0.171,0.163-0.337,0.329-0.5,0.5c-0.171,0.163-0.337,0.329-0.5,0.5c-0.171,0.163-0.337,0.329-0.5,0.5
			c-0.171,0.163-0.337,0.329-0.5,0.5c-0.171,0.163-0.337,0.329-0.5,0.5c-0.171,0.163-0.337,0.329-0.5,0.5
			c-0.171,0.163-0.337,0.329-0.5,0.5c-0.171,0.163-0.337,0.329-0.5,0.5c-0.171,0.163-0.337,0.329-0.5,0.5
			c-0.171,0.163-0.337,0.329-0.5,0.5c-0.171,0.163-0.337,0.329-0.5,0.5c-0.171,0.163-0.337,0.329-0.5,0.5
			c-0.171,0.163-0.337,0.329-0.5,0.5c-0.171,0.163-0.337,0.329-0.5,0.5c-0.171,0.163-0.337,0.329-0.5,0.5
			c-0.171,0.163-0.337,0.329-0.5,0.5c-0.171,0.163-0.337,0.329-0.5,0.5c-0.171,0.163-0.337,0.329-0.5,0.5
			c-0.171,0.163-0.337,0.329-0.5,0.5c-0.171,0.163-0.337,0.329-0.5,0.5c-0.171,0.163-0.337,0.329-0.5,0.5
			c-0.171,0.163-0.337,0.329-0.5,0.5c-0.171,0.163-0.337,0.329-0.5,0.5c-0.171,0.163-0.337,0.329-0.5,0.5
			c-0.171,0.163-0.337,0.329-0.5,0.5c-0.171,0.163-0.337,0.329-0.5,0.5c-0.171,0.163-0.337,0.329-0.5,0.5
			c-0.171,0.163-0.337,0.329-0.5,0.5c-0.171,0.163-0.337,0.329-0.5,0.5c-0.171,0.163-0.337,0.329-0.5,0.5
			c-0.171,0.163-0.337,0.329-0.5,0.5c-0.171,0.163-0.337,0.329-0.5,0.5c-0.171,0.163-0.337,0.329-0.5,0.5
			c-0.171,0.163-0.337,0.329-0.5,0.5c-0.171,0.163-0.337,0.329-0.5,0.5c-0.171,0.163-0.337,0.329-0.5,0.5
			c-0.171,0.163-0.337,0.329-0.5,0.5c-0.171,0.163-0.337,0.329-0.5,0.5c-0.171,0.163-0.337,0.329-0.5,0.5
			c-0.171,0.163-0.337,0.329-0.5,0.5c-0.171,0.163-0.337,0.329-0.5,0.5c-0.171,0.163-0.337,0.329-0.5,0.5
			c-0.171,0.163-0.337,0.329-0.5,0.5c-0.171,0.163-0.337,0.329-0.5,0.5c-0.171,0.163-0.337,0.329-0.5,0.5
			c-0.171,0.163-0.337,0.329-0.5,0.5c-0.171,0.163-0.337,0.329-0.5,0.5c-0.171,0.163-0.337,0.329-0.5,0.5
			c-0.171,0.163-0.337,0.329-0.5,0.5c-0.171,0.163-0.337,0.329-0.5,0.5c-0.171,0.163-0.337,0.329-0.5,0.5
			c-0.171,0.163-0.337,0.329-0.5,0.5c-0.171,0.163-0.337,0.329-0.5,0.5c-0.171,0.163-0.337,0.329-0.5,0.5
			c-0.171,0.163-0.337,0.329-0.5,0.5c-0.171,0.163-0.337,0.329-0.5,0.5c-0.171,0.163-0.337,0.329-0.5,0.5
			c-0.171,0.163-0.337,0.329-0.5,0.5c-0.171,0.163-0.337,0.329-0.5,0.5c-0.171,0.163-0.337,0.329-0.5,0.5
			c-0.171,0.163-0.337,0.329-0.5,0.5c-0.171,0.163-0.337,0.329-0.5,0.5c-0.171,0.163-0.337,0.329-0.5,0.5
			c-0.171,0.163-0.337,0.329-0.5,0.5c-0.171,0.163-0.337,0.329-0.5,0.5c-0.171,0.163-0.337,0.329-0.5,0.5
			c-0.171,0.163-0.337,0.329-0.5,0.5c-0.171,0.163-0.337,0.329-0.5,0.5c-0.171,0.163-0.337,0.329-0.5,0.5
			c-0.171,0.163-0.337,0.329-0.5,0.5c-0.171,0.163-0.337,0.329-0.5,0.5c-0.171,0.163-0.337,0.329-0.5,0.5
			c-0.171,0.163-0.337,0.329-0.5,0.5c-0.171,0.163-0.337,0.329-0.5,0.5c-0.171,0.163-0.337,0.329-0.5,0.5
			c-0.171,0.163-0.337,0.329-0.5,0.5c-0.171,0.163-0.337,0.329-0.5,0.5c-0.171,0.163-0.337,0.329-0.5,0.5
			c-0.171,0.163-0.337,0.329-0.5,0.5c-0.171,0.163-0.337,0.329-0.5,0.5c-0.171,0.163-0.337,0.329-0.5,0.5
			c-0.171,0.163-0.337,0.329-0.5,0.5c-0.171,0.163-0.337,0.329-0.5,0.5c-0.171,0.163-0.337,0.329-0.5,0.5
			c-0.171,0.163-0.337,0.329-0.5,0.5c-0.171,0.163-0.337,0.329-0.5,0.5c-0.171,0.163-0.337,0.329-0.5,0.5
			c-0.171,0.163-0.337,0.329-0.5,0.5c-0.171,0.163-0.337,0.329-0.5,0.5c-0.171,0.163-0.337,0.329-0.5,0.5
			c-0.171,0.163-0.337,0.329-0.5,0.5c-0.171,0.163-0.337,0.329-0.5,0.5c-0.171,0.163-0.337,0.329-0.5,0.5
			c-0.171,0.163-0.337,0.329-0.5,0.5c-0.171,0.163-0.337,0.329-0.5,0.5c-0.171,0.163-0.337,0.329-0.5,0.5
			c-0.171,0.163-0.337,0.329-0.5,0.5c-0.171,0.163-0.337,0.329-0.5,0.5c-0.171,0.163-0.337,0.329-0.5,0.5
			c-0.171,0.163-0.337,0.329-0.5,0.5c-0.171,0.163-0.337,0.329-0.5,0.5c-0.171,0.163-0.337,0.329-0.5,0.5
			c-0.171,0.163-0.337,0.329-0.5,0.5c-0.171,0.163-0.337,0.329-0.5,0.5c-0.171,0.163-0.337,0.329-0.5,0.5
			c-0.171,0.163-0.337,0.329-0.5,0.5c-0.171,0.163-0.337,0.329-0.5,0.5c-0.171,0.163-0.337,0.329-0.5,0.5
			c-0.171,0.163-0.337,0.329-0.5,0.5c-0.171,0.163-0.337,0.329-0.5,0.5c-0.171,0.163-0.337,0.329-0.5,0.5
			c-0.171,0.163-0.337,0.329-0.5,0.5c-0.171,0.163-0.337,0.329-0.5,0.5c-0.171,0.163-0.337,0.329-0.5,0.5
			c-0.171,0.163-0.337,0.329-0.5,0.5c-0.171,0.163-0.337,0.329-0.5,0.5c-0.171,0.163-0.337,0.329-0.5,0.5
			c-0.171,0.163-0.337,0.329-0.5,0.5c-0.171,0.163-0.337,0.329-0.5,0.5c-0.171,0.163-0.337,0.329-0.5,0.5
			c-0.171,0.163-0.337,0.329-0.5,0.5c-0.171,0.163-0.337,0.329-0.5,0.5c-0.171,0.163-0.337,0.329-0.5,0.5
			c-0.171,0.163-0.337,0.329-0.5,0.5c-0.171,0.163-0.337,0.329-0.5,0.5c-0.171,0.163-0.337,0.329-0.5,0.5
			C-41.219,245.85-43,249.679-43,253.945v267.86c0,8.28,6.675,15.194,14.956,15.194H239.86c4.26,0,8.134-1.837,10.9-4.74
			c0.17-0.164,0.337-0.329,0.5-0.5c0.17-0.164,0.337-0.329,0.5-0.5c0.17-0.164,0.337-0.329,0.5-0.5c0.17-0.164,0.337-0.329,0.5-0.5
			c0.17-0.164,0.337-0.329,0.5-0.5c0.17-0.164,0.337-0.329,0.5-0.5c0.17-0.164,0.337-0.329,0.5-0.5c0.17-0.164,0.337-0.329,0.5-0.5
			c0.17-0.164,0.337-0.329,0.5-0.5c0.17-0.164,0.337-0.329,0.5-0.5c0.17-0.164,0.337-0.329,0.5-0.5c0.17-0.164,0.337-0.329,0.5-0.5
			c0.17-0.164,0.337-0.329,0.5-0.5c0.171-0.164,0.337-0.329,0.5-0.5c0.171-0.164,0.337-0.329,0.5-0.5
			c0.171-0.164,0.337-0.329,0.5-0.5c0.171-0.164,0.337-0.329,0.5-0.5c0.171-0.164,0.337-0.329,0.5-0.5
			c0.171-0.164,0.337-0.329,0.5-0.5c0.171-0.164,0.337-0.329,0.5-0.5c0.171-0.164,0.337-0.329,0.5-0.5
			c0.171-0.164,0.337-0.329,0.5-0.5c0.171-0.164,0.337-0.329,0.5-0.5c0.171-0.164,0.337-0.329,0.5-0.5
			c0.171-0.164,0.337-0.329,0.5-0.5c0.171-0.164,0.337-0.329,0.5-0.5c0.171-0.164,0.337-0.329,0.5-0.5
			c0.171-0.164,0.337-0.329,0.5-0.5c0.171-0.164,0.337-0.329,0.5-0.5c0.171-0.164,0.337-0.329,0.5-0.5
			c0.171-0.164,0.337-0.329,0.5-0.5c0.171-0.164,0.337-0.329,0.5-0.5c0.171-0.164,0.337-0.329,0.5-0.5
			c0.171-0.164,0.337-0.329,0.5-0.5c0.171-0.164,0.337-0.329,0.5-0.5c0.171-0.164,0.337-0.329,0.5-0.5
			c0.171-0.164,0.337-0.329,0.5-0.5c0.171-0.164,0.337-0.329,0.5-0.5c0.171-0.164,0.337-0.329,0.5-0.5
			c0.171-0.164,0.337-0.329,0.5-0.5c0.171-0.164,0.337-0.329,0.5-0.5c0.171-0.164,0.337-0.329,0.5-0.5
			c0.171-0.164,0.337-0.329,0.5-0.5c0.171-0.164,0.337-0.329,0.5-0.5c0.171-0.164,0.337-0.329,0.5-0.5
			c0.171-0.164,0.337-0.329,0.5-0.5c0.171-0.164,0.337-0.329,0.5-0.5c0.171-0.164,0.337-0.329,0.5-0.5
			c0.171-0.164,0.337-0.329,0.5-0.5c0.171-0.164,0.337-0.329,0.5-0.5c0.171-0.164,0.337-0.329,0.5-0.5
			c0.171-0.164,0.337-0.329,0.5-0.5c0.171-0.164,0.337-0.329,0.5-0.5c0.171-0.164,0.337-0.329,0.5-0.5
			c0.171-0.164,0.337-0.329,0.5-0.5c0.171-0.164,0.337-0.329,0.5-0.5c0.171-0.164,0.337-0.329,0.5-0.5
			c0.171-0.164,0.337-0.329,0.5-0.5c0.171-0.164,0.337-0.329,0.5-0.5c0.171-0.164,0.337-0.329,0.5-0.5
			c0.171-0.164,0.337-0.329,0.5-0.5c0.171-0.164,0.337-0.329,0.5-0.5c0.171-0.164,0.337-0.329,0.5-0.5
			c0.171-0.164,0.337-0.329,0.5-0.5c0.171-0.164,0.337-0.329,0.5-0.5c0.171-0.164,0.337-0.329,0.5-0.5
			c0.171-0.164,0.337-0.329,0.5-0.5c0.171-0.164,0.337-0.329,0.5-0.5c0.171-0.164,0.337-0.329,0.5-0.5
			c0.171-0.164,0.337-0.329,0.5-0.5c0.171-0.164,0.337-0.329,0.5-0.5c0.171-0.164,0.337-0.329,0.5-0.5
			c0.171-0.164,0.337-0.329,0.5-0.5c0.171-0.164,0.337-0.329,0.5-0.5c0.171-0.164,0.337-0.329,0.5-0.5
			c0.171-0.164,0.337-0.329,0.5-0.5c0.171-0.164,0.337-0.329,0.5-0.5c0.171-0.164,0.337-0.329,0.5-0.5
			c0.171-0.164,0.337-0.329,0.5-0.5c0.171-0.164,0.337-0.329,0.5-0.5c0.171-0.164,0.337-0.329,0.5-0.5
			c0.171-0.164,0.337-0.329,0.5-0.5c0.171-0.164,0.337-0.329,0.5-0.5c0.171-0.164,0.337-0.329,0.5-0.5
			c0.171-0.164,0.337-0.329,0.5-0.5c0.171-0.164,0.337-0.329,0.5-0.5c0.171-0.164,0.337-0.329,0.5-0.5
			c0.171-0.164,0.337-0.329,0.5-0.5c0.171-0.164,0.337-0.329,0.5-0.5c0.171-0.164,0.337-0.329,0.5-0.5
			c0.171-0.164,0.337-0.329,0.5-0.5c0.171-0.164,0.337-0.329,0.5-0.5c0.171-0.164,0.337-0.329,0.5-0.5
			c0.171-0.164,0.337-0.329,0.5-0.5c0.171-0.164,0.337-0.329,0.5-0.5c0.171-0.164,0.337-0.329,0.5-0.5
			c0.171-0.164,0.337-0.329,0.5-0.5c0.171-0.164,0.337-0.329,0.5-0.5c0.171-0.164,0.337-0.329,0.5-0.5
			c0.171-0.164,0.337-0.329,0.5-0.5c0.171-0.164,0.337-0.329,0.5-0.5c0.171-0.164,0.337-0.329,0.5-0.5
			c0.171-0.164,0.337-0.329,0.5-0.5c0.171-0.164,0.337-0.329,0.5-0.5c0.171-0.164,0.337-0.329,0.5-0.5
			c0.171-0.164,0.337-0.329,0.5-0.5c0.171-0.164,0.337-0.329,0.5-0.5c0.171-0.164,0.337-0.329,0.5-0.5
			c0.171-0.164,0.337-0.329,0.5-0.5c0.171-0.164,0.337-0.329,0.5-0.5c0.171-0.164,0.337-0.329,0.5-0.5
			c0.171-0.164,0.337-0.329,0.5-0.5c0.171-0.164,0.337-0.329,0.5-0.5c0.171-0.164,0.337-0.329,0.5-0.5
			c0.171-0.164,0.337-0.329,0.5-0.5c0.171-0.164,0.337-0.329,0.5-0.5c0.171-0.164,0.337-0.329,0.5-0.5
			c0.171-0.164,0.337-0.329,0.5-0.5c0.171-0.164,0.337-0.329,0.5-0.5c0.171-0.164,0.337-0.329,0.5-0.5
			c0.171-0.164,0.337-0.329,0.5-0.5c0.171-0.164,0.337-0.329,0.5-0.5c0.171-0.164,0.337-0.329,0.5-0.5
			c0.171-0.164,0.337-0.329,0.5-0.5c0.171-0.164,0.337-0.329,0.5-0.5c0.171-0.164,0.337-0.329,0.5-0.5
			c0.171-0.164,0.337-0.329,0.5-0.5c0.171-0.164,0.337-0.329,0.5-0.5c0.171-0.164,0.337-0.329,0.5-0.5
			c0.171-0.164,0.337-0.329,0.5-0.5c0.171-0.164,0.337-0.329,0.5-0.5c0.171-0.164,0.337-0.329,0.5-0.5
			c0.171-0.164,0.337-0.329,0.5-0.5c0.171-0.164,0.337-0.329,0.5-0.5c0.171-0.164,0.337-0.329,0.5-0.5
			c0.171-0.164,0.337-0.329,0.5-0.5c0.171-0.164,0.337-0.329,0.5-0.5c0.171-0.164,0.337-0.329,0.5-0.5
			c0.171-0.164,0.337-0.329,0.5-0.5c0.171-0.164,0.337-0.329,0.5-0.5c0.171-0.164,0.337-0.329,0.5-0.5
			c0.171-0.164,0.337-0.329,0.5-0.5c0.171-0.164,0.337-0.329,0.5-0.5c0.171-0.164,0.337-0.329,0.5-0.5
			c0.171-0.164,0.337-0.329,0.5-0.5c0.171-0.164,0.337-0.329,0.5-0.5c0.171-0.164,0.337-0.329,0.5-0.5
			c0.171-0.164,0.337-0.329,0.5-0.5c0.171-0.164,0.337-0.329,0.5-0.5c0.171-0.164,0.337-0.329,0.5-0.5
			c0.171-0.164,0.337-0.329,0.5-0.5c0.171-0.164,0.337-0.329,0.5-0.5c0.171-0.164,0.337-0.329,0.5-0.5
			c0.171-0.164,0.337-0.329,0.5-0.5c0.171-0.164,0.337-0.329,0.5-0.5c0.171-0.164,0.337-0.329,0.5-0.5
			c0.171-0.164,0.337-0.329,0.5-0.5c0.171-0.164,0.337-0.329,0.5-0.5c0.171-0.164,0.337-0.329,0.5-0.5
			c0.171-0.164,0.337-0.329,0.5-0.5c0.171-0.164,0.337-0.329,0.5-0.5c0.171-0.164,0.337-0.329,0.5-0.5
			c0.171-0.164,0.337-0.329,0.5-0.5c0.171-0.164,0.337-0.329,0.5-0.5c0.171-0.164,0.337-0.329,0.5-0.5
			c0.171-0.164,0.337-0.329,0.5-0.5c0.171-0.164,0.337-0.329,0.5-0.5c0.171-0.164,0.337-0.329,0.5-0.5
			c0.171-0.164,0.337-0.329,0.5-0.5c0.171-0.164,0.337-0.329,0.5-0.5c0.171-0.164,0.337-0.329,0.5-0.5
			c0.171-0.164,0.337-0.329,0.5-0.5c0.171-0.164,0.337-0.329,0.5-0.5c0.171-0.164,0.337-0.329,0.5-0.5
			c0.171-0.164,0.337-0.329,0.5-0.5c0.171-0.164,0.337-0.329,0.5-0.5c0.171-0.164,0.337-0.329,0.5-0.5
			c0.171-0.164,0.337-0.329,0.5-0.5c0.171-0.164,0.337-0.329,0.5-0.5c0.171-0.164,0.337-0.329,0.5-0.5
			c0.171-0.164,0.337-0.329,0.5-0.5c0.171-0.164,0.337-0.329,0.5-0.5c0.171-0.164,0.337-0.329,0.5-0.5
			c0.171-0.164,0.337-0.329,0.5-0.5c0.171-0.164,0.337-0.329,0.5-0.5c0.171-0.164,0.337-0.329,0.5-0.5
			c0.171-0.164,0.337-0.329,0.5-0.5c0.171-0.164,0.337-0.329,0.5-0.5c0.171-0.164,0.337-0.329,0.5-0.5
			c0.171-0.164,0.337-0.329,0.5-0.5c0.171-0.164,0.337-0.329,0.5-0.5c0.171-0.164,0.337-0.329,0.5-0.5
			c0.171-0.164,0.337-0.329,0.5-0.5c0.171-0.164,0.337-0.329,0.5-0.5c0.171-0.164,0.337-0.329,0.5-0.5
			c0.171-0.164,0.337-0.329,0.5-0.5c0.171-0.164,0.337-0.329,0.5-0.5c0.171-0.164,0.337-0.329,0.5-0.5
			c0.171-0.164,0.337-0.329,0.5-0.5c0.171-0.164,0.337-0.329,0.5-0.5c0.171-0.164,0.337-0.329,0.5-0.5
			c0.171-0.164,0.337-0.329,0.5-0.5c0.171-0.164,0.337-0.329,0.5-0.5c0.171-0.164,0.337-0.329,0.5-0.5
			c0.171-0.164,0.337-0.329,0.5-0.5c0.171-0.164,0.337-0.329,0.5-0.5c0.171-0.164,0.337-0.329,0.5-0.5
			c0.171-0.164,0.337-0.329,0.5-0.5c0.171-0.164,0.337-0.329,0.5-0.5c0.171-0.164,0.337-0.329,0.5-0.5
			c0.171-0.164,0.337-0.329,0.5-0.5c0.171-0.164,0.337-0.329,0.5-0.5c0.171-0.164,0.337-0.329,0.5-0.5
			c0.171-0.164,0.337-0.329,0.5-0.5c0.171-0.164,0.337-0.329,0.5-0.5c0.171-0.164,0.337-0.329,0.5-0.5
			c0.171-0.164,0.337-0.329,0.5-0.5c0.171-0.164,0.337-0.329,0.5-0.5c0.171-0.164,0.337-0.329,0.5-0.5
			c0.171-0.164,0.337-0.329,0.5-0.5c0.171-0.164,0.337-0.329,0.5-0.5c0.171-0.164,0.337-0.329,0.5-0.5
			c0.171-0.164,0.337-0.329,0.5-0.5c0.171-0.163,0.337-0.329,0.5-0.5c0.171-0.163,0.337-0.329,0.5-0.5
			c0.171-0.163,0.337-0.329,0.5-0.5c0.171-0.163,0.337-0.329,0.5-0.5c0.171-0.163,0.337-0.329,0.5-0.5
			c0.171-0.163,0.337-0.329,0.5-0.5c0.171-0.163,0.337-0.329,0.5-0.5c0.171-0.163,0.337-0.329,0.5-0.5
			c0.171-0.163,0.337-0.329,0.5-0.5c0.171-0.163,0.337-0.329,0.5-0.5c0.171-0.163,0.337-0.329,0.5-0.5
			c0.171-0.163,0.337-0.329,0.5-0.5c0.171-0.163,0.337-0.329,0.5-0.5c0.171-0.163,0.337-0.329,0.5-0.5
			c0.171-0.163,0.337-0.329,0.5-0.5c0.171-0.163,0.337-0.329,0.5-0.5c0.171-0.163,0.337-0.329,0.5-0.5
			c0.171-0.163,0.337-0.329,0.5-0.5c0.171-0.163,0.337-0.329,0.5-0.5c0.171-0.163,0.337-0.329,0.5-0.5
			c0.171-0.163,0.337-0.329,0.5-0.5c0.171-0.163,0.337-0.329,0.5-0.5c0.171-0.163,0.337-0.329,0.5-0.5
			c0.171-0.163,0.337-0.329,0.5-0.5c0.171-0.163,0.337-0.329,0.5-0.5c0.171-0.163,0.337-0.329,0.5-0.5
			c0.171-0.163,0.337-0.329,0.5-0.5c0.171-0.163,0.337-0.329,0.5-0.5c0.171-0.163,0.337-0.329,0.5-0.5
			c0.171-0.163,0.337-0.329,0.5-0.5c0.171-0.163,0.337-0.329,0.5-0.5c0.171-0.163,0.337-0.329,0.5-0.5
			c0.171-0.163,0.337-0.329,0.5-0.5c0.171-0.163,0.337-0.329,0.5-0.5c0.171-0.163,0.337-0.329,0.5-0.5
			c0.171-0.163,0.337-0.329,0.5-0.5c0.171-0.163,0.337-0.329,0.5-0.5c0.171-0.163,0.337-0.329,0.5-0.5
			c0.171-0.163,0.337-0.329,0.5-0.5c0.171-0.163,0.337-0.329,0.5-0.5c0.171-0.163,0.337-0.329,0.5-0.5
			c0.171-0.163,0.337-0.329,0.5-0.5c0.171-0.163,0.337-0.329,0.5-0.5c0.171-0.163,0.337-0.329,0.5-0.5
			c0.171-0.163,0.337-0.329,0.5-0.5c0.171-0.163,0.337-0.329,0.5-0.5c0.171-0.163,0.337-0.329,0.5-0.5
			c0.171-0.163,0.337-0.329,0.5-0.5c0.171-0.163,0.337-0.329,0.5-0.5c0.171-0.163,0.337-0.329,0.5-0.5
			c0.171-0.163,0.337-0.329,0.5-0.5c0.171-0.163,0.337-0.329,0.5-0.5c0.171-0.163,0.337-0.329,0.5-0.5
			c0.171-0.163,0.337-0.329,0.5-0.5c0.171-0.163,0.337-0.329,0.5-0.5c0.171-0.163,0.337-0.329,0.5-0.5
			c0.171-0.163,0.337-0.329,0.5-0.5c0.171-0.163,0.337-0.329,0.5-0.5c0.171-0.163,0.337-0.329,0.5-0.5
			c0.171-0.163,0.337-0.329,0.5-0.5c0.171-0.163,0.337-0.329,0.5-0.5c0.171-0.163,0.337-0.329,0.5-0.5
			c0.171-0.163,0.337-0.329,0.5-0.5c0.171-0.163,0.337-0.329,0.5-0.5c0.171-0.163,0.337-0.329,0.5-0.5
			c0.171-0.163,0.337-0.329,0.5-0.5c0.171-0.163,0.337-0.329,0.5-0.5c0.171-0.163,0.337-0.329,0.5-0.5
			c0.171-0.163,0.337-0.329,0.5-0.5c0.171-0.163,0.337-0.329,0.5-0.5c0.171-0.163,0.337-0.329,0.5-0.5
			c0.171-0.163,0.337-0.329,0.5-0.5c0.171-0.163,0.337-0.329,0.5-0.5c0.171-0.163,0.337-0.329,0.5-0.5
			c0.171-0.163,0.337-0.329,0.5-0.5c0.171-0.163,0.337-0.329,0.5-0.5c2.903-2.782,4.738-6.682,4.738-10.954v-267.86
			C405,95.666,398.142,89,389.86,89z"/>
	</g>
</g>
<g>
	<rect x="152" y="208" fill="#FFFFFF" width="150" height="10"/>
	<circle fill="#FFFFFF" cx="166.94" cy="137.595" r="14.992"/>
	<circle fill="#FFFFFF" cx="206.926" cy="137.595" r="14.992"/>
	<circle fill="#FFFFFF" cx="246.912" cy="137.595" r="14.992"/>
	<circle fill="#FFFFFF" cx="286.897" cy="137.595" r="14.992"/>
	<path fill="#FFFFFF" d="M389.86,89H121.956C113.675,89,107,95.666,107,103.946v267.861c0,8.279,6.675,15.193,14.956,15.193H389.86
		c8.281,0,15.141-6.914,15.141-15.193V103.946C405,95.666,398.142,89,389.86,89z M122,104h210v67H122V104z M122,372V181h210v191H122
		z M390,372h-48V181h48V372z M390,171h-48v-67h48V171z"/>
	<path fill="#FFFFFF" d="M152,345h150V245H152V345z M219.675,259.834c5.167,11.544,66.563,50.861,12.563,72.918
		c9.307-7.768,17.458-25.986-4.603-47.564c0.767,7.863,0.671,17.838-5.658,25.701c-0.864-2.396-0.097-5.851-6.043-11.027
		c1.727,8.246-15.154,17.164,0.383,32.892C177.377,312.998,218.14,278.764,219.675,259.834z"/>
</g>
</svg>
