<?xml version="1.0" encoding="utf-8"?>
<!-- Generator: Adobe Illustrator 16.0.3, SVG Export Plug-In . SVG Version: 6.00 Build 0)  -->
<!DOCTYPE svg PUBLIC "-//W3C//DTD SVG 1.1//EN" "http://www.w3.org/Graphics/SVG/1.1/DTD/svg11.dtd">
<svg version="1.1" id="Layer_1" xmlns="http://www.w3.org/2000/svg" xmlns:xlink="http://www.w3.org/1999/xlink" x="0px" y="0px"
	 width="128px" height="128px" viewBox="0 0 128 128" enable-background="new 0 0 128 128" xml:space="preserve">
<path fill="#444953" d="M128,25c0-13.807-11.193-25-25-25H25C11.193,0,0,11.193,0,25v78c0,13.807,11.193,25,25,25h78
	c13.807,0,25-11.193,25-25V25z"/>
<g>
	<defs>
		<path id="SVGID_1_" d="M128,25c0-13.807-11.193-25-25-25H25C11.193,0,0,11.193,0,25v78c0,13.807,11.193,25,25,25h78
			c13.807,0,25-11.193,25-25V25z"/>
	</defs>
	<clipPath id="SVGID_2_">
		<use xlink:href="#SVGID_1_"  overflow="visible"/>
	</clipPath>
	<path clip-path="url(#SVGID_2_)" fill="#353A42" d="M114.011,70.361l-12.5-24.953C100.452,43.291,98.288,42,95.921,42h-62.75
		c-1.737,0-3.366,0.688-4.53,1.898c-0.042,0.041-0.084,0.083-0.125,0.125c-0.042,0.041-0.084,0.083-0.125,0.125
		c-0.042,0.041-0.084,0.083-0.125,0.125c-0.042,0.041-0.084,0.083-0.125,0.125c-0.042,0.041-0.084,0.083-0.125,0.125
		c-0.042,0.041-0.084,0.083-0.125,0.125c-0.042,0.041-0.084,0.083-0.125,0.125c-0.042,0.041-0.084,0.083-0.125,0.125
		c-0.042,0.041-0.084,0.083-0.125,0.125c-0.042,0.041-0.084,0.083-0.125,0.125c-0.042,0.041-0.084,0.083-0.125,0.125
		c-0.042,0.041-0.084,0.083-0.125,0.125c-0.042,0.041-0.084,0.083-0.125,0.125c-0.042,0.041-0.084,0.083-0.125,0.125
		c-0.042,0.041-0.084,0.083-0.125,0.125c-0.042,0.041-0.084,0.083-0.125,0.125c-0.042,0.041-0.084,0.083-0.125,0.125
		c-0.042,0.041-0.084,0.083-0.125,0.125c-0.042,0.041-0.084,0.083-0.125,0.125c-0.042,0.041-0.084,0.083-0.125,0.125
		c-0.042,0.041-0.084,0.083-0.125,0.125c-0.042,0.041-0.084,0.083-0.125,0.125c-0.042,0.041-0.084,0.083-0.125,0.125
		c-0.042,0.041-0.084,0.083-0.125,0.125c-0.042,0.041-0.084,0.083-0.125,0.125c-0.042,0.041-0.084,0.083-0.125,0.125
		c-0.042,0.041-0.084,0.083-0.125,0.125c-0.042,0.041-0.084,0.083-0.125,0.125c-0.042,0.041-0.084,0.083-0.125,0.125
		c-0.042,0.041-0.084,0.083-0.125,0.125c-0.042,0.041-0.084,0.083-0.125,0.125c-0.042,0.041-0.084,0.083-0.125,0.125
		c-0.042,0.041-0.084,0.083-0.125,0.125c-0.042,0.041-0.084,0.083-0.125,0.125c-0.042,0.041-0.084,0.083-0.125,0.125
		c-0.042,0.041-0.084,0.083-0.125,0.125c-0.042,0.041-0.084,0.083-0.125,0.125c-0.042,0.041-0.084,0.083-0.125,0.125
		c-0.042,0.041-0.084,0.083-0.125,0.125c-0.042,0.041-0.084,0.083-0.125,0.125c-0.042,0.041-0.084,0.083-0.125,0.125
		c-0.042,0.041-0.084,0.083-0.125,0.125c-0.042,0.041-0.084,0.083-0.125,0.125c-0.042,0.041-0.084,0.083-0.125,0.125
		c-0.042,0.041-0.084,0.083-0.125,0.125c-0.042,0.041-0.084,0.083-0.125,0.125c-0.042,0.041-0.084,0.083-0.125,0.125
		c-0.042,0.041-0.084,0.083-0.125,0.125c-0.042,0.041-0.084,0.083-0.125,0.125c-0.042,0.041-0.084,0.083-0.125,0.125
		c-0.042,0.041-0.084,0.083-0.125,0.125c-0.042,0.041-0.084,0.083-0.125,0.125c-0.042,0.041-0.084,0.083-0.125,0.125
		c-0.042,0.041-0.084,0.083-0.125,0.125c-0.042,0.041-0.084,0.083-0.125,0.125c-0.042,0.041-0.084,0.083-0.125,0.125
		c-0.042,0.041-0.084,0.083-0.125,0.125c-0.042,0.041-0.084,0.083-0.125,0.125c-0.042,0.041-0.084,0.083-0.125,0.125
		c-0.042,0.041-0.084,0.083-0.125,0.125c-0.042,0.041-0.084,0.083-0.125,0.125c-0.042,0.041-0.084,0.083-0.125,0.125
		c-0.042,0.041-0.084,0.083-0.125,0.125c-0.042,0.041-0.084,0.083-0.125,0.125c-0.042,0.041-0.084,0.083-0.125,0.125
		c-0.042,0.041-0.084,0.083-0.125,0.125c-0.042,0.041-0.084,0.083-0.125,0.125c-0.042,0.041-0.084,0.083-0.125,0.125
		c-0.042,0.041-0.084,0.083-0.125,0.125c-0.042,0.041-0.084,0.083-0.125,0.125c-0.042,0.041-0.084,0.083-0.125,0.125
		c-0.042,0.041-0.084,0.083-0.125,0.125c-0.042,0.041-0.084,0.083-0.125,0.125c-0.042,0.041-0.084,0.083-0.125,0.125
		c-0.042,0.041-0.084,0.083-0.125,0.125c-0.042,0.041-0.084,0.083-0.125,0.125c-0.042,0.041-0.084,0.083-0.125,0.125
		c-0.042,0.041-0.084,0.083-0.125,0.125c-0.042,0.041-0.084,0.083-0.125,0.125c-0.042,0.041-0.084,0.083-0.125,0.125
		c-0.042,0.041-0.084,0.083-0.125,0.125c-0.042,0.041-0.084,0.083-0.125,0.125c-0.042,0.041-0.084,0.083-0.125,0.125
		c-0.042,0.041-0.084,0.083-0.125,0.125c-0.042,0.041-0.084,0.083-0.125,0.125c-0.042,0.041-0.084,0.083-0.125,0.125
		c-0.042,0.041-0.084,0.083-0.125,0.125c-0.042,0.041-0.084,0.083-0.125,0.125c-0.042,0.041-0.084,0.083-0.125,0.125
		c-0.042,0.041-0.084,0.083-0.125,0.125c-0.042,0.041-0.084,0.083-0.125,0.125c-0.042,0.041-0.084,0.083-0.125,0.125
		c-0.042,0.041-0.084,0.083-0.125,0.125c-0.042,0.041-0.084,0.083-0.125,0.125c-0.042,0.041-0.084,0.083-0.125,0.125
		c-0.042,0.041-0.084,0.083-0.125,0.125c-0.042,0.041-0.084,0.083-0.125,0.125c-0.042,0.041-0.084,0.083-0.125,0.125
		c-0.042,0.041-0.084,0.083-0.125,0.125c-0.042,0.041-0.084,0.083-0.125,0.125c-0.042,0.041-0.084,0.083-0.125,0.125
		c-0.042,0.041-0.084,0.083-0.125,0.125c-0.042,0.041-0.084,0.083-0.125,0.125c-0.042,0.041-0.084,0.083-0.125,0.125
		c-0.042,0.041-0.084,0.083-0.125,0.125c-0.042,0.041-0.084,0.083-0.125,0.125c-0.042,0.041-0.084,0.083-0.125,0.125
		c-0.042,0.041-0.084,0.083-0.125,0.125c-0.042,0.041-0.084,0.083-0.125,0.125c-0.042,0.041-0.084,0.083-0.125,0.125
		c-0.042,0.041-0.084,0.083-0.125,0.125c-0.042,0.041-0.084,0.083-0.125,0.125c-0.042,0.041-0.084,0.083-0.125,0.125
		c-0.042,0.041-0.084,0.083-0.125,0.125c-0.042,0.041-0.084,0.083-0.125,0.125c-0.042,0.041-0.084,0.083-0.125,0.125
		c-0.042,0.041-0.084,0.083-0.125,0.125c-0.042,0.041-0.084,0.083-0.125,0.125c-0.042,0.041-0.084,0.083-0.125,0.125
		c-0.042,0.041-0.084,0.083-0.125,0.125c-0.042,0.041-0.084,0.083-0.125,0.125c-0.042,0.041-0.084,0.083-0.125,0.125
		c-0.042,0.041-0.084,0.083-0.125,0.125c-0.042,0.041-0.084,0.083-0.125,0.125c-0.042,0.041-0.084,0.083-0.125,0.125
		c-0.042,0.041-0.084,0.083-0.125,0.125c-0.042,0.041-0.084,0.083-0.125,0.125c-0.042,0.041-0.084,0.083-0.125,0.125
		c-0.042,0.041-0.084,0.083-0.125,0.125c-0.042,0.041-0.084,0.083-0.125,0.125c-0.042,0.041-0.084,0.083-0.125,0.125
		c-0.042,0.041-0.084,0.083-0.125,0.125c-0.042,0.041-0.084,0.083-0.125,0.125c-0.042,0.041-0.084,0.083-0.125,0.125
		c-0.042,0.041-0.084,0.083-0.125,0.125c-0.042,0.041-0.084,0.083-0.125,0.125c-0.042,0.041-0.084,0.083-0.125,0.125
		c-0.042,0.041-0.084,0.083-0.125,0.125c-0.042,0.041-0.084,0.083-0.125,0.125c-0.042,0.041-0.084,0.083-0.125,0.125
		c-0.042,0.041-0.084,0.083-0.125,0.125c-0.042,0.041-0.084,0.083-0.125,0.125c-0.042,0.041-0.084,0.083-0.125,0.125
		c-0.042,0.041-0.084,0.083-0.125,0.125c-0.042,0.041-0.084,0.083-0.125,0.125c-0.042,0.041-0.084,0.083-0.125,0.125
		c-0.042,0.041-0.084,0.083-0.125,0.125c-0.042,0.041-0.084,0.083-0.125,0.125c-0.042,0.041-0.084,0.083-0.125,0.125
		c-0.042,0.041-0.084,0.083-0.125,0.125c-0.042,0.041-0.084,0.083-0.125,0.125c-0.042,0.041-0.084,0.083-0.125,0.125
		c-0.042,0.041-0.084,0.083-0.125,0.125c-0.042,0.041-0.084,0.083-0.125,0.125c-0.042,0.041-0.084,0.083-0.125,0.125
		c-0.042,0.041-0.084,0.083-0.125,0.125c-0.042,0.041-0.084,0.083-0.125,0.125c-0.042,0.041-0.084,0.083-0.125,0.125
		c-0.042,0.041-0.084,0.083-0.125,0.125c-0.042,0.041-0.084,0.083-0.125,0.125c-0.042,0.041-0.084,0.083-0.125,0.125
		c-0.042,0.041-0.084,0.083-0.125,0.125c-0.042,0.041-0.084,0.083-0.125,0.125c-0.042,0.041-0.084,0.083-0.125,0.125
		c-0.042,0.041-0.084,0.083-0.125,0.125c-0.042,0.041-0.084,0.083-0.125,0.125c-0.042,0.041-0.084,0.083-0.125,0.125
		c-0.042,0.041-0.084,0.083-0.125,0.125c-0.042,0.041-0.084,0.083-0.125,0.125c-0.042,0.042-0.084,0.083-0.125,0.125
		c-0.042,0.042-0.084,0.083-0.125,0.125c-0.042,0.042-0.084,0.083-0.125,0.125c-0.042,0.042-0.084,0.083-0.125,0.125
		c-0.042,0.041-0.083,0.082-0.125,0.124c-0.042,0.042-0.084,0.083-0.125,0.126c-0.042,0.042-0.084,0.083-0.125,0.125
		c-0.042,0.042-0.084,0.083-0.125,0.125c-0.042,0.042-0.084,0.083-0.125,0.125c-0.042,0.042-0.084,0.083-0.125,0.125
		c-0.042,0.042-0.084,0.083-0.125,0.125c-0.042,0.042-0.084,0.083-0.125,0.125c-0.042,0.042-0.084,0.083-0.125,0.125
		c-0.042,0.042-0.084,0.083-0.125,0.125c-0.042,0.042-0.084,0.083-0.125,0.125c-0.042,0.042-0.084,0.083-0.125,0.125
		c-0.042,0.042-0.084,0.083-0.125,0.125c-0.042,0.042-0.084,0.083-0.125,0.125c-0.042,0.042-0.084,0.083-0.125,0.125
		c-0.042,0.042-0.084,0.083-0.125,0.125c-0.042,0.042-0.084,0.083-0.125,0.125c-0.042,0.042-0.084,0.083-0.125,0.125
		c-0.042,0.042-0.084,0.083-0.125,0.125c-0.042,0.042-0.084,0.083-0.125,0.125c-0.042,0.042-0.084,0.083-0.125,0.125
		c-0.042,0.042-0.084,0.083-0.125,0.125c-0.042,0.042-0.084,0.083-0.125,0.125c-0.042,0.042-0.084,0.083-0.125,0.125
		c-0.042,0.042-0.084,0.083-0.125,0.125c-0.042,0.042-0.084,0.083-0.125,0.125c-0.042,0.042-0.084,0.083-0.125,0.125
		c-0.042,0.042-0.084,0.083-0.125,0.125c-0.042,0.042-0.084,0.083-0.125,0.125c-0.042,0.042-0.084,0.083-0.125,0.125
		c-0.042,0.042-0.084,0.083-0.125,0.125c-0.042,0.042-0.084,0.083-0.125,0.125c-0.042,0.042-0.084,0.083-0.125,0.125
		c-0.042,0.042-0.084,0.083-0.125,0.125c-0.042,0.042-0.084,0.083-0.125,0.125c-0.042,0.042-0.084,0.083-0.125,0.125
		c-0.042,0.042-0.084,0.083-0.125,0.125c-0.042,0.042-0.084,0.083-0.125,0.125c-0.042,0.042-0.084,0.083-0.125,0.125
		c-0.042,0.042-0.084,0.083-0.125,0.125c-0.042,0.042-0.084,0.083-0.125,0.125c-0.042,0.042-0.084,0.083-0.125,0.125
		c-0.042,0.042-0.084,0.083-0.125,0.125c-0.042,0.042-0.084,0.083-0.125,0.125c-0.042,0.042-0.084,0.083-0.125,0.125
		c-0.042,0.042-0.084,0.083-0.125,0.125c-0.042,0.042-0.084,0.083-0.125,0.125c-0.042,0.042-0.084,0.083-0.125,0.125
		c-0.042,0.042-0.084,0.083-0.125,0.125c-0.042,0.042-0.084,0.083-0.125,0.125c-0.042,0.042-0.084,0.083-0.125,0.125
		c-0.042,0.042-0.084,0.083-0.125,0.125c-0.042,0.042-0.084,0.083-0.125,0.125c-0.042,0.042-0.084,0.083-0.125,0.125
		c-0.042,0.042-0.084,0.083-0.125,0.125c-0.042,0.042-0.084,0.083-0.125,0.125c-0.042,0.042-0.084,0.083-0.125,0.125
		c-0.042,0.042-0.084,0.083-0.125,0.125c-0.042,0.042-0.084,0.083-0.125,0.125c-0.042,0.042-0.084,0.083-0.125,0.125
		c-0.042,0.042-0.084,0.083-0.125,0.125c-0.042,0.042-0.084,0.083-0.125,0.125c-0.042,0.042-0.084,0.083-0.125,0.125
		c-0.042,0.042-0.084,0.083-0.125,0.125c-0.042,0.042-0.084,0.083-0.125,0.125c-0.042,0.042-0.084,0.083-0.125,0.125
		c-0.042,0.042-0.084,0.083-0.125,0.125c-0.042,0.042-0.084,0.083-0.125,0.125c-0.042,0.042-0.084,0.083-0.125,0.125
		c-0.042,0.042-0.084,0.083-0.125,0.125c-0.042,0.042-0.084,0.083-0.125,0.125c-0.042,0.042-0.084,0.083-0.125,0.125
		c-0.042,0.042-0.084,0.083-0.125,0.125c-0.042,0.042-0.084,0.083-0.125,0.125c-0.042,0.042-0.084,0.083-0.125,0.125
		c-0.042,0.042-0.084,0.083-0.125,0.125c-0.042,0.042-0.084,0.083-0.125,0.125c-0.042,0.042-0.084,0.083-0.125,0.125
		c-0.042,0.042-0.084,0.083-0.125,0.125c-0.042,0.042-0.084,0.083-0.125,0.125c-0.042,0.042-0.084,0.083-0.125,0.125
		c-0.042,0.042-0.084,0.083-0.125,0.125c-0.042,0.042-0.084,0.083-0.125,0.125c-0.042,0.042-0.084,0.083-0.125,0.125
		c-0.042,0.042-0.084,0.083-0.125,0.125c-0.042,0.042-0.084,0.083-0.125,0.125c-0.042,0.042-0.084,0.083-0.125,0.125
		c-0.042,0.042-0.084,0.083-0.125,0.125c-0.042,0.042-0.084,0.083-0.125,0.125c-0.042,0.042-0.084,0.083-0.125,0.125
		c-0.042,0.042-0.084,0.083-0.125,0.125c-0.042,0.042-0.084,0.083-0.125,0.125c-0.042,0.042-0.084,0.083-0.125,0.125
		c-0.042,0.042-0.084,0.083-0.125,0.125c-0.042,0.042-0.084,0.083-0.125,0.125c-0.042,0.042-0.084,0.083-0.125,0.125
		c-0.042,0.042-0.084,0.083-0.125,0.125c-0.042,0.042-0.084,0.083-0.125,0.125c-0.042,0.042-0.084,0.083-0.125,0.125
		c-0.042,0.042-0.084,0.083-0.125,0.125c-0.042,0.042-0.084,0.083-0.125,0.125c-0.042,0.042-0.084,0.083-0.125,0.125
		c-0.042,0.042-0.084,0.083-0.125,0.125c-0.042,0.042-0.084,0.083-0.125,0.125c-0.042,0.042-0.084,0.083-0.125,0.125
		c-0.042,0.042-0.084,0.083-0.125,0.125c-0.042,0.042-0.084,0.083-0.125,0.125c-0.042,0.042-0.084,0.083-0.125,0.125
		c-0.042,0.042-0.084,0.083-0.125,0.125c-0.042,0.042-0.084,0.083-0.125,0.125c-0.042,0.042-0.084,0.083-0.125,0.125
		c-0.042,0.042-0.084,0.083-0.125,0.125c-0.042,0.042-0.084,0.083-0.125,0.125c-0.042,0.042-0.084,0.083-0.125,0.125
		c-0.042,0.042-0.084,0.083-0.125,0.125c-0.042,0.042-0.084,0.083-0.125,0.125c-0.042,0.042-0.084,0.083-0.125,0.125
		c-0.042,0.042-0.084,0.083-0.125,0.125c-0.042,0.042-0.084,0.083-0.125,0.125c-0.042,0.042-0.084,0.083-0.125,0.125
		c-0.042,0.042-0.084,0.083-0.125,0.125c-0.042,0.042-0.084,0.083-0.125,0.125c-0.042,0.042-0.084,0.083-0.125,0.125
		c-0.042,0.042-0.084,0.083-0.125,0.125c-0.042,0.042-0.084,0.083-0.125,0.125c-0.042,0.042-0.084,0.083-0.125,0.125
		c-0.042,0.042-0.084,0.083-0.125,0.125c-0.042,0.042-0.084,0.083-0.125,0.125c-0.042,0.042-0.084,0.083-0.125,0.125
		c-0.042,0.042-0.084,0.083-0.125,0.125c-0.042,0.042-0.084,0.083-0.125,0.125c-0.042,0.042-0.084,0.083-0.125,0.125
		c-0.042,0.042-0.084,0.083-0.125,0.125c-0.042,0.042-0.084,0.083-0.125,0.125c-0.042,0.042-0.084,0.083-0.125,0.125
		c-0.042,0.042-0.084,0.083-0.125,0.125c-0.042,0.042-0.084,0.083-0.125,0.125c-0.042,0.042-0.084,0.083-0.125,0.125
		c-0.042,0.042-0.084,0.083-0.125,0.125c-0.042,0.042-0.084,0.083-0.125,0.125c-0.042,0.042-0.084,0.083-0.125,0.125
		c-0.042,0.042-0.084,0.083-0.125,0.125c-0.042,0.042-0.084,0.083-0.125,0.125c-0.042,0.042-0.084,0.083-0.125,0.125
		c-0.042,0.042-0.084,0.083-0.125,0.125c-0.042,0.042-0.084,0.083-0.125,0.125c-0.042,0.042-0.084,0.083-0.125,0.125
		c-0.042,0.042-0.084,0.083-0.125,0.125c-0.042,0.042-0.084,0.083-0.125,0.125c-0.042,0.042-0.084,0.083-0.125,0.125
		c-0.042,0.042-0.084,0.083-0.125,0.125c-0.042,0.042-0.084,0.083-0.125,0.125c-0.042,0.042-0.084,0.083-0.125,0.125
		c-0.042,0.042-0.084,0.083-0.125,0.125c-0.042,0.042-0.084,0.083-0.125,0.125c-0.042,0.042-0.084,0.083-0.125,0.125
		c-0.042,0.042-0.084,0.083-0.125,0.125c-0.042,0.042-0.084,0.083-0.125,0.125c-0.042,0.042-0.084,0.083-0.125,0.125
		c-0.042,0.042-0.084,0.083-0.125,0.125c-0.042,0.042-0.084,0.083-0.125,0.125c-0.042,0.042-0.084,0.083-0.125,0.125
		c-0.042,0.042-0.084,0.083-0.125,0.125c-0.042,0.042-0.084,0.083-0.125,0.125c-0.042,0.042-0.084,0.083-0.125,0.125
		c-0.042,0.042-0.084,0.083-0.125,0.125c-0.042,0.042-0.084,0.083-0.125,0.125c-0.042,0.042-0.084,0.083-0.125,0.125
		c-0.042,0.042-0.084,0.083-0.125,0.125c-0.042,0.042-0.084,0.083-0.125,0.125c-0.042,0.042-0.084,0.083-0.125,0.125
		c-0.042,0.042-0.084,0.083-0.125,0.125c-0.042,0.042-0.084,0.083-0.125,0.125c-0.042,0.042-0.084,0.083-0.125,0.125
		c-0.042,0.042-0.084,0.083-0.125,0.125c-0.042,0.042-0.084,0.083-0.125,0.125c-0.042,0.042-0.084,0.083-0.125,0.125
		c-0.042,0.042-0.084,0.083-0.125,0.125c-0.042,0.042-0.084,0.083-0.125,0.125c-0.042,0.042-0.084,0.083-0.125,0.125
		c-0.042,0.042-0.084,0.083-0.125,0.125c-0.042,0.042-0.084,0.083-0.125,0.125c-0.042,0.042-0.084,0.083-0.125,0.125
		c-0.042,0.042-0.084,0.083-0.125,0.125c-0.042,0.042-0.084,0.083-0.125,0.125c-0.042,0.042-0.084,0.083-0.125,0.125
		c-0.042,0.042-0.084,0.083-0.125,0.125c-0.042,0.042-0.084,0.083-0.125,0.125c-0.042,0.042-0.084,0.083-0.125,0.125
		c-0.042,0.042-0.084,0.083-0.125,0.125c-0.042,0.042-0.084,0.083-0.125,0.125c-0.042,0.042-0.084,0.083-0.125,0.125
		c-0.042,0.042-0.084,0.083-0.125,0.125c-0.042,0.042-0.084,0.083-0.125,0.125c-0.042,0.042-0.084,0.083-0.125,0.125
		c-0.042,0.042-0.084,0.083-0.125,0.125c-0.042,0.042-0.084,0.083-0.125,0.125c-0.042,0.042-0.084,0.083-0.125,0.125
		c-0.042,0.042-0.084,0.083-0.125,0.125c-0.042,0.042-0.084,0.083-0.125,0.125c-0.042,0.042-0.084,0.083-0.125,0.125
		c-0.042,0.042-0.084,0.083-0.125,0.125c-0.042,0.042-0.084,0.083-0.125,0.125c-0.042,0.042-0.084,0.083-0.125,0.125
		c-0.042,0.042-0.084,0.083-0.125,0.125c-0.042,0.042-0.084,0.083-0.125,0.125c-0.042,0.042-0.084,0.083-0.125,0.125
		c-0.042,0.042-0.084,0.083-0.125,0.125c-0.042,0.042-0.084,0.083-0.125,0.125c-0.042,0.042-0.084,0.083-0.125,0.125
		c-0.042,0.042-0.084,0.083-0.125,0.125c-0.042,0.042-0.084,0.083-0.125,0.125c-0.042,0.042-0.084,0.083-0.125,0.125
		c-0.042,0.042-0.084,0.083-0.125,0.125c-0.042,0.042-0.084,0.083-0.125,0.125c-0.042,0.042-0.084,0.083-0.125,0.125
		c-0.042,0.042-0.084,0.083-0.125,0.125c-0.042,0.042-0.084,0.083-0.125,0.125c-0.042,0.042-0.084,0.083-0.125,0.125
		c-0.042,0.042-0.084,0.083-0.125,0.125c-0.042,0.042-0.084,0.083-0.125,0.125c-0.042,0.042-0.084,0.083-0.125,0.125
		c-0.042,0.042-0.084,0.083-0.125,0.125c-0.042,0.042-0.084,0.083-0.125,0.125c-0.042,0.042-0.084,0.083-0.125,0.125
		c-0.042,0.042-0.084,0.083-0.125,0.125c-0.416,0.407-0.78,0.874-1.071,1.403l-13.75,24.969c-1.064,1.936-1.028,4.588,0.097,6.49
		c1.125,1.901,3.17,3.365,5.38,3.365h89c1.663,0,3.23-0.951,4.386-2.108c0.042-0.041,0.083-0.209,0.125-0.25
		c0.042-0.041,0.083-0.146,0.125-0.188c0.042-0.041,0.083-0.115,0.125-0.156c0.042-0.041,0.083-0.1,0.125-0.141
		c0.042-0.041,0.083-0.092,0.125-0.133c0.042-0.041,0.083-0.088,0.125-0.129c0.042-0.041,0.083-0.086,0.125-0.127
		c0.042-0.041,0.083-0.085,0.125-0.126c0.042-0.041,0.083-0.084,0.125-0.125c0.042-0.041,0.083-0.085,0.125-0.126
		c0.042-0.041,0.083-0.084,0.125-0.125c0.042-0.041,0.083-0.084,0.125-0.125c0.042-0.041,0.083-0.084,0.125-0.125
		c0.042-0.041,0.083-0.084,0.125-0.125c0.042-0.041,0.083-0.084,0.125-0.125c0.042-0.041,0.083-0.084,0.125-0.125
		c0.042-0.041,0.083-0.084,0.125-0.125c0.042-0.041,0.083-0.084,0.125-0.125c0.043-0.041,0.083-0.084,0.125-0.125
		c0.043-0.041,0.083-0.084,0.125-0.125c0.043-0.041,0.083-0.084,0.125-0.125c0.043-0.041,0.083-0.084,0.125-0.125
		c0.043-0.041,0.083-0.084,0.125-0.125c0.043-0.041,0.083-0.084,0.125-0.125c0.043-0.041,0.083-0.084,0.125-0.125
		c0.043-0.041,0.083-0.084,0.125-0.125c0.043-0.041,0.083-0.084,0.125-0.125c0.043-0.041,0.083-0.084,0.125-0.125
		c0.043-0.041,0.083-0.084,0.125-0.125c0.043-0.041,0.083-0.084,0.125-0.125c0.043-0.041,0.083-0.084,0.125-0.125
		c0.043-0.041,0.083-0.084,0.125-0.125c0.043-0.041,0.083-0.084,0.125-0.125c0.043-0.041,0.083-0.084,0.125-0.125
		c0.043-0.041,0.083-0.084,0.125-0.125c0.043-0.041,0.083-0.084,0.125-0.125c0.043-0.041,0.083-0.084,0.125-0.125
		c0.043-0.041,0.083-0.084,0.125-0.125c0.043-0.041,0.083-0.084,0.125-0.125c0.043-0.041,0.083-0.084,0.125-0.125
		c0.043-0.041,0.083-0.084,0.125-0.125c0.043-0.041,0.083-0.084,0.125-0.125c0.043-0.041,0.083-0.084,0.125-0.125
		c0.043-0.041,0.083-0.084,0.125-0.125c0.043-0.041,0.083-0.084,0.125-0.125c0.043-0.041,0.083-0.084,0.125-0.125
		c0.043-0.041,0.083-0.084,0.125-0.125c0.043-0.041,0.083-0.084,0.125-0.125c0.043-0.041,0.083-0.084,0.125-0.125
		c0.043-0.041,0.083-0.084,0.125-0.125c0.043-0.041,0.083-0.084,0.125-0.125c0.043-0.041,0.083-0.084,0.125-0.125
		c0.043-0.041,0.083-0.084,0.125-0.125c0.043-0.041,0.083-0.084,0.125-0.125c0.043-0.041,0.083-0.084,0.125-0.125
		c0.043-0.041,0.083-0.084,0.125-0.125c0.043-0.041,0.083-0.084,0.125-0.125c0.043-0.041,0.083-0.084,0.125-0.125
		c0.043-0.041,0.083-0.084,0.125-0.125c0.043-0.041,0.083-0.084,0.125-0.125c0.043-0.041,0.083-0.084,0.125-0.125
		c0.043-0.041,0.083-0.084,0.125-0.125c0.043-0.041,0.083-0.084,0.125-0.125c0.043-0.041,0.083-0.084,0.125-0.125
		c0.043-0.041,0.083-0.084,0.125-0.125c0.043-0.041,0.083-0.084,0.125-0.125c0.043-0.041,0.083-0.084,0.125-0.125
		c0.043-0.041,0.083-0.084,0.125-0.125c0.043-0.041,0.083-0.084,0.125-0.125c0.043-0.041,0.083-0.084,0.125-0.125
		c0.043-0.041,0.083-0.084,0.125-0.125c0.043-0.041,0.083-0.084,0.125-0.125c0.043-0.041,0.083-0.084,0.125-0.125
		c0.043-0.041,0.083-0.084,0.125-0.125c0.043-0.041,0.083-0.084,0.125-0.125c0.043-0.041,0.083-0.084,0.125-0.125
		c0.043-0.041,0.083-0.084,0.125-0.125c0.043-0.041,0.083-0.084,0.125-0.125c0.043-0.041,0.083-0.084,0.125-0.125
		c0.043-0.041,0.083-0.084,0.125-0.125c0.043-0.041,0.083-0.084,0.125-0.125c0.043-0.041,0.083-0.084,0.125-0.125
		c0.043-0.041,0.083-0.084,0.125-0.125c0.043-0.041,0.083-0.084,0.125-0.125c0.043-0.041,0.083-0.084,0.125-0.125
		c0.043-0.041,0.083-0.084,0.125-0.125c0.043-0.041,0.083-0.084,0.125-0.125c0.043-0.041,0.083-0.084,0.125-0.125
		c0.043-0.041,0.083-0.084,0.125-0.125c0.043-0.041,0.083-0.084,0.125-0.125c0.043-0.041,0.083-0.084,0.125-0.125
		c0.043-0.041,0.083-0.084,0.125-0.125c0.043-0.041,0.083-0.084,0.125-0.125c0.043-0.041,0.083-0.084,0.125-0.125
		c0.043-0.041,0.083-0.084,0.125-0.125c0.043-0.041,0.083-0.084,0.125-0.125c0.043-0.041,0.083-0.084,0.125-0.125
		c0.043-0.041,0.083-0.084,0.125-0.125c0.043-0.041,0.083-0.084,0.125-0.125c0.043-0.041,0.083-0.084,0.125-0.125
		c0.043-0.041,0.083-0.084,0.125-0.125c0.043-0.041,0.083-0.084,0.125-0.125c0.043-0.041,0.083-0.084,0.125-0.125
		c0.043-0.041,0.083-0.084,0.125-0.125c0.043-0.041,0.083-0.084,0.125-0.125c0.043-0.041,0.083-0.084,0.125-0.125
		c0.043-0.041,0.083-0.084,0.125-0.125c0.043-0.041,0.083-0.084,0.125-0.125c0.043-0.041,0.083-0.084,0.125-0.125
		c0.043-0.041,0.083-0.084,0.125-0.125c0.043-0.041,0.083-0.084,0.125-0.125c0.043-0.041,0.083-0.084,0.125-0.125
		c0.043-0.041,0.083-0.084,0.125-0.125c0.043-0.041,0.083-0.084,0.125-0.125c0.043-0.041,0.083-0.084,0.125-0.125
		c0.043-0.041,0.083-0.084,0.125-0.125c0.043-0.041,0.083-0.084,0.125-0.125c0.043-0.041,0.083-0.084,0.125-0.125
		c0.043-0.041,0.083-0.084,0.125-0.125c0.043-0.041,0.083-0.084,0.125-0.125c0.043-0.041,0.083-0.084,0.125-0.125
		c0.043-0.041,0.083-0.084,0.125-0.125c0.043-0.041,0.083-0.084,0.125-0.125c0.043-0.041,0.083-0.084,0.125-0.125
		c0.043-0.041,0.083-0.084,0.125-0.125c0.043-0.041,0.083-0.084,0.125-0.125c0.043-0.041,0.083-0.084,0.125-0.125
		c0.043-0.041,0.083-0.084,0.125-0.125c0.043-0.041,0.083-0.084,0.125-0.125c0.043-0.041,0.083-0.084,0.125-0.125
		c0.043-0.041,0.083-0.084,0.125-0.125c0.043-0.041,0.083-0.084,0.125-0.125c0.043-0.041,0.083-0.084,0.125-0.125
		c0.043-0.041,0.083-0.084,0.125-0.125c0.043-0.041,0.083-0.084,0.125-0.125c0.043-0.041,0.083-0.084,0.125-0.125
		c0.043-0.041,0.083-0.084,0.125-0.125c0.043-0.041,0.083-0.084,0.125-0.125c0.043-0.041,0.083-0.084,0.125-0.125
		c0.043-0.041,0.083-0.084,0.125-0.125c0.043-0.041,0.083-0.084,0.125-0.125c0.043-0.041,0.083-0.084,0.125-0.125
		c0.043-0.041,0.083-0.084,0.125-0.125c0.043-0.041,0.083-0.084,0.125-0.125c0.043-0.041,0.083-0.084,0.125-0.125
		c0.043-0.041,0.083-0.084,0.125-0.125c0.043-0.041,0.083-0.084,0.125-0.125c0.043-0.041,0.083-0.084,0.125-0.125
		c0.043-0.041,0.083-0.084,0.125-0.125c0.043-0.041,0.083-0.084,0.125-0.125c0.043-0.041,0.083-0.084,0.125-0.125
		c0.043-0.041,0.083-0.084,0.125-0.125c0.043-0.041,0.083-0.084,0.125-0.125c0.043-0.041,0.083-0.084,0.125-0.125
		c0.043-0.041,0.083-0.084,0.125-0.125c0.043-0.041,0.083-0.084,0.125-0.125c0.043-0.041,0.083-0.084,0.125-0.125
		c0.043-0.041,0.083-0.084,0.125-0.125c0.043-0.041,0.083-0.084,0.125-0.125c0.043-0.041,0.083-0.084,0.125-0.125
		c0.043-0.041,0.083-0.084,0.125-0.125c0.043-0.041,0.083-0.084,0.125-0.125c0.043-0.041,0.083-0.084,0.125-0.125
		c0.043-0.041,0.083-0.084,0.125-0.125c0.043-0.041,0.083-0.084,0.125-0.125c0.043-0.041,0.083-0.084,0.125-0.125
		c0.043-0.041,0.083-0.084,0.125-0.125c0.043-0.041,0.083-0.084,0.125-0.125c0.043-0.041,0.083-0.084,0.125-0.125
		c0.043-0.041,0.083-0.084,0.125-0.125c0.043-0.041,0.083-0.084,0.125-0.125c0.043-0.041,0.083-0.084,0.125-0.125
		c0.043-0.041,0.083-0.084,0.125-0.125c0.043-0.041,0.083-0.084,0.125-0.125c0.043-0.041,0.083-0.084,0.125-0.125
		c0.043-0.041,0.083-0.084,0.125-0.125c0.043-0.041,0.083-0.084,0.125-0.125c0.043-0.041,0.083-0.084,0.125-0.125
		c0.043-0.041,0.083-0.084,0.125-0.125c0.043-0.041,0.083-0.084,0.125-0.125c0.043-0.041,0.083-0.084,0.125-0.125
		c0.043-0.041,0.083-0.084,0.125-0.125c0.043-0.041,0.083-0.084,0.125-0.125c0.043-0.041,0.083-0.084,0.125-0.125
		c0.043-0.041,0.083-0.084,0.125-0.125c0.043-0.041,0.083-0.084,0.125-0.125c0.043-0.041,0.083-0.084,0.125-0.125
		c0.043-0.041,0.083-0.084,0.125-0.125c0.043-0.041,0.083-0.084,0.125-0.125c0.043-0.041,0.083-0.084,0.125-0.125
		c0.043-0.041,0.083-0.084,0.125-0.125c0.043-0.041,0.083-0.084,0.125-0.125c0.043-0.041,0.083-0.084,0.125-0.125
		c0.043-0.041,0.083-0.084,0.125-0.125c0.043-0.041,0.083-0.084,0.125-0.125c0.043-0.041,0.083-0.084,0.125-0.125
		c0.043-0.041,0.083-0.084,0.125-0.125c0.043-0.041,0.083-0.084,0.125-0.125c0.043-0.041,0.083-0.084,0.125-0.125
		c0.043-0.041,0.083-0.084,0.125-0.125c0.043-0.041,0.083-0.084,0.125-0.125c0.043-0.041,0.083-0.084,0.125-0.125
		c0.043-0.041,0.083-0.084,0.125-0.125c0.043-0.041,0.083-0.084,0.125-0.125c0.043-0.041,0.083-0.084,0.125-0.125
		c0.043-0.041,0.083-0.084,0.125-0.125c0.043-0.041,0.083-0.084,0.125-0.125c0.043-0.041,0.083-0.084,0.125-0.125
		c0.043-0.041,0.083-0.084,0.125-0.125c0.043-0.041,0.083-0.084,0.125-0.125c0.043-0.041,0.083-0.084,0.125-0.125
		c0.043-0.041,0.083-0.084,0.125-0.125c0.043-0.041,0.083-0.084,0.125-0.125c0.043-0.041,0.083-0.084,0.125-0.125
		c0.043-0.041,0.083-0.084,0.125-0.125c0.043-0.041,0.083-0.084,0.125-0.125c0.043-0.041,0.083-0.084,0.125-0.125
		c0.043-0.041,0.083-0.084,0.125-0.125c0.043-0.041,0.083-0.084,0.125-0.125c0.043-0.041,0.083-0.084,0.125-0.125
		c0.043-0.041,0.083-0.084,0.125-0.125c0.043-0.041,0.083-0.084,0.125-0.125c0.043-0.041,0.083-0.084,0.125-0.125
		c0.043-0.041,0.083-0.084,0.125-0.125c0.043-0.041,0.083-0.084,0.125-0.125c0.043-0.041,0.083-0.084,0.125-0.125
		c0.043-0.041,0.083-0.084,0.125-0.125c0.043-0.041,0.083-0.084,0.125-0.125c0.043-0.041,0.083-0.084,0.125-0.125
		c0.043-0.041,0.083-0.084,0.125-0.125c0.043-0.041,0.083-0.084,0.125-0.125c0.043-0.041,0.083-0.084,0.125-0.125
		c0.043-0.041,0.083-0.084,0.125-0.125c0.043-0.041,0.083-0.084,0.125-0.125c0.043-0.041,0.083-0.084,0.125-0.125
		c0.043-0.041,0.083-0.084,0.125-0.125c0.043-0.041,0.083-0.084,0.125-0.125c0.043-0.041,0.083-0.084,0.125-0.125
		c0.043-0.041,0.083-0.084,0.125-0.125c0.043-0.041,0.083-0.084,0.125-0.125c0.043-0.041,0.083-0.084,0.125-0.125
		c0.043-0.041,0.083-0.084,0.125-0.125c0.043-0.041,0.083-0.084,0.125-0.125c0.043-0.041,0.083-0.084,0.125-0.125
		c0.043-0.041,0.083-0.084,0.125-0.125c0.043-0.041,0.083-0.084,0.125-0.125c0.043-0.041,0.083-0.084,0.125-0.125
		c0.043-0.041,0.083-0.084,0.125-0.125c0.043-0.041,0.083-0.084,0.125-0.125c0.043-0.041,0.083-0.084,0.125-0.125
		c0.043-0.041,0.083-0.084,0.125-0.125c0.043-0.041,0.083-0.084,0.125-0.125c0.043-0.041,0.083-0.084,0.125-0.125
		c0.043-0.041,0.083-0.084,0.125-0.125c0.043-0.041,0.083-0.084,0.125-0.125c0.043-0.041,0.083-0.084,0.125-0.125
		c0.043-0.041,0.083-0.084,0.125-0.125c0.043-0.041,0.083-0.084,0.125-0.125c0.043-0.041,0.083-0.084,0.125-0.125
		c0.043-0.041,0.083-0.084,0.125-0.125c0.043-0.041,0.083-0.084,0.125-0.125c0.043-0.041,0.083-0.084,0.125-0.125
		c0.043-0.041,0.083-0.084,0.125-0.125c0.043-0.041,0.083-0.084,0.125-0.125c0.043-0.041,0.083-0.084,0.125-0.125
		c0.043-0.041,0.083-0.084,0.125-0.125c0.043-0.041,0.083-0.084,0.125-0.125c0.043-0.041,0.083-0.084,0.125-0.125
		c0.043-0.041,0.083-0.084,0.125-0.125c0.043-0.041,0.083-0.084,0.125-0.125c0.043-0.041,0.083-0.084,0.125-0.125
		c0.043-0.041,0.083-0.084,0.125-0.125c0.043-0.041,0.083-0.084,0.125-0.125c0.043-0.041,0.083-0.084,0.125-0.125
		c0.043-0.041,0.083-0.084,0.125-0.125c0.043-0.041,0.083-0.084,0.125-0.125c0.043-0.041,0.083-0.084,0.125-0.125
		c0.043-0.041,0.083-0.084,0.125-0.125c0.043-0.041,0.083-0.084,0.125-0.125c0.043-0.041,0.083-0.084,0.125-0.125
		c0.043-0.041,0.083-0.084,0.125-0.125c0.043-0.041,0.083-0.084,0.125-0.125c0.043-0.041,0.083-0.084,0.125-0.125
		c0.043-0.041,0.083-0.084,0.125-0.125c0.043-0.041,0.083-0.084,0.125-0.125c0.043-0.041,0.083-0.084,0.125-0.125
		c0.043-0.041,0.083-0.084,0.125-0.125c0.043-0.041,0.083-0.084,0.125-0.125c0.043-0.041,0.083-0.084,0.125-0.125
		c0.043-0.041,0.083-0.084,0.125-0.125c0.043-0.041,0.083-0.084,0.125-0.125c0.043-0.041,0.083-0.084,0.125-0.125
		c0.043-0.041,0.083-0.084,0.125-0.125c0.043-0.041,0.083-0.084,0.125-0.125c0.043-0.041,0.083-0.084,0.125-0.125
		c0.043-0.041,0.083-0.084,0.125-0.125c0.043-0.041,0.083-0.084,0.125-0.125c0.043-0.041,0.083-0.084,0.125-0.125
		c0.043-0.041,0.083-0.084,0.125-0.125c0.043-0.041,0.083-0.084,0.125-0.125c0.043-0.041,0.083-0.084,0.125-0.125
		c0.043-0.041,0.083-0.084,0.125-0.125c0.043-0.041,0.083-0.084,0.125-0.125c0.043-0.041,0.083-0.084,0.125-0.125
		c0.043-0.041,0.083-0.084,0.125-0.125c0.043-0.041,0.083-0.084,0.125-0.125c0.043-0.041,0.083-0.084,0.125-0.125
		c0.043-0.041,0.083-0.084,0.125-0.125c0.043-0.041,0.083-0.084,0.125-0.125c0.043-0.041,0.083-0.084,0.125-0.125
		c0.043-0.041,0.083-0.084,0.125-0.125c0.043-0.041,0.083-0.084,0.125-0.125c0.043-0.041,0.083-0.084,0.125-0.125
		c0.043-0.041,0.083-0.084,0.125-0.125c0.043-0.041,0.083-0.084,0.125-0.125c0.043-0.041,0.083-0.084,0.125-0.125
		c0.043-0.041,0.083-0.084,0.125-0.125c0.043-0.041,0.083-0.084,0.125-0.125c0.043-0.041,0.083-0.084,0.125-0.125
		c0.043-0.041,0.083-0.084,0.125-0.125c0.043-0.041,0.083-0.084,0.125-0.125c0.043-0.041,0.083-0.084,0.125-0.125
		c0.043-0.041,0.083-0.084,0.125-0.125c0.043-0.041,0.083-0.084,0.125-0.125c0.043-0.041,0.083-0.084,0.125-0.125
		c0.043-0.041,0.083-0.084,0.125-0.125c0.043-0.041,0.083-0.084,0.125-0.125c0.043-0.041,0.083-0.084,0.125-0.125
		c0.043-0.041,0.083-0.084,0.125-0.125c0.043-0.041,0.083-0.084,0.125-0.125c0.043-0.041,0.083-0.084,0.125-0.125
		c0.043-0.041,0.083-0.084,0.125-0.125c0.043-0.041,0.083-0.084,0.125-0.125c0.043-0.041,0.083-0.084,0.125-0.125
		c0.043-0.041,0.083-0.084,0.125-0.125c0.043-0.041,0.083-0.084,0.125-0.125c0.043-0.041,0.083-0.084,0.125-0.125
		c0.043-0.041,0.083-0.084,0.125-0.125c0.043-0.041,0.083-0.084,0.125-0.125c0.043-0.041,0.083-0.084,0.125-0.125
		c0.043-0.041,0.083-0.084,0.125-0.125c0.043-0.041,0.083-0.084,0.125-0.125c0.043-0.041,0.083-0.084,0.125-0.125
		c0.043-0.041,0.083-0.084,0.125-0.125c0.043-0.041,0.083-0.084,0.125-0.125c0.043-0.041,0.083-0.084,0.125-0.125
		c0.043-0.041,0.083-0.084,0.125-0.125c0.043-0.041,0.083-0.084,0.125-0.125c0.043-0.041,0.083-0.084,0.125-0.125
		c0.043-0.041,0.083-0.084,0.125-0.125c0.043-0.041,0.083-0.084,0.125-0.125c0.043-0.041,0.083-0.084,0.125-0.125
		c0.043-0.041,0.083-0.084,0.125-0.125c0.043-0.041,0.083-0.084,0.125-0.125c0.043-0.041,0.083-0.084,0.125-0.125
		c0.043-0.041,0.083-0.084,0.125-0.125c0.043-0.041,0.083-0.084,0.125-0.125c0.043-0.041,0.083-0.084,0.125-0.125
		c0.043-0.041,0.083-0.084,0.125-0.125c0.043-0.041,0.083-0.084,0.125-0.125c0.043-0.041,0.083-0.084,0.125-0.125
		c0.043-0.041,0.083-0.084,0.125-0.125c0.043-0.041,0.083-0.084,0.125-0.125c0.043-0.041,0.083-0.084,0.125-0.125
		c0.043-0.041,0.083-0.084,0.125-0.125c0.043-0.041,0.083-0.084,0.125-0.125c0.043-0.041,0.083-0.084,0.125-0.125
		c0.043-0.041,0.083-0.084,0.125-0.125c0.043-0.041,0.083-0.084,0.125-0.125c0.043-0.041,0.083-0.084,0.125-0.125
		c0.043-0.041,0.083-0.084,0.125-0.125c0.043-0.041,0.083-0.084,0.125-0.125c0.043-0.041,0.083-0.084,0.125-0.125
		c0.043-0.041,0.083-0.084,0.125-0.125c0.043-0.041,0.083-0.084,0.125-0.125c0.043-0.041,0.083-0.084,0.125-0.125
		c0.043-0.041,0.083-0.084,0.125-0.125c0.043-0.041,0.083-0.084,0.125-0.125c0.043-0.041,0.083-0.084,0.125-0.125
		c0.043-0.041,0.083-0.084,0.125-0.125c0.043-0.041,0.083-0.084,0.125-0.125c0.043-0.041,0.083-0.084,0.125-0.125
		c0.043-0.041,0.083-0.084,0.125-0.125c0.043-0.041,0.083-0.084,0.125-0.125c0.043-0.041,0.083-0.084,0.125-0.125
		c0.043-0.041,0.083-0.084,0.125-0.125c0.043-0.041,0.083-0.084,0.125-0.125c0.043-0.041,0.083-0.084,0.125-0.125
		c0.043-0.041,0.083-0.084,0.125-0.125c0.043-0.041,0.083-0.084,0.125-0.125c0.043-0.041,0.083-0.084,0.125-0.125
		c0.043-0.041,0.083-0.084,0.125-0.125c0.043-0.041,0.083-0.084,0.125-0.125c0.043-0.041,0.083-0.084,0.125-0.125
		c0.043-0.041,0.083-0.084,0.125-0.125c0.043-0.041,0.083-0.084,0.125-0.125c0.043-0.041,0.083-0.084,0.125-0.125
		c0.043-0.041,0.083-0.084,0.125-0.125c0.043-0.041,0.083-0.084,0.125-0.125c0.401-0.382,0.76-0.813,1.056-1.293
		C114.876,74.631,114.979,72.299,114.011,70.361z"/>
</g>
<g>
	<path fill="#FFFFFF" d="M114.011,70.361l-12.5-24.953C100.452,43.291,98.288,42,95.921,42h-62.75c-2.279,0-4.378,1.178-5.477,3.176
		l-13.75,24.969c-1.064,1.936-1.028,4.588,0.097,6.49c1.125,1.901,3.17,3.365,5.38,3.365h89c2.166,0,4.178-1.434,5.316-3.276
		S114.979,72.299,114.011,70.361z M19.421,73l13.75-25h62.625h0.125l12.5,25H19.421z"/>
	<rect x="60" y="61" fill="#FFFFFF" width="8" height="8"/>
	<rect x="76" y="61" fill="#FFFFFF" width="8" height="8"/>
	<rect x="44" y="61" fill="#FFFFFF" width="8" height="8"/>
	<rect x="68" y="53" fill="#FFFFFF" width="8" height="8"/>
	<rect x="52" y="53" fill="#FFFFFF" width="8" height="8"/>
</g>
</svg>
