<?xml version="1.0" encoding="utf-8"?>
<!-- Generator: Adobe Illustrator 16.0.3, SVG Export Plug-In . SVG Version: 6.00 Build 0)  -->
<!DOCTYPE svg PUBLIC "-//W3C//DTD SVG 1.1//EN" "http://www.w3.org/Graphics/SVG/1.1/DTD/svg11.dtd">
<svg version="1.1" id="Layer_1" xmlns="http://www.w3.org/2000/svg" xmlns:xlink="http://www.w3.org/1999/xlink" x="0px" y="0px"
	 width="128px" height="128px" viewBox="0 0 128 128" enable-background="new 0 0 128 128" xml:space="preserve">
<path fill="#444953" d="M128,25c0-13.807-11.193-25-25-25H25C11.193,0,0,11.193,0,25v78c0,13.807,11.193,25,25,25h78
	c13.807,0,25-11.193,25-25V25z"/>
<g>
	<defs>
		<path id="SVGID_1_" d="M128,25c0-13.807-11.193-25-25-25H25C11.193,0,0,11.193,0,25v78c0,13.807,11.193,25,25,25h78
			c13.807,0,25-11.193,25-25V25z"/>
	</defs>
	<clipPath id="SVGID_2_">
		<use xlink:href="#SVGID_1_"  overflow="visible"/>
	</clipPath>
	<path clip-path="url(#SVGID_2_)" fill="#353A42" d="M117,46V34.817c0-1.381-0.939-1.817-2.32-1.817H101l-3,3v-3H13.01
		c-0.742,0-1.404,0.027-1.865,0.492c-0.045,0.039-0.083-0.042-0.125,0c-0.045,0.039-0.083,0.021-0.125,0.063
		c-0.045,0.039-0.083,0.052-0.125,0.094c-0.045,0.039-0.083,0.067-0.125,0.109c-0.045,0.039-0.083,0.075-0.125,0.117
		c-0.045,0.039-0.083,0.079-0.125,0.121c-0.045,0.039-0.083,0.081-0.125,0.123c-0.045,0.039-0.083,0.082-0.125,0.124
		c-0.045,0.039-0.083,0.083-0.125,0.125c-0.045,0.039-0.083,0.083-0.125,0.125C9.85,34.53,9.812,34.575,9.77,34.617
		c-0.045,0.039-0.083,0.083-0.125,0.125C9.6,34.78,9.562,34.825,9.52,34.867c-0.045,0.039-0.083,0.083-0.125,0.125
		C9.35,35.03,9.312,35.075,9.27,35.117c-0.045,0.039-0.083,0.083-0.125,0.125C9.1,35.28,9.062,35.325,9.02,35.367
		c-0.045,0.039-0.083,0.083-0.125,0.125C8.85,35.53,8.812,35.575,8.77,35.617c-0.045,0.039-0.083,0.083-0.125,0.125
		C8.6,35.78,8.562,35.825,8.52,35.867c-0.045,0.039-0.083,0.083-0.125,0.125C8.35,36.03,8.312,36.075,8.27,36.117
		c-0.045,0.039-0.083,0.083-0.125,0.125C8.1,36.28,8.062,36.325,8.02,36.367c-0.045,0.039-0.083,0.083-0.125,0.125
		C7.85,36.53,7.812,36.575,7.77,36.617c-0.045,0.039-0.083,0.083-0.125,0.125C7.6,36.78,7.562,36.825,7.52,36.867
		c-0.045,0.039-0.083,0.083-0.125,0.125C7.35,37.03,7.312,37.075,7.27,37.117c-0.045,0.039-0.083,0.083-0.125,0.125
		C7.1,37.28,7.062,37.325,7.02,37.367c-0.045,0.039-0.083,0.083-0.125,0.125C6.85,37.53,6.812,37.575,6.77,37.617
		c-0.045,0.039-0.083,0.083-0.125,0.125C6.6,37.78,6.562,37.825,6.52,37.867c-0.045,0.039-0.083,0.083-0.125,0.125
		C6.35,38.03,6.312,38.075,6.27,38.117c-0.045,0.039-0.083,0.083-0.125,0.125C6.1,38.28,6.062,38.325,6.02,38.367
		c-0.045,0.039-0.083,0.083-0.125,0.125C5.85,38.53,5.812,38.575,5.77,38.617c-0.045,0.039-0.083,0.083-0.125,0.125
		C5.6,38.78,5.562,38.825,5.52,38.867c-0.045,0.039-0.083,0.083-0.125,0.125C5.35,39.03,5.312,39.075,5.27,39.117
		c-0.045,0.039-0.083,0.083-0.125,0.125C5.1,39.28,5.062,39.325,5.02,39.367c-0.045,0.039-0.083,0.083-0.125,0.125
		C4.85,39.53,4.812,39.575,4.77,39.617c-0.045,0.039-0.083,0.083-0.125,0.125C4.6,39.78,4.562,39.825,4.52,39.867
		c-0.045,0.039-0.083,0.083-0.125,0.125C4.35,40.03,4.312,40.075,4.27,40.117c-0.045,0.039-0.083,0.083-0.125,0.125
		C4.1,40.28,4.062,40.325,4.02,40.367c-0.045,0.039-0.083,0.083-0.125,0.125C3.85,40.53,3.812,40.575,3.77,40.617
		c-0.045,0.039-0.083,0.083-0.125,0.125C3.6,40.78,3.562,40.825,3.52,40.867c-0.045,0.039-0.083,0.083-0.125,0.125
		C3.35,41.03,3.312,41.075,3.27,41.117c-0.045,0.039-0.083,0.083-0.125,0.125C3.1,41.28,3.062,41.325,3.02,41.367
		c-0.045,0.039-0.083,0.083-0.125,0.125C2.85,41.53,2.812,41.575,2.77,41.617c-0.045,0.039-0.083,0.083-0.125,0.125
		C2.6,41.78,2.562,41.825,2.52,41.867c-0.045,0.039-0.083,0.083-0.125,0.125C2.35,42.03,2.312,42.075,2.27,42.117
		c-0.045,0.039-0.083,0.083-0.125,0.125C2.1,42.28,2.062,42.325,2.02,42.367c-0.045,0.039-0.083,0.083-0.125,0.125
		C1.85,42.53,1.812,42.575,1.77,42.617c-0.045,0.039-0.083,0.083-0.125,0.125C1.6,42.78,1.562,42.825,1.52,42.867
		c-0.045,0.039-0.083,0.083-0.125,0.125C1.35,43.03,1.312,43.075,1.27,43.117c-0.045,0.039-0.083,0.083-0.125,0.125
		C1.1,43.28,1.062,43.325,1.02,43.367c-0.045,0.039-0.083,0.083-0.125,0.125C0.85,43.53,0.812,43.575,0.77,43.617
		c-0.045,0.039-0.083,0.083-0.125,0.125C0.6,43.78,0.562,43.825,0.52,43.867c-0.045,0.039-0.083,0.083-0.125,0.125
		C0.35,44.03,0.312,44.075,0.27,44.117c-0.045,0.039-0.083,0.083-0.125,0.125C0.1,44.28,0.062,44.325,0.02,44.367
		c-0.045,0.039-0.083,0.083-0.125,0.125c-0.045,0.039-0.083,0.083-0.125,0.125c-0.045,0.039-0.083,0.083-0.125,0.125
		C-0.4,44.78-0.438,44.825-0.48,44.867c-0.045,0.039-0.083,0.083-0.125,0.125c-0.045,0.039-0.083,0.083-0.125,0.125
		c-0.045,0.039-0.083,0.083-0.125,0.125C-0.9,45.28-0.938,45.325-0.98,45.367c-0.045,0.039-0.083,0.083-0.125,0.125
		c-0.045,0.039-0.083,0.083-0.125,0.125c-0.045,0.039-0.083,0.083-0.125,0.125C-1.4,45.78-1.438,45.825-1.48,45.867
		c-0.045,0.039-0.083,0.083-0.125,0.125c-0.045,0.039-0.083,0.083-0.125,0.125c-0.045,0.039-0.083,0.083-0.125,0.125
		C-1.9,46.28-1.938,46.325-1.98,46.367c-0.045,0.039-0.083,0.083-0.125,0.125c-0.045,0.039-0.083,0.083-0.125,0.125
		c-0.038,0.033-0.067,0.074-0.103,0.109c-0.052,0.044-0.099,0.093-0.147,0.141c-0.045,0.039-0.083,0.083-0.125,0.125
		c-0.045,0.039-0.083,0.083-0.125,0.125c-0.045,0.039-0.083,0.083-0.125,0.125C-2.9,47.28-2.938,47.325-2.98,47.367
		c-0.045,0.039-0.083,0.083-0.125,0.125c-0.045,0.039-0.083,0.083-0.125,0.125c-0.045,0.039-0.083,0.083-0.125,0.125
		C-3.4,47.78-3.438,47.825-3.48,47.867c-0.045,0.039-0.083,0.083-0.125,0.125c-0.045,0.039-0.083,0.083-0.125,0.125
		c-0.045,0.039-0.083,0.083-0.125,0.125C-3.9,48.28-3.938,48.325-3.98,48.367c-0.045,0.039-0.083,0.083-0.125,0.125
		c-0.045,0.039-0.083,0.083-0.125,0.125c-0.045,0.039-0.083,0.083-0.125,0.125C-4.4,48.78-4.438,48.825-4.48,48.867
		c-0.045,0.039-0.083,0.083-0.125,0.125c-0.045,0.039-0.083,0.083-0.125,0.125c-0.045,0.039-0.083,0.083-0.125,0.125
		C-4.9,49.28-4.938,49.325-4.98,49.367c-0.045,0.039-0.083,0.083-0.125,0.125c-0.045,0.039-0.083,0.083-0.125,0.125
		c-0.045,0.039-0.083,0.083-0.125,0.125C-5.4,49.78-5.438,49.825-5.48,49.867c-0.045,0.039-0.083,0.083-0.125,0.125
		c-0.045,0.039-0.083,0.083-0.125,0.125c-0.045,0.039-0.083,0.083-0.125,0.125C-5.9,50.28-5.938,50.325-5.98,50.367
		c-0.045,0.039-0.083,0.083-0.125,0.125c-0.045,0.039-0.083,0.083-0.125,0.125c-0.045,0.039-0.083,0.083-0.125,0.125
		C-6.4,50.78-6.438,50.825-6.48,50.867c-0.045,0.039-0.083,0.083-0.125,0.125c-0.045,0.039-0.083,0.083-0.125,0.125
		c-0.045,0.039-0.083,0.083-0.125,0.125C-6.9,51.28-6.938,51.325-6.98,51.367c-0.045,0.039-0.083,0.083-0.125,0.125
		c-0.045,0.039-0.083,0.083-0.125,0.125c-0.045,0.039-0.083,0.083-0.125,0.125C-7.4,51.78-7.438,51.825-7.48,51.867
		c-0.045,0.039-0.083,0.083-0.125,0.125c-0.045,0.039-0.083,0.083-0.125,0.125c-0.045,0.039-0.083,0.083-0.125,0.125
		C-7.9,52.28-7.938,52.325-7.98,52.367c-0.045,0.039-0.083,0.083-0.125,0.125c-0.045,0.039-0.083,0.083-0.125,0.125
		c-0.045,0.039-0.083,0.083-0.125,0.125C-8.4,52.78-8.438,52.825-8.48,52.867c-0.045,0.039-0.083,0.083-0.125,0.125
		c-0.045,0.039-0.083,0.083-0.125,0.125c-0.045,0.039-0.083,0.083-0.125,0.125C-8.9,53.28-8.938,53.325-8.98,53.367
		c-0.045,0.039-0.083,0.083-0.125,0.125c-0.045,0.039-0.083,0.083-0.125,0.125c-0.045,0.039-0.083,0.083-0.125,0.125
		C-9.4,53.78-9.438,53.825-9.48,53.867c-0.045,0.039-0.083,0.083-0.125,0.125c-0.045,0.039-0.083,0.083-0.125,0.125
		c-0.045,0.039-0.083,0.083-0.125,0.125C-9.9,54.28-9.938,54.325-9.98,54.367c-0.045,0.039-0.083,0.083-0.125,0.125
		c-0.045,0.039-0.083,0.083-0.125,0.125c-0.045,0.039-0.083,0.083-0.125,0.125c-0.045,0.039-0.083,0.083-0.125,0.125
		c-0.045,0.039-0.083,0.083-0.125,0.125c-0.045,0.039-0.083,0.083-0.125,0.125c-0.045,0.039-0.083,0.083-0.125,0.125
		c-0.045,0.039-0.083,0.083-0.125,0.125c-0.045,0.039-0.083,0.083-0.125,0.125c-0.045,0.039-0.083,0.083-0.125,0.125
		c-0.045,0.039-0.083,0.083-0.125,0.125c-0.045,0.039-0.083,0.083-0.125,0.125c-0.045,0.039-0.083,0.083-0.125,0.125
		c-0.045,0.039-0.083,0.083-0.125,0.125c-0.045,0.039-0.083,0.083-0.125,0.125c-0.045,0.039-0.083,0.083-0.125,0.125
		c-0.045,0.039-0.083,0.083-0.125,0.125c-0.045,0.039-0.083,0.083-0.125,0.125c-0.045,0.039-0.083,0.083-0.125,0.125
		c-0.045,0.039-0.083,0.083-0.125,0.125c-0.045,0.039-0.083,0.083-0.125,0.125c-0.045,0.039-0.083,0.083-0.125,0.125
		c-0.045,0.039-0.083,0.083-0.125,0.125c-0.045,0.039-0.083,0.083-0.125,0.125c-0.045,0.039-0.083,0.083-0.125,0.125
		c-0.045,0.039-0.083,0.083-0.125,0.125c-0.045,0.039-0.083,0.083-0.125,0.125c-0.045,0.039-0.083,0.083-0.125,0.125
		c-0.045,0.039-0.083,0.083-0.125,0.125c-0.045,0.039-0.083,0.083-0.125,0.125c-0.045,0.039-0.083,0.083-0.125,0.125
		c-0.045,0.039-0.083,0.083-0.125,0.125c-0.045,0.039-0.083,0.083-0.125,0.125c-0.045,0.039-0.083,0.083-0.125,0.125
		c-0.045,0.039-0.083,0.083-0.125,0.125c-0.045,0.039-0.083,0.083-0.125,0.125c-0.045,0.039-0.083,0.083-0.125,0.125
		c-0.045,0.039-0.083,0.083-0.125,0.125c-0.045,0.039-0.083,0.083-0.125,0.125c-0.045,0.039-0.083,0.083-0.125,0.125
		c-0.045,0.039-0.083,0.083-0.125,0.125c-0.045,0.039-0.083,0.083-0.125,0.125c-0.045,0.039-0.083,0.083-0.125,0.125
		c-0.045,0.039-0.083,0.083-0.125,0.125c-0.045,0.039-0.083,0.083-0.125,0.125c-0.175,0.151-0.319,0.332-0.439,0.53
		c-0.02,0.005-0.04,0.011-0.061,0.032c-0.045,0.039-0.083,0.052-0.125,0.094c-0.045,0.039-0.083,0.067-0.125,0.109
		c-0.045,0.039-0.083,0.075-0.125,0.117c-0.045,0.039-0.083,0.079-0.125,0.121c-0.045,0.039-0.083,0.081-0.125,0.123
		c-0.045,0.039-0.083,0.082-0.125,0.124c-0.045,0.039-0.083,0.083-0.125,0.125c-0.045,0.039-0.083,0.083-0.125,0.125
		c-0.045,0.038-0.083,0.083-0.125,0.125c-0.045,0.039-0.083,0.083-0.125,0.125c-0.045,0.039-0.083,0.083-0.125,0.125
		c-0.045,0.039-0.083,0.083-0.125,0.125c-0.045,0.039-0.083,0.083-0.125,0.125c-0.045,0.039-0.083,0.083-0.125,0.125
		c-0.045,0.039-0.083,0.083-0.125,0.125c-0.045,0.039-0.083,0.083-0.125,0.125c-0.045,0.039-0.083,0.083-0.125,0.125
		c-0.045,0.039-0.083,0.083-0.125,0.125c-0.045,0.039-0.083,0.083-0.125,0.125c-0.045,0.039-0.083,0.083-0.125,0.125
		c-0.045,0.039-0.083,0.083-0.125,0.125c-0.045,0.039-0.083,0.083-0.125,0.125c-0.044,0.039-0.083,0.083-0.125,0.125
		c-0.045,0.039-0.083,0.083-0.125,0.125c-0.045,0.039-0.083,0.083-0.125,0.125c-0.045,0.039-0.083,0.083-0.125,0.125
		c-0.045,0.039-0.083,0.083-0.125,0.125c-0.045,0.039-0.083,0.083-0.125,0.125c-0.045,0.039-0.083,0.083-0.125,0.125
		c-0.045,0.039-0.083,0.083-0.125,0.125c-0.045,0.039-0.083,0.083-0.125,0.125c-0.045,0.039-0.083,0.083-0.125,0.125
		c-0.045,0.039-0.083,0.083-0.125,0.125c-0.044,0.039-0.083,0.083-0.125,0.125c-0.045,0.039-0.083,0.083-0.125,0.125
		c-0.045,0.039-0.083,0.083-0.125,0.125c-0.045,0.039-0.083,0.083-0.125,0.125c-0.045,0.039-0.083,0.083-0.125,0.125
		c-0.045,0.039-0.083,0.083-0.125,0.125c-0.045,0.039-0.083,0.083-0.125,0.125c-0.045,0.039-0.083,0.083-0.125,0.125
		c-0.045,0.039-0.083,0.083-0.125,0.125c-0.045,0.039-0.083,0.083-0.125,0.125c-0.045,0.039-0.083,0.083-0.125,0.125
		c-0.045,0.039-0.083,0.083-0.125,0.125c-0.045,0.039-0.083,0.083-0.125,0.125c-0.045,0.039-0.083,0.083-0.125,0.125
		c-0.045,0.039-0.083,0.083-0.125,0.125c-0.045,0.039-0.083,0.083-0.125,0.125c-0.045,0.039-0.083,0.083-0.125,0.125
		c-0.045,0.039-0.083,0.083-0.125,0.125c-0.045,0.039-0.083,0.083-0.125,0.125c-0.045,0.039-0.083,0.083-0.125,0.125
		c-0.045,0.039-0.083,0.083-0.125,0.125c-0.045,0.039-0.083,0.083-0.125,0.125c-0.045,0.039-0.083,0.083-0.125,0.125
		c-0.045,0.039-0.083,0.083-0.125,0.125c-0.045,0.039-0.083,0.083-0.125,0.125c-0.045,0.039-0.083,0.083-0.125,0.125
		c-0.045,0.039-0.083,0.083-0.125,0.125c-0.045,0.039-0.083,0.083-0.125,0.125c-0.045,0.039-0.083,0.083-0.125,0.125
		c-0.045,0.039-0.083,0.083-0.125,0.125c-0.045,0.039-0.083,0.083-0.125,0.125c-0.045,0.039-0.083,0.083-0.125,0.125
		c-0.045,0.039-0.083,0.083-0.125,0.125c-0.045,0.039-0.083,0.083-0.125,0.125c-0.045,0.039-0.083,0.083-0.125,0.125
		c-0.045,0.039-0.083,0.083-0.125,0.125c-0.045,0.039-0.083,0.083-0.125,0.125c-0.045,0.039-0.083,0.083-0.125,0.125
		c-0.045,0.039-0.083,0.083-0.125,0.125c-0.045,0.039-0.083,0.083-0.125,0.125c-0.045,0.039-0.083,0.083-0.125,0.125
		c-0.045,0.039-0.083,0.083-0.125,0.125c-0.045,0.039-0.083,0.083-0.125,0.125c-0.045,0.039-0.083,0.083-0.125,0.125
		c-0.045,0.039-0.083,0.083-0.125,0.125c-0.045,0.039-0.083,0.083-0.125,0.125c-0.045,0.039-0.083,0.083-0.125,0.125
		c-0.045,0.039-0.083,0.083-0.125,0.125c-0.045,0.039-0.083,0.083-0.125,0.125c-0.045,0.039-0.083,0.083-0.125,0.125
		c-0.045,0.039-0.083,0.083-0.125,0.125c-0.045,0.039-0.083,0.083-0.125,0.125c-0.045,0.039-0.083,0.083-0.125,0.125
		c-0.045,0.039-0.083,0.083-0.125,0.125c-0.045,0.039-0.083,0.083-0.125,0.125c-0.045,0.039-0.083,0.083-0.125,0.125
		c-0.045,0.039-0.083,0.083-0.125,0.125c-0.045,0.039-0.083,0.083-0.125,0.125c-0.045,0.039-0.083,0.083-0.125,0.125
		c-0.045,0.039-0.083,0.083-0.125,0.125c-0.045,0.039-0.083,0.083-0.125,0.125c-0.045,0.039-0.083,0.083-0.125,0.125
		c-0.045,0.039-0.083,0.083-0.125,0.125c-0.045,0.039-0.083,0.083-0.125,0.125c-0.045,0.039-0.083,0.083-0.125,0.125
		c-0.045,0.039-0.083,0.083-0.125,0.125c-0.045,0.039-0.083,0.083-0.125,0.125c-0.045,0.039-0.083,0.083-0.125,0.125
		c-0.045,0.039-0.083,0.083-0.125,0.125c-0.045,0.039-0.083,0.083-0.125,0.125c-0.045,0.039-0.083,0.083-0.125,0.125
		c-0.045,0.039-0.083,0.083-0.125,0.125c-0.045,0.039-0.083,0.083-0.125,0.125c-0.045,0.039-0.083,0.083-0.125,0.125
		c-0.045,0.039-0.083,0.083-0.125,0.125c-0.045,0.039-0.083,0.083-0.125,0.125c-0.045,0.039-0.083,0.083-0.125,0.125
		c-0.045,0.039-0.083,0.083-0.125,0.125c-0.045,0.039-0.083,0.083-0.125,0.125c-0.045,0.039-0.083,0.083-0.125,0.125
		c-0.045,0.039-0.083,0.083-0.125,0.125c-0.045,0.039-0.083,0.083-0.125,0.125c-0.045,0.039-0.083,0.083-0.125,0.125
		c-0.045,0.039-0.083,0.083-0.125,0.125c-0.045,0.039-0.083,0.083-0.125,0.125c-0.045,0.039-0.083,0.083-0.125,0.125
		c-0.045,0.039-0.083,0.083-0.125,0.125c-0.045,0.039-0.083,0.083-0.125,0.125c-0.045,0.039-0.083,0.083-0.125,0.125
		c-0.045,0.039-0.083,0.083-0.125,0.125c-0.045,0.039-0.083,0.083-0.125,0.125c-0.045,0.039-0.083,0.083-0.125,0.125
		c-0.045,0.039-0.083,0.083-0.125,0.125c-0.045,0.039-0.083,0.083-0.125,0.125c-0.045,0.039-0.083,0.083-0.125,0.125
		c-0.045,0.039-0.083,0.083-0.125,0.125c-0.045,0.039-0.083,0.083-0.125,0.125c-0.045,0.039-0.083,0.083-0.125,0.125
		c-0.045,0.039-0.083,0.083-0.125,0.125c-0.045,0.039-0.083,0.083-0.125,0.125c-0.045,0.039-0.083,0.083-0.125,0.125
		c-0.045,0.039-0.083,0.083-0.125,0.125c-0.045,0.039-0.083,0.083-0.125,0.125c-0.045,0.039-0.083,0.083-0.125,0.125
		c-0.045,0.039-0.083,0.083-0.125,0.125c-0.045,0.039-0.083,0.083-0.125,0.125c-0.045,0.039-0.083,0.083-0.125,0.125
		c-0.045,0.039-0.083,0.083-0.125,0.125c-0.045,0.039-0.083,0.083-0.125,0.125c-0.045,0.039-0.083,0.083-0.125,0.125
		c-0.045,0.039-0.083,0.083-0.125,0.125c-0.045,0.039-0.083,0.083-0.125,0.125c-0.045,0.039-0.083,0.083-0.125,0.125
		c-0.045,0.039-0.083,0.083-0.125,0.125c-0.045,0.039-0.083,0.083-0.125,0.125c-0.045,0.039-0.083,0.083-0.125,0.125
		c-0.045,0.039-0.083,0.083-0.125,0.125c-0.045,0.039-0.083,0.083-0.125,0.125c-0.045,0.039-0.083,0.083-0.125,0.125
		c-0.045,0.039-0.083,0.083-0.125,0.125c-0.045,0.039-0.083,0.083-0.125,0.125c-0.045,0.039-0.083,0.083-0.125,0.125
		c-0.045,0.039-0.083,0.083-0.125,0.125c-0.045,0.039-0.083,0.083-0.125,0.125c-0.045,0.039-0.083,0.083-0.125,0.125
		c-0.045,0.039-0.083,0.083-0.125,0.125c-0.045,0.039-0.083,0.083-0.125,0.125c-0.045,0.039-0.083,0.083-0.125,0.125
		c-0.045,0.039-0.083,0.083-0.125,0.125c-0.045,0.039-0.083,0.083-0.125,0.125c-0.045,0.039-0.083,0.083-0.125,0.125
		c-0.045,0.039-0.083,0.083-0.125,0.125c-0.045,0.039-0.083,0.083-0.125,0.125c-0.045,0.039-0.083,0.083-0.125,0.125
		c-0.045,0.039-0.083,0.083-0.125,0.125c-0.045,0.039-0.083,0.083-0.125,0.125c-0.045,0.039-0.083,0.083-0.125,0.125
		c-0.045,0.039-0.083,0.083-0.125,0.125c-0.045,0.039-0.083,0.083-0.125,0.125c-0.045,0.039-0.083,0.083-0.125,0.125
		c-0.045,0.039-0.083,0.083-0.125,0.125c-0.045,0.039-0.083,0.083-0.125,0.125c-0.045,0.039-0.083,0.083-0.125,0.125
		c-0.045,0.039-0.083,0.083-0.125,0.125c-0.045,0.039-0.083,0.083-0.125,0.125c-0.045,0.039-0.083,0.083-0.125,0.125
		c-0.045,0.039-0.083,0.083-0.125,0.125c-0.045,0.039-0.333,0.083-0.375,0.125c-0.472,0.408-1.02,0.995-1.02,1.7v51.591
		c0,1.381,1.629,2.593,3.01,2.593H48h1v-1h1v-1h1v2h13.68c0.719,0,1.382-0.333,1.855-0.843c0.043-0.041,0.085-0.082,0.125-0.125
		c0.043-0.041,0.085-0.082,0.125-0.125c0.043-0.041,0.085-0.082,0.125-0.125c0.043-0.041,0.085-0.082,0.125-0.125
		c0.043-0.041,0.085-0.082,0.125-0.125c0.043-0.041,0.085-0.082,0.125-0.125c0.043-0.041,0.085-0.082,0.125-0.125
		c0.043-0.041,0.085-0.082,0.125-0.125c0.043-0.041,0.085-0.082,0.125-0.125c0.043-0.041,0.085-0.082,0.125-0.125
		c0.043-0.041,0.085-0.082,0.125-0.125c0.043-0.041,0.085-0.082,0.125-0.125c0.043-0.041,0.085-0.082,0.125-0.125
		c0.043-0.041,0.085-0.082,0.125-0.125c0.043-0.041,0.085-0.082,0.125-0.125c0.043-0.041,0.085-0.082,0.125-0.125
		c0.043-0.041,0.085-0.082,0.125-0.125c0.043-0.041,0.085-0.082,0.125-0.125c0.043-0.041,0.085-0.082,0.125-0.125
		c0.043-0.041,0.085-0.082,0.125-0.125c0.043-0.041,0.085-0.082,0.125-0.125c0.043-0.041,0.085-0.082,0.125-0.125
		c0.043-0.041,0.085-0.082,0.125-0.125c0.043-0.041,0.085-0.082,0.125-0.125c0.043-0.041,0.085-0.082,0.125-0.125
		c0.043-0.041,0.085-0.082,0.125-0.125c0.043-0.041,0.085-0.082,0.125-0.125c0.043-0.041,0.085-0.082,0.125-0.125
		c0.043-0.041,0.085-0.082,0.125-0.125c0.043-0.041,0.085-0.082,0.125-0.125c0.043-0.041,0.085-0.082,0.125-0.125
		c0.043-0.041,0.085-0.082,0.125-0.125c0.043-0.041,0.085-0.082,0.125-0.125c0.043-0.041,0.085-0.082,0.125-0.125
		c0.043-0.041,0.085-0.082,0.125-0.125c0.043-0.041,0.085-0.082,0.125-0.125c0.043-0.041,0.085-0.082,0.125-0.125
		c0.043-0.041,0.085-0.082,0.125-0.125c0.043-0.041,0.085-0.082,0.125-0.125c0.043-0.041,0.085-0.082,0.125-0.125
		c0.043-0.041,0.085-0.082,0.125-0.125c0.043-0.041,0.085-0.082,0.125-0.125c0.043-0.041,0.085-0.082,0.125-0.125
		c0.043-0.041,0.085-0.082,0.125-0.125c0.043-0.041,0.085-0.082,0.125-0.125c0.043-0.041,0.085-0.082,0.125-0.125
		c0.043-0.041,0.085-0.082,0.125-0.125c0.043-0.041,0.085-0.082,0.125-0.125c0.043-0.041,0.085-0.082,0.125-0.125
		c0.043-0.041,0.085-0.082,0.125-0.125c0.043-0.041,0.085-0.082,0.125-0.125c0.043-0.041,0.085-0.082,0.125-0.125
		c0.043-0.041,0.085-0.082,0.125-0.125c0.043-0.041,0.085-0.082,0.125-0.125c0.043-0.041,0.085-0.082,0.125-0.125
		c0.043-0.041,0.085-0.082,0.125-0.125c0.043-0.041,0.085-0.082,0.125-0.125c0.043-0.041,0.085-0.082,0.125-0.125
		c0.043-0.041,0.085-0.082,0.125-0.125c0.043-0.041,0.085-0.082,0.125-0.125c0.043-0.041,0.085-0.082,0.125-0.125
		c0.043-0.041,0.085-0.082,0.125-0.125c0.043-0.041,0.085-0.082,0.125-0.125c0.043-0.041,0.085-0.082,0.125-0.125
		c0.043-0.041,0.085-0.082,0.125-0.125c0.043-0.041,0.085-0.082,0.125-0.125c0.043-0.041,0.085-0.082,0.125-0.125
		c0.043-0.041,0.085-0.082,0.125-0.125c0.043-0.041,0.085-0.082,0.125-0.125c0.043-0.041,0.085-0.082,0.125-0.125
		c0.043-0.041,0.085-0.082,0.125-0.125c0.043-0.041,0.085-0.082,0.125-0.125c0.043-0.041,0.085-0.082,0.125-0.125
		c0.043-0.041,0.085-0.082,0.125-0.125c0.043-0.041,0.085-0.082,0.125-0.125c0.043-0.041,0.085-0.082,0.125-0.125
		c0.043-0.041,0.085-0.082,0.125-0.125c0.043-0.041,0.085-0.082,0.125-0.125c0.043-0.041,0.085-0.082,0.125-0.125
		c0.043-0.041,0.085-0.082,0.125-0.125c0.043-0.041,0.085-0.082,0.125-0.125c0.043-0.041,0.085-0.082,0.125-0.125
		c0.043-0.041,0.085-0.082,0.125-0.125c0.043-0.041,0.085-0.082,0.125-0.125c0.043-0.041,0.085-0.082,0.125-0.125
		c0.043-0.041,0.085-0.082,0.125-0.125c0.043-0.041,0.085-0.082,0.125-0.125c0.043-0.041,0.085-0.082,0.125-0.125
		c0.043-0.041,0.085-0.082,0.125-0.125c0.043-0.041,0.085-0.082,0.125-0.125c0.043-0.041,0.085-0.082,0.125-0.125
		c0.043-0.041,0.085-0.082,0.125-0.125c0.043-0.041,0.085-0.082,0.125-0.125c0.043-0.041,0.085-0.082,0.125-0.125
		c0.043-0.041,0.085-0.082,0.125-0.125c0.043-0.041,0.085-0.082,0.125-0.125c0.043-0.041,0.085-0.082,0.125-0.125
		c0.043-0.041,0.085-0.082,0.125-0.125c0.043-0.041,0.085-0.082,0.125-0.125c0.043-0.041,0.085-0.082,0.125-0.125
		c0.043-0.041,0.085-0.082,0.125-0.125c0.043-0.041,0.085-0.082,0.125-0.125c0.043-0.041,0.085-0.082,0.125-0.125
		c0.043-0.041,0.085-0.082,0.125-0.125c0.043-0.041,0.085-0.082,0.125-0.125c0.043-0.041,0.085-0.082,0.125-0.125
		c0.043-0.041,0.085-0.082,0.125-0.125c0.043-0.041,0.085-0.082,0.125-0.125c0.043-0.041,0.085-0.082,0.125-0.125
		c0.043-0.041,0.085-0.082,0.125-0.125c0.043-0.041,0.085-0.082,0.125-0.125c0.043-0.041,0.085-0.082,0.125-0.125
		c0.043-0.041,0.085-0.082,0.125-0.125c0.043-0.041,0.085-0.082,0.125-0.125c0.043-0.041,0.085-0.082,0.125-0.125
		c0.043-0.041,0.085-0.082,0.125-0.125c0.043-0.041,0.085-0.082,0.125-0.125c0.043-0.041,0.085-0.082,0.125-0.125
		c0.043-0.041,0.085-0.082,0.125-0.125c0.043-0.041,0.085-0.082,0.125-0.125c0.043-0.041,0.085-0.082,0.125-0.125
		c0.043-0.041,0.085-0.082,0.125-0.125c0.043-0.041,0.085-0.082,0.125-0.125c0.043-0.041,0.085-0.082,0.125-0.125
		c0.043-0.041,0.085-0.082,0.125-0.125c0.043-0.041,0.085-0.082,0.125-0.125c0.043-0.041,0.085-0.082,0.125-0.125
		c0.043-0.041,0.085-0.082,0.125-0.125c0.043-0.041,0.085-0.082,0.125-0.125c0.043-0.041,0.085-0.082,0.125-0.125
		c0.043-0.041,0.085-0.082,0.125-0.125c0.043-0.041,0.085-0.082,0.125-0.125c0.043-0.041,0.085-0.082,0.125-0.125
		c0.043-0.041,0.085-0.082,0.125-0.125c0.043-0.041,0.085-0.082,0.125-0.125c0.043-0.041,0.085-0.082,0.125-0.125
		c0.043-0.041,0.085-0.082,0.125-0.125c0.043-0.041,0.085-0.082,0.125-0.125c0.043-0.041,0.085-0.082,0.125-0.125
		c0.043-0.041,0.085-0.082,0.125-0.125c0.043-0.041,0.085-0.082,0.125-0.125c0.043-0.041,0.085-0.082,0.125-0.125
		c0.043-0.041,0.085-0.082,0.125-0.125c0.043-0.041,0.085-0.082,0.125-0.125c0.043-0.041,0.085-0.082,0.125-0.125
		c0.043-0.041,0.085-0.082,0.125-0.125c0.043-0.041,0.085-0.082,0.125-0.125c0.043-0.041,0.085-0.082,0.125-0.125
		c0.043-0.041,0.085-0.082,0.125-0.125c0.043-0.041,0.085-0.082,0.125-0.125c0.043-0.041,0.085-0.082,0.125-0.125
		c0.043-0.041,0.085-0.082,0.125-0.125c0.043-0.041,0.085-0.082,0.125-0.125c0.043-0.041,0.085-0.082,0.125-0.125
		c0.043-0.041,0.085-0.082,0.125-0.125c0.043-0.041,0.085-0.082,0.125-0.125c0.043-0.041,0.085-0.082,0.125-0.125
		c0.043-0.041,0.085-0.082,0.125-0.125c0.043-0.041,0.085-0.082,0.125-0.125c0.043-0.041,0.085-0.082,0.125-0.125
		c0.043-0.041,0.085-0.082,0.125-0.125c0.043-0.041,0.085-0.082,0.125-0.125c0.043-0.041,0.085-0.082,0.125-0.125
		c0.043-0.041,0.085-0.082,0.125-0.125c0.043-0.041,0.085-0.082,0.125-0.125c0.043-0.041,0.085-0.082,0.125-0.125
		c0.043-0.041,0.085-0.082,0.125-0.125c0.043-0.041,0.085-0.082,0.125-0.125c0.043-0.041,0.085-0.082,0.125-0.125
		c0.043-0.041,0.085-0.082,0.125-0.125c0.043-0.041,0.085-0.082,0.125-0.125c0.043-0.041,0.085-0.082,0.125-0.125
		c0.043-0.041,0.085-0.082,0.125-0.125c0.043-0.041,0.085-0.082,0.125-0.125c0.043-0.041,0.085-0.082,0.125-0.125
		c0.043-0.041,0.085-0.082,0.125-0.125c0.043-0.041,0.085-0.082,0.125-0.125c0.043-0.041,0.085-0.082,0.125-0.125
		c0.043-0.041,0.085-0.082,0.125-0.125c0.043-0.041,0.085-0.082,0.125-0.125c0.043-0.041,0.085-0.082,0.125-0.125
		c0.043-0.041,0.085-0.082,0.125-0.125c0.014-0.014,0.005-0.026,0.001-0.04c0.135-0.1,0.26-0.212,0.374-0.335
		c0.043-0.041,0.085-0.082,0.125-0.125c0.043-0.041,0.085-0.082,0.125-0.125c0.043-0.041,0.085-0.082,0.125-0.125
		c0.043-0.041,0.085-0.082,0.125-0.125c0.043-0.041,0.085-0.082,0.125-0.125c0.043-0.041,0.085-0.082,0.125-0.125
		c0.043-0.041,0.085-0.082,0.125-0.125c0.043-0.041,0.085-0.082,0.125-0.125c0.043-0.041,0.085-0.082,0.125-0.125
		c0.043-0.041,0.085-0.082,0.125-0.125c0.043-0.041,0.085-0.082,0.125-0.125c0.043-0.041,0.085-0.082,0.125-0.125
		c0.043-0.041,0.085-0.082,0.125-0.125c0.043-0.041,0.085-0.082,0.125-0.125c0.043-0.041,0.085-0.082,0.125-0.125
		c0.043-0.041,0.085-0.082,0.125-0.125c0.043-0.041,0.085-0.082,0.125-0.125c0.043-0.041,0.085-0.082,0.125-0.125
		c0.043-0.041,0.085-0.082,0.125-0.125c0.043-0.041,0.085-0.082,0.125-0.125c0.043-0.041,0.085-0.082,0.125-0.125
		c0.043-0.041,0.085-0.082,0.125-0.125c0.043-0.041,0.085-0.082,0.125-0.125c0.043-0.041,0.085-0.082,0.125-0.125
		c0.043-0.041,0.085-0.082,0.125-0.125c0.043-0.041,0.085-0.082,0.125-0.125c0.043-0.041,0.085-0.082,0.125-0.125
		c0.043-0.041,0.085-0.082,0.125-0.125c0.043-0.041,0.085-0.082,0.125-0.125c0.043-0.041,0.085-0.082,0.125-0.125
		c0.043-0.041,0.085-0.082,0.125-0.125c0.043-0.041,0.085-0.082,0.125-0.125c0.043-0.041,0.085-0.082,0.125-0.125
		c0.043-0.041,0.085-0.082,0.125-0.125c0.043-0.041,0.085-0.082,0.125-0.125c0.043-0.041,0.085-0.082,0.125-0.125
		c0.043-0.041,0.085-0.082,0.125-0.125c0.043-0.041,0.085-0.082,0.125-0.125c0.043-0.041,0.085-0.082,0.125-0.125
		c0.043-0.041,0.085-0.082,0.125-0.125c0.043-0.041,0.085-0.082,0.125-0.125c0.043-0.041,0.085-0.082,0.125-0.125
		c0.043-0.041,0.085-0.082,0.125-0.125c0.043-0.041,0.085-0.082,0.125-0.125c0.043-0.041,0.085-0.082,0.125-0.125
		c0.043-0.041,0.085-0.082,0.125-0.125c0.043-0.041,0.085-0.082,0.125-0.125c0.043-0.041,0.085-0.082,0.125-0.125
		c0.043-0.041,0.085-0.082,0.125-0.125c0.043-0.041,0.085-0.082,0.125-0.125c0.043-0.041,0.085-0.082,0.125-0.125
		c0.043-0.041,0.085-0.082,0.125-0.125c0.043-0.041,0.085-0.082,0.125-0.125c0.043-0.041,0.085-0.082,0.125-0.125
		c0.043-0.041,0.085-0.082,0.125-0.125c0.043-0.041,0.085-0.082,0.125-0.125c0.043-0.041,0.085-0.082,0.125-0.125
		c0.043-0.041,0.085-0.082,0.125-0.125c0.043-0.041,0.085-0.082,0.125-0.125c0.043-0.041,0.085-0.082,0.125-0.125
		c0.043-0.041,0.085-0.082,0.125-0.125c0.043-0.041,0.085-0.082,0.125-0.125c0.043-0.041,0.085-0.082,0.125-0.125
		c0.043-0.041,0.085-0.082,0.125-0.125c0.043-0.041,0.085-0.082,0.125-0.125c0.043-0.041,0.085-0.082,0.125-0.125
		c0.043-0.041,0.085-0.082,0.125-0.125c0.043-0.041,0.085-0.082,0.125-0.125c0.043-0.041,0.085-0.082,0.125-0.125
		c0.043-0.041,0.085-0.082,0.125-0.125c0.043-0.041,0.085-0.082,0.125-0.125c0.043-0.041,0.085-0.082,0.125-0.125
		c0.043-0.041,0.085-0.082,0.125-0.125c0.043-0.041,0.085-0.082,0.125-0.125c0.043-0.041,0.085-0.082,0.125-0.125
		c0.043-0.041,0.085-0.082,0.125-0.125c0.043-0.041,0.085-0.082,0.125-0.125c0.043-0.041,0.085-0.082,0.125-0.125
		c0.043-0.041,0.085-0.082,0.125-0.125c0.043-0.041,0.085-0.082,0.125-0.125c0.043-0.041,0.085-0.082,0.125-0.125
		c0.043-0.041,0.085-0.082,0.125-0.125c0.043-0.041,0.085-0.082,0.125-0.125c0.043-0.041,0.085-0.082,0.125-0.125
		c0.043-0.041,0.085-0.082,0.125-0.125c0.043-0.041,0.085-0.082,0.125-0.125c0.043-0.041,0.085-0.082,0.125-0.125
		c0.043-0.041,0.085-0.082,0.125-0.125c0.043-0.041,0.085-0.082,0.125-0.125c0.043-0.041,0.085-0.082,0.125-0.125
		c0.043-0.041,0.085-0.082,0.125-0.125c0.043-0.041,0.085-0.082,0.125-0.125c0.043-0.041,0.085-0.082,0.125-0.125
		c0.043-0.041,0.085-0.082,0.125-0.125c0.043-0.041,0.085-0.082,0.125-0.125c0.043-0.041,0.085-0.082,0.125-0.125
		c0.043-0.041,0.085-0.082,0.125-0.125c0.036-0.034,0.073-0.067,0.107-0.103c0.436-0.213,0.832-0.563,1.143-0.897
		c0.043-0.041,0.085-0.207,0.125-0.25c0.043-0.041,0.085-0.145,0.125-0.188c0.043-0.041,0.085-0.113,0.125-0.156
		c0.043-0.041,0.085-0.098,0.125-0.141c0.043-0.041,0.085-0.09,0.125-0.133c0.043-0.041,0.085-0.086,0.125-0.129
		c0.043-0.041,0.085-0.084,0.125-0.127c0.043-0.041,0.085-0.083,0.125-0.126c0.043-0.041,0.085-0.082,0.125-0.125
		c0.043-0.041,0.085-0.083,0.125-0.126c0.043-0.041,0.085-0.082,0.125-0.125c0.043-0.041,0.085-0.082,0.125-0.125
		c0.043-0.041,0.085-0.082,0.125-0.125c0.043-0.041,0.085-0.082,0.125-0.125c0.043-0.041,0.085-0.082,0.125-0.125
		c0.043-0.041,0.085-0.082,0.125-0.125c0.043-0.041,0.085-0.082,0.125-0.125c0.043-0.041,0.085-0.082,0.125-0.125
		c0.043-0.041,0.085-0.082,0.125-0.125c0.043-0.041,0.085-0.082,0.125-0.125c0.043-0.041,0.085-0.082,0.125-0.125
		c0.043-0.041,0.085-0.082,0.125-0.125c0.043-0.041,0.085-0.082,0.125-0.125c0.043-0.041,0.085-0.082,0.125-0.125
		c0.043-0.041,0.085-0.082,0.125-0.125c0.043-0.041,0.085-0.082,0.125-0.125c0.043-0.041,0.085-0.082,0.125-0.125
		c0.043-0.041,0.085-0.082,0.125-0.125c0.043-0.041,0.085-0.082,0.125-0.125c0.043-0.041,0.085-0.082,0.125-0.125
		c0.043-0.041,0.085-0.082,0.125-0.125c0.043-0.041,0.085-0.082,0.125-0.125c0.043-0.041,0.085-0.082,0.125-0.125
		c0.043-0.041,0.085-0.082,0.125-0.125c0.043-0.041,0.085-0.082,0.125-0.125c0.043-0.041,0.085-0.082,0.125-0.125
		c0.043-0.041,0.085-0.082,0.125-0.125c0.043-0.041,0.085-0.082,0.125-0.125c0.043-0.041,0.085-0.082,0.125-0.125
		c0.043-0.041,0.085-0.082,0.125-0.125c0.043-0.041,0.085-0.082,0.125-0.125c0.043-0.041,0.085-0.082,0.125-0.125
		c0.043-0.041,0.085-0.082,0.125-0.125c0.043-0.041,0.085-0.082,0.125-0.125c0.043-0.041,0.085-0.082,0.125-0.125
		c0.043-0.041,0.085-0.082,0.125-0.125c0.043-0.041,0.085-0.082,0.125-0.125c0.043-0.041,0.085-0.082,0.125-0.125
		c0.043-0.041,0.085-0.082,0.125-0.125c0.043-0.041,0.085-0.082,0.125-0.125c0.043-0.041,0.085-0.082,0.125-0.125
		c0.043-0.041,0.085-0.082,0.125-0.125c0.043-0.041,0.085-0.082,0.125-0.125c0.043-0.041,0.085-0.082,0.125-0.125
		c0.043-0.041,0.085-0.082,0.125-0.125c0.043-0.041,0.085-0.082,0.125-0.125c0.043-0.041,0.085-0.082,0.125-0.125
		c0.043-0.041,0.085-0.082,0.125-0.125c0.043-0.041,0.085-0.082,0.125-0.125c0.043-0.041,0.085-0.082,0.125-0.125
		c0.043-0.041,0.085-0.082,0.125-0.125c0.043-0.041,0.085-0.082,0.125-0.125c0.043-0.041,0.085-0.082,0.125-0.125
		c0.043-0.041,0.085-0.082,0.125-0.125c0.043-0.041,0.085-0.082,0.125-0.125c0.043-0.041,0.085-0.082,0.125-0.125
		c0.043-0.041,0.085-0.082,0.125-0.125c0.043-0.041,0.085-0.082,0.125-0.125c0.043-0.041,0.085-0.082,0.125-0.125
		c0.043-0.041,0.085-0.082,0.125-0.125c0.043-0.041,0.085-0.082,0.125-0.125c0.043-0.041,0.085-0.082,0.125-0.125
		c0.043-0.041,0.085-0.082,0.125-0.125c0.043-0.041,0.085-0.082,0.125-0.125c0.043-0.041,0.085-0.082,0.125-0.125
		c0.043-0.041,0.085-0.082,0.125-0.125c0.043-0.041,0.085-0.082,0.125-0.125c0.043-0.041,0.085-0.082,0.125-0.125
		c0.043-0.041,0.085-0.082,0.125-0.125c0.043-0.041,0.085-0.082,0.125-0.125c0.043-0.041,0.085-0.082,0.125-0.125
		c0.043-0.041,0.085-0.082,0.125-0.125c0.043-0.041,0.085-0.082,0.125-0.125c0.043-0.041,0.085-0.082,0.125-0.125
		c0.043-0.041,0.085-0.082,0.125-0.125c0.043-0.041,0.085-0.082,0.125-0.125c0.043-0.041,0.085-0.082,0.125-0.125
		c0.043-0.041,0.085-0.082,0.125-0.125c0.043-0.041,0.085-0.082,0.125-0.125c0.043-0.041,0.085-0.082,0.125-0.125
		c0.043-0.041,0.085-0.082,0.125-0.125c0.043-0.041,0.085-0.082,0.125-0.125c0.043-0.041,0.085-0.082,0.125-0.125
		c0.043-0.041,0.085-0.082,0.125-0.125c0.043-0.041,0.085-0.082,0.125-0.125c0.043-0.041,0.085-0.082,0.125-0.125
		c0.043-0.041,0.085-0.082,0.125-0.125c0.043-0.041,0.085-0.082,0.125-0.125c0.043-0.041,0.085-0.082,0.125-0.125
		c0.043-0.041,0.085-0.082,0.125-0.125c0.043-0.041,0.085-0.082,0.125-0.125c0.043-0.041,0.085-0.082,0.125-0.125
		c0.043-0.041,0.085-0.082,0.125-0.125c0.043-0.041,0.085-0.082,0.125-0.125c0.043-0.041,0.085-0.082,0.125-0.125
		c0.043-0.041,0.085-0.082,0.125-0.125c0.043-0.041-0.04-0.082,0-0.125c0.509-0.48,0.715-1.152,0.715-1.875V69h-4l4-4v-6h-3l3-4v-5
		h-4L117,46z"/>
</g>
<g>
	<path fill="#FFFFFF" d="M107.046,69c-1.036,0-1.875-0.965-1.875-2s0.839-2,1.875-2H117v-6h-9.954c-1.036,0-1.875-0.964-1.875-2
		s0.839-2,1.875-2H117v-5h-9.954c-1.036,0-1.875-0.964-1.875-2s0.839-2,1.875-2H117V34.817c0-1.381-0.939-1.817-2.32-1.817H101v56
		h13.68c1.381,0,2.32-1.212,2.32-2.593V69H107.046z M114,84.191c0,1.036-0.965,1.875-2,1.875s-2-0.839-2-1.875v-10
		c0-1.035,0.965-1.875,2-1.875s2,0.84,2,1.875V84.191z"/>
	<path fill="#FFFFFF" d="M98,33H13.01C11.629,33,10,33.436,10,34.817v51.59C10,87.788,11.629,89,13.01,89H98V33z M58.296,39h31.75
		c1.036,0,1.875,0.964,1.875,2s-0.839,2-1.875,2h-31.75c-1.036,0-1.875-0.964-1.875-2S57.26,39,58.296,39z M58.296,47h10
		c1.036,0,1.875,0.964,1.875,2s-0.839,2-1.875,2h-10c-1.036,0-1.875-0.964-1.875-2S57.26,47,58.296,47z M58.296,55h10
		c1.036,0,1.875,0.964,1.875,2s-0.839,2-1.875,2h-10c-1.036,0-1.875-0.964-1.875-2S57.26,55,58.296,55z M45.051,74.947
		c-3.108-6.29-6.651-13.84-6.651-13.84s-11.959,10.905-13.02,11.494c0,2.216,1.89,4.836,0.945,6.602
		c-1.081-1.08-3.211-5.803-3.211-5.803s-0.411,0.473-1.384,0.147c-0.324-0.972,0.148-1.384,0.148-1.384s-4.723-2.13-5.804-3.211
		c1.766-0.944,4.386,0.945,6.602,0.945c0.589-1.061,11.494-13.019,11.494-13.019s-7.55-3.543-13.84-6.651
		c2.416-4.302,18.577,1.724,18.577,1.724s5.038-4.508,6.982-2.563c1.945,1.945-2.563,6.982-2.563,6.982S49.353,72.532,45.051,74.947
		z M90.046,67h-31.75c-1.036,0-1.875-0.465-1.875-1.5c0-1.036,0.839-1.5,1.875-1.5h31.75c1.036,0,1.875,0.464,1.875,1.5
		C91.921,66.535,91.082,67,90.046,67z M90.046,59h-10c-1.036,0-1.875-0.964-1.875-2s0.839-2,1.875-2h10c1.036,0,1.875,0.964,1.875,2
		S91.082,59,90.046,59z M90.046,51h-10c-1.036,0-1.875-0.964-1.875-2s0.839-2,1.875-2h10c1.036,0,1.875,0.964,1.875,2
		S91.082,51,90.046,51z"/>
</g>
</svg>
