<?xml version="1.0" encoding="utf-8"?>
<!-- Generator: Adobe Illustrator 16.0.3, SVG Export Plug-In . SVG Version: 6.00 Build 0)  -->
<!DOCTYPE svg PUBLIC "-//W3C//DTD SVG 1.1//EN" "http://www.w3.org/Graphics/SVG/1.1/DTD/svg11.dtd">
<svg version="1.1" id="Layer_1" xmlns="http://www.w3.org/2000/svg" xmlns:xlink="http://www.w3.org/1999/xlink" x="0px" y="0px"
	 width="128px" height="128px" viewBox="0 0 128 128" enable-background="new 0 0 128 128" xml:space="preserve">
<path fill="#444953" d="M128,25c0-13.807-11.193-25-25-25H25C11.193,0,0,11.193,0,25v78c0,13.807,11.193,25,25,25h78
	c13.807,0,25-11.193,25-25V25z"/>
<g>
	<g>
		<defs>
			<path id="SVGID_1_" d="M128,25c0-13.807-11.193-25-25-25H25C11.193,0,0,11.193,0,25v78c0,13.807,11.193,25,25,25h78
				c13.807,0,25-11.193,25-25V25z"/>
		</defs>
		<clipPath id="SVGID_2_">
			<use xlink:href="#SVGID_1_"  overflow="visible"/>
		</clipPath>
		<path clip-path="url(#SVGID_2_)" fill="#353A42" enable-background="new    " d="M88.607,45H81.42h-1.167H69.032l15.837-18.754
			c0.889-1.058,0.75-2.575-0.309-3.462c-1.058-0.888-2.635-0.72-3.521,0.338l-0.016,0.034c-0.035,0.038-0.076,0.075-0.109,0.115
			l-0.016,0.022c-0.035,0.038-0.076,0.069-0.109,0.109l-0.016,0.019c-0.035,0.038-0.076,0.067-0.109,0.107l-0.016,0.018
			c-0.035,0.038-0.076,0.067-0.109,0.107l-0.016,0.018c-0.035,0.038-0.076,0.067-0.109,0.107l-0.016,0.018
			c-0.035,0.038-0.076,0.067-0.109,0.107l-0.016,0.018c-0.035,0.038-0.076,0.067-0.109,0.107l-0.016,0.018
			c-0.035,0.038-0.076,0.067-0.109,0.107l-0.016,0.018c-0.035,0.038-0.076,0.067-0.109,0.107l-0.016,0.018
			c-0.035,0.038-0.076,0.067-0.109,0.107l-0.016,0.018c-0.035,0.038-0.076,0.067-0.109,0.107l-0.016,0.018
			c-0.035,0.038-0.076,0.067-0.109,0.107l-0.016,0.018c-0.035,0.038-0.076,0.067-0.109,0.107l-0.016,0.018
			c-0.035,0.038-0.076,0.067-0.109,0.107l-0.016,0.018c-0.035,0.038-0.076,0.067-0.109,0.107l-0.016,0.018
			c-0.035,0.038-0.076,0.067-0.109,0.107l-0.016,0.018c-0.035,0.038-0.076,0.067-0.109,0.107l-0.016,0.018
			c-0.035,0.038-0.076,0.067-0.109,0.107l-0.016,0.018c-0.035,0.038-0.076,0.067-0.109,0.107l-0.016,0.018
			c-0.035,0.038-0.076,0.067-0.109,0.107l-0.016,0.018c-0.035,0.038-0.076,0.067-0.109,0.107l-0.016,0.018
			c-0.035,0.038-0.076,0.067-0.109,0.107l-0.016,0.018c-0.035,0.038-0.076,0.067-0.109,0.107l-0.016,0.018
			c-0.035,0.038-0.076,0.067-0.109,0.107l-0.016,0.018c-0.035,0.038-0.076,0.067-0.109,0.107l-0.016,0.018
			c-0.035,0.038-0.076,0.067-0.109,0.107l-0.016,0.018c-0.035,0.038-0.076,0.067-0.109,0.107l-0.016,0.018
			c-0.035,0.038-0.076,0.067-0.109,0.107l-0.016,0.018c-0.035,0.038-0.076,0.067-0.109,0.107l-0.016,0.018
			c-0.035,0.038-0.076,0.067-0.109,0.107l-0.016,0.018c-0.035,0.038-0.076,0.067-0.109,0.107l-0.016,0.018
			c-0.035,0.038-0.076,0.067-0.109,0.107l-0.016,0.018c-0.035,0.038-0.076,0.067-0.109,0.107l-0.016,0.018
			c-0.035,0.038-0.076,0.067-0.109,0.107l-0.016,0.018c-0.035,0.038-0.076,0.067-0.109,0.107l-0.016,0.018
			c-0.035,0.038-0.076,0.067-0.109,0.107l-0.016,0.018c-0.035,0.038-0.076,0.067-0.109,0.107l-0.016,0.018
			c-0.035,0.038-0.076,0.067-0.109,0.107l-0.016,0.018c-0.035,0.038-0.076,0.067-0.109,0.107l-0.016,0.018
			c-0.035,0.038-0.076,0.067-0.109,0.107l-0.016,0.018c-0.035,0.038-0.076,0.067-0.109,0.107l-0.016,0.018
			c-0.035,0.038-0.076,0.067-0.109,0.107l-0.016,0.018c-0.035,0.038-0.076,0.067-0.109,0.107l-0.016,0.018
			c-0.035,0.038-0.076,0.067-0.109,0.107l-0.016,0.018c-0.035,0.038-0.076,0.067-0.109,0.107l-0.016,0.018
			c-0.035,0.038-0.076,0.067-0.109,0.107l-0.016,0.018c-0.035,0.038-0.076,0.067-0.109,0.107l-0.016,0.018
			c-0.035,0.038-0.076,0.067-0.109,0.107l-0.016,0.018c-0.035,0.038-0.076,0.067-0.109,0.107l-0.016,0.018
			c-0.035,0.038-0.076,0.067-0.109,0.107l-0.016,0.018c-0.035,0.038-0.076,0.067-0.109,0.107l-0.016,0.018
			c-0.035,0.038-0.076,0.067-0.109,0.107l-0.016,0.018c-0.035,0.038-0.076,0.067-0.109,0.107l-0.016,0.018
			c-0.035,0.038-0.076,0.067-0.109,0.107l-0.016,0.018c-0.035,0.038-0.076,0.067-0.109,0.107l-0.016,0.018
			c-0.035,0.038-0.076,0.067-0.109,0.107l-0.016,0.018c-0.035,0.038-0.076,0.067-0.109,0.107l-0.016,0.018
			c-0.035,0.038-0.076,0.067-0.109,0.107l-0.016,0.018c-0.035,0.038-0.076,0.067-0.109,0.107l-0.016,0.018
			c-0.035,0.038-0.076,0.067-0.109,0.107l-0.016,0.018c-0.035,0.038-0.076,0.067-0.109,0.107l-0.016,0.018
			c-0.035,0.038-0.076,0.067-0.109,0.107l-0.016,0.018c-0.035,0.038-0.076,0.067-0.109,0.107l-0.016,0.018
			c-0.035,0.038-0.076,0.067-0.109,0.107l-0.016,0.018c-0.035,0.038-0.076,0.067-0.109,0.107l-0.016,0.018
			c-0.035,0.038-0.076,0.067-0.109,0.107l-0.016,0.018c-0.035,0.038-0.076,0.067-0.109,0.107l-0.016,0.018
			c-0.035,0.038-0.076,0.067-0.109,0.107l-0.016,0.018c-0.035,0.038-0.076,0.067-0.109,0.107l-0.016,0.018
			c-0.035,0.038-0.076,0.067-0.109,0.107l-0.016,0.018c-0.035,0.038-0.076,0.067-0.109,0.107l-0.016,0.018
			c-0.035,0.038-0.076,0.067-0.109,0.107l-0.016,0.018c-0.035,0.038-0.076,0.067-0.109,0.107l-0.016,0.018
			c-0.035,0.038-0.076,0.067-0.109,0.107l-0.016,0.018c-0.035,0.038-0.076,0.067-0.109,0.107l-0.016,0.018
			c-0.035,0.038-0.076,0.067-0.109,0.107l-0.016,0.018c-0.035,0.038-0.076,0.067-0.109,0.107l-0.016,0.018
			c-0.035,0.038-0.076,0.067-0.109,0.107l-0.016,0.018c-0.035,0.038-0.076,0.067-0.109,0.107l-0.016,0.018
			c-0.035,0.038-0.076,0.067-0.109,0.107l-0.016,0.018c-0.035,0.038-0.076,0.067-0.109,0.107l-0.016,0.018
			c-0.035,0.038-0.076,0.067-0.109,0.107l-0.016,0.018c-0.035,0.038-0.076,0.067-0.109,0.107l-0.016,0.018
			c-0.035,0.038-0.076,0.067-0.109,0.107l-0.016,0.018c-0.035,0.038-0.076,0.067-0.109,0.107l-0.016,0.018
			c-0.035,0.038-0.076,0.067-0.109,0.107l-0.016,0.018c-0.035,0.038-0.076,0.067-0.109,0.107l-0.016,0.018
			c-0.035,0.038-0.076,0.067-0.109,0.107l-0.016,0.018c-0.035,0.038-0.076,0.067-0.109,0.107l-0.016,0.018
			c-0.035,0.038-0.076,0.067-0.109,0.107l-0.016,0.018c-0.035,0.038-0.076,0.067-0.109,0.107l-0.016,0.018
			c-0.035,0.038-0.076,0.067-0.109,0.107l-0.016,0.018c-0.035,0.038-0.076,0.067-0.109,0.107l-0.016,0.018
			c-0.035,0.038-0.076,0.067-0.109,0.107l-0.016,0.018c-0.035,0.038-0.076,0.067-0.109,0.107l-0.016,0.018
			c-0.035,0.038-0.076,0.067-0.109,0.107l-0.016,0.018c-0.035,0.038-0.076,0.067-0.109,0.107l-0.016,0.018
			c-0.035,0.038-0.076,0.067-0.109,0.107l-0.016,0.018c-0.035,0.038-0.076,0.067-0.109,0.107l-0.016,0.018
			c-0.035,0.038-0.076,0.067-0.109,0.107l-0.016,0.018c-0.035,0.038-0.076,0.067-0.109,0.107l-0.016,0.018
			c-0.035,0.038-0.076,0.067-0.109,0.107l-0.016,0.018c-0.035,0.038-0.076,0.067-0.109,0.107l-0.016,0.018
			c-0.035,0.038-0.076,0.067-0.109,0.107l-0.016,0.018c-0.035,0.038-0.076,0.067-0.109,0.107l-0.016,0.018
			c-0.035,0.038-0.076,0.067-0.109,0.107l-0.016,0.018c-0.035,0.038-0.076,0.067-0.109,0.107l-0.016,0.018
			c-0.035,0.038-0.076,0.067-0.109,0.107l-0.016,0.018c-0.035,0.038-0.076,0.067-0.109,0.107l-0.016,0.018
			c-0.035,0.038-0.076,0.067-0.109,0.107l-0.016,0.018c-0.035,0.038-0.076,0.067-0.109,0.107l-0.016,0.018
			c-0.035,0.038-0.076,0.067-0.109,0.107l-0.016,0.018c-0.035,0.038-0.076,0.067-0.109,0.107l-0.016,0.018
			c-0.035,0.038-0.076,0.067-0.109,0.107l-0.016,0.018c-0.035,0.038-0.076,0.067-0.109,0.107l-0.016,0.018
			c-0.035,0.038-0.076,0.067-0.109,0.107l-0.016,0.018c-0.035,0.038-0.076,0.067-0.109,0.107l-0.016,0.018
			c-0.035,0.038-0.076,0.067-0.109,0.107l-0.016,0.018c-0.035,0.038-0.076,0.067-0.109,0.107l-0.016,0.018
			c-0.035,0.038-0.076,0.067-0.109,0.107l-0.016,0.018c-0.035,0.038-0.076,0.067-0.109,0.107l-0.016,0.018
			c-0.035,0.038-0.076,0.067-0.109,0.107l-0.016,0.018c-0.035,0.038-0.076,0.067-0.109,0.107l-0.016,0.018
			c-0.035,0.038-0.076,0.067-0.109,0.107l-0.016,0.018c-0.035,0.038-0.076,0.067-0.109,0.107l-0.016,0.018
			c-0.035,0.038-0.076,0.067-0.109,0.107l-0.016,0.018c-0.035,0.038-0.076,0.067-0.109,0.107l-0.016,0.018
			c-0.035,0.038-0.076,0.067-0.109,0.107l-0.016,0.018c-0.035,0.038-0.076,0.067-0.109,0.107l-0.016,0.018
			c-0.035,0.038-0.076,0.067-0.109,0.107l-0.016,0.018c-0.035,0.038-0.076,0.067-0.109,0.107l-0.016,0.018
			c-0.035,0.038-0.076,0.067-0.109,0.107l-0.016,0.018c-0.036,0.038-0.076,0.067-0.109,0.107l-0.015,0.018
			c-0.036,0.038-0.076,0.067-0.11,0.107l-0.015,0.018c-0.036,0.038-0.076,0.067-0.11,0.107l-0.015,0.018
			c-0.036,0.038-0.076,0.067-0.11,0.107l-0.015,0.018c-0.036,0.038-0.076,0.067-0.11,0.107l-0.015,0.018
			c-0.036,0.038-0.076,0.067-0.11,0.107l-0.015,0.018c-0.036,0.038-0.076,0.067-0.11,0.107l-0.015,0.018
			c-0.036,0.038-0.076,0.067-0.11,0.107l-0.015,0.018c-0.036,0.038-0.076,0.067-0.11,0.107l-0.015,0.018
			c-0.036,0.038-0.076,0.067-0.11,0.107l-0.015,0.018c-0.036,0.038-0.076,0.067-0.11,0.107l-0.015,0.018
			c-0.036,0.038-0.076,0.067-0.11,0.107l-0.015,0.018c-0.036,0.038-0.076,0.067-0.11,0.107l-0.015,0.018
			c-0.036,0.038-0.076,0.067-0.11,0.107l-0.015,0.018c-0.036,0.038-0.076,0.067-0.11,0.107l-0.015,0.018
			c-0.036,0.038-0.076,0.067-0.11,0.107l-0.015,0.018c-0.036,0.038-0.076,0.067-0.11,0.107l-0.015,0.018
			c-0.036,0.038-0.076,0.067-0.11,0.107l-0.015,0.018c-0.036,0.038-0.076,0.067-0.11,0.107l-0.012,0.014l-15.85-18.89
			c-0.888-1.058-2.465-1.195-3.522-0.308c-0.043,0.036-0.075,0.08-0.115,0.118c-0.003,0.003-0.007,0.004-0.01,0.007
			c-0.043,0.036-0.075,0.08-0.115,0.118c-0.003,0.003-0.007,0.004-0.01,0.007c-0.043,0.036-0.075,0.08-0.115,0.118
			c-0.003,0.003-0.007,0.004-0.01,0.007c-0.043,0.036-0.075,0.08-0.115,0.118c-0.003,0.003-0.007,0.004-0.01,0.007
			c-0.043,0.036-0.075,0.08-0.115,0.118c-0.003,0.003-0.007,0.004-0.01,0.007c-0.043,0.036-0.075,0.08-0.115,0.118
			c-0.003,0.003-0.007,0.004-0.01,0.007c-0.043,0.036-0.075,0.08-0.115,0.118c-0.003,0.003-0.007,0.004-0.01,0.007
			c-0.043,0.036-0.075,0.08-0.115,0.118c-0.003,0.003-0.007,0.004-0.01,0.007c-0.043,0.036-0.075,0.08-0.115,0.118
			c-0.003,0.003-0.007,0.004-0.01,0.007c-0.043,0.036-0.075,0.08-0.115,0.118c-0.003,0.003-0.007,0.004-0.01,0.007
			c-0.043,0.036-0.075,0.08-0.115,0.118c-0.003,0.003-0.007,0.004-0.01,0.007c-0.043,0.036-0.075,0.08-0.115,0.118
			c-0.003,0.003-0.007,0.004-0.01,0.007c-0.043,0.036-0.075,0.08-0.115,0.118c-0.003,0.003-0.007,0.004-0.01,0.007
			c-0.043,0.036-0.075,0.08-0.115,0.118c-0.003,0.003-0.007,0.004-0.01,0.007c-0.043,0.036-0.075,0.08-0.115,0.118
			c-0.003,0.003-0.007,0.004-0.01,0.007c-0.043,0.036-0.075,0.08-0.115,0.118c-0.003,0.003-0.007,0.004-0.01,0.007
			c-0.043,0.036-0.075,0.08-0.115,0.118c-0.003,0.003-0.007,0.004-0.01,0.007c-0.043,0.036-0.075,0.08-0.115,0.118
			c-0.003,0.003-0.007,0.004-0.01,0.007c-0.043,0.036-0.075,0.08-0.115,0.118c-0.003,0.003-0.007,0.004-0.01,0.007
			c-0.043,0.036-0.075,0.08-0.115,0.118c-0.003,0.003-0.007,0.004-0.01,0.007c-0.043,0.036-0.075,0.08-0.115,0.118
			c-0.003,0.003-0.007,0.004-0.01,0.007c-0.043,0.036-0.075,0.08-0.115,0.118c-0.003,0.003-0.007,0.004-0.01,0.007
			c-0.043,0.036-0.075,0.08-0.115,0.118c-0.003,0.003-0.007,0.004-0.01,0.007c-0.043,0.036-0.075,0.08-0.115,0.118
			c-0.003,0.003-0.007,0.004-0.01,0.007c-0.043,0.036-0.075,0.08-0.115,0.118c-0.003,0.003-0.007,0.004-0.01,0.007
			c-0.043,0.036-0.075,0.08-0.115,0.118c-0.003,0.003-0.007,0.004-0.01,0.007c-0.043,0.036-0.075,0.08-0.115,0.118
			c-0.003,0.003-0.007,0.004-0.01,0.007c-0.043,0.036-0.075,0.08-0.115,0.118c-0.003,0.003-0.007,0.004-0.01,0.007
			c-0.043,0.036-0.075,0.08-0.115,0.118c-0.003,0.003-0.007,0.004-0.01,0.007c-0.043,0.036-0.075,0.08-0.115,0.118
			c-0.003,0.003-0.007,0.004-0.01,0.007c-0.043,0.036-0.075,0.08-0.115,0.118c-0.003,0.003-0.007,0.004-0.01,0.007
			c-0.043,0.036-0.075,0.08-0.115,0.118c-0.003,0.003-0.007,0.004-0.01,0.007c-0.043,0.036-0.075,0.08-0.115,0.118
			c-0.003,0.003-0.007,0.004-0.01,0.007c-0.043,0.036-0.075,0.08-0.115,0.118c-0.003,0.003-0.007,0.004-0.01,0.007
			c-0.043,0.036-0.075,0.08-0.115,0.118c-0.003,0.003-0.007,0.004-0.01,0.007c-0.043,0.036-0.075,0.08-0.115,0.118
			c-0.003,0.003-0.007,0.004-0.01,0.007c-0.043,0.036-0.075,0.08-0.115,0.118c-0.003,0.003-0.007,0.004-0.01,0.007
			c-0.043,0.036-0.075,0.08-0.115,0.118c-0.003,0.003-0.007,0.004-0.01,0.007c-0.043,0.036-0.075,0.08-0.115,0.118
			c-0.003,0.003-0.007,0.004-0.01,0.007c-0.043,0.036-0.075,0.08-0.115,0.118c-0.003,0.003-0.007,0.004-0.01,0.007
			c-0.043,0.036-0.075,0.08-0.115,0.118c-0.003,0.003-0.007,0.004-0.01,0.007c-0.043,0.036-0.075,0.08-0.115,0.118
			c-0.003,0.003-0.007,0.004-0.01,0.007c-0.043,0.036-0.075,0.08-0.115,0.118c-0.003,0.003-0.007,0.004-0.01,0.007
			c-0.043,0.036-0.075,0.08-0.115,0.118c-0.003,0.003-0.007,0.004-0.01,0.007c-0.043,0.036-0.075,0.08-0.115,0.118
			c-0.003,0.003-0.007,0.004-0.01,0.007c-0.043,0.036-0.075,0.08-0.115,0.118c-0.003,0.003-0.007,0.004-0.01,0.007
			c-0.043,0.036-0.075,0.08-0.115,0.118c-0.003,0.003-0.007,0.004-0.01,0.007c-0.043,0.036-0.075,0.08-0.115,0.118
			c-0.003,0.003-0.007,0.004-0.01,0.007c-0.043,0.036-0.075,0.08-0.115,0.118c-0.003,0.003-0.007,0.004-0.01,0.007
			c-0.043,0.036-0.075,0.08-0.115,0.118c-0.003,0.003-0.007,0.004-0.01,0.007c-0.043,0.036-0.075,0.08-0.115,0.118
			c-0.003,0.003-0.007,0.004-0.01,0.007c-0.043,0.036-0.075,0.08-0.115,0.118c-0.003,0.003-0.007,0.004-0.01,0.007
			c-0.043,0.036-0.075,0.08-0.115,0.118c-0.003,0.003-0.007,0.004-0.01,0.007c-0.043,0.036-0.075,0.08-0.115,0.118
			c-0.003,0.003-0.007,0.004-0.01,0.007c-0.043,0.036-0.075,0.08-0.115,0.118c-0.003,0.003-0.007,0.004-0.01,0.007
			c-0.043,0.036-0.075,0.08-0.115,0.118c-0.003,0.003-0.007,0.004-0.01,0.007c-0.043,0.036-0.075,0.08-0.115,0.118
			c-0.003,0.003-0.007,0.004-0.01,0.007c-0.043,0.036-0.075,0.08-0.115,0.118c-0.003,0.003-0.007,0.004-0.01,0.007
			c-0.043,0.036-0.075,0.08-0.115,0.118c-0.003,0.003-0.007,0.004-0.01,0.007c-0.043,0.036-0.075,0.08-0.115,0.118
			c-0.003,0.003-0.007,0.004-0.01,0.007c-0.043,0.036-0.075,0.08-0.115,0.118c-0.003,0.003-0.007,0.004-0.01,0.007
			c-0.043,0.036-0.075,0.08-0.115,0.118c-0.003,0.003-0.007,0.004-0.01,0.007c-0.043,0.036-0.075,0.08-0.115,0.118
			c-0.003,0.003-0.007,0.004-0.01,0.007c-0.043,0.036-0.075,0.08-0.115,0.118c-0.003,0.003-0.007,0.004-0.01,0.007
			c-0.043,0.036-0.075,0.08-0.115,0.118c-0.003,0.003-0.007,0.004-0.01,0.007c-0.043,0.036-0.075,0.08-0.115,0.118
			c-0.003,0.003-0.007,0.004-0.01,0.007c-0.043,0.036-0.075,0.08-0.115,0.118c-0.003,0.003-0.007,0.004-0.01,0.007
			c-0.043,0.036-0.075,0.08-0.115,0.118c-0.003,0.003-0.007,0.004-0.01,0.007c-0.043,0.036-0.075,0.08-0.115,0.118
			c-0.003,0.003-0.007,0.004-0.01,0.007c-0.043,0.036-0.075,0.08-0.115,0.118c-0.003,0.003-0.007,0.004-0.01,0.007
			c-0.043,0.036-0.075,0.08-0.115,0.118c-0.003,0.003-0.007,0.004-0.01,0.007c-0.043,0.036-0.075,0.08-0.115,0.118
			c-0.003,0.003-0.007,0.004-0.01,0.007c-0.043,0.036-0.075,0.08-0.115,0.118c-0.003,0.003-0.007,0.004-0.01,0.007
			c-0.043,0.036-0.075,0.08-0.115,0.118c-0.003,0.003-0.007,0.004-0.01,0.007c-0.043,0.036-0.075,0.08-0.115,0.118
			c-0.003,0.003-0.007,0.004-0.01,0.007c-0.043,0.036-0.075,0.08-0.115,0.118c-0.003,0.003-0.007,0.004-0.01,0.007
			c-0.043,0.036-0.075,0.08-0.115,0.118c-0.003,0.003-0.007,0.004-0.01,0.007c-0.043,0.036-0.075,0.08-0.115,0.118
			c-0.003,0.003-0.007,0.004-0.01,0.007c-0.043,0.036-0.075,0.08-0.115,0.118c-0.003,0.003-0.007,0.004-0.01,0.007
			c-0.043,0.036-0.075,0.08-0.115,0.118c-0.003,0.003-0.007,0.004-0.01,0.007c-0.043,0.036-0.075,0.08-0.115,0.118
			c-0.003,0.003-0.007,0.004-0.01,0.007c-0.043,0.036-0.075,0.08-0.115,0.118c-0.003,0.003-0.007,0.004-0.01,0.007
			c-0.043,0.036-0.075,0.08-0.115,0.118c-0.003,0.003-0.007,0.004-0.01,0.007c-0.043,0.036-0.075,0.08-0.115,0.118
			c-0.003,0.003-0.007,0.004-0.01,0.007c-0.043,0.036-0.075,0.08-0.115,0.118c-0.003,0.003-0.007,0.004-0.01,0.007
			c-0.043,0.036-0.075,0.08-0.115,0.118c-0.003,0.003-0.007,0.004-0.01,0.007c-0.043,0.036-0.075,0.08-0.115,0.118
			c-0.003,0.003-0.007,0.004-0.01,0.007c-0.043,0.036-0.075,0.08-0.115,0.118c-0.003,0.003-0.007,0.004-0.01,0.007
			c-0.043,0.036-0.075,0.08-0.115,0.118c-0.003,0.003-0.007,0.004-0.01,0.007c-0.043,0.036-0.075,0.08-0.115,0.118
			c-0.003,0.003-0.007,0.004-0.01,0.007c-0.043,0.036-0.075,0.08-0.115,0.118c-0.003,0.003-0.007,0.004-0.01,0.007
			c-0.043,0.036-0.075,0.08-0.115,0.118c-0.003,0.003-0.007,0.004-0.01,0.007c-0.043,0.036-0.075,0.08-0.115,0.118
			c-0.003,0.003-0.007,0.004-0.01,0.007c-0.043,0.036-0.075,0.08-0.115,0.118c-0.003,0.003-0.007,0.004-0.01,0.007
			c-0.043,0.036-0.075,0.08-0.115,0.118c-0.003,0.003-0.007,0.004-0.01,0.007c-0.043,0.036-0.075,0.08-0.115,0.118
			c-0.003,0.003-0.007,0.004-0.01,0.007c-0.043,0.036-0.075,0.08-0.115,0.118c-0.003,0.003-0.007,0.004-0.01,0.007
			c-0.043,0.036-0.075,0.08-0.115,0.118c-0.003,0.003-0.007,0.004-0.01,0.007c-0.043,0.036-0.075,0.08-0.115,0.118
			c-0.003,0.003-0.007,0.004-0.01,0.007c-0.043,0.036-0.075,0.08-0.115,0.118c-0.003,0.003-0.007,0.004-0.01,0.007
			c-0.043,0.036-0.075,0.08-0.115,0.118c-0.003,0.003-0.007,0.004-0.01,0.007c-0.043,0.036-0.075,0.08-0.115,0.118
			c-0.003,0.003-0.007,0.004-0.01,0.007c-0.043,0.036-0.075,0.08-0.115,0.118c-0.003,0.003-0.007,0.004-0.01,0.007
			c-0.043,0.036-0.075,0.08-0.115,0.118c-0.003,0.003-0.007,0.004-0.01,0.007c-0.043,0.036-0.075,0.08-0.115,0.118
			c-0.003,0.003-0.007,0.004-0.01,0.007c-0.043,0.036-0.075,0.08-0.115,0.118c-0.003,0.003-0.007,0.004-0.01,0.007
			c-0.043,0.036-0.075,0.08-0.115,0.118c-0.003,0.003-0.007,0.004-0.01,0.007c-0.043,0.036-0.075,0.08-0.115,0.118
			c-0.003,0.003-0.007,0.004-0.01,0.007c-0.043,0.036-0.075,0.08-0.115,0.118c-0.003,0.003-0.007,0.004-0.01,0.007
			c-0.043,0.036-0.075,0.08-0.115,0.118c-0.003,0.003-0.007,0.004-0.01,0.007c-0.043,0.036-0.075,0.08-0.115,0.118
			c-0.003,0.003-0.007,0.004-0.01,0.007c-0.043,0.036-0.075,0.08-0.115,0.118c-0.003,0.003-0.007,0.004-0.01,0.007
			c-0.043,0.036-0.075,0.08-0.115,0.118c-0.003,0.003-0.007,0.004-0.01,0.007c-0.043,0.036-0.075,0.08-0.115,0.118
			c-0.003,0.003-0.007,0.004-0.01,0.007c-0.043,0.036-0.075,0.08-0.115,0.118c-0.003,0.003-0.007,0.004-0.01,0.007
			c-0.043,0.036-0.075,0.08-0.115,0.118c-0.003,0.003-0.007,0.004-0.01,0.007c-0.043,0.036-0.075,0.08-0.115,0.118
			c-0.003,0.003-0.007,0.004-0.01,0.007c-0.043,0.036-0.075,0.08-0.115,0.118c-0.003,0.003-0.007,0.004-0.01,0.007
			c-0.043,0.036-0.075,0.08-0.115,0.118c-0.003,0.003-0.007,0.004-0.01,0.007c-0.043,0.036-0.075,0.08-0.115,0.118
			c-0.003,0.003-0.007,0.004-0.01,0.007c-0.043,0.036-0.075,0.08-0.115,0.118c-0.003,0.003-0.007,0.004-0.01,0.007
			c-0.043,0.036-0.075,0.08-0.115,0.118c-0.003,0.003-0.007,0.004-0.01,0.007c-0.043,0.036-0.075,0.08-0.115,0.118
			c-0.003,0.003-0.007,0.004-0.01,0.007c-0.043,0.036-0.075,0.08-0.115,0.118c-0.003,0.003-0.007,0.004-0.01,0.007
			c-0.043,0.036-0.075,0.08-0.115,0.118c-0.003,0.003-0.007,0.004-0.01,0.007c-0.043,0.036-0.075,0.08-0.115,0.118
			c-0.003,0.003-0.007,0.004-0.01,0.007c-0.043,0.036-0.075,0.08-0.115,0.118c-0.003,0.003-0.007,0.004-0.01,0.007
			c-0.043,0.036-0.075,0.08-0.115,0.118c-0.003,0.003-0.007,0.004-0.01,0.007c-0.043,0.036-0.075,0.08-0.115,0.118
			c-0.003,0.003-0.007,0.004-0.01,0.007c-0.043,0.036-0.075,0.08-0.115,0.118c-0.003,0.003-0.007,0.004-0.01,0.007
			c-0.043,0.036-0.075,0.08-0.115,0.118c-0.003,0.003-0.007,0.004-0.01,0.007c-0.043,0.036-0.075,0.08-0.115,0.118
			c-0.003,0.003-0.007,0.004-0.01,0.007c-0.043,0.036-0.075,0.08-0.115,0.118c-0.003,0.003-0.007,0.004-0.01,0.007
			c-0.043,0.036-0.075,0.08-0.115,0.118c-0.003,0.003-0.007,0.004-0.01,0.007c-0.043,0.036-0.075,0.08-0.115,0.118
			c-0.003,0.003-0.007,0.004-0.01,0.007c-0.043,0.036-0.075,0.08-0.115,0.118c-0.003,0.003-0.007,0.004-0.01,0.007
			c-0.043,0.036-0.075,0.08-0.115,0.118c-0.003,0.003-0.007,0.004-0.01,0.007c-0.043,0.036-0.075,0.08-0.115,0.118
			c-0.003,0.003-0.007,0.004-0.01,0.007c-0.043,0.036-0.075,0.08-0.115,0.118c-0.003,0.003-0.007,0.004-0.01,0.007
			c-0.043,0.036-0.075,0.08-0.115,0.118c-0.003,0.003-0.007,0.004-0.01,0.007c-0.043,0.036-0.075,0.08-0.115,0.118
			c-0.003,0.003-0.007,0.004-0.01,0.007c-0.043,0.036-0.075,0.08-0.115,0.118c-0.003,0.003-0.007,0.004-0.01,0.007
			c-0.043,0.036-0.075,0.08-0.115,0.118c-0.003,0.003-0.007,0.004-0.01,0.007c-0.043,0.036-0.075,0.08-0.115,0.118
			c-0.003,0.003-0.007,0.004-0.01,0.007c-0.043,0.036-0.075,0.08-0.115,0.118c-0.003,0.003-0.007,0.004-0.01,0.007
			c-0.043,0.036-0.075,0.08-0.115,0.118c-0.003,0.003-0.007,0.004-0.01,0.007c-0.043,0.036-0.075,0.08-0.115,0.118
			c-0.003,0.003-0.007,0.004-0.01,0.007c-0.043,0.036-0.075,0.08-0.115,0.118c-0.003,0.003-0.007,0.004-0.01,0.007
			c-0.043,0.036-0.075,0.08-0.115,0.118c-0.003,0.003-0.007,0.004-0.01,0.007c-0.043,0.036-0.075,0.08-0.115,0.118
			c-0.003,0.003-0.007,0.004-0.01,0.007c-0.043,0.036-0.075,0.08-0.115,0.118c-0.003,0.003-0.007,0.004-0.01,0.007
			c-0.043,0.036-0.075,0.08-0.115,0.118c-0.003,0.003-0.007,0.004-0.01,0.007c-0.043,0.036-0.075,0.08-0.115,0.118
			c-0.003,0.003-0.007,0.004-0.01,0.007c-0.043,0.036-0.075,0.08-0.115,0.118c-0.003,0.003-0.007,0.004-0.01,0.007
			c-0.043,0.036-0.075,0.08-0.115,0.118c-0.003,0.003-0.007,0.004-0.01,0.007c-0.043,0.036-0.075,0.08-0.115,0.118
			c-0.003,0.003-0.007,0.004-0.01,0.007c-0.043,0.036-0.075,0.08-0.115,0.118c-0.003,0.003-0.007,0.004-0.01,0.007
			c-0.043,0.036-0.075,0.08-0.115,0.118c-0.003,0.003-0.007,0.004-0.01,0.007c-0.043,0.036-0.075,0.08-0.115,0.118
			c-0.003,0.003-0.007,0.004-0.01,0.007c-0.043,0.036-0.075,0.08-0.115,0.118c-0.003,0.003-0.007,0.004-0.01,0.007
			c-0.043,0.036-0.075,0.08-0.115,0.118c-0.003,0.003-0.007,0.004-0.01,0.007c-0.043,0.036-0.075,0.08-0.115,0.118
			c-0.003,0.003-0.007,0.004-0.01,0.007c-0.043,0.036-0.075,0.08-0.115,0.118c-0.003,0.003-0.007,0.004-0.01,0.007
			c-0.043,0.036-0.075,0.08-0.115,0.118c-0.003,0.003-0.007,0.004-0.01,0.007c-0.043,0.036-0.075,0.08-0.115,0.118
			c-0.003,0.003-0.007,0.004-0.01,0.007c-0.043,0.036-0.075,0.08-0.115,0.118c-0.003,0.003-0.007,0.004-0.01,0.007
			c-0.043,0.036-0.075,0.08-0.115,0.118c-0.003,0.003-0.007,0.004-0.01,0.007c-0.043,0.036-0.075,0.08-0.115,0.118
			c-0.003,0.003-0.007,0.004-0.01,0.007c-0.043,0.036-0.075,0.08-0.115,0.118c-0.003,0.003-0.007,0.004-0.01,0.007
			c-0.043,0.036-0.075,0.08-0.115,0.118c-0.003,0.003-0.007,0.004-0.01,0.007c-0.043,0.036-0.075,0.08-0.115,0.118
			c-0.003,0.003-0.007,0.004-0.01,0.007c-0.043,0.036-0.075,0.08-0.115,0.118c-0.003,0.003-0.007,0.004-0.01,0.007
			c-0.043,0.036-0.075,0.08-0.115,0.118c-0.003,0.003-0.007,0.004-0.01,0.007c-0.043,0.036-0.075,0.08-0.115,0.118
			c-0.003,0.003-0.007,0.004-0.01,0.007c-0.043,0.036-0.075,0.08-0.115,0.118c-0.003,0.003-0.007,0.004-0.01,0.007
			c-0.043,0.036-0.075,0.08-0.115,0.118c-0.003,0.003-0.007,0.004-0.01,0.007c-0.043,0.036-0.075,0.08-0.115,0.118
			c-0.003,0.003-0.007,0.004-0.01,0.007c-0.043,0.036-0.075,0.08-0.115,0.118c-0.003,0.003-0.007,0.004-0.01,0.007
			c-0.043,0.036-0.075,0.08-0.115,0.118c-0.003,0.003-0.007,0.004-0.01,0.007c-0.043,0.036-0.075,0.08-0.115,0.118
			c-0.003,0.003-0.007,0.004-0.01,0.007c-0.043,0.036-0.075,0.08-0.115,0.118c-0.003,0.003-0.007,0.004-0.01,0.007
			c-0.043,0.036-0.075,0.08-0.115,0.118c-0.003,0.003-0.007,0.004-0.01,0.007c-0.043,0.036-0.075,0.08-0.115,0.118
			c-0.003,0.003-0.007,0.004-0.01,0.007c-0.043,0.036-0.075,0.08-0.115,0.118c-0.003,0.003-0.007,0.004-0.01,0.007
			c-0.043,0.036-0.075,0.08-0.115,0.118c-0.003,0.003-0.007,0.004-0.01,0.007c-0.043,0.036-0.075,0.08-0.115,0.118
			c-0.003,0.003-0.007,0.004-0.01,0.007c-0.043,0.036-0.075,0.08-0.115,0.118c-0.003,0.003-0.007,0.004-0.01,0.007
			c-0.043,0.036-0.075,0.08-0.115,0.118c-0.003,0.003-0.007,0.004-0.01,0.007c-0.043,0.036-0.075,0.08-0.115,0.118
			c-0.003,0.003-0.007,0.004-0.01,0.007c-0.043,0.036-0.075,0.08-0.115,0.118c-0.003,0.003-0.007,0.004-0.01,0.007
			c-0.043,0.036-0.075,0.08-0.115,0.118c-0.003,0.003-0.007,0.004-0.01,0.007c-0.043,0.036-0.075,0.08-0.115,0.118
			c-0.003,0.003-0.007,0.004-0.01,0.007c-0.043,0.036-0.075,0.08-0.115,0.118c-0.003,0.003-0.007,0.004-0.01,0.007
			c-0.043,0.036-0.075,0.08-0.115,0.118c-0.003,0.003-0.007,0.004-0.01,0.007c-0.043,0.036-0.075,0.08-0.115,0.118
			c-0.003,0.003-0.007,0.004-0.01,0.007c-0.043,0.036-0.075,0.08-0.115,0.118c-0.003,0.003-0.007,0.004-0.01,0.007
			c-0.043,0.036-0.075,0.08-0.115,0.118c-0.003,0.003-0.007,0.004-0.01,0.007c-0.043,0.036-0.075,0.08-0.115,0.118
			c-0.003,0.003-0.007,0.004-0.01,0.007c-0.043,0.036-0.075,0.08-0.115,0.118c-0.003,0.003-0.007,0.004-0.01,0.007
			c-0.043,0.036-0.075,0.08-0.115,0.118c-0.003,0.003-0.007,0.004-0.01,0.007c-0.043,0.036-0.075,0.08-0.115,0.118
			c-0.003,0.003-0.007,0.004-0.01,0.007c-0.043,0.036-0.075,0.08-0.115,0.118c-0.003,0.003-0.007,0.004-0.01,0.007
			c-0.043,0.036-0.075,0.08-0.115,0.118c-0.003,0.003-0.007,0.004-0.01,0.007c-0.043,0.036-0.075,0.08-0.115,0.118
			c-0.003,0.003-0.007,0.004-0.01,0.007c-0.043,0.036-0.075,0.08-0.115,0.118c-0.003,0.003-0.007,0.004-0.01,0.007
			c-0.043,0.036-0.075,0.08-0.115,0.118c-0.003,0.003-0.007,0.004-0.01,0.007c-0.043,0.036-0.075,0.08-0.115,0.118
			c-0.003,0.003-0.007,0.004-0.01,0.007c-0.043,0.036-0.075,0.08-0.115,0.118c-0.003,0.003-0.007,0.004-0.01,0.007
			c-0.043,0.036-0.075,0.08-0.115,0.118c-0.003,0.003-0.007,0.004-0.01,0.007c-0.043,0.036-0.075,0.08-0.115,0.118
			c-0.003,0.003-0.007,0.004-0.01,0.007c-0.043,0.036-0.075,0.08-0.115,0.118c-0.003,0.003-0.007,0.004-0.01,0.007
			c-0.043,0.036-0.075,0.08-0.115,0.118c-0.003,0.003-0.007,0.004-0.01,0.007c-0.043,0.036-0.075,0.08-0.115,0.118
			c-0.003,0.003-0.007,0.004-0.01,0.007c-0.043,0.036-0.075,0.08-0.115,0.118c-0.003,0.003-0.007,0.004-0.01,0.007
			c-0.043,0.036-0.075,0.08-0.115,0.118c-0.003,0.003-0.007,0.004-0.01,0.007c-0.043,0.036-0.075,0.08-0.115,0.118
			c-0.003,0.003-0.007,0.004-0.01,0.007c-0.043,0.036-0.075,0.08-0.115,0.118c-0.003,0.003-0.007,0.004-0.01,0.007
			c-0.043,0.036-0.075,0.08-0.115,0.118c-0.003,0.003-0.007,0.004-0.01,0.007c-0.043,0.036-0.075,0.08-0.115,0.118
			c-0.003,0.003-0.007,0.004-0.01,0.007c-0.043,0.036-0.075,0.08-0.115,0.118c-0.003,0.003-0.007,0.004-0.01,0.007
			c-0.043,0.036-0.075,0.08-0.115,0.118c-0.003,0.003-0.007,0.004-0.01,0.007c-0.043,0.036-0.075,0.08-0.115,0.118
			c-0.003,0.003-0.007,0.004-0.01,0.007c-0.043,0.036-0.075,0.08-0.115,0.118c-0.003,0.003-0.007,0.004-0.01,0.007
			c-0.043,0.036-0.075,0.08-0.115,0.118c-0.003,0.003-0.007,0.004-0.01,0.007c-0.043,0.036-0.075,0.08-0.115,0.118
			c-0.003,0.003-0.007,0.004-0.01,0.007c-0.043,0.036-0.075,0.08-0.115,0.118c-0.003,0.003-0.007,0.004-0.01,0.007
			c-0.043,0.036-0.075,0.08-0.115,0.118c-0.003,0.003-0.007,0.004-0.01,0.007c-0.043,0.036-0.075,0.08-0.115,0.118
			c-0.003,0.003-0.007,0.004-0.01,0.007c-0.043,0.036-0.075,0.08-0.115,0.118c-0.003,0.003-0.007,0.004-0.01,0.007
			c-0.043,0.036-0.075,0.08-0.115,0.118c-0.003,0.003-0.007,0.004-0.01,0.007c-0.043,0.036-0.075,0.08-0.115,0.118
			c-0.003,0.003-0.007,0.004-0.01,0.007c-0.043,0.036-0.075,0.08-0.115,0.118c-0.003,0.003-0.007,0.004-0.01,0.007
			c-0.043,0.036-0.075,0.08-0.115,0.118c-0.003,0.003-0.007,0.004-0.01,0.007c-0.043,0.036-0.075,0.08-0.115,0.118
			c-0.003,0.003-0.007,0.004-0.01,0.007c-0.043,0.036-0.075,0.08-0.115,0.118c-0.003,0.003-0.007,0.004-0.01,0.007
			c-0.043,0.036-0.075,0.08-0.115,0.118c-0.003,0.003-0.007,0.004-0.01,0.007c-0.043,0.036-0.075,0.08-0.115,0.118
			c-0.003,0.003-0.007,0.004-0.01,0.007c-0.043,0.036-0.075,0.08-0.115,0.118c-0.003,0.003-0.007,0.004-0.01,0.007
			c-0.043,0.036-0.075,0.08-0.115,0.118c-0.003,0.003-0.007,0.004-0.01,0.007c-0.043,0.036-0.075,0.08-0.115,0.118
			c-0.003,0.003-0.007,0.004-0.01,0.007c-0.043,0.036-0.075,0.08-0.115,0.118c-0.003,0.003-0.007,0.004-0.01,0.007
			c-0.043,0.036-0.075,0.08-0.115,0.118c-0.003,0.003-0.007,0.004-0.01,0.007c-0.043,0.036-0.075,0.08-0.115,0.118
			c-0.003,0.003-0.007,0.004-0.01,0.007c-0.043,0.036-0.075,0.08-0.115,0.118c-0.003,0.003-0.007,0.004-0.01,0.007
			c-0.043,0.036-0.075,0.08-0.115,0.118c-0.003,0.003-0.007,0.004-0.01,0.007c-0.043,0.036-0.075,0.08-0.115,0.118
			c-0.003,0.002-0.007,0.004-0.01,0.007c-0.043,0.036-0.075,0.08-0.115,0.118c-0.003,0.002-0.007,0.004-0.01,0.007
			c-0.043,0.036-0.075,0.08-0.115,0.118c-0.003,0.002-0.007,0.004-0.01,0.007c-0.043,0.036-0.075,0.08-0.115,0.118
			c-0.003,0.002-0.007,0.004-0.01,0.007c-0.043,0.036-0.075,0.08-0.115,0.118c-0.003,0.002-0.007,0.004-0.01,0.007
			c-0.043,0.036-0.075,0.08-0.115,0.118c-0.003,0.002-0.007,0.004-0.01,0.007c-0.043,0.036-0.075,0.08-0.115,0.118
			c-0.003,0.002-0.007,0.004-0.01,0.007c-0.043,0.036-0.075,0.08-0.115,0.118c-0.003,0.002-0.007,0.004-0.01,0.007
			c-0.043,0.036-0.075,0.08-0.115,0.118c-0.003,0.002-0.007,0.004-0.01,0.007c-0.043,0.036-0.075,0.08-0.115,0.118
			c-0.003,0.002-0.007,0.004-0.01,0.007c-0.043,0.036-0.075,0.08-0.115,0.118c-0.003,0.002-0.007,0.004-0.01,0.007
			c-0.043,0.036-0.075,0.08-0.115,0.118c-0.003,0.002-0.007,0.004-0.01,0.007c-0.043,0.036-0.075,0.08-0.115,0.118
			c-0.003,0.002-0.007,0.004-0.01,0.007c-0.043,0.036-0.075,0.08-0.115,0.118c-0.003,0.002-0.007,0.004-0.01,0.007
			c-0.043,0.036-0.075,0.08-0.115,0.118c-0.003,0.002-0.007,0.004-0.01,0.007c-0.043,0.036-0.075,0.08-0.115,0.118
			c-0.003,0.002-0.007,0.004-0.01,0.007c-0.043,0.036-0.075,0.08-0.115,0.118c-0.003,0.002-0.007,0.004-0.01,0.007
			c-0.043,0.036-0.075,0.08-0.115,0.118c-0.003,0.002-0.007,0.004-0.01,0.007c-0.043,0.036-0.075,0.08-0.115,0.118
			c-0.003,0.002-0.007,0.004-0.01,0.007c-0.043,0.036-0.075,0.08-0.115,0.118c-0.003,0.002-0.007,0.004-0.01,0.007
			c-0.043,0.036-0.075,0.08-0.115,0.118c-0.003,0.002-0.007,0.004-0.01,0.007c-0.043,0.036-0.075,0.08-0.115,0.118
			c-0.003,0.002-0.007,0.004-0.01,0.007c-0.043,0.036-0.075,0.08-0.115,0.118c-0.003,0.002-0.007,0.004-0.01,0.007
			c-0.043,0.036-0.075,0.08-0.115,0.118c-0.003,0.002-0.007,0.004-0.01,0.007c-0.043,0.036-0.075,0.08-0.115,0.118
			c-0.003,0.002-0.007,0.004-0.01,0.007c-0.043,0.036-0.075,0.08-0.115,0.118c-0.003,0.002-0.007,0.004-0.01,0.007
			c-0.043,0.036-0.075,0.08-0.115,0.118c-0.003,0.002-0.007,0.004-0.01,0.007c-0.043,0.036-0.075,0.08-0.115,0.118
			c-0.003,0.002-0.007,0.004-0.01,0.007c-0.043,0.036-0.075,0.08-0.115,0.118c-0.003,0.002-0.007,0.004-0.01,0.007
			c-0.043,0.036-0.075,0.08-0.115,0.118c-0.003,0.002-0.007,0.004-0.01,0.007c-0.043,0.036-0.075,0.08-0.115,0.118
			c-0.003,0.002-0.007,0.004-0.01,0.007c-0.043,0.036-0.075,0.08-0.115,0.118c-0.003,0.002-0.007,0.004-0.01,0.007
			c-0.043,0.036-0.075,0.08-0.115,0.118c-0.003,0.002-0.007,0.004-0.01,0.007c-0.043,0.036-0.075,0.08-0.115,0.118
			c-0.003,0.002-0.007,0.004-0.01,0.007c-0.043,0.036-0.075,0.08-0.115,0.118c-0.003,0.002-0.007,0.004-0.01,0.007
			c-0.043,0.036-0.075,0.08-0.115,0.118c-0.003,0.002-0.007,0.004-0.01,0.007c-0.043,0.036-0.075,0.08-0.115,0.118
			c-0.003,0.002-0.007,0.004-0.01,0.007c-0.043,0.036-0.075,0.08-0.115,0.118c-0.003,0.002-0.007,0.004-0.01,0.007
			c-0.043,0.036-0.075,0.08-0.115,0.118c-0.003,0.002-0.007,0.004-0.01,0.007c-0.043,0.036-0.075,0.08-0.115,0.118
			c-0.003,0.002-0.007,0.004-0.01,0.007c-0.043,0.036-0.075,0.08-0.115,0.118c-0.003,0.002-0.007,0.004-0.01,0.007
			c-0.043,0.036-0.075,0.08-0.115,0.118c-0.003,0.002-0.007,0.004-0.01,0.007c-0.043,0.036-0.075,0.08-0.115,0.118
			c-0.003,0.002-0.007,0.004-0.01,0.007c-0.043,0.036-0.075,0.08-0.115,0.118c-0.003,0.002-0.007,0.004-0.01,0.007
			c-0.043,0.036-0.075,0.08-0.115,0.118c-0.003,0.002-0.007,0.004-0.01,0.007c-0.043,0.036-0.075,0.08-0.115,0.118
			c-0.003,0.002-0.007,0.004-0.01,0.007c-0.043,0.036-0.075,0.08-0.115,0.118c-0.003,0.002-0.007,0.004-0.01,0.007
			c-0.043,0.036-0.075,0.08-0.115,0.118c-0.003,0.002-0.007,0.004-0.01,0.007c-0.043,0.036-0.075,0.08-0.115,0.118
			c-0.003,0.002-0.007,0.004-0.01,0.007c-0.043,0.036-0.075,0.08-0.115,0.118c-0.003,0.002-0.007,0.004-0.01,0.007
			c-0.043,0.036-0.075,0.08-0.115,0.118c-0.003,0.002-0.007,0.004-0.01,0.007c-0.043,0.036-0.075,0.08-0.115,0.118
			c-0.003,0.002-0.007,0.004-0.01,0.007c-0.043,0.036-0.075,0.08-0.115,0.118c-0.003,0.002-0.007,0.004-0.01,0.007
			c-0.043,0.036-0.075,0.08-0.115,0.118c-0.003,0.002-0.007,0.004-0.01,0.007c-0.043,0.036-0.075,0.08-0.115,0.118
			c-0.003,0.002-0.007,0.004-0.01,0.007c-0.043,0.036-0.075,0.08-0.115,0.118c-0.003,0.002-0.007,0.004-0.01,0.007
			c-0.043,0.036-0.075,0.08-0.115,0.118c-0.003,0.002-0.007,0.004-0.01,0.007c-0.043,0.036-0.075,0.08-0.115,0.118
			c-0.003,0.002-0.007,0.004-0.01,0.007c-0.043,0.036-0.075,0.08-0.115,0.118c-0.003,0.002-0.007,0.004-0.01,0.007
			c-0.043,0.036-0.075,0.08-0.115,0.118c-0.003,0.002-0.007,0.004-0.01,0.007c-0.043,0.036-0.075,0.08-0.115,0.118
			c-0.003,0.002-0.007,0.004-0.01,0.007c-0.043,0.036-0.075,0.08-0.115,0.118c-0.003,0.002-0.007,0.004-0.01,0.007
			c-0.043,0.036-0.075,0.08-0.115,0.118c-0.003,0.002-0.007,0.004-0.01,0.007c-0.043,0.036-0.075,0.08-0.115,0.118
			c-0.003,0.002-0.007,0.004-0.01,0.007c-0.043,0.036-0.075,0.08-0.115,0.118c-0.003,0.002-0.007,0.004-0.01,0.007
			c-0.043,0.036-0.075,0.08-0.115,0.118c-0.003,0.002-0.007,0.004-0.01,0.007c-0.043,0.036-0.075,0.08-0.115,0.118
			c-0.003,0.002-0.007,0.004-0.01,0.007c-0.043,0.036-0.075,0.08-0.115,0.118c-0.003,0.002-0.007,0.004-0.01,0.007
			c-0.043,0.036-0.075,0.08-0.115,0.118c-0.003,0.002-0.007,0.004-0.01,0.007c-0.043,0.036-0.075,0.08-0.115,0.118
			c-0.003,0.002-0.007,0.004-0.01,0.007c-0.043,0.036-0.075,0.08-0.115,0.118c-0.003,0.002-0.007,0.004-0.01,0.007
			c-0.043,0.036-0.075,0.08-0.115,0.118c-0.003,0.002-0.007,0.004-0.01,0.007c-0.043,0.036-0.075,0.08-0.115,0.118
			c-0.003,0.002-0.007,0.004-0.01,0.007c-0.043,0.036-0.075,0.08-0.115,0.118c-0.003,0.002-0.007,0.004-0.01,0.007
			c-0.043,0.036-0.075,0.08-0.115,0.118c-0.003,0.002-0.007,0.004-0.01,0.007c-0.043,0.036-0.075,0.08-0.115,0.118
			c-0.003,0.002-0.007,0.004-0.01,0.007c-0.043,0.036-0.075,0.08-0.115,0.118c-0.003,0.002-0.007,0.004-0.01,0.007
			c-0.043,0.036-0.075,0.08-0.115,0.118c-0.003,0.002-0.007,0.004-0.01,0.007c-0.043,0.036-0.075,0.08-0.115,0.118
			c-0.003,0.002-0.007,0.004-0.01,0.007c-0.043,0.036-0.075,0.08-0.115,0.118c-0.003,0.002-0.007,0.004-0.01,0.007
			c-0.043,0.036-0.075,0.08-0.115,0.118c-0.003,0.002-0.007,0.004-0.01,0.007c-0.043,0.036-0.075,0.08-0.115,0.118
			c-0.003,0.002-0.007,0.004-0.01,0.007c-0.043,0.036-0.075,0.08-0.115,0.118c-0.003,0.002-0.007,0.004-0.01,0.007
			c-0.043,0.036-0.075,0.08-0.115,0.118c-0.003,0.002-0.007,0.004-0.01,0.007c-0.043,0.036-0.075,0.08-0.115,0.118
			c-0.003,0.002-0.007,0.004-0.01,0.007c-0.043,0.036-0.075,0.08-0.115,0.118c-0.003,0.002-0.007,0.004-0.01,0.007
			c-0.043,0.036-0.075,0.08-0.115,0.118c-0.003,0.002-0.007,0.004-0.01,0.007c-0.043,0.036-0.075,0.08-0.115,0.118
			c-0.003,0.002-0.007,0.004-0.01,0.007c-0.043,0.036-0.075,0.08-0.115,0.118c-0.003,0.002-0.007,0.004-0.01,0.007
			c-0.043,0.036-0.075,0.08-0.115,0.118c-0.003,0.002-0.007,0.004-0.01,0.007c-0.043,0.036-0.075,0.08-0.115,0.118
			c-0.003,0.002-0.007,0.004-0.01,0.007c-0.043,0.036-0.075,0.08-0.115,0.118c-0.003,0.002-0.007,0.004-0.01,0.007
			c-0.042,0.036-0.074,0.079-0.113,0.117c-0.004,0.003-0.008,0.005-0.012,0.008c-0.043,0.036-0.075,0.08-0.115,0.118
			c-0.003,0.003-0.007,0.004-0.01,0.007c-0.043,0.036-0.075,0.08-0.115,0.118c-0.003,0.003-0.007,0.004-0.01,0.007
			c-0.043,0.036-0.075,0.08-0.115,0.118c-0.003,0.003-0.007,0.004-0.01,0.007c-0.043,0.036-0.075,0.08-0.115,0.118
			c-0.003,0.003-0.007,0.004-0.01,0.007c-0.043,0.036-0.075,0.08-0.115,0.118c-0.003,0.003-0.007,0.004-0.01,0.007
			c-0.043,0.036-0.075,0.08-0.115,0.118c-0.003,0.003-0.007,0.004-0.01,0.007c-0.043,0.036-0.075,0.08-0.115,0.118
			c-0.003,0.003-0.007,0.004-0.01,0.007c-0.043,0.036-0.075,0.08-0.115,0.118c-0.003,0.003-0.007,0.004-0.01,0.007
			c-0.043,0.036-0.075,0.08-0.115,0.118c-0.003,0.003-0.007,0.004-0.01,0.007c-0.043,0.036-0.075,0.08-0.115,0.118
			c-0.003,0.003-0.007,0.004-0.01,0.007c-0.043,0.036-0.075,0.08-0.115,0.118c-0.003,0.003-0.007,0.004-0.01,0.007
			c-0.043,0.036-0.075,0.08-0.115,0.118c-0.003,0.003-0.007,0.004-0.01,0.007c-0.043,0.036-0.075,0.08-0.115,0.118
			c-0.003,0.003-0.007,0.004-0.01,0.007c-0.043,0.036-0.075,0.08-0.115,0.118c-0.003,0.003-0.007,0.004-0.01,0.007
			c-0.043,0.036-0.075,0.08-0.115,0.118c-0.003,0.003-0.007,0.004-0.01,0.007c-0.043,0.036-0.075,0.08-0.115,0.118
			c-0.003,0.003-0.007,0.004-0.01,0.007c-0.043,0.036-0.075,0.08-0.115,0.118c-0.003,0.003-0.007,0.004-0.01,0.007
			c-0.043,0.036-0.075,0.08-0.115,0.118c-0.003,0.003-0.007,0.004-0.01,0.007c-0.043,0.036-0.075,0.08-0.115,0.118
			c-0.003,0.003-0.007,0.004-0.01,0.007c-0.043,0.036-0.075,0.08-0.115,0.118c-0.003,0.003-0.007,0.004-0.01,0.007
			c-0.043,0.036-0.075,0.08-0.115,0.118c-0.003,0.003-0.007,0.004-0.01,0.007c-0.043,0.036-0.075,0.08-0.115,0.118
			c-0.003,0.003-0.007,0.004-0.01,0.007c-0.043,0.036-0.075,0.08-0.115,0.118c-0.003,0.003-0.007,0.004-0.01,0.007
			c-0.043,0.036-0.075,0.08-0.115,0.118c-0.003,0.003-0.007,0.004-0.01,0.007c-0.043,0.036-0.075,0.08-0.115,0.118
			c-0.003,0.003-0.007,0.004-0.01,0.007c-0.043,0.036-0.075,0.08-0.115,0.118c-0.003,0.003-0.007,0.004-0.01,0.007
			c-0.043,0.036-0.075,0.08-0.115,0.118c-0.003,0.003-0.007,0.004-0.01,0.007c-0.043,0.036-0.075,0.08-0.115,0.118
			c-0.003,0.003-0.007,0.004-0.01,0.007c-0.043,0.036-0.075,0.08-0.115,0.118c-0.003,0.003-0.007,0.004-0.01,0.007
			c-0.043,0.036-0.075,0.08-0.115,0.118c-0.003,0.003-0.007,0.004-0.01,0.007c-0.043,0.036-0.075,0.08-0.115,0.118
			c-0.003,0.003-0.007,0.004-0.01,0.007c-0.043,0.036-0.075,0.08-0.115,0.118c-0.003,0.003-0.007,0.004-0.01,0.007
			c-0.043,0.036-0.075,0.08-0.115,0.118c-0.003,0.003-0.007,0.004-0.01,0.007c-0.043,0.036-0.075,0.08-0.115,0.118
			c-0.003,0.003-0.007,0.004-0.01,0.007c-0.043,0.036-0.075,0.08-0.115,0.118c-0.003,0.003-0.007,0.004-0.01,0.007
			c-0.043,0.036-0.075,0.08-0.115,0.118c-0.003,0.003-0.007,0.004-0.01,0.007c-0.043,0.036-0.075,0.08-0.115,0.118
			c-0.003,0.003-0.007,0.004-0.01,0.007c-0.043,0.036-0.075,0.08-0.115,0.118c-0.003,0.003-0.007,0.004-0.01,0.007
			c-0.043,0.036-0.075,0.08-0.115,0.118c-0.003,0.003-0.007,0.004-0.01,0.007c-0.043,0.036-0.075,0.08-0.115,0.118
			c-0.003,0.003-0.007,0.004-0.01,0.007c-0.043,0.036-0.075,0.08-0.115,0.118c-0.003,0.003-0.007,0.004-0.01,0.007
			c-0.043,0.036-0.075,0.08-0.115,0.118c-0.003,0.003-0.007,0.004-0.01,0.007c-0.043,0.036-0.075,0.08-0.115,0.118
			c-0.003,0.003-0.007,0.004-0.01,0.007c-0.043,0.036-0.075,0.08-0.115,0.118c-0.003,0.003-0.007,0.004-0.01,0.007
			c-0.043,0.036-0.075,0.08-0.115,0.118c-0.003,0.003-0.007,0.004-0.01,0.007c-0.043,0.036-0.075,0.08-0.115,0.118
			c-0.003,0.003-0.007,0.004-0.01,0.007c-0.043,0.036-0.075,0.08-0.115,0.118c-0.003,0.003-0.007,0.004-0.01,0.007
			c-0.043,0.036-0.075,0.08-0.115,0.118c-0.003,0.003-0.007,0.004-0.01,0.007c-0.043,0.036-0.075,0.08-0.115,0.118
			c-0.003,0.003-0.007,0.004-0.01,0.007c-0.043,0.036-0.075,0.08-0.115,0.118c-0.003,0.003-0.007,0.004-0.01,0.007
			c-0.043,0.036-0.075,0.08-0.115,0.118c-0.003,0.003-0.007,0.004-0.01,0.007c-0.043,0.036-0.075,0.08-0.115,0.118
			c-0.003,0.003-0.007,0.004-0.01,0.007c-0.043,0.036-0.075,0.08-0.115,0.118c-0.003,0.003-0.007,0.004-0.01,0.007
			c-0.043,0.036-0.075,0.08-0.115,0.118c-0.003,0.003-0.007,0.004-0.01,0.007c-0.043,0.036-0.075,0.08-0.115,0.118
			c-0.003,0.003-0.007,0.004-0.01,0.007c-0.043,0.036-0.075,0.08-0.115,0.118c-0.003,0.003-0.007,0.004-0.01,0.007
			c-0.043,0.036-0.075,0.08-0.115,0.118c-0.003,0.003-0.007,0.004-0.01,0.007c-0.043,0.036-0.075,0.08-0.115,0.118
			c-0.003,0.003-0.007,0.004-0.01,0.007c-0.043,0.036-0.075,0.08-0.115,0.118c-0.003,0.003-0.007,0.004-0.01,0.007
			c-0.043,0.036-0.075,0.08-0.115,0.118c-0.003,0.003-0.007,0.004-0.01,0.007c-0.043,0.036-0.075,0.08-0.115,0.118
			c-0.003,0.003-0.007,0.004-0.01,0.007c-0.043,0.036-0.075,0.08-0.115,0.118c-0.003,0.003-0.007,0.004-0.01,0.007
			c-1.058,0.889-1.196,2.471-0.308,3.527l5.117,6.1c-0.003,0.002-0.005,0.006-0.008,0.01c-0.042,0.041-0.083,0.082-0.125,0.125
			c-0.042,0.041-0.083,0.082-0.125,0.125c-0.042,0.041-0.083,0.082-0.125,0.125c-0.042,0.041-0.083,0.082-0.125,0.125
			c-0.042,0.041-0.083,0.082-0.125,0.125c-0.042,0.041-0.083,0.082-0.125,0.125c-0.042,0.041-0.083,0.082-0.125,0.125
			c-0.042,0.041-0.083,0.082-0.125,0.125c-0.042,0.041-0.083,0.082-0.125,0.125c-0.042,0.041-0.083,0.082-0.125,0.125
			c-0.042,0.041-0.083,0.082-0.125,0.125c-0.042,0.041-0.083,0.082-0.125,0.125c-0.042,0.041-0.083,0.082-0.125,0.125
			c-0.042,0.041-0.083,0.082-0.125,0.125c-0.042,0.041-0.083,0.082-0.125,0.125c-0.042,0.041-0.083,0.082-0.125,0.125
			c-0.042,0.041-0.083,0.082-0.125,0.125c-0.042,0.041-0.083,0.082-0.125,0.125c-0.042,0.041-0.083,0.082-0.125,0.125
			c-0.042,0.041-0.083,0.082-0.125,0.125c-0.042,0.041-0.083,0.082-0.125,0.125c-0.042,0.041-0.083,0.082-0.125,0.125
			c-0.042,0.041-0.083,0.082-0.125,0.125c-0.042,0.041-0.083,0.082-0.125,0.125c-0.042,0.041-0.083,0.082-0.125,0.125
			c-0.042,0.041-0.083,0.082-0.125,0.125c-0.042,0.041-0.083,0.082-0.125,0.125c-0.042,0.041-0.083,0.082-0.125,0.125
			c-0.042,0.041-0.083,0.082-0.125,0.125c-0.042,0.041-0.083,0.082-0.125,0.125c-0.042,0.041-0.083,0.082-0.125,0.125
			c-0.042,0.041-0.083,0.082-0.125,0.125c-0.042,0.041-0.083,0.082-0.125,0.125c-0.042,0.041-0.083,0.082-0.125,0.125
			c-0.042,0.041-0.083,0.082-0.125,0.125c-0.042,0.041-0.083,0.082-0.125,0.125c-0.042,0.041-0.083,0.082-0.125,0.125
			c-0.057,0.057-0.112,0.113-0.168,0.172c-0.026,0.027-0.056,0.051-0.082,0.078c-0.042,0.041-0.083,0.082-0.125,0.125
			c-0.042,0.041-0.083,0.082-0.125,0.125c-0.042,0.041-0.083,0.082-0.125,0.125c-0.042,0.041-0.083,0.082-0.125,0.125
			c-0.042,0.041-0.083,0.082-0.125,0.125c-0.042,0.041-0.083,0.082-0.125,0.125c-0.042,0.041-0.083,0.082-0.125,0.125
			c-0.042,0.041-0.083,0.082-0.125,0.125c-0.042,0.041-0.083,0.082-0.125,0.125c-0.042,0.041-0.083,0.082-0.125,0.125
			c-0.042,0.041-0.083,0.082-0.125,0.125c-0.042,0.041-0.083,0.082-0.125,0.125c-0.042,0.041-0.083,0.082-0.125,0.125
			c-0.042,0.041-0.083,0.082-0.125,0.125c-0.042,0.041-0.083,0.082-0.125,0.125c-0.042,0.041-0.083,0.082-0.125,0.125
			c-0.042,0.041-0.083,0.082-0.125,0.125c-0.042,0.041-0.083,0.082-0.125,0.125c-0.042,0.041-0.083,0.082-0.125,0.125
			c-0.042,0.041-0.083,0.082-0.125,0.125c-0.042,0.041-0.083,0.082-0.125,0.125c-0.042,0.041-0.083,0.082-0.125,0.125
			c-0.042,0.041-0.083,0.082-0.125,0.125c-0.042,0.041-0.083,0.082-0.125,0.125c-0.042,0.041-0.083,0.082-0.125,0.125
			c-0.042,0.041-0.083,0.082-0.125,0.125c-0.042,0.041-0.083,0.082-0.125,0.125c-0.042,0.041-0.083,0.082-0.125,0.125
			c-0.042,0.041-0.083,0.082-0.125,0.125c-0.042,0.041-0.083,0.082-0.125,0.125c-0.042,0.041-0.083,0.082-0.125,0.125
			c-0.042,0.041-0.083,0.082-0.125,0.125c-0.042,0.041-0.083,0.082-0.125,0.125c-0.042,0.041-0.083,0.082-0.125,0.125
			c-0.042,0.041-0.083,0.082-0.125,0.125c-0.042,0.041-0.083,0.082-0.125,0.125c-0.042,0.041-0.083,0.082-0.125,0.125
			c-0.042,0.041-0.083,0.082-0.125,0.125c-0.042,0.041-0.083,0.082-0.125,0.125c-0.042,0.041-0.083,0.082-0.125,0.125
			c-0.042,0.041-0.083,0.082-0.125,0.125c-0.042,0.041-0.083,0.082-0.125,0.125c-0.042,0.041-0.083,0.082-0.125,0.125
			c-0.042,0.041-0.083,0.082-0.125,0.125c-0.042,0.041-0.083,0.082-0.125,0.125c-0.042,0.041-0.083,0.082-0.125,0.125
			c-0.042,0.041-0.083,0.082-0.125,0.125c-0.042,0.041-0.083,0.082-0.125,0.125c-0.042,0.041-0.083,0.082-0.125,0.125
			c-0.042,0.041-0.083,0.082-0.125,0.125c-0.042,0.041-0.083,0.082-0.125,0.125c-0.042,0.041-0.083,0.082-0.125,0.125
			c-0.042,0.041-0.083,0.082-0.125,0.125c-0.042,0.041-0.083,0.082-0.125,0.125c-0.042,0.041-0.083,0.082-0.125,0.125
			c-0.042,0.041-0.083,0.082-0.125,0.125c-0.042,0.041-0.083,0.082-0.125,0.125c-0.042,0.041-0.083,0.082-0.125,0.125
			c-0.042,0.041-0.083,0.082-0.125,0.125c-0.042,0.041-0.083,0.082-0.125,0.125c-0.042,0.041-0.083,0.082-0.125,0.125
			c-0.042,0.041-0.083,0.082-0.125,0.125c-0.042,0.041-0.083,0.082-0.125,0.125c-0.042,0.041-0.083,0.082-0.125,0.125
			c-0.042,0.041-0.083,0.082-0.125,0.125c-0.042,0.041-0.083,0.082-0.125,0.125c-0.042,0.041-0.083,0.082-0.125,0.125
			c-0.042,0.041-0.083,0.082-0.125,0.125c-0.042,0.041-0.083,0.082-0.125,0.125c-0.042,0.041-0.083,0.082-0.125,0.125
			c-0.042,0.041-0.083,0.082-0.125,0.125c-0.042,0.041-0.083,0.082-0.125,0.125c-0.042,0.041-0.083,0.082-0.125,0.125
			c-0.042,0.041-0.083,0.082-0.125,0.125c-0.042,0.041-0.083,0.082-0.125,0.125c-0.042,0.041-0.083,0.082-0.125,0.125
			c-0.042,0.041-0.083,0.082-0.125,0.125c-0.042,0.041-0.083,0.082-0.125,0.125c-0.042,0.041-0.083,0.082-0.125,0.125
			c-0.042,0.041-0.083,0.082-0.125,0.125c-0.042,0.041-0.083,0.082-0.125,0.125c-0.042,0.041-0.083,0.082-0.125,0.125
			c-0.042,0.041-0.083,0.082-0.125,0.125c-0.042,0.041-0.083,0.082-0.125,0.125c-0.042,0.041-0.083,0.082-0.125,0.125
			c-0.042,0.041-0.083,0.082-0.125,0.125c-0.042,0.041-0.083,0.082-0.125,0.125c-0.042,0.041-0.083,0.082-0.125,0.125
			c-0.042,0.041-0.208,0.082-0.25,0.125c-2.058,2.039-3.456,4.875-3.456,8.011v29c0,6.202,5.219,11.51,11.421,11.51h42
			c0.527,0,1.046-0.039,1.554-0.108L32.921,147h5.656c2.784,0,5.62-1.406,7.739-3.463c0.043-0.041,0.083-0.146,0.125-0.188
			c0.043-0.041,0.083-0.115,0.125-0.156c0.043-0.041,0.083-0.101,0.125-0.142c0.043-0.041,0.083-0.092,0.125-0.133
			c0.043-0.041,0.083-0.088,0.125-0.129c0.043-0.041,0.083-0.086,0.125-0.127c0.043-0.041,0.083-0.085,0.125-0.126
			c0.043-0.041,0.083-0.085,0.125-0.126c0.043-0.041,0.083-0.084,0.125-0.125c0.043-0.041,0.083-0.084,0.125-0.125
			c0.043-0.041,0.083-0.084,0.125-0.125c0.043-0.041,0.083-0.084,0.125-0.125c0.043-0.041,0.083-0.084,0.125-0.125
			c0.043-0.041,0.083-0.084,0.125-0.125c0.043-0.041,0.083-0.084,0.125-0.125c0.043-0.041,0.083-0.084,0.125-0.125
			c0.043-0.041,0.083-0.084,0.125-0.125c0.043-0.041,0.083-0.084,0.125-0.125c0.043-0.041,0.083-0.084,0.125-0.125
			c0.043-0.041,0.083-0.084,0.125-0.125c0.043-0.041,0.083-0.084,0.125-0.125c0.043-0.041,0.083-0.084,0.125-0.125
			c0.043-0.041,0.083-0.084,0.125-0.125c0.043-0.041,0.083-0.084,0.125-0.125c0.043-0.041,0.083-0.084,0.125-0.125
			c0.043-0.041,0.083-0.084,0.125-0.125c0.043-0.041,0.083-0.084,0.125-0.125c0.043-0.041,0.083-0.084,0.125-0.125
			c0.043-0.041,0.083-0.084,0.125-0.125c0.043-0.041,0.083-0.084,0.125-0.125c0.043-0.041,0.083-0.084,0.125-0.125
			c0.043-0.041,0.083-0.084,0.125-0.125c0.043-0.041,0.083-0.084,0.125-0.125c0.043-0.041,0.083-0.084,0.125-0.125
			c0.043-0.041,0.083-0.084,0.125-0.125c0.043-0.041,0.083-0.084,0.125-0.125c0.043-0.041,0.083-0.084,0.125-0.125
			c0.043-0.041,0.083-0.084,0.125-0.125c0.043-0.041,0.083-0.084,0.125-0.125c0.043-0.041,0.083-0.084,0.125-0.125
			c0.043-0.041,0.083-0.084,0.125-0.125c0.043-0.041,0.083-0.084,0.125-0.125c0.043-0.041,0.083-0.084,0.125-0.125
			c0.043-0.041,0.083-0.084,0.125-0.125c0.043-0.041,0.083-0.084,0.125-0.125c0.043-0.041,0.083-0.084,0.125-0.125
			c0.043-0.041,0.083-0.084,0.125-0.125c0.043-0.041,0.083-0.084,0.125-0.125c0.043-0.041,0.083-0.084,0.125-0.125
			c0.043-0.041,0.083-0.084,0.125-0.125c0.043-0.041,0.083-0.084,0.125-0.125c0.043-0.041,0.083-0.084,0.125-0.125
			c0.043-0.041,0.083-0.084,0.125-0.125c0.043-0.041,0.083-0.084,0.125-0.125c0.043-0.041,0.083-0.084,0.125-0.125
			c0.043-0.041,0.083-0.084,0.125-0.125c0.043-0.041,0.083-0.084,0.125-0.125c0.043-0.041,0.083-0.084,0.125-0.125
			c0.043-0.041,0.083-0.084,0.125-0.125c0.043-0.041,0.083-0.084,0.125-0.125c0.043-0.041,0.083-0.084,0.125-0.125
			c0.043-0.041,0.083-0.084,0.125-0.125c0.043-0.041,0.083-0.084,0.125-0.125c0.043-0.041,0.083-0.084,0.125-0.125
			c0.043-0.041,0.083-0.084,0.125-0.125c0.043-0.041,0.083-0.084,0.125-0.125c0.043-0.041,0.083-0.084,0.125-0.125
			c0.043-0.041,0.083-0.084,0.125-0.125c0.043-0.041,0.083-0.084,0.125-0.125c0.043-0.041,0.083-0.084,0.125-0.125
			c0.043-0.041,0.083-0.084,0.125-0.125c0.043-0.041,0.083-0.084,0.125-0.125c0.043-0.041,0.083-0.084,0.125-0.125
			c0.043-0.041,0.083-0.084,0.125-0.125c0.043-0.041,0.083-0.084,0.125-0.125c0.043-0.041,0.083-0.084,0.125-0.125
			c0.043-0.041,0.083-0.084,0.125-0.125c0.043-0.041,0.083-0.084,0.125-0.125c0.043-0.041,0.083-0.084,0.125-0.125
			c0.043-0.041,0.083-0.084,0.125-0.125c0.043-0.041,0.083-0.084,0.125-0.125c0.043-0.041,0.083-0.084,0.125-0.125
			c0.043-0.041,0.083-0.084,0.125-0.125c0.043-0.041,0.083-0.084,0.125-0.125c0.043-0.041,0.083-0.084,0.125-0.125
			c0.043-0.041,0.083-0.084,0.125-0.125c0.043-0.041,0.083-0.084,0.125-0.125c0.043-0.041,0.083-0.084,0.125-0.125
			c0.043-0.041,0.083-0.084,0.125-0.125c0.036-0.034,0.067-0.072,0.103-0.104c0.05-0.049,0.098-0.098,0.147-0.146
			c0.043-0.041,0.083-0.084,0.125-0.125c0.043-0.041,0.083-0.084,0.125-0.125c0.043-0.041,0.083-0.084,0.125-0.125
			c0.043-0.041,0.083-0.084,0.125-0.125c0.043-0.041,0.083-0.084,0.125-0.125c0.043-0.041,0.083-0.084,0.125-0.125
			c0.043-0.041,0.083-0.084,0.125-0.125c0.043-0.041,0.083-0.084,0.125-0.125c0.043-0.041,0.083-0.084,0.125-0.125
			c0.043-0.041,0.083-0.084,0.125-0.125c0.043-0.041,0.083-0.084,0.125-0.125c0.043-0.041,0.083-0.084,0.125-0.125
			c0.043-0.041,0.083-0.084,0.125-0.125c0.043-0.041,0.083-0.084,0.125-0.125c0.043-0.041,0.083-0.084,0.125-0.125
			c0.043-0.041,0.083-0.084,0.125-0.125c0.043-0.041,0.083-0.084,0.125-0.125c0.043-0.041,0.083-0.084,0.125-0.125
			c0.043-0.041,0.083-0.084,0.125-0.125c0.043-0.041,0.083-0.084,0.125-0.125c0.043-0.041,0.083-0.084,0.125-0.125
			c0.043-0.041,0.083-0.084,0.125-0.125c0.043-0.041,0.083-0.084,0.125-0.125c0.043-0.041,0.083-0.084,0.125-0.125
			c0.043-0.041,0.083-0.084,0.125-0.125c0.043-0.041,0.083-0.084,0.125-0.125c0.043-0.041,0.083-0.084,0.125-0.125
			c0.043-0.041,0.083-0.084,0.125-0.125c0.043-0.041,0.083-0.084,0.125-0.125c0.043-0.041,0.083-0.084,0.125-0.125
			c0.043-0.041,0.083-0.084,0.125-0.125c0.043-0.041,0.083-0.084,0.125-0.125c0.043-0.041,0.083-0.084,0.125-0.125
			c0.043-0.041,0.083-0.084,0.125-0.125c0.043-0.041,0.083-0.084,0.125-0.125c0.043-0.041,0.083-0.084,0.125-0.125
			c0.043-0.041,0.083-0.084,0.125-0.125c0.043-0.041,0.083-0.084,0.125-0.125c0.043-0.041,0.083-0.084,0.125-0.125
			c0.043-0.041,0.083-0.084,0.125-0.125c0.043-0.041,0.083-0.084,0.125-0.125c0.043-0.041,0.083-0.084,0.125-0.125
			c0.043-0.041,0.083-0.084,0.125-0.125c0.043-0.041,0.083-0.084,0.125-0.125c0.043-0.041,0.083-0.084,0.125-0.125
			c0.043-0.041,0.083-0.084,0.125-0.125c0.043-0.041,0.083-0.084,0.125-0.125c0.043-0.041,0.083-0.084,0.125-0.125
			c0.043-0.041,0.083-0.084,0.125-0.125c0.043-0.041,0.083-0.084,0.125-0.125c0.043-0.041,0.083-0.084,0.125-0.125
			c0.043-0.041,0.083-0.084,0.125-0.125c0.043-0.041,0.083-0.084,0.125-0.125c0.043-0.041,0.083-0.084,0.125-0.125
			c0.043-0.041,0.083-0.084,0.125-0.125s0.082-0.084,0.125-0.125s0.082-0.084,0.125-0.125s0.082-0.084,0.125-0.125
			s0.082-0.084,0.125-0.125s0.082-0.084,0.125-0.125s0.082-0.084,0.125-0.125s0.082-0.084,0.125-0.125s0.082-0.084,0.125-0.125
			s0.082-0.084,0.125-0.125s0.082-0.084,0.125-0.125s0.082-0.084,0.125-0.125s0.082-0.084,0.125-0.125s0.082-0.084,0.125-0.125
			s0.082-0.084,0.125-0.125s0.082-0.084,0.125-0.125s0.082-0.084,0.125-0.125s0.082-0.084,0.125-0.125s0.082-0.084,0.125-0.125
			s0.082-0.084,0.125-0.125s0.082-0.084,0.125-0.125s0.082-0.084,0.125-0.125s0.082-0.084,0.125-0.125s0.082-0.084,0.125-0.125
			s0.082-0.084,0.125-0.125s0.082-0.084,0.125-0.125s0.082-0.084,0.125-0.125s0.082-0.084,0.125-0.125s0.082-0.084,0.125-0.125
			s0.082-0.084,0.125-0.125s0.082-0.084,0.125-0.125s0.082-0.084,0.125-0.125s0.082-0.084,0.125-0.125s0.082-0.084,0.125-0.125
			s0.082-0.084,0.125-0.125s0.082-0.084,0.125-0.125s0.082-0.084,0.125-0.125s0.082-0.084,0.125-0.125s0.082-0.084,0.125-0.125
			s0.082-0.084,0.125-0.125s0.082-0.084,0.125-0.125s0.082-0.084,0.125-0.125s0.082-0.084,0.125-0.125s0.082-0.084,0.125-0.125
			s0.082-0.084,0.125-0.125s0.082-0.084,0.125-0.125s0.082-0.084,0.125-0.125s0.082-0.084,0.125-0.125s0.082-0.084,0.125-0.125
			s0.082-0.084,0.125-0.125s0.082-0.084,0.125-0.125s0.082-0.084,0.125-0.125s0.082-0.084,0.125-0.125s0.082-0.084,0.125-0.125
			s0.082-0.084,0.125-0.125s0.082-0.084,0.125-0.125s0.082-0.084,0.125-0.125s0.082-0.084,0.125-0.125s0.082-0.084,0.125-0.125
			s0.082-0.084,0.125-0.125s0.082-0.084,0.125-0.125s0.082-0.084,0.125-0.125s0.082-0.084,0.125-0.125s0.082-0.084,0.125-0.125
			s0.082-0.084,0.125-0.125s0.082-0.084,0.125-0.125s0.082-0.084,0.125-0.125s0.082-0.084,0.125-0.125s0.082-0.084,0.125-0.125
			s0.082-0.084,0.125-0.125s0.082-0.084,0.125-0.125s0.082-0.084,0.125-0.125s0.082-0.084,0.125-0.125s0.082-0.084,0.125-0.125
			s0.082-0.084,0.125-0.125s0.082-0.084,0.125-0.125s0.082-0.084,0.125-0.125s0.082-0.084,0.125-0.125s0.082-0.084,0.125-0.125
			s0.082-0.084,0.125-0.125s0.082-0.084,0.125-0.125s0.082-0.084,0.125-0.125s0.082-0.084,0.125-0.125s0.082-0.084,0.125-0.125
			s0.082-0.084,0.125-0.125s0.082-0.084,0.125-0.125s0.082-0.084,0.125-0.125s0.082-0.084,0.125-0.125s0.082-0.084,0.125-0.125
			s0.082-0.084,0.125-0.125s0.082-0.084,0.125-0.125s0.082-0.084,0.125-0.125s0.082-0.084,0.125-0.125s0.082-0.084,0.125-0.125
			s0.082-0.084,0.125-0.125s0.082-0.084,0.125-0.125s0.082-0.084,0.125-0.125s0.082-0.084,0.125-0.125s0.082-0.084,0.125-0.125
			s0.082-0.084,0.125-0.125s0.082-0.084,0.125-0.125s0.082-0.084,0.125-0.125s0.082-0.084,0.125-0.125s0.082-0.084,0.125-0.125
			s0.082-0.084,0.125-0.125s0.082-0.084,0.125-0.125s0.082-0.084,0.125-0.125s0.082-0.084,0.125-0.125s0.082-0.084,0.125-0.125
			s0.082-0.084,0.125-0.125s0.082-0.084,0.125-0.125s0.082-0.084,0.125-0.125s0.082-0.084,0.125-0.125s0.082-0.084,0.125-0.125
			s0.082-0.084,0.125-0.125s0.082-0.084,0.125-0.125s0.082-0.084,0.125-0.125s0.082-0.084,0.125-0.125s0.082-0.084,0.125-0.125
			s0.082-0.084,0.125-0.125s0.082-0.084,0.125-0.125s0.082-0.084,0.125-0.125s0.082-0.084,0.125-0.125s0.082-0.084,0.125-0.125
			s0.082-0.084,0.125-0.125s0.082-0.084,0.125-0.125s0.082-0.084,0.125-0.125s0.082-0.084,0.125-0.125s0.082-0.084,0.125-0.125
			s0.082-0.084,0.125-0.125s0.082-0.084,0.125-0.125s0.082-0.084,0.125-0.125s0.082-0.084,0.125-0.125s0.082-0.084,0.125-0.125
			s0.082-0.084,0.125-0.125s0.082-0.084,0.125-0.125s0.082-0.084,0.125-0.125s0.082-0.084,0.125-0.125s0.082-0.084,0.125-0.125
			s0.082-0.084,0.125-0.125s0.082-0.084,0.125-0.125s0.082-0.084,0.125-0.125s0.082-0.084,0.125-0.125s0.082-0.084,0.125-0.125
			s0.082-0.084,0.125-0.125s0.082-0.084,0.125-0.125s0.082-0.084,0.125-0.125s0.082-0.084,0.125-0.125s0.082-0.084,0.125-0.125
			s0.082-0.084,0.125-0.125s0.082-0.084,0.125-0.125s0.082-0.084,0.125-0.125s0.082-0.084,0.125-0.125s0.082-0.084,0.125-0.125
			s0.082-0.084,0.125-0.125s0.082-0.084,0.125-0.125s0.082-0.084,0.125-0.125s0.082-0.084,0.125-0.125s0.082-0.084,0.125-0.125
			s0.082-0.084,0.125-0.125s0.082-0.084,0.125-0.125s0.082-0.084,0.125-0.125s0.082-0.084,0.125-0.125s0.082-0.084,0.125-0.125
			s0.082-0.084,0.125-0.125s0.082-0.084,0.125-0.125s0.082-0.084,0.125-0.125s0.082-0.084,0.125-0.125s0.082-0.084,0.125-0.125
			s0.082-0.084,0.125-0.125s0.082-0.084,0.125-0.125s0.082-0.084,0.125-0.125s0.082-0.084,0.125-0.125s0.082-0.084,0.125-0.125
			s0.082-0.084,0.125-0.125s0.082-0.084,0.125-0.125s0.082-0.084,0.125-0.125s0.082-0.084,0.125-0.125s0.082-0.084,0.125-0.125
			s0.082-0.084,0.125-0.125s0.082-0.084,0.125-0.125s0.082-0.084,0.125-0.125s0.082-0.084,0.125-0.125s0.082-0.084,0.125-0.125
			s0.082-0.084,0.125-0.125s0.082-0.084,0.125-0.125s0.082-0.084,0.125-0.125s0.082-0.084,0.125-0.125s0.082-0.084,0.125-0.125
			s0.082-0.084,0.125-0.125s0.082-0.084,0.125-0.125s0.082-0.084,0.125-0.125s0.082-0.084,0.125-0.125s0.082-0.084,0.125-0.125
			s0.082-0.084,0.125-0.125s0.082-0.084,0.125-0.125s0.082-0.084,0.125-0.125s0.082-0.084,0.125-0.125s0.082-0.084,0.125-0.125
			s0.082-0.084,0.125-0.125s0.082-0.084,0.125-0.125s0.082-0.084,0.125-0.125s0.082-0.084,0.125-0.125s0.082-0.084,0.125-0.125
			s0.082-0.084,0.125-0.125s0.082-0.084,0.125-0.125s0.082-0.084,0.125-0.125s0.082-0.084,0.125-0.125s0.082-0.084,0.125-0.125
			s0.082-0.084,0.125-0.125s0.082-0.084,0.125-0.125s0.082-0.084,0.125-0.125s0.082-0.084,0.125-0.125s0.082-0.084,0.125-0.125
			s0.082-0.084,0.125-0.125s0.082-0.084,0.125-0.125s0.082-0.084,0.125-0.125s0.082-0.084,0.125-0.125s0.082-0.084,0.125-0.125
			s0.082-0.084,0.125-0.125s0.082-0.084,0.125-0.125s0.082-0.084,0.125-0.125s0.082-0.084,0.125-0.125s0.082-0.084,0.125-0.125
			s0.082-0.084,0.125-0.125s0.082-0.084,0.125-0.125s0.082-0.084,0.125-0.125s0.082-0.084,0.125-0.125s0.082-0.084,0.125-0.125
			s0.082-0.084,0.125-0.125s0.082-0.084,0.125-0.125s0.082-0.084,0.125-0.125s0.082-0.084,0.125-0.125s0.082-0.084,0.125-0.125
			s0.082-0.084,0.125-0.125s0.082-0.084,0.125-0.125s0.082-0.084,0.125-0.125s0.082-0.084,0.125-0.125s0.082-0.084,0.125-0.125
			s0.082-0.084,0.125-0.125s0.082-0.084,0.125-0.125s0.082-0.084,0.125-0.125s0.082-0.084,0.125-0.125s0.082-0.084,0.125-0.125
			s0.082-0.084,0.125-0.125s0.082-0.084,0.125-0.125s0.082-0.084,0.125-0.125s0.082-0.084,0.125-0.125s0.082-0.084,0.125-0.125
			s0.082-0.084,0.125-0.125s0.082-0.084,0.125-0.125s0.082-0.084,0.125-0.125s0.082-0.084,0.125-0.125s0.207-0.084,0.25-0.125
			c2.121-2.002,3.684-4.772,3.684-7.838V55.782C100,49.678,94.088,45,88.607,45z"/>
	</g>
</g>
<path fill="#FFFFFF" d="M88.607,45H81.42h-1.167H69.032l15.837-18.754c0.889-1.058,0.75-2.575-0.309-3.462
	c-1.058-0.888-2.635-0.72-3.521,0.338L63.671,43.836L46.303,23.145c-0.888-1.058-2.465-1.191-3.522-0.304
	c-1.058,0.888-1.196,2.346-0.308,3.404L58.31,45H39.421C33.219,45,28,50.288,28,56.491v29C28,91.693,33.219,97,39.421,97h42
	c0.526,0,1.046-0.039,1.554-0.109L82.921,97h5.656C94.057,97,100,91.803,100,85.699V55.782C100,49.678,94.088,45,88.607,45z
	 M84,85.5c0,1.381-1.119,2.5-2.5,2.5h-42c-1.381,0-2.5-1.119-2.5-2.5v-29c0-1.381,1.119-2.5,2.5-2.5h42c1.381,0,2.5,1.119,2.5,2.5
	V85.5z M91.921,83.49c-1.036,0-1.875-0.84-1.875-1.875s0.839-1.875,1.875-1.875s1.875,0.84,1.875,1.875S92.957,83.49,91.921,83.49z
	 M91.921,77.74c-1.036,0-1.875-0.84-1.875-1.875s0.839-1.875,1.875-1.875s1.875,0.84,1.875,1.875S92.957,77.74,91.921,77.74z
	 M91.921,71.99c-1.036,0-1.875-0.84-1.875-1.875s0.839-1.875,1.875-1.875s1.875,0.84,1.875,1.875S92.957,71.99,91.921,71.99z
	 M91.921,66.24c-1.036,0-1.875-0.84-1.875-1.875c0-1.036,0.839-1.875,1.875-1.875s1.875,0.839,1.875,1.875
	C93.796,65.4,92.957,66.24,91.921,66.24z M91.921,60.491c-1.036,0-1.875-0.839-1.875-1.875c0-1.036,0.839-1.875,1.875-1.875
	s1.875,0.839,1.875,1.875C93.796,59.652,92.957,60.491,91.921,60.491z"/>
</svg>
