<?xml version="1.0" encoding="utf-8"?>
<!-- Generator: Adobe Illustrator 16.0.3, SVG Export Plug-In . SVG Version: 6.00 Build 0)  -->
<!DOCTYPE svg PUBLIC "-//W3C//DTD SVG 1.1//EN" "http://www.w3.org/Graphics/SVG/1.1/DTD/svg11.dtd">
<svg version="1.1" id="Layer_1" xmlns="http://www.w3.org/2000/svg" xmlns:xlink="http://www.w3.org/1999/xlink" x="0px" y="0px"
	 width="128px" height="128px" viewBox="0 0 128 128" enable-background="new 0 0 128 128" xml:space="preserve">
<path fill="#444953" d="M128,25c0-13.807-11.193-25-25-25H25C11.193,0,0,11.193,0,25v78c0,13.807,11.193,25,25,25h78
	c13.807,0,25-11.193,25-25V25z"/>
<g>
	<defs>
		<path id="SVGID_1_" d="M128,25c0-13.807-11.193-25-25-25H25C11.193,0,0,11.193,0,25v78c0,13.807,11.193,25,25,25h78
			c13.807,0,25-11.193,25-25V25z"/>
	</defs>
	<clipPath id="SVGID_2_">
		<use xlink:href="#SVGID_1_"  overflow="visible"/>
	</clipPath>
	<path clip-path="url(#SVGID_2_)" fill="#353A42" d="M115.746,31.25H12.271c-0.662,0-1.272,0.255-1.696,0.679
		c-0.045,0.038-0.083,0.083-0.125,0.125c-0.045,0.038-0.083,0.083-0.125,0.125c-0.045,0.038-0.083,0.083-0.125,0.125
		c-0.045,0.038-0.083,0.083-0.125,0.125c-0.045,0.038-0.083,0.083-0.125,0.125c-0.045,0.038-0.083,0.083-0.125,0.125
		C9.78,32.717,9.742,32.762,9.7,32.804c-0.045,0.038-0.082,0.083-0.124,0.124c-0.045,0.039-0.083,0.084-0.126,0.126
		c-0.045,0.038-0.083,0.083-0.125,0.125C9.28,33.217,9.242,33.262,9.2,33.304c-0.045,0.038-0.083,0.083-0.125,0.125
		c-0.045,0.038-0.083,0.083-0.125,0.125c-0.045,0.038-0.083,0.083-0.125,0.125C8.78,33.717,8.742,33.762,8.7,33.804
		c-0.045,0.038-0.082,0.083-0.124,0.124c-0.045,0.039-0.083,0.084-0.126,0.126c-0.045,0.038-0.083,0.083-0.125,0.125
		C8.28,34.217,8.242,34.262,8.2,34.304c-0.045,0.038-0.083,0.083-0.125,0.125c-0.045,0.038-0.083,0.083-0.125,0.125
		c-0.045,0.038-0.083,0.083-0.125,0.125C7.78,34.717,7.742,34.762,7.7,34.804c-0.045,0.038-0.082,0.083-0.124,0.124
		c-0.045,0.039-0.083,0.084-0.126,0.126c-0.045,0.038-0.083,0.083-0.125,0.125C7.28,35.217,7.242,35.262,7.2,35.304
		c-0.045,0.038-0.083,0.083-0.125,0.125c-0.045,0.038-0.083,0.083-0.125,0.125c-0.045,0.038-0.083,0.083-0.125,0.125
		C6.78,35.717,6.742,35.762,6.7,35.804c-0.045,0.038-0.082,0.083-0.124,0.124c-0.045,0.039-0.083,0.084-0.126,0.126
		c-0.045,0.038-0.083,0.083-0.125,0.125C6.28,36.217,6.242,36.262,6.2,36.304c-0.045,0.038-0.083,0.083-0.125,0.125
		c-0.045,0.038-0.083,0.083-0.125,0.125c-0.045,0.038-0.083,0.083-0.125,0.125C5.78,36.717,5.742,36.762,5.7,36.804
		c-0.045,0.038-0.082,0.083-0.124,0.124c-0.045,0.039-0.083,0.084-0.126,0.126c-0.045,0.038-0.083,0.083-0.125,0.125
		C5.28,37.217,5.242,37.262,5.2,37.304c-0.045,0.038-0.083,0.083-0.125,0.125c-0.045,0.038-0.083,0.083-0.125,0.125
		c-0.045,0.038-0.083,0.083-0.125,0.125C4.78,37.717,4.742,37.762,4.7,37.804c-0.045,0.038-0.082,0.083-0.124,0.124
		c-0.045,0.039-0.083,0.084-0.126,0.126c-0.045,0.038-0.083,0.083-0.125,0.125C4.28,38.217,4.242,38.262,4.2,38.304
		c-0.045,0.038-0.083,0.083-0.125,0.125c-0.045,0.038-0.083,0.083-0.125,0.125c-0.045,0.038-0.083,0.083-0.125,0.125
		C3.78,38.717,3.742,38.762,3.7,38.804c-0.045,0.038-0.082,0.083-0.124,0.124c-0.045,0.039-0.083,0.084-0.126,0.126
		c-0.045,0.038-0.083,0.083-0.125,0.125C3.28,39.217,3.242,39.262,3.2,39.304c-0.045,0.038-0.083,0.083-0.125,0.125
		c-0.045,0.038-0.083,0.083-0.125,0.125c-0.045,0.038-0.083,0.083-0.125,0.125C2.78,39.717,2.742,39.762,2.7,39.804
		c-0.045,0.038-0.082,0.083-0.124,0.124c-0.045,0.039-0.083,0.084-0.126,0.126c-0.045,0.038-0.083,0.083-0.125,0.125
		C2.28,40.217,2.242,40.262,2.2,40.304c-0.045,0.038-0.083,0.083-0.125,0.125c-0.045,0.038-0.083,0.083-0.125,0.125
		c-0.045,0.038-0.083,0.083-0.125,0.125C1.78,40.717,1.742,40.762,1.7,40.804c-0.045,0.038-0.082,0.083-0.124,0.124
		c-0.045,0.039-0.083,0.084-0.126,0.126c-0.045,0.038-0.083,0.083-0.125,0.125C1.28,41.217,1.242,41.262,1.2,41.304
		c-0.045,0.038-0.083,0.083-0.125,0.125c-0.045,0.038-0.083,0.083-0.125,0.125c-0.045,0.038-0.083,0.083-0.125,0.125
		C0.78,41.717,0.742,41.762,0.7,41.804c-0.045,0.038-0.082,0.083-0.124,0.124c-0.045,0.039-0.083,0.084-0.126,0.126
		c-0.045,0.038-0.083,0.083-0.125,0.125C0.28,42.217,0.242,42.262,0.2,42.304c-0.045,0.038-0.083,0.083-0.125,0.125
		c-0.045,0.038-0.083,0.083-0.125,0.125c-0.045,0.038-0.083,0.083-0.125,0.125c-0.045,0.039-0.083,0.083-0.125,0.125
		c-0.045,0.038-0.082,0.083-0.124,0.124c-0.045,0.039-0.083,0.084-0.126,0.126c-0.045,0.038-0.083,0.083-0.125,0.125
		c-0.045,0.038-0.083,0.083-0.125,0.125c-0.045,0.038-0.083,0.083-0.125,0.125c-0.045,0.038-0.083,0.083-0.125,0.125
		c-0.045,0.038-0.083,0.083-0.125,0.125c-0.045,0.038-0.083,0.083-0.125,0.125c-0.045,0.038-0.083,0.083-0.125,0.125
		c-0.045,0.038-0.083,0.083-0.125,0.125c-0.045,0.038-0.083,0.083-0.125,0.125c-0.045,0.038-0.083,0.083-0.125,0.125
		c-0.045,0.038-0.083,0.083-0.125,0.125c-0.045,0.038-0.083,0.083-0.125,0.125c-0.045,0.038-0.083,0.083-0.125,0.125
		c-0.045,0.038-0.083,0.083-0.125,0.125c-0.045,0.038-0.083,0.083-0.125,0.125c-0.045,0.038-0.083,0.083-0.125,0.125
		c-0.045,0.038-0.083,0.083-0.125,0.125c-0.045,0.038-0.083,0.083-0.125,0.125c-0.045,0.038-0.083,0.083-0.125,0.125
		c-0.045,0.038-0.083,0.083-0.125,0.125c-0.045,0.038-0.083,0.083-0.125,0.125c-0.045,0.038-0.083,0.083-0.125,0.125
		c-0.045,0.038-0.083,0.083-0.125,0.125c-0.045,0.038-0.083,0.083-0.125,0.125c-0.045,0.038-0.083,0.083-0.125,0.125
		c-0.045,0.038-0.083,0.083-0.125,0.125c-0.045,0.038-0.083,0.083-0.125,0.125c-0.045,0.038-0.083,0.083-0.125,0.125
		c-0.045,0.038-0.083,0.083-0.125,0.125c-0.045,0.038-0.083,0.083-0.125,0.125c-0.045,0.038-0.083,0.083-0.125,0.125
		c-0.045,0.038-0.083,0.083-0.125,0.125c-0.045,0.038-0.083,0.083-0.125,0.125c-0.045,0.038-0.083,0.083-0.125,0.125
		c-0.045,0.038-0.083,0.083-0.125,0.125c-0.045,0.038-0.083,0.083-0.125,0.125c-0.045,0.038-0.083,0.083-0.125,0.125
		c-0.045,0.038-0.083,0.083-0.125,0.125c-0.045,0.038-0.083,0.083-0.125,0.125c-0.045,0.038-0.083,0.083-0.125,0.125
		c-0.045,0.038-0.083,0.083-0.125,0.125c-0.045,0.038-0.083,0.083-0.125,0.125c-0.045,0.038-0.083,0.083-0.125,0.125
		c-0.045,0.038-0.083,0.083-0.125,0.125c-0.045,0.038-0.083,0.083-0.125,0.125c-0.045,0.038-0.083,0.083-0.125,0.125
		c-0.045,0.038-0.083,0.083-0.125,0.125c-0.045,0.038-0.083,0.083-0.125,0.125c-0.045,0.038-0.083,0.083-0.125,0.125
		c-0.045,0.038-0.083,0.083-0.125,0.125c-0.045,0.038-0.083,0.083-0.125,0.125c-0.045,0.038-0.083,0.083-0.125,0.125
		c-0.045,0.038-0.083,0.083-0.125,0.125c-0.045,0.038-0.083,0.083-0.125,0.125c-0.045,0.038-0.083,0.083-0.125,0.125
		c-0.045,0.038-0.083,0.083-0.125,0.125c-0.045,0.038-0.083,0.083-0.125,0.125c-0.045,0.038-0.083,0.083-0.125,0.125
		c-0.045,0.038-0.083,0.083-0.125,0.125c-0.045,0.038-0.083,0.083-0.125,0.125c-0.045,0.038-0.083,0.083-0.125,0.125
		c-0.045,0.038-0.083,0.083-0.125,0.125c-0.045,0.038-0.083,0.083-0.125,0.125c-0.045,0.038-0.083,0.083-0.125,0.125
		c-0.045,0.038-0.083,0.083-0.125,0.125c-0.045,0.038-0.083,0.083-0.125,0.125c-0.045,0.038-0.083,0.083-0.125,0.125
		c-0.045,0.038-0.083,0.083-0.125,0.125c-0.045,0.038-0.083,0.083-0.125,0.125c-0.045,0.038-0.083,0.083-0.125,0.125
		c-0.045,0.038-0.083,0.083-0.125,0.125c-0.045,0.038-0.083,0.083-0.125,0.125c-0.045,0.038-0.083,0.083-0.125,0.125
		c-0.045,0.038-0.083,0.083-0.125,0.125c-0.045,0.038-0.083,0.083-0.125,0.125c-0.045,0.038-0.083,0.083-0.125,0.125
		c-0.045,0.038-0.083,0.083-0.125,0.125c-0.045,0.038-0.083,0.083-0.125,0.125c-0.045,0.038-0.083,0.083-0.125,0.125
		c-0.045,0.038-0.083,0.083-0.125,0.125c-0.045,0.038-0.083,0.083-0.125,0.125c-0.045,0.038-0.083,0.083-0.125,0.125
		c-0.045,0.038-0.083,0.083-0.125,0.125c-0.045,0.038-0.083,0.083-0.125,0.125c-0.045,0.038-0.083,0.083-0.125,0.125
		c-0.045,0.038-0.083,0.083-0.125,0.125c-0.045,0.038-0.083,0.083-0.125,0.125c-0.045,0.038-0.083,0.083-0.125,0.125
		c-0.045,0.038-0.083,0.083-0.125,0.125c-0.045,0.038-0.083,0.083-0.125,0.125c-0.045,0.038-0.083,0.083-0.125,0.125
		c-0.045,0.038-0.083,0.083-0.125,0.125c-0.045,0.038-0.083,0.083-0.125,0.125c-0.045,0.038-0.083,0.083-0.125,0.125
		c-0.045,0.038-0.083,0.083-0.125,0.125c-0.045,0.038-0.083,0.083-0.125,0.125c-0.045,0.038-0.083,0.083-0.125,0.125
		c-0.045,0.038-0.083,0.083-0.125,0.125c-0.045,0.038-0.083,0.083-0.125,0.125c-0.045,0.038-0.083,0.083-0.125,0.125
		c-0.045,0.038-0.083,0.083-0.125,0.125c-0.045,0.038-0.083,0.083-0.125,0.125c-0.045,0.038-0.083,0.083-0.125,0.125
		c-0.045,0.038-0.083,0.083-0.125,0.125c-0.045,0.038-0.083,0.083-0.125,0.125c-0.045,0.038-0.083,0.083-0.125,0.125
		c-0.045,0.038-0.083,0.083-0.125,0.125c-0.045,0.038-0.083,0.083-0.125,0.125c-0.045,0.038-0.083,0.083-0.125,0.125
		c-0.045,0.038-0.083,0.083-0.125,0.125c-0.045,0.038-0.083,0.083-0.125,0.125c-0.045,0.038-0.083,0.083-0.125,0.125
		c-0.045,0.038-0.083,0.083-0.125,0.125c-0.045,0.038-0.083,0.083-0.125,0.125c-0.045,0.038-0.083,0.083-0.125,0.125
		c-0.045,0.038-0.083,0.083-0.125,0.125c-0.045,0.038-0.083,0.083-0.125,0.125c-0.045,0.038-0.083,0.083-0.125,0.125
		c-0.045,0.038-0.083,0.083-0.125,0.125c-0.045,0.038-0.083,0.083-0.125,0.125c-0.045,0.038-0.083,0.083-0.125,0.125
		c-0.045,0.038-0.083,0.083-0.125,0.125c-0.045,0.038-0.083,0.083-0.125,0.125c-0.045,0.038-0.083,0.083-0.125,0.125
		c-0.045,0.038-0.083,0.083-0.125,0.125c-0.045,0.038-0.083,0.083-0.125,0.125c-0.045,0.038-0.083,0.083-0.125,0.125
		c-0.045,0.038-0.083,0.083-0.125,0.125c-0.045,0.038-0.083,0.083-0.125,0.125c-0.045,0.038-0.083,0.083-0.125,0.125
		c-0.045,0.038-0.083,0.083-0.125,0.125c-0.045,0.038-0.083,0.083-0.125,0.125c-0.045,0.038-0.083,0.083-0.125,0.125
		c-0.045,0.038-0.083,0.083-0.125,0.125c-0.045,0.038-0.083,0.083-0.125,0.125c-0.045,0.038-0.083,0.083-0.125,0.125
		c-0.045,0.038-0.083,0.083-0.125,0.125c-0.045,0.038-0.083,0.083-0.125,0.125c-0.045,0.038-0.083,0.083-0.125,0.125
		c-0.045,0.038-0.083,0.083-0.125,0.125c-0.045,0.038-0.083,0.083-0.125,0.125c-0.045,0.038-0.083,0.083-0.125,0.125
		c-0.045,0.038-0.083,0.083-0.125,0.125c-0.045,0.038-0.083,0.083-0.125,0.125c-0.045,0.038-0.083,0.083-0.125,0.125
		c-0.045,0.038-0.083,0.083-0.125,0.125c-0.045,0.038-0.083,0.083-0.125,0.125c-0.045,0.038-0.083,0.083-0.125,0.125
		c-0.045,0.038-0.083,0.083-0.125,0.125c-0.045,0.038-0.083,0.083-0.125,0.125c-0.045,0.038-0.083,0.083-0.125,0.125
		c-0.045,0.038-0.083,0.083-0.125,0.125c-0.045,0.038-0.083,0.083-0.125,0.125c-0.045,0.038-0.083,0.083-0.125,0.125
		c-0.045,0.038-0.083,0.083-0.125,0.125c-0.045,0.038-0.083,0.083-0.125,0.125c-0.045,0.038-0.083,0.083-0.125,0.125
		c-0.045,0.038-0.083,0.083-0.125,0.125c-0.045,0.038-0.083,0.083-0.125,0.125c-0.045,0.038-0.083,0.083-0.125,0.125
		c-0.045,0.038-0.083,0.083-0.125,0.125c-0.045,0.038-0.083,0.083-0.125,0.125c-0.045,0.038-0.083,0.083-0.125,0.125
		c-0.045,0.038-0.083,0.083-0.125,0.125c-0.045,0.038-0.083,0.083-0.125,0.125c-0.045,0.038-0.083,0.083-0.125,0.125
		c-0.045,0.038-0.083,0.083-0.125,0.125c-0.045,0.038-0.083,0.083-0.125,0.125c-0.045,0.038-0.083,0.083-0.125,0.125
		c-0.045,0.038-0.083,0.083-0.125,0.125c-0.045,0.038-0.083,0.083-0.125,0.125c-0.045,0.038-0.083,0.083-0.125,0.125
		c-0.045,0.038-0.083,0.083-0.125,0.125c-0.045,0.038-0.083,0.083-0.125,0.125c-0.045,0.038-0.083,0.083-0.125,0.125
		c-0.045,0.038-0.083,0.083-0.125,0.125c-0.045,0.038-0.083,0.083-0.125,0.125c-0.045,0.038-0.083,0.083-0.125,0.125
		c-0.045,0.038-0.083,0.083-0.125,0.125c-0.045,0.038-0.083,0.083-0.125,0.125c-0.045,0.038-0.083,0.083-0.125,0.125
		c-0.045,0.038-0.083,0.083-0.125,0.125c-0.045,0.038-0.083,0.083-0.125,0.125c-0.045,0.038-0.083,0.083-0.125,0.125
		c-0.045,0.038-0.083,0.083-0.125,0.125c-0.045,0.038-0.083,0.083-0.125,0.125c-0.045,0.038-0.083,0.083-0.125,0.125
		c-0.045,0.038-0.083,0.083-0.125,0.125c-0.045,0.038-0.083,0.083-0.125,0.125c-0.045,0.038-0.083,0.083-0.125,0.125
		c-0.045,0.038-0.083,0.083-0.125,0.125c-0.045,0.038-0.083,0.083-0.125,0.125c-0.045,0.038-0.083,0.083-0.125,0.125
		c-0.045,0.038-0.083,0.083-0.125,0.125c-0.045,0.038-0.083,0.083-0.125,0.125c-0.045,0.038-0.083,0.083-0.125,0.125
		c-0.045,0.038-0.083,0.083-0.125,0.125c-0.045,0.038-0.083,0.083-0.125,0.125c-0.045,0.038-0.083,0.083-0.125,0.125
		c-0.045,0.038-0.083,0.083-0.125,0.125c-0.045,0.038-0.083,0.083-0.125,0.125c-0.045,0.038-0.083,0.083-0.125,0.125
		c-0.045,0.038-0.083,0.083-0.125,0.125c-0.045,0.038-0.083,0.083-0.125,0.125c-0.045,0.038-0.083,0.083-0.125,0.125
		c-0.045,0.038-0.083,0.083-0.125,0.125c-0.045,0.038-0.083,0.083-0.125,0.125c-0.045,0.038-0.083,0.083-0.125,0.125
		c-0.045,0.038-0.083,0.083-0.125,0.125c-0.045,0.038-0.083,0.083-0.125,0.125c-0.045,0.038-0.083,0.083-0.125,0.125
		c-0.045,0.038-0.083,0.083-0.125,0.125c-0.045,0.038-0.083,0.083-0.125,0.125c-0.045,0.038-0.083,0.083-0.125,0.125
		c-0.045,0.038-0.083,0.083-0.125,0.125c-0.045,0.038-0.083,0.083-0.125,0.125c-0.045,0.038-0.083,0.083-0.125,0.125
		c-0.045,0.038-0.083,0.083-0.125,0.125c-0.045,0.038-0.083,0.083-0.125,0.125c-0.045,0.038-0.083,0.083-0.125,0.125
		c-0.045,0.038-0.083,0.083-0.125,0.125c-0.045,0.038-0.083,0.083-0.125,0.125c-0.045,0.038-0.083,0.083-0.125,0.125
		c-0.045,0.038-0.083,0.083-0.125,0.125c-0.045,0.038-0.083,0.083-0.125,0.125c-0.045,0.038-0.083,0.083-0.125,0.125
		c-0.045,0.038-0.083,0.083-0.125,0.125c-0.045,0.038-0.083,0.083-0.125,0.125c-0.045,0.038-0.083,0.083-0.125,0.125
		c-0.045,0.038-0.083,0.083-0.125,0.125c-0.045,0.038-0.083,0.083-0.125,0.125c-0.045,0.038-0.083,0.083-0.125,0.125
		c-0.045,0.038-0.083,0.083-0.125,0.125c-0.045,0.038-0.083,0.083-0.125,0.125c-0.045,0.038-0.083,0.083-0.125,0.125
		c-0.045,0.038-0.083,0.083-0.125,0.125c-0.045,0.038-0.083,0.083-0.125,0.125c-0.045,0.038-0.083,0.083-0.125,0.125
		c-0.045,0.038-0.083,0.083-0.125,0.125c-0.045,0.038-0.083,0.083-0.125,0.125c-0.045,0.038-0.083,0.083-0.125,0.125
		c-0.045,0.038-0.083,0.083-0.125,0.125c-0.045,0.038-0.083,0.083-0.125,0.125c-0.045,0.038-0.083,0.083-0.125,0.125
		c-0.045,0.038-0.083,0.083-0.125,0.125c-0.045,0.038-0.083,0.083-0.125,0.125c-0.045,0.038-0.083,0.083-0.125,0.125
		c-0.045,0.038-0.083,0.083-0.125,0.125c-0.045,0.038-0.083,0.083-0.125,0.125c-0.045,0.038-0.083,0.083-0.125,0.125
		c-0.045,0.038-0.083,0.083-0.125,0.125c-0.045,0.038-0.083,0.083-0.125,0.125c-0.045,0.038-0.083,0.083-0.125,0.125
		c-0.045,0.038-0.083,0.083-0.125,0.125c-0.045,0.038-0.083,0.083-0.125,0.125c-0.045,0.038-0.083,0.083-0.125,0.125
		c-0.045,0.038-0.083,0.083-0.125,0.125c-0.045,0.038-0.083,0.083-0.125,0.125c-0.045,0.038-0.083,0.083-0.125,0.125
		c-0.045,0.038-0.083,0.083-0.125,0.125c-0.045,0.038-0.083,0.083-0.125,0.125c-0.045,0.038-0.083,0.083-0.125,0.125
		c-0.045,0.038-0.083,0.083-0.125,0.125c-0.045,0.038-0.083,0.083-0.125,0.125c-0.045,0.038-0.083,0.083-0.125,0.125
		c-0.045,0.038-0.083,0.083-0.125,0.125c-0.045,0.038-0.083,0.083-0.125,0.125c-0.045,0.038-0.083,0.083-0.125,0.125
		c-0.045,0.038-0.083,0.083-0.125,0.125c-0.045,0.038-0.083,0.083-0.125,0.125c-0.045,0.038-0.083,0.083-0.125,0.125
		c-0.045,0.038-0.083,0.083-0.125,0.125c-0.045,0.038-0.083,0.083-0.125,0.125c-0.045,0.038-0.083,0.083-0.125,0.125
		c-0.045,0.038-0.083,0.083-0.125,0.125c-0.045,0.038-0.083,0.083-0.125,0.125c-0.045,0.038-0.083,0.083-0.125,0.125
		c-0.045,0.038-0.083,0.083-0.125,0.125c-0.045,0.038-0.083,0.083-0.125,0.125c-0.045,0.038-0.083,0.083-0.125,0.125
		c-0.045,0.038-0.083,0.083-0.125,0.125c-0.045,0.038-0.083,0.083-0.125,0.125c-0.045,0.038-0.083,0.083-0.125,0.125
		c-0.045,0.038-0.083,0.083-0.125,0.125c-0.045,0.038-0.083,0.083-0.125,0.125c-0.045,0.038-0.083,0.083-0.125,0.125
		c-0.045,0.038-0.083,0.083-0.125,0.125c-0.045,0.038-0.083,0.083-0.125,0.125c-0.045,0.038-0.083,0.083-0.125,0.125
		c-0.045,0.038-0.083,0.083-0.125,0.125c-0.045,0.038-0.083,0.083-0.125,0.125c-0.045,0.038-0.083,0.083-0.125,0.125
		c-0.045,0.038-0.083,0.083-0.125,0.125c-0.045,0.038-0.083,0.083-0.125,0.125c-0.045,0.038-0.083,0.083-0.125,0.125
		c-0.045,0.038-0.083,0.083-0.125,0.125c-0.045,0.038-0.083,0.083-0.125,0.125c-0.045,0.038-0.083,0.083-0.125,0.125
		c-0.045,0.038-0.083,0.083-0.125,0.125c-0.045,0.038-0.083,0.083-0.125,0.125c-0.045,0.038-0.083,0.083-0.125,0.125
		c-0.045,0.038-0.083,0.083-0.125,0.125c-0.045,0.038-0.083,0.083-0.125,0.125c-0.045,0.038-0.083,0.083-0.125,0.125
		c-0.045,0.038-0.083,0.083-0.125,0.125c-0.045,0.038-0.083,0.083-0.125,0.125c-0.045,0.038-0.083,0.083-0.125,0.125
		c-0.045,0.038-0.083,0.083-0.125,0.125c-0.045,0.038-0.083,0.083-0.125,0.125c-0.045,0.038-0.083,0.083-0.125,0.125
		c-0.045,0.038-0.083,0.083-0.125,0.125c-0.045,0.038-0.083,0.083-0.125,0.125c-0.045,0.038-0.083,0.083-0.125,0.125
		c-0.045,0.038-0.083,0.083-0.125,0.125c-0.045,0.038-0.083,0.083-0.125,0.125c-0.045,0.038-0.083,0.083-0.125,0.125
		c-0.045,0.038-0.083,0.083-0.125,0.125c-0.045,0.038-0.083,0.083-0.125,0.125c-0.045,0.038-0.083,0.083-0.125,0.125
		c-0.045,0.038-0.083,0.083-0.125,0.125c-0.045,0.038-0.083,0.083-0.125,0.125c-0.045,0.038-0.083,0.083-0.125,0.125
		c-0.045,0.038-0.083,0.083-0.125,0.125c-0.045,0.038-0.083,0.083-0.125,0.125c-0.045,0.038-0.083,0.083-0.125,0.125
		c-0.045,0.038-0.083,0.083-0.125,0.125c-0.045,0.038-0.083,0.083-0.125,0.125c-0.045,0.038-0.083,0.083-0.125,0.125
		c-0.045,0.038-0.083,0.083-0.125,0.125c-0.045,0.038-0.083,0.083-0.125,0.125c-0.045,0.038-0.083,0.083-0.125,0.125
		c-0.045,0.038-0.083,0.083-0.125,0.125c-0.045,0.038-0.083,0.083-0.125,0.125c-0.045,0.038-0.083,0.083-0.125,0.125
		c-0.045,0.038-0.083,0.083-0.125,0.125c-0.045,0.038-0.083,0.083-0.125,0.125c-0.045,0.038-0.083,0.083-0.125,0.125
		c-0.045,0.038-0.083,0.083-0.125,0.125c-0.045,0.038-0.083,0.083-0.125,0.125c-0.045,0.038-0.083,0.083-0.125,0.125
		c-0.045,0.038-0.083,0.083-0.125,0.125c-0.045,0.038-0.083,0.083-0.125,0.125c-0.045,0.038-0.083,0.083-0.125,0.125
		c-0.045,0.038-0.083,0.083-0.125,0.125c-0.045,0.038-0.083,0.083-0.125,0.125c-0.045,0.038-0.083,0.083-0.125,0.125
		c-0.045,0.038-0.083,0.083-0.125,0.125c-0.045,0.038-0.083,0.083-0.125,0.125c-0.045,0.038-0.083,0.083-0.125,0.125
		c-0.045,0.038-0.083,0.083-0.125,0.125c-0.045,0.038-0.083,0.083-0.125,0.125c-0.045,0.038-0.083,0.083-0.125,0.125
		c-0.045,0.038-0.083,0.083-0.125,0.125c-0.045,0.038-0.083,0.083-0.125,0.125c-0.045,0.038-0.083,0.083-0.125,0.125
		c-0.045,0.038-0.083,0.083-0.125,0.125c-0.045,0.038-0.083,0.083-0.125,0.125c-0.045,0.038-0.083,0.083-0.125,0.125
		c-0.045,0.038-0.083,0.083-0.125,0.125c-0.045,0.038-0.083,0.083-0.125,0.125c-0.426,0.359-0.7,0.873-0.7,1.485v53.664
		c0,1.207,1.063,2.047,2.271,2.047h40.738c-0.042,0.034-0.074,0.076-0.109,0.116c-0.048,0.036-0.085,0.08-0.125,0.125
		c-0.048,0.036-0.085,0.08-0.125,0.125c-0.048,0.036-0.085,0.08-0.125,0.125c-0.048,0.036-0.085,0.08-0.125,0.125
		c-0.048,0.036-0.085,0.08-0.125,0.125c-0.048,0.036-0.085,0.08-0.125,0.125c-0.048,0.036-0.085,0.08-0.125,0.125
		c-0.048,0.036-0.085,0.08-0.125,0.125c-0.048,0.036-0.085,0.08-0.125,0.125c-0.048,0.036-0.085,0.08-0.125,0.125
		c-0.048,0.036-0.085,0.08-0.125,0.125c-0.048,0.036-0.085,0.08-0.125,0.125c-0.048,0.036-0.085,0.08-0.125,0.125
		c-0.048,0.036-0.085,0.08-0.125,0.125c-0.048,0.036-0.085,0.08-0.125,0.125c-0.048,0.036-0.085,0.08-0.125,0.125
		c-0.048,0.036-0.085,0.08-0.125,0.125c-0.048,0.036-0.085,0.08-0.125,0.125c-0.048,0.036-0.085,0.08-0.125,0.125
		c-0.048,0.036-0.085,0.08-0.125,0.125c-0.048,0.036-0.085,0.08-0.125,0.125c-0.048,0.036-0.085,0.08-0.125,0.125
		c-0.048,0.036-0.085,0.08-0.125,0.125c-0.048,0.036-0.085,0.08-0.125,0.125c-0.048,0.036-0.085,0.08-0.125,0.125
		c-0.048,0.036-0.085,0.08-0.125,0.125c-0.048,0.036-0.085,0.08-0.125,0.125c-0.048,0.036-0.085,0.08-0.125,0.125
		c-0.048,0.036-0.085,0.08-0.125,0.125c-0.048,0.036-0.085,0.08-0.125,0.125c-0.048,0.036-0.085,0.08-0.125,0.125
		c-0.048,0.036-0.085,0.08-0.125,0.125c-0.048,0.036-0.085,0.08-0.125,0.125c-0.048,0.036-0.085,0.08-0.125,0.125
		c-0.048,0.036-0.085,0.08-0.125,0.125c-0.048,0.036-0.085,0.08-0.125,0.125c-0.048,0.036-0.085,0.08-0.125,0.125
		c-0.048,0.036-0.085,0.08-0.125,0.125c-0.048,0.036-0.085,0.08-0.125,0.125c-0.048,0.036-0.085,0.08-0.125,0.125
		c-0.048,0.036-0.085,0.08-0.125,0.125c-0.048,0.036-0.085,0.08-0.125,0.125c-0.048,0.036-0.085,0.08-0.125,0.125
		c-0.048,0.036-0.085,0.08-0.125,0.125c-0.048,0.036-0.085,0.08-0.125,0.125c-0.048,0.036-0.085,0.08-0.125,0.125
		c-0.048,0.036-0.085,0.08-0.125,0.125c-0.048,0.036-0.085,0.08-0.125,0.125c-0.048,0.036-0.085,0.08-0.125,0.125
		c-0.227,0.175-0.377,0.433-0.377,0.759c0,0.604,0.49,1,1.095,1h32.813c0.346,0,0.641-0.141,0.842-0.366
		c0.048-0.036,0.085-0.08,0.125-0.125c0.048-0.036,0.085-0.08,0.125-0.125c0.048-0.036,0.085-0.08,0.125-0.125
		c0.048-0.036,0.085-0.08,0.125-0.125c0.048-0.036,0.085-0.08,0.125-0.125c0.048-0.036,0.085-0.08,0.125-0.125
		c0.048-0.036,0.085-0.08,0.125-0.125c0.048-0.036,0.085-0.08,0.125-0.125c0.048-0.036,0.085-0.08,0.125-0.125
		c0.048-0.036,0.085-0.08,0.125-0.125c0.048-0.036,0.085-0.08,0.125-0.125c0.048-0.036,0.085-0.08,0.125-0.125
		c0.048-0.036,0.085-0.08,0.125-0.125c0.048-0.036,0.085-0.08,0.125-0.125c0.048-0.036,0.085-0.08,0.125-0.125
		c0.048-0.036,0.085-0.08,0.125-0.125c0.048-0.036,0.085-0.08,0.125-0.125c0.048-0.036,0.085-0.08,0.125-0.125
		c0.048-0.036,0.085-0.08,0.125-0.125c0.048-0.036,0.085-0.08,0.125-0.125c0.048-0.036,0.085-0.08,0.125-0.125
		c0.048-0.036,0.085-0.08,0.125-0.125c0.048-0.036,0.085-0.08,0.125-0.125c0.048-0.036,0.085-0.08,0.125-0.125
		c0.048-0.036,0.085-0.08,0.125-0.125c0.048-0.036,0.085-0.08,0.125-0.125c0.048-0.036,0.085-0.08,0.125-0.125
		c0.048-0.036,0.085-0.08,0.125-0.125c0.048-0.036,0.085-0.08,0.125-0.125c0.048-0.036,0.085-0.08,0.125-0.125
		c0.048-0.036,0.085-0.08,0.125-0.125c0.048-0.036,0.085-0.08,0.125-0.125c0.048-0.036,0.085-0.08,0.125-0.125
		c0.048-0.036,0.085-0.08,0.125-0.125c0.048-0.036,0.085-0.08,0.125-0.125c0.048-0.036,0.085-0.08,0.125-0.125
		c0.048-0.036,0.085-0.08,0.125-0.125c0.048-0.036,0.085-0.08,0.125-0.125c0.048-0.036,0.085-0.08,0.125-0.125
		c0.048-0.036,0.085-0.08,0.125-0.125c0.048-0.036,0.085-0.08,0.125-0.125c0.048-0.036,0.085-0.08,0.125-0.125
		c0.048-0.036,0.085-0.08,0.125-0.125c0.048-0.036,0.085-0.08,0.125-0.125c0.048-0.036,0.085-0.08,0.125-0.125
		c0.048-0.036,0.085-0.08,0.125-0.125c0.048-0.036,0.085-0.08,0.125-0.125c0.048-0.036,0.085-0.08,0.125-0.125
		c0.048-0.036,0.085-0.08,0.125-0.125c0.048-0.036,0.085-0.08,0.125-0.125c0.048-0.036,0.085-0.08,0.125-0.125
		c0.048-0.036,0.085-0.08,0.125-0.125c0.048-0.036,0.085-0.08,0.125-0.125c0.048-0.036,0.085-0.08,0.125-0.125
		c0.048-0.036,0.085-0.08,0.125-0.125c0.048-0.036,0.085-0.08,0.125-0.125c0.048-0.036,0.085-0.08,0.125-0.125
		c0.048-0.036,0.085-0.08,0.125-0.125c0.048-0.036,0.085-0.08,0.125-0.125c0.048-0.036,0.085-0.08,0.125-0.125
		c0.048-0.036,0.085-0.08,0.125-0.125c0.005-0.003,0.011-0.005,0.016-0.009h26.959c0.659,0,1.262-0.256,1.681-0.679
		c0.045-0.038,0.083-0.083,0.125-0.125c0.045-0.038,0.083-0.083,0.125-0.125c0.045-0.038,0.083-0.083,0.125-0.125
		c0.045-0.038,0.083-0.083,0.125-0.125c0.045-0.038,0.083-0.083,0.125-0.125c0.045-0.038,0.083-0.083,0.125-0.125
		c0.045-0.038,0.083-0.083,0.125-0.125c0.045-0.038,0.083-0.083,0.125-0.125c0.045-0.038,0.083-0.083,0.125-0.125
		c0.045-0.038,0.083-0.083,0.125-0.125c0.045-0.038,0.083-0.083,0.125-0.125c0.045-0.038,0.083-0.083,0.125-0.125
		c0.045-0.038,0.083-0.083,0.125-0.125c0.045-0.038,0.083-0.083,0.125-0.125c0.045-0.038,0.083-0.083,0.125-0.125
		c0.045-0.038,0.083-0.083,0.125-0.125c0.045-0.038,0.083-0.083,0.125-0.125c0.045-0.038,0.083-0.083,0.125-0.125
		c0.045-0.038,0.083-0.083,0.125-0.125c0.045-0.038,0.083-0.083,0.125-0.125c0.045-0.038,0.083-0.083,0.125-0.125
		c0.045-0.038,0.083-0.083,0.125-0.125c0.045-0.038,0.083-0.083,0.125-0.125c0.045-0.038,0.083-0.083,0.125-0.125
		c0.045-0.038,0.083-0.083,0.125-0.125c0.045-0.038,0.083-0.083,0.125-0.125c0.045-0.038,0.083-0.083,0.125-0.125
		c0.046-0.038,0.084-0.083,0.125-0.125c0.046-0.038,0.084-0.083,0.125-0.125c0.046-0.038,0.084-0.083,0.125-0.125
		c0.046-0.038,0.084-0.083,0.125-0.125c0.046-0.038,0.084-0.083,0.125-0.125c0.046-0.038,0.084-0.083,0.125-0.125
		c0.046-0.038,0.084-0.083,0.125-0.125c0.046-0.038,0.084-0.083,0.125-0.125c0.046-0.038,0.084-0.083,0.125-0.125
		c0.046-0.038,0.084-0.083,0.125-0.125c0.046-0.038,0.084-0.083,0.125-0.125c0.046-0.038,0.084-0.083,0.125-0.125
		c0.046-0.038,0.084-0.083,0.125-0.125c0.046-0.038,0.084-0.083,0.125-0.125c0.046-0.038,0.084-0.083,0.125-0.125
		c0.046-0.038,0.084-0.083,0.125-0.125c0.046-0.038,0.084-0.083,0.125-0.125c0.046-0.038,0.084-0.083,0.125-0.125
		c0.046-0.038,0.084-0.083,0.125-0.125c0.046-0.038,0.084-0.083,0.125-0.125c0.046-0.038,0.084-0.083,0.125-0.125
		c0.046-0.038,0.084-0.083,0.125-0.125c0.046-0.038,0.084-0.083,0.125-0.125c0.046-0.038,0.084-0.083,0.125-0.125
		c0.046-0.038,0.084-0.083,0.125-0.125c0.046-0.038,0.084-0.083,0.125-0.125c0.046-0.038,0.084-0.083,0.125-0.125
		c0.046-0.038,0.084-0.083,0.125-0.125c0.046-0.038,0.084-0.083,0.125-0.125c0.046-0.038,0.084-0.083,0.125-0.125
		c0.046-0.038,0.084-0.083,0.125-0.125c0.046-0.038,0.084-0.083,0.125-0.125c0.046-0.038,0.084-0.083,0.125-0.125
		c0.046-0.038,0.084-0.083,0.125-0.125c0.046-0.038,0.084-0.083,0.125-0.125c0.046-0.038,0.084-0.083,0.125-0.125
		c0.046-0.038,0.084-0.083,0.125-0.125c0.046-0.038,0.084-0.083,0.125-0.125c0.046-0.038,0.084-0.083,0.125-0.125
		c0.046-0.038,0.084-0.083,0.125-0.125c0.046-0.038,0.084-0.083,0.125-0.125c0.046-0.038,0.084-0.083,0.125-0.125
		c0.046-0.038,0.084-0.083,0.125-0.125c0.046-0.038,0.084-0.083,0.125-0.125c0.046-0.038,0.084-0.083,0.125-0.125
		c0.046-0.038,0.084-0.083,0.125-0.125c0.046-0.038,0.084-0.083,0.125-0.125c0.046-0.038,0.084-0.083,0.125-0.125
		c0.046-0.038,0.084-0.083,0.125-0.125c0.046-0.038,0.084-0.083,0.125-0.125c0.046-0.038,0.084-0.083,0.125-0.125
		c0.046-0.038,0.084-0.083,0.125-0.125c0.046-0.038,0.084-0.083,0.125-0.125c0.046-0.038,0.084-0.083,0.125-0.125
		c0.046-0.038,0.084-0.083,0.125-0.125c0.046-0.038,0.084-0.083,0.125-0.125c0.046-0.038,0.084-0.083,0.125-0.125
		c0.046-0.038,0.084-0.083,0.125-0.125c0.046-0.038,0.084-0.083,0.125-0.125c0.046-0.038,0.084-0.083,0.125-0.125
		c0.046-0.038,0.084-0.083,0.125-0.125c0.046-0.038,0.084-0.083,0.125-0.125c0.046-0.038,0.084-0.083,0.125-0.125
		c0.046-0.038,0.084-0.083,0.125-0.125c0.046-0.038,0.084-0.083,0.125-0.125c0.046-0.038,0.084-0.083,0.125-0.125
		c0.046-0.038,0.084-0.083,0.125-0.125c0.046-0.038,0.084-0.083,0.125-0.125c0.046-0.038,0.084-0.083,0.125-0.125
		c0.046-0.038,0.084-0.083,0.125-0.125c0.046-0.038,0.084-0.083,0.125-0.125c0.046-0.038,0.084-0.083,0.125-0.125
		c0.046-0.038,0.084-0.083,0.125-0.125c0.046-0.038,0.084-0.083,0.125-0.125c0.046-0.038,0.084-0.083,0.125-0.125
		c0.046-0.038,0.084-0.083,0.125-0.125c0.046-0.038,0.084-0.083,0.125-0.125c0.046-0.038,0.084-0.083,0.125-0.125
		c0.046-0.038,0.084-0.083,0.125-0.125c0.046-0.038,0.084-0.083,0.125-0.125c0.046-0.038,0.084-0.083,0.125-0.125
		c0.046-0.038,0.084-0.083,0.125-0.125c0.046-0.038,0.084-0.083,0.125-0.125c0.046-0.038,0.084-0.083,0.125-0.125
		c0.046-0.038,0.084-0.083,0.125-0.125c0.046-0.038,0.084-0.083,0.125-0.125c0.046-0.038,0.084-0.083,0.125-0.125
		c0.046-0.038,0.084-0.083,0.125-0.125c0.046-0.038,0.084-0.083,0.125-0.125c0.046-0.038,0.084-0.083,0.125-0.125
		c0.046-0.038,0.084-0.083,0.125-0.125c0.046-0.038,0.084-0.083,0.125-0.125c0.046-0.038,0.084-0.083,0.125-0.125
		c0.046-0.038,0.084-0.083,0.125-0.125c0.046-0.038,0.084-0.083,0.125-0.125c0.046-0.038,0.084-0.083,0.125-0.125
		c0.046-0.038,0.084-0.083,0.125-0.125c0.046-0.038,0.084-0.083,0.125-0.125c0.046-0.038,0.084-0.083,0.125-0.125
		c0.046-0.038,0.084-0.083,0.125-0.125c0.046-0.038,0.084-0.083,0.125-0.125c0.046-0.038,0.084-0.083,0.125-0.125
		c0.046-0.038,0.084-0.083,0.125-0.125c0.046-0.038,0.084-0.083,0.125-0.125c0.046-0.038,0.084-0.083,0.125-0.125
		c0.046-0.038,0.084-0.083,0.125-0.125c0.046-0.038,0.084-0.083,0.125-0.125c0.046-0.038,0.084-0.083,0.125-0.125
		c0.046-0.038,0.084-0.083,0.125-0.125c0.046-0.038,0.084-0.083,0.125-0.125c0.046-0.038,0.084-0.083,0.125-0.125
		c0.046-0.038,0.084-0.083,0.125-0.125c0.046-0.038,0.084-0.083,0.125-0.125c0.046-0.038,0.084-0.083,0.125-0.125
		c0.046-0.038,0.084-0.083,0.125-0.125c0.046-0.038,0.084-0.083,0.125-0.125c0.046-0.038,0.084-0.083,0.125-0.125
		c0.046-0.038,0.084-0.083,0.125-0.125c0.046-0.038,0.084-0.083,0.125-0.125c0.046-0.038,0.084-0.083,0.125-0.125
		c0.046-0.038,0.084-0.083,0.125-0.125c0.046-0.038,0.084-0.083,0.125-0.125c0.046-0.038,0.084-0.083,0.125-0.125
		c0.046-0.038,0.084-0.083,0.125-0.125c0.046-0.038,0.084-0.083,0.125-0.125c0.046-0.038,0.084-0.083,0.125-0.125
		c0.046-0.038,0.084-0.083,0.125-0.125c0.046-0.038,0.084-0.083,0.125-0.125c0.046-0.038,0.084-0.083,0.125-0.125
		c0.046-0.038,0.084-0.083,0.125-0.125c0.046-0.038,0.084-0.083,0.125-0.125c0.046-0.038,0.084-0.083,0.125-0.125
		c0.046-0.038,0.084-0.083,0.125-0.125c0.046-0.038,0.084-0.083,0.125-0.125c0.046-0.038,0.084-0.083,0.125-0.125
		c0.046-0.038,0.084-0.083,0.125-0.125c0.046-0.038,0.084-0.083,0.125-0.125c0.046-0.038,0.084-0.083,0.125-0.125
		c0.046-0.038,0.084-0.083,0.125-0.125c0.046-0.038,0.084-0.083,0.125-0.125c0.046-0.038,0.084-0.083,0.125-0.125
		c0.046-0.038,0.084-0.083,0.125-0.125c0.046-0.038,0.084-0.083,0.125-0.125c0.046-0.038,0.084-0.083,0.125-0.125
		c0.046-0.038,0.084-0.083,0.125-0.125c0.046-0.038,0.084-0.083,0.125-0.125c0.046-0.038,0.084-0.083,0.125-0.125
		c0.046-0.038,0.084-0.083,0.125-0.125c0.046-0.038,0.084-0.083,0.125-0.125c0.046-0.038,0.084-0.083,0.125-0.125
		c0.046-0.038,0.084-0.083,0.125-0.125c0.046-0.038,0.084-0.083,0.125-0.125c0.046-0.038,0.084-0.083,0.125-0.125
		c0.046-0.038,0.084-0.083,0.125-0.125c0.046-0.038,0.084-0.083,0.125-0.125c0.046-0.038,0.084-0.083,0.125-0.125
		c0.046-0.038,0.084-0.083,0.125-0.125c0.046-0.038,0.084-0.083,0.125-0.125c0.046-0.038,0.084-0.083,0.125-0.125
		c0.046-0.038,0.084-0.083,0.125-0.125c0.046-0.038,0.084-0.083,0.125-0.125c0.046-0.038,0.084-0.083,0.125-0.125
		c0.046-0.038,0.084-0.083,0.125-0.125c0.046-0.038,0.084-0.083,0.125-0.125c0.046-0.038,0.084-0.083,0.125-0.125
		c0.046-0.038,0.084-0.083,0.125-0.125c0.046-0.038,0.084-0.083,0.125-0.125c0.046-0.038,0.084-0.083,0.125-0.125
		c0.046-0.038,0.084-0.083,0.125-0.125c0.046-0.038,0.084-0.083,0.125-0.125c0.046-0.038,0.084-0.083,0.125-0.125
		c0.046-0.038,0.084-0.083,0.125-0.125c0.046-0.038,0.084-0.083,0.125-0.125c0.046-0.038,0.084-0.083,0.125-0.125
		c0.046-0.038,0.084-0.083,0.125-0.125c0.046-0.038,0.084-0.083,0.125-0.125c0.046-0.038,0.084-0.083,0.125-0.125
		c0.046-0.038,0.084-0.083,0.125-0.125c0.046-0.038,0.084-0.083,0.125-0.125c0.046-0.038,0.084-0.083,0.125-0.125
		c0.046-0.038,0.084-0.083,0.125-0.125c0.046-0.038,0.084-0.083,0.125-0.125c0.046-0.038,0.084-0.083,0.125-0.125
		c0.046-0.038,0.084-0.083,0.125-0.125c0.046-0.038,0.084-0.083,0.125-0.125c0.046-0.038,0.084-0.083,0.125-0.125
		c0.046-0.038,0.084-0.083,0.125-0.125c0.046-0.038,0.084-0.083,0.125-0.125c0.046-0.038,0.084-0.083,0.125-0.125
		c0.046-0.038,0.084-0.083,0.125-0.125c0.046-0.038,0.084-0.083,0.125-0.125c0.046-0.038,0.084-0.083,0.125-0.125
		c0.046-0.038,0.084-0.083,0.125-0.125c0.046-0.038,0.084-0.083,0.125-0.125c0.046-0.038,0.084-0.083,0.125-0.125
		c0.046-0.038,0.084-0.083,0.125-0.125c0.046-0.038,0.084-0.083,0.125-0.125c0.046-0.038,0.084-0.083,0.125-0.125
		c0.046-0.038,0.084-0.083,0.125-0.125c0.046-0.038,0.084-0.083,0.125-0.125c0.046-0.038,0.084-0.083,0.125-0.125
		c0.046-0.038,0.084-0.083,0.125-0.125c0.046-0.038,0.084-0.083,0.125-0.125c0.046-0.038,0.084-0.083,0.125-0.125
		c0.046-0.038,0.084-0.083,0.125-0.125c0.046-0.038,0.084-0.083,0.125-0.125c0.046-0.038,0.084-0.083,0.125-0.125
		c0.046-0.038,0.084-0.083,0.125-0.125c0.046-0.038,0.084-0.083,0.125-0.125c0.046-0.038,0.084-0.083,0.125-0.125
		c0.046-0.038,0.084-0.083,0.125-0.125c0.046-0.038,0.084-0.083,0.125-0.125c0.046-0.038,0.084-0.083,0.125-0.125
		c0.046-0.038,0.084-0.083,0.125-0.125c0.046-0.038,0.084-0.083,0.125-0.125c0.046-0.038,0.084-0.083,0.125-0.125
		c0.046-0.038,0.084-0.083,0.125-0.125c0.046-0.038,0.084-0.083,0.125-0.125c0.046-0.038,0.084-0.083,0.125-0.125
		c0.046-0.038,0.084-0.083,0.125-0.125c0.046-0.038,0.084-0.083,0.125-0.125c0.046-0.038,0.084-0.083,0.125-0.125
		c0.046-0.038,0.084-0.083,0.125-0.125c0.046-0.038,0.084-0.083,0.125-0.125c0.046-0.038,0.084-0.083,0.125-0.125
		c0.046-0.038,0.084-0.083,0.125-0.125c0.046-0.038,0.084-0.083,0.125-0.125c0.046-0.038,0.084-0.083,0.125-0.125
		c0.046-0.038,0.084-0.083,0.125-0.125c0.046-0.038,0.084-0.083,0.125-0.125c0.046-0.038,0.084-0.083,0.125-0.125
		c0.046-0.038,0.084-0.083,0.125-0.125c0.046-0.038,0.084-0.083,0.125-0.125c0.046-0.038,0.084-0.083,0.125-0.125
		c0.046-0.038,0.084-0.083,0.125-0.125c0.046-0.038,0.084-0.083,0.125-0.125c0.046-0.038,0.084-0.083,0.125-0.125
		c0.046-0.038,0.084-0.083,0.125-0.125c0.046-0.038,0.084-0.083,0.125-0.125c0.046-0.038,0.084-0.083,0.125-0.125
		c0.046-0.038,0.084-0.083,0.125-0.125c0.046-0.038,0.084-0.083,0.125-0.125c0.046-0.038,0.084-0.083,0.125-0.125
		c0.046-0.038,0.084-0.083,0.125-0.125c0.046-0.038,0.084-0.083,0.125-0.125c0.046-0.038,0.084-0.083,0.125-0.125
		c0.046-0.038,0.084-0.083,0.125-0.125c0.046-0.038,0.084-0.083,0.125-0.125c0.046-0.038,0.084-0.083,0.125-0.125
		c0.046-0.038,0.084-0.083,0.125-0.125c0.046-0.038,0.084-0.083,0.125-0.125c0.046-0.038,0.084-0.083,0.125-0.125
		c0.046-0.038,0.084-0.083,0.125-0.125c0.046-0.038,0.084-0.083,0.125-0.125c0.046-0.038,0.084-0.083,0.125-0.125
		c0.046-0.038,0.084-0.083,0.125-0.125c0.046-0.038,0.084-0.083,0.125-0.125c0.046-0.038,0.084-0.083,0.125-0.125
		c0.046-0.038,0.084-0.083,0.125-0.125c0.046-0.038,0.084-0.083,0.125-0.125c0.046-0.038,0.084-0.083,0.125-0.125
		c0.046-0.038,0.084-0.083,0.125-0.125c0.046-0.038,0.084-0.083,0.125-0.125c0.046-0.038,0.084-0.083,0.125-0.125
		c0.046-0.038,0.084-0.083,0.125-0.125c0.046-0.038,0.084-0.083,0.125-0.125c0.046-0.038,0.084-0.083,0.125-0.125
		c0.046-0.038,0.084-0.083,0.125-0.125c0.046-0.038,0.084-0.083,0.125-0.125c0.046-0.038,0.084-0.083,0.125-0.125
		c0.046-0.038,0.084-0.083,0.125-0.125c0.046-0.038,0.084-0.083,0.125-0.125c0.046-0.038,0.084-0.083,0.125-0.125
		c0.046-0.038,0.084-0.083,0.125-0.125c0.046-0.038,0.084-0.083,0.125-0.125c0.046-0.038,0.084-0.083,0.125-0.125
		c0.046-0.038,0.084-0.083,0.125-0.125c0.046-0.038,0.084-0.083,0.125-0.125c0.046-0.038,0.084-0.083,0.125-0.125
		c0.046-0.038,0.084-0.083,0.125-0.125c0.046-0.038,0.084-0.083,0.125-0.125c0.046-0.038,0.084-0.083,0.125-0.125
		c0.046-0.038,0.084-0.083,0.125-0.125c0.046-0.038,0.084-0.083,0.125-0.125c0.046-0.038,0.084-0.083,0.125-0.125
		c0.046-0.038,0.084-0.083,0.125-0.125c0.046-0.038,0.084-0.083,0.125-0.125c0.046-0.038,0.084-0.083,0.125-0.125
		c0.046-0.038,0.084-0.083,0.125-0.125c0.046-0.038,0.084-0.083,0.125-0.125c0.046-0.038,0.084-0.083,0.125-0.125
		c0.046-0.038,0.084-0.083,0.125-0.125c0.046-0.038,0.084-0.083,0.125-0.125c0.046-0.038,0.084-0.083,0.125-0.125
		c0.046-0.038,0.084-0.083,0.125-0.125c0.046-0.038,0.084-0.083,0.125-0.125c0.046-0.038,0.084-0.083,0.125-0.125
		c0.046-0.038,0.084-0.083,0.125-0.125c0.046-0.038,0.084-0.083,0.125-0.125c0.046-0.038,0.084-0.083,0.125-0.125
		c0.046-0.038,0.084-0.083,0.125-0.125c0.046-0.038,0.084-0.083,0.125-0.125c0.046-0.038,0.084-0.083,0.125-0.125
		c0.046-0.038,0.084-0.083,0.125-0.125c0.046-0.038,0.084-0.083,0.125-0.125c0.046-0.038,0.084-0.083,0.125-0.125
		c0.046-0.038,0.084-0.083,0.125-0.125c0.046-0.038,0.084-0.083,0.125-0.125c0.046-0.038,0.084-0.083,0.125-0.125
		c0.046-0.038,0.084-0.083,0.125-0.125c0.046-0.038,0.084-0.083,0.125-0.125c0.046-0.038,0.084-0.083,0.125-0.125
		c0.046-0.038,0.084-0.083,0.125-0.125c0.046-0.038,0.084-0.083,0.125-0.125c0.046-0.038,0.084-0.083,0.125-0.125
		c0.046-0.038,0.084-0.083,0.125-0.125c0.046-0.038,0.084-0.083,0.125-0.125c0.046-0.038,0.084-0.083,0.125-0.125
		c0.046-0.038,0.084-0.083,0.125-0.125c0.046-0.038,0.084-0.083,0.125-0.125c0.046-0.038,0.084-0.083,0.125-0.125
		c0.046-0.038,0.084-0.083,0.125-0.125c0.046-0.038,0.084-0.083,0.125-0.125c0.046-0.038,0.084-0.083,0.125-0.125
		c0.046-0.038,0.084-0.083,0.125-0.125c0.046-0.038,0.084-0.083,0.125-0.125c0.046-0.038,0.084-0.083,0.125-0.125
		c0.046-0.038,0.084-0.083,0.125-0.125c0.046-0.038,0.084-0.083,0.125-0.125c0.046-0.038,0.084-0.083,0.125-0.125
		c0.046-0.038,0.084-0.083,0.125-0.125c0.046-0.038,0.084-0.083,0.125-0.125c0.046-0.038,0.084-0.083,0.125-0.125
		c0.046-0.038,0.084-0.083,0.125-0.125c0.046-0.038,0.084-0.083,0.125-0.125c0.046-0.038,0.084-0.083,0.125-0.125
		c0.046-0.038,0.084-0.083,0.125-0.125c0.046-0.038,0.084-0.083,0.125-0.125c0.046-0.038,0.084-0.083,0.125-0.125
		c0.046-0.038,0.084-0.083,0.125-0.125c0.046-0.038,0.084-0.083,0.125-0.125c0.046-0.038,0.084-0.083,0.125-0.125
		c0.046-0.038,0.084-0.083,0.125-0.125c0.046-0.038,0.084-0.083,0.125-0.125c0.046-0.038,0.084-0.083,0.125-0.125
		c0.046-0.038,0.084-0.083,0.125-0.125c0.046-0.038,0.084-0.083,0.125-0.125c0.046-0.038,0.084-0.083,0.125-0.125
		c0.046-0.038,0.084-0.083,0.125-0.125c0.046-0.038,0.084-0.083,0.125-0.125c0.046-0.038,0.084-0.083,0.125-0.125
		c0.046-0.038,0.084-0.083,0.125-0.125c0.046-0.038,0.084-0.083,0.125-0.125c0.046-0.038,0.084-0.083,0.125-0.125
		c0.046-0.038,0.084-0.083,0.125-0.125c0.046-0.038,0.084-0.083,0.125-0.125c0.046-0.038,0.084-0.083,0.125-0.125
		c0.046-0.038,0.084-0.083,0.125-0.125c0.046-0.038,0.084-0.083,0.125-0.125c0.046-0.038,0.084-0.083,0.125-0.125
		c0.046-0.038,0.084-0.083,0.125-0.125c0.046-0.038,0.084-0.083,0.125-0.125c0.046-0.038,0.084-0.083,0.125-0.125
		c0.046-0.038,0.084-0.083,0.125-0.125c0.046-0.038,0.084-0.083,0.125-0.125c0.046-0.038,0.084-0.083,0.125-0.125
		c0.046-0.038,0.084-0.083,0.125-0.125c0.046-0.038,0.084-0.083,0.125-0.125c0.046-0.038,0.084-0.083,0.125-0.125
		c0.046-0.038,0.084-0.083,0.125-0.125c0.046-0.038,0.084-0.083,0.125-0.125c0.046-0.038,0.084-0.083,0.125-0.125
		c0.046-0.038,0.084-0.083,0.125-0.125c0.046-0.038,0.084-0.083,0.125-0.125c0.046-0.038,0.084-0.083,0.125-0.125
		c0.046-0.038,0.084-0.083,0.125-0.125c0.046-0.038,0.084-0.083,0.125-0.125c0.046-0.038,0.084-0.083,0.125-0.125
		c0.046-0.038,0.084-0.083,0.125-0.125c0.046-0.038,0.084-0.083,0.125-0.125c0.046-0.038,0.084-0.083,0.125-0.125
		c0.046-0.038,0.084-0.083,0.125-0.125c0.046-0.038,0.084-0.083,0.125-0.125c0.046-0.038,0.084-0.083,0.125-0.125
		c0.046-0.038,0.084-0.083,0.125-0.125c0.046-0.038,0.084-0.083,0.125-0.125c0.046-0.038,0.084-0.083,0.125-0.125
		c0.046-0.038,0.084-0.083,0.125-0.125c0.046-0.038,0.084-0.083,0.125-0.125c0.046-0.038,0.084-0.083,0.125-0.125
		c0.046-0.038,0.084-0.083,0.125-0.125c0.046-0.038,0.084-0.083,0.125-0.125c0.046-0.038,0.084-0.083,0.125-0.125
		c0.046-0.038,0.084-0.083,0.125-0.125c0.046-0.038,0.084-0.083,0.125-0.125c0.046-0.038,0.084-0.083,0.125-0.125
		c0.046-0.038,0.084-0.083,0.125-0.125c0.046-0.038,0.084-0.083,0.125-0.125c0.046-0.038,0.084-0.083,0.125-0.125
		c0.046-0.038,0.084-0.083,0.125-0.125c0.046-0.038,0.084-0.083,0.125-0.125c0.046-0.038,0.084-0.083,0.125-0.125
		c0.046-0.038,0.084-0.083,0.125-0.125c0.046-0.038,0.084-0.083,0.125-0.125c0.046-0.038,0.084-0.083,0.125-0.125
		c0.046-0.038,0.084-0.083,0.125-0.125c0.046-0.038,0.084-0.083,0.125-0.125c0.046-0.038,0.084-0.083,0.125-0.125
		c0.046-0.038,0.084-0.083,0.125-0.125c0.046-0.038,0.084-0.083,0.125-0.125c0.046-0.038,0.084-0.083,0.125-0.125
		c0.046-0.038,0.084-0.083,0.125-0.125c0.046-0.038,0.084-0.083,0.125-0.125c0.046-0.038,0.084-0.083,0.125-0.125
		c0.046-0.038,0.084-0.083,0.125-0.125c0.046-0.038,0.084-0.083,0.125-0.125c0.046-0.038,0.084-0.083,0.125-0.125
		c0.046-0.038,0.084-0.083,0.125-0.125c0.046-0.038,0.084-0.083,0.125-0.125c0.046-0.038,0.084-0.083,0.125-0.125
		c0.046-0.038,0.084-0.083,0.125-0.125c0.046-0.038,0.084-0.083,0.125-0.125c0.426-0.361,0.698-0.879,0.698-1.493V33.289
		C118,32.081,116.954,31.25,115.746,31.25z"/>
</g>
<g>
	<path fill="#FFFFFF" d="M57.322,69.941c0.087,0.052,0.214,0.078,0.313,0.078c0.087,0,0.188-0.021,0.268-0.063l17.979-9.406
		c0.181-0.094,0.298-0.281,0.298-0.484c0-0.204-0.111-0.391-0.293-0.485l-17.97-9.407c-0.17-0.089-0.431-0.083-0.595,0.017
		C57.158,50.291,57,50.468,57,50.659v18.813C57,69.664,57.158,69.842,57.322,69.941z"/>
	<path fill="#FFFFFF" d="M115.746,31H12.271C11.063,31,10,32.081,10,33.289v53.664C10,88.16,11.063,89,12.271,89h51.043l-3.025,6
		H47.492c-0.604,0-1.095,0.396-1.095,1s0.49,1,1.095,1h32.813c0.604,0,1.094-0.396,1.094-1s-0.488-1-1.094-1H67.509l-3.026-6h51.264
		c1.208,0,2.254-0.84,2.254-2.047V33.289C118,32.081,116.954,31,115.746,31z M66.742,88h-5.906c-0.483,0-0.875-0.518-0.875-1
		s0.392-1,0.875-1h5.906c0.482,0,0.875,0.518,0.875,1S67.227,88,66.742,88z M116,85H12V33h104V85z"/>
</g>
</svg>
