<?xml version="1.0" encoding="utf-8"?>
<!-- Generator: Adobe Illustrator 16.0.3, SVG Export Plug-In . SVG Version: 6.00 Build 0)  -->
<!DOCTYPE svg PUBLIC "-//W3C//DTD SVG 1.1//EN" "http://www.w3.org/Graphics/SVG/1.1/DTD/svg11.dtd">
<svg version="1.1" id="Layer_1" xmlns="http://www.w3.org/2000/svg" xmlns:xlink="http://www.w3.org/1999/xlink" x="0px" y="0px"
	 width="128px" height="128px" viewBox="0 0 128 128" enable-background="new 0 0 128 128" xml:space="preserve">
<path fill="#444953" d="M128,25c0-13.807-11.193-25-25-25H25C11.193,0,0,11.193,0,25v78c0,13.807,11.193,25,25,25h78
	c13.807,0,25-11.193,25-25V25z"/>
<g>
	<defs>
		<path id="SVGID_1_" d="M128,25c0-13.807-11.193-25-25-25H25C11.193,0,0,11.193,0,25v78c0,13.807,11.193,25,25,25h78
			c13.807,0,25-11.193,25-25V25z"/>
	</defs>
	<clipPath id="SVGID_2_">
		<use xlink:href="#SVGID_1_"  overflow="visible"/>
	</clipPath>
	<path clip-path="url(#SVGID_2_)" fill="#353A42" d="M106.5,31h-85c-2.103,0-4.001,0.868-5.363,2.262
		c-0.042,0.041-0.084,0.083-0.125,0.125c-0.042,0.041-0.084,0.083-0.125,0.125c-0.042,0.041-0.084,0.083-0.125,0.125
		c-0.042,0.041-0.084,0.083-0.125,0.125c-0.042,0.041-0.084,0.083-0.125,0.125c-0.042,0.041-0.084,0.083-0.125,0.125
		c-0.042,0.041-0.084,0.083-0.125,0.125c-0.042,0.041-0.084,0.083-0.125,0.125c-0.042,0.041-0.084,0.083-0.125,0.125
		c-0.042,0.041-0.084,0.083-0.125,0.125c-0.042,0.041-0.084,0.083-0.125,0.125c-0.042,0.041-0.084,0.083-0.125,0.125
		c-0.042,0.041-0.084,0.083-0.125,0.125c-0.042,0.041-0.084,0.083-0.125,0.125c-0.042,0.041-0.084,0.083-0.125,0.125
		c-0.042,0.041-0.084,0.083-0.125,0.125c-0.042,0.041-0.084,0.083-0.125,0.125c-0.042,0.041-0.084,0.083-0.125,0.125
		c-0.042,0.041-0.084,0.083-0.125,0.125c-0.042,0.041-0.084,0.083-0.125,0.125c-0.042,0.041-0.084,0.083-0.125,0.125
		c-0.042,0.041-0.084,0.083-0.125,0.125c-0.042,0.041-0.084,0.083-0.125,0.125c-0.042,0.041-0.084,0.083-0.125,0.125
		c-0.042,0.041-0.084,0.083-0.125,0.125c-0.042,0.041-0.084,0.083-0.125,0.125c-0.042,0.041-0.084,0.083-0.125,0.125
		c-0.042,0.041-0.084,0.083-0.125,0.125c-0.042,0.041-0.084,0.083-0.125,0.125c-0.042,0.041-0.084,0.083-0.125,0.125
		c-0.042,0.041-0.084,0.083-0.125,0.125c-0.042,0.041-0.084,0.083-0.125,0.125c-0.042,0.041-0.084,0.083-0.125,0.125
		c-0.042,0.041-0.084,0.083-0.125,0.125c-0.042,0.041-0.084,0.083-0.125,0.125c-0.042,0.041-0.084,0.083-0.125,0.125
		c-0.042,0.041-0.084,0.083-0.125,0.125c-0.042,0.041-0.084,0.083-0.125,0.125c-0.042,0.041-0.084,0.083-0.125,0.125
		c-0.042,0.041-0.084,0.083-0.125,0.125c-0.042,0.041-0.084,0.083-0.125,0.125c-0.042,0.041-0.084,0.083-0.125,0.125
		c-0.042,0.041-0.084,0.083-0.125,0.125c-0.042,0.041-0.084,0.083-0.125,0.125c-0.042,0.041-0.084,0.083-0.125,0.125
		c-0.042,0.041-0.084,0.083-0.125,0.125c-0.042,0.041-0.084,0.083-0.125,0.125c-0.042,0.041-0.084,0.083-0.125,0.125
		c-0.042,0.041-0.084,0.083-0.125,0.125c-0.042,0.041-0.084,0.083-0.125,0.125c-0.042,0.041-0.084,0.083-0.125,0.125
		c-0.042,0.041-0.084,0.083-0.125,0.125c-0.042,0.041-0.084,0.083-0.125,0.125c-0.042,0.041-0.084,0.083-0.125,0.125
		c-0.042,0.041-0.084,0.083-0.125,0.125c-0.042,0.041-0.084,0.083-0.125,0.125c-0.042,0.041-0.084,0.083-0.125,0.125
		c-0.042,0.041-0.084,0.083-0.125,0.125c-0.042,0.041-0.084,0.083-0.125,0.125c-0.042,0.041-0.084,0.083-0.125,0.125
		c-0.042,0.041-0.084,0.083-0.125,0.125c-0.042,0.041-0.084,0.083-0.125,0.125c-0.042,0.041-0.084,0.083-0.125,0.125
		c-0.042,0.041-0.084,0.083-0.125,0.125c-0.042,0.041-0.084,0.083-0.125,0.125c-0.042,0.041-0.084,0.083-0.125,0.125
		c-0.042,0.041-0.084,0.083-0.125,0.125c-0.042,0.041-0.084,0.083-0.125,0.125c-0.042,0.041-0.084,0.083-0.125,0.125
		c-0.042,0.041-0.084,0.083-0.125,0.125c-0.042,0.041-0.084,0.083-0.125,0.125c-0.042,0.041-0.084,0.083-0.125,0.125
		c-0.042,0.041-0.084,0.083-0.125,0.125c-0.042,0.041-0.084,0.083-0.125,0.125c-0.042,0.041-0.084,0.083-0.125,0.125
		c-0.042,0.041-0.084,0.083-0.125,0.125c-0.042,0.041-0.084,0.083-0.125,0.125c-0.042,0.041-0.084,0.083-0.125,0.125
		c-0.042,0.041-0.084,0.083-0.125,0.125c-0.042,0.041-0.084,0.083-0.125,0.125c-0.042,0.041-0.084,0.083-0.125,0.125
		c-0.042,0.041-0.084,0.083-0.125,0.125c-0.042,0.041-0.084,0.083-0.125,0.125c-0.042,0.041-0.084,0.083-0.125,0.125
		c-0.042,0.041-0.084,0.083-0.125,0.125c-0.042,0.041-0.084,0.083-0.125,0.125c-0.042,0.041-0.084,0.083-0.125,0.125
		c-0.042,0.041-0.084,0.083-0.125,0.125c-0.042,0.041-0.084,0.083-0.125,0.125c-0.042,0.041-0.084,0.083-0.125,0.125
		c-0.042,0.041-0.084,0.083-0.125,0.125c-0.042,0.041-0.084,0.083-0.125,0.125c-0.042,0.041-0.084,0.083-0.125,0.125
		c-0.042,0.041-0.084,0.083-0.125,0.125c-0.042,0.041-0.084,0.083-0.125,0.125c-0.042,0.041-0.084,0.083-0.125,0.125
		c-0.042,0.041-0.084,0.083-0.125,0.125c-0.042,0.041-0.084,0.083-0.125,0.125c-0.042,0.041-0.084,0.083-0.125,0.125
		c-0.042,0.041-0.084,0.083-0.125,0.125c-0.042,0.041-0.084,0.083-0.125,0.125c-0.042,0.041-0.084,0.083-0.125,0.125
		c-0.042,0.041-0.084,0.083-0.125,0.125c-0.042,0.041-0.084,0.083-0.125,0.125c-0.042,0.041-0.084,0.083-0.125,0.125
		c-0.042,0.041-0.084,0.083-0.125,0.125c-0.042,0.041-0.084,0.083-0.125,0.125c-0.042,0.041-0.084,0.083-0.125,0.125
		c-0.042,0.041-0.084,0.083-0.125,0.125c-0.042,0.041-0.084,0.083-0.125,0.125c-0.042,0.041-0.084,0.083-0.125,0.125
		c-0.042,0.041-0.084,0.083-0.125,0.125c-0.042,0.041-0.084,0.083-0.125,0.125c-0.042,0.041-0.084,0.083-0.125,0.125
		c-0.042,0.041-0.084,0.083-0.125,0.125c-0.042,0.041-0.084,0.083-0.125,0.125c-0.042,0.041-0.084,0.083-0.125,0.125
		c-0.042,0.041-0.084,0.083-0.125,0.125c-0.042,0.041-0.084,0.083-0.125,0.125c-0.042,0.041-0.084,0.083-0.125,0.125
		c-0.042,0.041-0.084,0.083-0.125,0.125c-0.042,0.041-0.084,0.083-0.125,0.125c-0.042,0.041-0.084,0.083-0.125,0.125
		c-0.042,0.041-0.084,0.083-0.125,0.125c-0.042,0.041-0.084,0.083-0.125,0.125c-0.042,0.041-0.084,0.083-0.125,0.125
		c-0.042,0.041-0.084,0.083-0.125,0.125c-0.042,0.041-0.084,0.083-0.125,0.125c-0.042,0.041-0.084,0.083-0.125,0.125
		c-0.042,0.041-0.084,0.083-0.125,0.125c-0.042,0.041-0.084,0.083-0.125,0.125c-0.042,0.041-0.084,0.083-0.125,0.125
		c-0.042,0.041-0.084,0.083-0.125,0.125c-0.042,0.041-0.084,0.083-0.125,0.125c-0.042,0.041-0.084,0.083-0.125,0.125
		c-0.042,0.041-0.084,0.083-0.125,0.125c-0.042,0.041-0.084,0.083-0.125,0.125c-0.042,0.041-0.084,0.083-0.125,0.125
		c-0.042,0.041-0.084,0.083-0.125,0.125c-0.042,0.041-0.084,0.083-0.125,0.125c-0.042,0.041-0.084,0.083-0.125,0.125
		c-0.042,0.041-0.084,0.083-0.125,0.125c-0.042,0.041-0.084,0.083-0.125,0.125c-0.042,0.041-0.084,0.083-0.125,0.125
		c-0.042,0.041-0.084,0.083-0.125,0.125c-0.042,0.041-0.084,0.083-0.125,0.125c-0.042,0.041-0.084,0.083-0.125,0.125
		c-0.042,0.041-0.084,0.083-0.125,0.125c-0.042,0.041-0.084,0.083-0.125,0.125c-0.042,0.041-0.084,0.083-0.125,0.125
		c-0.042,0.041-0.084,0.083-0.125,0.125c-0.042,0.041-0.084,0.083-0.125,0.125c-0.042,0.041-0.084,0.083-0.125,0.125
		c-0.042,0.041-0.084,0.083-0.125,0.125c-0.042,0.041-0.084,0.083-0.125,0.125c-0.042,0.041-0.084,0.083-0.125,0.125
		c-0.042,0.041-0.084,0.083-0.125,0.125c-0.042,0.041-0.084,0.083-0.125,0.125c-0.042,0.041-0.084,0.083-0.125,0.125
		c-0.042,0.041-0.084,0.083-0.125,0.125c-0.042,0.041-0.084,0.083-0.125,0.125c-0.042,0.041-0.084,0.083-0.125,0.125
		c-0.042,0.041-0.084,0.083-0.125,0.125c-0.042,0.041-0.084,0.083-0.125,0.125c-0.042,0.041-0.084,0.083-0.125,0.125
		c-0.042,0.041-0.084,0.083-0.125,0.125c-0.042,0.041-0.084,0.083-0.125,0.125c-0.042,0.041-0.084,0.083-0.125,0.125
		c-0.042,0.041-0.084,0.083-0.125,0.125c-0.042,0.041-0.084,0.083-0.125,0.125c-0.042,0.041-0.084,0.083-0.125,0.125
		c-0.042,0.041-0.084,0.083-0.125,0.125c-0.042,0.041-0.084,0.083-0.125,0.125c-0.042,0.041-0.084,0.083-0.125,0.125
		c-0.042,0.041-0.084,0.083-0.125,0.125c-0.042,0.041-0.084,0.083-0.125,0.125c-0.042,0.041-0.084,0.083-0.125,0.125
		c-0.042,0.041-0.084,0.083-0.125,0.125c-0.042,0.041-0.084,0.083-0.125,0.125c-0.042,0.041-0.084,0.083-0.125,0.125
		c-0.042,0.041-0.084,0.083-0.125,0.125c-0.042,0.041-0.084,0.083-0.125,0.125c-0.042,0.041-0.084,0.083-0.125,0.125
		c-0.042,0.041-0.084,0.083-0.125,0.125c-0.042,0.041-0.084,0.083-0.125,0.125c-0.042,0.041-0.084,0.083-0.125,0.125
		c-0.042,0.041-0.084,0.083-0.125,0.125c-0.042,0.041-0.084,0.083-0.125,0.125c-0.042,0.041-0.084,0.083-0.125,0.125
		c-0.042,0.041-0.084,0.083-0.125,0.125c-0.042,0.041-0.084,0.083-0.125,0.125c-0.042,0.041-0.084,0.083-0.125,0.125
		c-0.042,0.041-0.084,0.083-0.125,0.125c-0.042,0.041-0.084,0.083-0.125,0.125c-0.042,0.041-0.084,0.083-0.125,0.125
		c-0.042,0.041-0.084,0.083-0.125,0.125c-0.042,0.041-0.084,0.083-0.125,0.125c-0.042,0.041-0.084,0.083-0.125,0.125
		c-0.042,0.041-0.084,0.083-0.125,0.125c-0.042,0.041-0.084,0.083-0.125,0.125c-0.042,0.041-0.084,0.083-0.125,0.125
		c-0.042,0.041-0.084,0.083-0.125,0.125c-0.042,0.041-0.084,0.083-0.125,0.125c-0.042,0.041-0.084,0.083-0.125,0.125
		c-0.042,0.041-0.084,0.083-0.125,0.125c-0.042,0.041-0.084,0.083-0.125,0.125c-0.042,0.041-0.084,0.083-0.125,0.125
		c-0.042,0.041-0.084,0.083-0.125,0.125c-0.042,0.041-0.084,0.083-0.125,0.125c-0.042,0.041-0.084,0.083-0.125,0.125
		c-0.042,0.041-0.084,0.083-0.125,0.125c-0.042,0.041-0.084,0.083-0.125,0.125c-0.042,0.041-0.084,0.083-0.125,0.125
		c-0.042,0.041-0.084,0.083-0.125,0.125c-0.042,0.041-0.084,0.083-0.125,0.125c-0.042,0.041-0.084,0.083-0.125,0.125
		c-0.042,0.041-0.084,0.083-0.125,0.125c-0.042,0.041-0.084,0.083-0.125,0.125c-0.042,0.041-0.084,0.083-0.125,0.125
		c-0.042,0.041-0.084,0.083-0.125,0.125c-0.042,0.041-0.084,0.083-0.125,0.125c-0.042,0.041-0.084,0.083-0.125,0.125
		c-0.042,0.041-0.084,0.083-0.125,0.125c-0.042,0.041-0.084,0.083-0.125,0.125c-0.042,0.041-0.084,0.083-0.125,0.125
		c-0.042,0.041-0.084,0.083-0.125,0.125c-0.042,0.041-0.084,0.083-0.125,0.125c-0.042,0.041-0.084,0.083-0.125,0.125
		c-0.042,0.041-0.084,0.083-0.125,0.125c-0.042,0.041-0.084,0.083-0.125,0.125c-0.042,0.041-0.084,0.083-0.125,0.125
		c-0.042,0.041-0.084,0.083-0.125,0.125c-0.042,0.041-0.084,0.083-0.125,0.125c-0.042,0.041-0.084,0.083-0.125,0.125
		c-0.042,0.041-0.084,0.083-0.125,0.125c-0.042,0.041-0.084,0.083-0.125,0.125c-0.042,0.041-0.084,0.083-0.125,0.125
		c-0.042,0.041-0.084,0.083-0.125,0.125c-0.042,0.041-0.084,0.083-0.125,0.125c-0.042,0.041-0.084,0.083-0.125,0.125
		c-0.042,0.041-0.084,0.083-0.125,0.125c-0.042,0.041-0.084,0.083-0.125,0.125c-0.042,0.041-0.084,0.083-0.125,0.125
		c-0.042,0.041-0.084,0.083-0.125,0.125c-0.042,0.041-0.083,0.082-0.124,0.124c-0.042,0.042-0.084,0.083-0.126,0.126
		c-0.042,0.041-0.084,0.083-0.125,0.125c-0.042,0.041-0.084,0.083-0.125,0.125c-0.042,0.041-0.084,0.083-0.125,0.125
		c-0.042,0.041-0.084,0.083-0.125,0.125c-0.042,0.041-0.084,0.083-0.125,0.125c-0.042,0.041-0.084,0.083-0.125,0.125
		c-0.042,0.041-0.084,0.083-0.125,0.125c-0.042,0.041-0.084,0.083-0.125,0.125c-0.042,0.042-0.084,0.083-0.125,0.125
		c-0.042,0.042-0.084,0.083-0.125,0.125c-0.042,0.042-0.084,0.083-0.125,0.125c-0.042,0.042-0.084,0.083-0.125,0.125
		c-0.042,0.042-0.084,0.083-0.125,0.125c-0.042,0.042-0.084,0.083-0.125,0.125c-0.042,0.042-0.084,0.083-0.125,0.125
		c-0.042,0.042-0.084,0.083-0.125,0.125c-0.042,0.042-0.084,0.083-0.125,0.125c-0.042,0.042-0.084,0.083-0.125,0.125
		c-0.042,0.042-0.084,0.083-0.125,0.125c-0.042,0.042-0.084,0.083-0.125,0.125c-0.042,0.042-0.084,0.083-0.125,0.125
		c-0.042,0.042-0.084,0.083-0.125,0.125c-0.042,0.042-0.084,0.083-0.125,0.125c-0.042,0.042-0.084,0.083-0.125,0.125
		c-0.042,0.042-0.084,0.083-0.125,0.125c-0.042,0.042-0.084,0.083-0.125,0.125c-0.042,0.042-0.084,0.083-0.125,0.125
		c-0.042,0.042-0.084,0.083-0.125,0.125c-0.042,0.042-0.084,0.083-0.125,0.125c-0.042,0.042-0.084,0.083-0.125,0.125
		c-0.042,0.042-0.084,0.083-0.125,0.125c-0.042,0.042-0.084,0.083-0.125,0.125c-0.042,0.042-0.084,0.083-0.125,0.125
		c-0.042,0.042-0.084,0.083-0.125,0.125c-0.042,0.042-0.084,0.083-0.125,0.125c-0.042,0.042-0.084,0.083-0.125,0.125
		c-0.042,0.042-0.084,0.083-0.125,0.125c-0.042,0.042-0.084,0.083-0.125,0.125c-0.042,0.042-0.084,0.083-0.125,0.125
		c-0.042,0.042-0.084,0.083-0.125,0.125c-0.042,0.042-0.084,0.083-0.125,0.125c-0.042,0.042-0.084,0.083-0.125,0.125
		c-0.042,0.042-0.084,0.083-0.125,0.125c-0.042,0.042-0.084,0.083-0.125,0.125c-0.042,0.042-0.084,0.083-0.125,0.125
		c-0.042,0.042-0.084,0.083-0.125,0.125c-0.042,0.042-0.084,0.083-0.125,0.125c-0.042,0.042-0.084,0.083-0.125,0.125
		c-0.042,0.042-0.084,0.083-0.125,0.125c-0.042,0.042-0.084,0.083-0.125,0.125c-0.042,0.042-0.084,0.083-0.125,0.125
		c-0.042,0.042-0.084,0.083-0.125,0.125c-0.042,0.042-0.084,0.083-0.125,0.125c-0.042,0.042-0.084,0.083-0.125,0.125
		c-0.042,0.042-0.084,0.083-0.125,0.125c-0.042,0.042-0.084,0.083-0.125,0.125c-0.042,0.042-0.084,0.083-0.125,0.125
		c-0.042,0.042-0.084,0.083-0.125,0.125c-0.042,0.042-0.084,0.083-0.125,0.125c-0.042,0.042-0.084,0.083-0.125,0.125
		c-0.042,0.042-0.084,0.083-0.125,0.125c-0.042,0.042-0.084,0.083-0.125,0.125c-0.042,0.042-0.084,0.083-0.125,0.125
		c-0.042,0.042-0.084,0.083-0.125,0.125c-0.042,0.042-0.084,0.083-0.125,0.125c-0.042,0.042-0.084,0.083-0.125,0.125
		c-0.042,0.042-0.084,0.083-0.125,0.125c-0.042,0.042-0.084,0.083-0.125,0.125c-0.042,0.042-0.084,0.083-0.125,0.125
		c-0.042,0.042-0.084,0.083-0.125,0.125c-0.042,0.042-0.084,0.083-0.125,0.125c-0.042,0.042-0.084,0.083-0.125,0.125
		c-0.042,0.042-0.084,0.083-0.125,0.125C-25.132,74.499-26,76.396-26,78.5v44.25c0,4.143,3.358,7.25,7.5,7.25h85
		c2.104,0,4.001-0.743,5.363-2.137c0.042-0.042,0.083-0.021,0.125-0.063s0.083-0.052,0.125-0.094s0.083-0.067,0.125-0.109
		s0.083-0.075,0.125-0.117s0.083-0.079,0.125-0.121s0.083-0.081,0.125-0.123s0.083-0.082,0.125-0.124s0.083-0.083,0.125-0.124
		c0.042-0.043,0.083-0.083,0.125-0.125s0.083-0.083,0.125-0.125s0.083-0.083,0.125-0.125s0.083-0.083,0.125-0.125
		s0.083-0.083,0.125-0.125s0.083-0.083,0.125-0.125s0.083-0.083,0.125-0.125s0.083-0.083,0.125-0.125s0.083-0.083,0.125-0.125
		s0.083-0.083,0.125-0.125s0.083-0.083,0.125-0.125s0.083-0.083,0.125-0.125s0.083-0.083,0.125-0.125s0.083-0.083,0.125-0.125
		s0.083-0.083,0.125-0.125s0.083-0.083,0.125-0.125s0.083-0.083,0.125-0.125s0.083-0.083,0.125-0.125s0.083-0.083,0.125-0.125
		s0.083-0.083,0.125-0.125s0.083-0.083,0.125-0.125s0.083-0.083,0.125-0.125s0.083-0.083,0.125-0.125s0.083-0.083,0.125-0.125
		s0.083-0.083,0.125-0.125s0.083-0.083,0.125-0.125s0.083-0.083,0.125-0.125s0.083-0.083,0.125-0.125s0.083-0.083,0.125-0.125
		s0.083-0.083,0.125-0.125s0.083-0.083,0.125-0.125s0.083-0.083,0.125-0.125s0.083-0.083,0.125-0.125s0.083-0.083,0.125-0.125
		s0.083-0.083,0.125-0.125s0.083-0.083,0.125-0.125s0.083-0.083,0.125-0.125s0.083-0.083,0.125-0.125s0.083-0.083,0.125-0.125
		s0.083-0.083,0.125-0.125s0.083-0.083,0.125-0.125s0.083-0.083,0.125-0.125s0.083-0.083,0.125-0.125s0.083-0.083,0.125-0.125
		s0.083-0.083,0.125-0.125s0.083-0.083,0.125-0.125s0.083-0.083,0.125-0.125s0.083-0.083,0.125-0.125s0.083-0.083,0.125-0.125
		s0.083-0.083,0.125-0.125s0.083-0.083,0.125-0.125s0.083-0.083,0.125-0.125s0.083-0.083,0.125-0.125s0.083-0.083,0.125-0.125
		s0.083-0.083,0.125-0.125s0.083-0.083,0.125-0.125s0.083-0.083,0.125-0.125s0.083-0.083,0.125-0.125s0.083-0.083,0.125-0.125
		s0.083-0.083,0.125-0.125s0.083-0.083,0.125-0.125s0.083-0.083,0.125-0.125s0.083-0.083,0.125-0.125s0.083-0.083,0.125-0.125
		s0.083-0.083,0.125-0.125s0.083-0.083,0.125-0.125s0.083-0.083,0.125-0.125s0.083-0.083,0.125-0.125s0.083-0.083,0.125-0.125
		s0.083-0.083,0.125-0.125s0.083-0.083,0.125-0.125s0.083-0.083,0.125-0.125s0.083-0.083,0.125-0.125s0.083-0.083,0.125-0.125
		s0.083-0.083,0.125-0.125s0.083-0.083,0.125-0.125s0.083-0.083,0.125-0.125s0.083-0.083,0.125-0.125s0.083-0.083,0.125-0.125
		s0.083-0.083,0.125-0.125s0.083-0.083,0.125-0.125s0.083-0.083,0.125-0.125s0.083-0.083,0.125-0.125s0.083-0.083,0.125-0.125
		s0.083-0.083,0.125-0.125s0.083-0.083,0.125-0.125s0.083-0.083,0.125-0.125s0.083-0.083,0.125-0.125s0.083-0.083,0.125-0.125
		s0.083-0.083,0.125-0.125s0.083-0.083,0.125-0.125s0.083-0.083,0.125-0.125s0.083-0.083,0.125-0.125s0.083-0.083,0.125-0.125
		s0.083-0.083,0.125-0.125s0.083-0.083,0.125-0.125s0.083-0.083,0.125-0.125s0.083-0.083,0.125-0.125s0.083-0.083,0.125-0.125
		s0.083-0.083,0.125-0.125s0.083-0.083,0.125-0.125s0.083-0.083,0.125-0.125s0.083-0.083,0.125-0.125s0.083-0.083,0.125-0.125
		s0.083-0.083,0.125-0.125s0.083-0.083,0.125-0.125s0.083-0.083,0.125-0.125s0.083-0.083,0.125-0.125s0.083-0.083,0.125-0.125
		s0.083-0.083,0.125-0.125s0.083-0.083,0.125-0.125s0.083-0.083,0.125-0.125s0.083-0.083,0.125-0.125s0.083-0.083,0.125-0.125
		s0.083-0.083,0.125-0.125s0.083-0.083,0.125-0.125s0.083-0.083,0.125-0.125s0.083-0.083,0.125-0.125s0.083-0.083,0.125-0.125
		s0.083-0.083,0.125-0.125s0.083-0.083,0.125-0.125s0.083-0.083,0.125-0.125s0.083-0.083,0.125-0.125s0.083-0.083,0.125-0.125
		s0.083-0.083,0.125-0.125s0.083-0.083,0.125-0.125s0.083-0.083,0.125-0.125s0.083-0.083,0.125-0.125s0.083-0.083,0.125-0.125
		s0.083-0.083,0.125-0.125s0.083-0.083,0.125-0.125s0.083-0.083,0.125-0.125s0.083-0.083,0.125-0.125s0.083-0.083,0.125-0.125
		s0.083-0.083,0.125-0.125s0.083-0.083,0.125-0.125s0.083-0.083,0.125-0.125s0.083-0.083,0.125-0.125s0.083-0.083,0.125-0.125
		s0.083-0.083,0.125-0.125s0.083-0.083,0.125-0.125s0.083-0.083,0.125-0.125s0.083-0.083,0.125-0.125s0.083-0.083,0.125-0.125
		s0.083-0.083,0.125-0.125s0.083-0.083,0.125-0.125s0.083-0.083,0.125-0.125s0.083-0.083,0.125-0.125s0.083-0.083,0.125-0.125
		s0.083-0.083,0.125-0.125s0.083-0.083,0.125-0.125s0.083-0.083,0.125-0.125s0.083-0.083,0.125-0.125s0.083-0.083,0.125-0.125
		s0.083-0.083,0.125-0.125s0.083-0.083,0.125-0.125s0.083-0.083,0.125-0.125s0.083-0.083,0.125-0.125s0.083-0.083,0.125-0.125
		s0.083-0.083,0.125-0.125s0.083-0.083,0.125-0.125s0.083-0.083,0.125-0.125s0.083-0.083,0.125-0.125s0.083-0.083,0.125-0.125
		s0.083-0.083,0.125-0.125s0.083-0.083,0.125-0.125s0.083-0.083,0.125-0.125s0.083-0.083,0.125-0.125s0.083-0.083,0.125-0.125
		s0.083-0.083,0.125-0.125s0.083-0.083,0.125-0.125s0.083-0.083,0.125-0.125s0.083-0.083,0.125-0.125s0.083-0.083,0.125-0.125
		s0.083-0.083,0.125-0.125s0.083-0.083,0.125-0.125s0.083-0.083,0.125-0.125s0.083-0.083,0.125-0.125s0.083-0.083,0.125-0.125
		s0.083-0.083,0.125-0.125s0.083-0.083,0.125-0.125s0.083-0.083,0.125-0.125s0.083-0.083,0.125-0.125s0.083-0.083,0.125-0.125
		s0.083-0.083,0.125-0.125s0.083-0.083,0.125-0.125s0.083-0.083,0.125-0.125s0.083-0.083,0.125-0.125s0.083-0.083,0.125-0.125
		s0.083-0.083,0.125-0.125s0.083-0.083,0.125-0.125s0.083-0.083,0.125-0.125s0.083-0.083,0.125-0.125s0.083-0.083,0.125-0.125
		s0.083-0.083,0.125-0.125s0.083-0.083,0.125-0.125s0.083-0.083,0.125-0.125s0.083-0.083,0.125-0.125s0.083-0.083,0.125-0.125
		s0.083-0.083,0.125-0.125s0.083-0.083,0.125-0.125s0.083-0.083,0.125-0.125s0.083-0.083,0.125-0.125s0.083-0.083,0.125-0.125
		s0.083-0.083,0.125-0.125s0.083-0.083,0.125-0.125s0.083-0.083,0.125-0.125s0.083-0.083,0.125-0.125s0.083-0.083,0.125-0.125
		s0.083-0.083,0.125-0.125s0.083-0.083,0.125-0.125s0.083-0.083,0.125-0.125s0.083-0.083,0.125-0.125s0.083-0.083,0.125-0.125
		s0.083-0.083,0.125-0.125s0.083-0.083,0.125-0.125s0.083-0.083,0.125-0.125s0.083-0.083,0.125-0.125s0.083-0.083,0.125-0.125
		s0.083-0.083,0.125-0.125s0.083-0.083,0.125-0.125s0.083-0.083,0.125-0.125s0.083-0.083,0.125-0.125s0.083-0.083,0.125-0.125
		s0.083-0.083,0.125-0.125s0.083-0.083,0.125-0.125s0.083-0.083,0.125-0.125s0.083-0.083,0.125-0.125s0.083-0.083,0.125-0.125
		s0.083-0.083,0.125-0.125s0.083-0.083,0.125-0.125s0.083-0.083,0.125-0.125s0.083-0.083,0.125-0.125s0.083-0.083,0.125-0.125
		s0.083-0.083,0.125-0.125s0.083-0.083,0.125-0.125s0.083-0.083,0.125-0.125s0.083-0.083,0.125-0.125s0.083-0.083,0.125-0.125
		s0.083-0.083,0.125-0.125s0.083-0.083,0.125-0.125s0.083-0.083,0.125-0.125s0.083-0.083,0.125-0.125s0.083-0.083,0.125-0.125
		s0.083-0.083,0.125-0.125s0.083-0.083,0.125-0.125s0.083-0.083,0.125-0.125s0.083-0.083,0.125-0.125s0.083-0.083,0.125-0.125
		s0.083-0.083,0.125-0.125s0.083-0.083,0.125-0.125s0.083-0.083,0.125-0.125s0.083-0.083,0.125-0.125s0.083-0.083,0.125-0.125
		s0.083-0.083,0.125-0.125s0.083-0.083,0.125-0.125s0.083-0.083,0.125-0.125s0.083-0.083,0.125-0.125s0.083-0.083,0.125-0.125
		s0.083-0.083,0.125-0.125s0.083-0.083,0.125-0.125s0.083-0.083,0.125-0.125s0.083-0.083,0.125-0.125s0.083-0.083,0.125-0.125
		s0.083-0.083,0.125-0.125s0.083-0.083,0.125-0.125s0.083-0.083,0.125-0.125s0.083-0.083,0.125-0.125s0.083-0.083,0.125-0.125
		s0.083-0.083,0.125-0.125s0.083-0.083,0.125-0.125s0.083-0.083,0.125-0.125s0.083-0.083,0.125-0.125s0.083-0.083,0.125-0.125
		s0.083-0.083,0.125-0.125s0.083-0.083,0.125-0.125s0.083-0.083,0.125-0.125s0.083-0.083,0.125-0.125s0.083-0.083,0.125-0.125
		s0.083-0.083,0.125-0.125s0.083-0.083,0.125-0.125s0.083-0.083,0.125-0.125s0.083-0.083,0.125-0.125s0.083-0.083,0.125-0.125
		s0.083-0.083,0.125-0.125s0.083-0.083,0.125-0.125s0.083-0.083,0.125-0.125s0.083-0.083,0.125-0.125s0.083-0.083,0.125-0.125
		s0.083-0.083,0.125-0.125s0.083-0.083,0.125-0.125s0.083-0.083,0.125-0.125s0.083-0.083,0.125-0.125s0.083-0.083,0.125-0.125
		s0.083-0.083,0.125-0.125s0.083-0.083,0.125-0.125s0.083-0.083,0.125-0.125s0.083-0.083,0.125-0.125s0.083-0.083,0.125-0.125
		s0.083-0.083,0.125-0.125s0.083-0.083,0.125-0.125s0.083-0.083,0.125-0.125s0.083-0.083,0.125-0.125s0.083-0.083,0.125-0.125
		s0.083-0.083,0.125-0.125s0.083-0.083,0.125-0.125s0.083-0.083,0.125-0.125s0.083-0.083,0.125-0.125s0.083-0.083,0.125-0.125
		s0.083-0.083,0.125-0.125s0.083-0.083,0.125-0.125c1.394-1.362,2.262-3.26,2.262-5.363V38.5C114,34.358,110.643,31,106.5,31z"/>
</g>
<g>
	<path fill="#FFFFFF" d="M114,38.5c0-4.142-3.357-7.5-7.5-7.5h-85c-4.142,0-7.5,3.358-7.5,7.5v44c0,4.143,3.358,7.5,7.5,7.5h85
		c4.143,0,7.5-3.357,7.5-7.5V38.5z M38.114,71.773l-5.399-19.35c-1.866-1.035-3.995-1.625-6.376-2.202L26.414,50h9.794
		c1.318,0,2.385,0.229,2.752,1.639l2.127,10.118l0.635,3.26L47.667,50h6.432l-9.56,22L38.114,71.773z M58.827,72H52.76l3.794-22
		h6.074L58.827,72z M69.396,72.123c-2.725-0.027-5.348-0.566-6.764-1.188l0.853-4.988l0.781,0.354
		c1.994,0.833,3.285,1.169,5.714,1.169c1.746,0,3.618-0.681,3.636-2.175c0.01-0.975-0.785-1.671-3.149-2.763
		c-2.304-1.065-5.354-2.852-5.32-6.052c0.037-4.331,4.264-7.352,10.264-7.352c2.354,0,4.24,0.484,5.442,0.936l-0.822,4.829
		l-0.547-0.257c-1.118-0.452-2.559-0.885-4.543-0.854c-2.378,0-3.479,0.99-3.479,1.916c-0.014,1.044,1.288,1.731,3.411,2.762
		c3.502,1.591,5.12,3.519,5.096,6.052C79.922,69.137,75.78,72.123,69.396,72.123z M95.703,72c0,0-0.559-2.658-0.738-3.438
		c-0.887,0-7.08,0.039-7.777,0.039C86.951,69.205,85.91,72,85.91,72h-6.376l9.017-20.284C89.189,50.265,90.276,50,91.73,50h4.691
		l4.917,22H95.703z"/>
	<path fill="#FFFFFF" d="M92.159,55.541c-0.307,0.836-0.84,2.238-0.806,2.179c0,0-1.916,4.78-2.419,6.28h5.042
		c-0.245-1.25-1.407-6.486-1.407-6.486L92.159,55.541z"/>
</g>
</svg>
