<?xml version="1.0" encoding="utf-8"?>
<!-- Generator: Adobe Illustrator 16.0.3, SVG Export Plug-In . SVG Version: 6.00 Build 0)  -->
<!DOCTYPE svg PUBLIC "-//W3C//DTD SVG 1.1//EN" "http://www.w3.org/Graphics/SVG/1.1/DTD/svg11.dtd">
<svg version="1.1" id="Layer_1" xmlns="http://www.w3.org/2000/svg" xmlns:xlink="http://www.w3.org/1999/xlink" x="0px" y="0px"
	 width="128px" height="128px" viewBox="0 0 128 128" enable-background="new 0 0 128 128" xml:space="preserve">
<path fill="#444953" class="bg" d="M128,25c0-13.807-11.193-25-25-25H25C11.193,0,0,11.193,0,25v78c0,13.807,11.193,25,25,25h78
	c13.807,0,25-11.193,25-25V25z"/>
<g>
	<g>
		<defs>
			<path id="SVGID_1_" d="M128,25c0-13.807-11.193-25-25-25H25C11.193,0,0,11.193,0,25v78c0,13.807,11.193,25,25,25h78
				c13.807,0,25-11.193,25-25V25z"/>
		</defs>
		<clipPath id="SVGID_2_">
			<use xlink:href="#SVGID_1_"  overflow="visible"/>
		</clipPath>
		<path clip-path="url(#SVGID_2_)" fill="#353A42" class="shadow" enable-background="new    " d="M92,37L92,37L92,37L92,37L92,37L92,37L92,37v-1h1
			l0,0l0,0l0,0l0,0l0,0l0,0l0,0l0,0l0,0l0,0V24c0-1.38-0.949-2-2.329-2h-53.5c-0.715,0-1.335,0.055-1.771,0.537
			c-0.043,0.041-0.085-0.044-0.125,0c-0.043,0.041-0.085,0.019-0.125,0.063c-0.043,0.041-0.085,0.05-0.125,0.094
			c-0.043,0.041-0.085,0.065-0.125,0.109c-0.043,0.041-0.085,0.073-0.125,0.117c-0.043,0.041-0.085,0.077-0.125,0.121
			c-0.043,0.041-0.085,0.079-0.125,0.123c-0.043,0.041-0.085,0.08-0.125,0.124c-0.043,0.041-0.085,0.081-0.125,0.125
			c-0.043,0.041-0.085,0.081-0.125,0.125c-0.043,0.041-0.085,0.081-0.125,0.125c-0.043,0.041-0.085,0.081-0.125,0.125
			c-0.043,0.041-0.085,0.081-0.125,0.125c-0.043,0.041-0.085,0.081-0.125,0.125c-0.043,0.041-0.085,0.081-0.125,0.125
			c-0.043,0.041-0.085,0.081-0.125,0.125c-0.043,0.041-0.085,0.081-0.125,0.125c-0.043,0.041-0.085,0.081-0.125,0.125
			c-0.043,0.041-0.085,0.081-0.125,0.125c-0.043,0.041-0.085,0.081-0.125,0.125c-0.043,0.041-0.085,0.081-0.125,0.125
			c-0.043,0.041-0.085,0.081-0.125,0.125c-0.043,0.041-0.085,0.081-0.125,0.125c-0.043,0.041-0.085,0.081-0.125,0.125
			c-0.043,0.041-0.085,0.081-0.125,0.125c-0.043,0.041-0.085,0.081-0.125,0.125c-0.043,0.041-0.085,0.081-0.125,0.125
			c-0.043,0.041-0.085,0.081-0.125,0.125c-0.043,0.041-0.085,0.081-0.125,0.125c-0.043,0.041-0.085,0.081-0.125,0.125
			c-0.043,0.041-0.085,0.081-0.125,0.125c-0.043,0.041-0.085,0.081-0.125,0.125c-0.043,0.041-0.085,0.081-0.125,0.125
			c-0.043,0.041-0.085,0.081-0.125,0.125c-0.043,0.041-0.085,0.081-0.125,0.125c-0.043,0.041-0.085,0.081-0.125,0.125
			c-0.043,0.041-0.085,0.081-0.125,0.125c-0.043,0.041-0.085,0.081-0.125,0.125c-0.043,0.041-0.085,0.081-0.125,0.125
			c-0.043,0.041-0.085,0.081-0.125,0.125c-0.043,0.041-0.085,0.081-0.125,0.125c-0.043,0.041-0.085,0.081-0.125,0.125
			c-0.043,0.041-0.085,0.081-0.125,0.125c-0.043,0.041-0.085,0.081-0.125,0.125c-0.043,0.041-0.085,0.081-0.125,0.125
			c-0.043,0.041-0.085,0.081-0.125,0.125c-0.043,0.041-0.085,0.081-0.125,0.125c-0.043,0.041-0.085,0.081-0.125,0.125
			c-0.043,0.041-0.085,0.081-0.125,0.125c-0.043,0.041-0.085,0.081-0.125,0.125c-0.043,0.041-0.085,0.081-0.125,0.125
			c-0.043,0.041-0.085,0.081-0.125,0.125c-0.043,0.041-0.085,0.081-0.125,0.125c-0.043,0.041-0.085,0.081-0.125,0.125
			c-0.043,0.041-0.085,0.081-0.125,0.125c-0.043,0.041-0.085,0.081-0.125,0.125c-0.043,0.041-0.085,0.081-0.125,0.125
			c-0.043,0.041-0.085,0.081-0.125,0.125c-0.043,0.041-0.085,0.081-0.125,0.125c-0.043,0.041-0.085,0.081-0.125,0.125
			c-0.043,0.041-0.085,0.081-0.125,0.125c-0.043,0.041-0.085,0.081-0.125,0.125c-0.043,0.041-0.085,0.081-0.125,0.125
			c-0.043,0.041-0.085,0.081-0.125,0.125c-0.043,0.041-0.085,0.081-0.125,0.125c-0.043,0.041-0.085,0.081-0.125,0.125
			c-0.043,0.041-0.085,0.081-0.125,0.125c-0.043,0.041-0.085,0.081-0.125,0.125c-0.043,0.041-0.085,0.081-0.125,0.125
			c-0.043,0.041-0.085,0.081-0.125,0.125c-0.043,0.041-0.085,0.081-0.125,0.125c-0.043,0.041-0.085,0.081-0.125,0.125
			c-0.043,0.041-0.085,0.081-0.125,0.125c-0.043,0.041-0.085,0.081-0.125,0.125c-0.043,0.041-0.085,0.081-0.125,0.125
			c-0.043,0.041-0.085,0.081-0.125,0.125c-0.043,0.041-0.085,0.081-0.125,0.125c-0.043,0.041-0.085,0.081-0.125,0.125
			c-0.043,0.041-0.085,0.081-0.125,0.125c-0.043,0.041-0.085,0.081-0.125,0.125c-0.043,0.041-0.085,0.081-0.125,0.125
			c-0.043,0.041-0.085,0.081-0.125,0.125c-0.043,0.041-0.085,0.081-0.125,0.125c-0.043,0.041-0.085,0.081-0.125,0.125
			c-0.043,0.041-0.085,0.081-0.125,0.125c-0.043,0.041-0.085,0.081-0.125,0.125c-0.043,0.041-0.085,0.081-0.125,0.125
			c-0.043,0.041-0.085,0.081-0.125,0.125c-0.043,0.041-0.085,0.081-0.125,0.125c-0.043,0.041-0.085,0.081-0.125,0.125
			c-0.043,0.041-0.085,0.081-0.125,0.125c-0.043,0.041-0.085,0.081-0.125,0.125c-0.043,0.041-0.085,0.081-0.125,0.125
			c-0.043,0.041-0.085,0.081-0.125,0.125c-0.043,0.041-0.085,0.081-0.125,0.125c-0.043,0.041-0.085,0.081-0.125,0.125
			c-0.043,0.041-0.085,0.081-0.125,0.125c-0.043,0.041-0.085,0.081-0.125,0.125c-0.043,0.041-0.085,0.081-0.125,0.125
			c-0.043,0.041-0.085,0.081-0.125,0.125c-0.043,0.041-0.085,0.081-0.125,0.125c-0.043,0.041-0.085,0.081-0.125,0.125
			c-0.043,0.041-0.085,0.081-0.125,0.125c-0.043,0.041-0.085,0.081-0.125,0.125c-0.043,0.041-0.085,0.081-0.125,0.125
			c-0.043,0.041-0.085,0.081-0.125,0.125c-0.043,0.041-0.085,0.081-0.125,0.125c-0.043,0.041-0.085,0.081-0.125,0.125
			c-0.043,0.041-0.085,0.081-0.125,0.125c-0.043,0.041-0.085,0.081-0.125,0.125c-0.043,0.041-0.085,0.081-0.125,0.125
			c-0.043,0.041-0.085,0.081-0.125,0.125c-0.043,0.041-0.085,0.081-0.125,0.125c-0.043,0.041-0.085,0.081-0.125,0.125
			c-0.043,0.041-0.085,0.081-0.125,0.125c-0.043,0.041-0.085,0.081-0.125,0.125c-0.043,0.041-0.085,0.081-0.125,0.125
			c-0.043,0.041-0.085,0.081-0.125,0.125c-0.043,0.041-0.085,0.081-0.125,0.125c-0.043,0.041-0.085,0.081-0.125,0.125
			c-0.043,0.041-0.085,0.081-0.125,0.125c-0.043,0.041-0.085,0.081-0.125,0.125c-0.043,0.041-0.085,0.081-0.125,0.125
			c-0.043,0.041-0.085,0.081-0.125,0.125c-0.043,0.041-0.085,0.081-0.125,0.125c-0.043,0.041-0.085,0.081-0.125,0.125
			c-0.043,0.041-0.085,0.081-0.125,0.125c-0.043,0.041-0.085,0.081-0.125,0.125c-0.043,0.041-0.085,0.081-0.125,0.125
			c-0.043,0.041-0.085,0.081-0.125,0.125c-0.043,0.041-0.085,0.081-0.125,0.125c-0.043,0.041-0.085,0.081-0.125,0.125
			c-0.043,0.041-0.085,0.081-0.125,0.125c-0.043,0.041-0.085,0.081-0.125,0.125c-0.043,0.041-0.085,0.081-0.125,0.125
			c-0.043,0.041-0.085,0.081-0.125,0.125c-0.043,0.041-0.085,0.081-0.125,0.125c-0.043,0.041-0.085,0.081-0.125,0.125
			c-0.043,0.041-0.085,0.081-0.125,0.125c-0.043,0.041-0.085,0.081-0.125,0.125c-0.043,0.041-0.085,0.081-0.125,0.125
			c-0.043,0.041-0.085,0.081-0.125,0.125c-0.043,0.041-0.085,0.081-0.125,0.125c-0.043,0.041-0.085,0.081-0.125,0.125
			c-0.043,0.041-0.085,0.081-0.125,0.125c-0.043,0.041-0.085,0.081-0.125,0.125c-0.043,0.041-0.085,0.081-0.125,0.125
			c-0.043,0.041-0.085,0.081-0.125,0.125c-0.043,0.041-0.085,0.081-0.125,0.125c-0.043,0.041-0.085,0.081-0.125,0.125
			c-0.043,0.041-0.085,0.081-0.125,0.125c-0.043,0.041-0.085,0.081-0.125,0.125c-0.043,0.041-0.085,0.081-0.125,0.125
			c-0.043,0.041-0.085,0.081-0.125,0.125c-0.043,0.041-0.085,0.081-0.125,0.125c-0.043,0.041-0.085,0.081-0.125,0.125
			c-0.043,0.041-0.085,0.081-0.125,0.125c-0.043,0.041-0.085,0.081-0.125,0.125c-0.043,0.041-0.085,0.081-0.125,0.125
			c-0.043,0.041-0.085,0.081-0.125,0.125c-0.043,0.041-0.085,0.081-0.125,0.125c-0.043,0.041-0.085,0.081-0.125,0.125
			c-0.043,0.041-0.085,0.081-0.125,0.125c-0.043,0.041-0.085,0.081-0.125,0.125c-0.043,0.041-0.085,0.081-0.125,0.125
			c-0.043,0.041-0.085,0.081-0.125,0.125c-0.043,0.041-0.085,0.081-0.125,0.125c-0.043,0.041-0.085,0.081-0.125,0.125
			c-0.043,0.041-0.085,0.081-0.125,0.125c-0.043,0.041-0.085,0.081-0.125,0.125c-0.043,0.041-0.085,0.081-0.125,0.125
			c-0.043,0.041-0.085,0.081-0.125,0.125c-0.043,0.041-0.085,0.081-0.125,0.125c-0.043,0.041-0.085,0.081-0.125,0.125
			c-0.043,0.041-0.085,0.081-0.125,0.125c-0.043,0.041-0.085,0.081-0.125,0.125c-0.043,0.041-0.085,0.081-0.125,0.125
			c-0.043,0.041-0.085,0.081-0.125,0.125c-0.043,0.041-0.085,0.081-0.125,0.125c-0.043,0.041-0.085,0.081-0.125,0.125
			c-0.043,0.041-0.085,0.081-0.125,0.125c-0.043,0.041-0.085,0.081-0.125,0.125c-0.043,0.041-0.085,0.081-0.125,0.125
			c-0.043,0.041-0.085,0.081-0.125,0.125c-0.043,0.041-0.085,0.081-0.125,0.125c-0.043,0.041-0.085,0.081-0.125,0.125
			c-0.043,0.041-0.085,0.081-0.125,0.125c-0.043,0.041-0.085,0.081-0.125,0.125c-0.043,0.041-0.085,0.081-0.125,0.125
			c-0.043,0.041-0.085,0.081-0.125,0.125c-0.043,0.041-0.085,0.081-0.125,0.125c-0.043,0.041-0.085,0.081-0.125,0.125
			c-0.043,0.041-0.085,0.081-0.125,0.125c-0.043,0.041-0.085,0.081-0.125,0.125c-0.043,0.041-0.085,0.081-0.125,0.125
			c-0.043,0.041-0.085,0.081-0.125,0.125c-0.043,0.041-0.085,0.081-0.125,0.125c-0.043,0.041-0.085,0.081-0.125,0.125
			c-0.043,0.041-0.085,0.081-0.125,0.125c-0.043,0.041-0.085,0.081-0.125,0.125c-0.043,0.041-0.085,0.081-0.125,0.125
			c-0.043,0.041-0.085,0.081-0.125,0.125c-0.043,0.041-0.085,0.081-0.125,0.125c-0.043,0.04-0.085,0.08-0.125,0.124
			c-0.043,0.041-0.085,0.081-0.125,0.125c-0.043,0.041-0.085,0.081-0.125,0.125c-0.043,0.041-0.085,0.081-0.125,0.125
			C9.482,48.203,9.44,48.243,9.4,48.287c-0.043,0.041-0.085,0.081-0.125,0.125c-0.043,0.041-0.085,0.081-0.125,0.125
			c-0.043,0.041-0.085,0.081-0.125,0.125C8.982,48.703,8.94,48.743,8.9,48.787c-0.043,0.041-0.085,0.081-0.125,0.125
			c-0.043,0.041-0.085,0.081-0.125,0.125c-0.043,0.041-0.085,0.081-0.125,0.125C8.482,49.203,8.44,49.243,8.4,49.287
			c-0.043,0.041-0.085,0.081-0.125,0.125c-0.043,0.041-0.085,0.081-0.125,0.125c-0.043,0.041-0.085,0.081-0.125,0.125
			C7.982,49.703,7.94,49.743,7.9,49.787c-0.043,0.041-0.085,0.081-0.125,0.125c-0.043,0.041-0.085,0.081-0.125,0.125
			c-0.043,0.041-0.085,0.081-0.125,0.125C7.482,50.203,7.44,50.243,7.4,50.287c-0.043,0.041-0.085,0.081-0.125,0.125
			c-0.043,0.041-0.085,0.081-0.125,0.125c-0.043,0.041-0.085,0.081-0.125,0.125C6.982,50.703,6.94,50.743,6.9,50.787
			c-0.043,0.041-0.085,0.081-0.125,0.125c-0.043,0.041-0.085,0.081-0.125,0.125c-0.043,0.041-0.085,0.081-0.125,0.125
			C6.482,51.203,6.44,51.243,6.4,51.287c-0.043,0.041-0.085,0.081-0.125,0.125c-0.043,0.041-0.085,0.081-0.125,0.125
			c-0.043,0.041-0.085,0.081-0.125,0.125C5.982,51.703,5.94,51.743,5.9,51.787c-0.043,0.041-0.085,0.081-0.125,0.125
			c-0.043,0.041-0.085,0.081-0.125,0.125c-0.043,0.041-0.085,0.081-0.125,0.125C5.482,52.203,5.44,52.243,5.4,52.287
			c-0.043,0.041-0.085,0.081-0.125,0.125c-0.043,0.041-0.085,0.081-0.125,0.125c-0.043,0.041-0.085,0.081-0.125,0.125
			C4.982,52.703,4.94,52.743,4.9,52.787c-0.043,0.041-0.085,0.081-0.125,0.125c-0.043,0.041-0.085,0.081-0.125,0.125
			c-0.043,0.041-0.085,0.081-0.125,0.125C4.482,53.203,4.44,53.243,4.4,53.287c-0.043,0.041-0.085,0.081-0.125,0.125
			c-0.043,0.041-0.085,0.081-0.125,0.125c-0.043,0.041-0.085,0.081-0.125,0.125C3.982,53.703,3.94,53.743,3.9,53.787
			c-0.043,0.041-0.085,0.081-0.125,0.125c-0.043,0.041-0.085,0.081-0.125,0.125c-0.043,0.041-0.085,0.081-0.125,0.125
			C3.482,54.203,3.44,54.243,3.4,54.287c-0.043,0.041-0.085,0.081-0.125,0.125c-0.043,0.041-0.085,0.081-0.125,0.125
			c-0.043,0.041-0.085,0.081-0.125,0.125C2.982,54.703,2.94,54.743,2.9,54.787c-0.043,0.041-0.085,0.081-0.125,0.125
			c-0.043,0.041-0.085,0.081-0.125,0.125c-0.043,0.041-0.085,0.081-0.125,0.125C2.482,55.203,2.44,55.243,2.4,55.287
			c-0.043,0.041-0.085,0.081-0.125,0.125c-0.043,0.041-0.085,0.081-0.125,0.125c-0.043,0.041-0.085,0.081-0.125,0.125
			C1.982,55.703,1.94,55.743,1.9,55.787c-0.043,0.041-0.085,0.081-0.125,0.125c-0.043,0.041-0.085,0.081-0.125,0.125
			c-0.043,0.041-0.085,0.081-0.125,0.125C1.482,56.203,1.44,56.243,1.4,56.287c-0.043,0.041-0.085,0.081-0.125,0.125
			c-0.043,0.041-0.085,0.081-0.125,0.125c-0.043,0.041-0.085,0.081-0.125,0.125C0.982,56.703,0.94,56.743,0.9,56.787
			c-0.043,0.041-0.085,0.081-0.125,0.125c-0.043,0.041-0.085,0.081-0.125,0.125c-0.043,0.041-0.085,0.081-0.125,0.125
			C0.482,57.203,0.44,57.243,0.4,57.287c-0.043,0.041-0.085,0.081-0.125,0.125c-0.043,0.041-0.085,0.081-0.125,0.125
			c-0.043,0.041-0.085,0.081-0.125,0.125c-0.043,0.041-0.085,0.081-0.125,0.125c-0.043,0.041-0.085,0.081-0.125,0.125
			c-0.043,0.041-0.085,0.081-0.125,0.125c-0.043,0.041-0.085,0.081-0.125,0.125c-0.043,0.041-0.085,0.081-0.125,0.125
			c-0.043,0.041-0.085,0.081-0.125,0.125c-0.043,0.041-0.085,0.081-0.125,0.125c-0.043,0.041-0.085,0.081-0.125,0.125
			c-0.043,0.041-0.085,0.081-0.125,0.125c-0.043,0.041-0.085,0.081-0.125,0.125c-0.043,0.041-0.085,0.081-0.125,0.125
			c-0.043,0.041-0.085,0.081-0.125,0.125c-0.043,0.041-0.085,0.081-0.125,0.125c-0.043,0.041-0.085,0.081-0.125,0.125
			c-0.043,0.041-0.085,0.081-0.125,0.125c-0.043,0.041-0.21,0.081-0.25,0.125C-2.578,60.119-3,60.77-3,61.5V73h1l0,0l0,0v1l0,0l0,0
			l0,0l0,0l0,0l0,0l0,0l0,0l0,0l0,0l0,0l0,0h-1l0,0l0,0v1l0,0v56.5c0,1.38,1.291,2.5,2.671,2.5h53.5c0.728,0,1.4-0.316,1.878-0.814
			c0.044-0.039,0.084-0.082,0.125-0.125c0.044-0.039,0.084-0.082,0.125-0.125c0.044-0.039,0.084-0.082,0.125-0.125
			c0.044-0.039,0.084-0.082,0.125-0.125c0.044-0.039,0.084-0.082,0.125-0.125c0.044-0.039,0.084-0.082,0.125-0.125
			c0.044-0.039,0.084-0.082,0.125-0.125c0.044-0.039,0.084-0.082,0.125-0.125c0.044-0.039,0.084-0.082,0.125-0.125
			c0.044-0.039,0.084-0.082,0.125-0.125c0.044-0.039,0.084-0.082,0.125-0.125c0.044-0.039,0.084-0.082,0.125-0.125
			c0.044-0.039,0.084-0.082,0.125-0.125c0.044-0.039,0.084-0.082,0.125-0.125c0.044-0.039,0.084-0.082,0.125-0.125
			c0.044-0.039,0.084-0.082,0.125-0.125c0.044-0.039,0.084-0.082,0.125-0.125c0.044-0.039,0.084-0.082,0.125-0.125
			c0.044-0.039,0.084-0.082,0.125-0.125c0.044-0.039,0.084-0.082,0.125-0.125c0.044-0.039,0.084-0.082,0.125-0.125
			c0.044-0.039,0.084-0.082,0.125-0.125c0.044-0.039,0.084-0.082,0.125-0.125c0.044-0.039,0.084-0.082,0.125-0.125
			c0.044-0.039,0.084-0.082,0.125-0.125c0.044-0.039,0.084-0.082,0.125-0.125c0.044-0.039,0.084-0.082,0.125-0.125
			c0.044-0.039,0.084-0.082,0.125-0.125c0.044-0.039,0.084-0.082,0.125-0.125c0.044-0.039,0.084-0.082,0.125-0.125
			c0.044-0.039,0.084-0.082,0.125-0.125c0.044-0.039,0.084-0.082,0.125-0.125c0.044-0.039,0.084-0.082,0.125-0.125
			c0.044-0.039,0.084-0.082,0.125-0.125c0.044-0.039,0.084-0.082,0.125-0.125c0.044-0.039,0.084-0.082,0.125-0.125
			c0.044-0.039,0.084-0.082,0.125-0.125c0.044-0.039,0.084-0.082,0.125-0.125c0.044-0.039,0.084-0.082,0.125-0.125
			c0.044-0.039,0.084-0.082,0.125-0.125c0.044-0.039,0.084-0.082,0.125-0.125c0.044-0.039,0.084-0.082,0.125-0.125
			c0.044-0.039,0.084-0.082,0.125-0.125c0.044-0.039,0.084-0.082,0.125-0.125c0.044-0.039,0.084-0.082,0.125-0.125
			c0.044-0.039,0.084-0.082,0.125-0.125c0.044-0.039,0.084-0.082,0.125-0.125c0.044-0.039,0.084-0.082,0.125-0.125
			c0.044-0.039,0.084-0.082,0.125-0.125c0.044-0.039,0.084-0.082,0.125-0.125c0.044-0.039,0.084-0.082,0.125-0.125
			c0.044-0.039,0.084-0.082,0.125-0.125c0.044-0.039,0.084-0.082,0.125-0.125c0.044-0.039,0.084-0.082,0.125-0.125
			c0.044-0.039,0.084-0.082,0.125-0.125c0.044-0.039,0.084-0.082,0.125-0.125c0.044-0.039,0.084-0.082,0.125-0.125
			c0.044-0.039,0.084-0.082,0.125-0.125c0.044-0.039,0.084-0.082,0.125-0.125c0.044-0.039,0.084-0.082,0.125-0.125
			c0.044-0.039,0.084-0.082,0.125-0.125c0.044-0.039,0.084-0.082,0.125-0.125c0.044-0.039,0.084-0.082,0.125-0.125
			c0.044-0.039,0.084-0.082,0.125-0.125c0.044-0.039,0.084-0.082,0.125-0.125c0.044-0.039,0.084-0.082,0.125-0.125
			c0.044-0.039,0.084-0.082,0.125-0.125c0.044-0.039,0.084-0.082,0.125-0.125c0.044-0.039,0.084-0.082,0.125-0.125
			c0.044-0.039,0.084-0.082,0.125-0.125c0.044-0.039,0.084-0.082,0.125-0.125c0.044-0.039,0.084-0.082,0.125-0.125
			c0.044-0.039,0.084-0.082,0.125-0.125c0.044-0.039,0.084-0.082,0.125-0.125c0.044-0.039,0.084-0.082,0.125-0.125
			c0.044-0.039,0.084-0.082,0.125-0.125c0.044-0.039,0.084-0.082,0.125-0.125c0.044-0.039,0.084-0.082,0.125-0.125
			c0.044-0.039,0.084-0.082,0.125-0.125c0.044-0.039,0.084-0.082,0.125-0.125c0.044-0.039,0.084-0.082,0.125-0.125
			c0.044-0.039,0.084-0.082,0.125-0.125c0.044-0.039,0.084-0.082,0.125-0.125c0.044-0.039,0.084-0.082,0.125-0.125
			c0.044-0.039,0.084-0.082,0.125-0.125c0.044-0.039,0.084-0.082,0.125-0.125c0.044-0.039,0.084-0.082,0.125-0.125
			c0.044-0.039,0.084-0.082,0.125-0.125c0.044-0.039,0.084-0.082,0.125-0.125c0.044-0.039,0.084-0.082,0.125-0.125
			c0.044-0.039,0.084-0.082,0.125-0.125c0.044-0.039,0.084-0.082,0.125-0.125c0.044-0.039,0.084-0.082,0.125-0.125
			c0.044-0.039,0.084-0.082,0.125-0.125c0.044-0.039,0.084-0.082,0.125-0.125c0.044-0.039,0.084-0.082,0.125-0.125
			c0.044-0.039,0.084-0.082,0.125-0.125c0.044-0.039,0.084-0.082,0.125-0.125c0.044-0.039,0.084-0.082,0.125-0.125
			c0.044-0.039,0.084-0.082,0.125-0.125c0.044-0.039,0.084-0.082,0.125-0.125c0.044-0.039,0.084-0.082,0.125-0.125
			c0.044-0.039,0.084-0.082,0.125-0.125c0.044-0.039,0.084-0.082,0.125-0.125c0.044-0.039,0.084-0.082,0.125-0.125
			c0.044-0.039,0.084-0.082,0.125-0.125c0.044-0.039,0.084-0.082,0.125-0.125c0.044-0.039,0.084-0.082,0.125-0.125
			c0.044-0.039,0.084-0.082,0.125-0.125c0.044-0.039,0.084-0.082,0.125-0.125c0.044-0.039,0.084-0.082,0.125-0.125
			c0.044-0.039,0.084-0.082,0.125-0.125c0.044-0.039,0.084-0.082,0.125-0.125c0.044-0.039,0.084-0.082,0.125-0.125
			c0.044-0.039,0.084-0.082,0.125-0.125c0.044-0.039,0.084-0.082,0.125-0.125c0.044-0.039,0.084-0.082,0.125-0.125
			c0.044-0.039,0.084-0.082,0.125-0.125c0.044-0.039,0.084-0.082,0.125-0.125c0.044-0.039,0.084-0.082,0.125-0.125
			c0.044-0.039,0.084-0.082,0.125-0.125c0.044-0.039,0.084-0.082,0.125-0.125c0.044-0.039,0.084-0.082,0.125-0.125
			c0.044-0.039,0.084-0.082,0.125-0.125c0.044-0.039,0.084-0.082,0.125-0.125c0.044-0.039,0.084-0.082,0.125-0.125
			c0.044-0.039,0.084-0.082,0.125-0.125c0.044-0.039,0.084-0.082,0.125-0.125c0.044-0.039,0.084-0.082,0.125-0.125
			c0.044-0.039,0.084-0.082,0.125-0.125c0.044-0.039,0.084-0.082,0.125-0.125c0.044-0.039,0.084-0.082,0.125-0.125
			c0.044-0.039,0.084-0.082,0.125-0.125c0.044-0.039,0.084-0.082,0.125-0.125c0.044-0.039,0.084-0.082,0.125-0.125
			c0.044-0.039,0.084-0.082,0.125-0.125c0.044-0.039,0.084-0.082,0.125-0.125c0.044-0.039,0.084-0.082,0.125-0.125
			c0.044-0.039,0.084-0.082,0.125-0.125c0.044-0.039,0.084-0.082,0.125-0.125c0.044-0.039,0.084-0.082,0.125-0.125
			c0.044-0.039,0.084-0.082,0.125-0.125c0.044-0.039,0.084-0.082,0.125-0.125c0.044-0.039,0.084-0.082,0.125-0.125
			c0.044-0.039,0.084-0.082,0.125-0.125c0.044-0.039,0.084-0.082,0.125-0.125c0.044-0.039,0.084-0.082,0.125-0.125
			c0.044-0.039,0.084-0.082,0.125-0.125c0.044-0.039,0.084-0.082,0.125-0.125c0.044-0.039,0.084-0.082,0.125-0.125
			c0.044-0.039,0.084-0.082,0.125-0.125c0.044-0.039,0.084-0.082,0.125-0.125c0.044-0.039,0.084-0.082,0.125-0.125
			c0.044-0.039,0.084-0.082,0.125-0.125c0.044-0.039,0.084-0.082,0.125-0.125c0.044-0.039,0.084-0.082,0.125-0.125
			c0.044-0.039,0.084-0.082,0.125-0.125c0.044-0.039,0.084-0.082,0.125-0.125c0.044-0.039,0.084-0.082,0.125-0.125
			c0.044-0.039,0.084-0.082,0.125-0.125c0.044-0.039,0.084-0.082,0.125-0.125c0.044-0.039,0.084-0.082,0.125-0.125
			c0.044-0.039,0.084-0.082,0.125-0.125c0.044-0.039,0.084-0.082,0.125-0.125c0.044-0.039,0.084-0.082,0.125-0.125
			c0.044-0.039,0.084-0.082,0.125-0.125c0.044-0.039,0.084-0.082,0.125-0.125c0.044-0.039,0.084-0.082,0.125-0.125
			c0.044-0.039,0.084-0.082,0.125-0.125c0.044-0.039,0.084-0.082,0.125-0.125c0.044-0.039,0.084-0.082,0.125-0.125
			c0.044-0.039,0.084-0.082,0.125-0.125c0.044-0.039,0.084-0.082,0.125-0.125c0.044-0.039,0.084-0.082,0.125-0.125
			c0.044-0.039,0.084-0.082,0.125-0.125c0.044-0.039,0.084-0.082,0.125-0.125c0.044-0.039,0.084-0.082,0.125-0.125
			c0.044-0.039,0.084-0.082,0.125-0.125c0.044-0.039,0.084-0.082,0.125-0.125c0.044-0.039,0.084-0.082,0.125-0.125
			c0.044-0.039,0.084-0.082,0.125-0.125c0.044-0.039,0.084-0.082,0.125-0.125c0.044-0.039,0.084-0.082,0.125-0.125
			c0.044-0.039,0.084-0.082,0.125-0.125c0.044-0.039,0.084-0.082,0.125-0.125c0.044-0.039,0.084-0.082,0.125-0.125
			c0.044-0.039,0.084-0.082,0.125-0.125c0.044-0.039,0.084-0.082,0.125-0.125c0.044-0.039,0.084-0.082,0.125-0.125
			c0.044-0.039,0.084-0.082,0.125-0.125c0.044-0.039,0.084-0.082,0.125-0.125c0.044-0.039,0.084-0.082,0.125-0.125
			c0.044-0.039,0.084-0.082,0.125-0.125c0.044-0.039,0.084-0.082,0.125-0.125c0.044-0.039,0.084-0.082,0.125-0.125
			c0.044-0.039,0.084-0.082,0.125-0.125c0.044-0.039,0.084-0.082,0.125-0.125c0.044-0.039,0.084-0.082,0.125-0.125
			c0.044-0.039,0.084-0.082,0.125-0.125c0.044-0.039,0.084-0.082,0.125-0.125c0.044-0.039,0.084-0.082,0.125-0.125
			c0.044-0.039,0.084-0.082,0.125-0.125c0.044-0.039,0.084-0.082,0.125-0.125c0.044-0.039,0.084-0.082,0.125-0.125
			c0.044-0.039,0.084-0.082,0.125-0.125c0.044-0.039,0.084-0.082,0.125-0.125c0.044-0.039,0.084-0.082,0.125-0.125
			c0.044-0.039,0.084-0.082,0.125-0.125c0.044-0.039,0.084-0.082,0.125-0.125c0.044-0.039,0.084-0.082,0.125-0.125
			c0.044-0.039,0.084-0.082,0.125-0.125c0.044-0.039,0.084-0.082,0.125-0.125c0.044-0.039,0.084-0.082,0.125-0.125
			c0.044-0.039,0.084-0.082,0.125-0.125c0.044-0.039,0.084-0.082,0.125-0.125c0.044-0.039,0.084-0.082,0.125-0.125
			c0.044-0.039,0.084-0.082,0.125-0.125c0.044-0.039,0.084-0.082,0.125-0.125c0.044-0.039,0.084-0.082,0.125-0.125
			c0.044-0.039,0.084-0.082,0.125-0.125c0.044-0.039,0.084-0.082,0.125-0.125c0.044-0.039,0.084-0.082,0.125-0.125
			c0.044-0.039,0.084-0.082,0.125-0.125c0.044-0.039,0.084-0.082,0.125-0.125c0.044-0.039,0.084-0.082,0.125-0.125
			c0.044-0.039,0.084-0.082,0.125-0.125c0.044-0.039,0.084-0.082,0.125-0.125c0.044-0.039,0.084-0.082,0.125-0.125
			c0.044-0.039,0.084-0.082,0.125-0.125c0.044-0.039,0.084-0.082,0.125-0.125c0.044-0.039,0.084-0.082,0.125-0.125
			c0.044-0.039,0.084-0.082,0.125-0.125c0.044-0.039,0.084-0.082,0.125-0.125c0.044-0.039,0.084-0.082,0.125-0.125
			c0.044-0.039,0.084-0.082,0.125-0.125c0.044-0.039,0.084-0.082,0.125-0.125c0.044-0.039,0.084-0.082,0.125-0.125
			c0.044-0.039,0.084-0.082,0.125-0.125c0.044-0.039,0.084-0.082,0.125-0.125c0.044-0.039,0.084-0.082,0.125-0.125
			c0.044-0.039,0.084-0.082,0.125-0.125c0.044-0.039,0.084-0.082,0.125-0.125c0.044-0.039,0.084-0.082,0.125-0.125
			c0.044-0.039,0.084-0.082,0.125-0.125c0.044-0.039,0.084-0.082,0.125-0.125c0.044-0.039,0.084-0.082,0.125-0.125
			c0.044-0.039,0.084-0.082,0.125-0.125c0.044-0.039,0.084-0.082,0.125-0.125c0.044-0.039,0.084-0.082,0.125-0.125
			c0.044-0.039,0.084-0.082,0.125-0.125c0.044-0.039,0.084-0.082,0.125-0.125c0.044-0.039,0.084-0.082,0.125-0.125
			c0.044-0.039,0.084-0.082,0.125-0.125c0.044-0.039,0.084-0.082,0.125-0.125c0.044-0.039,0.084-0.082,0.125-0.125
			c0.044-0.039,0.084-0.082,0.125-0.125c0.044-0.039,0.084-0.082,0.125-0.125c0.044-0.039,0.084-0.082,0.125-0.125
			c0.044-0.039,0.084-0.082,0.125-0.125c0.044-0.039,0.084-0.082,0.125-0.125c0.044-0.039,0.084-0.082,0.125-0.125
			c0.044-0.039,0.084-0.082,0.125-0.125c0.044-0.039,0.084-0.082,0.125-0.125c0.044-0.039,0.084-0.082,0.125-0.125
			c0.044-0.039,0.084-0.082,0.125-0.125c0.044-0.039,0.084-0.082,0.125-0.125c0.044-0.039,0.084-0.082,0.125-0.125
			c0.044-0.039,0.084-0.082,0.125-0.125c0.044-0.039,0.084-0.082,0.125-0.125c0.044-0.039,0.084-0.082,0.125-0.125
			c0.044-0.039,0.084-0.082,0.125-0.125c0.044-0.039,0.084-0.082,0.125-0.125c0.044-0.039,0.084-0.082,0.125-0.125
			c0.044-0.039,0.084-0.082,0.125-0.125c0.044-0.039,0.084-0.082,0.125-0.125c0.044-0.039,0.084-0.082,0.125-0.125
			c0.044-0.039,0.084-0.082,0.125-0.125c0.044-0.039,0.084-0.082,0.125-0.125c0.044-0.039,0.084-0.082,0.125-0.125
			c0.044-0.039,0.084-0.082,0.125-0.125c0.044-0.039,0.084-0.082,0.125-0.125c0.044-0.039,0.084-0.082,0.125-0.125
			c0.044-0.039,0.084-0.082,0.125-0.125c0.044-0.039,0.084-0.082,0.125-0.125c0.044-0.039,0.084-0.082,0.125-0.125
			c0.044-0.039,0.084-0.082,0.125-0.125c0.044-0.039,0.084-0.082,0.125-0.125c0.044-0.039,0.084-0.082,0.125-0.125
			c0.044-0.039,0.084-0.082,0.125-0.125c0.044-0.039,0.084-0.082,0.125-0.125c0.044-0.039,0.084-0.082,0.125-0.125
			c0.044-0.039,0.084-0.082,0.125-0.125c0.044-0.039,0.084-0.082,0.125-0.125c0.044-0.039,0.084-0.082,0.125-0.125
			c0.044-0.039,0.084-0.082,0.125-0.125c0.044-0.039,0.084-0.082,0.125-0.125c0.044-0.039,0.084-0.082,0.125-0.125
			c0.044-0.039,0.084-0.082,0.125-0.125c0.044-0.039-0.041-0.082,0-0.125C92.8,95.354,93,94.714,93,94V37H92L92,37L92,37z"/>
	</g>
</g>
<g>
	<path fill="#FFFFFF" d="M63.618,79.5c8.284,0,15-6.716,15-15c0-8.285-6.716-15-15-15c-8.285,0-15,6.715-15,15
		C48.618,72.784,55.333,79.5,63.618,79.5z M63.618,52c6.56,0,11.95,5.08,12.457,11.512c-3.763-2.184-7.416,0.988-12.417,0.988
		c-5.048,0-8.707-3.233-12.502-0.93C51.634,57.11,57.039,52,63.618,52z"/>
	<path fill="#FFFFFF" d="M35,94c0,1.38,0.791,3,2.171,3h53.5C92.051,97,93,95.38,93,94V37H35V94z M45.699,55.856
		c1.918-3.963,5.152-7.24,9.09-9.21c4.092-2.048,8.852-2.621,13.314-1.617c4.324,0.972,8.256,3.414,11.067,6.837
		c2.86,3.481,4.478,7.889,4.539,12.395c0.063,4.519-1.435,8.982-4.211,12.548c-2.718,3.49-6.578,6.033-10.868,7.123
		c-1.605,0.406-3.262,0.611-4.919,0.611c-4.514,0-8.948-1.557-12.473-4.377c-3.457-2.766-5.949-6.66-6.98-10.968
		C43.195,64.748,43.705,59.976,45.699,55.856z"/>
	<path fill="#FFFFFF" d="M90.671,22h-53.5C35.791,22,35,22.62,35,24v12h58V24C93,22.62,92.051,22,90.671,22z M64.615,31.777
		c-0.592,0.95-1.674,1.519-2.792,1.47c-1.111-0.049-2.136-0.708-2.644-1.697C58.132,29.506,59.67,27,61.963,27
		c1.115,0,2.169,0.615,2.721,1.585C65.24,29.57,65.215,30.816,64.615,31.777z M75.615,31.777c-0.592,0.95-1.674,1.519-2.793,1.47
		c-1.11-0.049-2.135-0.708-2.643-1.697C69.132,29.506,70.67,27,72.963,27c1.115,0,2.169,0.615,2.721,1.585
		C76.24,29.57,76.215,30.816,75.615,31.777z M83.963,33.25c-1.117,0-2.17-0.614-2.721-1.585c-0.559-0.984-0.532-2.231,0.066-3.191
		c0.594-0.95,1.674-1.52,2.793-1.471c1.11,0.049,2.135,0.708,2.643,1.698C87.793,30.745,86.255,33.25,83.963,33.25z"/>
</g>
</svg>
