<?xml version="1.0" encoding="utf-8"?>
<!-- Generator: Adobe Illustrator 16.0.3, SVG Export Plug-In . SVG Version: 6.00 Build 0)  -->
<!DOCTYPE svg PUBLIC "-//W3C//DTD SVG 1.1//EN" "http://www.w3.org/Graphics/SVG/1.1/DTD/svg11.dtd">
<svg version="1.1" id="Layer_1" xmlns="http://www.w3.org/2000/svg" xmlns:xlink="http://www.w3.org/1999/xlink" x="0px" y="0px"
	 width="512px" height="512px" viewBox="0 0 512 512" enable-background="new 0 0 512 512" xml:space="preserve">
<g id="Wifi">
	<path fill="#444953" d="M512,100C512,44.771,467.229,0,412,0H100C44.771,0,0,44.771,0,100v312c0,55.229,44.771,100,100,100h312
		c55.229,0,100-44.771,100-100V100z"/>
	<g>
		<g>
			<defs>
				<path id="SVGID_1_" d="M512,99.948C512,44.748,467.061,0,411.853,0H99.964C44.755,0,0,44.748,0,99.948v311.837
					C0,466.984,44.755,512,99.964,512h311.888C467.061,512,512,466.984,512,411.785V99.948z"/>
			</defs>
			<clipPath id="SVGID_2_">
				<use xlink:href="#SVGID_1_"  overflow="visible"/>
			</clipPath>
			<path clip-path="url(#SVGID_2_)" fill="#353A42" enable-background="new    " d="M433.96,170.746
				c-44.384-52.4-109.205-82.459-177.868-82.473C193.756,88.285,134.585,113.066,91,156.843c-0.167,0.167-0.333,0.333-0.5,0.5
				s-0.333,0.333-0.5,0.5s-0.333,0.333-0.5,0.5s-0.333,0.333-0.5,0.5s-0.333,0.333-0.5,0.5s-0.333,0.333-0.5,0.5
				s-0.333,0.333-0.5,0.5s-0.333,0.333-0.5,0.5s-0.333,0.333-0.5,0.5s-0.333,0.333-0.5,0.5s-0.333,0.333-0.5,0.5
				s-0.333,0.333-0.5,0.5s-0.333,0.333-0.5,0.5s-0.333,0.333-0.5,0.5s-0.333,0.333-0.5,0.5s-0.333,0.333-0.5,0.5
				s-0.333,0.333-0.5,0.5s-0.333,0.333-0.5,0.5s-0.333,0.333-0.5,0.5s-0.333,0.333-0.5,0.5s-0.333,0.333-0.5,0.5
				s-0.333,0.333-0.5,0.5s-0.333,0.333-0.5,0.5s-0.333,0.333-0.5,0.5s-0.333,0.333-0.5,0.5s-0.333,0.333-0.5,0.5
				s-0.333,0.333-0.5,0.5s-0.333,0.333-0.5,0.5s-0.333,0.333-0.5,0.5s-0.333,0.333-0.5,0.5s-0.333,0.333-0.5,0.5
				s-0.333,0.333-0.5,0.5s-0.333,0.333-0.5,0.5s-0.333,0.333-0.5,0.5s-0.333,0.333-0.5,0.5s-0.333,0.333-0.5,0.5
				s-0.333,0.333-0.5,0.5s-0.333,0.333-0.5,0.5s-0.333,0.333-0.5,0.5s-0.333,0.333-0.5,0.5s-0.333,0.333-0.5,0.5
				s-0.333,0.333-0.5,0.5s-0.333,0.333-0.5,0.5s-0.333,0.333-0.5,0.5s-0.333,0.333-0.5,0.5s-0.333,0.333-0.5,0.5
				s-0.333,0.333-0.5,0.5s-0.333,0.333-0.5,0.5s-0.333,0.333-0.5,0.5s-0.333,0.333-0.5,0.5s-0.333,0.333-0.5,0.5
				s-0.333,0.333-0.5,0.5s-0.333,0.333-0.5,0.5s-0.333,0.333-0.5,0.5s-0.333,0.333-0.5,0.5s-0.333,0.333-0.5,0.5
				s-0.333,0.333-0.5,0.5s-0.333,0.333-0.5,0.5s-0.333,0.333-0.5,0.5s-0.333,0.333-0.5,0.5s-0.333,0.333-0.5,0.5
				s-0.333,0.333-0.5,0.5s-0.333,0.333-0.5,0.5s-0.333,0.333-0.5,0.5s-0.333,0.333-0.5,0.5s-0.333,0.333-0.5,0.5
				s-0.333,0.333-0.5,0.5s-0.333,0.333-0.5,0.5s-0.333,0.333-0.5,0.5s-0.333,0.333-0.5,0.5s-0.333,0.333-0.5,0.5
				s-0.333,0.333-0.5,0.5s-0.333,0.333-0.5,0.5s-0.333,0.333-0.5,0.5s-0.333,0.333-0.5,0.5s-0.333,0.333-0.5,0.5
				s-0.333,0.333-0.5,0.5s-0.333,0.333-0.5,0.5s-0.333,0.333-0.5,0.5s-0.333,0.333-0.5,0.5s-0.333,0.333-0.5,0.5
				s-0.333,0.333-0.5,0.5s-0.333,0.333-0.5,0.5s-0.333,0.333-0.5,0.5s-0.333,0.333-0.5,0.5s-0.333,0.333-0.5,0.5
				s-0.333,0.333-0.5,0.5s-0.333,0.333-0.5,0.5s-0.333,0.333-0.5,0.5s-0.333,0.333-0.5,0.5s-0.333,0.333-0.5,0.5
				s-0.333,0.333-0.5,0.5s-0.333,0.333-0.5,0.5s-0.333,0.333-0.5,0.5s-0.333,0.333-0.5,0.5s-0.333,0.333-0.5,0.5
				s-0.333,0.333-0.5,0.5s-0.333,0.333-0.5,0.5s-0.333,0.333-0.5,0.5s-0.333,0.333-0.5,0.5s-0.333,0.333-0.5,0.5
				s-0.333,0.333-0.5,0.5s-0.333,0.333-0.5,0.5s-0.333,0.333-0.5,0.5s-0.333,0.333-0.5,0.5s-0.333,0.333-0.5,0.5
				s-0.333,0.333-0.5,0.5s-0.333,0.333-0.5,0.5s-0.333,0.333-0.5,0.5s-0.333,0.333-0.5,0.5s-0.333,0.333-0.5,0.5
				s-0.333,0.333-0.5,0.5s-0.333,0.333-0.5,0.5s-0.333,0.333-0.5,0.5s-0.333,0.333-0.5,0.5s-0.333,0.333-0.5,0.5
				s-0.333,0.333-0.5,0.5s-0.333,0.333-0.5,0.5s-0.333,0.333-0.5,0.5s-0.333,0.333-0.5,0.5s-0.333,0.333-0.5,0.5
				s-0.333,0.333-0.5,0.5s-0.333,0.333-0.5,0.5s-0.333,0.333-0.5,0.5s-0.333,0.333-0.5,0.5s-0.333,0.333-0.5,0.5
				s-0.333,0.333-0.5,0.5s-0.333,0.333-0.5,0.5s-0.333,0.333-0.5,0.5s-0.333,0.333-0.5,0.5s-0.333,0.333-0.5,0.5
				s-0.333,0.333-0.5,0.5s-0.333,0.333-0.5,0.5s-0.333,0.333-0.5,0.5s-0.333,0.333-0.5,0.5s-0.333,0.333-0.5,0.5
				s-0.333,0.333-0.5,0.5s-0.333,0.333-0.5,0.5s-0.333,0.333-0.5,0.5s-0.333,0.333-0.5,0.5s-0.333,0.333-0.5,0.5
				s-0.333,0.333-0.5,0.5s-0.333,0.333-0.5,0.5s-0.333,0.333-0.5,0.5s-0.333,0.333-0.5,0.5s-0.333,0.333-0.5,0.5
				s-0.333,0.333-0.5,0.5s-0.333,0.333-0.5,0.5s-0.333,0.333-0.5,0.5s-0.333,0.333-0.5,0.5s-0.333,0.333-0.5,0.5
				s-0.333,0.333-0.5,0.5s-0.333,0.333-0.5,0.5s-0.333,0.333-0.5,0.5s-0.333,0.333-0.5,0.5s-0.333,0.333-0.5,0.5
				s-0.333,0.333-0.5,0.5s-0.333,0.333-0.5,0.5s-0.333,0.333-0.5,0.5s-0.333,0.333-0.5,0.5s-0.333,0.333-0.5,0.5
				s-0.333,0.333-0.5,0.5s-0.333,0.333-0.5,0.5s-0.333,0.333-0.5,0.5s-0.333,0.333-0.5,0.5s-0.333,0.333-0.5,0.5
				s-0.333,0.333-0.5,0.5s-0.333,0.333-0.5,0.5s-0.333,0.333-0.5,0.5s-0.333,0.333-0.5,0.5s-0.333,0.333-0.5,0.5
				s-0.333,0.333-0.5,0.5s-0.333,0.333-0.5,0.5s-0.333,0.333-0.5,0.5s-0.333,0.333-0.5,0.5s-0.333,0.333-0.5,0.5
				s-0.333,0.333-0.5,0.5s-0.333,0.333-0.5,0.5s-0.333,0.333-0.5,0.5s-0.333,0.333-0.5,0.5s-0.333,0.333-0.5,0.5
				s-0.333,0.333-0.5,0.5s-0.333,0.333-0.5,0.5s-0.333,0.333-0.5,0.5s-0.333,0.333-0.5,0.5s-0.333,0.333-0.5,0.5
				s-0.333,0.333-0.5,0.5s-0.333,0.333-0.5,0.5s-0.333,0.333-0.5,0.5s-0.333,0.333-0.5,0.5s-0.333,0.333-0.5,0.5
				s-0.333,0.333-0.5,0.5s-0.333,0.333-0.5,0.5s-0.333,0.333-0.5,0.5s-0.333,0.333-0.5,0.5s-0.333,0.333-0.5,0.5
				s-0.333,0.333-0.5,0.5s-0.333,0.333-0.5,0.5s-0.333,0.333-0.5,0.5s-0.333,0.333-0.5,0.5s-0.333,0.333-0.5,0.5
				s-0.333,0.333-0.5,0.5s-0.333,0.333-0.5,0.5s-0.333,0.333-0.5,0.5s-0.333,0.333-0.5,0.5s-0.333,0.333-0.5,0.5
				s-0.333,0.333-0.5,0.5s-0.333,0.333-0.5,0.5s-0.333,0.333-0.5,0.5s-0.333,0.333-0.5,0.5s-0.333,0.333-0.5,0.5
				s-0.333,0.333-0.5,0.5s-0.333,0.333-0.5,0.5s-0.333,0.333-0.5,0.5s-0.333,0.333-0.5,0.5s-0.333,0.333-0.5,0.5
				s-0.333,0.333-0.5,0.5s-0.333,0.333-0.5,0.5s-0.333,0.333-0.5,0.5s-0.333,0.333-0.5,0.5s-0.333,0.333-0.5,0.5
				s-0.333,0.333-0.5,0.5s-0.333,0.333-0.5,0.5s-0.333,0.333-0.5,0.5s-0.333,0.333-0.5,0.5s-0.333,0.333-0.5,0.5
				s-0.333,0.333-0.5,0.5s-0.333,0.333-0.5,0.5s-0.333,0.333-0.5,0.5s-0.333,0.333-0.5,0.5s-0.333,0.333-0.5,0.5
				s-0.333,0.333-0.5,0.5s-0.333,0.333-0.5,0.5s-0.333,0.333-0.5,0.5s-0.333,0.333-0.5,0.5s-0.333,0.333-0.5,0.5
				s-0.333,0.333-0.5,0.5s-0.333,0.333-0.5,0.5s-0.333,0.333-0.5,0.5s-0.333,0.333-0.5,0.5s-0.333,0.333-0.5,0.5
				s-0.333,0.333-0.5,0.5s-0.333,0.333-0.5,0.5s-0.333,0.333-0.5,0.5s-0.333,0.333-0.5,0.5s-0.333,0.333-0.5,0.5
				s-0.333,0.333-0.5,0.5s-0.333,0.333-0.5,0.5s-0.333,0.333-0.5,0.5s-0.333,0.333-0.5,0.5s-0.333,0.333-0.5,0.5
				s-0.333,0.333-0.5,0.5s-0.333,0.333-0.5,0.5s-0.333,0.333-0.5,0.5s-0.333,0.333-0.5,0.5s-0.333,0.333-0.5,0.5
				s-0.333,0.333-0.5,0.5s-0.333,0.333-0.5,0.5s-0.333,0.333-0.5,0.5s-0.333,0.333-0.5,0.5s-0.333,0.333-0.5,0.5
				s-0.333,0.333-0.5,0.5s-0.333,0.333-0.5,0.5s-0.333,0.333-0.5,0.5s-0.333,0.333-0.5,0.5s-0.333,0.333-0.5,0.5
				s-0.333,0.333-0.5,0.5s-0.333,0.333-0.5,0.5s-0.333,0.333-0.5,0.5s-0.333,0.333-0.5,0.5s-0.333,0.333-0.5,0.5
				s-0.333,0.333-0.5,0.5s-0.333,0.333-0.5,0.5s-0.333,0.333-0.5,0.5s-0.333,0.333-0.5,0.5s-0.333,0.333-0.5,0.5
				s-0.333,0.333-0.5,0.5s-0.333,0.333-0.5,0.5s-0.333,0.333-0.5,0.5s-0.333,0.333-0.5,0.5s-0.333,0.333-0.5,0.5
				s-0.333,0.333-0.5,0.5s-0.333,0.333-0.5,0.5s-0.333,0.333-0.5,0.5s-0.333,0.333-0.5,0.5s-0.333,0.333-0.5,0.5
				s-0.333,0.333-0.5,0.5s-0.333,0.333-0.5,0.5s-0.333,0.333-0.5,0.5s-0.333,0.333-0.5,0.5s-0.333,0.333-0.5,0.5
				s-0.333,0.333-0.5,0.5s-0.333,0.333-0.5,0.5s-0.333,0.333-0.5,0.5s-0.333,0.333-0.5,0.5s-0.333,0.333-0.5,0.5
				s-0.333,0.333-0.5,0.5s-0.333,0.333-0.5,0.5s-0.333,0.333-0.5,0.5s-0.333,0.333-0.5,0.5s-0.333,0.333-0.5,0.5
				s-0.333,0.333-0.5,0.5s-0.333,0.333-0.5,0.5s-0.333,0.333-0.5,0.5s-0.333,0.333-0.5,0.5s-0.333,0.333-0.5,0.5
				s-0.333,0.333-0.5,0.5s-0.333,0.333-0.5,0.5s-0.333,0.333-0.5,0.5s-0.333,0.333-0.5,0.5s-0.333,0.333-0.5,0.5
				s-0.333,0.333-0.5,0.5s-0.333,0.333-0.5,0.5s-0.333,0.333-0.5,0.5s-0.333,0.333-0.5,0.5s-0.333,0.333-0.5,0.5
				s-0.333,0.333-0.5,0.5s-0.333,0.333-0.5,0.5s-0.333,0.333-0.5,0.5s-0.333,0.333-0.5,0.5s-0.333,0.333-0.5,0.5
				s-0.333,0.333-0.5,0.5s-0.333,0.333-0.5,0.5s-0.333,0.333-0.5,0.5s-0.334,0.335-0.501,0.501s-0.333,0.332-0.499,0.499
				c-0.167,0.167-0.333,0.333-0.5,0.5s-0.333,0.333-0.5,0.5s-0.333,0.333-0.5,0.5s-0.333,0.333-0.5,0.5s-0.333,0.333-0.5,0.5
				s-0.333,0.333-0.5,0.5s-0.333,0.333-0.5,0.5s-0.333,0.333-0.5,0.5s-0.333,0.333-0.5,0.5s-0.333,0.333-0.5,0.5
				s-0.333,0.333-0.5,0.5s-0.333,0.333-0.5,0.5s-0.333,0.333-0.5,0.5s-0.333,0.333-0.5,0.5s-0.333,0.333-0.5,0.5
				s-0.333,0.333-0.5,0.5s-0.333,0.333-0.5,0.5s-0.333,0.333-0.5,0.5s-0.333,0.333-0.5,0.5s-0.333,0.333-0.5,0.5
				s-0.333,0.333-0.5,0.5s-0.333,0.333-0.5,0.5s-0.333,0.333-0.5,0.5s-0.333,0.333-0.5,0.5s-0.333,0.333-0.5,0.5
				s-0.333,0.333-0.5,0.5s-0.333,0.333-0.5,0.5s-0.333,0.333-0.5,0.5s-0.333,0.333-0.5,0.5s-0.333,0.333-0.5,0.5
				s-0.333,0.333-0.5,0.5s-0.333,0.333-0.5,0.5s-0.333,0.333-0.5,0.5s-0.333,0.333-0.5,0.5s-0.333,0.333-0.5,0.5
				s-0.333,0.333-0.5,0.5s-0.333,0.333-0.5,0.5s-0.333,0.333-0.5,0.5s-0.333,0.333-0.5,0.5s-0.333,0.333-0.5,0.5
				s-0.333,0.333-0.5,0.5s-0.333,0.333-0.5,0.5s-0.333,0.333-0.5,0.5s-0.333,0.333-0.5,0.5s-0.333,0.333-0.5,0.5
				s-0.333,0.333-0.5,0.5s-0.333,0.333-0.5,0.5s-0.333,0.333-0.5,0.5s-0.333,0.333-0.5,0.5s-0.333,0.333-0.5,0.5
				s-0.333,0.333-0.5,0.5s-0.333,0.333-0.5,0.5s-0.333,0.333-0.5,0.5s-0.333,0.333-0.5,0.5s-0.333,0.333-0.5,0.5
				s-0.333,0.333-0.5,0.5s-0.333,0.333-0.5,0.5s-0.333,0.333-0.5,0.5s-0.333,0.333-0.5,0.5s-0.333,0.333-0.5,0.5
				s-0.333,0.333-0.5,0.5s-0.333,0.333-0.5,0.5s-0.333,0.333-0.5,0.5s-0.333,0.333-0.5,0.5s-0.333,0.333-0.5,0.5
				s-0.333,0.333-0.5,0.5s-0.333,0.333-0.5,0.5s-0.333,0.333-0.5,0.5s-0.333,0.333-0.5,0.5s-0.333,0.333-0.5,0.5
				s-0.333,0.333-0.5,0.5s-0.333,0.333-0.5,0.5s-0.333,0.333-0.5,0.5s-0.333,0.333-0.5,0.5s-0.333,0.333-0.5,0.5
				s-0.333,0.333-0.5,0.5s-0.333,0.333-0.5,0.5s-0.333,0.333-0.5,0.5s-0.333,0.333-0.5,0.5s-0.333,0.333-0.5,0.5
				s-0.333,0.333-0.5,0.5s-0.333,0.333-0.5,0.5s-0.333,0.333-0.5,0.5s-0.333,0.333-0.5,0.5s-0.333,0.333-0.5,0.5
				s-0.333,0.333-0.5,0.5s-0.333,0.333-0.5,0.5s-0.333,0.333-0.5,0.5s-0.333,0.333-0.5,0.5s-0.333,0.333-0.5,0.5
				s-0.333,0.333-0.5,0.5s-0.333,0.333-0.5,0.5s-0.333,0.333-0.5,0.5s-0.333,0.333-0.5,0.5s-0.333,0.333-0.5,0.5
				s-0.333,0.333-0.5,0.5s-0.333,0.333-0.5,0.5s-0.333,0.333-0.5,0.5s-0.333,0.333-0.5,0.5s-0.333,0.333-0.5,0.5
				s-0.333,0.333-0.5,0.5s-0.333,0.333-0.5,0.5s-0.333,0.333-0.5,0.5s-0.333,0.333-0.5,0.5s-0.333,0.333-0.5,0.5
				s-0.333,0.333-0.5,0.5s-0.333,0.333-0.5,0.5s-0.333,0.333-0.5,0.5s-0.333,0.333-0.5,0.5s-0.333,0.333-0.5,0.5
				s-0.333,0.333-0.5,0.5s-0.333,0.333-0.5,0.5s-0.333,0.333-0.5,0.5s-0.333,0.333-0.5,0.5s-0.333,0.333-0.5,0.5
				s-0.333,0.333-0.5,0.5s-0.333,0.333-0.5,0.5s-0.333,0.333-0.5,0.5s-0.333,0.333-0.5,0.5s-0.333,0.333-0.5,0.5
				s-0.333,0.333-0.5,0.5s-0.333,0.333-0.5,0.5s-0.333,0.333-0.5,0.5s-0.333,0.333-0.5,0.5s-0.333,0.333-0.5,0.5
				s-0.333,0.333-0.5,0.5s-0.333,0.333-0.5,0.5s-0.333,0.333-0.5,0.5s-0.333,0.333-0.5,0.5s-0.333,0.333-0.5,0.5
				s-0.333,0.333-0.5,0.5s-0.333,0.333-0.5,0.5s-0.333,0.333-0.5,0.5s-0.333,0.333-0.5,0.5s-0.333,0.333-0.5,0.5
				s-0.333,0.333-0.5,0.5s-0.333,0.333-0.5,0.5s-0.333,0.333-0.5,0.5s-0.333,0.333-0.5,0.5s-0.333,0.333-0.5,0.5
				s-0.333,0.333-0.5,0.5s-0.333,0.333-0.5,0.5s-0.333,0.333-0.5,0.5s-0.333,0.333-0.5,0.5s-0.333,0.333-0.5,0.5
				s-0.333,0.333-0.5,0.5s-0.333,0.333-0.5,0.5s-0.333,0.333-0.5,0.5s-0.333,0.333-0.5,0.5s-0.333,0.333-0.5,0.5
				s-0.333,0.333-0.5,0.5s-0.333,0.333-0.5,0.5s-0.333,0.333-0.5,0.5s-0.333,0.333-0.5,0.5s-0.333,0.333-0.5,0.5
				s-0.333,0.333-0.5,0.5s-0.333,0.333-0.5,0.5s-0.333,0.333-0.5,0.5s-0.333,0.333-0.5,0.5s-0.333,0.333-0.5,0.5
				s-0.333,0.333-0.5,0.5s-0.333,0.333-0.5,0.5s-0.333,0.333-0.5,0.5s-0.333,0.333-0.5,0.5s-0.333,0.333-0.5,0.5
				s-0.333,0.333-0.5,0.5s-0.333,0.333-0.5,0.5s-0.333,0.333-0.5,0.5s-0.333,0.333-0.5,0.5s-0.333,0.333-0.5,0.5
				s-0.333,0.333-0.5,0.5s-0.333,0.333-0.5,0.5s-0.333,0.333-0.5,0.5s-0.333,0.333-0.5,0.5s-0.333,0.333-0.5,0.5
				s-0.333,0.333-0.5,0.5s-0.333,0.333-0.5,0.5s-0.333,0.333-0.5,0.5s-0.333,0.333-0.5,0.5s-0.333,0.333-0.5,0.5
				s-0.333,0.333-0.5,0.5s-0.333,0.333-0.5,0.5s-0.333,0.333-0.5,0.5s-0.333,0.333-0.5,0.5s-0.333,0.333-0.5,0.5
				s-0.333,0.333-0.5,0.5s-0.333,0.333-0.5,0.5s-0.333,0.333-0.5,0.5s-0.333,0.333-0.5,0.5s-0.333,0.333-0.5,0.5
				s-0.333,0.333-0.5,0.5s-0.333,0.333-0.5,0.5s-0.333,0.333-0.5,0.5c-4.602,4.595-9.033,9.396-13.275,14.403
				c-5.105,6.027-4.36,15.058,1.677,20.162c2.684,2.276,5.961,3.391,9.233,3.391c3.72,0,7.408-1.46,10.18-4.274
				c0.172-0.158,0.334-0.331,0.5-0.5c0.172-0.158,0.334-0.331,0.5-0.5c0.172-0.158,0.334-0.331,0.5-0.5
				c0.172-0.158,0.334-0.331,0.5-0.5c0.172-0.158,0.334-0.331,0.5-0.5c0.172-0.158,0.334-0.331,0.5-0.5
				c0.172-0.158,0.334-0.331,0.5-0.5c0.172-0.158,0.334-0.331,0.5-0.5c0.172-0.158,0.334-0.331,0.5-0.5
				c0.172-0.158,0.334-0.331,0.5-0.5c0.172-0.158,0.334-0.331,0.5-0.5c0.172-0.158,0.334-0.331,0.5-0.5
				c0.172-0.158,0.334-0.331,0.5-0.5c0.172-0.158,0.334-0.331,0.5-0.5c0.172-0.158,0.334-0.331,0.5-0.5
				c0.172-0.158,0.334-0.331,0.5-0.5c0.172-0.158,0.334-0.331,0.5-0.5c0.172-0.158,0.334-0.331,0.5-0.5
				c0.172-0.158,0.334-0.331,0.5-0.5c0.172-0.158,0.334-0.331,0.5-0.5c0.172-0.158,0.334-0.331,0.5-0.5
				c0.172-0.158,0.334-0.331,0.5-0.5c0.172-0.158,0.334-0.331,0.5-0.5c0.172-0.158,0.334-0.331,0.5-0.5
				c0.172-0.158,0.334-0.331,0.5-0.5c0.172-0.158,0.334-0.331,0.5-0.5c0.172-0.158,0.334-0.331,0.5-0.5
				c0.172-0.158,0.334-0.331,0.5-0.5c0.172-0.158,0.334-0.331,0.5-0.5c0.172-0.158,0.334-0.331,0.5-0.5
				c0.172-0.158,0.334-0.331,0.5-0.5c0.172-0.158,0.334-0.331,0.5-0.5c0.172-0.158,0.334-0.331,0.5-0.5
				c0.172-0.158,0.334-0.331,0.5-0.5c0.172-0.158,0.334-0.331,0.5-0.5c0.172-0.158,0.334-0.331,0.5-0.5
				c0.172-0.158,0.334-0.331,0.5-0.5c0.172-0.158,0.334-0.331,0.5-0.5c0.172-0.158,0.334-0.331,0.5-0.5
				c0.172-0.158,0.334-0.331,0.5-0.5c0.172-0.158,0.334-0.331,0.5-0.5c0.172-0.158,0.334-0.331,0.5-0.5
				c0.172-0.158,0.334-0.331,0.5-0.5c0.172-0.158,0.334-0.331,0.5-0.5c0.172-0.158,0.334-0.331,0.5-0.5
				c0.172-0.158,0.334-0.331,0.5-0.5c0.172-0.158,0.334-0.331,0.5-0.5c0.172-0.158,0.334-0.331,0.5-0.5
				c0.172-0.158,0.334-0.331,0.5-0.5c0.161-0.147,0.313-0.31,0.467-0.466c31.979-27.002,71.516-43.568,113.478-47.334
				c-0.042,0.043-0.083,0.086-0.125,0.129c-0.167,0.166-0.334,0.334-0.5,0.5c-0.167,0.166-0.334,0.334-0.5,0.5
				c-0.167,0.166-0.334,0.334-0.5,0.5c-0.167,0.166-0.334,0.334-0.5,0.5c-0.167,0.166-0.334,0.334-0.5,0.5
				c-0.167,0.166-0.334,0.334-0.5,0.5c-0.167,0.166-0.334,0.334-0.5,0.5c-0.167,0.166-0.334,0.334-0.5,0.5
				c-0.167,0.166-0.334,0.334-0.5,0.5c-0.167,0.166-0.334,0.334-0.5,0.5c-0.167,0.166-0.334,0.334-0.5,0.5
				c-0.167,0.166-0.334,0.334-0.5,0.5c-0.167,0.166-0.334,0.334-0.5,0.5c-0.167,0.166-0.334,0.334-0.5,0.5
				c-0.167,0.166-0.334,0.334-0.5,0.5c-0.167,0.166-0.334,0.334-0.5,0.5c-0.167,0.166-0.334,0.334-0.5,0.5
				c-0.167,0.166-0.334,0.334-0.5,0.5c-0.167,0.166-0.334,0.334-0.5,0.5c-0.167,0.166-0.334,0.334-0.5,0.5
				c-0.167,0.166-0.334,0.334-0.5,0.5c-0.167,0.166-0.334,0.334-0.5,0.5c-0.167,0.166-0.334,0.334-0.5,0.5
				c-0.167,0.166-0.334,0.334-0.5,0.5c-0.167,0.166-0.334,0.334-0.5,0.5c-0.167,0.166-0.334,0.334-0.5,0.5
				c-0.167,0.166-0.334,0.334-0.5,0.5c-0.167,0.166-0.334,0.334-0.5,0.5c-0.167,0.166-0.334,0.334-0.5,0.5
				c-0.167,0.166-0.334,0.334-0.5,0.5c-0.167,0.166-0.334,0.334-0.5,0.5c-0.167,0.166-0.334,0.334-0.5,0.5
				c-0.167,0.166-0.334,0.334-0.5,0.5c-0.167,0.166-0.334,0.334-0.5,0.5c-0.167,0.166-0.334,0.334-0.5,0.5
				c-0.167,0.166-0.334,0.334-0.5,0.5c-0.167,0.166-0.334,0.334-0.5,0.5c-0.167,0.166-0.334,0.334-0.5,0.5
				c-0.167,0.166-0.334,0.334-0.5,0.5c-0.167,0.166-0.334,0.334-0.5,0.5c-0.167,0.166-0.334,0.334-0.5,0.5
				c-0.167,0.166-0.334,0.334-0.5,0.5c-0.167,0.166-0.334,0.334-0.5,0.5c-0.167,0.166-0.334,0.334-0.5,0.5
				c-0.167,0.166-0.334,0.334-0.5,0.5c-0.167,0.166-0.334,0.334-0.5,0.5c-0.167,0.166-0.334,0.334-0.5,0.5
				c-0.167,0.166-0.334,0.334-0.5,0.5c-0.167,0.166-0.334,0.334-0.5,0.5c-0.167,0.166-0.334,0.334-0.5,0.5
				c-0.167,0.166-0.334,0.334-0.5,0.5c-0.167,0.166-0.334,0.334-0.5,0.5c-0.167,0.166-0.334,0.334-0.5,0.5
				c-0.167,0.166-0.334,0.334-0.5,0.5c-0.167,0.166-0.334,0.334-0.5,0.5c-0.167,0.166-0.334,0.334-0.5,0.5
				c-0.167,0.166-0.334,0.334-0.5,0.5c-0.167,0.166-0.334,0.334-0.5,0.5c-0.167,0.166-0.334,0.334-0.5,0.5
				c-0.167,0.166-0.334,0.334-0.5,0.5c-0.167,0.166-0.334,0.334-0.5,0.5c-0.167,0.166-0.334,0.334-0.5,0.5
				c-0.167,0.166-0.334,0.334-0.5,0.5c-0.167,0.166-0.334,0.334-0.5,0.5c-0.167,0.166-0.334,0.334-0.5,0.5
				c-0.167,0.166-0.334,0.334-0.5,0.5c-0.167,0.166-0.334,0.334-0.5,0.5c-0.167,0.166-0.334,0.334-0.5,0.5
				c-0.167,0.166-0.334,0.334-0.5,0.5c-0.167,0.166-0.334,0.334-0.5,0.5c-0.167,0.166-0.334,0.334-0.5,0.5
				c-0.167,0.166-0.334,0.334-0.5,0.5c-0.167,0.166-0.334,0.334-0.5,0.5c-0.167,0.166-0.334,0.334-0.5,0.5
				c-0.167,0.166-0.334,0.334-0.5,0.5c-0.167,0.166-0.334,0.334-0.5,0.5c-0.167,0.166-0.334,0.334-0.5,0.5
				c-0.167,0.166-0.334,0.334-0.5,0.5c-0.167,0.166-0.334,0.334-0.5,0.5c-0.167,0.166-0.334,0.334-0.5,0.5
				c-0.167,0.166-0.334,0.334-0.5,0.5c-0.167,0.166-0.334,0.334-0.5,0.5c-0.167,0.166-0.334,0.334-0.5,0.5
				c-0.167,0.166-0.334,0.334-0.5,0.5c-0.167,0.166-0.334,0.334-0.5,0.5c-0.167,0.166-0.334,0.334-0.5,0.5
				c-0.167,0.166-0.334,0.334-0.5,0.501c-0.167,0.165-0.334,0.333-0.5,0.5c-0.167,0.165-0.334,0.333-0.5,0.5
				c-0.167,0.165-0.334,0.333-0.5,0.5c-0.167,0.165-0.334,0.333-0.5,0.5c-0.167,0.165-0.334,0.333-0.5,0.5
				c-0.167,0.165-0.334,0.333-0.5,0.5c-0.167,0.165-0.334,0.333-0.5,0.5c-0.167,0.165-0.334,0.333-0.5,0.5
				c-0.167,0.165-0.334,0.333-0.5,0.5c-0.167,0.165-0.334,0.333-0.5,0.5c-0.167,0.165-0.334,0.333-0.5,0.5
				c-0.167,0.165-0.334,0.333-0.5,0.5c-0.167,0.165-0.334,0.333-0.5,0.5c-0.167,0.165-0.334,0.333-0.5,0.5
				c-0.167,0.165-0.334,0.333-0.5,0.5c-0.167,0.165-0.334,0.333-0.5,0.5c-0.167,0.165-0.334,0.333-0.5,0.5
				c-0.167,0.165-0.334,0.333-0.5,0.5c-0.167,0.165-0.334,0.333-0.5,0.5c-0.167,0.165-0.334,0.333-0.5,0.5
				c-0.167,0.165-0.334,0.333-0.5,0.5c-0.167,0.165-0.334,0.333-0.5,0.5c-0.167,0.165-0.334,0.333-0.5,0.5
				c-0.167,0.165-0.334,0.333-0.5,0.5c-0.167,0.165-0.334,0.333-0.5,0.5c-0.167,0.165-0.334,0.333-0.5,0.5
				c-0.167,0.165-0.334,0.333-0.5,0.5c-0.167,0.165-0.334,0.333-0.5,0.5c-0.167,0.165-0.334,0.333-0.5,0.5
				c-0.167,0.165-0.334,0.333-0.5,0.5c-0.167,0.165-0.334,0.333-0.5,0.5c-0.167,0.165-0.334,0.333-0.5,0.5
				c-0.167,0.165-0.334,0.333-0.5,0.5c-0.167,0.165-0.334,0.333-0.5,0.5c-0.167,0.165-0.334,0.333-0.5,0.5
				c-0.167,0.165-0.334,0.333-0.5,0.5c-0.167,0.165-0.334,0.333-0.5,0.5c-0.167,0.165-0.334,0.333-0.5,0.5
				c-0.167,0.165-0.334,0.333-0.5,0.5c-0.167,0.165-0.334,0.333-0.5,0.5c-0.167,0.165-0.334,0.333-0.5,0.5
				c-0.167,0.165-0.334,0.333-0.5,0.5c-0.167,0.165-0.334,0.333-0.5,0.5c-0.167,0.165-0.334,0.333-0.5,0.5
				c-0.167,0.165-0.334,0.333-0.5,0.5c-0.167,0.165-0.334,0.333-0.5,0.5c-0.167,0.165-0.334,0.333-0.5,0.5
				c-0.167,0.165-0.334,0.333-0.5,0.5c-0.167,0.165-0.334,0.333-0.5,0.5c-0.167,0.165-0.334,0.333-0.5,0.5
				c-0.167,0.165-0.334,0.333-0.5,0.5c-0.167,0.165-0.334,0.333-0.5,0.5c-0.167,0.165-0.334,0.333-0.5,0.5
				c-0.167,0.165-0.334,0.333-0.5,0.5c-0.167,0.165-0.334,0.333-0.5,0.5c-0.167,0.165-0.334,0.333-0.5,0.5
				c-0.167,0.165-0.334,0.333-0.5,0.5c-0.167,0.165-0.334,0.333-0.5,0.5c-0.167,0.165-0.334,0.333-0.5,0.5
				c-0.167,0.165-0.334,0.333-0.5,0.5c-0.167,0.165-0.334,0.333-0.5,0.5c-0.167,0.165-0.334,0.333-0.5,0.5
				c-0.167,0.165-0.334,0.333-0.5,0.5c-0.167,0.165-0.334,0.333-0.5,0.5c-0.167,0.165-0.334,0.333-0.5,0.5
				c-0.167,0.165-0.334,0.333-0.5,0.5c-0.167,0.165-0.334,0.333-0.5,0.5c-0.167,0.165-0.334,0.333-0.5,0.5
				c-0.167,0.165-0.334,0.333-0.5,0.5c-0.167,0.165-0.334,0.333-0.5,0.5c-0.167,0.165-0.334,0.333-0.5,0.5
				c-0.167,0.165-0.334,0.333-0.5,0.5c-0.167,0.165-0.334,0.333-0.5,0.5c-0.167,0.165-0.334,0.333-0.5,0.5
				c-0.167,0.165-0.334,0.333-0.5,0.5c-0.167,0.165-0.334,0.333-0.5,0.5c-0.167,0.165-0.334,0.333-0.5,0.5
				c-0.167,0.165-0.334,0.333-0.5,0.5c-0.167,0.165-0.334,0.333-0.5,0.5c-0.167,0.165-0.334,0.333-0.5,0.5
				c-0.167,0.165-0.334,0.333-0.5,0.5c-0.167,0.165-0.334,0.333-0.5,0.5c-0.167,0.165-0.334,0.333-0.5,0.5
				c-0.167,0.165-0.334,0.333-0.5,0.5c-0.167,0.165-0.334,0.333-0.5,0.5c-0.167,0.165-0.334,0.333-0.5,0.5
				c-0.167,0.165-0.334,0.333-0.5,0.5c-0.167,0.165-0.334,0.333-0.5,0.5c-0.167,0.165-0.334,0.333-0.5,0.5
				c-0.167,0.165-0.334,0.333-0.5,0.5c-0.167,0.165-0.334,0.333-0.5,0.5c-0.167,0.165-0.334,0.333-0.5,0.5
				c-0.167,0.165-0.334,0.333-0.5,0.5c-0.167,0.165-0.334,0.333-0.5,0.5c-0.167,0.165-0.334,0.333-0.5,0.5
				c-0.167,0.165-0.334,0.333-0.5,0.5c-0.167,0.165-0.334,0.333-0.5,0.5c-0.167,0.165-0.334,0.333-0.5,0.5
				c-0.167,0.165-0.334,0.333-0.5,0.5c-0.167,0.165-0.334,0.333-0.5,0.5c-0.167,0.165-0.334,0.333-0.5,0.5
				c-0.167,0.165-0.334,0.333-0.5,0.5c-0.167,0.165-0.334,0.333-0.5,0.5c-0.167,0.165-0.334,0.333-0.5,0.5
				c-0.167,0.165-0.334,0.333-0.5,0.5c-0.167,0.165-0.334,0.333-0.5,0.5c-0.167,0.165-0.334,0.333-0.5,0.5
				c-0.167,0.165-0.334,0.333-0.5,0.5c-3.272,3.263-6.424,6.673-9.438,10.231c-5.105,6.026-4.358,15.057,1.677,20.162
				c2.685,2.276,5.963,3.39,9.232,3.39c3.724,0,7.412-1.461,10.186-4.275c0.172-0.158,0.334-0.331,0.5-0.5
				c0.172-0.158,0.334-0.331,0.5-0.5c0.172-0.158,0.334-0.331,0.5-0.5c0.172-0.158,0.334-0.331,0.5-0.5
				c0.172-0.158,0.334-0.331,0.5-0.5c0.172-0.158,0.334-0.331,0.5-0.5c0.172-0.158,0.334-0.331,0.5-0.5
				c0.172-0.158,0.334-0.331,0.5-0.5c0.172-0.158,0.334-0.331,0.5-0.5c0.172-0.158,0.334-0.331,0.5-0.5
				c0.172-0.158,0.334-0.331,0.5-0.5c0.172-0.158,0.334-0.331,0.5-0.5c0.172-0.158,0.334-0.331,0.5-0.5
				c0.172-0.158,0.334-0.331,0.5-0.5c0.172-0.158,0.334-0.331,0.5-0.5c0.172-0.158,0.334-0.331,0.5-0.5
				c0.172-0.158,0.334-0.331,0.5-0.5c0.172-0.158,0.334-0.331,0.5-0.5c0.172-0.158,0.334-0.331,0.5-0.5
				c0.172-0.158,0.334-0.331,0.5-0.5c0.172-0.158,0.334-0.331,0.5-0.5c0.172-0.158,0.334-0.331,0.5-0.5
				c0.172-0.158,0.334-0.331,0.5-0.5c0.172-0.158,0.334-0.331,0.5-0.5c0.172-0.158,0.334-0.331,0.5-0.5
				c0.172-0.158,0.334-0.331,0.5-0.5c0.172-0.158,0.334-0.331,0.5-0.5c0.172-0.158,0.334-0.331,0.5-0.5
				c0.172-0.158,0.334-0.331,0.5-0.5c0.172-0.158,0.334-0.331,0.5-0.5c0.172-0.158,0.334-0.331,0.5-0.5
				c0.172-0.158,0.334-0.331,0.5-0.5c0.172-0.158,0.334-0.331,0.5-0.5c0.142-0.13,0.275-0.271,0.414-0.408
				c24.281-20.465,55.109-31.889,87.391-31.896c1.755,0,3.504,0.048,5.25,0.114c-0.163,0.162-0.326,0.325-0.488,0.488
				c-0.167,0.166-0.334,0.333-0.5,0.5c-0.167,0.166-0.334,0.333-0.5,0.5c-0.167,0.166-0.334,0.333-0.5,0.5
				c-0.167,0.166-0.334,0.333-0.5,0.5c-0.167,0.166-0.334,0.333-0.5,0.5c-0.167,0.166-0.334,0.333-0.5,0.5
				c-0.167,0.166-0.334,0.333-0.5,0.5c-0.167,0.166-0.334,0.333-0.5,0.5c-0.167,0.166-0.334,0.333-0.5,0.5
				c-0.167,0.166-0.334,0.333-0.5,0.5c-0.167,0.166-0.334,0.333-0.5,0.5c-0.167,0.166-0.334,0.333-0.5,0.5
				c-0.167,0.166-0.334,0.333-0.5,0.5c-0.167,0.166-0.334,0.333-0.5,0.5c-0.167,0.166-0.334,0.333-0.5,0.5
				c-0.167,0.166-0.334,0.333-0.5,0.5c-0.167,0.166-0.334,0.333-0.5,0.5c-0.167,0.166-0.334,0.333-0.5,0.5
				c-0.167,0.166-0.334,0.333-0.5,0.5c-0.167,0.166-0.334,0.333-0.5,0.5c-0.167,0.166-0.334,0.333-0.5,0.5
				c-0.167,0.166-0.334,0.333-0.5,0.5c-0.167,0.166-0.334,0.333-0.5,0.5c-0.167,0.166-0.334,0.333-0.5,0.5
				c-0.167,0.166-0.334,0.333-0.5,0.5c-0.167,0.166-0.334,0.333-0.5,0.5c-0.167,0.166-0.334,0.333-0.5,0.5
				c-0.167,0.166-0.334,0.333-0.5,0.5c-0.167,0.166-0.334,0.333-0.5,0.5c-0.167,0.166-0.334,0.333-0.5,0.5
				c-0.167,0.166-0.334,0.333-0.5,0.5c-0.167,0.166-0.334,0.333-0.5,0.5c-0.167,0.166-0.334,0.333-0.5,0.5
				c-0.167,0.166-0.334,0.333-0.5,0.5c-0.167,0.166-0.334,0.333-0.5,0.5c-0.167,0.166-0.334,0.333-0.5,0.5
				c-0.167,0.166-0.334,0.333-0.5,0.5c-0.167,0.166-0.334,0.333-0.5,0.5c-0.167,0.166-0.334,0.333-0.5,0.5
				c-0.167,0.166-0.334,0.333-0.5,0.5c-0.167,0.166-0.334,0.333-0.5,0.5c-0.167,0.166-0.334,0.333-0.5,0.5
				c-0.167,0.166-0.334,0.333-0.5,0.5c-0.167,0.166-0.334,0.333-0.5,0.5c-0.167,0.166-0.334,0.333-0.5,0.5
				c-0.167,0.166-0.334,0.333-0.5,0.5c-0.167,0.166-0.334,0.333-0.5,0.5c-0.167,0.166-0.334,0.333-0.5,0.5
				c-0.167,0.166-0.334,0.333-0.5,0.5c-0.167,0.166-0.334,0.333-0.5,0.5c-0.167,0.166-0.334,0.333-0.5,0.5
				c-0.167,0.166-0.334,0.333-0.5,0.5c-0.167,0.166-0.334,0.333-0.5,0.5c-0.167,0.166-0.334,0.333-0.5,0.5
				c-0.167,0.166-0.334,0.333-0.5,0.5c-0.167,0.166-0.334,0.333-0.5,0.5c-0.167,0.166-0.334,0.333-0.5,0.5
				c-0.167,0.166-0.334,0.333-0.5,0.5c-0.167,0.166-0.334,0.333-0.5,0.5c-0.167,0.166-0.334,0.333-0.5,0.5
				c-0.167,0.166-0.334,0.333-0.5,0.5c-0.167,0.166-0.334,0.333-0.5,0.5c-0.167,0.166-0.334,0.333-0.5,0.5
				c-0.167,0.166-0.334,0.333-0.5,0.5c-0.167,0.166-0.334,0.333-0.5,0.5c-0.167,0.166-0.334,0.333-0.5,0.5
				c-0.167,0.166-0.334,0.333-0.5,0.5c-0.167,0.166-0.334,0.333-0.5,0.5c-0.167,0.166-0.334,0.333-0.5,0.5
				c-0.167,0.166-0.334,0.333-0.5,0.5c-0.167,0.166-0.334,0.333-0.5,0.5c-0.167,0.166-0.334,0.333-0.5,0.5
				c-0.167,0.166-0.334,0.333-0.5,0.5c-0.167,0.166-0.334,0.333-0.5,0.5c-0.167,0.166-0.334,0.333-0.5,0.5
				c-0.167,0.166-0.334,0.333-0.5,0.5c-0.167,0.166-0.334,0.333-0.5,0.5c-0.167,0.166-0.334,0.333-0.5,0.5
				c-0.167,0.166-0.334,0.333-0.5,0.5c-0.167,0.166-0.334,0.333-0.5,0.5c-0.167,0.166-0.334,0.333-0.5,0.5
				c-0.167,0.166-0.334,0.333-0.5,0.5c-0.167,0.166-0.334,0.333-0.5,0.5c-0.167,0.166-0.334,0.333-0.5,0.5
				c-0.167,0.166-0.334,0.333-0.5,0.5c-0.167,0.166-0.334,0.333-0.5,0.5c-0.167,0.166-0.334,0.333-0.5,0.5
				c-0.167,0.166-0.334,0.333-0.5,0.5c-0.167,0.166-0.334,0.333-0.5,0.5c-0.167,0.166-0.334,0.333-0.5,0.5
				c-0.167,0.166-0.334,0.333-0.5,0.5c-0.167,0.166-0.334,0.333-0.5,0.5c-0.167,0.166-0.334,0.333-0.5,0.5
				c-0.167,0.166-0.334,0.333-0.5,0.5c-0.167,0.166-0.334,0.333-0.5,0.5c-0.167,0.166-0.334,0.333-0.5,0.5
				c-0.167,0.166-0.334,0.333-0.5,0.5c-0.167,0.166-0.334,0.333-0.5,0.5c-0.167,0.166-0.334,0.333-0.5,0.5
				c-0.167,0.166-0.334,0.333-0.5,0.5c-0.167,0.166-0.334,0.333-0.5,0.5c-0.167,0.166-0.334,0.333-0.5,0.5
				c-0.167,0.166-0.334,0.333-0.5,0.5c-0.167,0.166-0.334,0.333-0.5,0.5c-0.167,0.166-0.334,0.333-0.5,0.5
				c-0.167,0.166-0.334,0.333-0.5,0.5c-0.167,0.166-0.334,0.333-0.5,0.5c-0.167,0.166-0.334,0.333-0.5,0.5
				c-0.167,0.166-0.334,0.333-0.5,0.5c-0.167,0.166-0.334,0.333-0.5,0.5c-0.167,0.166-0.334,0.333-0.5,0.5
				c-0.167,0.166-0.334,0.333-0.5,0.5c-0.167,0.166-0.334,0.333-0.5,0.5c-0.167,0.166-0.334,0.333-0.5,0.5
				c-0.167,0.166-0.334,0.333-0.5,0.5c-0.167,0.166-0.334,0.333-0.5,0.5c-0.167,0.166-0.334,0.333-0.5,0.5
				c-0.167,0.166-0.334,0.333-0.5,0.5c-0.167,0.166-0.334,0.333-0.5,0.5c-0.167,0.166-0.334,0.333-0.5,0.5
				c-0.167,0.166-0.334,0.333-0.5,0.5c-0.167,0.166-0.334,0.333-0.5,0.5c-0.167,0.166-0.334,0.333-0.5,0.5
				c-0.167,0.166-0.334,0.333-0.5,0.5c-0.167,0.166-0.334,0.333-0.5,0.5c-0.167,0.166-0.334,0.333-0.5,0.5
				c-0.167,0.166-0.334,0.333-0.5,0.5c-0.167,0.166-0.334,0.333-0.5,0.5c-0.167,0.166-0.334,0.333-0.5,0.5
				c-0.167,0.166-0.334,0.333-0.5,0.5c-0.167,0.166-0.334,0.333-0.5,0.5c-0.167,0.166-0.334,0.333-0.5,0.5
				c-0.167,0.166-0.334,0.333-0.5,0.5c-0.167,0.166-0.334,0.333-0.5,0.5c-0.167,0.166-0.334,0.333-0.5,0.5
				c-0.167,0.166-0.334,0.333-0.5,0.5c-0.167,0.166-0.334,0.333-0.5,0.5c-0.167,0.166-0.334,0.333-0.5,0.5
				c-0.167,0.166-0.334,0.333-0.5,0.5c-0.167,0.166-0.334,0.333-0.5,0.5c-0.167,0.166-0.334,0.333-0.5,0.5
				c-0.167,0.166-0.334,0.333-0.5,0.5c-0.167,0.166-0.334,0.333-0.5,0.5c-0.167,0.166-0.334,0.333-0.5,0.5
				c-0.167,0.166-0.334,0.333-0.5,0.5c-0.167,0.166-0.334,0.333-0.5,0.5c-0.167,0.166-0.334,0.333-0.5,0.5
				c-0.167,0.166-0.334,0.333-0.5,0.5c-0.167,0.166-0.334,0.333-0.5,0.5c-0.167,0.166-0.334,0.333-0.5,0.5
				c-0.167,0.166-0.334,0.333-0.5,0.5c-0.167,0.166-0.334,0.333-0.5,0.5c-0.167,0.166-0.334,0.333-0.5,0.5
				c-0.167,0.166-0.334,0.333-0.5,0.5c-0.167,0.166-0.334,0.333-0.5,0.5c-0.167,0.166-0.334,0.333-0.5,0.5
				c-0.167,0.166-0.334,0.333-0.5,0.5c-0.167,0.166-0.334,0.333-0.5,0.5c-0.167,0.166-0.334,0.333-0.5,0.5
				c-0.167,0.166-0.334,0.333-0.5,0.5c-0.167,0.166-0.334,0.333-0.5,0.5c-0.167,0.166-0.334,0.333-0.5,0.5
				c-2.187,2.176-4.293,4.451-6.306,6.828c-5.105,6.025-4.36,15.058,1.677,20.162c2.685,2.275,5.963,3.391,9.233,3.391
				c3.723,0,7.409-1.461,10.18-4.275c0.172-0.158,0.334-0.332,0.5-0.5c0.172-0.158,0.334-0.332,0.5-0.5
				c0.172-0.158,0.334-0.332,0.5-0.5c0.172-0.158,0.334-0.332,0.5-0.5c0.172-0.158,0.334-0.332,0.5-0.5
				c0.172-0.158,0.334-0.332,0.5-0.5c0.172-0.158,0.334-0.332,0.5-0.5c0.172-0.158,0.334-0.332,0.5-0.5
				c0.172-0.158,0.334-0.332,0.5-0.5c0.172-0.158,0.334-0.332,0.5-0.5c0.172-0.158,0.334-0.332,0.5-0.5
				c0.172-0.158,0.334-0.332,0.5-0.5c0.172-0.158,0.334-0.332,0.5-0.5c0.172-0.158,0.334-0.332,0.5-0.5
				c0.172-0.158,0.334-0.332,0.5-0.5c0.172-0.158,0.334-0.332,0.5-0.5c0.172-0.158,0.334-0.332,0.5-0.5
				c0.172-0.158,0.334-0.332,0.5-0.5c0.172-0.158,0.334-0.332,0.5-0.5c0.172-0.158,0.334-0.332,0.5-0.5
				c0.12-0.11,0.235-0.229,0.353-0.345c14.217-11.93,32.24-18.589,51.101-18.592c9.471,0.002,18.731,1.682,27.405,4.863
				c-0.089,0.09-0.174,0.184-0.264,0.273c-0.168,0.165-0.335,0.331-0.5,0.5c-0.168,0.165-0.335,0.331-0.5,0.5
				c-0.168,0.165-0.335,0.331-0.5,0.5c-0.168,0.165-0.335,0.331-0.5,0.5c-0.168,0.165-0.335,0.331-0.5,0.5
				c-0.168,0.165-0.335,0.331-0.5,0.5c-0.168,0.165-0.335,0.331-0.5,0.5c-0.168,0.165-0.335,0.331-0.5,0.5
				c-0.168,0.165-0.335,0.331-0.5,0.5c-0.168,0.165-0.335,0.331-0.5,0.5c-0.168,0.165-0.335,0.331-0.5,0.5
				c-0.168,0.165-0.335,0.331-0.5,0.5c-0.168,0.165-0.335,0.331-0.5,0.5c-0.168,0.165-0.335,0.331-0.5,0.5
				c-0.168,0.165-0.335,0.331-0.5,0.5c-0.168,0.165-0.335,0.331-0.5,0.5c-0.168,0.165-0.335,0.331-0.5,0.5
				c-0.168,0.165-0.335,0.331-0.5,0.5c-0.168,0.165-0.335,0.331-0.5,0.5c-0.168,0.165-0.335,0.331-0.5,0.5
				c-0.168,0.165-0.335,0.331-0.5,0.5c-0.168,0.165-0.335,0.331-0.5,0.5c-0.168,0.165-0.335,0.331-0.5,0.5
				c-0.168,0.165-0.335,0.331-0.5,0.5c-0.168,0.165-0.335,0.331-0.5,0.5c-0.168,0.165-0.335,0.331-0.5,0.5
				c-0.168,0.165-0.335,0.331-0.5,0.5c-0.168,0.165-0.335,0.331-0.5,0.5c-0.168,0.165-0.335,0.331-0.5,0.5
				c-0.168,0.165-0.335,0.331-0.5,0.5c-0.168,0.165-0.335,0.331-0.5,0.5c-0.168,0.165-0.335,0.331-0.5,0.5
				c-0.168,0.165-0.335,0.331-0.5,0.5c-0.168,0.165-0.335,0.331-0.5,0.5c-0.168,0.165-0.335,0.331-0.5,0.5
				c-0.168,0.165-0.335,0.331-0.5,0.5c-0.168,0.165-0.335,0.331-0.5,0.5c-0.168,0.165-0.335,0.331-0.5,0.5
				c-0.168,0.165-0.335,0.331-0.5,0.5c-0.168,0.165-0.335,0.331-0.5,0.5c-0.168,0.165-0.335,0.331-0.5,0.5
				c-0.168,0.165-0.335,0.331-0.5,0.5c-0.168,0.165-0.335,0.331-0.5,0.5c-0.168,0.165-0.335,0.331-0.5,0.5
				c-0.168,0.165-0.335,0.331-0.5,0.5c-0.168,0.165-0.335,0.331-0.5,0.5c-0.168,0.165-0.335,0.331-0.5,0.5
				c-0.168,0.165-0.335,0.331-0.5,0.5c-0.168,0.165-0.335,0.331-0.5,0.5c-0.168,0.165-0.335,0.331-0.5,0.5
				c-0.168,0.165-0.335,0.331-0.5,0.5c-0.168,0.165-0.335,0.331-0.5,0.5c-0.168,0.165-0.335,0.331-0.5,0.5
				c-0.168,0.165-0.335,0.331-0.5,0.5c-0.168,0.165-0.335,0.331-0.5,0.5c-0.168,0.165-0.335,0.331-0.5,0.5
				c-0.168,0.165-0.335,0.331-0.5,0.5c-0.168,0.165-0.335,0.331-0.5,0.5c-0.168,0.165-0.335,0.331-0.5,0.5
				c-0.168,0.165-0.335,0.331-0.5,0.5c-0.168,0.165-0.335,0.331-0.5,0.5c-0.168,0.165-0.335,0.331-0.5,0.5
				c-0.168,0.165-0.335,0.331-0.5,0.5c-0.168,0.165-0.335,0.331-0.5,0.5c-0.168,0.165-0.335,0.331-0.5,0.5
				c-0.168,0.165-0.335,0.331-0.5,0.5c-0.168,0.165-0.335,0.331-0.5,0.5c-0.168,0.165-0.335,0.331-0.5,0.5
				c-0.168,0.165-0.335,0.331-0.5,0.5c-0.168,0.165-0.335,0.331-0.5,0.5c-0.168,0.165-0.335,0.331-0.5,0.5
				c-0.168,0.165-0.335,0.331-0.5,0.5c-0.168,0.165-0.335,0.331-0.5,0.5c-0.168,0.165-0.335,0.331-0.5,0.5
				c-0.168,0.165-0.335,0.331-0.5,0.5c-0.168,0.165-0.335,0.331-0.5,0.5c-0.168,0.165-0.335,0.331-0.5,0.5
				c-0.168,0.165-0.335,0.331-0.5,0.5c-0.168,0.165-0.335,0.331-0.5,0.5c-0.168,0.165-0.335,0.331-0.5,0.5
				c-0.168,0.165-0.335,0.331-0.5,0.5c-0.168,0.165-0.335,0.331-0.5,0.5c-0.168,0.165-0.335,0.331-0.5,0.5
				c-0.168,0.165-0.335,0.331-0.5,0.5c-0.168,0.165-0.335,0.331-0.5,0.5c-0.168,0.165-0.335,0.331-0.5,0.5
				c-0.168,0.165-0.335,0.331-0.5,0.5c-0.168,0.165-0.335,0.331-0.5,0.5c-0.168,0.165-0.335,0.331-0.5,0.5
				c-0.168,0.165-0.335,0.331-0.5,0.5c-0.168,0.165-0.335,0.331-0.5,0.5c-0.168,0.165-0.335,0.331-0.5,0.5
				c-0.168,0.165-0.335,0.331-0.5,0.5c-0.168,0.165-0.335,0.331-0.5,0.5c-0.168,0.165-0.335,0.331-0.5,0.5
				c-0.168,0.165-0.335,0.331-0.5,0.5c-0.168,0.165-0.335,0.331-0.5,0.5c-0.168,0.165-0.335,0.331-0.5,0.5
				c-0.168,0.165-0.335,0.331-0.5,0.5c-0.168,0.165-0.335,0.331-0.5,0.5c-0.168,0.165-0.335,0.331-0.5,0.5
				c-6.188,6.061-10.032,14.504-10.032,23.851c0,18.438,14.943,33.384,33.391,33.384c9.351,0,17.797-3.845,23.857-10.034
				c0.168-0.165,0.335-0.331,0.5-0.5c0.168-0.165,0.335-0.331,0.5-0.5c0.168-0.165,0.335-0.331,0.5-0.5
				c0.168-0.165,0.335-0.331,0.5-0.5c0.168-0.165,0.335-0.331,0.5-0.5c0.168-0.165,0.335-0.331,0.5-0.5
				c0.168-0.165,0.335-0.331,0.5-0.5c0.168-0.165,0.335-0.331,0.5-0.5c0.168-0.165,0.335-0.331,0.5-0.5
				c0.168-0.165,0.335-0.331,0.5-0.5c0.168-0.165,0.335-0.331,0.5-0.5c0.168-0.165,0.335-0.331,0.5-0.5
				c0.168-0.165,0.335-0.331,0.5-0.5c0.168-0.165,0.335-0.331,0.5-0.5c0.168-0.165,0.335-0.331,0.5-0.5
				c0.168-0.165,0.335-0.331,0.5-0.5c0.168-0.165,0.335-0.331,0.5-0.5c0.168-0.165,0.335-0.331,0.5-0.5
				c0.168-0.165,0.335-0.331,0.5-0.5c0.168-0.165,0.335-0.331,0.5-0.5c0.168-0.165,0.335-0.331,0.5-0.5
				c0.168-0.165,0.335-0.331,0.5-0.5c0.168-0.165,0.335-0.331,0.5-0.5c0.168-0.165,0.335-0.331,0.5-0.5
				c0.168-0.165,0.335-0.331,0.5-0.5c0.168-0.165,0.335-0.331,0.5-0.5c0.168-0.165,0.335-0.331,0.5-0.5
				c0.168-0.165,0.335-0.331,0.5-0.5c0.168-0.165,0.335-0.331,0.5-0.5c0.168-0.165,0.335-0.331,0.5-0.5
				c0.168-0.165,0.335-0.331,0.5-0.5c0.168-0.165,0.335-0.331,0.5-0.5c0.168-0.165,0.335-0.331,0.5-0.5
				c0.168-0.165,0.335-0.331,0.5-0.5c0.168-0.165,0.335-0.331,0.5-0.5c0.168-0.165,0.335-0.331,0.5-0.5
				c0.168-0.165,0.335-0.331,0.5-0.5c0.168-0.165,0.335-0.331,0.5-0.5c0.168-0.165,0.335-0.331,0.5-0.5
				c0.168-0.165,0.335-0.331,0.5-0.5c0.168-0.165,0.335-0.331,0.5-0.5c0.168-0.165,0.335-0.331,0.5-0.5
				c0.168-0.165,0.335-0.331,0.5-0.5c0.168-0.165,0.335-0.331,0.5-0.5c0.168-0.165,0.335-0.331,0.5-0.5
				c0.168-0.165,0.335-0.331,0.5-0.5c0.168-0.165,0.335-0.331,0.5-0.5c0.168-0.165,0.335-0.331,0.5-0.5
				c0.168-0.165,0.335-0.331,0.5-0.5c0.168-0.165,0.335-0.331,0.5-0.5c0.168-0.165,0.335-0.331,0.5-0.5
				c0.168-0.165,0.335-0.331,0.5-0.5c0.168-0.165,0.335-0.331,0.5-0.5c0.168-0.165,0.335-0.331,0.5-0.5
				c0.168-0.165,0.335-0.331,0.5-0.5c0.168-0.165,0.335-0.331,0.5-0.5c0.168-0.165,0.335-0.331,0.5-0.5
				c0.168-0.165,0.335-0.331,0.5-0.5c0.168-0.165,0.335-0.331,0.5-0.5c0.168-0.165,0.335-0.331,0.5-0.5
				c0.168-0.165,0.335-0.331,0.5-0.5c0.168-0.165,0.335-0.331,0.5-0.5c0.168-0.165,0.335-0.331,0.5-0.5
				c0.168-0.165,0.335-0.331,0.5-0.5c0.168-0.165,0.335-0.331,0.5-0.5c0.168-0.165,0.335-0.331,0.5-0.5
				c0.168-0.165,0.335-0.331,0.5-0.5c0.168-0.165,0.335-0.331,0.5-0.5c0.168-0.165,0.335-0.331,0.5-0.5
				c0.168-0.165,0.335-0.331,0.5-0.5c0.168-0.165,0.335-0.331,0.5-0.5c0.168-0.165,0.335-0.331,0.5-0.5
				c0.168-0.165,0.335-0.331,0.5-0.5c0.168-0.165,0.335-0.331,0.5-0.5c0.168-0.165,0.335-0.331,0.5-0.5
				c0.168-0.165,0.335-0.331,0.5-0.5c0.168-0.165,0.335-0.331,0.5-0.5c0.168-0.165,0.335-0.331,0.5-0.5
				c0.168-0.165,0.335-0.331,0.5-0.5c0.168-0.165,0.335-0.331,0.5-0.5c0.168-0.165,0.335-0.331,0.5-0.5
				c0.168-0.165,0.335-0.331,0.5-0.5c0.168-0.165,0.335-0.331,0.5-0.5c0.168-0.165,0.335-0.331,0.5-0.5
				c0.168-0.165,0.335-0.331,0.5-0.5c0.168-0.165,0.335-0.331,0.5-0.5c0.168-0.165,0.335-0.331,0.5-0.5
				c0.168-0.165,0.335-0.331,0.5-0.5c0.168-0.165,0.335-0.331,0.5-0.5c0.168-0.165,0.335-0.331,0.5-0.5
				c0.168-0.165,0.335-0.331,0.5-0.5c0.168-0.165,0.335-0.331,0.5-0.5c0.168-0.165,0.335-0.331,0.5-0.5
				c0.168-0.165,0.335-0.331,0.5-0.5c0.168-0.165,0.335-0.331,0.5-0.5c0.168-0.165,0.335-0.331,0.5-0.5
				c0.168-0.165,0.335-0.331,0.5-0.5c0.168-0.165,0.335-0.331,0.5-0.5c0.168-0.165,0.335-0.331,0.5-0.5
				c0.168-0.165,0.335-0.331,0.5-0.5c0.168-0.165,0.335-0.331,0.5-0.5c0.168-0.165,0.335-0.331,0.5-0.5
				c0.168-0.165,0.335-0.331,0.5-0.5c0.168-0.165,0.335-0.331,0.5-0.5c0.168-0.165,0.335-0.331,0.5-0.5
				c0.168-0.165,0.335-0.331,0.5-0.5c0.168-0.165,0.335-0.331,0.5-0.5c0.168-0.165,0.335-0.331,0.5-0.5
				c0.168-0.165,0.335-0.331,0.5-0.5c0.168-0.165,0.335-0.331,0.5-0.5c0.168-0.165,0.335-0.331,0.5-0.5
				c0.168-0.165,0.335-0.331,0.5-0.5c0.168-0.165,0.335-0.331,0.5-0.5c0.168-0.165,0.335-0.331,0.5-0.5
				c0.168-0.165,0.335-0.331,0.5-0.5c0.168-0.165,0.335-0.331,0.5-0.5c0.168-0.165,0.335-0.331,0.5-0.5
				c0.168-0.165,0.335-0.331,0.5-0.5c0.168-0.165,0.335-0.331,0.5-0.5c0.168-0.165,0.335-0.331,0.5-0.5
				c0.168-0.165,0.335-0.331,0.5-0.5c0.168-0.165,0.335-0.331,0.5-0.5c0.168-0.165,0.335-0.331,0.5-0.5
				c0.168-0.165,0.335-0.331,0.5-0.5c0.168-0.165,0.335-0.331,0.5-0.5c0.168-0.165,0.335-0.331,0.5-0.5
				c0.168-0.165,0.335-0.331,0.5-0.5c0.168-0.165,0.335-0.331,0.5-0.5c0.168-0.165,0.335-0.331,0.5-0.5
				c0.168-0.165,0.335-0.331,0.5-0.5c0.168-0.165,0.335-0.331,0.5-0.5c0.168-0.165,0.335-0.331,0.5-0.5
				c0.168-0.165,0.335-0.331,0.5-0.5c0.168-0.165,0.335-0.331,0.5-0.5c0.168-0.165,0.335-0.331,0.5-0.5
				c0.168-0.165,0.335-0.331,0.5-0.5c0.168-0.165,0.335-0.331,0.5-0.5c0.168-0.165,0.335-0.331,0.5-0.5
				c0.168-0.165,0.335-0.331,0.5-0.5c0.168-0.165,0.335-0.331,0.5-0.5c0.168-0.165,0.335-0.331,0.5-0.5
				c0.168-0.165,0.335-0.331,0.5-0.5c0.168-0.165,0.335-0.331,0.5-0.5c0.168-0.165,0.335-0.331,0.5-0.5
				c0.168-0.165,0.335-0.331,0.5-0.5c0.168-0.165,0.335-0.331,0.5-0.5c0.168-0.165,0.335-0.331,0.5-0.5
				c0.168-0.165,0.335-0.331,0.5-0.5c0.168-0.165,0.335-0.331,0.5-0.5c0.168-0.165,0.335-0.331,0.5-0.5
				c0.168-0.165,0.335-0.331,0.5-0.5c0.168-0.165,0.335-0.331,0.5-0.5c0.168-0.165,0.335-0.331,0.5-0.5
				c0.168-0.165,0.335-0.331,0.5-0.5c0.168-0.165,0.335-0.331,0.5-0.5c0.168-0.165,0.335-0.331,0.5-0.5
				c0.168-0.165,0.335-0.331,0.5-0.5c0.168-0.165,0.335-0.331,0.5-0.5c0.168-0.165,0.335-0.331,0.5-0.5
				c0.168-0.165,0.335-0.331,0.5-0.5c0.168-0.165,0.335-0.331,0.5-0.5c0.168-0.165,0.335-0.331,0.5-0.5
				c0.168-0.165,0.335-0.331,0.5-0.5c0.168-0.165,0.335-0.331,0.5-0.5c0.168-0.165,0.335-0.331,0.5-0.5
				c0.168-0.165,0.335-0.331,0.5-0.5c0.168-0.165,0.335-0.331,0.5-0.5c0.168-0.165,0.335-0.331,0.5-0.5
				c0.168-0.165,0.335-0.331,0.5-0.5c0.168-0.165,0.335-0.331,0.5-0.5c0.168-0.165,0.335-0.331,0.5-0.5
				c0.168-0.165,0.335-0.331,0.5-0.5c0.168-0.165,0.335-0.331,0.5-0.5c0.168-0.165,0.335-0.331,0.5-0.5
				c0.168-0.165,0.335-0.331,0.5-0.5c0.168-0.165,0.335-0.331,0.5-0.5c0.168-0.165,0.335-0.331,0.5-0.5
				c0.168-0.165,0.335-0.331,0.5-0.5c0.168-0.165,0.335-0.331,0.5-0.5c0.168-0.165,0.335-0.331,0.5-0.5
				c0.168-0.165,0.335-0.331,0.5-0.5c0.168-0.165,0.335-0.331,0.5-0.5c0.168-0.165,0.335-0.331,0.5-0.5
				c0.168-0.165,0.335-0.331,0.5-0.5c0.168-0.165,0.335-0.331,0.5-0.5c0.168-0.165,0.335-0.331,0.5-0.5
				c0.168-0.165,0.335-0.331,0.5-0.5c0.168-0.165,0.335-0.331,0.5-0.5c0.168-0.165,0.335-0.331,0.5-0.5
				c0.168-0.165,0.335-0.331,0.5-0.5c0.168-0.165,0.335-0.331,0.5-0.5c0.168-0.165,0.335-0.331,0.5-0.5
				c0.168-0.165,0.335-0.331,0.5-0.5c0.168-0.165,0.335-0.331,0.5-0.5c0.168-0.165,0.335-0.331,0.5-0.5
				c0.168-0.165,0.335-0.331,0.5-0.5c0.168-0.165,0.335-0.331,0.5-0.5c0.168-0.165,0.335-0.331,0.5-0.5
				c0.168-0.165,0.335-0.331,0.5-0.5c0.168-0.165,0.335-0.331,0.5-0.5c0.168-0.165,0.335-0.331,0.5-0.5
				c0.168-0.165,0.335-0.331,0.5-0.5c0.168-0.165,0.335-0.331,0.5-0.5c0.168-0.165,0.335-0.331,0.5-0.5
				c0.168-0.165,0.335-0.331,0.5-0.5c0.168-0.165,0.335-0.331,0.5-0.5c0.168-0.165,0.335-0.331,0.5-0.5
				c0.168-0.165,0.335-0.331,0.5-0.5c0.168-0.165,0.335-0.331,0.5-0.5c0.168-0.165,0.335-0.331,0.5-0.5
				c0.168-0.165,0.335-0.331,0.5-0.5c0.168-0.165,0.335-0.331,0.5-0.5c0.168-0.165,0.335-0.331,0.5-0.5
				c0.168-0.165,0.335-0.331,0.5-0.5c0.168-0.165,0.335-0.331,0.5-0.5c0.168-0.165,0.335-0.331,0.5-0.5
				c0.168-0.165,0.335-0.331,0.5-0.5c0.168-0.165,0.335-0.331,0.5-0.5c0.168-0.165,0.335-0.331,0.5-0.5
				c0.168-0.165,0.335-0.331,0.5-0.5c0.168-0.165,0.335-0.331,0.5-0.5c0.168-0.165,0.335-0.331,0.5-0.5
				c0.168-0.165,0.335-0.331,0.5-0.5c0.168-0.165,0.335-0.331,0.5-0.5c0.168-0.165,0.335-0.331,0.5-0.5
				c0.168-0.165,0.335-0.331,0.5-0.5c0.168-0.165,0.335-0.331,0.5-0.5c0.168-0.165,0.335-0.331,0.5-0.5
				c0.168-0.165,0.335-0.331,0.5-0.5c0.168-0.165,0.335-0.331,0.5-0.5c0.168-0.165,0.335-0.331,0.5-0.5
				c0.168-0.165,0.335-0.331,0.5-0.5c0.168-0.165,0.335-0.331,0.5-0.5c0.168-0.165,0.335-0.331,0.5-0.5
				c0.168-0.165,0.335-0.331,0.5-0.5c0.168-0.165,0.335-0.331,0.5-0.5c0.168-0.165,0.335-0.331,0.5-0.5
				c0.168-0.165,0.335-0.331,0.5-0.5c0.168-0.165,0.335-0.331,0.5-0.5c0.168-0.165,0.335-0.331,0.5-0.5
				c0.168-0.165,0.335-0.331,0.5-0.5c0.168-0.165,0.335-0.331,0.5-0.5c0.168-0.165,0.335-0.331,0.5-0.5
				c0.168-0.165,0.335-0.331,0.5-0.5c0.168-0.165,0.335-0.331,0.5-0.5c0.168-0.165,0.335-0.331,0.5-0.5
				c0.168-0.165,0.335-0.331,0.5-0.5c0.168-0.165,0.335-0.331,0.5-0.5c0.168-0.165,0.335-0.331,0.5-0.5
				c0.168-0.165,0.335-0.331,0.5-0.5c0.168-0.165,0.335-0.331,0.5-0.5c0.168-0.165,0.335-0.331,0.5-0.5
				c0.168-0.165,0.335-0.331,0.5-0.5c0.168-0.165,0.335-0.331,0.5-0.5c0.168-0.165,0.335-0.331,0.5-0.5
				c0.168-0.165,0.335-0.331,0.5-0.5c0.168-0.165,0.335-0.331,0.5-0.5c0.168-0.165,0.335-0.331,0.5-0.5
				c0.168-0.165,0.335-0.331,0.5-0.5c0.168-0.165,0.335-0.331,0.5-0.5c0.168-0.165,0.335-0.331,0.5-0.5
				c0.168-0.165,0.335-0.331,0.5-0.5c0.168-0.165,0.335-0.331,0.5-0.5c0.168-0.165,0.335-0.331,0.5-0.5
				c0.168-0.165,0.335-0.331,0.5-0.5c0.168-0.165,0.335-0.331,0.5-0.5c0.168-0.165,0.335-0.331,0.5-0.5
				c0.168-0.165,0.335-0.331,0.5-0.5c0.168-0.165,0.335-0.331,0.5-0.5c0.168-0.165,0.335-0.331,0.5-0.5
				c0.168-0.165,0.335-0.331,0.5-0.5c0.168-0.165,0.335-0.331,0.5-0.5c0.168-0.165,0.335-0.331,0.5-0.5
				c0.168-0.165,0.335-0.331,0.5-0.5c0.168-0.165,0.335-0.331,0.5-0.5c0.168-0.165,0.335-0.331,0.5-0.5
				c0.168-0.165,0.335-0.331,0.5-0.5c0.168-0.165,0.335-0.331,0.5-0.5c0.168-0.165,0.335-0.331,0.5-0.5
				c0.168-0.165,0.335-0.331,0.5-0.5c0.168-0.165,0.335-0.331,0.5-0.5c0.168-0.165,0.335-0.331,0.5-0.5
				c0.168-0.165,0.335-0.331,0.5-0.5c0.168-0.165,0.335-0.331,0.5-0.5c0.168-0.165,0.335-0.331,0.5-0.5
				c0.168-0.165,0.335-0.331,0.5-0.5c0.168-0.165,0.335-0.331,0.5-0.5c0.168-0.165,0.335-0.331,0.5-0.5
				c0.168-0.165,0.335-0.331,0.5-0.5c0.168-0.165,0.335-0.331,0.5-0.5c0.168-0.165,0.335-0.331,0.5-0.5
				c0.168-0.165,0.335-0.331,0.5-0.5c0.168-0.165,0.335-0.331,0.5-0.5c0.168-0.165,0.335-0.331,0.5-0.5
				c0.168-0.165,0.335-0.331,0.5-0.5c0.168-0.165,0.335-0.331,0.5-0.5c0.168-0.165,0.335-0.331,0.5-0.5
				c0.168-0.165,0.335-0.331,0.5-0.5c0.168-0.165,0.335-0.331,0.5-0.5c0.168-0.165,0.335-0.331,0.5-0.5
				c0.168-0.165,0.335-0.331,0.5-0.5c0.168-0.165,0.335-0.331,0.5-0.5c0.168-0.165,0.335-0.331,0.5-0.5
				c0.168-0.165,0.335-0.331,0.5-0.5c0.168-0.165,0.335-0.331,0.5-0.5c0.168-0.165,0.335-0.331,0.5-0.5
				c0.168-0.165,0.335-0.331,0.5-0.5c0.168-0.165,0.335-0.331,0.5-0.5c0.168-0.165,0.335-0.331,0.5-0.5
				c0.168-0.165,0.335-0.331,0.5-0.5c0.168-0.165,0.335-0.331,0.5-0.5c0.168-0.165,0.335-0.331,0.5-0.5
				c0.168-0.165,0.335-0.331,0.5-0.5c0.168-0.165,0.335-0.331,0.5-0.5c0.168-0.165,0.335-0.331,0.5-0.5
				c0.168-0.165,0.335-0.331,0.5-0.5c0.168-0.165,0.335-0.331,0.5-0.5c0.168-0.165,0.335-0.331,0.5-0.5
				c0.168-0.165,0.335-0.331,0.5-0.5c0.168-0.165,0.335-0.331,0.5-0.5c0.168-0.165,0.335-0.331,0.5-0.5
				c0.168-0.165,0.335-0.331,0.5-0.5c0.168-0.165,0.335-0.331,0.5-0.5c0.168-0.165,0.335-0.331,0.5-0.5
				c0.168-0.165,0.335-0.331,0.5-0.5c0.168-0.165,0.335-0.331,0.5-0.5c0.168-0.165,0.335-0.331,0.5-0.5
				c0.168-0.165,0.335-0.331,0.5-0.5c0.168-0.165,0.335-0.331,0.5-0.5c0.168-0.165,0.335-0.331,0.5-0.5
				c0.168-0.165,0.335-0.331,0.5-0.5c0.168-0.165,0.335-0.331,0.5-0.5c0.168-0.165,0.335-0.331,0.5-0.5
				c0.168-0.165,0.335-0.331,0.5-0.5c0.168-0.165,0.335-0.331,0.5-0.5c0.168-0.165,0.335-0.331,0.5-0.5
				c0.168-0.165,0.335-0.331,0.5-0.5c0.168-0.165,0.335-0.331,0.5-0.5c0.168-0.165,0.335-0.331,0.5-0.5
				c0.168-0.165,0.335-0.331,0.5-0.5c0.168-0.165,0.335-0.331,0.5-0.5c0.168-0.165,0.335-0.331,0.5-0.5
				c0.168-0.165,0.335-0.331,0.5-0.5c0.168-0.165,0.335-0.331,0.5-0.5c0.168-0.165,0.335-0.331,0.5-0.5
				c0.168-0.165,0.335-0.331,0.5-0.5c0.168-0.165,0.335-0.331,0.5-0.5c0.168-0.165,0.335-0.331,0.5-0.5
				c0.168-0.165,0.335-0.331,0.5-0.5c0.168-0.165,0.335-0.331,0.5-0.5c0.168-0.165,0.335-0.331,0.5-0.5
				c0.168-0.165,0.335-0.331,0.5-0.5c0.168-0.165,0.335-0.331,0.5-0.5c0.168-0.165,0.335-0.331,0.5-0.5
				c0.168-0.165,0.335-0.331,0.5-0.5c0.168-0.165,0.335-0.331,0.5-0.5c0.168-0.165,0.335-0.331,0.5-0.5
				c0.168-0.165,0.335-0.331,0.5-0.5c0.168-0.165,0.335-0.331,0.5-0.5c0.168-0.165,0.335-0.331,0.5-0.5
				c0.168-0.165,0.335-0.331,0.5-0.5c0.168-0.165,0.335-0.331,0.5-0.5c0.168-0.165,0.335-0.331,0.5-0.5
				c0.168-0.165,0.335-0.331,0.5-0.5c0.168-0.165,0.335-0.331,0.5-0.5c0.168-0.165,0.335-0.331,0.5-0.5
				c0.168-0.165,0.335-0.331,0.5-0.5c0.168-0.165,0.335-0.331,0.5-0.5c0.168-0.165,0.335-0.331,0.5-0.5
				c0.168-0.165,0.335-0.331,0.5-0.5c0.168-0.165,0.335-0.331,0.5-0.5c0.168-0.165,0.335-0.331,0.5-0.5
				c0.168-0.165,0.335-0.331,0.5-0.5c0.168-0.165,0.335-0.331,0.5-0.5c0.168-0.165,0.335-0.331,0.5-0.5
				c0.168-0.165,0.335-0.331,0.5-0.5c0.168-0.165,0.335-0.331,0.5-0.5c0.168-0.165,0.335-0.331,0.5-0.5
				c0.168-0.165,0.335-0.331,0.5-0.5c0.168-0.165,0.335-0.331,0.5-0.5c0.168-0.165,0.335-0.331,0.5-0.5
				c0.168-0.165,0.335-0.331,0.5-0.5c0.168-0.165,0.335-0.331,0.5-0.5c0.168-0.165,0.335-0.331,0.5-0.5
				c0.168-0.165,0.335-0.331,0.5-0.5c0.168-0.165,0.335-0.331,0.5-0.5c0.168-0.165,0.335-0.331,0.5-0.5
				c0.168-0.165,0.335-0.331,0.5-0.5c0.168-0.165,0.335-0.331,0.5-0.5c0.168-0.165,0.335-0.331,0.5-0.5
				c0.168-0.165,0.335-0.331,0.5-0.5c0.168-0.165,0.335-0.331,0.5-0.5c0.168-0.165,0.335-0.331,0.5-0.5
				c0.168-0.165,0.335-0.331,0.5-0.5c0.168-0.165,0.335-0.331,0.5-0.5c0.168-0.165,0.335-0.331,0.5-0.5
				c0.168-0.165,0.335-0.331,0.5-0.5c0.168-0.165,0.335-0.331,0.5-0.5c0.168-0.165,0.335-0.331,0.5-0.5
				c0.168-0.165,0.335-0.331,0.5-0.5c0.168-0.165,0.335-0.331,0.5-0.5c0.168-0.165,0.335-0.331,0.5-0.5
				c0.168-0.165,0.335-0.331,0.5-0.5c0.168-0.165,0.335-0.331,0.5-0.5c0.168-0.165,0.335-0.331,0.5-0.5
				c0.168-0.165,0.335-0.331,0.5-0.5c0.168-0.165,0.335-0.331,0.5-0.5c0.168-0.165,0.335-0.331,0.5-0.5
				c0.168-0.165,0.335-0.331,0.5-0.5c0.168-0.165,0.335-0.331,0.5-0.5c0.168-0.165,0.335-0.331,0.5-0.5
				c0.168-0.165,0.335-0.331,0.5-0.5c0.168-0.165,0.335-0.331,0.5-0.5c0.168-0.165,0.335-0.331,0.5-0.5
				c0.168-0.165,0.335-0.331,0.5-0.5c0.168-0.165,0.335-0.331,0.5-0.5c0.168-0.165,0.335-0.331,0.5-0.5
				c0.168-0.165,0.335-0.331,0.5-0.5c0.168-0.165,0.335-0.331,0.5-0.5c0.168-0.165,0.335-0.331,0.5-0.5
				c0.168-0.165,0.335-0.331,0.5-0.5c0.168-0.165,0.335-0.331,0.5-0.5c0.168-0.165,0.335-0.331,0.5-0.5
				c0.168-0.165,0.335-0.331,0.5-0.5c0.168-0.165,0.335-0.331,0.5-0.5c0.168-0.165,0.335-0.331,0.5-0.5
				c0.168-0.165,0.335-0.331,0.5-0.5c0.168-0.165,0.335-0.331,0.5-0.5c0.168-0.165,0.335-0.331,0.5-0.5
				c0.168-0.165,0.335-0.331,0.5-0.5c0.168-0.165,0.335-0.331,0.5-0.5c0.168-0.165,0.335-0.331,0.5-0.5
				c0.168-0.165,0.335-0.331,0.5-0.5c0.168-0.165,0.335-0.331,0.5-0.5c0.168-0.165,0.335-0.331,0.5-0.5
				c0.168-0.165,0.335-0.331,0.5-0.5c0.168-0.165,0.335-0.331,0.5-0.5c0.168-0.165,0.335-0.331,0.5-0.5
				c0.168-0.165,0.335-0.331,0.5-0.5c0.168-0.165,0.335-0.331,0.5-0.5c0.168-0.165,0.335-0.331,0.5-0.5
				c0.168-0.165,0.335-0.331,0.5-0.5c0.168-0.165,0.335-0.331,0.5-0.5c0.168-0.165,0.335-0.331,0.5-0.5
				c0.168-0.165,0.335-0.331,0.5-0.5c0.168-0.165,0.335-0.331,0.5-0.5c0.168-0.165,0.335-0.331,0.5-0.5
				c0.168-0.165,0.335-0.331,0.5-0.5c0.168-0.165,0.335-0.331,0.5-0.5c0.168-0.165,0.335-0.331,0.5-0.5
				c0.168-0.165,0.335-0.331,0.5-0.5c0.168-0.165,0.335-0.331,0.5-0.5c0.168-0.165,0.335-0.331,0.5-0.5
				c0.168-0.165,0.335-0.331,0.5-0.5c0.168-0.165,0.335-0.331,0.5-0.5c0.168-0.165,0.335-0.331,0.5-0.5
				c0.168-0.165,0.335-0.331,0.5-0.5c0.168-0.165,0.335-0.331,0.5-0.5c0.168-0.165,0.335-0.331,0.5-0.5
				c0.168-0.165,0.335-0.331,0.5-0.5c0.168-0.165,0.335-0.331,0.5-0.5c0.168-0.165,0.335-0.331,0.5-0.5
				c0.168-0.165,0.335-0.331,0.5-0.5c0.168-0.165,0.335-0.331,0.5-0.5c0.168-0.165,0.335-0.331,0.5-0.5
				c0.168-0.165,0.335-0.331,0.5-0.5c0.168-0.165,0.335-0.331,0.5-0.5c0.168-0.165,0.335-0.331,0.5-0.5
				c0.168-0.165,0.335-0.331,0.5-0.5c0.168-0.165,0.335-0.331,0.5-0.5c0.168-0.165,0.335-0.331,0.5-0.5
				c0.168-0.165,0.335-0.331,0.5-0.5c0.168-0.165,0.335-0.331,0.5-0.5c0.168-0.165,0.335-0.331,0.5-0.5
				c0.168-0.165,0.335-0.331,0.5-0.5c0.168-0.165,0.335-0.331,0.5-0.5c0.168-0.165,0.335-0.331,0.5-0.5
				c0.168-0.165,0.335-0.331,0.5-0.5c0.168-0.165,0.335-0.331,0.5-0.5c0.168-0.165,0.335-0.331,0.5-0.5
				c0.168-0.165,0.335-0.331,0.5-0.5c0.168-0.165,0.335-0.331,0.5-0.5c0.168-0.165,0.335-0.331,0.5-0.5
				c0.168-0.165,0.335-0.331,0.5-0.5c0.168-0.165,0.335-0.331,0.5-0.5c0.168-0.165,0.335-0.331,0.5-0.5
				c0.168-0.165,0.335-0.331,0.5-0.5c0.168-0.165,0.335-0.331,0.5-0.5c0.168-0.165,0.335-0.331,0.5-0.5
				c0.168-0.165,0.335-0.331,0.5-0.5c0.168-0.165,0.335-0.331,0.5-0.5c0.168-0.165,0.335-0.331,0.5-0.5
				c0.168-0.165,0.335-0.331,0.5-0.5c0.168-0.165,0.335-0.331,0.5-0.5c0.168-0.165,0.335-0.331,0.5-0.5
				c0.168-0.165,0.335-0.331,0.5-0.5c0.168-0.165,0.335-0.331,0.5-0.5c0.168-0.165,0.335-0.331,0.5-0.5
				c0.168-0.165,0.335-0.331,0.5-0.5c0.168-0.165,0.335-0.331,0.5-0.5c0.168-0.165,0.335-0.331,0.5-0.5
				c0.168-0.165,0.335-0.331,0.5-0.5c0.168-0.165,0.335-0.331,0.5-0.5c0.168-0.165,0.335-0.331,0.5-0.5
				c0.168-0.165,0.335-0.331,0.5-0.5c0.168-0.165,0.335-0.331,0.5-0.5c0.168-0.165,0.335-0.331,0.5-0.5
				c0.168-0.165,0.335-0.331,0.5-0.5c0.168-0.165,0.335-0.331,0.5-0.5c0.168-0.165,0.335-0.331,0.5-0.5
				c0.168-0.165,0.335-0.331,0.5-0.5c0.168-0.165,0.335-0.331,0.5-0.5c0.168-0.165,0.335-0.331,0.5-0.5
				c0.168-0.165,0.335-0.331,0.5-0.5c0.168-0.165,0.335-0.331,0.5-0.5c0.168-0.165,0.335-0.331,0.5-0.5
				c0.168-0.165,0.335-0.331,0.5-0.5c0.168-0.165,0.335-0.331,0.5-0.5c0.168-0.165,0.335-0.331,0.5-0.5
				c6.188-6.061,10.032-14.504,10.032-23.85c0-0.692-0.027-1.379-0.068-2.061c0.091-0.093,0.179-0.188,0.267-0.281
				c0.17-0.166,0.34-0.33,0.5-0.5c0.17-0.166,0.34-0.33,0.5-0.5c0.17-0.166,0.34-0.33,0.5-0.5c0.17-0.166,0.34-0.33,0.5-0.5
				c0.17-0.166,0.34-0.33,0.5-0.5c0.17-0.166,0.34-0.33,0.5-0.5c0.17-0.166,0.34-0.33,0.5-0.5c0.17-0.166,0.34-0.33,0.5-0.5
				c0.17-0.166,0.34-0.33,0.5-0.5c0.17-0.166,0.34-0.33,0.5-0.5c0.17-0.166,0.34-0.33,0.5-0.5c0.17-0.166,0.34-0.33,0.5-0.5
				c0.17-0.166,0.34-0.33,0.5-0.5c0.17-0.166,0.34-0.33,0.5-0.5c0.17-0.166,0.34-0.33,0.5-0.5c0.17-0.166,0.34-0.33,0.5-0.5
				c0.17-0.166,0.34-0.33,0.5-0.5c0.17-0.166,0.34-0.33,0.5-0.5c0.17-0.166,0.34-0.33,0.5-0.5c0.17-0.166,0.34-0.33,0.5-0.5
				c0.17-0.166,0.34-0.33,0.5-0.5c0.17-0.166,0.34-0.33,0.5-0.5c0.17-0.166,0.34-0.33,0.5-0.5c0.17-0.166,0.34-0.33,0.5-0.5
				c0.17-0.166,0.34-0.33,0.5-0.5c0.17-0.166,0.34-0.33,0.5-0.5c0.17-0.166,0.34-0.33,0.5-0.5c0.17-0.166,0.34-0.33,0.5-0.5
				c0.17-0.166,0.34-0.33,0.5-0.5c0.17-0.166,0.34-0.33,0.5-0.5c0.17-0.166,0.34-0.33,0.5-0.5c0.17-0.166,0.34-0.33,0.5-0.5
				c0.17-0.166,0.34-0.33,0.5-0.5c0.17-0.166,0.34-0.33,0.5-0.5c0.17-0.166,0.34-0.33,0.5-0.5c0.17-0.166,0.34-0.33,0.5-0.5
				c0.17-0.166,0.34-0.33,0.5-0.5c0.17-0.166,0.34-0.33,0.5-0.5c0.17-0.166,0.34-0.33,0.5-0.5c0.17-0.166,0.34-0.33,0.5-0.5
				c0.17-0.166,0.34-0.33,0.5-0.5c0.17-0.166,0.34-0.33,0.5-0.5c0.17-0.166,0.34-0.33,0.5-0.5c0.17-0.166,0.34-0.33,0.5-0.5
				c0.17-0.166,0.34-0.33,0.5-0.5c0.17-0.166,0.34-0.33,0.5-0.5c0.17-0.166,0.34-0.33,0.5-0.5c0.17-0.166,0.34-0.33,0.5-0.5
				c0.17-0.166,0.34-0.33,0.5-0.5c0.17-0.166,0.34-0.33,0.5-0.5c0.17-0.166,0.34-0.33,0.5-0.5c0.17-0.166,0.34-0.33,0.5-0.5
				c0.17-0.166,0.34-0.33,0.5-0.5c0.17-0.166,0.34-0.33,0.5-0.5c0.17-0.166,0.34-0.33,0.5-0.5c0.17-0.166,0.34-0.33,0.5-0.5
				c0.17-0.166,0.34-0.33,0.5-0.5c0.17-0.166,0.34-0.33,0.5-0.5c0.17-0.166,0.34-0.33,0.5-0.5c0.17-0.166,0.34-0.33,0.5-0.5
				c0.17-0.166,0.34-0.33,0.5-0.5c0.17-0.166,0.34-0.33,0.5-0.5c0.17-0.166,0.34-0.33,0.5-0.5c0.17-0.166,0.34-0.33,0.5-0.5
				c0.17-0.166,0.34-0.33,0.5-0.5c0.17-0.166,0.34-0.33,0.5-0.5c0.17-0.166,0.34-0.33,0.5-0.5c0.17-0.166,0.34-0.33,0.5-0.5
				c0.17-0.166,0.34-0.33,0.5-0.5c0.17-0.166,0.34-0.33,0.5-0.5c0.17-0.166,0.34-0.33,0.5-0.5c0.17-0.166,0.34-0.33,0.5-0.5
				c0.17-0.166,0.34-0.33,0.5-0.5c0.17-0.166,0.34-0.33,0.5-0.5c0.17-0.166,0.34-0.33,0.5-0.5c0.17-0.166,0.34-0.33,0.5-0.5
				c0.17-0.166,0.34-0.33,0.5-0.5c0.17-0.166,0.34-0.33,0.5-0.5c0.17-0.166,0.34-0.33,0.5-0.5c0.17-0.166,0.34-0.33,0.5-0.5
				c0.17-0.166,0.34-0.33,0.5-0.5c0.17-0.166,0.34-0.33,0.5-0.5c0.17-0.166,0.34-0.33,0.5-0.5c0.17-0.166,0.34-0.33,0.5-0.5
				c0.17-0.166,0.34-0.33,0.5-0.5c0.17-0.166,0.34-0.33,0.5-0.5c0.17-0.166,0.34-0.33,0.5-0.5c0.17-0.166,0.34-0.33,0.5-0.5
				c0.17-0.166,0.34-0.33,0.5-0.5c0.17-0.166,0.34-0.33,0.5-0.5c0.17-0.166,0.34-0.33,0.5-0.5c0.17-0.166,0.34-0.33,0.5-0.5
				c0.17-0.166,0.34-0.33,0.5-0.5c0.17-0.166,0.34-0.33,0.5-0.5c0.17-0.166,0.34-0.33,0.5-0.5c0.17-0.166,0.34-0.33,0.5-0.5
				c4.927-4.779,5.727-12.367,2.013-18.049c0.117-0.115,0.231-0.232,0.343-0.354c0.17-0.164,0.341-0.328,0.5-0.5
				c0.17-0.164,0.341-0.328,0.5-0.5c0.17-0.164,0.341-0.328,0.5-0.5c0.17-0.164,0.341-0.328,0.5-0.5c0.17-0.164,0.341-0.328,0.5-0.5
				c0.17-0.164,0.341-0.328,0.5-0.5c0.17-0.164,0.341-0.328,0.5-0.5c0.17-0.164,0.341-0.328,0.5-0.5c0.17-0.164,0.341-0.328,0.5-0.5
				c0.17-0.164,0.341-0.328,0.5-0.5c0.17-0.164,0.341-0.328,0.5-0.5c0.17-0.164,0.341-0.328,0.5-0.5c0.17-0.164,0.341-0.328,0.5-0.5
				c0.17-0.164,0.341-0.328,0.5-0.5c0.17-0.164,0.341-0.328,0.5-0.5c0.17-0.164,0.341-0.328,0.5-0.5c0.17-0.164,0.341-0.328,0.5-0.5
				c0.17-0.164,0.341-0.328,0.5-0.5c0.17-0.164,0.341-0.328,0.5-0.5c0.17-0.164,0.341-0.328,0.5-0.5c0.17-0.164,0.341-0.328,0.5-0.5
				c0.17-0.164,0.341-0.328,0.5-0.5c0.17-0.164,0.341-0.328,0.5-0.5c0.17-0.164,0.341-0.328,0.5-0.5c0.17-0.164,0.341-0.328,0.5-0.5
				c0.17-0.164,0.341-0.328,0.5-0.5c0.17-0.164,0.341-0.328,0.5-0.5c0.17-0.164,0.341-0.328,0.5-0.5c0.17-0.164,0.341-0.328,0.5-0.5
				c0.17-0.164,0.341-0.328,0.5-0.5c0.17-0.164,0.341-0.328,0.5-0.5c0.17-0.164,0.341-0.328,0.5-0.5c0.17-0.164,0.341-0.328,0.5-0.5
				c0.17-0.164,0.341-0.328,0.5-0.5c0.17-0.164,0.341-0.328,0.5-0.5c0.17-0.164,0.341-0.328,0.5-0.5c0.17-0.164,0.341-0.328,0.5-0.5
				c0.17-0.164,0.341-0.328,0.5-0.5c0.17-0.164,0.341-0.328,0.5-0.5c0.17-0.164,0.341-0.328,0.5-0.5c0.17-0.164,0.341-0.328,0.5-0.5
				c0.17-0.164,0.341-0.328,0.5-0.5c0.17-0.164,0.341-0.328,0.5-0.5c0.17-0.164,0.341-0.328,0.5-0.5c0.17-0.164,0.341-0.328,0.5-0.5
				c0.17-0.164,0.341-0.328,0.5-0.5c0.17-0.164,0.341-0.328,0.5-0.5c0.17-0.164,0.341-0.328,0.5-0.5c0.17-0.164,0.341-0.328,0.5-0.5
				c0.17-0.164,0.341-0.328,0.5-0.5c0.17-0.164,0.341-0.328,0.5-0.5c0.17-0.164,0.341-0.328,0.5-0.5c0.17-0.164,0.341-0.328,0.5-0.5
				c0.17-0.164,0.341-0.328,0.5-0.5c0.17-0.164,0.341-0.328,0.5-0.5c0.17-0.164,0.341-0.328,0.5-0.5c0.17-0.164,0.341-0.328,0.5-0.5
				c0.17-0.164,0.341-0.328,0.5-0.5c0.17-0.165,0.341-0.328,0.5-0.5c0.17-0.165,0.341-0.329,0.5-0.5c0.17-0.165,0.341-0.329,0.5-0.5
				c0.17-0.165,0.341-0.329,0.5-0.5c0.17-0.165,0.341-0.329,0.5-0.5c0.17-0.165,0.341-0.329,0.5-0.5c0.17-0.165,0.341-0.329,0.5-0.5
				c0.17-0.165,0.341-0.329,0.5-0.5c0.17-0.165,0.341-0.329,0.5-0.5c0.17-0.165,0.341-0.329,0.5-0.5c0.17-0.165,0.341-0.329,0.5-0.5
				c0.17-0.165,0.341-0.329,0.5-0.5c0.172-0.166,0.343-0.331,0.502-0.502c0.171-0.165,0.34-0.328,0.498-0.499
				c0.17-0.165,0.341-0.329,0.5-0.5c0.17-0.165,0.341-0.329,0.5-0.5c0.17-0.165,0.341-0.329,0.5-0.5c0.17-0.165,0.341-0.329,0.5-0.5
				c0.17-0.165,0.341-0.329,0.5-0.5c0.17-0.165,0.341-0.329,0.5-0.5c0.17-0.165,0.341-0.329,0.5-0.5c0.17-0.165,0.341-0.329,0.5-0.5
				c0.17-0.165,0.341-0.329,0.5-0.5c1.782-1.729,3.027-3.822,3.711-6.065c0.089-0.09,0.173-0.182,0.259-0.274
				c0.17-0.165,0.34-0.329,0.5-0.5c0.17-0.165,0.34-0.329,0.5-0.5c0.17-0.165,0.34-0.329,0.5-0.5c0.17-0.165,0.34-0.329,0.5-0.5
				c0.17-0.165,0.34-0.329,0.5-0.5c0.17-0.165,0.34-0.329,0.5-0.5c0.17-0.165,0.34-0.329,0.5-0.5c0.17-0.165,0.34-0.329,0.5-0.5
				c0.17-0.165,0.34-0.329,0.5-0.5c0.17-0.165,0.34-0.329,0.5-0.5c0.17-0.165,0.34-0.329,0.5-0.5c0.17-0.165,0.34-0.329,0.5-0.5
				c0.17-0.165,0.34-0.329,0.5-0.5c0.17-0.165,0.34-0.329,0.5-0.5c0.17-0.165,0.34-0.329,0.5-0.5c0.17-0.165,0.34-0.329,0.5-0.5
				c0.17-0.165,0.34-0.329,0.5-0.5c0.17-0.165,0.34-0.329,0.5-0.5c0.17-0.165,0.34-0.329,0.5-0.5c0.17-0.165,0.34-0.329,0.5-0.5
				c0.17-0.165,0.34-0.329,0.5-0.5c0.17-0.165,0.34-0.329,0.5-0.5c0.17-0.165,0.34-0.329,0.5-0.5c0.17-0.165,0.34-0.329,0.5-0.5
				c0.17-0.165,0.34-0.329,0.5-0.5c0.17-0.165,0.34-0.329,0.5-0.5c0.17-0.165,0.34-0.329,0.5-0.5c0.17-0.165,0.34-0.329,0.5-0.5
				c0.17-0.165,0.34-0.329,0.5-0.5c0.17-0.165,0.34-0.329,0.5-0.5c0.17-0.165,0.34-0.329,0.5-0.5c0.17-0.165,0.34-0.329,0.5-0.5
				c0.17-0.165,0.34-0.329,0.5-0.5c0.17-0.165,0.34-0.329,0.5-0.5c0.17-0.165,0.34-0.329,0.5-0.5c0.17-0.165,0.34-0.329,0.5-0.5
				c0.17-0.165,0.34-0.329,0.5-0.5c0.17-0.165,0.34-0.329,0.5-0.5c0.17-0.165,0.34-0.329,0.5-0.5c0.17-0.165,0.34-0.329,0.5-0.5
				c0.17-0.165,0.34-0.329,0.5-0.5c0.17-0.165,0.34-0.329,0.5-0.5c0.17-0.165,0.34-0.329,0.5-0.5c0.17-0.165,0.34-0.329,0.5-0.5
				c0.17-0.165,0.34-0.329,0.5-0.5c0.17-0.165,0.34-0.329,0.5-0.5c0.17-0.165,0.34-0.329,0.5-0.5c0.17-0.165,0.34-0.329,0.5-0.5
				c0.17-0.165,0.34-0.329,0.5-0.5c0.17-0.165,0.34-0.329,0.5-0.5c0.17-0.165,0.34-0.329,0.5-0.5c0.17-0.165,0.34-0.329,0.5-0.5
				c0.17-0.165,0.34-0.329,0.5-0.5c0.17-0.165,0.34-0.329,0.5-0.5c0.17-0.165,0.34-0.329,0.5-0.5c0.17-0.165,0.34-0.329,0.5-0.5
				c0.17-0.165,0.34-0.329,0.5-0.5c0.17-0.165,0.34-0.329,0.5-0.5c0.17-0.165,0.34-0.329,0.5-0.5c0.17-0.165,0.34-0.329,0.5-0.5
				c0.17-0.165,0.34-0.329,0.5-0.5c0.17-0.165,0.34-0.329,0.5-0.5c0.17-0.165,0.34-0.329,0.5-0.5c0.17-0.165,0.34-0.329,0.5-0.5
				c0.17-0.165,0.34-0.329,0.5-0.5c0.17-0.165,0.34-0.329,0.5-0.5c0.17-0.165,0.34-0.329,0.5-0.5c0.17-0.165,0.34-0.329,0.5-0.5
				c0.17-0.165,0.34-0.329,0.5-0.5c0.17-0.165,0.34-0.329,0.5-0.5c0.17-0.165,0.34-0.329,0.5-0.5c0.17-0.165,0.34-0.329,0.5-0.5
				c0.17-0.165,0.34-0.329,0.5-0.5c0.17-0.165,0.34-0.329,0.5-0.5c0.17-0.165,0.34-0.329,0.5-0.5c0.17-0.165,0.34-0.329,0.5-0.5
				c0.17-0.165,0.34-0.329,0.5-0.5c0.17-0.165,0.34-0.329,0.5-0.5c0.17-0.165,0.34-0.329,0.5-0.5c0.17-0.165,0.34-0.329,0.5-0.5
				c0.17-0.165,0.34-0.329,0.5-0.5c0.17-0.165,0.34-0.329,0.5-0.5c0.17-0.165,0.34-0.329,0.5-0.5c0.17-0.165,0.34-0.329,0.5-0.5
				c0.17-0.165,0.34-0.329,0.5-0.5c0.17-0.165,0.34-0.329,0.5-0.5c0.17-0.165,0.34-0.329,0.5-0.5c0.17-0.165,0.34-0.329,0.5-0.5
				c0.17-0.165,0.34-0.329,0.5-0.5c0.17-0.165,0.34-0.329,0.5-0.5c0.17-0.165,0.34-0.329,0.5-0.5c0.17-0.165,0.34-0.329,0.5-0.5
				c0.17-0.165,0.34-0.329,0.5-0.5c0.17-0.165,0.34-0.329,0.5-0.5c0.17-0.165,0.34-0.329,0.5-0.5c0.17-0.165,0.34-0.329,0.5-0.5
				c0.17-0.165,0.34-0.329,0.5-0.5C438.358,185.038,438.851,176.52,433.96,170.746z"/>
		</g>
	</g>
	<g>
		<path fill="#FFFFFF" d="M256.092,320.932c-18.447,0-33.391,14.945-33.391,33.385c0,18.438,14.943,33.384,33.391,33.384
			c18.446,0,33.391-14.945,33.391-33.384C289.483,335.877,274.538,320.932,256.092,320.932z"/>
		<path fill="#FFFFFF" d="M256.092,246.212c-31.862,0.004-61.954,13.954-82.543,38.274c-5.105,6.027-4.36,15.059,1.677,20.162
			c2.685,2.276,5.963,3.392,9.233,3.392c4.063,0,8.095-1.72,10.926-5.063c15.15-17.884,37.287-28.145,60.707-28.147
			c23.422,0.004,45.557,10.265,60.706,28.147c2.833,3.344,6.863,5.063,10.928,5.063c3.271,0,6.548-1.114,9.231-3.392
			c6.037-5.104,6.783-14.135,1.678-20.162C318.046,260.166,287.954,246.216,256.092,246.212z"/>
		<path fill="#FFFFFF" d="M256.092,167.442c-48.408,0.009-94.114,21.2-125.398,58.143c-5.105,6.027-4.358,15.057,1.677,20.162
			c2.685,2.277,5.963,3.39,9.232,3.39c4.063,0,8.098-1.719,10.931-5.062c25.843-30.507,63.591-48.01,103.56-48.019
			c39.966,0.009,77.717,17.512,103.562,48.019c2.831,3.343,6.864,5.062,10.928,5.062c3.271,0,6.552-1.113,9.233-3.39
			c6.036-5.105,6.782-14.135,1.675-20.162C350.205,188.643,304.5,167.452,256.092,167.442z"/>
		<path fill="#FFFFFF" d="M433.96,170.746c-44.384-52.4-109.205-82.459-177.868-82.473c-68.661,0.014-133.485,30.073-177.868,82.473
			c-5.105,6.027-4.36,15.058,1.677,20.163c2.684,2.277,5.961,3.39,9.233,3.39c4.059,0,8.095-1.719,10.926-5.063
			c38.936-45.963,95.799-72.334,156.032-72.349c60.229,0.015,117.097,26.385,156.029,72.349c2.833,3.344,6.866,5.063,10.931,5.063
			c3.268,0,6.548-1.113,9.229-3.39C438.319,185.804,439.065,176.773,433.96,170.746z"/>
	</g>
</g>
</svg>
