<?xml version="1.0" encoding="utf-8"?>
<!-- Generator: Adobe Illustrator 16.0.3, SVG Export Plug-In . SVG Version: 6.00 Build 0)  -->
<!DOCTYPE svg PUBLIC "-//W3C//DTD SVG 1.1//EN" "http://www.w3.org/Graphics/SVG/1.1/DTD/svg11.dtd">
<svg version="1.1" id="Layer_1" xmlns="http://www.w3.org/2000/svg" xmlns:xlink="http://www.w3.org/1999/xlink" x="0px" y="0px"
	 width="128px" height="128px" viewBox="0 0 128 128" enable-background="new 0 0 128 128" xml:space="preserve">
<path fill="#444953" d="M128,25c0-13.807-11.193-25-25.002-25H25.002C11.194,0,0,11.193,0,25v78c0,13.807,11.194,25,25.002,25
	h77.996C116.807,128,128,116.807,128,103V25z"/>
<g>
	<g>
		<defs>
			<path id="SVGID_1_" d="M128,25c0-13.807-11.193-25-25.002-25H25.002C11.194,0,0,11.193,0,25v78c0,13.807,11.194,25,25.002,25
				h77.996C116.807,128,128,116.807,128,103V25z"/>
		</defs>
		<clipPath id="SVGID_2_">
			<use xlink:href="#SVGID_1_"  overflow="visible"/>
		</clipPath>
		<path clip-path="url(#SVGID_2_)" fill="#353A42" enable-background="new    " d="M110.09,67H89.604
			c0.004,0,0.006-0.135,0.01-0.141c0.049-0.035,0.089-0.139,0.125-0.187c0.049-0.036,0.09-0.108,0.125-0.155
			c0.049-0.037,0.09-0.094,0.125-0.142c0.049-0.036,0.09-0.085,0.125-0.133c0.049-0.036,0.09-0.081,0.125-0.129
			c0.049-0.036,0.09-0.079,0.125-0.128c0.049-0.035,0.09-0.077,0.125-0.125c0.049-0.036,0.09-0.077,0.125-0.127
			c0.049-0.034,0.09-0.076,0.125-0.125c0.049-0.035,0.09-0.076,0.125-0.125c0.049-0.035,0.09-0.076,0.125-0.125
			c0.049-0.035,0.09-0.076,0.125-0.125c0.049-0.035,0.09-0.076,0.125-0.125c0.049-0.036,0.09-0.076,0.125-0.125
			c0.049-0.035,0.09-0.076,0.125-0.125c0.049-0.035,0.09-0.076,0.125-0.125c0.049-0.035,0.09-0.076,0.125-0.125
			c0.049-0.035,0.09-0.076,0.125-0.125c0.049-0.036,0.09-0.077,0.125-0.125c0.049-0.036,0.09-0.077,0.125-0.125
			c0.049-0.036,0.09-0.077,0.125-0.125c0.049-0.036,0.09-0.077,0.125-0.125c0.049-0.036,0.09-0.077,0.125-0.125
			c0.049-0.036,0.09-0.077,0.125-0.125c0.049-0.036,0.09-0.077,0.125-0.125c0.049-0.036,0.09-0.077,0.125-0.125
			c0.049-0.036,0.09-0.077,0.125-0.125c0.049-0.036,0.09-0.077,0.125-0.125c0.049-0.036,0.09-0.077,0.125-0.125
			c0.049-0.036,0.09-0.077,0.125-0.125c0.049-0.036,0.09-0.077,0.125-0.125c0.049-0.036,0.09-0.077,0.125-0.125
			c0.049-0.036,0.09-0.077,0.125-0.125c0.049-0.036,0.09-0.077,0.125-0.125c0.049-0.036,0.09-0.077,0.125-0.125
			c0.049-0.036,0.09-0.077,0.125-0.125c0.049-0.036,0.09-0.077,0.125-0.125c0.049-0.036,0.09-0.077,0.125-0.125
			c0.049-0.036,0.09-0.077,0.125-0.125c0.049-0.036,0.09-0.077,0.125-0.125c0.049-0.036,0.09-0.077,0.125-0.125
			c0.049-0.036,0.09-0.077,0.125-0.125c0.049-0.036,0.09-0.077,0.125-0.125c0.049-0.036,0.09-0.077,0.125-0.125
			c0.049-0.036,0.09-0.077,0.125-0.125c0.049-0.036,0.09-0.077,0.125-0.125c0.049-0.036,0.09-0.077,0.125-0.125
			c0.049-0.036,0.09-0.077,0.125-0.125c0.049-0.036,0.09-0.077,0.125-0.125c0.049-0.036,0.09-0.077,0.125-0.125
			c0.049-0.036,0.09-0.077,0.125-0.125c0.049-0.036,0.09-0.077,0.125-0.125c0.049-0.036,0.09-0.077,0.125-0.125
			c0.049-0.036,0.09-0.077,0.125-0.125c0.049-0.036,0.09-0.077,0.125-0.125c0.049-0.036,0.09-0.077,0.125-0.125
			c0.049-0.036,0.09-0.077,0.125-0.125c0.049-0.036,0.09-0.077,0.125-0.125c0.049-0.036,0.09-0.077,0.125-0.125
			c0.049-0.036,0.09-0.077,0.125-0.125c0.049-0.036,0.09-0.077,0.125-0.125c0.049-0.036,0.09-0.077,0.125-0.125
			c0.049-0.036,0.09-0.077,0.125-0.125c0.049-0.036,0.09-0.077,0.125-0.125c0.049-0.036,0.09-0.077,0.125-0.125
			c0.049-0.036,0.09-0.077,0.125-0.125c0.049-0.036,0.09-0.077,0.125-0.125c0.049-0.036,0.09-0.077,0.125-0.125
			c0.049-0.036,0.338-0.077,0.375-0.125C98.645,57.993,99,57.814,99,57.604V39.396c0-0.005-0.252-0.009-0.252-0.014
			c0.033-0.031-0.063-0.063-0.032-0.096c0.043-0.041,0.022-0.082,0.063-0.125c0.043-0.041,0.054-0.082,0.094-0.125
			c0.043-0.041,0.068-0.082,0.109-0.125c0.041-0.041,0.076-0.081,0.115-0.124c0.043-0.041,0.082-0.082,0.123-0.126
			c0.043-0.041,0.082-0.081,0.123-0.125c0.043-0.041,0.084-0.081,0.123-0.125c0.043-0.041,0.086-0.081,0.124-0.125
			c0.043-0.041,0.085-0.081,0.125-0.125c0.043-0.041,0.085-0.081,0.125-0.125c0.043-0.041,0.085-0.081,0.125-0.125
			c0.043-0.041,0.085-0.081,0.125-0.124c0.043-0.041,0.085-0.082,0.126-0.126c0.043-0.041,0.086-0.081,0.125-0.125
			c0.043-0.041,0.086-0.081,0.125-0.125c0.043-0.041,0.086-0.081,0.125-0.125c0.043-0.041,0.086-0.081,0.125-0.125
			c0.043-0.041,0.086-0.081,0.125-0.125c0.043-0.041,0.086-0.081,0.125-0.125c0.043-0.041,0.086-0.081,0.125-0.125
			c0.043-0.041,0.086-0.081,0.125-0.125c0.043-0.041,0.086-0.081,0.125-0.125c0.043-0.041,0.086-0.081,0.125-0.125
			c0.043-0.041,0.084-0.081,0.124-0.125c0.043-0.041,0.085-0.082,0.126-0.125c0.043-0.041,0.086-0.082,0.125-0.125
			c0.043-0.041,0.086-0.082,0.125-0.125c0.043-0.041,0.086-0.082,0.125-0.125c0.043-0.041,0.086-0.082,0.125-0.125
			c0.043-0.041,0.086-0.082,0.125-0.125c0.043-0.041,0.086-0.082,0.125-0.125c0.043-0.041,0.086-0.082,0.125-0.125
			c0.043-0.041,0.086-0.082,0.125-0.125c0.043-0.041,0.086-0.082,0.125-0.125c0.043-0.041,0.086-0.082,0.125-0.125
			c0.043-0.041,0.086-0.082,0.125-0.125c0.043-0.041,0.086-0.082,0.125-0.125c0.043-0.041,0.086-0.082,0.125-0.125
			c0.043-0.041,0.086-0.082,0.125-0.125c0.043-0.041,0.086-0.082,0.125-0.125c0.043-0.041,0.086-0.082,0.125-0.125
			c0.043-0.041,0.086-0.082,0.125-0.125c0.043-0.041,0.086-0.082,0.125-0.125c0.043-0.041,0.086-0.082,0.125-0.125
			c0.043-0.041,0.086-0.082,0.125-0.125c0.043-0.041,0.086-0.082,0.125-0.125c0.043-0.041,0.086-0.082,0.125-0.125
			c0.043-0.041,0.086-0.082,0.125-0.125c0.043-0.041,0.086-0.082,0.125-0.125c0.043-0.041,0.086-0.082,0.125-0.125
			c0.043-0.041,0.086-0.082,0.125-0.125c0.043-0.041,0.086-0.082,0.125-0.125c0.043-0.041,0.086-0.082,0.125-0.125
			c0.043-0.041,0.086-0.082,0.125-0.125c0.043-0.041,0.086-0.082,0.125-0.125c0.043-0.041,0.086-0.082,0.125-0.125
			c0.043-0.041,0.086-0.082,0.125-0.125c0.043-0.041,0.086-0.082,0.125-0.125c0.043-0.041,0.086-0.082,0.125-0.125
			c0.043-0.041,0.086-0.082,0.125-0.125c0.043-0.041,0.086-0.082,0.125-0.125c0.043-0.041,0.086-0.082,0.125-0.125
			c0.043-0.041,0.086-0.082,0.125-0.125c0.043-0.041,0.086-0.082,0.125-0.125c0.043-0.041,0.086-0.082,0.125-0.125
			c0.043-0.041,0.086-0.082,0.125-0.125c0.043-0.041,0.086-0.082,0.125-0.125c0.043-0.041,0.086-0.082,0.125-0.125
			c0.043-0.041,0.086-0.082,0.125-0.125c0.043-0.041,0.086-0.082,0.125-0.125c0.043-0.041,0.086-0.082,0.125-0.125
			c0.043-0.041,0.086-0.082,0.125-0.125c0.043-0.041,0.086-0.082,0.125-0.125c0.043-0.041,0.086-0.082,0.125-0.125
			c0.043-0.041,0.086-0.082,0.125-0.125c0.043-0.041,0.086-0.082,0.125-0.125c0.043-0.041,0.086-0.082,0.125-0.125
			c0.043-0.041,0.086-0.082,0.125-0.125c0.043-0.041,0.086-0.082,0.125-0.125c0.043-0.041,0.086-0.082,0.125-0.125
			c0.043-0.041,0.086-0.082,0.125-0.125c0.043-0.041,0.086-0.082,0.125-0.125c0.043-0.041,0.086-0.082,0.125-0.125
			c0.043-0.041,0.086-0.082,0.125-0.125c0.042-0.041,0.084-0.081,0.124-0.124c0.043-0.041,0.087-0.082,0.126-0.126
			c0.043-0.041,0.086-0.081,0.125-0.125c0.043-0.041,0.086-0.081,0.125-0.125c0.043-0.041,0.086-0.081,0.125-0.125
			c0.043-0.041,0.086-0.081,0.125-0.125c0.043-0.041,0.086-0.081,0.125-0.125c0.043-0.041,0.086-0.081,0.125-0.125
			c0.043-0.041,0.086-0.081,0.125-0.125c0.043-0.041,0.086-0.081,0.125-0.125c0.043-0.041,0.086-0.081,0.125-0.125
			c0.043-0.041,0.086-0.081,0.125-0.124c0.043-0.041,0.086-0.082,0.126-0.126c0.044-0.041,0.085-0.081,0.125-0.125
			c0.044-0.041,0.085-0.081,0.125-0.125c0.044-0.041,0.085-0.081,0.125-0.125c0.044-0.041,0.085-0.081,0.125-0.125
			c0.044-0.041,0.085-0.081,0.125-0.125c0.044-0.041,0.085-0.081,0.125-0.125c0.044-0.041,0.085-0.081,0.125-0.125
			c0.044-0.041,0.085-0.081,0.125-0.125c0.044-0.041,0.085-0.081,0.125-0.125c0.509-0.482,0.832-0.912,0.832-1.661
			c0-1.428-1.157-2.375-2.586-2.375h-93.09c-0.734,0-1.372,0.073-1.822,0.578c-0.042,0.042-0.086-0.044-0.125,0
			c-0.042,0.042-0.086,0.018-0.125,0.063c-0.042,0.042-0.086,0.049-0.125,0.094c-0.042,0.042-0.086,0.065-0.125,0.109
			c-0.042,0.042-0.086,0.073-0.125,0.117c-0.042,0.042-0.086,0.077-0.125,0.121c-0.042,0.042-0.086,0.079-0.125,0.123
			c-0.042,0.042-0.086,0.08-0.125,0.124c-0.042,0.042-0.086,0.08-0.125,0.125c-0.042,0.042-0.086,0.08-0.125,0.125
			c-0.042,0.041-0.086,0.08-0.125,0.125c-0.042,0.042-0.086,0.081-0.125,0.125c-0.042,0.042-0.086,0.081-0.125,0.125
			c-0.042,0.042-0.086,0.081-0.125,0.125c-0.042,0.042-0.086,0.081-0.125,0.125c-0.042,0.042-0.086,0.081-0.125,0.125
			c-0.042,0.042-0.086,0.081-0.125,0.125c-0.042,0.042-0.086,0.081-0.125,0.125c-0.042,0.042-0.086,0.081-0.125,0.125
			c-0.042,0.042-0.086,0.081-0.125,0.125c-0.042,0.042-0.086,0.081-0.125,0.125c-0.042,0.042-0.086,0.081-0.125,0.125
			c-0.042,0.042-0.086,0.081-0.125,0.125c-0.042,0.042-0.086,0.081-0.125,0.125c-0.042,0.042-0.086,0.081-0.125,0.125
			c-0.042,0.042-0.086,0.081-0.125,0.125c-0.042,0.042-0.086,0.081-0.125,0.125c-0.042,0.042-0.086,0.081-0.125,0.125
			c-0.042,0.042-0.086,0.081-0.125,0.125c-0.042,0.042-0.086,0.081-0.125,0.125c-0.042,0.042-0.086,0.081-0.125,0.125
			c-0.042,0.042-0.086,0.081-0.125,0.125c-0.042,0.042-0.086,0.081-0.125,0.125c-0.042,0.042-0.086,0.081-0.125,0.125
			c-0.042,0.042-0.086,0.081-0.125,0.125c-0.042,0.042-0.086,0.081-0.125,0.125c-0.042,0.042-0.086,0.081-0.125,0.125
			c-0.042,0.042-0.086,0.081-0.125,0.125c-0.042,0.042-0.086,0.081-0.125,0.125c-0.042,0.042-0.086,0.081-0.125,0.125
			c-0.042,0.042-0.086,0.081-0.125,0.125c-0.042,0.042-0.086,0.081-0.125,0.125c-0.042,0.042-0.086,0.081-0.125,0.125
			c-0.042,0.042-0.086,0.081-0.125,0.125c-0.042,0.042-0.086,0.081-0.125,0.125c-0.042,0.042-0.086,0.081-0.125,0.125
			c-0.042,0.042-0.086,0.081-0.125,0.125c-0.042,0.042-0.086,0.081-0.125,0.125c-0.042,0.042-0.086,0.081-0.125,0.125
			c-0.042,0.042-0.086,0.081-0.125,0.125c-0.042,0.042-0.086,0.081-0.125,0.125c-0.042,0.042-0.086,0.081-0.125,0.125
			c-0.042,0.042-0.086,0.081-0.125,0.125c-0.042,0.041-0.085,0.08-0.125,0.124c-0.042,0.042-0.086,0.082-0.126,0.126
			c-0.042,0.042-0.085,0.081-0.125,0.125c-0.042,0.042-0.085,0.081-0.125,0.125c-0.042,0.042-0.085,0.081-0.125,0.125
			c-0.042,0.042-0.085,0.081-0.125,0.125c-0.042,0.042-0.085,0.081-0.125,0.125c-0.042,0.042-0.085,0.081-0.125,0.125
			c-0.042,0.041-0.085,0.08-0.124,0.124c-0.042,0.042-0.086,0.082-0.126,0.126c-0.042,0.042-0.085,0.081-0.125,0.125
			c-0.042,0.042-0.085,0.081-0.125,0.125c-0.042,0.042-0.085,0.081-0.125,0.125c-0.042,0.042-0.085,0.081-0.125,0.125
			c-0.042,0.042-0.085,0.081-0.125,0.125c-0.042,0.042-0.085,0.081-0.125,0.125c-0.042,0.042-0.085,0.081-0.125,0.125
			c-0.042,0.042-0.085,0.081-0.125,0.125c-0.042,0.042-0.085,0.081-0.125,0.125c-0.042,0.042-0.085,0.081-0.125,0.125
			c-0.042,0.042-0.085,0.081-0.125,0.125c-0.042,0.042-0.085,0.081-0.125,0.125c-0.042,0.042-0.086,0.081-0.125,0.125
			c-0.042,0.042-0.086,0.081-0.125,0.125c-0.042,0.042-0.086,0.081-0.125,0.125c-0.042,0.042-0.086,0.081-0.125,0.125
			c-0.042,0.042-0.086,0.081-0.125,0.125c-0.042,0.042-0.086,0.081-0.125,0.125c-0.042,0.042-0.086,0.081-0.125,0.125
			c-0.042,0.042-0.086,0.081-0.125,0.125c-0.042,0.042-0.086,0.081-0.125,0.125c-0.042,0.042-0.086,0.081-0.125,0.125
			c-0.042,0.042-0.086,0.081-0.125,0.125c-0.042,0.042-0.086,0.081-0.125,0.125c-0.042,0.042-0.086,0.081-0.125,0.125
			c-0.042,0.042-0.086,0.081-0.125,0.125c-0.042,0.042-0.086,0.081-0.125,0.125c-0.042,0.042-0.086,0.081-0.125,0.125
			c-0.042,0.042-0.086,0.081-0.125,0.125c-0.042,0.042-0.086,0.081-0.125,0.125c-0.042,0.042-0.086,0.081-0.125,0.125
			c-0.042,0.042-0.086,0.081-0.125,0.125c-0.042,0.042-0.086,0.081-0.125,0.125c-0.042,0.042-0.086,0.081-0.125,0.125
			c-0.042,0.042-0.086,0.081-0.125,0.125c-0.042,0.042-0.086,0.081-0.125,0.125c-0.042,0.042-0.086,0.081-0.125,0.125
			c-0.042,0.042-0.086,0.081-0.125,0.125c-0.042,0.042-0.086,0.081-0.125,0.125c-0.042,0.042-0.086,0.081-0.125,0.125
			c-0.042,0.042-0.086,0.081-0.125,0.125c-0.042,0.042-0.086,0.081-0.125,0.125c-0.042,0.042-0.086,0.081-0.125,0.125
			c-0.042,0.042-0.086,0.081-0.125,0.125c-0.042,0.042-0.086,0.081-0.125,0.125c-0.042,0.042-0.086,0.081-0.125,0.125
			c-0.042,0.042-0.086,0.081-0.125,0.125c-0.042,0.042-0.086,0.081-0.125,0.125c-0.042,0.042-0.086,0.081-0.125,0.125
			c-0.042,0.042-0.086,0.081-0.125,0.125c-0.042,0.042-0.086,0.081-0.125,0.125c-0.042,0.042-0.086,0.081-0.125,0.125
			c-0.042,0.042-0.086,0.081-0.125,0.125c-0.042,0.042-0.086,0.081-0.125,0.125c-0.042,0.042-0.086,0.081-0.125,0.125
			c-0.042,0.042-0.086,0.081-0.125,0.125c-0.042,0.042-0.086,0.081-0.125,0.125c-0.042,0.042-0.086,0.081-0.125,0.125
			c-0.042,0.042-0.086,0.081-0.125,0.125c-0.042,0.042-0.086,0.081-0.125,0.125c-0.042,0.042-0.086,0.081-0.125,0.125
			c-0.042,0.042-0.086,0.081-0.125,0.125c-0.042,0.042-0.086,0.081-0.125,0.125c-0.042,0.042-0.086,0.081-0.125,0.125
			c-0.042,0.042-0.086,0.081-0.125,0.125c-0.042,0.042-0.086,0.081-0.125,0.125c-0.042,0.042-0.086,0.081-0.125,0.125
			c-0.042,0.042-0.086,0.081-0.125,0.125c-0.042,0.042-0.086,0.081-0.125,0.125c-0.042,0.042-0.086,0.081-0.125,0.125
			c-0.042,0.042-0.086,0.081-0.125,0.125c-0.042,0.042-0.086,0.081-0.125,0.125c-0.042,0.041-0.085,0.08-0.125,0.124
			C-1.866,39.37-1.91,39.41-1.95,39.454c-0.042,0.042-0.085,0.081-0.125,0.125C-2.117,39.621-2.16,39.66-2.2,39.704
			c-0.042,0.042-0.085,0.081-0.125,0.125c-0.042,0.042-0.085,0.081-0.125,0.125c-0.042,0.042-0.085,0.081-0.125,0.125
			C-2.617,40.121-2.66,40.16-2.7,40.204c-0.042,0.042-0.085,0.081-0.125,0.125c-0.042,0.041-0.085,0.08-0.124,0.124
			c-0.042,0.042-0.086,0.082-0.126,0.126C-3.117,40.621-3.16,40.66-3.2,40.704c-0.042,0.042-0.085,0.081-0.125,0.125
			c-0.042,0.042-0.085,0.081-0.125,0.125c-0.042,0.042-0.085,0.081-0.125,0.125C-3.617,41.121-3.66,41.16-3.7,41.204
			c-0.042,0.042-0.085,0.081-0.125,0.125c-0.042,0.042-0.085,0.081-0.125,0.125c-0.042,0.042-0.085,0.081-0.125,0.125
			C-4.117,41.621-4.16,41.66-4.2,41.704c-0.042,0.042-0.085,0.081-0.125,0.125c-0.042,0.042-0.085,0.081-0.125,0.125
			c-0.042,0.042-0.086,0.081-0.125,0.125c-0.042,0.042-0.086,0.081-0.125,0.125c-0.042,0.042-0.086,0.081-0.125,0.125
			c-0.042,0.042-0.086,0.081-0.125,0.125c-0.042,0.042-0.086,0.081-0.125,0.125c-0.042,0.042-0.086,0.081-0.125,0.125
			c-0.042,0.042-0.086,0.081-0.125,0.125c-0.042,0.042-0.086,0.081-0.125,0.125c-0.042,0.042-0.086,0.081-0.125,0.125
			c-0.042,0.042-0.086,0.081-0.125,0.125c-0.042,0.042-0.086,0.081-0.125,0.125c-0.042,0.042-0.086,0.081-0.125,0.125
			c-0.042,0.042-0.086,0.081-0.125,0.125c-0.042,0.042-0.086,0.081-0.125,0.125c-0.042,0.042-0.086,0.081-0.125,0.125
			c-0.042,0.042-0.086,0.081-0.125,0.125c-0.042,0.042-0.086,0.081-0.125,0.125c-0.042,0.042-0.086,0.081-0.125,0.125
			c-0.042,0.042-0.086,0.081-0.125,0.125c-0.042,0.042-0.086,0.081-0.125,0.125c-0.042,0.042-0.086,0.081-0.125,0.125
			c-0.042,0.042-0.086,0.081-0.125,0.125c-0.042,0.042-0.086,0.081-0.125,0.125c-0.042,0.042-0.086,0.081-0.125,0.125
			c-0.042,0.042-0.086,0.081-0.125,0.125c-0.042,0.042-0.086,0.081-0.125,0.125c-0.042,0.042-0.086,0.081-0.125,0.125
			c-0.042,0.042-0.086,0.081-0.125,0.125c-0.042,0.042-0.086,0.081-0.125,0.125c-0.042,0.042-0.086,0.081-0.125,0.125
			c-0.042,0.042-0.086,0.081-0.125,0.125c-0.042,0.042-0.086,0.081-0.125,0.125c-0.042,0.042-0.086,0.081-0.125,0.125
			c-0.042,0.042-0.086,0.081-0.125,0.125c-0.042,0.042-0.086,0.081-0.125,0.125c-0.042,0.042-0.086,0.081-0.125,0.125
			c-0.042,0.042-0.086,0.081-0.125,0.125c-0.042,0.042-0.086,0.081-0.125,0.125c-0.042,0.042-0.086,0.081-0.125,0.125
			c-0.042,0.042-0.086,0.081-0.125,0.125c-0.042,0.042-0.086,0.081-0.125,0.125c-0.042,0.042-0.086,0.081-0.125,0.125
			c-0.042,0.042-0.086,0.081-0.125,0.125c-0.042,0.042-0.086,0.081-0.125,0.125c-0.042,0.042-0.086,0.081-0.125,0.125
			c-0.042,0.042-0.086,0.081-0.125,0.125c-0.042,0.042-0.086,0.081-0.125,0.125c-0.042,0.042-0.086,0.081-0.125,0.125
			c-0.042,0.042-0.086,0.081-0.125,0.125c-0.042,0.042-0.086,0.081-0.125,0.125c-0.042,0.042-0.086,0.081-0.125,0.125
			c-0.042,0.042-0.086,0.081-0.125,0.125c-0.042,0.042-0.086,0.081-0.125,0.125c-0.042,0.042-0.086,0.081-0.125,0.125
			c-0.042,0.042-0.086,0.081-0.125,0.125c-0.042,0.042-0.086,0.081-0.125,0.125c-0.042,0.042-0.086,0.081-0.125,0.125
			c-0.042,0.042-0.086,0.081-0.125,0.125c-0.042,0.042-0.086,0.081-0.125,0.125c-0.042,0.042-0.086,0.081-0.125,0.125
			c-0.042,0.041-0.085,0.08-0.125,0.124c-0.042,0.042-0.086,0.082-0.126,0.126c-0.042,0.042-0.085,0.081-0.125,0.125
			c-0.042,0.042-0.085,0.081-0.125,0.125c-0.042,0.042-0.085,0.081-0.125,0.125c-0.042,0.042-0.085,0.081-0.125,0.125
			c-0.042,0.042-0.085,0.081-0.125,0.125c-0.042,0.042-0.085,0.081-0.125,0.125c-0.042,0.041-0.085,0.08-0.124,0.124
			c-0.042,0.042-0.086,0.082-0.126,0.126c-0.042,0.042-0.085,0.081-0.125,0.125c-0.042,0.042-0.085,0.081-0.125,0.125
			c-0.042,0.042-0.085,0.081-0.125,0.125c-0.042,0.042-0.085,0.081-0.125,0.125c-0.042,0.042-0.085,0.081-0.125,0.125
			c-0.042,0.042-0.085,0.081-0.125,0.125c-0.042,0.042-0.085,0.081-0.125,0.125c-0.042,0.042-0.085,0.081-0.125,0.125
			c-0.042,0.042-0.085,0.081-0.125,0.125c-0.042,0.042-0.085,0.081-0.125,0.125c-0.042,0.042-0.085,0.081-0.125,0.125
			c-0.042,0.042-0.085,0.081-0.125,0.125c-0.042,0.042-0.086,0.081-0.125,0.125c-0.042,0.042-0.086,0.081-0.125,0.125
			c-0.042,0.042-0.086,0.081-0.125,0.125c-0.042,0.042-0.086,0.081-0.125,0.125c-0.042,0.042-0.086,0.081-0.125,0.125
			c-0.042,0.042-0.086,0.081-0.125,0.125c-0.042,0.042-0.086,0.081-0.125,0.125c-0.042,0.042-0.086,0.081-0.125,0.125
			c-0.042,0.042-0.086,0.081-0.125,0.125c-0.042,0.042-0.086,0.081-0.125,0.125c-0.042,0.042-0.086,0.081-0.125,0.125
			c-0.042,0.042-0.086,0.081-0.125,0.125c-0.042,0.042-0.086,0.081-0.125,0.125c-0.042,0.042-0.086,0.081-0.125,0.125
			c-0.042,0.042-0.086,0.081-0.125,0.125c-0.042,0.042-0.086,0.081-0.125,0.125c-0.042,0.042-0.086,0.081-0.125,0.125
			c-0.042,0.042-0.086,0.081-0.125,0.125c-0.042,0.042-0.086,0.081-0.125,0.125c-0.042,0.042-0.086,0.081-0.125,0.125
			c-0.042,0.042-0.086,0.081-0.125,0.125c-0.042,0.042-0.086,0.081-0.125,0.125c-0.042,0.042-0.086,0.081-0.125,0.125
			c-0.042,0.042-0.086,0.081-0.125,0.125c-0.042,0.042-0.086,0.081-0.125,0.125c-0.042,0.042-0.086,0.081-0.125,0.125
			c-0.042,0.042-0.086,0.081-0.125,0.125c-0.042,0.042-0.086,0.081-0.125,0.125c-0.042,0.042-0.086,0.081-0.125,0.125
			c-0.042,0.042-0.086,0.081-0.125,0.125c-0.042,0.042-0.086,0.081-0.125,0.125c-0.042,0.042-0.086,0.081-0.125,0.125
			c-0.042,0.042-0.086,0.081-0.125,0.125c-0.133,0.13-0.255,0.271-0.358,0.429c-0.006,0.004-0.012,0.002-0.017,0.009
			c-0.042,0.042-0.086,0.049-0.125,0.094c-0.042,0.042-0.086,0.065-0.125,0.109c-0.042,0.042-0.086,0.073-0.125,0.117
			c-0.042,0.042-0.086,0.077-0.125,0.121c-0.042,0.042-0.086,0.079-0.125,0.123c-0.042,0.042-0.086,0.08-0.125,0.124
			c-0.042,0.042-0.086,0.08-0.125,0.125c-0.042,0.042-0.086,0.08-0.125,0.125c-0.042,0.041-0.086,0.08-0.125,0.125
			c-0.042,0.042-0.086,0.081-0.125,0.125c-0.042,0.042-0.086,0.081-0.125,0.125c-0.042,0.042-0.086,0.081-0.125,0.125
			c-0.042,0.042-0.086,0.081-0.125,0.125c-0.042,0.042-0.086,0.081-0.125,0.125c-0.042,0.042-0.086,0.081-0.125,0.125
			c-0.042,0.042-0.086,0.081-0.125,0.125c-0.042,0.042-0.086,0.081-0.125,0.125c-0.042,0.042-0.086,0.081-0.125,0.125
			c-0.042,0.042-0.086,0.081-0.125,0.125c-0.042,0.042-0.086,0.081-0.125,0.125c-0.042,0.042-0.086,0.081-0.125,0.125
			c-0.042,0.042-0.086,0.081-0.125,0.125c-0.042,0.042-0.086,0.081-0.125,0.125c-0.042,0.042-0.086,0.081-0.125,0.125
			c-0.042,0.041-0.085,0.08-0.125,0.124c-0.042,0.042-0.086,0.082-0.126,0.126c-0.042,0.042-0.085,0.081-0.125,0.125
			c-0.042,0.042-0.085,0.081-0.125,0.125c-0.042,0.042-0.085,0.081-0.125,0.125c-0.042,0.042-0.085,0.081-0.125,0.125
			c-0.042,0.042-0.085,0.081-0.125,0.125c-0.042,0.042-0.085,0.081-0.125,0.125c-0.042,0.042-0.085,0.081-0.125,0.125
			c-0.042,0.041-0.085,0.08-0.124,0.124c-0.042,0.042-0.086,0.082-0.126,0.126c-0.042,0.042-0.085,0.081-0.125,0.125
			c-0.042,0.042-0.085,0.081-0.125,0.125c-0.042,0.042-0.085,0.081-0.125,0.125c-0.042,0.042-0.085,0.081-0.125,0.125
			c-0.042,0.042-0.085,0.081-0.125,0.125c-0.042,0.042-0.085,0.081-0.125,0.125c-0.042,0.042-0.085,0.081-0.125,0.125
			c-0.042,0.042-0.085,0.081-0.125,0.125c-0.042,0.042-0.085,0.081-0.125,0.125c-0.042,0.042-0.085,0.081-0.125,0.125
			c-0.042,0.042-0.085,0.081-0.125,0.125c-0.042,0.042-0.086,0.081-0.125,0.125c-0.042,0.042-0.086,0.081-0.125,0.125
			c-0.042,0.042-0.086,0.081-0.125,0.125c-0.042,0.042-0.086,0.081-0.125,0.125c-0.042,0.042-0.086,0.081-0.125,0.125
			c-0.042,0.042-0.085,0.081-0.125,0.125c-0.042,0.042-0.086,0.081-0.125,0.125c-0.042,0.042-0.086,0.081-0.125,0.125
			c-0.042,0.042-0.086,0.081-0.125,0.125c-0.042,0.042-0.086,0.081-0.125,0.125c-0.042,0.042-0.086,0.081-0.125,0.125
			c-0.042,0.042-0.086,0.081-0.125,0.125c-0.042,0.042-0.086,0.081-0.125,0.125c-0.042,0.042-0.086,0.081-0.125,0.125
			c-0.042,0.042-0.086,0.081-0.125,0.125c-0.042,0.042-0.086,0.081-0.125,0.125c-0.042,0.042-0.086,0.081-0.125,0.125
			c-0.042,0.042-0.086,0.081-0.125,0.125c-0.042,0.042-0.086,0.081-0.125,0.125c-0.042,0.042-0.086,0.081-0.125,0.125
			c-0.042,0.042-0.086,0.081-0.125,0.125c-0.042,0.041-0.086,0.08-0.125,0.125c-0.042,0.041-0.086,0.08-0.125,0.125
			c-0.042,0.041-0.086,0.08-0.125,0.125c-0.042,0.041-0.086,0.08-0.125,0.125c-0.042,0.041-0.086,0.08-0.125,0.125
			c-0.042,0.041-0.086,0.08-0.125,0.125c-0.042,0.041-0.086,0.08-0.125,0.125c-0.042,0.041-0.086,0.08-0.125,0.125
			c-0.042,0.041-0.086,0.08-0.125,0.125c-0.042,0.041-0.086,0.08-0.125,0.125c-0.042,0.041-0.086,0.08-0.125,0.125
			c-0.042,0.041-0.086,0.08-0.125,0.125c-0.042,0.041-0.086,0.08-0.125,0.125c-0.042,0.041-0.086,0.08-0.125,0.125
			c-0.042,0.041-0.086,0.08-0.125,0.125c-0.042,0.041-0.086,0.08-0.125,0.125c-0.042,0.041-0.086,0.08-0.125,0.125
			c-0.042,0.041-0.086,0.08-0.125,0.125c-0.042,0.041-0.085,0.08-0.125,0.124c-0.043,0.042-0.086,0.081-0.126,0.126
			c-0.042,0.041-0.085,0.08-0.125,0.125c-0.042,0.041-0.085,0.08-0.125,0.125c-0.042,0.041-0.085,0.08-0.125,0.125
			c-0.042,0.041-0.085,0.08-0.125,0.125c-0.042,0.041-0.085,0.08-0.125,0.125c-0.042,0.041-0.085,0.08-0.125,0.125
			c-0.042,0.041-0.085,0.08-0.125,0.125c-0.042,0.041-0.085,0.08-0.125,0.124c-0.042,0.042-0.086,0.081-0.125,0.126
			c-0.042,0.041-0.085,0.08-0.125,0.125c-0.042,0.041-0.085,0.08-0.125,0.125c-0.042,0.041-0.085,0.08-0.125,0.125
			c-0.042,0.041-0.085,0.08-0.125,0.125c-0.042,0.041-0.085,0.08-0.125,0.125c-0.042,0.041-0.085,0.08-0.125,0.125
			c-0.042,0.041-0.085,0.08-0.125,0.125c-0.042,0.041-0.085,0.08-0.125,0.125c-0.042,0.041-0.085,0.08-0.125,0.125
			c-0.042,0.041-0.085,0.08-0.125,0.124c-0.042,0.042-0.086,0.081-0.125,0.126c-0.042,0.041-0.086,0.08-0.125,0.125
			c-0.042,0.041-0.086,0.08-0.125,0.125c-0.042,0.041-0.086,0.08-0.125,0.125c-0.042,0.041-0.086,0.08-0.125,0.125
			c-0.042,0.041-0.086,0.08-0.125,0.125c-0.042,0.041-0.086,0.08-0.125,0.125c-0.042,0.041-0.086,0.08-0.125,0.125
			c-0.042,0.041-0.086,0.08-0.125,0.125c-0.042,0.041-0.086,0.08-0.125,0.125c-0.042,0.041-0.086,0.08-0.125,0.125
			c-0.042,0.041-0.086,0.08-0.125,0.125c-0.042,0.041-0.086,0.08-0.125,0.125c-0.042,0.041-0.086,0.08-0.125,0.125
			c-0.042,0.041-0.086,0.08-0.125,0.125c-0.042,0.041-0.086,0.08-0.125,0.125c-0.042,0.041-0.086,0.08-0.125,0.125
			c-0.042,0.041-0.086,0.08-0.125,0.125c-0.042,0.041-0.086,0.08-0.125,0.125c-0.042,0.041-0.086,0.08-0.125,0.125
			c-0.042,0.041-0.085,0.08-0.125,0.124c-0.043,0.042-0.086,0.081-0.126,0.126c-0.042,0.041-0.085,0.08-0.125,0.125
			c-0.042,0.041-0.085,0.08-0.125,0.125c-0.042,0.041-0.085,0.08-0.125,0.125c-0.042,0.041-0.085,0.08-0.125,0.125
			c-0.042,0.041-0.085,0.08-0.125,0.125c-0.042,0.041-0.085,0.08-0.125,0.125c-0.042,0.041-0.085,0.08-0.125,0.125
			c-0.042,0.041-0.085,0.08-0.125,0.124c-0.042,0.042-0.086,0.081-0.125,0.126c-0.042,0.041-0.085,0.08-0.125,0.125
			c-0.042,0.041-0.085,0.08-0.125,0.125c-0.042,0.041-0.085,0.08-0.125,0.125c-0.042,0.041-0.085,0.08-0.125,0.125
			c-0.042,0.041-0.085,0.08-0.125,0.125c-0.042,0.041-0.085,0.08-0.125,0.125c-0.042,0.041-0.085,0.08-0.125,0.125
			c-0.042,0.041-0.085,0.08-0.125,0.125c-0.042,0.041-0.085,0.08-0.125,0.125c-0.042,0.041-0.085,0.08-0.125,0.124
			c-0.042,0.042-0.085,0.081-0.125,0.126c-0.042,0.041-0.086,0.08-0.125,0.125c-0.042,0.041-0.086,0.08-0.125,0.125
			c-0.042,0.041-0.086,0.08-0.125,0.125c-0.042,0.041-0.086,0.08-0.125,0.125c-0.042,0.041-0.086,0.08-0.125,0.125
			c-0.042,0.041-0.086,0.08-0.125,0.125c-0.042,0.041-0.086,0.08-0.125,0.125c-0.042,0.041-0.086,0.08-0.125,0.125
			c-0.042,0.041-0.086,0.08-0.125,0.125c-0.042,0.041-0.086,0.08-0.125,0.125c-0.042,0.041-0.086,0.08-0.125,0.125
			c-0.042,0.041-0.086,0.08-0.125,0.125c-0.042,0.041-0.086,0.08-0.125,0.125c-0.042,0.041-0.086,0.08-0.125,0.125
			c-0.042,0.041-0.086,0.08-0.125,0.125c-0.042,0.041-0.086,0.08-0.125,0.125c-0.042,0.041-0.086,0.08-0.125,0.125
			c-0.042,0.041-0.086,0.08-0.125,0.125c-0.042,0.041-0.086,0.08-0.125,0.125c-0.042,0.041-0.085,0.08-0.125,0.124
			c-0.043,0.042-0.086,0.081-0.126,0.126c-0.042,0.041-0.085,0.08-0.125,0.125c-0.042,0.041-0.085,0.08-0.125,0.125
			c-0.042,0.041-0.085,0.08-0.125,0.125c-0.042,0.041-0.085,0.08-0.125,0.125c-0.042,0.041-0.085,0.08-0.125,0.125
			c-0.042,0.041-0.085,0.08-0.125,0.125c-0.042,0.041-0.085,0.08-0.125,0.125c-0.042,0.041-0.085,0.08-0.125,0.124
			c-0.042,0.042-0.086,0.081-0.125,0.126c-0.042,0.041-0.085,0.08-0.125,0.125c-0.042,0.041-0.085,0.08-0.125,0.125
			c-0.042,0.041-0.085,0.08-0.125,0.125c-0.042,0.041-0.085,0.08-0.125,0.125c-0.042,0.041-0.085,0.08-0.125,0.125
			c-0.042,0.041-0.085,0.08-0.125,0.125c-0.042,0.041-0.085,0.08-0.125,0.125c-0.042,0.041-0.085,0.08-0.125,0.125
			c-0.042,0.041-0.085,0.08-0.125,0.125c-0.042,0.041-0.085,0.08-0.125,0.124c-0.042,0.042-0.086,0.081-0.125,0.126
			c-0.042,0.041-0.086,0.08-0.125,0.125c-0.042,0.041-0.086,0.08-0.125,0.125c-0.042,0.041-0.086,0.08-0.125,0.125
			c-0.042,0.041-0.086,0.08-0.125,0.125c-0.042,0.041,0.044,0.08,0.005,0.125C-43.821,81.439-44,82.129-44,82.887v45.248
			c0,1.428,0.816,2.865,2.244,2.865H5.307h0.026h0.099h0.026h0.125l-0.026-1h0.125h0.026h0.099h0.026h0.099h0.026h0.099h0.026h0.099
			h0.026h0.099h0.026h0.099h0.026h0.125l-0.026-1h0.125h0.026h0.099h0.026h0.099h0.026h0.099h0.026h0.099h0.026h0.099h0.026h0.099
			h0.026h0.125l-0.026-1h0.126h0.026h0.099h0.026h0.099h0.026h0.099h0.026h0.099h0.026h0.099h0.026h0.099h0.026h0.125l-0.026-1
			h0.125h0.026h0.099h0.026h0.099h0.012c1.177,7.805,3.035,20.052,3.347,22.025c0.059,0.373,0.316,0.695,0.658,0.824
			c0.342,0.131,0.704,0.041,0.926-0.226c0.014-0.017,0.04-0.046,0.056-0.063c0.022-0.021,0.049-0.037,0.069-0.062
			c0.014-0.017,0.04-0.046,0.056-0.063c0.022-0.021,0.049-0.037,0.069-0.062c0.014-0.017,0.04-0.046,0.056-0.063
			c0.022-0.021,0.049-0.037,0.069-0.062c0.014-0.017,0.04-0.046,0.056-0.063c0.022-0.021,0.049-0.037,0.069-0.062
			c0.014-0.017,0.04-0.046,0.056-0.063c0.022-0.021,0.049-0.037,0.069-0.062c0.014-0.017,0.04-0.046,0.056-0.063
			c0.022-0.021,0.049-0.037,0.069-0.062c0.014-0.017,0.04-0.046,0.056-0.063c0.022-0.021,0.049-0.037,0.069-0.062
			c0.014-0.017,0.04-0.046,0.056-0.063c0.022-0.021,0.049-0.037,0.069-0.062c0.014-0.017,0.04-0.046,0.056-0.063
			c0.022-0.021,0.049-0.037,0.069-0.062c0.014-0.017,0.04-0.046,0.056-0.063c0.022-0.021,0.049-0.037,0.069-0.062
			c0.014-0.017,0.04-0.046,0.056-0.063c0.022-0.021,0.049-0.037,0.069-0.062c0.014-0.017,0.04-0.046,0.056-0.063
			c0.022-0.021,0.049-0.037,0.069-0.062c0.014-0.017,0.04-0.046,0.056-0.063c0.022-0.021,0.049-0.037,0.069-0.062
			c0.014-0.017,0.04-0.046,0.056-0.063c0.022-0.021,0.049-0.037,0.069-0.062c0.014-0.017,0.04-0.046,0.056-0.063
			c0.022-0.021,0.049-0.037,0.069-0.062c0.014-0.017,0.04-0.046,0.056-0.063c0.022-0.021,0.049-0.037,0.069-0.062
			c0.014-0.017,0.04-0.046,0.056-0.063c0.022-0.021,0.049-0.037,0.069-0.062c0.014-0.017,0.04-0.046,0.056-0.063
			c0.022-0.021,0.049-0.037,0.069-0.062c0.014-0.017,0.04-0.046,0.056-0.063c0.022-0.021,0.049-0.037,0.069-0.062
			c0.014-0.017,0.04-0.046,0.056-0.063c0.022-0.021,0.049-0.037,0.069-0.062c0.014-0.017,0.04-0.046,0.056-0.063
			c0.022-0.021,0.049-0.037,0.069-0.062c0.014-0.017,0.04-0.046,0.056-0.063c0.022-0.021,0.049-0.037,0.069-0.062
			c0.014-0.017,0.04-0.046,0.056-0.063c0.022-0.021,0.049-0.037,0.069-0.062c0.014-0.017,0.04-0.046,0.056-0.063
			c0.022-0.021,0.049-0.037,0.069-0.062c0.014-0.017,0.04-0.046,0.056-0.063c0.022-0.021,0.049-0.037,0.069-0.062
			c0.014-0.017,0.04-0.046,0.056-0.063c0.022-0.021,0.049-0.037,0.069-0.062c0.014-0.017,0.04-0.046,0.056-0.063
			c0.022-0.021,0.049-0.037,0.069-0.062c0.014-0.017,0.04-0.046,0.056-0.063c0.022-0.021,0.049-0.037,0.069-0.062
			c0.014-0.017,0.04-0.046,0.056-0.063c0.022-0.021,0.049-0.037,0.069-0.062c0.014-0.017,0.04-0.046,0.056-0.063
			c0.022-0.021,0.049-0.037,0.069-0.062c0.014-0.017,0.04-0.046,0.056-0.063c0.022-0.021,0.049-0.037,0.069-0.062
			c0.013-0.017,0.039-0.044,0.054-0.063c0.023-0.021,0.051-0.037,0.072-0.063c0.014-0.018,0.04-0.047,0.056-0.064
			c0.022-0.021,0.049-0.035,0.069-0.061c0.014-0.018,0.04-0.047,0.056-0.064c0.022-0.021,0.049-0.035,0.069-0.061
			c0.014-0.018,0.04-0.046,0.056-0.064c0.001,0,0.002-0.002,0.003-0.002c1.111,2.243,3.233,6.521,4.723,9.474
			c0.122,0.239,0.327,0.426,0.567,0.513c0.24,0.088,0.495,0.068,0.703-0.052l6.838-3.947c0.003,0,0.005-0.002,0.007-0.003
			c0.109-0.063,0.195-0.15,0.261-0.251c0.043-0.042,0.092-0.076,0.125-0.125c0.043-0.042,0.092-0.076,0.125-0.125
			c0.043-0.042,0.092-0.076,0.125-0.125c0.043-0.042,0.092-0.076,0.125-0.125c0.043-0.042,0.092-0.076,0.125-0.125
			c0.043-0.042,0.092-0.076,0.125-0.125c0.043-0.042,0.092-0.076,0.125-0.125c0.043-0.042,0.092-0.076,0.125-0.125
			c0.043-0.042,0.092-0.076,0.125-0.125c0.043-0.042,0.092-0.076,0.125-0.125c0.043-0.042,0.092-0.076,0.125-0.125
			c0.043-0.042,0.092-0.076,0.125-0.125c0.043-0.042,0.092-0.076,0.125-0.125c0.043-0.042,0.092-0.076,0.125-0.125
			c0.043-0.042,0.092-0.076,0.125-0.125c0.043-0.042,0.092-0.076,0.125-0.125c0.043-0.042,0.092-0.076,0.125-0.125
			c0.043-0.042,0.092-0.076,0.125-0.125c0.043-0.042,0.092-0.076,0.125-0.125c0.043-0.042,0.092-0.076,0.125-0.125
			c0.043-0.042,0.092-0.076,0.125-0.125c0.043-0.042,0.092-0.076,0.125-0.125c0.043-0.042,0.092-0.076,0.125-0.125
			c0.043-0.042,0.092-0.076,0.125-0.125c0.043-0.042,0.092-0.076,0.125-0.125c0.043-0.042,0.092-0.076,0.125-0.125
			c0.043-0.042,0.092-0.076,0.125-0.125c0.043-0.042,0.092-0.076,0.125-0.125c0.043-0.042,0.092-0.076,0.125-0.125
			c0.043-0.042,0.092-0.076,0.125-0.125c0.043-0.042,0.092-0.076,0.125-0.125c0.043-0.042,0.092-0.076,0.125-0.125
			c0.043-0.042,0.092-0.076,0.125-0.125c0.043-0.042,0.092-0.076,0.125-0.125c0.043-0.042,0.092-0.076,0.125-0.125
			c0.043-0.042,0.092-0.076,0.125-0.125c0.043-0.042,0.092-0.076,0.125-0.125c0.043-0.042,0.092-0.076,0.125-0.125
			c0.043-0.042,0.092-0.076,0.125-0.125c0.043-0.042,0.092-0.076,0.125-0.125c0.043-0.042,0.092-0.076,0.125-0.125
			c0.043-0.042,0.092-0.076,0.125-0.125c0.043-0.042,0.092-0.076,0.125-0.125c0.043-0.042,0.092-0.076,0.125-0.125
			c0.043-0.042,0.092-0.076,0.125-0.125c0.043-0.042,0.092-0.076,0.125-0.125c0.043-0.042,0.092-0.076,0.125-0.125
			c0.043-0.042,0.092-0.076,0.125-0.125c0.043-0.042,0.092-0.076,0.125-0.125c0.043-0.042,0.092-0.076,0.125-0.125
			c0.043-0.042,0.092-0.076,0.125-0.125c0.043-0.042,0.092-0.076,0.125-0.125c0.043-0.042,0.092-0.076,0.125-0.125
			c0.043-0.042,0.092-0.076,0.125-0.125c0.043-0.041,0.093-0.076,0.125-0.125c0.043-0.041,0.093-0.076,0.126-0.126
			c0.043-0.041,0.092-0.075,0.125-0.125c0.042-0.041,0.092-0.075,0.125-0.124c0.043-0.041,0.093-0.076,0.125-0.125
			c0.043-0.042,0.092-0.076,0.125-0.125c0.043-0.042,0.092-0.076,0.125-0.125c0.043-0.042,0.092-0.076,0.125-0.125
			c0.043-0.042,0.092-0.076,0.125-0.125c0.043-0.042,0.092-0.076,0.125-0.125c0.043-0.042,0.092-0.076,0.125-0.125
			c0.043-0.042,0.092-0.076,0.125-0.125c0.043-0.042,0.092-0.076,0.125-0.125c0.043-0.042,0.092-0.076,0.125-0.125
			c0.043-0.042,0.092-0.076,0.125-0.125c0.043-0.042,0.092-0.076,0.125-0.125c0.043-0.042,0.092-0.076,0.125-0.125
			c0.043-0.042,0.092-0.076,0.125-0.125c0.043-0.042,0.092-0.076,0.125-0.125c0.043-0.042,0.092-0.076,0.125-0.125
			c0.043-0.042,0.092-0.076,0.125-0.125c0.043-0.042,0.092-0.076,0.125-0.125c0.043-0.042,0.092-0.076,0.125-0.125
			c0.043-0.042,0.092-0.076,0.125-0.125c0.043-0.042,0.092-0.076,0.125-0.125c0.043-0.042,0.092-0.076,0.125-0.125
			c0.043-0.042,0.092-0.076,0.125-0.125c0.043-0.042,0.092-0.076,0.125-0.125c0.043-0.042,0.092-0.076,0.125-0.125
			c0.043-0.042,0.092-0.076,0.125-0.125c0.043-0.042,0.092-0.076,0.125-0.125c0.043-0.042,0.092-0.076,0.125-0.125
			c0.043-0.042,0.092-0.076,0.125-0.125c0.043-0.042,0.092-0.076,0.125-0.125c0.043-0.042,0.092-0.076,0.125-0.125
			c0.043-0.042,0.092-0.076,0.125-0.125c0.043-0.042,0.092-0.076,0.125-0.125c0.043-0.042,0.092-0.076,0.125-0.125
			c0.043-0.042,0.092-0.076,0.125-0.125c0.043-0.042,0.092-0.076,0.125-0.125c0.043-0.042,0.092-0.076,0.125-0.125
			c0.043-0.042,0.092-0.076,0.125-0.125c0.043-0.042,0.092-0.076,0.125-0.125c0.043-0.042,0.092-0.076,0.125-0.125
			c0.043-0.042,0.092-0.076,0.125-0.125c0.043-0.042,0.092-0.076,0.125-0.125c0.043-0.042,0.092-0.076,0.125-0.125
			c0.043-0.042,0.092-0.076,0.125-0.125c0.043-0.042,0.092-0.076,0.125-0.125c0.043-0.042,0.092-0.076,0.125-0.125
			c0.043-0.042,0.092-0.076,0.125-0.125c0.043-0.042,0.092-0.076,0.125-0.125c0.043-0.042,0.092-0.076,0.125-0.125
			c0.043-0.042,0.092-0.076,0.125-0.125c0.043-0.042,0.092-0.076,0.125-0.125c0.043-0.042,0.092-0.076,0.125-0.125
			c0.043-0.042,0.092-0.076,0.125-0.125c0.043-0.042,0.092-0.076,0.125-0.125c0.043-0.042,0.092-0.076,0.125-0.125
			c0.043-0.042,0.092-0.076,0.125-0.125c0.043-0.042,0.092-0.076,0.125-0.125c0.043-0.042,0.092-0.076,0.125-0.125
			c0.043-0.042,0.092-0.076,0.125-0.125c0.043-0.042,0.092-0.076,0.125-0.125c0.043-0.042,0.092-0.076,0.125-0.125
			c0.043-0.042,0.092-0.076,0.125-0.125c0.043-0.042,0.092-0.076,0.125-0.125c0.043-0.042,0.092-0.076,0.125-0.125
			c0.043-0.042,0.092-0.076,0.125-0.125c0.043-0.042,0.092-0.076,0.125-0.125c0.043-0.042,0.092-0.076,0.125-0.125
			c0.043-0.042,0.092-0.076,0.125-0.125c0.043-0.042,0.092-0.076,0.125-0.125c0.043-0.042,0.092-0.076,0.125-0.125
			c0.043-0.042,0.092-0.076,0.125-0.125c0.043-0.042,0.092-0.076,0.125-0.125c0.043-0.042,0.092-0.076,0.125-0.125
			c0.043-0.042,0.092-0.076,0.125-0.125c0.043-0.042,0.092-0.076,0.125-0.125c0.043-0.042,0.092-0.076,0.125-0.125
			c0.043-0.042,0.092-0.076,0.125-0.125c0.043-0.042,0.092-0.076,0.125-0.125c0.043-0.042,0.092-0.076,0.125-0.125
			c0.043-0.041,0.093-0.076,0.125-0.125c0.043-0.041,0.093-0.076,0.126-0.126c0.043-0.041,0.092-0.075,0.125-0.125
			c0.042-0.041,0.092-0.075,0.125-0.124c0.043-0.041,0.093-0.076,0.125-0.125c0.043-0.042,0.092-0.076,0.125-0.125
			c0.043-0.042,0.092-0.076,0.125-0.125c0.043-0.042,0.092-0.076,0.125-0.125c0.043-0.042,0.092-0.076,0.125-0.125
			c0.043-0.042,0.092-0.076,0.125-0.125c0.043-0.042,0.092-0.076,0.125-0.125c0.043-0.042,0.092-0.076,0.125-0.125
			c0.043-0.042,0.092-0.076,0.125-0.125c0.043-0.042,0.092-0.076,0.125-0.125c0.043-0.042,0.092-0.076,0.125-0.125
			c0.043-0.042,0.092-0.076,0.125-0.125c0.043-0.042,0.092-0.076,0.125-0.125c0.043-0.042,0.092-0.076,0.125-0.125
			c0.043-0.042,0.092-0.076,0.125-0.125c0.043-0.042,0.092-0.076,0.125-0.125c0.043-0.042,0.092-0.076,0.125-0.125
			c0.043-0.042,0.092-0.076,0.125-0.125c0.043-0.042,0.092-0.076,0.125-0.125c0.043-0.042,0.092-0.076,0.125-0.125
			c0.043-0.042,0.092-0.076,0.125-0.125c0.025-0.024,0.054-0.043,0.075-0.07c0.629-0.069,1.189-0.362,1.6-0.81
			c0.043-0.04,0.085-0.081,0.125-0.125c0.043-0.04,0.085-0.081,0.125-0.125c0.043-0.04,0.085-0.081,0.125-0.125
			c0.043-0.04,0.085-0.081,0.125-0.125c0.043-0.04,0.085-0.081,0.125-0.125c0.043-0.04,0.085-0.081,0.125-0.125
			c0.043-0.04,0.085-0.081,0.125-0.125c0.043-0.04,0.085-0.081,0.125-0.125c0.043-0.04,0.085-0.081,0.125-0.125
			c0.043-0.04,0.085-0.081,0.125-0.125c0.043-0.04,0.085-0.081,0.125-0.125c0.043-0.04,0.085-0.081,0.125-0.125
			c0.043-0.04,0.085-0.081,0.125-0.125c0.043-0.04,0.085-0.081,0.125-0.125c0.043-0.04,0.085-0.081,0.125-0.125
			c0.043-0.04,0.085-0.081,0.125-0.125c0.043-0.04,0.085-0.081,0.125-0.125c0.043-0.04,0.085-0.081,0.125-0.125
			c0.043-0.04,0.085-0.081,0.125-0.125c0.043-0.04,0.085-0.081,0.125-0.125c0.043-0.04,0.085-0.081,0.125-0.125
			c0.043-0.04,0.085-0.081,0.125-0.125c0.043-0.04,0.085-0.081,0.125-0.125c0.043-0.04,0.085-0.081,0.125-0.125
			c0.043-0.04,0.085-0.081,0.125-0.125c0.043-0.04,0.085-0.081,0.125-0.125c0.043-0.04,0.085-0.081,0.125-0.125
			c0.043-0.04,0.085-0.081,0.125-0.125c0.043-0.04,0.085-0.081,0.125-0.125c0.043-0.04,0.085-0.081,0.125-0.125
			c0.043-0.04,0.085-0.081,0.125-0.125c0.043-0.04,0.085-0.081,0.125-0.125c0.043-0.04,0.085-0.081,0.125-0.125
			c0.043-0.04,0.085-0.081,0.125-0.125c0.043-0.04,0.085-0.081,0.125-0.125c0.043-0.04,0.085-0.081,0.125-0.125
			c0.043-0.04,0.085-0.081,0.125-0.125c0.043-0.04,0.085-0.081,0.125-0.125c0.043-0.04,0.085-0.081,0.125-0.125
			c0.043-0.04,0.084-0.08,0.124-0.124c0.043-0.041,0.086-0.082,0.127-0.126c0.043-0.041,0.084-0.081,0.125-0.125
			c0.043-0.041,0.084-0.081,0.125-0.125c0.043-0.041,0.084-0.081,0.125-0.125c0.043-0.041,0.084-0.081,0.125-0.125
			c0.043-0.041,0.084-0.081,0.125-0.125c0.043-0.041,0.084-0.081,0.125-0.125c0.042-0.04,0.084-0.081,0.124-0.124
			c0.043-0.041,0.085-0.082,0.126-0.126c0.043-0.041,0.085-0.081,0.125-0.125c0.043-0.041,0.085-0.081,0.125-0.125
			c0.043-0.041,0.085-0.081,0.125-0.125c0.043-0.041,0.085-0.081,0.125-0.125c0.043-0.041,0.085-0.081,0.125-0.125
			c0.043-0.041,0.085-0.081,0.125-0.125c0.043-0.041,0.085-0.081,0.125-0.125c0.043-0.041,0.085-0.081,0.125-0.125
			c0.043-0.041,0.085-0.081,0.125-0.125c0.043-0.04,0.085-0.081,0.125-0.124c0.043-0.041,0.085-0.082,0.125-0.126
			c0.043-0.04,0.085-0.081,0.125-0.125c0.043-0.04,0.085-0.081,0.125-0.125c0.043-0.04,0.085-0.081,0.125-0.125
			c0.043-0.04,0.085-0.081,0.125-0.125c0.043-0.04,0.085-0.081,0.125-0.125c0.043-0.04,0.085-0.081,0.125-0.125
			c0.043-0.04,0.085-0.081,0.125-0.125c0.043-0.04,0.085-0.081,0.125-0.125c0.043-0.04,0.085-0.081,0.125-0.125
			c0.043-0.04,0.085-0.081,0.125-0.125c0.043-0.04,0.085-0.081,0.125-0.125c0.043-0.04,0.085-0.081,0.125-0.125
			c0.043-0.04,0.085-0.081,0.125-0.125c0.043-0.04,0.085-0.081,0.125-0.125c0.043-0.04,0.085-0.081,0.125-0.125
			c0.043-0.04,0.085-0.081,0.125-0.125c0.043-0.04,0.085-0.081,0.125-0.125c0.043-0.04,0.085-0.081,0.125-0.125
			c0.043-0.04,0.085-0.081,0.125-0.125c0.043-0.04,0.085-0.081,0.125-0.125c0.043-0.04,0.085-0.081,0.125-0.125
			c0.043-0.04,0.085-0.081,0.125-0.125c0.043-0.04,0.085-0.081,0.125-0.125c0.043-0.04,0.085-0.081,0.125-0.125
			c0.043-0.04,0.085-0.081,0.125-0.125c0.043-0.04,0.085-0.081,0.125-0.125c0.043-0.04,0.085-0.081,0.125-0.125
			c0.043-0.04,0.085-0.081,0.125-0.125c0.043-0.04,0.085-0.081,0.125-0.125c0.043-0.04,0.085-0.081,0.125-0.125
			c0.043-0.04,0.085-0.081,0.125-0.125c0.043-0.04,0.085-0.081,0.125-0.125c0.043-0.04,0.085-0.081,0.125-0.125
			c0.043-0.04,0.085-0.081,0.125-0.125c0.043-0.04,0.085-0.081,0.125-0.125c0.043-0.04,0.085-0.081,0.125-0.125
			c0.043-0.04,0.085-0.081,0.125-0.125c0.043-0.04,0.085-0.081,0.125-0.125c0.043-0.04,0.085-0.081,0.125-0.125
			c0.043-0.04,0.085-0.081,0.125-0.125c0.043-0.04,0.085-0.081,0.125-0.125c0.043-0.04,0.085-0.081,0.125-0.125
			c0.043-0.04,0.085-0.081,0.125-0.125c0.043-0.04,0.085-0.081,0.125-0.125c0.043-0.04,0.085-0.081,0.125-0.125
			c0.043-0.04,0.085-0.081,0.125-0.125c0.043-0.04,0.085-0.081,0.125-0.125c0.043-0.04,0.085-0.081,0.125-0.125
			c0.043-0.04,0.085-0.081,0.125-0.125c0.043-0.04,0.085-0.081,0.125-0.125c0.043-0.04,0.085-0.081,0.125-0.125
			c0.043-0.04,0.085-0.081,0.125-0.125c0.043-0.04,0.085-0.081,0.125-0.125c0.043-0.04,0.085-0.081,0.125-0.125
			c0.043-0.04,0.085-0.081,0.125-0.125c0.043-0.04,0.085-0.081,0.125-0.125c0.043-0.04,0.085-0.081,0.125-0.125
			c0.043-0.04,0.085-0.081,0.125-0.125c0.043-0.04,0.085-0.081,0.125-0.125c0.042-0.04,0.084-0.08,0.124-0.124
			c0.043-0.041,0.086-0.082,0.126-0.126c0.043-0.041,0.085-0.081,0.125-0.125c0.043-0.041,0.085-0.081,0.125-0.125
			c0.043-0.041,0.085-0.081,0.125-0.125c0.043-0.041,0.085-0.081,0.125-0.125c0.043-0.041,0.085-0.081,0.125-0.125
			c0.043-0.041,0.085-0.081,0.125-0.125c0.043-0.041,0.085-0.081,0.125-0.125c0.043-0.041,0.085-0.081,0.125-0.125
			c0.043-0.041,0.085-0.081,0.125-0.125c0.043-0.04,0.085-0.081,0.125-0.124c0.043-0.041,0.085-0.082,0.126-0.126
			c0.043-0.041,0.084-0.081,0.125-0.125c0.043-0.041,0.084-0.081,0.125-0.125c0.043-0.041,0.084-0.081,0.125-0.125
			c0.043-0.041,0.084-0.081,0.125-0.125c0.043-0.041,0.084-0.081,0.125-0.125c0.043-0.041,0.084-0.081,0.125-0.125
			c0.043-0.041,0.084-0.081,0.125-0.125c0.043-0.041,0.084-0.081,0.125-0.125c0.043-0.041,0.084-0.081,0.125-0.125
			c0.043-0.04,0.084-0.081,0.124-0.124c0.043-0.041,0.085-0.082,0.126-0.126c0.043-0.04,0.085-0.081,0.125-0.125
			c0.043-0.04,0.085-0.081,0.125-0.125c0.043-0.04,0.085-0.081,0.125-0.125c0.043-0.04,0.085-0.081,0.125-0.125
			c0.043-0.04,0.085-0.081,0.125-0.125c0.043-0.04,0.085-0.081,0.125-0.125c0.043-0.04,0.085-0.081,0.125-0.125
			c0.043-0.04,0.085-0.081,0.125-0.125c0.043-0.04,0.085-0.081,0.125-0.125c0.043-0.04,0.085-0.081,0.125-0.125
			c0.043-0.04,0.085-0.081,0.125-0.125c0.043-0.04,0.085-0.081,0.125-0.125c0.043-0.04,0.085-0.081,0.125-0.125
			c0.043-0.04,0.085-0.081,0.125-0.125c0.043-0.04,0.085-0.081,0.125-0.125c0.043-0.04,0.085-0.081,0.125-0.125
			c0.043-0.04,0.085-0.081,0.125-0.125c0.043-0.04,0.085-0.081,0.125-0.125c0.043-0.04,0.085-0.081,0.125-0.125
			c0.043-0.04,0.085-0.081,0.125-0.125c0.043-0.04,0.085-0.081,0.125-0.125c0.043-0.04,0.085-0.081,0.125-0.125
			c0.043-0.04,0.085-0.081,0.125-0.125c0.043-0.04,0.085-0.081,0.125-0.125c0.043-0.04,0.085-0.081,0.125-0.125
			c0.043-0.04,0.085-0.081,0.125-0.125c0.043-0.04,0.085-0.081,0.125-0.125c0.043-0.04,0.085-0.081,0.125-0.125
			c0.043-0.04,0.085-0.081,0.125-0.125c0.043-0.04,0.085-0.081,0.125-0.125c0.043-0.04,0.085-0.081,0.125-0.125
			c0.043-0.04,0.085-0.081,0.125-0.125c0.043-0.04,0.085-0.081,0.125-0.125c0.043-0.04,0.085-0.081,0.125-0.125
			c0.043-0.04,0.085-0.081,0.125-0.125c0.043-0.04,0.085-0.081,0.125-0.125c0.043-0.04,0.085-0.081,0.125-0.125
			c0.043-0.04,0.085-0.081,0.125-0.125c0.043-0.04,0.085-0.081,0.125-0.125c0.043-0.04,0.085-0.081,0.125-0.125
			c0.043-0.04,0.085-0.081,0.125-0.125c0.043-0.04,0.085-0.081,0.125-0.125c0.043-0.04,0.085-0.081,0.125-0.125
			c0.043-0.04,0.085-0.081,0.125-0.125c0.043-0.04,0.085-0.081,0.125-0.125c0.043-0.04,0.085-0.081,0.125-0.125
			c0.043-0.04,0.085-0.081,0.125-0.125c0.043-0.04,0.085-0.081,0.125-0.125c0.043-0.04,0.085-0.081,0.125-0.125
			c0.043-0.04,0.085-0.081,0.125-0.125c0.043-0.04,0.085-0.081,0.125-0.125c0.043-0.04,0.085-0.081,0.125-0.125
			c0.022-0.021,0.041-0.051,0.063-0.073c0.063-0.058,0.127-0.112,0.187-0.177c0.043-0.04,0.085-0.081,0.125-0.125
			c0.043-0.04,0.085-0.081,0.125-0.125c0.043-0.04,0.085-0.081,0.125-0.125c0.043-0.04,0.085-0.081,0.125-0.125
			c0.043-0.04,0.085-0.081,0.125-0.125c0.043-0.04,0.085-0.081,0.125-0.125c0.042-0.04,0.084-0.08,0.124-0.124
			c0.043-0.041,0.086-0.082,0.126-0.126c0.043-0.041,0.085-0.081,0.125-0.125c0.043-0.041,0.085-0.081,0.125-0.125
			c0.043-0.041,0.085-0.081,0.125-0.125c0.043-0.041,0.085-0.081,0.125-0.125c0.043-0.041,0.085-0.081,0.125-0.125
			c0.043-0.041,0.085-0.081,0.125-0.125c0.043-0.04,0.085-0.081,0.125-0.124c0.043-0.041,0.085-0.082,0.126-0.126
			c0.043-0.041,0.085-0.081,0.125-0.125c0.043-0.041,0.085-0.081,0.125-0.125c0.043-0.041,0.085-0.081,0.125-0.125
			c0.043-0.041,0.085-0.081,0.125-0.125c0.043-0.041,0.085-0.081,0.125-0.125c0.043-0.041,0.085-0.081,0.125-0.125
			c0.043-0.041,0.085-0.081,0.125-0.125c0.043-0.041,0.085-0.081,0.125-0.125c0.043-0.041,0.085-0.081,0.125-0.125
			c0.043-0.04,0.084-0.081,0.124-0.124c0.043-0.041,0.085-0.082,0.126-0.126c0.043-0.04,0.085-0.081,0.125-0.125
			c0.043-0.04,0.085-0.081,0.125-0.125c0.043-0.04,0.085-0.081,0.125-0.125c0.043-0.04,0.085-0.081,0.125-0.125
			c0.043-0.04,0.085-0.081,0.125-0.125c0.043-0.04,0.085-0.081,0.125-0.125c0.043-0.04,0.085-0.081,0.125-0.125
			c0.043-0.04,0.085-0.081,0.125-0.125c0.043-0.04,0.085-0.081,0.125-0.125c0.043-0.04,0.085-0.081,0.125-0.125
			c0.043-0.04,0.085-0.081,0.125-0.125c0.043-0.04,0.085-0.081,0.125-0.125c0.043-0.04,0.085-0.081,0.125-0.125
			c0.043-0.04,0.085-0.081,0.125-0.125c0.043-0.04,0.085-0.081,0.125-0.125c0.043-0.04,0.085-0.081,0.125-0.125
			c0.043-0.04,0.085-0.081,0.125-0.125c0.043-0.04,0.085-0.081,0.125-0.125c0.043-0.04,0.085-0.081,0.125-0.125
			c0.043-0.04,0.085-0.081,0.125-0.125c0.043-0.04,0.085-0.081,0.125-0.125c0.043-0.04,0.085-0.081,0.125-0.125
			c0.043-0.04,0.085-0.081,0.125-0.125c0.043-0.04,0.085-0.081,0.125-0.125c0.043-0.04,0.085-0.081,0.125-0.125
			c0.043-0.04,0.085-0.081,0.125-0.125c0.043-0.04,0.085-0.081,0.125-0.125c0.043-0.04,0.085-0.081,0.125-0.125
			c0.043-0.04,0.085-0.081,0.125-0.125c0.043-0.04,0.085-0.081,0.125-0.125c0.043-0.04,0.085-0.081,0.125-0.125
			c0.043-0.04,0.085-0.081,0.125-0.125c0.043-0.04,0.085-0.081,0.125-0.125c0.043-0.04,0.085-0.081,0.125-0.125
			c0.043-0.04,0.085-0.081,0.125-0.125c0.043-0.04,0.085-0.081,0.125-0.125c0.043-0.04,0.085-0.081,0.125-0.125
			c0.043-0.04,0.085-0.081,0.125-0.125c0.043-0.04,0.085-0.081,0.125-0.125c0.043-0.04,0.085-0.081,0.125-0.125
			c0.043-0.04,0.085-0.081,0.125-0.125c0.043-0.04,0.085-0.081,0.125-0.125c0.043-0.04,0.085-0.081,0.125-0.125
			c0.043-0.04,0.085-0.081,0.125-0.125c0.043-0.04,0.085-0.081,0.125-0.125c0.043-0.04,0.085-0.081,0.125-0.125
			c0.043-0.04,0.085-0.081,0.125-0.125c0.043-0.04,0.085-0.081,0.125-0.125c0.043-0.04,0.085-0.081,0.125-0.125
			c0.043-0.04,0.085-0.081,0.125-0.125c0.043-0.04,0.085-0.081,0.125-0.125c0.043-0.04,0.085-0.081,0.125-0.125
			c0.043-0.04,0.085-0.081,0.125-0.125c0.043-0.04,0.085-0.081,0.125-0.125c0.043-0.04,0.085-0.081,0.125-0.125
			c0.043-0.04,0.085-0.081,0.125-0.125c0.043-0.04,0.085-0.081,0.125-0.125c0.043-0.04,0.085-0.081,0.125-0.125
			c0.043-0.04,0.085-0.081,0.125-0.125c0.042-0.04,0.084-0.08,0.124-0.124c0.043-0.041,0.086-0.082,0.126-0.126
			c0.043-0.041,0.085-0.081,0.125-0.125c0.043-0.041,0.085-0.081,0.125-0.125c0.043-0.041,0.085-0.081,0.125-0.125
			c0.043-0.041,0.085-0.081,0.125-0.125c0.043-0.041,0.085-0.081,0.125-0.125c0.043-0.041,0.085-0.081,0.125-0.125
			c0.043-0.041,0.085-0.081,0.125-0.125c0.043-0.041,0.085-0.081,0.125-0.125c0.043-0.041,0.085-0.081,0.125-0.125
			c0.043-0.04,0.085-0.081,0.125-0.124c0.043-0.041,0.085-0.082,0.126-0.126c0.043-0.041,0.084-0.081,0.125-0.125
			c0.043-0.041,0.084-0.081,0.125-0.125c0.043-0.041,0.084-0.081,0.125-0.125c0.043-0.041,0.084-0.081,0.125-0.125
			c0.043-0.041,0.084-0.081,0.125-0.125c0.043-0.041,0.084-0.081,0.125-0.125c0.043-0.041,0.084-0.081,0.125-0.125
			c0.043-0.041,0.084-0.081,0.125-0.125c0.043-0.041,0.084-0.081,0.125-0.125c0.043-0.04,0.084-0.081,0.124-0.124
			c0.043-0.041,0.085-0.082,0.126-0.126c0.043-0.04,0.085-0.081,0.125-0.125c0.043-0.04,0.085-0.081,0.125-0.125
			c0.043-0.04,0.085-0.081,0.125-0.125c0.043-0.04,0.085-0.081,0.125-0.125c0.043-0.04,0.085-0.081,0.125-0.125
			c0.043-0.04,0.085-0.081,0.125-0.125c0.043-0.04,0.085-0.081,0.125-0.125c0.043-0.04,0.085-0.081,0.125-0.125
			c0.043-0.04,0.085-0.081,0.125-0.125c0.043-0.04,0.085-0.081,0.125-0.125c0.043-0.04,0.085-0.081,0.125-0.125
			c0.043-0.04,0.085-0.081,0.125-0.125c0.043-0.04,0.085-0.081,0.125-0.125c0.043-0.04,0.085-0.081,0.125-0.125
			c0.043-0.04,0.085-0.081,0.125-0.125c0.043-0.04,0.085-0.081,0.125-0.125c0.043-0.04,0.085-0.081,0.125-0.125
			c0.043-0.04,0.085-0.081,0.125-0.125c0.043-0.04,0.085-0.081,0.125-0.125c0.043-0.04,0.085-0.081,0.125-0.125
			c0.043-0.04,0.085-0.081,0.125-0.125c0.043-0.04,0.085-0.081,0.125-0.125c0.043-0.04,0.085-0.081,0.125-0.125
			c0.043-0.04,0.085-0.081,0.125-0.125c0.043-0.04,0.085-0.081,0.125-0.125c0.043-0.04,0.085-0.081,0.125-0.125
			c0.043-0.04,0.085-0.081,0.125-0.125c0.043-0.04,0.085-0.081,0.125-0.125c0.043-0.04,0.085-0.081,0.125-0.125
			c0.043-0.04,0.085-0.081,0.125-0.125c0.043-0.04,0.085-0.081,0.125-0.125c0.043-0.04,0.085-0.081,0.125-0.125
			c0.043-0.04,0.085-0.081,0.125-0.125c0.043-0.04,0.085-0.081,0.125-0.125c0.043-0.04,0.085-0.081,0.125-0.125
			c0.043-0.04,0.085-0.081,0.125-0.125c0.043-0.04,0.085-0.081,0.125-0.125c0.043-0.04,0.085-0.081,0.125-0.125
			c0.043-0.04,0.085-0.081,0.125-0.125c0.043-0.04,0.085-0.081,0.125-0.125c0.043-0.04,0.085-0.081,0.125-0.125
			c0.043-0.04,0.085-0.081,0.125-0.125c0.043-0.04,0.085-0.081,0.125-0.125c0.043-0.04,0.085-0.081,0.125-0.125
			c0.043-0.04,0.085-0.081,0.125-0.125c0.043-0.04,0.085-0.081,0.125-0.125c0.043-0.04,0.085-0.081,0.125-0.125
			c0.043-0.04,0.085-0.081,0.125-0.125c0.043-0.04,0.085-0.081,0.125-0.125c0.043-0.04,0.085-0.081,0.125-0.125
			c0.043-0.04,0.085-0.081,0.125-0.125c0.043-0.04,0.085-0.081,0.125-0.125c0.043-0.04,0.085-0.081,0.125-0.125
			c0.043-0.04,0.085-0.081,0.125-0.125c0.043-0.04,0.085-0.081,0.125-0.125c0.043-0.04,0.085-0.081,0.125-0.125
			c0.043-0.04,0.085-0.081,0.125-0.125c0.043-0.04,0.085-0.081,0.125-0.125c0.043-0.04,0.085-0.081,0.125-0.125
			c0.042-0.04,0.084-0.08,0.124-0.124c0.043-0.041,0.086-0.082,0.126-0.126c0.043-0.041,0.085-0.081,0.125-0.125
			c0.043-0.041,0.085-0.081,0.125-0.125c0.043-0.041,0.085-0.081,0.125-0.125c0.043-0.041,0.085-0.081,0.125-0.125
			c0.043-0.041,0.085-0.081,0.125-0.125c0.043-0.041,0.085-0.081,0.125-0.125c0.043-0.04,0.085-0.081,0.125-0.124
			c0.043-0.041,0.085-0.082,0.126-0.126c0.043-0.041,0.086-0.081,0.125-0.125c0.043-0.041,0.086-0.081,0.125-0.125
			c0.043-0.041,0.086-0.081,0.125-0.125c0.043-0.041,0.086-0.081,0.125-0.125c0.043-0.041,0.086-0.081,0.125-0.125
			c0.043-0.041,0.086-0.081,0.125-0.125c0.043-0.041,0.086-0.081,0.125-0.125c0.043-0.041,0.086-0.081,0.125-0.125
			c0.043-0.041,0.086-0.081,0.125-0.125c0.043-0.041,0.086-0.081,0.125-0.125c0.043-0.04,0.084-0.081,0.124-0.124
			c0.043-0.041,0.085-0.082,0.126-0.126c0.043-0.04,0.086-0.081,0.125-0.125c0.043-0.04,0.086-0.081,0.125-0.125
			c0.043-0.04,0.086-0.081,0.125-0.125c0.043-0.04,0.086-0.081,0.125-0.125c0.043-0.04,0.086-0.081,0.125-0.125
			c0.043-0.04,0.086-0.081,0.125-0.125c0.043-0.04,0.086-0.081,0.125-0.125c0.043-0.04,0.086-0.081,0.125-0.125
			c0.043-0.04,0.086-0.081,0.125-0.125c0.043-0.04,0.086-0.081,0.125-0.125c0.043-0.04,0.086-0.081,0.125-0.125
			c0.043-0.04,0.086-0.081,0.125-0.125c0.043-0.04,0.086-0.081,0.125-0.125c0.043-0.04,0.086-0.081,0.125-0.125
			c0.043-0.04,0.086-0.081,0.125-0.125c0.043-0.04,0.086-0.081,0.125-0.125c0.043-0.04,0.086-0.081,0.125-0.125
			c0.043-0.04,0.086-0.081,0.125-0.125c0.043-0.04,0.086-0.081,0.125-0.125c0.043-0.04,0.086-0.081,0.125-0.125
			c0.043-0.04,0.086-0.081,0.125-0.125c0.043-0.04,0.086-0.081,0.125-0.125c0.043-0.04,0.086-0.081,0.125-0.125
			c0.043-0.04,0.086-0.081,0.125-0.125c0.043-0.04,0.086-0.081,0.125-0.125c0.043-0.04,0.086-0.081,0.125-0.125
			c0.043-0.04,0.086-0.081,0.125-0.125c0.043-0.04,0.086-0.081,0.125-0.125c0.043-0.04,0.086-0.081,0.125-0.125
			c0.043-0.04,0.086-0.081,0.125-0.125c0.043-0.04,0.086-0.081,0.125-0.125c0.043-0.04,0.085-0.081,0.125-0.125
			c0.043-0.04,0.085-0.081,0.125-0.125c0.043-0.04,0.085-0.081,0.125-0.125c0.043-0.04,0.085-0.081,0.125-0.125
			c0.043-0.04,0.085-0.081,0.125-0.125c0.043-0.04,0.085-0.081,0.125-0.125c0.043-0.04,0.085-0.081,0.125-0.125
			c0.043-0.04,0.085-0.081,0.125-0.125c0.043-0.04,0.085-0.081,0.125-0.125c0.043-0.04,0.085-0.081,0.125-0.125
			c0.043-0.04,0.085-0.081,0.125-0.125c0.043-0.04,0.085-0.081,0.125-0.125c0.043-0.04,0.085-0.081,0.125-0.125
			c0.043-0.04,0.085-0.081,0.125-0.125c0.043-0.04,0.085-0.081,0.125-0.125c0.043-0.04,0.085-0.081,0.125-0.125
			c0.043-0.04,0.085-0.081,0.125-0.125c0.043-0.04,0.085-0.081,0.125-0.125c0.043-0.04,0.085-0.081,0.125-0.125
			c0.043-0.04,0.085-0.081,0.125-0.125c0.043-0.04,0.085-0.081,0.125-0.125c0.043-0.04,0.085-0.081,0.125-0.125
			c0.043-0.04,0.085-0.081,0.125-0.125c0.043-0.04,0.085-0.081,0.125-0.125c0.043-0.04,0.085-0.081,0.125-0.125
			c0.043-0.04,0.085-0.081,0.125-0.125c0.043-0.04,0.085-0.081,0.125-0.125c0.043-0.04,0.085-0.081,0.125-0.125
			c0.042-0.04,0.084-0.08,0.124-0.124c0.043-0.041,0.086-0.082,0.126-0.126c0.043-0.041,0.085-0.081,0.125-0.125
			c0.043-0.041,0.085-0.081,0.125-0.125c0.043-0.041,0.085-0.081,0.125-0.125c0.043-0.041,0.085-0.081,0.125-0.125
			c0.043-0.041,0.085-0.081,0.125-0.125c0.043-0.041,0.085-0.081,0.125-0.125c0.043-0.041,0.085-0.081,0.125-0.125
			c0.043-0.041,0.085-0.081,0.125-0.125c0.043-0.041,0.085-0.081,0.125-0.125c0.043-0.04,0.085-0.081,0.125-0.124
			c0.043-0.041,0.085-0.082,0.126-0.126c0.044-0.041,0.084-0.081,0.125-0.125c0.044-0.041,0.084-0.081,0.125-0.125
			c0.044-0.041,0.084-0.081,0.125-0.125c0.044-0.041,0.084-0.081,0.125-0.125c0.044-0.041,0.084-0.081,0.125-0.125
			c0.044-0.041,0.084-0.081,0.125-0.125c0.044-0.041,0.084-0.081,0.125-0.125c0.044-0.041,0.084-0.081,0.125-0.125
			c0.044-0.041,0.084-0.081,0.125-0.125c0.509-0.482,0.832-1.037,0.832-1.786C112.676,68.072,111.52,67,110.09,67z"/>
	</g>
</g>
<g>
	<path fill="#FFFFFF" d="M90.333,79.143c-2.114-1.709-19.245-15.39-22.157-17.699c-0.298-0.235-0.682-0.276-0.98-0.104
		c-0.297,0.172-0.454,0.525-0.397,0.9c0.544,3.676,3.827,25.352,4.251,28.035c0.059,0.373,0.316,0.695,0.658,0.824
		c0.342,0.131,0.704,0.041,0.926-0.226c0.588-0.706,2.902-3.22,4.174-4.593c1.068,2.16,3.312,6.683,4.859,9.748
		c0.122,0.24,0.327,0.427,0.566,0.514c0.24,0.088,0.496,0.068,0.703-0.052l6.838-3.947c0.004,0,0.006-0.002,0.008-0.003
		c0.416-0.241,0.535-0.813,0.267-1.279c-0.032-0.055-0.067-0.104-0.104-0.15c-1.881-2.872-4.627-6.998-5.947-8.98
		c1.826-0.413,5.158-1.16,6.064-1.316c0.342-0.06,0.601-0.328,0.658-0.688C90.775,79.764,90.627,79.38,90.333,79.143z"/>
	<path fill="#FFFFFF" d="M43.99,40h-2.806c-0.308,0-0.573,0.278-0.634,0.58l-0.999,5.024c-0.024,0.139-0.048,0.292-0.072,0.431
		c-0.017-0.088-0.032-0.168-0.05-0.256l-0.977-5.197C38.395,40.277,38.127,40,37.816,40h-2.933c-0.306,0-0.57,0.275-0.633,0.576
		l-1.031,5.011c-0.053,0.256-0.104,0.53-0.156,0.79c-0.043-0.244-0.088-0.479-0.132-0.72l-0.923-5.07
		C31.952,40.279,31.685,40,31.372,40h-2.95c-0.197,0-0.385,0.151-0.508,0.306c-0.123,0.155-0.168,0.388-0.122,0.581l2.897,12.409
		c0.07,0.29,0.33,0.704,0.629,0.704h3.022c0.304,0,0.566-0.404,0.631-0.7l1.158-5.322c0.012-0.052,0.023-0.151,0.035-0.203
		c0.007,0.038,0.015,0.052,0.021,0.091l1.031,5.431C37.278,53.601,37.544,54,37.853,54h2.988c0.294,0,0.552-0.393,0.626-0.678
		l3.149-12.297c0.05-0.194,0.007-0.508-0.114-0.666C44.379,40.201,44.19,40,43.99,40z"/>
	<path fill="#FFFFFF" d="M63.773,40h-2.805c-0.309,0-0.574,0.278-0.635,0.58l-0.998,5.024c-0.024,0.139-0.049,0.292-0.072,0.431
		c-0.017-0.088-0.033-0.168-0.05-0.256l-0.979-5.197C58.177,40.277,57.911,40,57.601,40h-2.933c-0.306,0-0.57,0.275-0.633,0.576
		l-1.032,5.011c-0.052,0.256-0.104,0.53-0.156,0.79c-0.043-0.244-0.087-0.479-0.131-0.72l-0.924-5.07
		C51.735,40.279,51.468,40,51.156,40h-2.951c-0.197,0-0.385,0.151-0.507,0.306c-0.123,0.155-0.168,0.388-0.122,0.581l2.897,12.409
		c0.069,0.29,0.33,0.704,0.63,0.704h3.022c0.304,0,0.565-0.404,0.631-0.7l1.157-5.322c0.012-0.052,0.023-0.151,0.035-0.203
		c0.008,0.038,0.016,0.052,0.022,0.091l1.032,5.431C57.062,53.601,57.327,54,57.637,54h2.988c0.294,0,0.552-0.393,0.625-0.678
		l3.15-12.297c0.05-0.194,0.008-0.508-0.115-0.666C64.162,40.201,63.975,40,63.773,40z"/>
	<path fill="#FFFFFF" d="M83.559,40h-2.807c-0.309,0-0.572,0.278-0.633,0.58l-1.001,5.024c-0.022,0.139-0.048,0.292-0.072,0.431
		c-0.017-0.088-0.032-0.168-0.049-0.256l-0.978-5.197C77.962,40.277,77.693,40,77.385,40h-2.933c-0.308,0-0.57,0.275-0.634,0.576
		l-1.031,5.011c-0.053,0.256-0.104,0.53-0.155,0.79c-0.044-0.244-0.088-0.479-0.133-0.72l-0.923-5.07
		C71.52,40.279,71.253,40,70.939,40h-2.951c-0.197,0-0.385,0.151-0.506,0.306c-0.123,0.155-0.168,0.388-0.123,0.581l2.896,12.409
		c0.07,0.29,0.331,0.704,0.631,0.704h3.022c0.303,0,0.565-0.404,0.631-0.7l1.157-5.322c0.012-0.052,0.023-0.151,0.035-0.203
		c0.008,0.039,0.015,0.052,0.021,0.091l1.031,5.431C76.848,53.601,77.111,54,77.421,54h2.987c0.295,0,0.553-0.393,0.626-0.678
		l3.149-12.297c0.051-0.194,0.008-0.508-0.115-0.666C83.947,40.201,83.758,40,83.559,40z"/>
	<path fill="#FFFFFF" d="M86.421,51.595c0,1.318,0.963,2.405,2.239,2.405h0.02c1.318,0,2.275-1.066,2.275-2.417
		c-0.023-1.365-0.952-2.318-2.258-2.318C87.378,49.265,86.421,50.245,86.421,51.595z"/>
	<path fill="#FFFFFF" d="M98,39.646C98,39.29,97.711,39,97.354,39h-1.707C95.289,39,95,39.29,95,39.646v18.707
		C95,58.71,95.289,59,95.646,59h1.707C97.711,59,98,58.71,98,58.354V39.646z"/>
	<path fill="#FFFFFF" d="M20,67V27h90.09c1.43,0,2.586-1.072,2.586-2.5S111.52,22,110.09,22H16.999C15.571,22,14,22.708,14,24.136
		v45.249C14,70.813,15.571,72,16.999,72h47.09l-1.116-5H20z"/>
	<path fill="#FFFFFF" d="M110.09,67H83.105l6.485,5h20.498c1.429,0,2.586-1.072,2.586-2.5S111.52,67,110.09,67z"/>
</g>
</svg>
